<?xml version="1.0" encoding="UTF-8" standalone="no"?>
<svg
   width="28.000000005167294mm"
   height="60.00000000028993mm"
   viewBox="0 0 28.000000005167294 60.00000000028993"
   version="1.1"
   id="svg1"
   sodipodi:docname="Belt Loop, B (3mm x 2).svg"
   inkscape:version="1.4 (86a8ad7, 2024-10-11)"
   xmlns:inkscape="http://www.inkscape.org/namespaces/inkscape"
   xmlns:sodipodi="http://sodipodi.sourceforge.net/DTD/sodipodi-0.dtd"
   xmlns="http://www.w3.org/2000/svg"
   xmlns:svg="http://www.w3.org/2000/svg">
  <defs
     id="defs1" />
  <sodipodi:namedview
     id="namedview1"
     pagecolor="#ffffff"
     bordercolor="#000000"
     borderopacity="0.25"
     inkscape:showpageshadow="2"
     inkscape:pageopacity="0.0"
     inkscape:pagecheckerboard="0"
     inkscape:deskcolor="#d1d1d1"
     inkscape:document-units="mm"
     inkscape:zoom="8.5328125"
     inkscape:cx="52.854789"
     inkscape:cy="113.38583"
     inkscape:window-width="3840"
     inkscape:window-height="2137"
     inkscape:window-x="-8"
     inkscape:window-y="-8"
     inkscape:window-maximized="1"
     inkscape:current-layer="svg1" />
  <desc
     id="desc1">Output from Flights of Ideas SVG Sketchup Plugin</desc>
  <path
     id="face0-cut"
     style="fill:none;stroke:#000000;stroke-miterlimit:4;stroke-dasharray:none;stroke-linejoin:round;stroke-linecap:round;stroke-width:0.1"
     d="M 13.171476812201718,31.200000001420307 L 11.828523191257773,31.200000001420307 L 11.55563492039164,31.555634920264026 L 11.100000001831859,31.90525589004531 L 10.569401901088895,32.12503681963199 L 10.000000001874241,32.20000000187832 L 9.430598102638214,32.12503681979658 L 8.900000001831586,31.90525589036315 L 8.444365083171078,31.555634920713402 L 8.171476812201945,31.200000001420307 L 6.828523191257773,31.200000001420307 L 6.55563492039164,31.55563492098628 L 6.100000001831859,31.90525589076759 L 5.569401901088895,32.12503682035427 L 5.000000001874469,32.200000002600575 L 4.430598102638214,32.12503682051886 L 3.900000001831586,31.90525589108526 L 3.4443650831710784,31.55563492143571 L 3.171476812201945,31.200000001420307 L 2.0000000017299726,31.200000001420307 L 1.4823619115346673,31.26814835053051 L 1.0000000017683988,31.467949195609435 L 0.5857864394414491,31.785786440865195 L 0.26794919430551545,32.20000000328423 L 0.06814834936574243,32.682361913108025 L 2.018964551098179e-09,33.200000003323 L 3.1132003641687334e-09,40.7767567535966 L 0.04368561579110519,41.402000617071366 L 0.17389354406202528,42.01509458783201 L 0.38809355540388424,42.60412487288431 L 0.6821232624573668,43.15764529069932 L 1.0502690075586543,43.66489969623109 L 1.4853768919456343,44.116030996976576 L 17.956192860697,58.966766702185595 L 18.50000000579348,59.33012701957307 L 19.086582844009627,59.619397663122754 L 19.705904780352967,59.829629131922246 L 20.347369044783818,59.957224307253114 L 21.000000005890342,60.00000000028993 L 23.000000005889206,60.000000000001165 L 23.652630966983224,59.95722430677594 L 24.29409523137747,59.82962913125951 L 24.913417167659873,59.61939766228099 L 25.50000000579257,59.330127018562024 L 26.043807150783778,58.96676670101772 L 26.5355339116104,58.53553390542288 L 26.966766707063016,58.04380714447163 L 27.33012702445035,57.49999999937546 L 27.619397668000147,56.913417161159316 L 27.82962913679944,56.294095224815976 L 27.95722431213062,55.65263096038484 L 28.000000005167294,54.99999999927857 L 27.999999997944997,4.999999999278032 L 27.957224304720057,4.347369038184041 L 27.82962912920334,3.70590477378974 L 27.619397660225104,3.086582837507393 L 27.330127016505912,2.4999999993746087 L 26.966766698961692,1.9561928543835165 L 26.53553390336674,1.46446609355678 L 26.043807142415517,1.0332332981041645 L 25.49999999731949,0.6698729807168604 L 24.91341715910312,0.3806023371671756 L 24.294095222760006,0.17037086836768367 L 23.652630958328928,0.04277569303644668 L 22.999999997222403,0.0 L 20.99999999722354,2.887645678129047e-10 L 20.34736903612952,0.04277569351435773 L 19.705904771735504,0.1703708690304211 L 19.086582835452873,0.38060233800891297 L 18.4999999973204,0.6698729817279059 L 17.95619285232874,1.0332332992727515 L 1.4853768878676874,15.883969009251985 L 1.0502690036109925,16.335100310123067 L 0.6821232586562473,16.84235471576133 L 0.3880935517627222,17.39587513366115 L 0.17389354059093876,17.984905418775185 L 0.04368561249725644,18.597999389573744 L 0.0,19.223243253061128 L 1.0944631867459975e-09,26.80000000332265 L 0.06814834859096663,27.317638093517786 L 0.2679491936701197,27.80000000328397 L 0.5857864389254246,28.214213565611175 L 1.0000000013444605,28.53205081074705 L 1.4823619111682547,28.731851655686683 L 2.0000000013832278,28.800000003033773 L 3.171476811855655,28.800000002864493 L 3.4443650827215606,28.44436508421481 L 3.9000000012813416,28.094744114433496 L 4.430598102024305,27.87496318484682 L 5.000000001238959,27.800000002600513 L 5.5694019004752136,27.87496318468223 L 6.1000000012816145,28.094744114115855 L 6.555634919942122,28.444365083765405 L 6.828523190911483,28.800000002336247 L 8.171476811855428,28.80000000214241 L 8.44436508272156,28.444365083492528 L 8.900000001281342,28.094744113711414 L 9.430598102024305,27.874963184124567 L 10.00000000123896,27.80000000187823 L 10.569401900474986,27.874963183959977 L 11.100000001281614,28.094744113393574 L 11.55563491994235,28.444365083043152 L 11.828523190911255,28.800000001614137 L 13.171476811855428,28.80000000142013 L 13.444365082721788,28.444365082770247 L 13.900000001281342,28.094744112989133 L 14.430598102024305,27.874963183402286 L 15.000000001238732,27.80000000115595 L 15.569401900474986,27.874963183237867 L 16.100000001281614,28.09474411267132 L 16.555634919942122,28.44436508232087 L 16.828523190911255,28.800000000891885 L 18.00000000138334,28.800000000722576 L 18.00000000172986,31.200000001420307 L 16.828523191257545,31.200000001420307 L 16.55563492039164,31.555634919541745 L 16.10000000183186,31.90525588932306 L 15.569401901088895,32.125036818909905 L 15.000000001874241,32.20000000115604 L 14.430598102637987,32.125036819074296 L 13.900000001831586,31.90525588964087 L 13.444365083171078,31.55563491999112 L 13.171476812201718,31.200000001420307 M 20.00000000516752,55.00000000043417 L 19.99999999794545,5.00000000043363 L 20.034074171619523,4.741180955325859 L 20.133974594089068,4.500000000413905 L 20.29289321665692,4.292893219204444 L 20.49999999782085,4.133974596577048 L 20.741180952703417,4.0340741740374995 L 20.999999997801524,4.000000000288935 L 22.999999997800387,4.0000000000001705 L 23.258819042907817,4.034074173673815 L 23.49999999781994,4.13397459614373 L 23.707106779029345,4.292893218711384 L 23.866025401656998,4.499999999875342 L 23.965925824196574,4.741180954758079 L 23.99999999794477,4.99999999985576 L 24.000000005167067,54.9999999998563 L 23.96592583149345,55.25881904496407 L 23.86602540902345,55.499999999875655 L 23.707106786455824,55.707106781085486 L 23.500000005292122,55.86602540371305 L 23.2588190504091,55.96592582625263 L 23.00000000531145,56.000000000000995 L 21.000000005312586,56.00000000028976 L 20.741180960204474,55.965925826616285 L 20.50000000529326,55.86602540414637 L 20.2928932240834,55.707106781578545 L 20.13397460145552,55.50000000041513 L 20.0340741789164,55.25881904553185 L 20.00000000516752,55.00000000043417 " />
</svg>
