<?xml version="1.0" encoding="UTF-8" standalone="no"?>
<svg
   width="106.00000000000836mm"
   height="202.99999999999955mm"
   viewBox="0 0 106.00000000000836 202.99999999999955"
   version="1.1"
   id="svg1"
   sodipodi:docname="Front Panel, B (3mm x 1).svg"
   inkscape:version="1.3 (0e150ed6c4, 2023-07-21)"
   xmlns:inkscape="http://www.inkscape.org/namespaces/inkscape"
   xmlns:sodipodi="http://sodipodi.sourceforge.net/DTD/sodipodi-0.dtd"
   xmlns="http://www.w3.org/2000/svg"
   xmlns:svg="http://www.w3.org/2000/svg">
  <defs
     id="defs1" />
  <sodipodi:namedview
     id="namedview1"
     pagecolor="#ffffff"
     bordercolor="#000000"
     borderopacity="0.25"
     inkscape:showpageshadow="2"
     inkscape:pageopacity="0.0"
     inkscape:pagecheckerboard="0"
     inkscape:deskcolor="#d1d1d1"
     inkscape:document-units="mm"
     inkscape:zoom="2.5298337"
     inkscape:cx="200.40843"
     inkscape:cy="383.62205"
     inkscape:window-width="3840"
     inkscape:window-height="2137"
     inkscape:window-x="-8"
     inkscape:window-y="-8"
     inkscape:window-maximized="1"
     inkscape:current-layer="svg1" />
  <desc
     id="desc1">Output from Flights of Ideas SVG Sketchup Plugin</desc>
  <path
     id="face0-cut"
     style="fill:none;stroke:#000000;stroke-miterlimit:4;stroke-dasharray:none;stroke-linejoin:round;stroke-linecap:round;stroke-width:0.1"
     d="M 13.405611528044119,114.43133090848528 L 11.81126404277984,116.6460192743566 L 10.122099298127068,118.84738162849703 L 8.550459898891802,121.134131144202 L 7.100653599424049,123.49999999999886 L 5.7766542180157785,125.93850351380297 L 4.582090744941468,128.44295791698187 L 3.520237395647655,131.00649867409857 L 2.594004636356317,133.62209929812752 L 1.8059312066787925,136.28259060956634 L 1.1581771611078011,138.98068038665906 L 0.6525179484572732,141.70897335286827 L 0.29033954548128804,144.4599914468149 L 0.07263465800741642,147.22619431912494 L 0.0,150.00000000000182 L 0.04798550763547382,151.83249260486127 L 0.07263465800770064,152.77380568087779 L 0.29033954548179963,155.54000855318782 L 0.6525179484581827,158.29102664713446 L 1.1581771611089948,161.01931961334412 L 1.8059312066802136,163.7174093904364 L 2.5940046363579086,166.37790070187543 L 3.5202373956495876,168.99350132590416 L 4.443931327302266,171.22349574316036 L 4.582090744952211,171.55704208302086 L 5.776654218026749,174.06149648619908 L 7.1006535994352475,176.50000000000273 L 8.550459898903114,178.86586885579936 L 10.12209929813855,181.15261837150388 L 11.811264042791493,183.35398072564408 L 13.613324249709137,185.46392213702165 L 15.523340597124275,187.47665940288903 L 17.536077862991874,189.38667575030445 L 19.646019274370076,191.18873595722175 L 21.847381628510618,192.87790070187407 L 24.134131144215303,194.4495401011095 L 26.50000000001188,195.89934640057663 L 28.938503513816045,197.22334578198456 L 31.442957916994658,198.4179092550587 L 34.00649867411124,199.47976260435303 L 36.62209929814003,200.4059953636438 L 39.282590609578676,201.1940687933211 L 41.980680386671054,201.8418228388923 L 44.70897335288015,202.34748205154278 L 47.45999144682668,202.70966045451814 L 50.22619431913637,202.92736534199184 L 53.00000000001245,202.99999999999955 L 55.773805680888415,202.92736534199184 L 58.54000855319799,202.70966045451746 L 61.29102664714452,202.3474820515412 L 64.01931961335356,201.84182283889004 L 66.71740939044582,201.19406879331882 L 69.37790070188441,200.40599536364152 L 71.99350132591303,199.47976260435007 L 74.5570420830295,198.41790925505575 L 77.06149648620794,197.22334578198092 L 79.50000000001188,195.899346400573 L 81.86586885580812,194.44954010110519 L 84.15261837151269,192.87790070186975 L 86.35398072565289,191.18873595721675 L 88.4639221370308,189.38667575029876 L 90.47665940289824,187.47665940288402 L 92.38667575031297,185.46392213701597 L 94.18873595723039,183.35398072563817 L 95.877900701883,181.1526183714975 L 97.44954010111803,178.86586885579277 L 98.89934640058567,176.49999999999636 L 100.22334578199371,174.06149648619203 L 101.41790925506785,171.55704208301358 L 102.4797626043615,168.99350132589666 L 103.40599536365272,166.3779007018677 L 104.19406879333002,163.7174093904291 L 104.8418228389009,161.01931961333707 L 105.34748205155137,158.29102664712764 L 105.7096604545273,155.54000855318122 L 105.927365342001,152.77380568087165 L 106.00000000000836,149.99999999999613 L 105.92736534200066,147.22619431911994 L 105.70966045452661,144.4599914468099 L 105.34748205155023,141.70897335286327 L 104.84182283889942,138.98068038665406 L 104.1940687933282,136.28259060956157 L 103.40599536365056,133.62209929812275 L 102.47976260435888,131.0064986740938 L 101.41790925506479,128.4429579169771 L 100.2233457819903,125.93850351379865 L 98.8993464005818,123.49999999999409 L 97.44954010111383,121.13413114419768 L 95.87790070187827,118.84738162849317 L 94.18873595722533,116.64601927435251 L 92.5943884719643,114.43133090848528 L 91.2609995229509,112.05039361987178 L 90.205711543392,109.53381742554325 L 89.44209162015835,106.91395615545594 L 88.97995707139944,104.22449150231273 L 88.82524923226788,101.5 L 88.97995707139933,98.77550849768727 L 89.44209162015818,96.08604384454406 L 90.20571154339183,93.4661825744563 L 91.26099952295067,90.94960638012799 L 92.59438847196395,88.56866909151404 L 94.18873595722471,86.35398072564703 L 95.8779007018777,84.15261837150638 L 97.44954010111326,81.86586885580186 L 98.89934640058135,79.50000000000523 L 100.22334578198974,77.06149648620135 L 101.41790925506444,74.55704208302268 L 102.47976260435854,71.99350132590621 L 103.40599536365022,69.37790070187725 L 104.19406879332797,66.7174093904382 L 104.8418228388993,64.01931961334594 L 105.34748205155012,61.29102664713673 L 105.70966045452639,58.540008553189864 L 105.92736534200066,55.77380568088006 L 106.00000000000836,53.000000000003865 L 105.927365342001,50.2261943191279 L 105.7096604545273,47.45999144681832 L 105.34748205155137,44.708973352871226 L 104.84182283890101,41.98068038666247 L 104.19406879333013,39.28259060956975 L 103.40599536365272,36.62209929813116 L 102.4797626043615,34.006498674102204 L 101.41790925506785,31.44295791698596 L 100.22334578199371,28.938503513806836 L 98.89934640058567,26.50000000000341 L 97.44954010111803,24.134131144206776 L 95.877900701883,21.847381628502035 L 94.18873595723028,19.64601927436138 L 92.38667575031292,17.536077862982893 L 90.47665940289824,15.52334059711552 L 88.4639221370308,13.6133242497001 L 86.35398072565289,11.811264042782796 L 84.15261837151269,10.122099298129797 L 81.86586885580812,8.55045989889436 L 79.50000000001188,7.1006535994265505 L 77.06149648620794,5.7766542180179385 L 74.5570420830295,4.582090744943798 L 71.99350132591303,3.520237395649474 L 69.37790070188441,2.5940046363580223 L 66.71740939044582,1.805931206680043 L 64.01931961335356,1.1581771611088243 L 61.29102664714452,0.6525179484583532 L 58.54000855319799,0.29033954548140173 L 55.773805680888415,0.07263465800770064 L 53.000000000012335,0.0 L 50.22619431913637,0.07263465800701852 L 47.45999144682679,0.2903395454807196 L 44.70897335288009,0.6525179484567616 L 41.980680386671054,1.1581771611072327 L 39.282590609578676,1.8059312066777693 L 36.62209929814003,2.5940046363550664 L 34.006498674111185,3.520237395646518 L 31.442957916994658,4.58209074494016 L 28.938503513816045,5.776654218014301 L 26.50000000001188,7.10065359942223 L 24.134131144215303,8.55045989889004 L 21.847381628510504,10.122099298124795 L 19.64601927437019,11.811264042777793 L 17.536077862991874,13.613324249695097 L 15.523340597124161,15.523340597109836 L 13.613324249709251,17.53607786297698 L 11.811264042791493,19.646019274354785 L 10.12209929813855,21.84738162849567 L 8.550459898903114,24.1341311441995 L 7.1006535994352475,26.499999999996135 L 5.776654218026749,28.93850351380047 L 4.582090744952211,31.442957916978685 L 4.443931327302153,31.776504256838507 L 3.520237395649815,34.006498674094246 L 2.594004636358193,36.6220992981232 L 1.8059312066804978,39.28259060956202 L 1.1581771611091654,41.98068038665451 L 0.6525179484583532,44.70897335286372 L 0.2903395454819133,47.45999144681036 L 0.07263465800781432,50.226194319120395 L 0.04798550763547382,51.16750739513759 L 0.0,52.99999999999659 L 0.07263465800741642,55.77380568087278 L 0.29033954548117435,58.540008553182815 L 0.6525179484572163,61.291026647129456 L 1.1581771611077443,64.01931961333867 L 1.805931206678622,66.71740939043138 L 2.5940046363560327,69.37790070187043 L 3.520237395647314,71.99350132589916 L 4.58209074494107,74.55704208301586 L 5.776654218015324,77.06149648619476 L 7.100653599423481,79.49999999999909 L 8.55045989889129,81.86586885579572 L 10.122099298126443,84.1526183715007 L 11.811264042779214,86.35398072564158 L 13.40561152804446,88.56866909151336 L 14.7390004770578,90.9496063801273 L 15.794288456616584,93.46618257445562 L 16.557908379850232,96.08604384454316 L 17.020042928609087,98.77550849768636 L 17.174750767740534,101.49999999999932 L 17.02004292860903,104.22449150231205 L 16.557908379850062,106.91395615545525 L 15.794288456616414,109.53381742554234 L 14.739000477057516,112.05039361987133 L 13.405611528044119,114.43133090848528 M 52.45648000530218,99.47155576479258 L 53.00000000001751,99.39999999999964 L 53.54351999473272,99.47155576479258 L 54.050000000017405,99.6813466520523 L 54.48492424050909,100.01507575950791 L 54.8186533479647,100.44999999999936 L 55.028444235224356,100.95648000528445 L 55.10000000001736,101.49999999999955 L 55.028444235224356,102.04351999471487 L 54.8186533479647,102.54999999999927 L 54.48492424050909,102.98492424049141 L 54.050000000017405,103.31865334794702 L 53.54351999473272,103.5284442352065 L 53.00000000001751,103.59999999999945 L 52.45648000530218,103.5284442352065 L 51.95000000001755,103.31865334794702 L 51.51507575952576,102.98492424049141 L 51.18134665207026,102.54999999999973 L 50.971555764810546,102.04351999471487 L 50.9000000000176,101.49999999999955 L 50.971555764810546,100.95648000528445 L 51.18134665207026,100.44999999999982 L 51.51507575952587,100.01507575950791 L 51.95000000001755,99.6813466520523 L 52.45648000530218,99.47155576479258 M 14.195591155453428,80.3683732476768 L 13.885081588161142,80.82016747157763 L 13.468219428190821,81.17620139091036 L 12.973413142846937,81.41221188244549 L 12.434382962769917,81.51211522121093 L 11.887862903942448,81.46910315976857 L 11.371097405206342,81.28610689902393 L 10.919303181305338,80.97559733173148 L 10.563269261972835,80.5587351717611 L 10.327258770437595,80.06392888641767 L 10.227355431671867,79.52489870634031 L 10.27036749311469,78.97837864751273 L 10.453363753859207,78.46161314877668 L 10.763873321151493,78.00981892487584 L 11.180735481121872,77.65378500554334 L 11.675541766465699,77.41777451400799 L 12.21457194654272,77.31787117524254 L 12.761092005370244,77.36088323668514 L 13.277857504106237,77.54387949742977 L 13.729651728007354,77.85438906472223 L 14.085685647339801,78.27125122469238 L 14.32169613887504,78.76605751003603 L 14.421599477640711,79.30508769011317 L 14.378587416198059,79.85160774894075 L 14.195591155453428,80.3683732476768 M 95.080696818717,80.97559733173034 L 94.62890259481668,81.28610689902393 L 94.11213709608114,81.46910315976993 L 93.56561703725373,81.51211522121389 L 93.02658685717637,81.41221188244981 L 92.53178057183197,81.17620139091605 L 92.11491841186063,80.82016747158445 L 91.80440884456698,80.3683732476843 L 91.62141258382104,79.85160774894871 L 91.5784005223768,79.30508769012135 L 91.67830386114093,78.76605751004422 L 91.91431435267486,78.27125122469965 L 92.27034827200617,77.85438906472837 L 92.72214249590638,77.54387949743477 L 93.23890799464192,77.36088323668855 L 93.78542805346945,77.31787117524459 L 94.3244582335467,77.41777451400867 L 94.81926451889109,77.65378500554266 L 95.23612667886255,78.00981892487403 L 95.54663624615608,78.46161314877418 L 95.72963250690213,78.97837864750977 L 95.77264456834632,79.52489870633713 L 95.67274122958219,80.06392888641426 L 95.4367307380482,80.55873517175883 L 95.080696818717,80.97559733173034 M 14.321696138869925,27.233942489963283 L 14.085685647334685,27.728748775307167 L 13.729651728002125,28.145610935277546 L 13.277857504101007,28.456120502569547 L 12.761092005364901,28.639116763314178 L 12.214571946537319,28.682128824756774 L 11.675541766460356,28.582225485991103 L 11.180735481116528,28.346214994455977 L 10.76387332114615,27.990181075123473 L 10.453363753853921,27.538386851222413 L 10.270367493109461,27.021621352486136 L 10.227355431666751,26.475101293658554 L 10.32725877043248,25.936071113581647 L 10.563269261967719,25.441264828237763 L 10.919303181300279,25.024402668267385 L 11.371097405201397,24.713893100975383 L 11.887862903937389,24.530896840230753 L 12.434382962764971,24.487884778788157 L 12.973413142842105,24.587788117553828 L 13.468219428185819,24.823798609088954 L 13.885081588156083,25.179832528421457 L 14.195591155448483,25.631626752322518 L 14.378587416192886,26.148392251058794 L 14.421599477635652,26.694912309886377 L 14.321696138869925,27.233942489963283 M 52.45648000529684,2.471555764793038 L 53.000000000012164,2.400000000000091 L 53.543519994727376,2.471555764793038 L 54.05000000001212,2.6813466520527527 L 54.48492424050397,3.0150757595079085 L 54.81865334795958,3.449999999999818 L 55.0284442352193,3.9564800052844475 L 55.100000000012415,4.499999999999545 L 55.02844423521947,5.04351999471487 L 54.81865334795987,5.549999999999727 L 54.48492424050431,5.984924240491637 L 54.050000000012574,6.318653347947247 L 53.543519994727944,6.528444235206962 L 53.000000000012676,6.599999999999909 L 52.45648000529735,6.528444235206962 L 51.950000000012665,6.318653347947247 L 51.51507575952087,5.9849242404920915 L 51.18134665206526,5.550000000000182 L 50.97155576480537,5.0435199947155525 L 50.90000000001237,4.500000000000455 L 50.971555764805316,3.9564800052851297 L 51.18134665206503,3.450000000000273 L 51.51507575952053,3.0150757595083633 L 51.95000000001215,2.6813466520527527 L 52.45648000529684,2.471555764793038 M 93.0265868571712,24.587788117549053 L 93.5656170372485,24.487884778784974 L 94.11213709607591,24.53089684022939 L 94.62890259481145,24.71389310097493 L 95.08069681871166,25.02440266826852 L 95.43673073804297,25.441264828240037 L 95.67274122957679,25.936071113584603 L 95.77264456834104,26.475101293661737 L 95.72963250689679,27.021621352489092 L 95.54663624615085,27.538386851224686 L 95.23612667885732,27.990181075124838 L 94.81926451888592,28.346214994456204 L 94.32445823354158,28.582225485990193 L 93.78542805346427,28.682128824754273 L 93.23890799463686,28.639116763309858 L 92.72214249590138,28.45612050256409 L 92.27034827200117,28.145610935270724 L 91.91431435266986,27.72874877529921 L 91.67830386113599,27.233942489954643 L 91.5784005223718,26.69491230987751 L 91.62141258381598,26.148392251050154 L 91.80440884456203,25.63162675231456 L 92.11491841185557,25.17983252841441 L 92.53178057182686,24.823798609082814 L 93.0265868571712,24.587788117549053 M 17.743707340458343,62.44689514626134 L 17.297612573224512,60.58877671486766 L 16.949375568284836,58.709857973988164 L 16.69995081906427,56.815288909289166 L 16.55002198146326,54.91026240288738 L 16.500000000004206,53.00000000002001 L 16.55002198146127,51.089737597152634 L 16.699950819060234,49.184711090750625 L 16.949375568278583,47.2901420260514 L 17.297612573216213,45.41122328517122 L 17.743707340448054,43.55310485377731 L 18.286437155224974,41.720879705333346 L 18.924314432849258,39.91956984161516 L 19.655590796041224,38.15411252775175 L 20.478261867119784,36.42934675952438 L 21.3900727618622,34.75000000001728 L 22.388524269985453,33.12067522196844 L 23.47087970530697,31.545838291340715 L 24.634172406812297,30.029805726696623 L 25.875213870066034,28.57673286791669 L 27.190602486681144,27.190602486705302 L 28.576732867891167,25.8752138700886 L 30.02980572666968,24.634172406833386 L 31.54583829131286,23.470879705326297 L 33.12067522193911,22.388524270003018 L 34.74999999998698,21.390072761878173 L 36.429346759493,20.478261867133597 L 38.154112527719406,19.655590796053275 L 39.91956984158219,18.92431443285932 L 41.72087970529975,18.286437155233216 L 43.55310485374304,17.743707340454193 L 45.41122328513654,17.29761257322025 L 47.29014202601621,16.94937556828063 L 49.1847110907151,16.699950819060177 L 51.089737597116994,16.550021981459395 L 52.99999999998437,16.500000000000227 L 54.91026240285174,16.55002198145712 L 56.81528890925381,16.699950819056312 L 58.70985797395298,16.94937556827449 L 60.58877671483299,17.297612573212064 L 62.446895146227064,17.74370734044419 L 64.27912029467097,18.286437155220938 L 66.08043015838905,18.92431443284522 L 67.8458874722528,19.65559079603713 L 69.57065324048006,20.47826186711586 L 71.24999999998698,21.390072761858164 L 72.87932477803605,22.388524269981417 L 74.45416170866338,23.470879705302877 L 75.97019427330781,24.634172406808148 L 77.4232671320878,25.875213870061998 L 78.80939751329913,27.190602486677108 L 80.12478612991578,28.57673286788713 L 81.36582759317116,30.0298057266657 L 82.5291202946782,31.545838291308655 L 83.61147573000136,33.12067522193502 L 84.60992723812626,34.74999999998295 L 85.52173813287061,36.42934675948891 L 86.3444092039511,38.15411252771514 L 87.07568556714489,39.91956984157832 L 87.71356284477116,41.7208797052956 L 88.25629265955001,43.55310485373889 L 88.70238742678401,45.411223285132564 L 89.05062443172363,47.29014202601206 L 89.30004918094414,49.18471109071129 L 89.4499780185451,51.08973759711307 L 89.5000000000042,52.99999999998022 L 89.44997801854726,54.91026240284759 L 89.30004918094829,56.81528890924983 L 89.05062443172983,58.70985797394883 L 88.70238742679226,60.58877671482901 L 88.2562926595603,62.44689514622314 L 87.71356284478344,64.27912029466688 L 87.07568556715916,66.0804301583853 L 86.34440920396725,67.8458874722487 L 85.52173813288869,69.57065324047608 L 84.6099272381461,71.24999999998295 L 83.61147573002302,72.87932477803201 L 82.52912029470144,74.45416170865951 L 81.36582759319612,75.9701942733036 L 80.12478612994238,77.42326713208354 L 78.80939751332721,78.80939751329515 L 77.4232671321173,80.12478612991163 L 75.97019427333873,81.36582759316707 L 74.4541617086955,82.52912029467393 L 72.87932477806936,83.61147572999721 L 71.25000000002137,84.60992723812228 L 69.57065324051541,85.52173813286686 L 67.84588747228906,86.34440920394695 L 66.08043015842622,87.07568556714114 L 64.27912029470866,87.71356284476724 L 62.446895146265376,88.25629265954603 L 60.58877671487187,88.70238742677998 L 58.70985797399226,89.05062443171983 L 56.81528890929337,89.30004918094005 L 54.91026240289153,89.44997801854106 L 53.000000000024045,89.50000000000023 L 51.08973759715661,89.4499780185431 L 49.184711090754604,89.30004918094414 L 47.290142026055435,89.05062443172596 L 45.411223285175424,88.70238742678816 L 43.553104853781406,88.25629265955627 L 41.720879705337495,87.71356284477952 L 39.91956984161925,87.075685567155 L 38.15411252775567,86.34440920396332 L 36.429346759528414,85.52173813288437 L 34.75000000002137,84.60992723814206 L 33.12067522197236,83.61147573001904 L 31.545838291344978,82.52912029469735 L 30.0298057267006,81.36582759319231 L 28.57673286792067,80.12478612993823 L 27.190602486709224,78.80939751332312 L 25.87521387009258,77.42326713211332 L 24.63417240683731,75.97019427333476 L 23.470879705330333,74.45416170869157 L 22.38852427000711,72.87932477806521 L 21.390072761882152,71.25000000001728 L 20.478261867137803,69.57065324051132 L 19.655590796057368,67.84588747228509 L 18.924314432863525,66.0804301584219 L 18.28643715523725,64.27912029470485 L 17.743707340458343,62.44689514626134 M 82.52912029470139,128.54583829133935 L 83.6114757300229,130.12067522196685 L 84.60992723814604,131.75000000001592 L 85.52173813288857,133.4293467595228 L 86.34440920396713,135.15411252774993 L 87.07568556715916,136.91956984161357 L 87.71356284478338,138.72087970533198 L 88.2562926595603,140.55310485377572 L 88.70238742679226,142.41122328516985 L 89.05062443172983,144.2901420260498 L 89.30004918094829,146.18471109074903 L 89.44997801854726,148.08973759715082 L 89.5000000000042,150.00000000001842 L 89.4499780185451,151.91026240288625 L 89.30004918094414,153.81528890928803 L 89.05062443172369,155.7098579739868 L 88.70238742678401,157.58877671486653 L 88.25629265955007,159.44689514625975 L 87.71356284477127,161.27912029470303 L 87.075685567145,163.08043015842054 L 86.34440920395116,164.8458874722835 L 85.52173813287072,166.57065324050996 L 84.60992723812637,168.25000000001592 L 83.61147573000142,169.87932477806407 L 82.52912029467825,171.45416170868975 L 81.36582759317133,172.97019427333316 L 80.12478612991595,174.42326713211173 L 78.8093975132993,175.80939751332176 L 77.42326713208786,177.12478612993687 L 75.97019427330798,178.3658275931905 L 74.45416170866355,179.52912029469599 L 72.87932477803622,180.61147573001745 L 71.24999999998715,181.60992723814093 L 69.57065324048011,182.52173813288323 L 67.84588747225297,183.34440920396173 L 66.08043015838928,184.07568556715364 L 64.27912029467115,184.71356284477793 L 62.446895146227234,185.25629265955513 L 60.58877671483316,185.7023874267868 L 58.70985797395326,186.05062443172437 L 56.815288909254036,186.300049180943 L 54.91026240285203,186.44997801854174 L 52.99999999998454,186.49999999999864 L 51.08973759711705,186.44997801853947 L 49.18471109071527,186.3000491809389 L 47.29014202601638,186.05062443171823 L 45.411223285136714,185.70238742677884 L 43.55310485374321,185.2562926595449 L 41.72087970529992,184.7135628447661 L 39.91956984158236,184.07568556714 L 38.154112527719576,183.34440920394582 L 36.42934675949323,182.52173813286572 L 34.74999999998715,181.60992723812114 L 33.12067522193928,180.61147572999607 L 31.545838291313032,179.5291202946728 L 30.02980572666985,178.36582759316593 L 28.576732867891224,177.12478612991094 L 27.190602486681314,175.80939751329402 L 25.875213870066148,174.4232671320824 L 24.634172406812354,172.97019427330292 L 23.470879705307084,171.45416170865792 L 22.38852426998551,169.87932477803088 L 21.39007276186237,168.2499999999818 L 20.47826186711984,166.57065324047494 L 19.655590796041224,164.84588747224757 L 18.924314432849258,163.0804301583837 L 18.286437155224974,161.27912029466574 L 17.743707340448054,159.446895146222 L 17.297612573216213,157.58877671482787 L 16.949375568278583,155.70985797394792 L 16.699950819060234,153.8152889092487 L 16.550021981461214,151.91026240284646 L 16.500000000004206,149.99999999997908 L 16.55002198146326,148.08973759711193 L 16.69995081906427,146.18471109071015 L 16.949375568284722,144.29014202601093 L 17.2976125732244,142.41122328513165 L 17.743707340458343,140.55310485373798 L 18.286437155237138,138.72087970529446 L 18.92431443286341,136.91956984157673 L 19.655590796057254,135.154112527714 L 20.478261867137746,133.42934675948777 L 21.39007276188198,131.7499999999818 L 22.38852427000694,130.1206752219341 L 23.470879705330162,128.54583829130752 L 24.63417240683708,127.02980572666456 L 25.875213870092466,125.576732867886 L 27.19060248670911,124.19060248667597 L 28.576732867920498,122.87521387006086 L 30.02980572670043,121.63417240680701 L 31.545838291344865,120.47087970530174 L 33.12067522197219,119.38852426998028 L 34.75000000002126,118.39007276185703 L 36.429346759528244,117.4782618671145 L 38.15411252775539,116.655590796036 L 39.91956984161908,115.92431443284363 L 41.72087970533727,115.2864371552198 L 43.55310485378112,114.74370734044282 L 45.41122328517514,114.2976125732107 L 47.29014202605515,113.94937556827358 L 49.18471109075443,113.69995081905472 L 51.089737597156386,113.55002198145576 L 53.000000000023874,113.49999999999886 L 54.91026240289125,113.5500219814578 L 56.81528890929309,113.69995081905904 L 58.70985797399209,113.94937556827927 L 60.58877671487164,114.29761257322002 L 62.446895146265206,114.74370734045351 L 64.27912029470849,115.28643715523162 L 66.08043015842605,115.92431443285818 L 67.8458874722889,116.65559079605191 L 69.57065324051524,117.47826186713269 L 71.2500000000212,118.39007276187658 L 72.87932477806919,119.38852427000165 L 74.45416170869544,120.47087970532493 L 75.97019427333856,121.6341724068318 L 77.42326713211713,122.87521387008724 L 78.8093975133271,124.19060248670371 L 80.12478612994221,125.5767328679151 L 81.36582759319606,127.02980572669526 L 82.52912029470139,128.54583829133935 M 92.72214249590121,174.543879497435 L 93.23890799463675,174.360883236689 L 93.78542805346427,174.31787117524505 L 94.32445823354158,174.41777451400912 L 94.81926451888603,174.6537850055429 L 95.23612667885737,175.00981892487425 L 95.54663624615102,175.46161314877463 L 95.7296325068969,175.97837864751023 L 95.77264456834126,176.52489870633735 L 95.67274122957696,177.06392888641471 L 95.43673073804314,177.55873517175928 L 95.08069681871189,177.97559733173057 L 94.62890259481168,178.28610689902416 L 94.11213709607603,178.46910315977016 L 93.56561703724861,178.51211522121434 L 93.0265868571712,178.41221188245004 L 92.53178057182686,178.17620139091628 L 92.1149184118554,177.8201674715849 L 91.80440884456186,177.36837324768476 L 91.62141258381587,176.85160774894916 L 91.57840052237162,176.3050876901218 L 91.67830386113582,175.76605751004467 L 91.91431435266969,175.2712512247001 L 92.270348272001,174.8543890647286 L 92.72214249590121,174.543879497435 M 55.100000000012415,198.5 L 55.02844423521947,199.0435199947151 L 54.81865334795975,199.54999999999995 L 54.48492424050414,199.98492424049164 L 54.05000000001246,200.31865334794725 L 53.543519994727774,200.52844423520696 L 53.00000000001245,200.5999999999999 L 52.456480005297124,200.52844423520696 L 51.95000000001238,200.31865334794725 L 51.5150757595207,199.98492424049164 L 51.18134665206509,199.54999999999995 L 50.97155576480537,199.0435199947151 L 50.900000000012426,198.5 L 50.97155576480537,197.95648000528467 L 51.18134665206509,197.44999999999982 L 51.51507575952064,197.01507575950814 L 51.95000000001238,196.68134665205253 L 52.456480005297124,196.47155576479304 L 53.00000000001245,196.4000000000001 L 53.54351999472766,196.47155576479304 L 54.050000000012346,196.68134665205253 L 54.48492424050414,197.01507575950814 L 54.81865334795975,197.44999999999982 L 55.02844423521947,197.95648000528467 L 55.100000000012415,198.5 M 10.453363753854092,175.46161314877713 L 10.763873321146377,175.00981892487607 L 11.180735481116699,174.65378500554357 L 11.67554176646047,174.41777451400844 L 12.214571946537546,174.31787117524277 L 12.761092005365072,174.36088323668537 L 13.277857504101064,174.54387949743 L 13.729651728002182,174.85438906472245 L 14.085685647334685,175.27125122469283 L 14.321696138869925,175.76605751003626 L 14.421599477635652,176.3050876901134 L 14.378587416192829,176.8516077489412 L 14.195591155448255,177.36837324767703 L 13.885081588156027,177.8201674715781 L 13.468219428185648,178.1762013909106 L 12.973413142841821,178.41221188244572 L 12.4343829627648,178.5121152212114 L 11.887862903937275,178.4691031597688 L 11.371097405201226,178.28610689902416 L 10.919303181300165,177.9755973317317 L 10.563269261967719,177.55873517176133 L 10.32725877043248,177.0639288864179 L 10.227355431666808,176.52489870634076 L 10.270367493109461,175.97837864751295 L 10.453363753854092,175.46161314877713 M 95.54663624615614,124.53838685122423 L 95.2361266788626,124.99018107512461 L 94.81926451889126,125.34621499445598 L 94.32445823354686,125.58222548598974 L 93.78542805346962,125.68212882475382 L 93.2389079946422,125.6391167633094 L 92.72214249590672,125.45612050256364 L 92.2703482720064,125.14561093527027 L 91.91431435267509,124.72874877529875 L 91.67830386114133,124.23394248995419 L 91.57840052237714,123.69491230987705 L 91.62141258382138,123.1483922510497 L 91.80440884456726,122.63162675231433 L 92.1149184118608,122.17983252841395 L 92.53178057183226,121.82379860908236 L 93.02658685717665,121.58778811754883 L 93.5656170372539,121.48788477878452 L 94.11213709608131,121.53089684022893 L 94.6289025948168,121.7138931009747 L 95.080696818717,122.02440266826807 L 95.4367307380482,122.44126482823958 L 95.67274122958213,122.93607111358415 L 95.77264456834632,123.47510129366128 L 95.72963250690213,124.02162135248864 L 95.54663624615614,124.53838685122423 M 14.085685647339972,124.72874877530671 L 13.729651728007411,125.14561093527709 L 13.277857504106294,125.45612050256909 L 12.761092005370244,125.63911676331372 L 12.214571946542605,125.68212882475632 L 11.675541766465585,125.58222548599088 L 11.180735481121872,125.34621499445552 L 10.763873321151493,124.99018107512302 L 10.453363753859207,124.53838685122196 L 10.270367493114804,124.02162135248568 L 10.227355431672038,123.4751012936581 L 10.327258770437766,122.93607111358119 L 10.563269261973119,122.44126482823754 L 10.919303181305565,122.02440266826716 L 11.371097405206683,121.71389310097493 L 11.887862903942676,121.5308968402303 L 12.434382962770314,121.4878847787877 L 12.973413142847335,121.58778811755337 L 13.468219428191162,121.8237986090885 L 13.88508158816154,122.17983252842123 L 14.195591155453712,122.63162675232206 L 14.37858741619823,123.14839225105834 L 14.421599477640939,123.69491230988615 L 14.321696138875211,124.23394248996283 L 14.085685647339972,124.72874877530671 " />
</svg>
