<?xml version="1.0" encoding="UTF-8" standalone="no"?>
<svg
   width="106.00000000000838mm"
   height="202.2872058138289mm"
   viewBox="0 0 106.00000000000838 202.2872058138289"
   version="1.1"
   id="svg1"
   sodipodi:docname="Front Panel, A (3mm x 2).svg"
   inkscape:version="1.3 (0e150ed6c4, 2023-07-21)"
   xmlns:inkscape="http://www.inkscape.org/namespaces/inkscape"
   xmlns:sodipodi="http://sodipodi.sourceforge.net/DTD/sodipodi-0.dtd"
   xmlns="http://www.w3.org/2000/svg"
   xmlns:svg="http://www.w3.org/2000/svg">
  <defs
     id="defs1" />
  <sodipodi:namedview
     id="namedview1"
     pagecolor="#ffffff"
     bordercolor="#000000"
     borderopacity="0.25"
     inkscape:showpageshadow="2"
     inkscape:pageopacity="0.0"
     inkscape:pagecheckerboard="0"
     inkscape:deskcolor="#d1d1d1"
     inkscape:document-units="mm"
     inkscape:zoom="2.5387481"
     inkscape:cx="200.49252"
     inkscape:cy="382.27503"
     inkscape:window-width="3840"
     inkscape:window-height="2137"
     inkscape:window-x="-8"
     inkscape:window-y="-8"
     inkscape:window-maximized="1"
     inkscape:current-layer="svg1" />
  <desc
     id="desc1">Output from Flights of Ideas SVG Sketchup Plugin</desc>
  <path
     id="face0-cut"
     style="fill:none;stroke:#000000;stroke-miterlimit:4;stroke-dasharray:none;stroke-linejoin:round;stroke-linecap:round;stroke-width:0.1"
     d="M 53.000000000012705,8.643602906915248 L 51.83531429705127,8.490269125215946 L 50.75000000001265,8.040717223944739 L 49.8180194846731,7.32558342225434 L 49.102885682982645,6.393602906915021 L 48.65333378171189,5.308288609876627 L 48.500000000012705,4.1436029069147935 L 48.500000000012705,1.352092004148517 L 48.44551762327765,0.9704726250581643 L 48.28642365084053,0.6193447454950274 L 48.0354297374316,0.32676358529488425 L 47.712590369828746,0.11610646436588468 L 47.34370050752344,0.004204948019150834 L 46.95823455794485,0.0 L 44.708973352880065,0.2961208553713277 L 41.980680386671025,0.8017800680217988 L 39.28259060957865,1.4495341135923354 L 36.62209929814,2.2376075432696325 L 34.006498674111214,3.163840302561084 L 31.44295791699463,4.225693651854726 L 28.938503513816016,5.420257124928867 L 26.500000000011852,6.7442565063367965 L 24.13413114421533,8.194062805804379 L 21.847381628510533,9.76570220503936 L 19.646019274370104,11.454866949692132 L 17.536077862991903,13.256927156609663 L 15.52334059712419,15.166943504024403 L 13.613324249709166,17.179680769891547 L 12.139940951528871,18.90479096530248 L 11.933527714863061,19.230360090990644 L 11.826464404499262,19.60068309520034 L 11.827305410113837,19.98617106204415 L 11.93598353511473,20.356023390708515 L 12.14381536566546,20.68068877242149 L 12.43419507797509,20.934226348632365 L 14.775353112231613,22.45459215292317 L 15.668629169314244,23.217521980061974 L 16.334006813515913,24.18565245984837 L 16.726141657972647,25.293007099996657 L 16.81831036106817,26.4641215117706 L 16.60423177800257,27.6191861833654 L 16.098495010430355,28.679485366247718 L 15.33556518329172,29.572761423330576 L 14.367434703505324,30.238139067531847 L 13.260080063357151,30.630273911988752 L 12.088965651583266,30.72244261508399 L 10.933900979988067,30.508364032018335 L 9.87360179710592,30.002627264446346 L 7.532443762841211,28.482261460138943 L 7.182717592350087,28.32010941560702 L 6.801588186550617,28.262298898336894 L 6.419507895961402,28.313448985492187 L 6.067005047074275,28.469472770210587 L 5.772244720173859,28.71790390666183 L 5.558778351221207,29.03889267468685 L 4.443931327302181,31.420107163753073 L 3.520237395649872,33.65010158100881 L 2.594004636358193,36.26570220503777 L 1.8059312066804694,38.92619351647659 L 1.158177161109137,41.62428329356908 L 0.6525179484583532,44.35257625977829 L 0.2903395454818849,47.10359435372493 L 0.0726346580077859,49.869797226034734 L 0.04798550763547382,50.81111030205193 L 0.0,52.643602906911156 L 0.07263465800741642,55.41740858778735 L 0.29033954548117435,58.18361146009738 L 0.6525179484571879,60.93462955404402 L 1.158177161107659,63.66292252025323 L 1.8059312066785935,66.36101229734595 L 2.594004636355976,69.02150360878477 L 3.5202373956472854,71.63710423281373 L 4.58209074494107,74.20064498993042 L 5.558778351215921,76.24831313914251 L 5.772244720168686,76.56930190716753 L 6.0670050470690455,76.81773304361809 L 6.4195078959564,76.97375682833717 L 6.801588186545388,77.02490691549178 L 7.182717592345028,76.96709639822166 L 7.532443762836152,76.80494435368973 L 9.87360179710086,75.2845785493837 L 10.933900979982837,74.77884178181102 L 12.088965651578206,74.5647631987456 L 13.260080063352092,74.65693190184152 L 14.367434703500265,75.04906674629842 L 15.335565183286661,75.71444439049901 L 16.098495010425125,76.60772044758164 L 16.60423177799757,77.66801963046396 L 16.818310361063112,78.82308430205876 L 16.72614165796736,79.99419871383338 L 16.33400681351074,81.10155335398122 L 15.668629169309185,82.06968383376761 L 14.775353112226554,82.83261366090687 L 12.434195077969974,84.35297946519768 L 12.143815365660174,84.60651704140719 L 11.93598353510967,84.93118242312175 L 11.827305410108721,85.30103475178612 L 11.826464404494146,85.68652271862834 L 11.933527714857831,86.05684572283803 L 12.139940951523812,86.3824148485262 L 13.405611528044432,88.2122719984277 L 14.739000477057772,90.59320928704165 L 15.794288456616613,93.10978548137018 L 16.557908379850204,95.72964675145772 L 17.020042928609,98.41911140460093 L 17.174750767740562,101.14360290691388 L 17.020042928608945,103.86809440922661 L 16.557908379850033,106.55755906236982 L 15.794288456616385,109.1774203324569 L 14.739000477057488,111.6939965267859 L 13.40561152804409,114.07493381539985 L 12.139940951523812,115.90479096530362 L 11.933527714857831,116.23036009099178 L 11.826464404494146,116.60068309520148 L 11.827305410108721,116.98617106204438 L 11.93598353510967,117.35602339070874 L 12.143815365660174,117.6806887724224 L 12.434195077969974,117.93422634863259 L 14.775353112226554,119.45459215292362 L 15.668629169309185,120.2175219800622 L 16.33400681351074,121.1856524598486 L 16.72614165796736,122.29300709999688 L 16.818310361063112,123.46412151177083 L 16.60423177799757,124.61918618336631 L 16.098495010425125,125.67948536624795 L 15.335565183286661,126.5727614233308 L 14.367434703500265,127.23813906753207 L 13.260080063352092,127.63027391198898 L 12.088965651578206,127.7224426150849 L 10.933900979982837,127.50836403201924 L 9.87360179710086,127.0026272644468 L 7.532443762836152,125.48226146014008 L 7.182717592345028,125.32010941560793 L 6.801588186545388,125.26229889833803 L 6.4195078959564,125.31344898549241 L 6.0670050470690455,125.46947277021172 L 5.772244720168686,125.71790390666206 L 5.558778351215921,126.0388926746873 L 4.582090744941439,128.08656082389643 L 3.520237395647655,130.65010158101313 L 2.59400463635626,133.26570220504186 L 1.805931206678821,135.9261935164809 L 1.1581771611078295,138.62428329357363 L 0.6525179484573016,141.35257625978284 L 0.2903395454812596,144.10359435372948 L 0.07263465800741642,146.8697972260395 L 0.0,149.64360290691639 L 0.04798550763547382,151.47609551177584 L 0.07263465800772906,152.41740858779235 L 0.29033954548179963,155.18361146010238 L 0.6525179484581827,157.93462955404902 L 1.1581771611089664,160.66292252025846 L 1.805931206680242,163.36101229735095 L 2.5940046363579654,166.02150360878977 L 3.5202373956495876,168.63710423281873 L 4.443931327302181,170.86709865007492 L 5.558778351221207,173.24831313914274 L 5.772244720173859,173.56930190716798 L 6.067005047074275,173.81773304361832 L 6.419507895961402,173.97375682833763 L 6.801588186550617,174.024906915492 L 7.182717592350087,173.9670963982221 L 7.532443762841211,173.80494435368996 L 9.87360179710592,172.2845785493837 L 10.933900979988067,171.77884178181102 L 12.088965651583266,171.56476319874537 L 13.260080063357151,171.6569319018413 L 14.367434703505324,172.0490667462982 L 15.33556518329172,172.71444439049924 L 16.098495010430355,173.6077204475821 L 16.60423177800257,174.66801963046396 L 16.81831036106817,175.82308430205921 L 16.726141657972647,176.99419871383338 L 16.334006813515913,178.10155335398144 L 15.668629169314244,179.06968383376784 L 14.775353112231613,179.83261366090687 L 12.43419507797509,181.35297946519768 L 12.14381536566546,181.60651704140764 L 11.93598353511473,181.93118242312175 L 11.827305410113837,182.3010347517859 L 11.826464404499262,182.68652271862857 L 11.933527714863061,183.05684572283826 L 12.139940951528871,183.38241484852642 L 13.613324249709166,185.10752504393622 L 15.52334059712419,187.1202623098036 L 17.536077862991903,189.03027865721901 L 19.646019274370104,190.83233886413632 L 21.847381628510533,192.52150360878863 L 24.13413114421533,194.09314300802407 L 26.500000000011852,195.5429493074912 L 28.938503513816016,196.86694868889913 L 31.44295791699463,198.06151216197327 L 34.006498674111214,199.1233655112676 L 36.62209929814,200.04959827055814 L 39.28259060957865,200.83767170023566 L 41.980680386671025,201.48542574580688 L 44.708973352880065,201.99108495845735 L 46.95823455794485,202.2872058138289 L 47.34370050752344,202.28300086580998 L 47.712590369828746,202.1710993494637 L 48.0354297374316,201.9604422285347 L 48.28642365084053,201.66786106833456 L 48.44551762327765,201.31673318877165 L 48.500000000012705,200.9351138096804 L 48.500000000012705,198.1436029069141 L 48.65333378171189,196.9789172039532 L 49.102885682982645,195.89360290691457 L 49.8180194846731,194.9616223915748 L 50.75000000001265,194.24648858988417 L 51.83531429705127,193.79693668861364 L 53.000000000012705,193.64360290691434 L 54.16468570297408,193.79693668861364 L 55.250000000012705,194.24648858988417 L 56.18198051535225,194.9616223915748 L 56.89711431704271,195.89360290691457 L 57.34666621831346,196.9789172039532 L 57.50000000001265,198.1436029069141 L 57.50000000001265,200.9351138096804 L 57.5544823767477,201.31673318877165 L 57.71357634918482,201.66786106833456 L 57.96457026259375,201.9604422285347 L 58.287409630196606,202.1710993494637 L 58.656299492501915,202.28300086580998 L 59.041765442080504,202.2872058138289 L 61.29102664714455,201.99108495845576 L 64.01931961335353,201.4854257458046 L 66.7174093904458,200.8376717002334 L 69.37790070188439,200.0495982705561 L 71.993501325913,199.12336551126464 L 74.55704208302942,198.0615121619703 L 77.06149648620791,196.8669486888955 L 79.50000000001185,195.54294930748756 L 81.86586885580815,194.09314300801975 L 84.15261837151272,192.52150360878431 L 86.35398072565286,190.83233886413132 L 88.46392213703078,189.03027865721333 L 90.4766594028982,187.1202623097986 L 92.38667575031295,185.10752504393054 L 93.86005904849648,183.38241484852642 L 94.06647228516229,183.05684572283826 L 94.17353559552609,182.68652271862857 L 94.17269458991152,182.3010347517859 L 94.06401646491062,181.93118242312175 L 93.85618463435995,181.60651704140764 L 93.56580492205026,181.35297946519768 L 91.22464688779374,179.83261366090687 L 90.33137083071111,179.06968383376784 L 89.66599318650944,178.10155335398144 L 89.27385834205276,176.99419871383338 L 89.18168963895718,175.82308430205921 L 89.39576822202278,174.66801963046396 L 89.901504989595,173.6077204475821 L 90.66443481673363,172.71444439049924 L 91.63256529652003,172.0490667462982 L 92.73991993666826,171.6569319018413 L 93.91103434844214,171.56476319874537 L 95.06609902003729,171.77884178181102 L 96.12639820291943,172.2845785493837 L 98.46755623718414,173.80494435368996 L 98.81728240767526,173.9670963982221 L 99.19841181347473,174.024906915492 L 99.58049210406395,173.97375682833763 L 99.93299495295108,173.81773304361832 L 100.2277552798515,173.56930190716798 L 100.4412216488042,173.24831313914274 L 101.41790925506788,171.20064498992815 L 102.47976260436153,168.63710423281123 L 103.40599536365275,166.02150360878227 L 104.19406879333005,163.36101229734368 L 104.84182283890092,160.66292252025164 L 105.34748205155128,157.9346295540422 L 105.70966045452721,155.1836114600958 L 105.92736534200102,152.4174085877862 L 106.00000000000838,149.6436029069107 L 105.92736534200068,146.8697972260345 L 105.70966045452658,144.10359435372447 L 105.3474820515502,141.35257625977783 L 104.84182283889945,138.62428329356862 L 104.19406879332817,135.92619351647613 L 103.40599536365059,133.26570220503731 L 102.47976260435885,130.65010158100836 L 101.41790925506481,128.08656082389166 L 100.44122164880943,126.0388926746873 L 100.22775527985667,125.71790390666206 L 99.9329949529563,125.46947277021172 L 99.58049210406901,125.31344898549241 L 99.19841181347996,125.26229889833803 L 98.81728240768032,125.32010941560793 L 98.4675562371892,125.48226146014008 L 96.12639820292449,127.0026272644468 L 95.06609902004251,127.50836403201924 L 93.91103434844715,127.7224426150849 L 92.73991993667326,127.63027391198898 L 91.63256529652509,127.23813906753207 L 90.66443481673869,126.5727614233308 L 89.90150498960023,125.67948536624795 L 89.39576822202784,124.61918618336631 L 89.18168963896224,123.46412151177083 L 89.27385834205799,122.29300709999688 L 89.66599318651461,121.1856524598486 L 90.33137083071617,120.2175219800622 L 91.2246468877988,119.45459215292362 L 93.56580492205538,117.93422634863259 L 93.85618463436518,117.6806887724224 L 94.06401646491568,117.35602339070874 L 94.17269458991663,116.98617106204438 L 94.1735355955312,116.60068309520148 L 94.06647228516758,116.23036009099178 L 93.86005904850154,115.90479096530362 L 92.59438847196432,114.07493381540053 L 91.26099952295093,111.69399652678658 L 90.20571154339203,109.17742033245781 L 89.44209162015832,106.5575590623705 L 88.97995707139941,103.8680944092273 L 88.82524923226785,101.14360290691457 L 88.9799570713993,98.41911140460184 L 89.44209162015815,95.7296467514584 L 90.2057115433918,93.10978548137086 L 91.26099952295064,90.59320928704255 L 92.59438847196392,88.2122719984286 L 93.86005904850154,86.3824148485262 L 94.06647228516758,86.05684572283803 L 94.1735355955312,85.68652271862834 L 94.17269458991663,85.30103475178612 L 94.06401646491568,84.93118242312175 L 93.85618463436518,84.60651704140719 L 93.56580492205538,84.35297946519768 L 91.2246468877988,82.83261366090687 L 90.33137083071617,82.06968383376761 L 89.66599318651461,81.10155335398122 L 89.27385834205799,79.99419871383338 L 89.18168963896224,78.82308430205876 L 89.39576822202784,77.66801963046396 L 89.90150498960023,76.60772044758164 L 90.66443481673869,75.71444439049901 L 91.63256529652509,75.04906674629842 L 92.73991993667326,74.65693190184152 L 93.91103434844715,74.5647631987456 L 95.06609902004251,74.77884178181102 L 96.12639820292449,75.2845785493837 L 98.4675562371892,76.80494435368973 L 98.81728240768032,76.96709639822166 L 99.19841181347996,77.02490691549178 L 99.58049210406901,76.97375682833717 L 99.9329949529563,76.81773304361809 L 100.22775527985667,76.56930190716753 L 100.44122164880943,76.24831313914251 L 101.41790925506442,74.20064498993725 L 102.47976260435846,71.63710423282055 L 103.40599536365019,69.02150360879182 L 104.19406879332789,66.36101229735277 L 104.84182283889922,63.66292252026051 L 105.34748205155003,60.9346295540513 L 105.70966045452647,58.18361146010443 L 105.92736534200057,55.417408587794625 L 106.00000000000838,52.643602906918204 L 105.92736534200102,49.869797226042465 L 105.70966045452727,47.10359435373289 L 105.34748205155128,44.35257625978579 L 104.84182283890092,41.62428329357704 L 104.19406879333005,38.92619351648409 L 103.40599536365275,36.26570220504573 L 102.47976260436153,33.65010158101677 L 101.41790925506788,31.086560823900527 L 100.4412216488042,29.03889267468685 L 100.2277552798515,28.71790390666183 L 99.93299495295108,28.469472770210587 L 99.58049210406395,28.313448985492187 L 99.19841181347473,28.262298898336894 L 98.81728240767526,28.32010941560702 L 98.46755623718414,28.482261460138943 L 96.12639820291943,30.002627264446346 L 95.06609902003729,30.508364032018335 L 93.91103434844214,30.72244261508399 L 92.73991993666826,30.630273911988752 L 91.63256529652003,30.238139067531847 L 90.66443481673363,29.572761423330576 L 89.901504989595,28.679485366247718 L 89.39576822202278,27.6191861833654 L 89.18168963895718,26.4641215117706 L 89.27385834205276,25.293007099996657 L 89.66599318650944,24.18565245984837 L 90.33137083071111,23.217521980061974 L 91.22464688779374,22.45459215292317 L 93.56580492205026,20.934226348632365 L 93.85618463435995,20.68068877242149 L 94.06401646491062,20.356023390708515 L 94.17269458991152,19.98617106204415 L 94.17353559552609,19.60068309520034 L 94.06647228516229,19.230360090990644 L 93.86005904849648,18.90479096530248 L 92.38667575031295,17.17968076989746 L 90.4766594028982,15.166943504030087 L 88.46392213703078,13.256927156614665 L 86.35398072565286,11.454866949697362 L 84.15261837151272,9.765702205044363 L 81.86586885580815,8.194062805808699 L 79.50000000001185,6.744256506341117 L 77.06149648620791,5.420257124932277 L 74.55704208302942,4.225693651858137 L 71.993501325913,3.16384030256404 L 69.37790070188439,2.2376075432725884 L 66.7174093904458,1.4495341135946092 L 64.01931961335353,0.801780068023163 L 61.29102664714455,0.2961208553729193 L 59.041765442080504,0.0 L 58.656299492501915,0.004204948019150834 L 58.287409630196606,0.11610646436588468 L 57.96457026259375,0.32676358529488425 L 57.71357634918482,0.6193447454950274 L 57.5544823767477,0.9704726250581643 L 57.50000000001265,1.352092004148517 L 57.50000000001265,4.1436029069147935 L 57.34666621831346,5.308288609876627 L 56.89711431704271,6.393602906915021 L 56.18198051535225,7.32558342225434 L 55.250000000012705,8.040717223944739 L 54.16468570297408,8.490269125215946 L 53.000000000012705,8.643602906915248 M 83.61147573002287,129.76427812888141 L 84.60992723814601,131.39360290693025 L 85.52173813288854,133.07294966643735 L 86.3444092039671,134.79771543466427 L 87.07568556715913,136.56317274852813 L 87.71356284478341,138.36448261224655 L 88.25629265956027,140.1967077606903 L 88.70238742679223,142.05482619208442 L 89.0506244317298,143.93374493296437 L 89.30004918094826,145.8283139976636 L 89.44997801854717,147.73334050406538 L 89.50000000000418,149.64360290693298 L 89.44997801854512,151.5538653098008 L 89.30004918094411,153.4588918162026 L 89.05062443172366,155.35346088090137 L 88.70238742678399,157.2323796217811 L 88.2562926595501,159.09049805317431 L 87.71356284477125,160.9227232016176 L 87.07568556714497,162.7240330653351 L 86.34440920395113,164.48949037919806 L 85.5217381328707,166.2142561474243 L 84.60992723812635,167.89360290693025 L 83.61147573000144,169.52292768497864 L 82.52912029467822,171.09776461560432 L 81.3658275931713,172.61379718024773 L 80.12478612991592,174.0668700390263 L 78.80939751329927,175.45300042023632 L 77.42326713208789,176.76838903685143 L 75.97019427330795,178.00943050010505 L 74.45416170866352,179.17272320161055 L 72.87932477803619,180.255078636932 L 71.24999999998712,181.2535301450555 L 69.57065324048008,182.1653410397978 L 67.84588747225294,182.9880121108763 L 66.08043015838925,183.7192884740682 L 64.27912029467106,184.3571657516925 L 62.446895146227206,184.8998955664697 L 60.58877671483313,185.34599033370137 L 58.70985797395318,185.69422733863894 L 56.81528890925401,185.94365208785757 L 54.910262402852,186.0935809254563 L 52.99999999998451,186.1436029069132 L 51.08973759711708,186.09358092545403 L 49.1847110907153,185.94365208785348 L 47.290142026016355,185.6942273386328 L 45.411223285136685,185.3459903336934 L 43.55310485374318,184.89989556645946 L 41.72087970529989,184.35716575168067 L 39.91956984158233,183.71928847405434 L 38.15411252771949,182.98801211086038 L 36.4293467594932,182.16534103978006 L 34.749999999987125,181.2535301450357 L 33.120675221939194,180.25507863691064 L 31.545838291313004,179.17272320158736 L 30.02980572666982,178.0094305000805 L 28.576732867891195,176.7683890368255 L 27.190602486681286,175.45300042020858 L 25.87521387006612,174.06687003899697 L 24.634172406812382,172.6137971802175 L 23.470879705307055,171.0977646155725 L 22.38852426998548,169.52292768494544 L 21.390072761862342,167.89360290689638 L 20.478261867119812,166.21425614738928 L 19.655590796041253,164.48949037916213 L 18.92431443284923,162.72403306529827 L 18.286437155224945,160.9227232015803 L 17.743707340448083,159.09049805313657 L 17.297612573216185,157.23237962174244 L 16.949375568278555,155.35346088086226 L 16.69995081906015,153.45889181616326 L 16.550021981461185,151.55386530976102 L 16.500000000004178,149.64360290689365 L 16.55002198146323,147.7333405040265 L 16.69995081906424,145.82831399762472 L 16.949375568284694,143.9337449329255 L 17.297612573224313,142.054826192046 L 17.743707340458258,140.19670776065232 L 18.286437155237167,138.36448261220903 L 18.924314432863383,136.5631727484913 L 19.655590796057226,134.79771543462857 L 20.478261867137718,133.07294966640234 L 21.39007276188201,131.39360290689638 L 22.38852427000691,129.76427812884845 L 23.470879705330134,128.18944119822208 L 24.63417240683711,126.67340863357913 L 25.875213870092438,125.22033577480056 L 27.19060248670914,123.83420539359054 L 28.57673286792047,122.51881677697543 L 30.029805726700403,121.27777531372158 L 31.545838291344836,120.1144826122163 L 33.120675221972164,119.03212717689485 L 34.75000000002123,118.0336756687716 L 36.42934675952827,117.12186477402884 L 38.154112527755416,116.29919370295056 L 39.91956984161905,115.5679173397582 L 41.720879705337296,114.93004006213414 L 43.55310485378115,114.38731024735739 L 45.41122328517517,113.94121548012549 L 47.29014202605518,113.59297847518792 L 49.18471109075435,113.34355372596929 L 51.089737597156414,113.1936248883701 L 53.000000000023846,113.1436029069132 L 54.91026240289128,113.19362488837237 L 56.81528890929306,113.3435537259736 L 58.70985797399206,113.59297847519406 L 60.588776714871614,113.94121548013368 L 62.44689514626518,114.38731024736762 L 64.27912029470846,114.93004006214642 L 66.08043015842603,115.56791733977275 L 67.84588747228887,116.29919370296625 L 69.57065324051516,117.12186477404703 L 71.25000000002123,118.03367566879115 L 72.87932477806916,119.03212717691599 L 74.45416170869541,120.1144826122395 L 75.97019427333854,121.27777531374636 L 77.4232671321171,122.5188167770018 L 78.80939751332707,123.83420539361828 L 80.12478612994224,125.22033577482966 L 81.36582759319597,126.67340863360982 L 82.52912029470136,128.18944119825392 L 83.61147573002287,129.76427812888141 M 82.52912029470141,74.09776461557408 L 81.36582759319614,75.61379718021817 L 80.12478612994235,77.0668700389981 L 78.80939751332718,78.45300042020949 L 77.42326713211727,79.76838903682619 L 75.9701942733387,81.00943050008163 L 74.45416170869552,82.1727232015885 L 72.87932477806933,83.25507863691178 L 71.2500000000214,84.25353014503685 L 69.57065324051533,85.1653410397812 L 67.84588747228904,85.98801211086152 L 66.0804301584262,86.71928847405547 L 64.27912029470863,87.3571657516818 L 62.44689514626535,87.8998955664606 L 60.58877671487184,88.34599033369454 L 58.70985797399223,88.69422733863416 L 56.81528890929329,88.94365208785462 L 54.910262402891505,89.09358092545563 L 53.00000000002407,89.1436029069148 L 51.089737597156585,89.09358092545767 L 49.184711090754575,88.94365208785871 L 47.290142026055406,88.6942273386403 L 45.411223285175396,88.34599033370273 L 43.55310485378138,87.89989556647083 L 41.72087970533752,87.35716575169408 L 39.91956984161928,86.71928847406957 L 38.15411252775564,85.98801211087789 L 36.42934675952844,85.16534103979893 L 34.7500000000214,84.25353014505663 L 33.12067522197239,83.25507863693338 L 31.545838291345007,82.17272320161192 L 30.029805726700573,81.00943050010687 L 28.57673286792064,79.7683890368528 L 27.190602486709253,78.45300042023769 L 25.875213870092608,77.06687003902766 L 24.63417240683728,75.61379718024932 L 23.470879705330304,74.09776461560614 L 22.388524270007025,72.52292768497978 L 21.390072761882124,70.89360290693185 L 20.478261867137775,69.21425614742589 L 19.65559079605734,67.48949037919965 L 18.92431443286344,65.72403306533647 L 18.286437155237223,63.92272320161942 L 17.74370734045837,62.09049805317591 L 17.297612573224427,60.23237962178223 L 16.949375568284808,58.35346088090273 L 16.6999508190643,56.45889181620373 L 16.55002198146329,54.55386530980195 L 16.500000000004178,52.643602906934575 L 16.550021981461242,50.7333405040672 L 16.69995081906015,48.82831399766519 L 16.949375568278555,46.933744932965965 L 17.297612573216185,45.054826192085784 L 17.743707340448083,43.19670776069188 L 18.286437155224945,41.36448261224791 L 18.92431443284923,39.56317274852972 L 19.655590796041196,37.797715434666316 L 20.478261867119755,36.072949666438944 L 21.39007276186223,34.39360290693185 L 22.388524269985425,32.76427812888278 L 23.470879705306942,31.18944119825528 L 24.63417240681227,29.67340863361119 L 25.875213870066005,28.220335774831256 L 27.190602486681115,26.834205393619868 L 28.57673286789114,25.518816777003167 L 30.029805726669707,24.277775313747952 L 31.54583829131289,23.114482612240863 L 33.120675221939024,22.032127176917584 L 34.749999999986954,21.03367566879274 L 36.42934675949303,20.121864774048163 L 38.15411252771932,19.29919370296784 L 39.91956984158216,18.567917339773885 L 41.72087970529972,17.930040062147555 L 43.55310485374295,17.38731024736876 L 45.411223285136515,16.941215480134815 L 47.290142026016184,16.592978475195196 L 49.18471109071507,16.343553725974743 L 51.08973759711691,16.193624888373733 L 52.99999999998434,16.143602906914793 L 54.91026240285177,16.193624888371687 L 56.81528890925384,16.343553725970878 L 58.70985797395301,16.592978475189057 L 60.58877671483296,16.94121548012663 L 62.446895146227035,17.387310247358528 L 64.27912029467089,17.930040062135276 L 66.08043015838908,18.567917339759788 L 67.84588747225277,19.299193702951698 L 69.57065324047997,20.121864774030428 L 71.24999999998695,21.03367566877273 L 72.87932477803602,22.032127176895983 L 74.4541617086634,23.114482612217444 L 75.97019427330778,24.277775313722486 L 77.42326713208777,25.518816776976564 L 78.80939751329916,26.834205393591674 L 80.12478612991575,28.220335774801697 L 81.36582759317113,29.673408633580266 L 82.52912029467811,31.18944119822322 L 83.61147573000133,32.76427812884958 L 84.60992723812623,34.39360290689751 L 85.52173813287058,36.072949666403474 L 86.34440920395107,37.79771543462971 L 87.07568556714492,39.56317274849289 L 87.71356284477113,41.36448261221017 L 88.25629265955004,43.19670776065345 L 88.70238742678399,45.05482619204713 L 89.0506244317236,46.93374493292663 L 89.30004918094411,48.82831399762563 L 89.44997801854512,50.73334050402764 L 89.50000000000418,52.643602906894785 L 89.44997801854717,54.55386530976216 L 89.30004918094826,56.458891816164396 L 89.0506244317298,58.353460880863395 L 88.70238742679223,60.232379621743576 L 88.25629265956033,62.09049805313771 L 87.71356284478341,63.92272320158145 L 87.07568556715913,65.72403306529964 L 86.34440920396722,67.48949037916327 L 85.52173813288866,69.21425614739042 L 84.60992723814613,70.89360290689751 L 83.61147573002299,72.52292768494658 L 82.52912029470141,74.09776461557408 M 54.16468570297903,105.49026912521481 L 53.00000000001765,105.64360290691411 L 51.83531429705627,105.49026912521481 L 50.75000000001759,105.04071722394406 L 49.81801948467816,104.32558342225343 L 49.10288568298765,103.39360290691388 L 48.65333378171678,102.30828860987549 L 48.50000000001759,101.14360290691411 L 48.65333378171678,99.97891720395273 L 49.10288568298765,98.89360290691388 L 49.81801948467816,97.96162239157479 L 50.75000000001759,97.24648858988417 L 51.83531429705627,96.79693668861341 L 53.00000000001765,96.64360290691411 L 54.16468570297903,96.79693668861341 L 55.25000000001765,97.24648858988417 L 56.18198051535714,97.96162239157479 L 56.89711431704765,98.89360290691434 L 57.34666621831852,99.97891720395273 L 57.50000000001771,101.14360290691411 L 57.34666621831852,102.30828860987549 L 56.89711431704765,103.39360290691434 L 56.18198051535714,104.32558342225343 L 55.25000000001765,105.04071722394406 L 54.16468570297903,105.49026912521481 " />
</svg>
