<?xml version="1.0" encoding="UTF-8" standalone="no"?>
<svg
   width="40.00000000000006mm"
   height="77.00000000000483mm"
   viewBox="0 0 40.00000000000006 77.00000000000483"
   version="1.1"
   id="svg1"
   sodipodi:docname="Protoboard Tray, A (3mm x 1).svg"
   inkscape:version="1.3 (0e150ed6c4, 2023-07-21)"
   xmlns:inkscape="http://www.inkscape.org/namespaces/inkscape"
   xmlns:sodipodi="http://sodipodi.sourceforge.net/DTD/sodipodi-0.dtd"
   xmlns="http://www.w3.org/2000/svg"
   xmlns:svg="http://www.w3.org/2000/svg">
  <defs
     id="defs1" />
  <sodipodi:namedview
     id="namedview1"
     pagecolor="#ffffff"
     bordercolor="#000000"
     borderopacity="0.25"
     inkscape:showpageshadow="2"
     inkscape:pageopacity="0.0"
     inkscape:pagecheckerboard="0"
     inkscape:deskcolor="#d1d1d1"
     inkscape:document-units="mm"
     inkscape:zoom="6.6695617"
     inkscape:cx="75.567185"
     inkscape:cy="145.51181"
     inkscape:window-width="3840"
     inkscape:window-height="2137"
     inkscape:window-x="-8"
     inkscape:window-y="-8"
     inkscape:window-maximized="1"
     inkscape:current-layer="svg1" />
  <desc
     id="desc1">Output from Flights of Ideas SVG Sketchup Plugin</desc>
  <path
     id="face0-cut"
     style="fill:none;stroke:#000000;stroke-miterlimit:4;stroke-dasharray:none;stroke-linejoin:round;stroke-linecap:round;stroke-width:0.1"
     d="M 27.405866657859008,8.380740392011546 L 26.500000000000057,8.49999999999983 L 13.500000000000057,8.499999999999943 L 12.59413334214122,8.380740392011546 L 11.750000000000057,8.031088913245469 L 11.025126265847177,7.474873734152936 L 10.468911086754531,6.749999999999886 L 10.11925960798834,5.905866657858894 L 10.000000000000057,4.999999999999943 L 9.957224306869136,4.347369038899785 L 9.829629131445415,3.7059047744874647 L 9.619397662556537,3.086582838174593 L 9.33012701892227,2.4999999999997726 L 8.966766701456265,1.9561928549564982 L 8.535533905932823,1.4644660940671201 L 8.04380714504373,1.0332332985437915 L 7.500000000000114,0.6698729810776172 L 6.913417161825521,0.3806023374436336 L 6.294095225512706,0.17037086855464167 L 5.6526309611003285,0.04277569313080676 L 5.000000000000114,0.0 L 4.347369038899899,0.04277569313080676 L 3.7059047744875215,0.17037086855464167 L 3.0865828381747065,0.3806023374436336 L 2.5000000000001705,0.6698729810776172 L 1.9561928549564982,1.0332332985437915 L 1.4644660940674044,1.4644660940671201 L 1.033233298543962,1.9561928549564982 L 0.6698729810780151,2.5000000000001137 L 0.3806023374437473,3.086582838174593 L 0.1703708685548122,3.7059047744874647 L 0.042775693131090975,4.347369038899785 L 5.684341886080802e-14,4.999999999999943 L 0.0,72.00000000000489 L 0.04277569313103413,72.65263096110505 L 0.17037086855475536,73.29409522551742 L 0.3806023374436336,73.91341716183024 L 0.6698729810779014,74.50000000000472 L 1.0332332985438484,75.04380714504833 L 1.4644660940673475,75.53553390593771 L 1.9561928549564414,75.96676670146104 L 2.500000000000057,76.33012701892721 L 3.086582838174593,76.6193976625612 L 3.7059047744874647,76.82962913145019 L 4.347369038899785,76.95722430687402 L 5.0,77.00000000000483 L 5.652630961100272,76.95722430687402 L 6.294095225512592,76.82962913145019 L 6.913417161825464,76.6193976625612 L 7.5,76.33012701892721 L 8.043807145043615,75.96676670146104 L 8.53553390593271,75.53553390593771 L 8.966766701456152,75.04380714504833 L 9.330127018922155,74.50000000000506 L 9.619397662556423,73.91341716183024 L 9.829629131445301,73.29409522551742 L 9.957224306869023,72.65263096110505 L 9.999999999999943,72.00000000000489 L 10.119259607988226,71.09413334214594 L 10.468911086754417,70.25000000000495 L 11.025126265847064,69.5251262658519 L 11.749999999999943,68.96891108675936 L 12.594133342141106,68.61925960799334 L 13.499999999999943,68.500000000005 L 26.500000000000057,68.500000000005 L 27.405866657858894,68.61925960799334 L 28.250000000000057,68.96891108675936 L 28.974873734152936,69.5251262658519 L 29.531088913245583,70.25000000000495 L 29.880740392011774,71.09413334214594 L 30.000000000000057,72.00000000000489 L 30.04277569313109,72.65263096110505 L 30.170370868554812,73.29409522551742 L 30.38060233744369,73.91341716183024 L 30.66987298107796,74.50000000000472 L 31.033233298543962,75.04380714504833 L 31.464466094067404,75.53553390593771 L 31.95619285495644,75.96676670146104 L 32.50000000000006,76.33012701892721 L 33.08658283817459,76.6193976625612 L 33.705904774487465,76.82962913145019 L 34.3473690388999,76.95722430687402 L 35.00000000000006,77.00000000000483 L 35.65263096110033,76.95722430687402 L 36.29409522551265,76.82962913145019 L 36.91341716182552,76.6193976625612 L 37.50000000000006,76.33012701892721 L 38.04380714504367,75.96676670146104 L 38.53553390593271,75.53553390593771 L 38.966766701456265,75.04380714504833 L 39.330127018922155,74.50000000000506 L 39.61939766255642,73.91341716183024 L 39.8296291314453,73.29409522551742 L 39.957224306869136,72.65263096110505 L 40.00000000000006,72.00000000000489 L 40.00000000000006,4.999999999999943 L 39.957224306869136,4.347369038899785 L 39.829629131445415,3.7059047744874647 L 39.61939766255654,3.086582838174593 L 39.33012701892227,2.4999999999997726 L 38.966766701456265,1.9561928549564982 L 38.53553390593282,1.4644660940671201 L 38.043807145043786,1.0332332985437915 L 37.50000000000017,0.6698729810776172 L 36.91341716182552,0.3806023374436336 L 36.29409522551276,0.17037086855464167 L 35.65263096110033,0.04277569313080676 L 35.00000000000017,0.0 L 34.3473690388999,0.04277569313080676 L 33.70590477448758,0.17037086855464167 L 33.08658283817471,0.3806023374436336 L 32.50000000000017,0.6698729810776172 L 31.956192854956555,1.0332332985437915 L 31.464466094067404,1.4644660940671201 L 31.033233298543962,1.9561928549564982 L 30.669872981078072,2.5000000000001137 L 30.380602337443804,3.086582838174593 L 30.170370868554926,3.7059047744874647 L 30.04277569313109,4.347369038899785 L 30.00000000000017,4.999999999999943 L 29.880740392011887,5.905866657858894 L 29.531088913245696,6.749999999999886 L 28.97487373415305,7.474873734152936 L 28.25000000000017,8.031088913245469 L 27.405866657859008,8.380740392011546 M 35.56940189922574,7.125036817835962 L 35.00000000000017,7.199999999999818 L 34.4305981007746,7.125036817835962 L 33.90000000000015,6.905255888325826 L 33.44436508138966,6.555634918610167 L 33.0947441116744,6.100000000000023 L 32.874963182164095,5.5694018992253405 L 32.800000000000125,4.999999999999943 L 32.874963182164095,4.430598100774546 L 33.0947441116744,3.8999999999998067 L 33.44436508138966,3.4443650813896625 L 33.90000000000015,3.0947441116740606 L 34.4305981007746,2.874963182163924 L 35.00000000000017,2.800000000000068 L 35.56940189922574,2.874963182163924 L 36.10000000000019,3.0947441116740606 L 36.555634918610565,3.4443650813896625 L 36.90525588832594,3.8999999999998067 L 37.12503681783613,4.430598100774546 L 37.200000000000216,4.999999999999943 L 37.12503681783613,5.5694018992253405 L 36.90525588832594,6.100000000000023 L 36.555634918610565,6.555634918610167 L 36.10000000000019,6.905255888325826 L 35.56940189922574,7.125036817835962 M 4.430598100774432,69.87496318216887 L 5.0,69.80000000000507 L 5.569401899225625,69.87496318216887 L 6.100000000000023,70.09474411167906 L 6.555634918610451,70.44436508139466 L 6.905255888325826,70.90000000000481 L 7.125036817836019,71.43059810077949 L 7.2000000000000455,72.00000000000489 L 7.125036817836019,72.56940189923029 L 6.905255888325826,73.10000000000502 L 6.555634918610451,73.55563491861517 L 6.100000000000023,73.90525588833077 L 5.569401899225625,74.12503681784091 L 5.0,74.20000000000476 L 4.430598100774432,74.12503681784091 L 3.900000000000034,73.90525588833077 L 3.4443650813896056,73.55563491861517 L 3.094744111674231,73.10000000000502 L 2.874963182164038,72.56940189923029 L 2.8000000000000114,72.00000000000489 L 2.874963182164038,71.43059810077949 L 3.094744111674231,70.90000000000481 L 3.4443650813896056,70.44436508139466 L 3.900000000000034,70.09474411167906 L 4.430598100774432,69.87496318216887 M 37.999999999978684,14.000000000001876 L 37.999999999978684,63.000000000002274 L 37.948888739412325,63.38822856765614 L 37.79903810565537,63.7500000000021 L 37.56066017175846,64.06066017178136 L 37.249999999978684,64.29903810567868 L 36.88822856763255,64.44888873943523 L 36.499999999978684,64.50000000000193 L 3.4999999999786837,64.50000000000193 L 3.111771432324929,64.44888873943523 L 2.7499999999786837,64.29903810567868 L 2.4393398281989107,64.06066017178136 L 2.200961894302054,63.7500000000021 L 2.051111260545099,63.38822856765614 L 1.9999999999786837,63.000000000002274 L 1.9999999999786837,14.000000000001876 L 2.051111260545099,13.61177143234795 L 2.200961894302054,13.250000000002046 L 2.4393398281989107,12.939339828222046 L 2.7499999999786837,12.700961894325474 L 3.111771432324929,12.551111260568177 L 3.4999999999786837,12.500000000002217 L 36.499999999978684,12.500000000002217 L 36.88822856763255,12.551111260568177 L 37.249999999978684,12.700961894325474 L 37.56066017175846,12.939339828222046 L 37.79903810565537,13.250000000002046 L 37.948888739412325,13.61177143234795 L 37.999999999978684,14.000000000001876 M 34.43059810077449,69.87496318216887 L 35.00000000000006,69.80000000000507 L 35.569401899225625,69.87496318216887 L 36.10000000000008,70.09474411167906 L 36.55563491861045,70.44436508139466 L 36.905255888325826,70.90000000000481 L 37.12503681783602,71.43059810077949 L 37.2000000000001,72.00000000000489 L 37.12503681783602,72.56940189923029 L 36.905255888325826,73.10000000000502 L 36.55563491861045,73.55563491861517 L 36.10000000000008,73.90525588833077 L 35.569401899225625,74.12503681784091 L 35.00000000000006,74.20000000000476 L 34.43059810077449,74.12503681784091 L 33.900000000000034,73.90525588833077 L 33.44436508138966,73.55563491861517 L 33.09474411167429,73.10000000000502 L 32.874963182164095,72.56940189923029 L 32.80000000000001,72.00000000000489 L 32.874963182164095,71.43059810077949 L 33.09474411167429,70.90000000000481 L 33.44436508138966,70.44436508139466 L 33.900000000000034,70.09474411167906 L 34.43059810077449,69.87496318216887 M 5.5694018992256815,7.125036817835962 L 5.000000000000114,7.199999999999818 L 4.430598100774546,7.125036817835962 L 3.900000000000091,6.905255888325826 L 3.4443650813896625,6.555634918610167 L 3.094744111674345,6.100000000000023 L 2.8749631821640946,5.5694018992253405 L 2.800000000000068,4.999999999999943 L 2.8749631821640946,4.430598100774546 L 3.094744111674345,3.8999999999998067 L 3.4443650813896625,3.4443650813896625 L 3.900000000000091,3.0947441116740606 L 4.430598100774546,2.874963182163924 L 5.000000000000114,2.800000000000068 L 5.5694018992256815,2.874963182163924 L 6.100000000000136,3.0947441116740606 L 6.555634918610565,3.4443650813896625 L 6.9052558883258826,3.8999999999998067 L 7.125036817836133,4.430598100774546 L 7.200000000000159,4.999999999999943 L 7.125036817836133,5.5694018992253405 L 6.9052558883258826,6.100000000000023 L 6.555634918610565,6.555634918610167 L 6.100000000000136,6.905255888325826 L 5.5694018992256815,7.125036817835962 M 2.2329371405711527,11.369333243662709 L 1.9999999999788542,11.400000000002422 L 1.7670628593866127,11.369333243662709 L 1.5499999999788088,11.279422863408513 L 1.3636038969108881,11.136396103070183 L 1.2205771365727855,10.950000000002206 L 1.1306667563185329,10.732937140594458 L 1.0999999999787065,10.500000000002274 L 1.1306667563185329,10.267062859410089 L 1.2205771365727855,10.050000000002058 L 1.3636038969108881,9.863603896934421 L 1.5499999999788088,9.720577136596091 L 1.7670628593866127,9.630666756341952 L 1.9999999999788542,9.600000000002126 L 2.2329371405711527,9.630666756341839 L 2.4499999999789566,9.720577136596091 L 2.6363961030468204,9.863603896934421 L 2.77942286338498,10.050000000002285 L 2.8693332436392325,10.267062859410089 L 2.899999999979002,10.500000000002274 L 2.8693332436392325,10.732937140594458 L 2.77942286338498,10.950000000002206 L 2.6363961030468204,11.136396103070183 L 2.4499999999789566,11.279422863408513 L 2.2329371405711527,11.369333243662709 M 38.23293714057144,11.369333243662709 L 37.99999999997914,11.400000000002422 L 37.76706285938684,11.369333243662709 L 37.54999999997909,11.279422863408513 L 37.36360389691123,11.136396103070183 L 37.22057713657301,10.950000000002206 L 37.13066675631882,10.732937140594458 L 37.09999999997905,10.500000000002274 L 37.13066675631882,10.267062859410089 L 37.22057713657301,10.050000000002399 L 37.36360389691123,9.863603896934421 L 37.54999999997909,9.720577136596091 L 37.76706285938684,9.630666756341839 L 37.99999999997914,9.600000000002126 L 38.23293714057144,9.630666756341839 L 38.4499999999793,9.720577136596091 L 38.63639610304716,9.863603896934421 L 38.779422863385264,10.050000000002399 L 38.86933324363946,10.267062859410089 L 38.89999999997934,10.500000000002274 L 38.86933324363946,10.732937140594458 L 38.779422863385264,10.950000000002547 L 38.63639610304716,11.136396103070183 L 38.4499999999793,11.279422863408513 L 38.23293714057144,11.369333243662709 M 37.76706285938684,65.63066675634212 L 37.999999999979025,65.60000000000241 L 38.23293714057132,65.63066675634212 L 38.449999999979184,65.72057713659632 L 38.63639610304705,65.86360389693465 L 38.77942286338515,66.05000000000263 L 38.86933324363946,66.26706285941037 L 38.89999999997923,66.50000000000256 L 38.86933324363946,66.73293714059474 L 38.77942286338515,66.95000000000283 L 38.63639610304705,67.13639610307041 L 38.449999999979184,67.27942286340874 L 38.23293714057132,67.369333243663 L 37.999999999979025,67.4000000000027 L 37.76706285938684,67.369333243663 L 37.54999999997898,67.27942286340874 L 37.363603896911115,67.13639610307041 L 37.22057713657301,66.95000000000243 L 37.1306667563187,66.73293714059474 L 37.099999999978934,66.50000000000256 L 37.1306667563187,66.26706285941037 L 37.22057713657301,66.05000000000263 L 37.363603896911115,65.86360389693465 L 37.54999999997898,65.72057713659632 L 37.76706285938684,65.63066675634212 M 1.767062859386499,65.63066675634212 L 1.9999999999787974,65.60000000000241 L 2.232937140571039,65.63066675634212 L 2.449999999978843,65.72057713659632 L 2.6363961030467635,65.86360389693465 L 2.779422863384866,66.05000000000263 L 2.869333243639119,66.26706285941037 L 2.899999999978945,66.50000000000256 L 2.869333243639119,66.73293714059474 L 2.779422863384866,66.95000000000283 L 2.6363961030467635,67.13639610307041 L 2.449999999978843,67.27942286340874 L 2.232937140571039,67.369333243663 L 1.9999999999787974,67.4000000000027 L 1.767062859386499,67.369333243663 L 1.549999999978695,67.27942286340874 L 1.3636038969108313,67.13639610307041 L 1.2205771365726719,66.95000000000243 L 1.1306667563184192,66.73293714059474 L 1.0999999999786496,66.50000000000256 L 1.1306667563184192,66.26706285941037 L 1.2205771365726719,66.05000000000263 L 1.3636038969108313,65.86360389693465 L 1.549999999978695,65.72057713659632 L 1.767062859386499,65.63066675634212 " />
</svg>
