<?xml version="1.0" encoding="UTF-8" standalone="no"?>
<svg
   width="71.00000000000051mm"
   height="71.00000000000045mm"
   viewBox="0 0 71.00000000000051 71.00000000000045"
   version="1.1"
   id="svg1"
   sodipodi:docname="Pulley, B (3mm x 2).svg"
   inkscape:version="1.3 (0e150ed6c4, 2023-07-21)"
   xmlns:inkscape="http://www.inkscape.org/namespaces/inkscape"
   xmlns:sodipodi="http://sodipodi.sourceforge.net/DTD/sodipodi-0.dtd"
   xmlns="http://www.w3.org/2000/svg"
   xmlns:svg="http://www.w3.org/2000/svg">
  <defs
     id="defs1" />
  <sodipodi:namedview
     id="namedview1"
     pagecolor="#ffffff"
     bordercolor="#000000"
     borderopacity="0.25"
     inkscape:showpageshadow="2"
     inkscape:pageopacity="0.0"
     inkscape:pagecheckerboard="0"
     inkscape:deskcolor="#d1d1d1"
     inkscape:document-units="mm"
     inkscape:zoom="7.2331866"
     inkscape:cx="134.1041"
     inkscape:cy="134.17323"
     inkscape:window-width="3840"
     inkscape:window-height="2137"
     inkscape:window-x="-8"
     inkscape:window-y="-8"
     inkscape:window-maximized="1"
     inkscape:current-layer="svg1" />
  <desc
     id="desc1">Output from Flights of Ideas SVG Sketchup Plugin</desc>
  <path
     id="face0-cut"
     style="fill:none;stroke:#000000;stroke-miterlimit:4;stroke-dasharray:none;stroke-linejoin:round;stroke-linecap:round;stroke-width:0.1"
     d="M 63.088681631719226,57.84087388227412 L 64.2201033003077,56.36637645638803 L 65.2728051620598,54.83468574303887 L 66.24390183434508,53.25000000000558 L 67.13073160868481,51.61666274075949 L 67.93086374631042,49.93915082919647 L 68.642105140649,48.22206220886378 L 69.2625063284766,46.470103300316374 L 69.79036683326086,44.688076101145334 L 70.22423982604931,42.880865024036446 L 70.56293609112691,41.05342350893425 L 70.80552728557353,39.21076044600762 L 70.95134848378751,37.35792644663051 L 71.00000000000051,35.500000000006004 L 70.95134848378808,33.6420735533815 L 70.80552728557467,31.78923955400439 L 70.63390967582933,30.485674388962686 L 70.56293609112873,29.946576491077757 L 70.22423982605181,28.119134975975193 L 69.9623716796786,27.03245469057199 L 69.6036813512381,25.97378088951094 L 69.1510852451525,24.951721334726784 L 68.6082632858043,23.97458608860218 L 67.97962899716453,23.050319947322393 L 67.27029361774208,22.186437844099288 L 66.4860245426226,21.389963747483215 L 65.63319843049368,20.667373551562797 L 64.71874935692887,20.024542422395776 L 63.75011243548096,19.466697028780594 L 62.735163364983634,18.998373045766513 L 61.682154394586235,18.62337827642704 L 60.59964722716876,18.344761691746285 L 59.49644340668141,18.16478864034177 L 58.38151275540787,18.084922429588673 L 57.26392044300593,18.105812427902777 L 56.1527532803089,18.22728878491823 L 55.05704583716857,18.448363812490705 L 53.985706985052445,18.767240015296707 L 52.947447461659465,19.18132470573247 L 51.95070904650123,19.6872510842869 L 51.00359592330216,20.280905613987258 L 50.1138087872917,20.95746146634516 L 49.288582233140176,21.711417766864614 L 42.70000000000101,28.300000000001866 L 42.18252064537279,28.890072113068676 L 41.74648826441347,29.542640687120674 L 41.39936349205226,30.246540092930168 L 41.14708572938548,30.989726416505498 L 40.99397151887689,31.759483533800186 L 40.94264068711965,32.5426406871207 L 40.99397151887666,33.32579784044086 L 41.14708572938491,34.09555495773591 L 41.39936349205152,34.838741281311236 L 41.74648826441245,35.542640687120745 L 42.182520645371596,36.1952092611731 L 42.699999999999704,36.78528137424028 L 43.290072113066515,37.302760728868456 L 43.94264068711874,37.73879310982776 L 44.646540092928205,38.08591788218897 L 45.38972641650349,38.33819564485584 L 46.159483533798266,38.49130985536437 L 46.942640687118626,38.54264068712151 L 48.039060701767085,38.61450385158167 L 49.1167206659797,38.828863746293585 L 50.1571815189854,39.18205261402699 L 51.14264068711856,39.66802729533247 L 52.05623669079165,40.27847262867535 L 52.8823376490854,41.00294372515487 L 53.606808745564706,41.82904468344878 L 54.217254078907615,42.742640687122 L 54.70322876021311,43.72809985525537 L 55.05641762794647,44.76856070826084 L 55.27077752265831,45.8462206724734 L 55.34264068711815,46.94264068712213 L 55.27077752265808,48.03906070177049 L 55.056417627946246,49.116720665983046 L 54.70322876021288,50.15718151898887 L 54.217254078907274,51.14264068712189 L 53.60680874556425,52.056236690795124 L 52.88233764908483,52.88233764908902 L 52.056236690791195,53.606808745568166 L 51.142640687117876,54.217254078911076 L 50.1571815189846,54.70322876021654 L 49.11672066597902,55.05641762794993 L 48.03906070176629,55.27077752266151 L 46.94264068711783,55.342640687121666 L 45.84622067246943,55.27077752266148 L 44.7685607082567,55.05641762794958 L 43.72809985525117,54.70322876021617 L 42.74264068711784,54.217254078910706 L 41.82904468344475,53.606808745567456 L 41.002943725151,52.88233764908829 L 40.27847262867169,52.0562366907944 L 39.668027295328784,51.14264068712118 L 39.18205261402329,50.15718151898779 L 38.82886374628998,49.116720665982335 L 38.61450385157826,48.03906070176978 L 38.54264068711825,46.942640687121035 L 38.49130985536101,46.15948353380126 L 38.33819564485259,45.3897264165062 L 38.085917882185925,44.64654009293087 L 37.73879310982488,43.94264068712136 L 37.302760728865735,43.29007211306901 L 36.78528137423757,42.7000000000022 L 36.19520926117059,42.18252064537402 L 35.54264068711825,41.746488264414715 L 34.83874128130884,41.39936349205386 L 34.0955549577335,41.14708572938735 L 33.32579784043861,40.99397151887849 L 32.542640687118194,40.94264068712132 L 31.759483533797948,40.993971518878475 L 30.989726416503174,41.147085729386994 L 30.246540092927773,41.39936349205387 L 29.542640687118137,41.74648826441473 L 28.89007211306597,42.18252064537402 L 28.299999999998988,42.7000000000022 L 21.004310985673783,49.995689014321876 L 19.307254710826385,48.29863273947422 L 26.602943725151192,41.002943725154516 L 27.429044683445,40.27847262867535 L 28.34264068711832,39.66802729533212 L 29.328099855251537,39.18205261402664 L 30.368560708257064,38.82886374629323 L 31.44622067246985,38.6145038515813 L 32.45137761511364,38.54862238488797 L 32.54264068711831,38.54264068712151 L 33.639060701766766,38.6145038515813 L 34.71672066597938,38.828863746293216 L 35.757181518984964,39.18205261402664 L 36.742640687118296,39.6680272953321 L 37.656236690791445,40.278472628675 L 38.482337649085196,41.002943725154516 L 39.2068087455645,41.82904468344805 L 39.74264068711847,42.630973854998096 L 39.8172540789073,42.74264068712164 L 40.30322876021296,43.72809985525466 L 40.65641762794638,44.76856070826047 L 40.8707775226581,45.846220672473045 L 40.942640687118285,46.94264068712139 L 40.99397151887541,47.72579784044192 L 41.14708572938383,48.49555495773661 L 41.399363492050554,49.23874128131194 L 41.74648826441165,49.94264068712146 L 42.1825206453708,50.595209261173814 L 42.699999999998965,51.18528137424061 L 43.290072113065946,51.70276072886879 L 43.94264068711823,52.13879310982846 L 44.64654009292775,52.485917882189305 L 45.38972641650315,52.73819564485617 L 46.159483533797925,52.891309855364334 L 46.942640687118285,52.94264068712149 L 47.72579784043853,52.891309855364334 L 48.49555495773336,52.73819564485617 L 49.23874128130882,52.485917882189305 L 49.94264068711817,52.13879310982846 L 50.59520926117051,51.70276072886879 L 51.18528137423749,51.18528137424061 L 51.7027607288656,50.5952092611738 L 52.13879310982492,49.94264068712145 L 52.4859178821859,49.23874128131194 L 52.738195644852624,48.49555495773661 L 52.891309855361044,47.72579784044192 L 52.942640687118285,46.942640687121404 L 52.891309855361044,46.15948353380124 L 52.738195644852624,45.389726416506555 L 52.4859178821859,44.64654009293087 L 52.13879310982492,43.94264068712173 L 51.7027607288656,43.290072113069364 L 51.185281374237604,42.7000000000022 L 50.59520926117051,42.18252064537402 L 49.94264068711817,41.74648826441507 L 49.23874128130882,41.39936349205387 L 48.49555495773336,41.14708572938735 L 47.72579784043853,40.99397151887883 L 46.942640687118285,40.94264068712169 L 45.846220672469826,40.870777522661534 L 44.76856070825704,40.6564176279496 L 43.72809985525163,40.30322876021584 L 42.74264068711841,39.81725407891036 L 42.630973854995034,39.742640687121245 L 41.82904468344526,39.20680874556711 L 41.002943725151624,38.482337649087604 L 40.27847262867249,37.6562366907937 L 39.66802729532969,36.74264068712046 L 39.182052614024315,35.75718151898709 L 38.82886374629106,34.71672066598163 L 38.614503851579514,33.639060701768706 L 38.542640687119615,32.54264068712035 L 38.548622384886016,32.45137761511645 L 38.6145038515798,31.446220672471988 L 38.8288637462918,30.36856070825906 L 39.182052614025395,29.328099855253605 L 39.66802729533106,28.342640687120586 L 40.27847262867414,27.42904468344735 L 41.002943725153614,26.602943725153814 L 47.62980148331786,19.976085966991818 L 48.574955507403786,19.112559668866815 L 49.63718501330271,18.304886058315915 L 50.7678503872674,17.596180197961665 L 51.95775852528715,16.992204364457493 L 53.19723463805002,16.497869305744544 L 54.47620091377786,16.117194313219308 L 55.78425845791759,15.853274542072775 L 57.11077184346135,15.708255845500979 L 58.44495558444254,15.683317327411167 L 59.77596182951396,15.7786617554804 L 61.09296856260306,15.993513912509464 L 62.385267593508104,16.32612689948492 L 63.01380960825776,16.5499616192901 L 63.528329584987375,16.610400819095744 L 64.01785460126331,16.440845631127296 L 64.3847615932388,16.075109438542405 L 64.5558804807086,15.586128835984603 L 64.49708604121923,15.071418318108584 L 64.2201033003144,14.633623543621809 L 63.088681631726615,13.159126117735354 L 61.88164130445176,11.745863474265107 L 60.60229073212696,10.397709267881638 L 59.25413652574417,9.118358695556388 L 57.84087388227414,7.911318368281293 L 56.366376456387854,6.779896699692806 L 54.83468574303873,5.727194837940388 L 53.250000000005286,4.756098165655331 L 51.616662740759296,3.869268391315522 L 49.939150829196535,3.069136253690118 L 48.222062208863804,2.3578948593512337 L 46.470103300316396,1.7374936715237723 L 44.68807610114533,1.2096331667397777 L 42.88086502403638,0.7757601739511202 L 41.053423508934145,0.43706390887360413 L 39.210760446007725,0.19447271442664515 L 37.35792644663053,0.04865151621314823 L 35.500000000006025,0.0 L 33.64207355338152,0.04865151621242347 L 31.78923955400421,0.1944727144259133 L 29.94657649107768,0.43706390887181357 L 28.119134975975385,0.7757601739485764 L 26.311923898866212,1.2096331667365305 L 24.52989669969503,1.737493671520518 L 22.777937791147338,2.357894859347276 L 21.06084917081455,3.069136253685393 L 19.383337259251334,3.869268391310463 L 17.750000000005116,4.756098165649554 L 16.1653142569715,5.727194837934597 L 14.633623543621923,6.779896699685942 L 13.159126117735298,7.911318368273719 L 11.745863474264922,9.118358695548807 L 10.397709267881737,10.397709267873694 L 9.118358695556424,11.745863474256431 L 7.911318368281229,13.159126117726345 L 6.779896699692813,14.633623543612437 L 5.727194837940601,16.165314256961608 L 4.756098165655374,17.749999999994877 L 3.8692683913155292,19.38333725924096 L 3.069136253690033,21.060849170804005 L 2.357894859351461,22.777937791136672 L 1.7374936715237936,24.529896699684073 L 1.209633166739593,26.31192389885512 L 0.7757601739511415,28.119134975964023 L 0.4370639088735402,29.946576491066203 L 0.19447271442692227,31.789239553992864 L 0.04865151621299901,33.64207355336995 L 0.0,35.49999999999448 L 0.048651516212373735,37.357926446618954 L 0.19447271442572855,39.210760445996065 L 0.4370639088717212,41.05342350892271 L 0.7757601739486972,42.88086502402523 L 1.2096331667366371,44.68807610113412 L 1.7374936715203262,46.47010330030519 L 2.3578948593473115,48.22206220885331 L 3.069136253685315,49.939150829186 L 3.8692683913104133,51.616662740748986 L 4.7560981656495755,53.24999999999553 L 5.7271948379343485,54.834685743028906 L 6.779896699686049,56.36637645637857 L 7.911318368273896,57.84087388227413 L 9.11835869554875,59.25413652573524 L 10.397709267873495,60.60229073211878 L 11.745863474256282,61.88164130444408 L 13.159126117726373,63.08868163171909 L 14.6336235436126,64.22010330030767 L 16.16531425696178,65.27280516206008 L 17.74999999999517,66.24390183434514 L 19.38333725924116,67.13073160868493 L 21.060849170803976,67.93086374631037 L 22.777937791136708,68.64210514064922 L 24.52989669968406,69.26250632847669 L 26.311923898855127,69.79036683326069 L 28.11913497596413,70.22423982604934 L 29.94657649106631,70.56293609112686 L 31.789239553992843,70.80552728557382 L 33.64207355336998,70.95134848378731 L 35.499999999994486,71.00000000000045 L 37.35792644661899,70.95134848378802 L 39.21076044599624,70.80552728557453 L 41.053423508922776,70.56293609112865 L 42.88086502402507,70.22423982605187 L 44.68807610113424,69.79036683326393 L 46.47010330030548,69.26250632847993 L 48.222062208853174,68.64210514065317 L 49.939150829186076,67.93086374631505 L 51.61666274074918,67.13073160868998 L 53.249999999995396,66.24390183435088 L 54.834685743028956,65.27280516206585 L 56.36637645637853,64.22010330031452 L 57.84087388226516,63.088681631726736 L 59.254136525735646,61.881641304451655 L 60.602290732118774,60.60229073212677 L 61.88164130444403,59.25413652574401 L 63.088681631719226,57.84087388227412 M 59.83826859021809,36.850000000003526 L 59.40918830920367,37.40918830920712 L 58.849999999999966,37.838268590221354 L 58.198811421776725,38.107999730984055 L 57.49999999999994,38.20000000000322 L 56.80118857822316,38.107999730983686 L 56.150000000000034,37.838268590221 L 55.59081169079644,37.40918830920676 L 55.16173140978225,36.8500000000028 L 54.892000269019775,36.19881142177969 L 54.80000000000035,35.50000000000312 L 54.89200026902,34.80118857822618 L 55.16173140978259,34.150000000003054 L 55.59081169079701,33.59081169079948 L 56.150000000000716,33.161731409785226 L 56.801188578223844,32.892000269022894 L 57.500000000000625,32.80000000000337 L 58.19881142177752,32.892000269022894 L 58.85000000000065,33.161731409785595 L 59.40918830920424,33.59081169080019 L 59.83826859021843,34.15000000000342 L 60.10799973098091,34.801188578226906 L 60.20000000000033,35.50000000000383 L 60.107999730980566,36.19881142178041 L 59.83826859021809,36.850000000003526 M 37.83826859021434,58.85000000000081 L 37.40918830919992,59.409188309203905 L 36.849999999996214,59.83826859021813 L 36.19881142177303,60.107999730980474 L 35.49999999999625,60.20000000000004 L 34.80118857821941,60.10799973098049 L 34.14999999999628,59.83826859021776 L 33.59081169079269,59.40918830920324 L 33.161731409778554,58.84999999999966 L 32.89200026901608,58.19881142177653 L 32.799999999996714,57.499999999999666 L 32.89200026901631,56.801188578222956 L 33.16173140977895,56.149999999999814 L 33.59081169079337,55.590811690795896 L 34.14999999999702,55.161731409782014 L 34.80118857822026,54.89200026901937 L 35.4999999999971,54.800000000000175 L 36.198811421773826,54.8920002690197 L 36.84999999999695,55.16173140978237 L 37.409188309200545,55.59081169079665 L 37.838268590214795,56.15000000000057 L 38.1079997309771,56.80118857822378 L 38.19999999999658,57.50000000000028 L 38.10799973097693,58.19881142177751 L 37.83826859021434,58.85000000000081 M 15.838268590217922,36.84999999999703 L 15.4091883092035,37.40918830920028 L 14.849999999999795,37.838268590214504 L 14.198811421776554,38.107999730976836 L 13.499999999999716,38.199999999996386 L 12.801188578222991,38.107999730976836 L 12.149999999999864,37.83826859021416 L 11.590811690796272,37.40918830919956 L 11.161731409782021,36.84999999999594 L 10.892000269019604,36.19881142177284 L 10.800000000000239,35.499999999995886 L 10.892000269019888,34.80118857821933 L 11.161731409782476,34.14999999999619 L 11.590811690796897,33.59081169079226 L 12.15000000000066,33.16173140977836 L 12.801188578223787,32.892000269015675 L 13.500000000000625,32.79999999999652 L 14.198811421777407,32.8920002690164 L 14.850000000000534,33.16173140977872 L 15.409188309204126,33.59081169079297 L 15.83826859021832,34.149999999996915 L 16.107999730980794,34.80118857822004 L 16.200000000000102,35.49999999999661 L 16.10799973098051,36.198811421773904 L 15.838268590217922,36.84999999999703 M 37.83826859022156,14.850000000000591 L 37.409188309207195,15.409188309204538 L 36.85000000000343,15.83826859021842 L 36.19881142178025,16.107999730981113 L 35.50000000000341,16.200000000000287 L 34.80118857822663,16.10799973098038 L 34.1500000000035,15.838268590218064 L 33.59081169079991,15.40918830920382 L 33.161731409785716,14.84999999999986 L 32.8920002690233,14.198811421776746 L 32.800000000003934,13.500000000000178 L 32.89200026902353,12.801188578222884 L 33.16173140978617,12.149999999999785 L 33.59081169080048,11.590811690796542 L 34.15000000000424,11.161731409782291 L 34.80118857822748,10.892000269019952 L 35.50000000000432,10.800000000000416 L 36.198811421781045,10.892000269019967 L 36.85000000000417,11.161731409782654 L 37.409188309207764,11.59081169079726 L 37.838268590222015,12.150000000000844 L 38.10799973098443,12.801188578223964 L 38.2000000000038,13.500000000000895 L 38.10799973098415,14.19881142177747 L 37.83826859022156,14.850000000000591 " />
</svg>
