<?xml version="1.0" encoding="UTF-8" standalone="no"?>
<svg
   width="130.30000000000666mm"
   height="202.28720581382674mm"
   viewBox="0 0 130.30000000000666 202.28720581382674"
   version="1.1"
   id="svg1"
   sodipodi:docname="Rear Panel, C (3mm x 1).svg"
   inkscape:version="1.3 (0e150ed6c4, 2023-07-21)"
   xmlns:inkscape="http://www.inkscape.org/namespaces/inkscape"
   xmlns:sodipodi="http://sodipodi.sourceforge.net/DTD/sodipodi-0.dtd"
   xmlns="http://www.w3.org/2000/svg"
   xmlns:svg="http://www.w3.org/2000/svg">
  <defs
     id="defs1" />
  <sodipodi:namedview
     id="namedview1"
     pagecolor="#ffffff"
     bordercolor="#000000"
     borderopacity="0.25"
     inkscape:showpageshadow="2"
     inkscape:pageopacity="0.0"
     inkscape:pagecheckerboard="0"
     inkscape:deskcolor="#d1d1d1"
     inkscape:document-units="mm"
     inkscape:zoom="2.5387481"
     inkscape:cx="246.18433"
     inkscape:cy="382.27503"
     inkscape:window-width="3840"
     inkscape:window-height="2137"
     inkscape:window-x="-8"
     inkscape:window-y="-8"
     inkscape:window-maximized="1"
     inkscape:current-layer="svg1" />
  <desc
     id="desc1">Output from Flights of Ideas SVG Sketchup Plugin</desc>
  <path
     id="face0-cut"
     style="fill:none;stroke:#000000;stroke-miterlimit:4;stroke-dasharray:none;stroke-linejoin:round;stroke-linecap:round;stroke-width:0.1"
     d="M 0.0,163.64360290690456 L 0.042775693130920445,164.29623386800472 L 0.17037086855464167,164.93769813241704 L 0.38060233744357674,165.55702006872957 L 0.6698729810778445,166.1436029069048 L 1.0332332985437915,166.68741005194806 L 1.4644660940672338,167.179136812837 L 1.9561928549563277,167.61036960836077 L 2.499999999999943,167.9737299258269 L 3.086582838174536,168.26300056946093 L 3.7059047744874647,168.47323203834947 L 4.347369038899728,168.60082721377375 L 4.999999999999943,168.64360290690422 L 25.114501479412695,168.6408100308696 L 25.851796746443142,168.72540959073478 L 26.56323090403066,168.93665076980005 L 27.227223178620818,169.2681257395933 L 27.82363190739528,169.7097794778963 L 28.334365519146672,170.24821477962007 L 28.74393132730046,170.86709865007242 L 28.882090744950517,171.20064498993213 L 29.858778351210617,173.2483131391392 L 30.072244720163326,173.56930190716423 L 30.367005047063685,173.81773304361548 L 30.719507895950926,173.97375682833388 L 31.101588186540027,174.02490691548917 L 31.482717592339668,173.96709639821916 L 31.832443762830792,173.80494435368712 L 34.17360179707674,172.2845785493904 L 35.23390097995565,171.778841781815 L 36.38896565154863,171.56476319874582 L 37.560080063321436,171.65693190183663 L 38.66743470346955,172.0490667462892 L 39.63556518325714,172.71444439048696 L 40.39849501039788,173.60772044756538 L 40.90423177797322,174.66801963044486 L 41.11831036104252,175.8230843020375 L 41.0261416579512,176.99419871381065 L 40.634006813498786,178.10155335395825 L 39.968629169301494,179.06968383374613 L 39.075353112222615,179.83261366088698 L 36.734195077964614,181.3529794651937 L 36.443815365654814,181.6065170414047 L 36.23598353510425,181.93118242311766 L 36.12730541010336,182.30103475178203 L 36.126464404488786,182.68652271862572 L 36.23352771485247,183.05684572283542 L 36.43994095151845,183.38241484852347 L 37.91332424970744,185.10752504393372 L 39.823340597122524,187.1202623098011 L 41.83607786299018,189.03027865721572 L 43.94601927436838,190.83233886413313 L 46.14738162850887,192.52150360878602 L 48.43413114421361,194.09314300802066 L 50.80000000001007,195.5429493074887 L 53.23850351381424,196.86694868889663 L 55.74295791699291,198.06151216197077 L 58.30649867410949,199.12336551126418 L 60.92209929813822,200.04959827055563 L 63.58259060957698,200.83767170023305 L 66.28068038666936,201.48542574580358 L 69.00897335287834,201.99108495845394 L 71.25823455794284,202.28720581382674 L 71.64370050752143,202.2830008658077 L 72.01259036982685,202.17109934946086 L 72.33542973742965,201.96044222853186 L 72.58642365083858,201.66786106833172 L 72.74551762327576,201.31673318876858 L 72.80000000001075,200.93511380967834 L 72.80000000001075,198.14360290691116 L 72.95333378171006,196.97891720394955 L 73.40288568298081,195.89360290691093 L 74.11801948467144,194.96162239157104 L 75.05000000001087,194.2464885898812 L 76.1353142970496,193.79693668861012 L 77.30000000001098,193.64360290691081 L 78.46468570297236,193.79693668861012 L 79.55000000001098,194.2464885898812 L 80.48198051535053,194.96162239157184 L 81.19711431704093,195.89360290691093 L 81.64666621831168,196.97891720394955 L 81.80000000001087,198.14360290691116 L 81.80000000001087,200.93511380967755 L 81.85448237674598,201.3167331887679 L 82.01357634918304,201.66786106833104 L 82.26457026259197,201.96044222853118 L 82.58740963019488,202.17109934946006 L 82.9562994925002,202.28300086580703 L 83.34176544207878,202.28720581382606 L 85.59102664714283,201.99108495845257 L 88.31931961335181,201.4854257458021 L 91.01740939044419,200.83767170023089 L 93.67790070188266,200.0495982705528 L 96.29350132591128,199.12336551126134 L 98.85704208302775,198.06151216196713 L 101.36149648620619,196.866948688893 L 103.80000000001019,195.54294930748438 L 106.16586885580648,194.09314300801634 L 108.452618371511,192.5215036087809 L 110.6539807256512,190.83233886412813 L 112.76392213702911,189.03027865721072 L 114.77665940289648,187.12026230979507 L 116.68667575031122,185.10752504392792 L 118.16005904849476,183.38241484852347 L 118.36647228516051,183.05684572283542 L 118.47353559552437,182.68652271862572 L 118.47269458990979,182.30103475178203 L 118.3640164649089,181.93118242311766 L 118.15618463435817,181.6065170414047 L 117.86580492204848,181.35297946519358 L 115.52464688779196,179.8326136609029 L 114.63137083070933,179.0696838337642 L 113.96599318650772,178.10155335397803 L 113.57385834205104,176.9941987138293 L 113.48168963895546,175.82308430205535 L 113.695768222021,174.66801963046055 L 114.20150498959322,173.60772044757857 L 114.96443481673191,172.71444439049583 L 115.9325652965183,172.04906674629433 L 117.03991993666648,171.65693190183754 L 118.21103434844042,171.56476319874218 L 119.36609902003556,171.77884178180773 L 120.42639820291765,172.28457854937983 L 122.76755623718236,173.8049443536869 L 123.11728240767354,173.96709639821893 L 123.49841181347301,174.0249069154894 L 123.88049210406223,173.97375682833388 L 124.2329949529493,173.81773304361548 L 124.52775527984977,173.56930190716423 L 124.74122164880248,173.2483131391392 L 125.71790925506616,171.20064498992508 L 126.7797626043598,168.6371042328085 L 127.70599536365103,166.02150360877886 L 128.49406879332832,163.36101229734572 L 129.1418228388992,160.66292252024846 L 129.64748205154956,157.9346295540396 L 130.0096604545256,155.18361146009238 L 130.2273653419993,152.4174085877828 L 130.30000000000666,149.64360290690706 L 130.22736534199885,146.86979722603473 L 130.0096604545248,144.10359435372447 L 129.6474820515483,141.35257625977817 L 129.1418228388975,138.62428329356862 L 128.49406879332628,135.9261935164766 L 127.70599536364853,133.26570220503731 L 126.77976260435673,130.65010158100836 L 125.71790925506264,128.0865608238921 L 124.74122164880771,126.03889267468355 L 124.52775527985489,125.71790390665853 L 124.23299495295453,125.46947277020809 L 123.88049210406723,125.31344898548889 L 123.49841181347824,125.26229889833428 L 123.11728240767854,125.32010941560429 L 122.76755623718748,125.48226146013633 L 120.42639820292277,127.00262726444248 L 119.36609902004079,127.50836403201504 L 118.21103434844542,127.72244261508058 L 117.03991993667148,127.63027391198466 L 115.93256529652331,127.23813906752775 L 114.96443481673691,126.57276142332717 L 114.20150498959845,125.67948536624442 L 113.69576822202612,124.6191861833621 L 113.48168963896046,123.46412151176719 L 113.57385834205627,122.29300709999268 L 113.96599318651283,121.18565245984496 L 114.63137083071445,120.21752198005856 L 115.52464688779708,119.45459215291919 L 117.8658049220536,117.93422634862827 L 118.1561846343634,117.68068877241888 L 118.3640164649139,117.35602339070442 L 118.47269458991491,116.98617106204006 L 118.47353559552948,116.60068309519784 L 118.36647228516586,116.23036009098814 L 118.16005904849976,115.90479096529998 L 116.8943884719622,114.07493381540075 L 115.56099952294892,111.6939965267868 L 114.50571154339002,109.17742033245804 L 113.74209162015654,106.5575590623705 L 113.27995707139758,103.8680944092273 L 113.12524923226613,101.14360290691229 L 113.27995707139758,98.41911140459956 L 113.74209162015654,95.72964675145636 L 114.50571154339002,93.1097854813687 L 115.56099952294892,90.59320928703994 L 116.8943884719622,88.21227199842599 L 118.16005904849976,86.38241484852676 L 118.36647228516586,86.05684572283872 L 118.47353559552948,85.68652271862902 L 118.47269458991491,85.30103475178669 L 118.3640164649139,84.93118242312244 L 118.1561846343634,84.60651704140798 L 117.8658049220536,84.35297946519847 L 115.52464688779708,82.83261366090755 L 114.63137083071445,82.06968383376818 L 113.96599318651283,81.10155335398179 L 113.57385834205627,79.99419871383418 L 113.48168963896046,78.82308430205956 L 113.69576822202612,77.66801963046476 L 114.20150498959845,76.60772044758244 L 114.96443481673691,75.71444439049958 L 115.93256529652331,75.04906674629899 L 117.03991993667148,74.65693190184209 L 118.21103434844542,74.56476319874616 L 119.36609902004079,74.77884178181182 L 120.42639820292277,75.28457854938438 L 122.76755623718748,76.80494435369042 L 123.11728240767854,76.96709639822245 L 123.49841181347824,77.02490691549247 L 123.88049210406723,76.97375682833797 L 124.23299495295453,76.81773304361866 L 124.52775527985489,76.56930190716821 L 124.74122164880771,76.24831313914319 L 125.71790925506264,74.20064498993474 L 126.77976260435673,71.6371042328185 L 127.70599536364853,69.02150360878954 L 128.49406879332628,66.36101229735027 L 129.1418228388975,63.662922520258235 L 129.6474820515483,60.93462955404868 L 130.0096604545248,58.18361146010227 L 130.22736534199885,55.41740858779201 L 130.30000000000666,52.64360290691968 L 130.2273653419993,49.86979722604383 L 130.0096604545256,47.10359435373425 L 129.64748205154956,44.352576259787156 L 129.1418228388992,41.6242832935784 L 128.49406879332832,38.92619351648557 L 127.70599536365103,36.26570220504709 L 126.7797626043598,33.650101581018134 L 125.71790925506616,31.08656082390189 L 124.74122164880248,29.038892674687645 L 124.52775527984977,28.717903906662514 L 124.2329949529493,28.469472770211382 L 123.88049210406223,28.31344898549287 L 123.49841181347301,28.262298898337576 L 123.11728240767354,28.32010941560759 L 122.76755623718236,28.482261460139625 L 120.42639820291765,30.002627264447142 L 119.36609902003556,30.508364032019017 L 118.21103434844042,30.72244261508456 L 117.03991993666648,30.630273911989434 L 115.9325652965183,30.23813906753253 L 114.96443481673191,29.572761423331144 L 114.20150498959322,28.6794853662484 L 113.695768222021,27.619186183366082 L 113.48168963895546,26.464121511771282 L 113.57385834205104,25.29300709999734 L 113.96599318650772,24.18565245984894 L 114.63137083070933,23.217521980062543 L 115.52464688779196,22.454592152923965 L 117.86580492204848,20.934226348633047 L 118.15618463435817,20.680688772422172 L 118.3640164649089,20.356023390709083 L 118.47269458990979,19.986171062044832 L 118.47353559552437,19.600683095201134 L 118.36647228516051,19.23036009099144 L 118.16005904849476,18.904790965303278 L 116.68667575031122,17.179680769898823 L 114.77665940289648,15.166943504031451 L 112.76392213702911,13.256927156616143 L 110.6539807256512,11.454866949698726 L 108.452618371511,9.76570220504584 L 106.16586885580648,8.194062805810404 L 103.80000000001019,6.744256506342481 L 101.36149648620619,5.420257124933755 L 98.85704208302775,4.225693651859729 L 96.29350132591128,3.1638403025654043 L 93.67790070188266,2.2376075432739526 L 91.01740939044419,1.4495341135959734 L 88.31931961335181,0.801780068024641 L 85.59102664714283,0.29612085537428356 L 83.34176544207878,7.958078640513122e-13 L 82.9562994925002,0.004204948019719268 L 82.58740963019488,0.11610646436668048 L 82.26457026259197,0.32676358529556637 L 82.01357634918304,0.6193447454958232 L 81.85448237674598,0.9704726250588465 L 81.80000000001087,1.352092004149199 L 81.80000000001087,4.143602906915589 L 81.64666621831168,5.308288609877309 L 81.19711431704093,6.393602906915817 L 80.48198051535053,7.325583422255022 L 79.55000000001098,8.040717223945535 L 78.46468570297236,8.490269125216628 L 77.30000000001098,8.643602906916044 L 76.1353142970496,8.490269125216628 L 75.05000000001087,8.040717223945535 L 74.11801948467144,7.325583422255704 L 73.40288568298081,6.393602906915817 L 72.95333378171006,5.308288609877309 L 72.80000000001075,4.143602906915589 L 72.80000000001075,1.352092004148517 L 72.74551762327576,0.9704726250581643 L 72.58642365083858,0.6193447454950274 L 72.33542973742965,0.32676358529488425 L 72.01259036982685,0.11610646436599836 L 71.64370050752143,0.004204948019037147 L 71.25823455794284,0.0 L 69.00897335287834,0.29612085537280564 L 66.28068038666936,0.8017800680232767 L 63.58259060957698,1.4495341135938133 L 60.92209929813822,2.2376075432711104 L 58.30649867410949,3.163840302562562 L 55.74295791699291,4.225693651856091 L 53.23850351381424,5.420257124930231 L 50.80000000001007,6.744256506338161 L 48.43413114421361,8.194062805806084 L 46.14738162850887,9.765702205040839 L 43.94601927436838,11.45486694969361 L 41.83607786299018,13.256927156611027 L 39.823340597122524,15.166943504025767 L 37.91332424970744,17.179680769893025 L 36.43994095151845,18.904790965303278 L 36.23352771485247,19.23036009099144 L 36.126464404488786,19.600683095201134 L 36.12730541010336,19.986171062044832 L 36.23598353510425,20.356023390709083 L 36.443815365654814,20.680688772422172 L 36.734195077964614,20.934226348633047 L 39.075353112222615,22.454592152939767 L 39.968629169301494,23.21752198008062 L 40.634006813498786,24.185652459868493 L 41.0261416579512,25.293007100016098 L 41.11831036104252,26.464121511789244 L 40.90423177797322,27.619186183382 L 40.39849501039788,28.67948536626136 L 39.63556518325714,29.572761423339898 L 38.66743470346955,30.23813906753753 L 37.56008006332138,30.630273911990116 L 36.388965651548745,30.722442615080922 L 35.233900979955536,30.508364032011855 L 34.17360179707674,30.00262726443634 L 31.832443762830792,28.482261460139625 L 31.482717592339668,28.32010941560759 L 31.101588186540027,28.262298898337576 L 30.719507895950926,28.31344898549287 L 30.367005047063685,28.469472770211382 L 30.072244720163326,28.717903906662514 L 29.858778351210674,29.038892674687645 L 28.882090744950517,31.086560823894615 L 28.74393132730046,31.420107163754437 L 28.334365519146672,32.03899103420679 L 27.82363190739528,32.57742633593057 L 27.227223178620818,33.01908007423344 L 26.563230904030604,33.35055504402669 L 25.851796746443256,33.561796223092074 L 25.114501479412695,33.646395782957256 L 4.999999999999943,33.64360290692264 L 4.347369038899728,33.686378600053104 L 3.705904774487351,33.81397377547728 L 3.086582838174536,34.02420524436593 L 2.499999999999943,34.31347588799986 L 1.9561928549564414,34.67683620546609 L 1.4644660940672338,35.10806900098976 L 1.0332332985437915,35.599795761878795 L 0.6698729810778445,36.14360290692207 L 0.38060233744357674,36.73018574509729 L 0.17037086855464167,37.349507681409705 L 0.042775693130920445,37.990971945822025 L 0.0,38.64360290692218 L 0.0,163.64360290690456 M 25.200000000002092,148.64360290690445 L 25.15551327914602,149.32233910644902 L 25.02281429670535,149.98946194143798 L 24.80417356906088,150.63355675520268 L 24.50333209968113,151.24360290690458 L 24.34798550763378,151.47609551177334 L 24.125437369516533,151.80916233775008 L 23.676955262172157,152.32055816907462 L 23.165559430847395,152.76904027641865 L 22.90964376222348,152.94003765930222 L 22.600000000002183,153.14693500658382 L 21.989953848300615,153.44777647596322 L 21.345859034535295,153.66641720360747 L 20.678736199546393,153.7991161860483 L 20.000000000002103,153.8436029069046 L 19.321263800457928,153.7991161860483 L 18.654140965469026,153.66641720360747 L 18.010046151703705,153.44777647596322 L 17.40000000000208,153.14693500658382 L 16.83444056915681,152.76904027641865 L 16.323044737832106,152.32055816907462 L 15.874562630487674,151.80916233775008 L 15.496667900323075,151.24360290690458 L 15.195826430943498,150.63355675520268 L 14.977185703298971,149.98946194143798 L 14.844486720858356,149.32233910644902 L 14.800000000002115,148.64360290690445 L 14.844486720858242,147.96486670736056 L 14.977185703298971,147.2977438723716 L 15.195826430943498,146.65364905860622 L 15.496667900323018,146.0436029069043 L 15.874562630487674,145.4780434760595 L 16.323044737832106,144.96664764473417 L 16.83444056915681,144.51816553739013 L 17.400000000002194,144.14027080722576 L 18.010046151703705,143.83942933784556 L 18.654140965469026,143.62078861020132 L 19.321263800457928,143.48808962776047 L 20.000000000002103,143.44360290690418 L 20.678736199546393,143.48808962776047 L 21.345859034535295,143.62078861020132 L 21.989953848300615,143.83942933784556 L 22.60000000000207,144.14027080722576 L 23.0591833667101,144.4470873237475 L 23.165559430847395,144.51816553739013 L 23.676955262172157,144.96664764473417 L 24.125437369516533,145.4780434760595 L 24.44457794442087,145.95567109956096 L 24.50333209968113,146.0436029069043 L 24.804173569060765,146.65364905860622 L 25.02281429670535,147.2977438723716 L 25.15551327914602,147.96486670736056 L 25.200000000002092,148.64360290690445 M 33.44249693931522,120.04662919334464 L 34.37447745465471,119.33149539165413 L 35.459791751693444,118.88194349038372 L 36.624477454654766,118.72860970868442 L 37.78916315761603,118.88194349038372 L 38.874477454654766,119.33149539165413 L 39.80645796999431,120.04662919334464 L 40.52159177168477,120.97860970868385 L 40.97114367295552,122.06392400572315 L 41.12447745465482,123.22860970868408 L 40.971143672955634,124.39329541164568 L 40.52159177168477,125.4786097086843 L 39.80645796999431,126.41059022402351 L 38.874477454654766,127.12572402571402 L 37.78916315761603,127.57527592698511 L 36.624477454654766,127.72860970868453 L 35.459791751693444,127.57527592698511 L 34.37447745465471,127.12572402571402 L 33.44249693931522,126.41059022402351 L 32.72736313762471,125.4786097086843 L 32.27781123635384,124.39329541164568 L 32.12447745465465,123.22860970868408 L 32.27781123635384,122.06392400572315 L 32.72736313762471,120.97860970868453 L 33.44249693931522,120.04662919334464 M 34.37447745465471,82.95571042217261 L 33.44249693931522,82.2405766204821 L 32.72736313762471,81.30859610514221 L 32.27781123635384,80.2232818081037 L 32.12447745465465,79.05859610514278 L 32.27781123635384,77.89391040218106 L 32.72736313762471,76.80859610514256 L 33.44249693931522,75.87661558980335 L 34.37447745465471,75.16148178811284 L 35.45979175169333,74.71192988684163 L 36.624477454654766,74.55859610514233 L 37.78916315761603,74.71192988684163 L 38.874477454654766,75.16148178811284 L 39.80645796999431,75.87661558980335 L 40.521591771684825,76.80859610514256 L 40.971143672955634,77.89391040218106 L 41.12447745465482,79.05859610514278 L 40.97114367295552,80.2232818081037 L 40.52159177168477,81.3085961051429 L 39.806457969994256,82.2405766204821 L 38.874477454654766,82.95571042217261 L 37.78916315761603,83.40526232344314 L 36.624477454654766,83.55859610514244 L 35.459791751693444,83.40526232344314 L 34.37447745465471,82.95571042217261 M 25.15551327914602,52.96486670737784 L 25.200000000002092,53.64360290692241 L 25.15551327914602,54.32233910646619 L 25.022814296705235,54.98946194145526 L 24.804173569060765,55.63355675522064 L 24.50333209968113,56.24360290692255 L 24.444577944420757,56.331534714265786 L 24.125437369516533,56.80916233776736 L 23.676955262172157,57.32055816909258 L 23.165559430847395,57.76904027643661 L 23.0591833667101,57.84011849007925 L 22.60000000000207,58.1469350066011 L 21.989953848300615,58.447776475981186 L 21.345859034535295,58.66641720362543 L 20.678736199546393,58.79911618606627 L 20.000000000002103,58.84360290692268 L 19.321263800457814,58.79911618606627 L 18.654140965469026,58.66641720362543 L 18.010046151703648,58.447776475981186 L 17.40000000000208,58.1469350066011 L 16.834440569156754,57.76904027643661 L 16.323044737832106,57.32055816909258 L 15.874562630487674,56.80916233776736 L 15.496667900323018,56.24360290692255 L 15.195826430943498,55.63355675522064 L 14.977185703298971,54.98946194145526 L 14.844486720858356,54.32233910646619 L 14.800000000002115,53.64360290692241 L 14.844486720858356,52.96486670737784 L 14.977185703298971,52.29774387238888 L 15.195826430943384,51.65364905862418 L 15.496667900323018,51.043602906922274 L 15.874562630487674,50.47804347607678 L 16.323044737832106,49.96664764475213 L 16.834440569156754,49.518165537408095 L 17.400000000002194,49.14027080724304 L 18.010046151703705,48.83942933786352 L 18.654140965469026,48.62078861021939 L 19.321263800457928,48.48808962777855 L 20.000000000002103,48.44360290692214 L 20.678736199546393,48.48808962777855 L 21.345859034535238,48.62078861021939 L 21.989953848300615,48.83942933786352 L 22.600000000002183,49.14027080724304 L 22.90964376222348,49.34716815452464 L 23.16555943084751,49.518165537408095 L 23.676955262172157,49.96664764475213 L 24.125437369516533,50.47804347607678 L 24.347985507633723,50.81111030205341 L 24.503332099681245,51.043602906922274 L 24.804173569060765,51.65364905862418 L 25.02281429670535,52.29774387238888 L 25.15551327914602,52.96486670737784 M 65.72524558420923,116.94360290691156 L 65.72524558420923,85.34360290691518 L 65.15315524295215,85.14101509191755 L 64.81503470096158,85.06373040628978 L 64.46820149837043,85.06600045670632 L 64.13112154926569,85.14770438231619 L 63.82174149005391,85.30449214494695 L 63.55653317392267,85.5280161315867 L 63.34961668494782,85.80637559368358 L 62.699616684947785,86.93220861860357 L 61.197114317038825,89.53461905829658 L 60.48198051534831,90.46659957363579 L 59.55000000000882,91.1817333753263 L 58.46468570297009,91.63128527659705 L 57.30000000000882,91.78461905829636 L 56.1353142970475,91.63128527659705 L 55.050000000008765,91.1817333753263 L 54.11801948466933,90.46659957363579 L 53.40288568297876,89.53461905829624 L 52.9533337817079,88.44930476125762 L 52.800000000008765,87.28461905829636 L 52.9533337817079,86.11993335533509 L 53.40288568297876,85.03461905829613 L 54.90538805089085,82.4322086185989 L 55.55538805089077,81.30637559367881 L 55.69299617196299,80.98800092671604 L 55.75396946468277,80.64656179433155 L 55.7350616205174,80.3002369223143 L 55.63727932113227,79.96746516047767 L 55.465828641165444,79.66596377094936 L 55.22983786909316,79.4117851348575 L 54.08116795936411,78.43072835099395 L 52.76339469284261,77.18020821410232 L 51.51287455594945,75.86243494758207 L 50.33303513745739,74.48102047635996 L 49.22711029520286,73.03975116148001 L 48.198131292306414,71.54257742195341 L 47.24891848869191,69.99360290693244 L 46.38207361067458,68.39707324789481 L 45.599972619811865,66.75736442166362 L 44.90475920055633,65.07897075615551 L 44.29833888456642,63.36649261174432 L 43.78237382777672,61.62462377199188 L 43.35827825454322,59.858138578310786 L 43.027214581354144,58.07187884383029 L 42.790090230725355,56.27074058232222 L 42.64755514401969,54.45966058856504 L 42.60000000000241,52.643602906934916 L 42.647555144017815,50.827545225304675 L 42.790090230721376,49.01646523154682 L 43.02721458134823,47.21532697003886 L 43.35827825453549,45.42906723555825 L 43.78237382776689,43.662582041876476 L 44.29833888455488,41.92071320212324 L 44.9047592005428,40.20823505771136 L 45.599972619796574,38.52984139220257 L 46.38207361065764,36.8901325659707 L 47.2489184886731,35.29360290693239 L 48.198131292286064,33.744628391910624 L 49.22711029518075,32.247454652382544 L 50.33303513743385,30.806185337501233 L 51.51287455592427,29.42477086627764 L 52.763394692816064,28.106997599755914 L 54.08116795933614,26.856477462862813 L 55.22983786905627,25.875420678951627 L 55.46582864112855,25.621242042859762 L 55.63727932109538,25.31974065333145 L 55.73506162048051,24.986968891494826 L 55.75396946464576,24.64064401947769 L 55.6929961719261,24.299204887093083 L 55.55538805085388,23.980830220130315 L 54.905388050853844,22.85499719521033 L 53.402885682953865,20.25258675554869 L 52.953333781683,19.167272458510183 L 52.79999999998381,18.00258675554892 L 52.953333781683,16.83790105258754 L 53.402885682953865,15.752586755548691 L 54.11801948464438,14.820606240209486 L 55.04999999998387,14.105472438518973 L 56.1353142970226,13.655920537248221 L 57.29999999998387,13.502586755548805 L 58.46468570294519,13.655920537248221 L 59.549999999983925,14.105472438518973 L 60.481980515323414,14.820606240209486 L 61.19711431701393,15.752586755549032 L 62.69961668491089,18.354997195205556 L 63.34961668491093,19.48083022012554 L 63.55653317388578,19.759189682222427 L 63.82174149001702,19.982713668862175 L 64.13112154922874,20.139501431493045 L 64.46820149833354,20.221205357102917 L 64.81503470092468,20.223475407519345 L 65.1531552429152,20.14619072189157 L 66.57711029517407,19.641941791479667 L 68.31897913492696,19.125976734690312 L 70.08546432860794,18.701881161456527 L 71.87172406308798,18.370817488267562 L 73.67286232459617,18.133693137638716 L 75.48394231835368,17.991158050933336 L 77.2999999999837,17.943602906916112 L 79.11605768161382,17.991158050931176 L 80.92713767537134,18.133693137635078 L 82.72827593687998,18.370817488261878 L 84.51453567136036,18.701881161449364 L 86.28102086504191,19.125976734680194 L 88.02288970479538,19.641941791468184 L 89.44684475704832,20.14619072191033 L 89.78496529903884,20.223475407538103 L 90.1317985016301,20.221205357121676 L 90.46887845073479,20.139501431511803 L 90.77825850994657,19.982713668881047 L 91.04346682607775,19.759189682241185 L 91.25038331505266,19.4808302201443 L 91.90038331505264,18.354997195224314 L 93.40288568295375,15.752586755526977 L 94.11801948464426,14.820606240187772 L 95.0499999999837,14.105472438497259 L 96.13531429702232,13.655920537226507 L 97.2999999999837,13.502586755527204 L 98.46468570294519,13.655920537226507 L 99.54999999998381,14.105472438497259 L 100.48198051532324,14.820606240187772 L 101.19711431701376,15.752586755527432 L 101.64666621828462,16.83790105256594 L 101.79999999998381,18.002586755527204 L 101.64666621828451,19.167272458488583 L 101.19711431701376,20.25258675552743 L 99.69461194910969,22.85499719522909 L 99.04461194910971,23.980830220149073 L 98.90700382803743,24.29920488711184 L 98.84603053531782,24.64064401949645 L 98.86493837948308,24.986968891513584 L 98.96272067886821,25.31974065335021 L 99.13417135883503,25.62124204287852 L 99.37016213090726,25.875420678970386 L 100.51883204064097,26.856477462837574 L 101.83660530716247,28.106997599729198 L 103.08712544405557,29.424770866249446 L 104.26696486254764,30.806185337472357 L 105.37288970480222,32.24745465235219 L 106.40186870769844,33.74462839187879 L 107.35108151131317,35.29360290689988 L 108.21792638933027,36.89013256593671 L 109.00002738019316,38.52984139216869 L 109.6952407994487,40.2082350576768 L 110.30166111543849,41.9207132020872 L 110.8176261722283,43.66258204184044 L 111.24172174546163,45.429067235521416 L 111.51700688799406,46.91437294983268 L 111.61913665791212,47.245836271551525 L 111.79451918053633,47.545067610663295 L 112.03381683025577,47.796135446889366 L 112.32428904530252,47.985672556275745 L 112.65047065415331,48.103587702020604 L 112.99499526420038,48.143602906886144 L 114.29499526420068,48.143602906886144 L 117.30000000000223,48.1436029068941 L 118.4646857029635,48.296936688593405 L 119.55000000000223,48.74648858986416 L 120.48198051534166,49.46162239155467 L 121.19711431703217,50.393602906894216 L 121.64666621830304,51.47891720393284 L 121.80000000000223,52.6436029068941 L 121.64666621830304,53.80828860985537 L 121.19711431703217,54.89360290689433 L 120.48198051534166,55.825583422233535 L 119.55000000000223,56.54071722392405 L 118.4646857029635,56.9902691251948 L 117.30000000000223,57.143602906894216 L 114.29499526419522,57.14360290688592 L 112.99499526419504,57.14360290688592 L 112.65047065414774,57.1836181117518 L 112.32428904529672,57.301533257496544 L 112.03381683025009,57.49107036688292 L 111.79451918053007,57.742138203109334 L 111.61913665790564,58.041369542220764 L 111.51700688798701,58.37283286394006 L 111.24172174546936,59.85813857827395 L 110.81762617223796,61.624623771955044 L 110.30166111545009,63.36649261170896 L 109.69524079946211,65.07897075612016 L 109.00002738020828,66.75736442162895 L 108.21792638934744,68.39707324786161 L 107.35108151133193,69.99360290689992 L 106.4018687077189,71.54257742192169 L 105.37288970482427,73.03975116144977 L 104.26696486257129,74.48102047633108 L 103.08712544408058,75.86243494755468 L 101.83660530718907,77.1802082140756 L 100.51883204066883,78.4307283509687 L 99.37016213094421,79.41178513483874 L 99.13417135887198,79.6659637709306 L 98.96272067890516,79.96746516045891 L 98.86493837951991,80.30023692229554 L 98.84603053535466,80.64656179431267 L 98.90700382807438,80.98800092669728 L 99.04461194914666,81.30637559366005 L 99.69461194914652,82.43220861858003 L 101.1971143170507,85.03461905828203 L 101.64666621832157,86.11993335532065 L 101.80000000002065,87.28461905828192 L 101.64666621832157,88.44930476124318 L 101.1971143170507,89.53461905828215 L 100.48198051536008,90.46659957362135 L 99.55000000002065,91.18173337531186 L 98.46468570298191,91.63128527658262 L 97.30000000002065,91.78461905828192 L 96.13531429705938,91.63128527658262 L 95.05000000002065,91.18173337531186 L 94.1180194846811,90.46659957362135 L 93.40288568299059,89.5346190582818 L 91.90038331508958,86.93220861858481 L 91.2503833150895,85.80637559366482 L 91.0434668261147,85.52801613156794 L 90.7782585099834,85.30449214492819 L 90.46887845077174,85.14770438229732 L 90.13179850166694,85.06600045668756 L 89.7849652990758,85.06373040627102 L 89.44684475708527,85.1410150918988 L 88.87475441579579,85.34360290691518 L 88.87475441579579,116.94360290691156 L 89.44684475708527,117.14619072192795 L 89.78496529907568,117.22347540755572 L 90.13179850166694,117.2212053571393 L 90.46887845077163,117.13950143152942 L 90.7782585099834,116.98271366889867 L 91.04346682611458,116.7591896822588 L 91.2503833150895,116.48083022016203 L 91.90038331508958,115.35499719524194 L 93.40288568299059,112.75258675554505 L 94.1180194846811,111.8206062402055 L 95.05000000002065,111.105472438515 L 96.13531429705927,110.65592053724413 L 97.30000000002065,110.50258675554483 L 98.46468570298191,110.65592053724413 L 99.55000000002065,111.105472438515 L 100.48198051536008,111.8206062402055 L 101.1971143170507,112.75258675554471 L 101.64666621832157,113.83790105258356 L 101.80000000002065,115.00258675554483 L 101.64666621832157,116.1672724585062 L 101.1971143170507,117.25258675554471 L 99.69461194914652,119.85499719524671 L 99.04461194914666,120.9808302201667 L 98.90700382807438,121.29920488712946 L 98.84603053535466,121.64064401951407 L 98.86493837951991,121.98696889153132 L 98.96272067890516,122.31974065336783 L 99.13417135887198,122.62124204289614 L 99.37016213094421,122.87542067898801 L 100.51883204066883,123.85647746285815 L 101.83660530718907,125.10699759975114 L 103.08712544408058,126.42477086627218 L 104.26696486257129,127.80618533749578 L 105.37288970482427,129.2474546523771 L 106.4018687077189,130.74462839190517 L 107.35108151133193,132.29360290692694 L 108.21792638934744,133.89013256596525 L 109.00002738020828,135.5298413921979 L 109.69524079946211,137.2082350577067 L 110.30166111545009,138.92071320211778 L 110.81762617223796,140.66258204187181 L 111.24172174546936,142.4290672355528 L 111.51700688798701,143.91437294988668 L 111.61913665790564,144.24583627160598 L 111.79451918053007,144.5450676107174 L 112.03381683025009,144.79613544694382 L 112.32428904529672,144.9856725563302 L 112.65047065414774,145.10358770207506 L 112.99499526419504,145.14360290694094 L 114.29499526419522,145.14360290694094 L 117.30000000000223,145.14360290693264 L 118.4646857029635,145.29693668863194 L 119.55000000000223,145.7464885899028 L 120.48198051534166,146.4616223915931 L 121.19711431703217,147.39360290693253 L 121.64666621830304,148.47891720397138 L 121.80000000000223,149.64360290693264 L 121.64666621830304,150.80828860989402 L 121.19711431703217,151.89360290693253 L 120.48198051534166,152.82558342227208 L 119.55000000000223,153.54071722396247 L 118.4646857029635,153.99026912523345 L 117.30000000000223,154.14360290693253 L 114.29499526420068,154.1436029069407 L 112.99499526420038,154.1436029069407 L 112.65047065415331,154.18361811180603 L 112.32428904530252,154.30153325755077 L 112.03381683025577,154.49107036693738 L 111.79451918053633,154.74213820316345 L 111.61913665791212,155.0413695422751 L 111.51700688799406,155.3728328639943 L 111.24172174546163,156.85813857830533 L 110.8176261722283,158.62462377198676 L 110.30166111543849,160.36649261174 L 109.6952407994487,162.07897075615097 L 109.00002738019316,163.75736442166317 L 108.21792638933027,165.39707324788935 L 107.35108151131317,166.99360290692732 L 106.40186870769844,168.54257742194795 L 105.37288970480222,170.03975116147478 L 104.26696486254764,171.48102047635427 L 103.08712544405557,172.86243494757719 L 101.83660530716247,174.18020821409755 L 100.51883204064097,175.43072835098917 L 99.37016213090726,176.41178513485636 L 99.13417135883503,176.66596377094822 L 98.96272067886821,176.96746516047676 L 98.86493837948296,177.30023692231316 L 98.84603053531782,177.6465617943304 L 98.90700382803743,177.98800092671513 L 99.04461194910971,178.30637559367767 L 99.69461194910969,179.43220861859777 L 101.19711431701376,182.0346190582993 L 101.64666621828451,183.11993335533828 L 101.79999999998381,184.28461905829954 L 101.64666621828451,185.44930476126092 L 101.19711431701376,186.53461905829943 L 100.48198051532324,187.46659957363897 L 99.54999999998381,188.1817333753295 L 98.46468570294519,188.63128527660024 L 97.2999999999837,188.78461905829965 L 96.13531429702232,188.63128527660024 L 95.0499999999837,188.1817333753295 L 94.11801948464426,187.46659957363897 L 93.40288568295375,186.53461905829977 L 91.90038331505264,183.93220861860243 L 91.25038331505266,182.80637559368245 L 91.04346682607775,182.52801613158556 L 90.77825850994657,182.3044921449458 L 90.46887845073479,182.14770438231506 L 90.13179850162999,182.06600045670518 L 89.78496529903884,182.06373040628864 L 89.44684475704821,182.14101509191642 L 88.02288970479538,182.64526402235867 L 86.28102086504191,183.16122907914655 L 84.51453567136036,183.5853246523775 L 82.72827593687998,183.91638832556498 L 80.92713767537134,184.15351267619178 L 79.11605768161382,184.29604776289557 L 77.2999999999837,184.34360290691075 L 75.48394231835368,184.2960477628934 L 73.67286232459617,184.15351267618814 L 71.87172406308798,183.91638832555918 L 70.08546432860794,183.58532465237022 L 68.31897913492696,183.16122907913655 L 66.57711029517407,182.64526402234708 L 65.1531552429152,182.14101509193517 L 64.81503470092468,182.0637304063074 L 64.46820149833354,182.06600045672394 L 64.13112154922874,182.1477043823338 L 63.82174149001702,182.30449214496457 L 63.55653317388578,182.52801613160432 L 63.34961668491093,182.8063755937012 L 62.69961668491089,183.9322086186213 L 61.19711431701393,186.5346190582777 L 60.481980515323414,187.46659957361726 L 59.549999999983925,188.18173337530789 L 58.46468570294519,188.63128527657864 L 57.29999999998387,188.78461905827794 L 56.1353142970226,188.63128527657864 L 55.04999999998387,188.18173337530789 L 54.11801948464438,187.46659957361726 L 53.402885682953865,186.53461905827817 L 52.953333781683,185.4493047612392 L 52.79999999998381,184.28461905827794 L 52.953333781683,183.11993335531656 L 53.402885682953865,182.03461905827805 L 54.905388050853844,179.43220861861653 L 55.55538805085388,178.30637559369643 L 55.6929961719261,177.98800092673366 L 55.75396946464576,177.64656179434917 L 55.73506162048051,177.30023692233192 L 55.63727932109538,176.9674651604953 L 55.46582864112855,176.6659637709671 L 55.22983786905627,176.41178513487523 L 54.08116795933614,175.43072835096393 L 52.763394692816064,174.18020821407094 L 51.51287455592427,172.86243494754922 L 50.33303513743385,171.48102047632563 L 49.22711029518075,170.03975116144431 L 48.198131292286064,168.54257742191623 L 47.2489184886731,166.99360290689447 L 46.38207361065764,165.39707324785616 L 45.599972619796574,163.75736442162474 L 44.9047592005428,162.07897075611538 L 44.29833888455488,160.3664926117035 L 43.78237382776689,158.62462377195027 L 43.35827825453549,156.8581385782685 L 43.02721458134823,155.071878843788 L 42.790090230721376,153.27074058227993 L 42.6475551440177,151.45966058852207 L 42.60000000000241,149.64360290689194 L 42.64755514401969,147.8275452252617 L 42.790090230725355,146.01646523150453 L 43.027214581354144,144.21532696999657 L 43.358278254543336,142.42906723551596 L 43.78237382777661,140.66258204183498 L 44.29833888456642,138.92071320208242 L 44.90475920055633,137.20823505767135 L 45.599972619811865,135.52984139216323 L 46.38207361067458,133.89013256593205 L 47.24891848869191,132.29360290689442 L 48.198131292306414,130.74462839187333 L 49.22711029520286,129.24745465234673 L 50.33303513745739,127.8061853374669 L 51.51287455594945,126.42477086624467 L 52.76339469284261,125.10699759972442 L 54.08116795936411,123.8564774628328 L 55.22983786909316,122.87542067896925 L 55.465828641165444,122.62124204287738 L 55.63727932113227,122.31974065334907 L 55.7350616205174,121.98696889151256 L 55.75396946468277,121.64064401949531 L 55.69299617196299,121.2992048871107 L 55.55538805089077,120.98083022014794 L 54.90538805089085,119.85499719522795 L 53.40288568297876,117.25258675553061 L 52.9533337817079,116.16727245849177 L 52.800000000008765,115.00258675553039 L 52.9533337817079,113.83790105256912 L 53.40288568297876,112.75258675553061 L 54.11801948466933,111.82060624019107 L 55.050000000008765,111.10547243850056 L 56.1353142970475,110.65592053722969 L 57.30000000000882,110.50258675553039 L 58.46468570297009,110.65592053722969 L 59.55000000000882,111.10547243850056 L 60.48198051534831,111.82060624019107 L 61.197114317038825,112.75258675553027 L 62.699616684947785,115.35499719522318 L 63.34961668494782,116.48083022014316 L 63.55653317392267,116.75918968224005 L 63.82174149005391,116.98271366887991 L 64.13112154926569,117.13950143151067 L 64.46820149837043,117.22120535712054 L 64.81503470096158,117.22347540753697 L 65.15315524295215,117.14619072190919 L 65.72524558420923,116.94360290691156 " />
</svg>
