<?xml version="1.0" encoding="UTF-8" standalone="no"?>
<svg
   width="130.30000000000666mm"
   height="202.9999999999992mm"
   viewBox="0 0 130.30000000000666 202.9999999999992"
   version="1.1"
   id="svg1"
   sodipodi:docname="Rear Panel, A (3mm x 1).svg"
   inkscape:version="1.3 (0e150ed6c4, 2023-07-21)"
   xmlns:inkscape="http://www.inkscape.org/namespaces/inkscape"
   xmlns:sodipodi="http://sodipodi.sourceforge.net/DTD/sodipodi-0.dtd"
   xmlns="http://www.w3.org/2000/svg"
   xmlns:svg="http://www.w3.org/2000/svg">
  <defs
     id="defs1" />
  <sodipodi:namedview
     id="namedview1"
     pagecolor="#ffffff"
     bordercolor="#000000"
     borderopacity="0.25"
     inkscape:showpageshadow="2"
     inkscape:pageopacity="0.0"
     inkscape:pagecheckerboard="0"
     inkscape:deskcolor="#d1d1d1"
     inkscape:document-units="mm"
     inkscape:zoom="2.5298337"
     inkscape:cx="246.26124"
     inkscape:cy="383.62205"
     inkscape:window-width="3840"
     inkscape:window-height="2137"
     inkscape:window-x="-8"
     inkscape:window-y="-8"
     inkscape:window-maximized="1"
     inkscape:current-layer="svg1" />
  <desc
     id="desc1">Output from Flights of Ideas SVG Sketchup Plugin</desc>
  <path
     id="face0-cut"
     style="fill:none;stroke:#000000;stroke-miterlimit:4;stroke-dasharray:none;stroke-linejoin:round;stroke-linecap:round;stroke-width:0.1"
     d="M 130.22736534199936,152.7738056808713 L 130.30000000000666,149.99999999999557 L 130.22736534199902,147.22619431911983 L 130.00966045452486,144.45999144681002 L 129.64748205154854,141.70897335286338 L 129.14182283889778,138.98068038665417 L 128.49406879332645,136.28259060956168 L 127.70599536364887,133.62209929812286 L 126.77976260435713,131.0064986740939 L 125.71790925506309,128.4429579169772 L 124.52334578198861,125.93850351379854 L 123.19934640058005,123.4999999999942 L 121.74954010111207,121.1341311441978 L 120.17790070187664,118.84738162849305 L 118.48873595722358,116.64601927435262 L 116.8943884719626,114.43133090848607 L 115.5609995229492,112.05039361987212 L 114.5057115433903,109.53381742554313 L 113.74209162015666,106.91395615545605 L 113.27995707139769,104.22449150231284 L 113.12524923226607,101.49999999999989 L 113.27995707139769,98.77550849768716 L 113.74209162015649,96.08604384454395 L 114.50571154339002,93.46618257445641 L 115.56099952294892,90.94960638012788 L 116.89438847196232,88.56866909151393 L 118.48873595722296,86.35398072564692 L 120.17790070187601,84.15261837150649 L 121.74954010111156,81.86586885580198 L 123.1993464005796,79.50000000000534 L 124.52334578198804,77.06149648620146 L 125.71790925506264,74.5570420830228 L 126.77976260435679,71.9935013259061 L 127.70599536364858,69.37790070187725 L 128.49406879332628,66.71740939043832 L 129.14182283889755,64.01931961334594 L 129.64748205154842,61.29102664713673 L 130.0096604545248,58.54000855318998 L 130.2273653419989,55.77380568088006 L 130.30000000000666,53.00000000000375 L 130.22736534199936,50.2261943191279 L 130.0096604545256,47.45999144681832 L 129.64748205154967,44.708973352871226 L 129.14182283889926,41.98068038666247 L 128.49406879332827,39.28259060956964 L 127.70599536365108,36.62209929813116 L 126.77976260435975,34.006498674102204 L 125.71790925506616,31.44295791698596 L 124.52334578199202,28.93850351380695 L 123.19934640058392,26.500000000003297 L 121.74954010111634,24.134131144206776 L 120.17790070188124,21.84738162850215 L 118.48873595722858,19.64601927436138 L 116.68667575031128,17.536077862982893 L 114.7766594028966,15.52334059711552 L 112.76392213702911,13.613324249700213 L 110.65398072565125,11.811264042782796 L 108.452618371511,10.12209929812991 L 106.16586885580648,8.550459898894474 L 103.80000000001019,7.1006535994265505 L 101.3614964862063,5.776654218017825 L 98.85704208302775,4.582090744943798 L 96.2935013259114,3.520237395649474 L 93.67790070188278,2.5940046363580223 L 91.01740939044407,1.805931206680043 L 88.31931961335192,1.1581771611087106 L 85.59102664714288,0.6525179484583532 L 82.84000855319636,0.29033954548140173 L 80.07380568088678,0.07263465800770064 L 77.3000000000107,0.0 L 74.52619431913467,0.07263465800701852 L 71.75999144682504,0.2903395454807196 L 69.0089733528784,0.6525179484568753 L 66.28068038666936,1.1581771611073464 L 63.58259060957698,1.805931206677883 L 60.92209929813822,2.59400463635518 L 58.30649867410949,3.5202373956466317 L 55.742957916992964,4.58209074494016 L 53.238503513814294,5.776654218014301 L 50.800000000010186,7.10065359942223 L 48.43413114421355,8.550459898890153 L 46.14738162850887,10.122099298124908 L 43.94601927436838,11.81126404277768 L 41.83607786299024,13.613324249695097 L 39.82334059712258,15.523340597109836 L 37.9133242497075,17.536077862977095 L 36.11126404278974,19.6460192743549 L 34.4220992981368,21.84738162849567 L 32.85045989890142,24.1341311441995 L 31.40065359943344,26.499999999996135 L 30.076654218025055,28.93850351380047 L 28.88209074495046,31.442957916978685 L 28.743931327300515,31.776504256838507 L 28.33436551914673,32.39538812729086 L 27.823631907395338,32.93382342901464 L 27.227223178620875,33.37547716731751 L 26.56323090403066,33.70695213711076 L 25.851796746443256,33.91819331617614 L 25.114501479412695,34.002792876041326 L 5.000000000000057,34.00000000000671 L 4.347369038899785,34.04277569313717 L 3.705904774487408,34.17037086856135 L 3.086582838174536,34.38060233745 L 2.500000000000057,34.66987298108393 L 1.9561928549563845,35.03323329855016 L 1.4644660940672907,35.46446609407383 L 1.0332332985438484,35.956192854962865 L 0.6698729810777877,36.50000000000614 L 0.3806023374436336,37.08658283818136 L 0.17037086855469852,37.705904774493774 L 0.04277569313097729,38.347369038906095 L 0.0,39.00000000000625 L 5.684341886080802e-14,163.99999999999216 L 0.04277569313097729,164.6526309610923 L 0.17037086855469852,165.29409522550498 L 0.3806023374436336,165.91341716181716 L 0.6698729810777877,166.49999999999216 L 1.0332332985438484,167.04380714503566 L 1.4644660940672907,167.5355339059248 L 1.9561928549564414,167.96676670144836 L 2.5,168.3301270189146 L 3.086582838174536,168.61939766254875 L 3.705904774487408,168.8296291314374 L 4.347369038899785,168.95722430686135 L 5.0,168.99999999999193 L 25.114501479412695,168.9972071239573 L 25.851796746443256,169.0818066838225 L 26.56323090403066,169.29304786288787 L 27.227223178620875,169.624522832681 L 27.823631907395338,170.06617657098388 L 28.334365519146672,170.60461187270778 L 28.743931327300515,171.22349574316002 L 28.882090744950517,171.55704208302075 L 30.076654218025055,174.06149648619873 L 31.400653599433497,176.5000000000024 L 32.85045989890142,178.86586885579902 L 34.42209929813686,181.15261837150354 L 36.1112640427898,183.35398072564374 L 37.9133242497075,185.46392213702154 L 39.823340597122524,187.47665940288869 L 41.83607786299024,189.3866757503041 L 43.94601927436844,191.18873595722164 L 46.14738162850887,192.87790070187373 L 48.434131144213666,194.44954010110916 L 50.800000000010186,195.8993464005763 L 53.238503513814294,197.22334578198422 L 55.74295791699302,198.41790925505836 L 58.30649867410949,199.4797626043527 L 60.92209929813828,200.40599536364346 L 63.58259060957698,201.19406879332075 L 66.28068038666936,201.84182283889197 L 69.0089733528784,202.34748205154244 L 71.75999144682504,202.7096604545178 L 74.52619431913467,202.9273653419915 L 77.3000000000107,202.9999999999992 L 80.07380568088678,202.9273653419915 L 82.84000855319636,202.70966045451712 L 85.59102664714288,202.34748205154085 L 88.31931961335192,201.8418228388897 L 91.01740939044407,201.19406879331848 L 93.67790070188266,200.40599536364118 L 96.2935013259114,199.47976260434973 L 98.85704208302775,198.4179092550554 L 101.36149648620619,197.22334578198058 L 103.80000000001007,195.89934640057265 L 106.16586885580648,194.44954010110484 L 108.452618371511,192.8779007018694 L 110.65398072565114,191.1887359572164 L 112.76392213702911,189.38667575029842 L 114.77665940289648,187.47665940288368 L 116.68667575031117,185.46392213701563 L 118.48873595722864,183.35398072563783 L 120.17790070188124,181.15261837149717 L 121.74954010111634,178.86586885579243 L 123.19934640058392,176.49999999999602 L 124.5233457819919,174.0614964861917 L 125.71790925506616,171.55704208301324 L 126.77976260435975,168.99350132589632 L 127.70599536365103,166.37790070186736 L 128.49406879332838,163.71740939042877 L 129.14182283889926,161.01931961333673 L 129.64748205154967,158.2910266471273 L 130.0096604545256,155.54000855318088 L 130.22736534199936,152.7738056808713 M 119.38069681871536,122.02440266826818 L 119.73673073804667,122.4412648282397 L 119.97274122958055,122.93607111358426 L 120.07264456834474,123.4751012936614 L 120.02963250690061,124.02162135248875 L 119.84663624615462,124.53838685122435 L 119.53612667886097,124.9901810751245 L 119.11926451888974,125.34621499445586 L 118.62445823354534,125.58222548598985 L 118.08542805346798,125.68212882475393 L 117.53890799464051,125.63911676330952 L 117.02214249590509,125.45612050256375 L 116.57034827200488,125.14561093527016 L 116.21431435267357,124.72874877529887 L 115.9783038611397,124.2339424899543 L 115.8784005223755,123.69491230987694 L 115.92141258381974,123.14839225104981 L 116.10440884456574,122.63162675231422 L 116.41491841185928,122.17983252841407 L 116.83178057183062,121.82379860908247 L 117.32658685717502,121.58778811754871 L 117.86561703725226,121.48788477878463 L 118.41213709607968,121.53089684022882 L 118.92890259481516,121.71389310097459 L 119.38069681871536,122.02440266826818 M 119.73673073804144,25.441264828240037 L 119.97274122957526,25.936071113584603 L 120.0726445683394,26.475101293661737 L 120.02963250689527,27.021621352489092 L 119.84663624614927,27.538386851224686 L 119.53612667885568,27.990181075124838 L 119.11926451888439,28.346214994456318 L 118.62445823353994,28.582225485990193 L 118.08542805346264,28.682128824754273 L 117.53890799463522,28.639116763309858 L 117.02214249589974,28.456120502564204 L 116.57034827199953,28.14561093527061 L 116.21431435266823,27.72874877529921 L 115.97830386113446,27.233942489954643 L 115.87840052237016,26.69491230987751 L 115.9214125838144,26.148392251050154 L 116.1044088445604,25.63162675231456 L 116.41491841185393,25.17983252841441 L 116.83178057182528,24.823798609082928 L 117.32658685716967,24.587788117549053 L 117.86561703724698,24.487884778784974 L 118.41213709607439,24.530896840229275 L 118.92890259480993,24.713893100975042 L 119.38069681871013,25.02440266826852 L 119.73673073804144,25.441264828240037 M 79.118653347958,3.449999999999932 L 79.32844423521783,3.9564800052844475 L 79.40000000001078,4.499999999999659 L 79.328444235218,5.04351999471487 L 79.11865334795823,5.549999999999841 L 78.78492424050279,5.98492424049175 L 78.350000000011,6.318653347947361 L 77.84351999472642,6.528444235206962 L 77.3000000000111,6.599999999999909 L 76.75648000529577,6.528444235206962 L 76.25000000001108,6.318653347947361 L 75.81507575951929,5.9849242404920915 L 75.48134665206368,5.550000000000182 L 75.2715557648039,5.043519994715666 L 75.20000000001085,4.500000000000341 L 75.27155576480374,3.9564800052851297 L 75.4813466520634,3.450000000000273 L 75.81507575951895,3.0150757595083633 L 76.25000000001063,2.6813466520527527 L 76.75648000529532,2.471555764793038 L 77.30000000001058,2.4000000000002046 L 77.84351999472591,2.471555764793038 L 78.35000000001054,2.6813466520527527 L 78.78492424050233,3.0150757595079085 L 79.118653347958,3.449999999999932 M 38.18508158815462,25.17983252842157 L 38.495591155446846,25.631626752322518 L 38.67858741619142,26.148392251058794 L 38.72159947763407,26.69491230988649 L 38.621696138868344,27.233942489963283 L 38.385685647333105,27.728748775307167 L 38.029651728000545,28.145610935277546 L 37.57785750409954,28.456120502569547 L 37.06109200536338,28.639116763314178 L 36.51457194653585,28.682128824756774 L 35.975541766458775,28.582225485991216 L 35.48073548111506,28.346214994455977 L 35.06387332114474,27.990181075123473 L 34.753363753852454,27.538386851222526 L 34.57036749310788,27.02162135248625 L 34.52735543166517,26.475101293658554 L 34.6272587704309,25.936071113581647 L 34.86326926196614,25.441264828237877 L 35.2193031812987,25.0244026682675 L 35.67109740519987,24.713893100975383 L 36.187862903935866,24.530896840230753 L 36.73438296276345,24.48788477878827 L 37.273413142840525,24.587788117553828 L 37.768219428184295,24.823798609089067 L 38.18508158815462,25.17983252842157 M 38.38568564733828,78.27125122469249 L 38.62169613887352,78.76605751003592 L 38.72159947763913,79.30508769011328 L 38.67858741619648,79.85160774894086 L 38.495591155451905,80.36837324767669 L 38.18508158815962,80.82016747157775 L 37.768219428189184,81.17620139091025 L 37.27341314284547,81.4122118824456 L 36.73438296276839,81.51211522121105 L 36.18786290394081,81.46910315976845 L 35.67109740520482,81.28610689902382 L 35.21930318130376,80.97559733173136 L 34.86326926197131,80.55873517176099 L 34.62725877043607,80.06392888641756 L 34.527355431670344,79.52489870634042 L 34.57036749311311,78.97837864751261 L 34.753363753857684,78.46161314877679 L 35.06387332114997,78.00981892487596 L 35.48073548112035,77.65378500554323 L 35.97554176646412,77.4177745140081 L 36.51457194654114,77.31787117524243 L 37.061092005368664,77.36088323668503 L 37.57785750410471,77.54387949742966 L 38.029651728005774,77.85438906472211 L 38.38568564733828,78.27125122469249 M 38.1850815881599,122.17983252842112 L 38.49559115545219,122.63162675232218 L 38.678587416196706,123.14839225105845 L 38.721599477639415,123.69491230988604 L 38.62169613887369,124.23394248996294 L 38.38568564733839,124.72874877530683 L 38.02965172800589,125.1456109352772 L 37.57785750410477,125.4561205025692 L 37.061092005368664,125.63911676331384 L 36.51457194654114,125.68212882475643 L 35.97554176646412,125.58222548599076 L 35.48073548112029,125.34621499445564 L 35.06387332114997,124.9901810751229 L 34.75336375385774,124.53838685122207 L 34.57036749311317,124.0216213524858 L 34.527355431670514,123.47510129365821 L 34.62725877043624,122.9360711135813 L 34.86326926197154,122.44126482823742 L 35.21930318130404,122.02440266826704 L 35.6710974052051,121.71389310097504 L 36.18786290394121,121.53089684023041 L 36.734382962768734,121.48788477878782 L 37.27341314284581,121.58778811755349 L 37.76821942818958,121.82379860908861 L 38.1850815881599,122.17983252842112 M 38.029651728000715,174.85438906472257 L 38.385685647333105,175.27125122469295 L 38.621696138868344,175.76605751003638 L 38.721599477634015,176.3050876901135 L 38.678587416191306,176.8516077489411 L 38.49559115544679,177.36837324767714 L 38.185081588154446,177.82016747157797 L 37.76821942818407,178.1762013909107 L 37.2734131428403,178.41221188244583 L 36.73438296276328,178.51211522121127 L 36.18786290393575,178.4691031597689 L 35.6710974051997,178.28610689902428 L 35.21930318129864,177.97559733173182 L 34.86326926196614,177.55873517176144 L 34.6272587704309,177.063928886418 L 34.52735543166523,176.52489870634065 L 34.57036749310794,175.97837864751307 L 34.75336375385251,175.46161314877725 L 35.063873321144854,175.00981892487619 L 35.48073548111523,174.65378500554368 L 35.975541766458946,174.41777451400833 L 36.51457194653602,174.31787117524289 L 37.061092005363605,174.36088323668548 L 37.5778575040996,174.5438794974301 L 38.029651728000715,174.85438906472257 M 78.78492424050262,197.01507575950825 L 79.11865334795812,197.44999999999993 L 79.32844423521783,197.9564800052848 L 79.40000000001095,198.4999999999999 L 79.32844423521783,199.0435199947152 L 79.11865334795823,199.55000000000007 L 78.78492424050262,199.98492424049175 L 78.35000000001082,200.31865334794736 L 77.84351999472614,200.52844423520685 L 77.30000000001081,200.5999999999998 L 76.7564800052956,200.52844423520685 L 76.25000000001091,200.31865334794736 L 75.81507575951912,199.98492424049175 L 75.48134665206356,199.55000000000007 L 75.2715557648038,199.0435199947152 L 75.20000000001085,198.4999999999999 L 75.2715557648038,197.9564800052848 L 75.48134665206351,197.44999999999993 L 75.81507575951912,197.01507575950825 L 76.25000000001091,196.68134665205264 L 76.7564800052956,196.47155576479292 L 77.30000000001081,196.39999999999998 L 77.84351999472614,196.47155576479292 L 78.35000000001082,196.68134665205264 L 78.78492424050262,197.01507575950825 M 119.53612667885574,175.00981892487437 L 119.84663624614939,175.46161314877452 L 120.02963250689533,175.9783786475101 L 120.07264456833963,176.52489870633747 L 119.97274122957543,177.0639288864146 L 119.7367307380415,177.55873517175917 L 119.38069681871025,177.97559733173068 L 118.92890259481004,178.28610689902428 L 118.41213709607445,178.46910315977027 L 117.86561703724698,178.51211522121423 L 117.32658685716967,178.41221188245015 L 116.83178057182522,178.1762013909164 L 116.41491841185382,177.8201674715848 L 116.10440884456023,177.36837324768464 L 115.92141258381434,176.85160774894905 L 115.87840052236999,176.3050876901217 L 115.97830386113418,175.76605751004456 L 116.21431435266805,175.2712512247 L 116.57034827199936,174.8543890647287 L 117.02214249589957,174.5438794974351 L 117.53890799463522,174.3608832366889 L 118.08542805346264,174.31787117524493 L 118.62445823354,174.417774514009 L 119.11926451888445,174.653785005543 L 119.53612667885574,175.00981892487437 M 119.53612667886091,78.00981892487414 L 119.8466362461545,78.46161314877429 L 120.0296325069005,78.97837864750989 L 120.07264456834474,79.52489870633724 L 119.97274122958055,80.06392888641437 L 119.73673073804667,80.55873517175894 L 119.38069681871536,80.97559733173046 L 118.92890259481516,81.28610689902382 L 118.4121370960795,81.46910315977004 L 117.8656170372521,81.512115221214 L 117.32658685717479,81.41221188244992 L 116.83178057183034,81.17620139091616 L 116.41491841185899,80.82016747158457 L 116.10440884456546,80.36837324768442 L 115.92141258381946,79.85160774894882 L 115.87840052237522,79.30508769012147 L 115.9783038611393,78.76605751004433 L 116.21431435267328,78.27125122469977 L 116.5703482720046,77.85438906472825 L 117.02214249590475,77.54387949743466 L 117.53890799464028,77.36088323668866 L 118.08542805346775,77.3178711752447 L 118.62445823354506,77.41777451400878 L 119.11926451888951,77.65378500554255 L 119.53612667886091,78.00981892487414 M 75.4813466520684,100.44999999999948 L 75.815075759524,100.01507575950802 L 76.25000000001575,99.68134665205241 L 76.75648000530055,99.4715557647927 L 77.30000000001576,99.39999999999975 L 77.84351999473108,99.4715557647927 L 78.35000000001577,99.68134665205241 L 78.78492424050756,100.01507575950802 L 79.11865334796317,100.44999999999948 L 79.32844423522289,100.95648000528433 L 79.40000000001584,101.49999999999966 L 79.32844423522289,102.04351999471476 L 79.11865334796317,102.54999999999984 L 78.78492424050756,102.9849242404913 L 78.35000000001577,103.3186533479469 L 77.84351999473108,103.52844423520662 L 77.30000000001576,103.59999999999957 L 76.75648000530049,103.52844423520662 L 76.25000000001575,103.3186533479469 L 75.815075759524,102.9849242404913 L 75.4813466520684,102.54999999999984 L 75.27155576480868,102.04351999471476 L 75.20000000001568,101.49999999999966 L 75.27155576480868,100.95648000528433 L 75.4813466520684,100.44999999999948 M 52.763394692816064,174.53660530715854 L 51.51287455592433,173.2188320406368 L 50.3330351374338,171.83741756941333 L 49.22711029518081,170.39614825453202 L 48.198131292286064,168.89897451500394 L 47.2489184886731,167.34999999998206 L 46.382073610657585,165.75347034094386 L 45.59997261979663,164.11376151471165 L 44.904759200542856,162.4353678492031 L 44.29833888455488,160.72288970479133 L 43.782373827766946,158.9810208650382 L 43.35827825453549,157.2145356713562 L 43.02721458134829,155.42827593687605 L 42.79009023072143,153.62713767536673 L 42.647555144017815,151.81605768161114 L 42.60000000000247,149.99999999997942 L 42.64755514401975,148.1839423183493 L 42.79009023072541,146.37286232459235 L 43.027214581354144,144.5717240630844 L 43.358278254543336,142.78546432860378 L 43.78237382777667,141.0189791349227 L 44.29833888456642,139.27711029517002 L 44.90475920055633,137.56463215075894 L 45.599972619811865,135.88623848525083 L 46.38207361067464,134.24652965901976 L 47.24891848869186,132.64999999998201 L 48.19813129230653,131.10102548496104 L 49.22711029520286,129.60385174543433 L 50.33303513745744,128.1625824305546 L 51.51287455594945,126.78116795933227 L 52.76339469284255,125.46339469281213 L 54.08116795936405,124.21287455592062 L 55.4625824305877,123.03303513742969 L 56.9038517454689,121.92711029517693 L 58.40102548499675,120.89813129228207 L 59.95000000001875,119.94891848866894 L 61.546529659056944,119.08207361065331 L 63.18623848528938,118.29997261979258 L 64.86463215079806,117.60475920053875 L 65.72524558420929,117.29999999999939 L 88.87475441579596,117.29999999999939 L 89.73536784924192,117.6047592005524 L 91.41376151474987,118.29997261980759 L 93.0534703409815,119.08207361067059 L 94.65000000001874,119.94891848868758 L 96.19897451503971,120.89813129230231 L 97.69614825456648,121.92711029519853 L 99.13741756944643,123.03303513745357 L 100.51883204066883,124.21287455594586 L 101.83660530718896,125.46339469283873 L 103.08712544408058,126.78116795935978 L 104.26696486257117,128.16258243058348 L 105.37288970482427,129.6038517454648 L 106.40186870771896,131.10102548499287 L 107.35108151133193,132.65000000001453 L 108.2179263893475,134.24652965905295 L 109.00002738020845,135.88623848528562 L 109.69524079946211,137.5646321507944 L 110.30166111545009,139.2771102952055 L 110.81762617223796,141.01897913495952 L 111.24172174546948,142.7854643286404 L 111.57278541865668,144.571724063121 L 111.80990976928354,146.37286232462986 L 111.95244485598715,148.1839423183868 L 112.00000000000244,150.00000000001717 L 111.95244485598522,151.8160576816473 L 111.80990976927961,153.62713767540447 L 111.57278541865088,155.4282759369131 L 111.24172174546158,157.21453567139304 L 110.8176261722283,158.98102086507413 L 110.30166111543855,160.72288970482725 L 109.6952407994487,162.43536784923765 L 109.0000273801931,164.11376151474576 L 108.21792638933039,165.75347034097774 L 107.35108151131323,167.35000000001457 L 106.4018687076985,168.89897451503555 L 105.37288970480216,170.39614825456226 L 104.26696486254752,171.8374175694422 L 103.08712544405552,173.218832040665 L 101.83660530716242,174.53660530718537 L 100.51883204064103,175.78712544407688 L 99.13741756941732,176.9669648625669 L 97.69614825453618,178.07288970482057 L 96.19897451500822,179.1018687077152 L 94.64999999998628,180.05108151132788 L 93.05347034094802,180.91792638934328 L 91.41376151471565,181.70002738020423 L 89.73536784920691,182.39524079945807 L 88.02288970479538,183.00166111544638 L 86.28102086504191,183.51762617223437 L 84.51453567136042,183.9417217454651 L 82.72827593687998,184.2727854186527 L 80.9271376753714,184.5099097692795 L 79.11605768161394,184.65244485598316 L 77.2999999999837,184.69999999999834 L 75.48394231835363,184.65244485598112 L 73.67286232459622,184.50990976927585 L 71.87172406308792,184.27278541864678 L 70.08546432860788,183.9417217454578 L 68.3189791349269,183.51762617222414 L 66.57711029517395,183.00166111543479 L 64.86463215076304,182.3952407994451 L 63.1862384852551,181.700027380189 L 61.54652965902352,180.91792638932668 L 59.94999999998629,180.051081511309 L 58.40102548496532,179.10186870769428 L 56.90385174543849,178.07288970479806 L 55.46258243055854,176.96696486254393 L 54.0811679593362,175.78712544405164 L 52.763394692816064,174.53660530715854 M 119.40000000000214,52.99999999997715 L 119.32844423520947,53.5435199946927 L 119.11865334794993,54.04999999997756 L 118.7849242404946,54.48492424046958 L 118.35000000000315,54.81865334792474 L 117.84351999471852,55.028444235185134 L 117.30000000000331,55.09999999997808 L 116.75648000528798,55.028444235185816 L 116.25000000000318,54.818653347926215 L 115.81507575951133,54.484924240470946 L 115.48134665205555,54.049999999979036 L 115.27155576479555,53.54351999469486 L 115.20000000000238,52.99999999997931 L 115.27155576479493,52.45648000526444 L 115.48134665205447,51.94999999997947 L 115.81507575950968,51.51507575948756 L 116.25000000000136,51.18134665203161 L 116.75648000528582,50.97155576477189 L 117.30000000000103,50.89999999997826 L 117.84351999471647,50.97155576477121 L 118.35000000000116,51.18134665203081 L 118.78492424049307,51.51507575948608 L 119.11865334794891,51.94999999997731 L 119.3284442352089,52.45648000526228 L 119.40000000000214,52.99999999997715 M 119.40000000000202,150.0000000000215 L 119.3284442352089,150.54351999473704 L 119.11865334794891,151.0500000000212 L 118.78492424049313,151.48492424051312 L 118.35000000000116,151.8186533479685 L 117.84351999471636,152.028444235228 L 117.30000000000103,152.10000000002026 L 116.75648000528582,152.0284442352273 L 116.25000000000131,151.81865334796692 L 115.81507575950968,151.48492424051176 L 115.48134665205447,151.05000000001985 L 115.27155576479498,150.54351999473477 L 115.20000000000226,150.0000000000192 L 115.27155576479555,149.45648000530434 L 115.48134665205555,148.9500000000195 L 115.81507575951133,148.51507575952826 L 116.2500000000033,148.1813466520731 L 116.75648000528798,147.9715557648134 L 117.30000000000331,147.90000000002044 L 117.84351999471852,147.97155576481407 L 118.35000000000315,148.18134665207378 L 118.78492424049466,148.51507575952962 L 119.11865334794999,148.95000000002176 L 119.32844423520947,149.45648000530662 L 119.40000000000202,150.0000000000215 M 57.29999999998506,182.54101615136562 L 57.84351999470027,182.61257191615925 L 58.349999999984846,182.82236280341897 L 58.78492424047636,183.15609191087503 L 59.118653347931684,183.59101615136694 L 59.328444235191114,184.0974961566518 L 59.39999999998378,184.64101615136667 L 59.328444235190545,185.18453614608222 L 59.118653347930604,185.6910161513664 L 58.78492424047482,186.1259403918583 L 58.349999999982856,186.4596694993137 L 57.843519994698056,186.66946038657318 L 57.29999999998279,186.74101615136544 L 56.756480005267576,186.6694603865725 L 56.249999999983004,186.4596694993121 L 55.815075759491435,186.12594039185694 L 55.48134665203611,185.69101615136503 L 55.27155576477668,185.18453614608018 L 55.199999999984016,184.6410161513644 L 55.271555764777304,184.09749615664953 L 55.481346652037246,183.59101615136467 L 55.815075759493084,183.15609191087344 L 56.24999999998494,182.8223628034183 L 56.75648000526974,182.61257191615857 L 57.29999999998506,182.54101615136562 M 99.32844423519043,17.81546385389538 L 99.39999999998372,18.35898384861025 L 99.32844423519106,18.902503843325803 L 99.11865334793157,19.40898384861066 L 98.7849242404763,19.843908089102683 L 98.34999999998473,20.177637196557953 L 97.84351999470016,20.387428083818236 L 97.29999999998495,20.458983848611183 L 96.75648000526962,20.38742808381903 L 96.24999999998482,20.177637196559317 L 95.81507575949297,19.84390808910416 L 95.48134665203719,19.408983848612138 L 95.27155576477719,18.902503843327963 L 95.19999999998396,18.35898384861241 L 95.27155576477662,17.81546385389754 L 95.481346652036,17.30898384861257 L 95.81507575949132,16.87405960812066 L 96.24999999998283,16.54033050066471 L 96.75648000526746,16.330539613405108 L 97.29999999998262,16.258983848611365 L 97.843519994698,16.330539613404312 L 98.34999999998274,16.540330500664027 L 98.78492424047465,16.874059608119182 L 99.11865334793049,17.30898384861041 L 99.32844423519043,17.81546385389538 M 95.2000000000208,115.35898384863287 L 95.27155576481374,114.81546385391732 L 95.48134665207346,114.30898384863247 L 95.81507575952907,113.87405960814124 L 96.25000000002075,113.54033050068517 L 96.75648000530543,113.33053961342569 L 97.3000000000207,113.25898384863274 L 97.84351999473591,113.33053961342569 L 98.3500000000206,113.54033050068517 L 98.78492424051228,113.87405960814124 L 99.11865334796789,114.30898384863315 L 99.32844423522755,114.81546385391732 L 99.40000000002055,115.35898384863287 L 99.32844423522755,115.90250384334774 L 99.11865334796789,116.4089838486326 L 98.78492424051228,116.84390808912474 L 98.3500000000206,117.1776371965799 L 97.84351999473591,117.38742808383961 L 97.3000000000207,117.45898384863233 L 96.75648000530538,117.38742808383961 L 96.25000000002075,117.1776371965799 L 95.81507575952907,116.84390808912474 L 95.48134665207346,116.4089838486326 L 95.27155576481374,115.90250384334774 L 95.2000000000208,115.35898384863287 M 95.2000000000208,87.64101615136644 L 95.27155576481374,87.09749615665066 L 95.48134665207346,86.59101615136649 L 95.81507575952907,86.15609191087458 L 96.25000000002075,85.82236280341874 L 96.75648000530543,85.61257191615903 L 97.3000000000207,85.54101615136608 L 97.84351999473591,85.61257191615903 L 98.3500000000206,85.82236280341874 L 98.78492424051228,86.15609191087458 L 99.11865334796784,86.5910161513658 L 99.32844423522755,87.09749615665066 L 99.4000000000205,87.64101615136644 L 99.32844423522755,88.18453614608131 L 99.11865334796789,88.69101615136617 L 98.78492424051228,89.12594039185808 L 98.3500000000206,89.45966949931324 L 97.84351999473591,89.66946038657295 L 97.3000000000207,89.7410161513659 L 96.75648000530543,89.66946038657295 L 96.25000000002075,89.45966949931324 L 95.81507575952907,89.12594039185808 L 95.48134665207346,88.69101615136617 L 95.27155576481374,88.18453614608131 L 95.2000000000208,87.64101615136644 M 55.481346652061745,88.6910161513805 L 55.271555764801974,88.18453614609632 L 55.20000000000891,87.64101615138077 L 55.2715557648018,87.0974961566659 L 55.481346652061404,86.59101615138104 L 55.8150757595169,86.15609191088913 L 56.25000000000853,85.82236280343375 L 56.75648000529321,85.61257191617358 L 57.300000000008424,85.54101615138063 L 57.84351999472369,85.61257191617358 L 58.350000000008436,85.82236280343307 L 58.784924240500175,86.15609191088845 L 59.11865334795584,86.59101615138036 L 59.32844423521573,87.09749615666522 L 59.400000000008674,87.64101615138009 L 59.32844423521584,88.18453614609564 L 59.11865334795618,88.6910161513805 L 58.78492424050074,89.12594039187172 L 58.35000000000906,89.45966949932779 L 57.84351999472443,89.66946038658728 L 57.30000000000916,89.74101615138022 L 56.756480005293895,89.66946038658728 L 56.25000000000915,89.45966949932779 L 55.81507575951741,89.1259403918724 L 55.481346652061745,88.6910161513805 M 55.271555764777304,18.902503843349677 L 55.199999999984016,18.35898384863401 L 55.27155576477668,17.81546385391914 L 55.48134665203611,17.308983848634284 L 55.815075759491435,16.874059608142375 L 56.249999999983004,16.54033050068631 L 56.75648000526763,16.33053961342671 L 57.29999999998279,16.25898384863308 L 57.84351999469811,16.330539613426026 L 58.349999999982856,16.540330500685627 L 58.78492424047482,16.874059608140897 L 59.118653347930604,17.308983848632124 L 59.328444235190545,17.81546385391698 L 59.39999999998378,18.35898384863185 L 59.328444235191114,18.902503843347517 L 59.118653347931684,19.408983848632374 L 58.78492424047636,19.843908089124284 L 58.349999999984846,20.177637196579553 L 57.84351999470033,20.38742808383995 L 57.29999999998506,20.458983848632897 L 56.75648000526979,20.387428083840632 L 56.24999999998494,20.17763719658103 L 55.815075759493084,19.84390808912576 L 55.481346652037246,19.408983848633852 L 55.271555764777304,18.902503843349677 M 55.46258243055854,26.033035137454704 L 56.903851745438544,24.927110295200464 L 58.40102548496537,23.89813129230413 L 59.94999999998629,22.948918488689515 L 61.54652965902352,22.08207361067184 L 63.1862384852551,21.299972619809523 L 64.86463215076304,20.60475920055353 L 66.57711029517395,19.998338884563736 L 68.3189791349269,19.48237382777438 L 70.08546432860788,19.058278254540596 L 71.87172406308792,18.72721458135163 L 73.67286232459622,18.490090230722785 L 75.48394231835363,18.347555144017406 L 77.2999999999837,18.300000000000182 L 79.11605768161394,18.347555144015246 L 80.92713767537151,18.490090230719147 L 82.72827593687998,18.727214581345947 L 84.51453567136042,19.058278254533434 L 86.28102086504191,19.482373827764263 L 88.02288970479538,19.998338884552254 L 89.73536784920691,20.60475920054057 L 91.41376151471565,21.29997261979429 L 93.05347034094802,22.082073610655243 L 94.64999999998628,22.948918488670643 L 96.19897451500822,23.89813129228321 L 97.69614825453607,24.927110295178068 L 99.13741756941732,26.033035137431625 L 100.51883204064092,27.212874555921644 L 101.83660530716242,28.463394692813267 L 103.08712544405552,29.781167959333516 L 104.26696486254764,31.162582430556427 L 105.37288970480216,32.60385174543626 L 106.4018687076985,34.10102548496286 L 107.35108151131311,35.64999999998395 L 108.21792638933039,37.24652965902078 L 109.00002738019316,38.88623848525276 L 109.6952407994487,40.56463215076087 L 110.30166111543855,42.27711029517127 L 110.8176261722283,44.01897913492451 L 111.24172174546158,45.785464328605485 L 111.57278541865082,47.5717240630853 L 111.80990976927967,49.37286232459405 L 111.95244485598522,51.18394231835123 L 112.00000000000256,52.99999999998147 L 111.95244485598721,54.816057681611596 L 111.80990976928354,56.62713767536877 L 111.57278541865679,58.428275936877526 L 111.24172174546953,60.21453567135802 L 110.81762617223796,61.98102086503911 L 110.30166111545009,63.72288970479303 L 109.69524079946211,65.43536784920423 L 109.00002738020834,67.11376151471302 L 108.2179263893475,68.75347034094568 L 107.35108151133193,70.34999999998399 L 106.4018687077189,71.89897451500576 L 105.37288970482416,73.39614825453384 L 104.26696486257117,74.83741756941515 L 103.08712544408058,76.21883204063863 L 101.83660530718896,77.53660530715968 L 100.51883204066883,78.78712544405278 L 99.13741756944637,79.96696486254507 L 97.69614825456648,81.07288970479988 L 96.19897451503971,82.1018687076961 L 94.65000000001874,83.05108151131083 L 93.0534703409815,83.91792638932782 L 91.41376151474998,84.70002738019082 L 89.73536784924192,85.39524079944601 L 88.87475441579596,85.69999999999925 L 65.72524558420929,85.69999999999925 L 64.86463215079806,85.39524079945988 L 63.18623848528938,84.70002738020605 L 61.546529659056944,83.9179263893451 L 59.95000000001875,83.0510815113297 L 58.40102548499675,82.10186870771633 L 56.9038517454689,81.0728897048217 L 55.4625824305877,79.96696486256872 L 54.08116795936405,78.78712544407801 L 52.76339469284255,77.5366053071865 L 51.51287455594945,76.21883204066614 L 50.33303513745744,74.83741756944403 L 49.22711029520286,73.39614825456408 L 48.19813129230653,71.89897451503748 L 47.24891848869186,70.35000000001651 L 46.38207361067464,68.75347034097888 L 45.599972619811865,67.1137615147477 L 44.904759200556384,65.43536784923958 L 44.29833888456642,63.72288970482839 L 43.78237382777667,61.98102086507595 L 43.358278254543336,60.214535671394856 L 43.027214581354144,58.42827593691436 L 42.790090230725355,56.62713767540629 L 42.64755514401975,54.81605768164911 L 42.60000000000247,53.000000000018986 L 42.647555144017815,51.183942318388745 L 42.79009023072143,49.37286232463089 L 43.02721458134823,47.57172406312293 L 43.35827825453549,45.78546432864232 L 43.782373827766946,44.018979134960546 L 44.29833888455482,42.27711029520731 L 44.904759200542856,40.56463215079543 L 45.59997261979652,38.88623848528664 L 46.38207361065764,37.24652965905477 L 47.248918488673155,35.65000000001646 L 48.198131292286064,34.10102548499469 L 49.22711029518081,32.60385174546661 L 50.3330351374338,31.162582430585303 L 51.512874555924384,29.78116795936171 L 52.763394692816064,28.463394692839984 L 54.0811679593362,27.212874555946883 L 55.46258243055854,26.033035137454704 M 55.271555764801974,114.815463853903 L 55.481346652061745,114.30898384861791 L 55.81507575951741,113.874059608126 L 56.25000000000915,113.54033050067085 L 56.756480005293895,113.33053961341113 L 57.30000000000916,113.25898384861819 L 57.84351999472443,113.33053961341113 L 58.35000000000906,113.54033050067153 L 58.78492424050074,113.87405960812669 L 59.11865334795618,114.30898384861882 L 59.32844423521584,114.81546385390368 L 59.400000000008674,115.35898384861855 L 59.32844423521567,115.9025038433341 L 59.11865334795584,116.40898384861828 L 58.784924240500175,116.84390808911019 L 58.350000000008436,117.17763719656534 L 57.84351999472369,117.38742808382506 L 57.300000000008424,117.458983848618 L 56.75648000529321,117.38742808382506 L 56.25000000000853,117.17763719656534 L 55.8150757595169,116.8439080891095 L 55.481346652061404,116.40898384861828 L 55.2715557648018,115.90250384333342 L 55.20000000000891,115.35898384861787 L 55.271555764801974,114.815463853903 M 95.1999999999839,184.64101615138622 L 95.27155576477719,184.09749615667135 L 95.48134665203719,183.5910161513865 L 95.81507575949297,183.15609191089504 L 96.24999999998482,182.8223628034399 L 96.75648000526962,182.61257191618017 L 97.29999999998495,182.54101615138745 L 97.84351999470016,182.61257191618108 L 98.34999999998479,182.82236280344057 L 98.78492424047619,183.15609191089663 L 99.11865334793163,183.59101615138854 L 99.32844423519106,184.0974961566734 L 99.39999999998372,184.64101615138827 L 99.32844423519037,185.18453614610382 L 99.11865334793049,185.691016151388 L 98.78492424047465,186.12594039188014 L 98.3499999999828,186.4596694993353 L 97.84351999469794,186.669460386595 L 97.29999999998267,186.74101615138704 L 96.75648000526746,186.6694603865941 L 96.24999999998283,186.45966949933393 L 95.81507575949132,186.12594039187854 L 95.481346652036,185.69101615138663 L 95.27155576477656,185.18453614610178 L 95.1999999999839,184.64101615138622 M 25.155513279145964,53.32126380046191 L 25.20000000000215,54.00000000000648 L 25.155513279145964,54.67873619955026 L 25.022814296705405,55.34585903453933 L 24.804173569060822,55.98995384830471 L 24.5033320996813,56.60000000000662 L 24.44457794442087,56.687931807349855 L 24.12543736951659,57.16555943085143 L 23.676955262172214,57.67695526217665 L 23.165559430847566,58.12543736952068 L 23.0591833667101,58.19651558316332 L 22.600000000002183,58.50333209968517 L 21.98995384830056,58.804173569065256 L 21.345859034535238,59.0228142967095 L 20.678736199546393,59.15551327915034 L 20.00000000000216,59.20000000000675 L 19.32126380045787,59.15551327915034 L 18.654140965469026,59.0228142967095 L 18.010046151703648,58.804173569065256 L 17.400000000002194,58.50333209968517 L 16.83444056915681,58.12543736952068 L 16.323044737832106,57.67695526217665 L 15.87456263048773,57.16555943085143 L 15.496667900323075,56.60000000000662 L 15.195826430943441,55.98995384830471 L 14.977185703298971,55.34585903453933 L 14.844486720858356,54.67873619955026 L 14.800000000002171,54.00000000000648 L 14.844486720858356,53.32126380046191 L 14.977185703299028,52.65414096547295 L 15.195826430943498,52.01004615170825 L 15.496667900323018,51.400000000006344 L 15.87456263048773,50.83444056916085 L 16.323044737832106,50.3230447378362 L 16.83444056915681,49.874562630492164 L 17.400000000002137,49.49666790032711 L 18.01004615170376,49.19582643094759 L 18.654140965469026,48.97718570330346 L 19.321263800457928,48.84448672086262 L 20.00000000000216,48.80000000000621 L 20.678736199546393,48.84448672086262 L 21.345859034535238,48.97718570330346 L 21.989953848300615,49.19582643094759 L 22.600000000002183,49.49666790032711 L 22.90964376222348,49.70356524760871 L 23.165559430847566,49.874562630492164 L 23.676955262172214,50.3230447378362 L 24.12543736951659,50.83444056916085 L 24.34798550763378,51.16750739513748 L 24.5033320996813,51.400000000006344 L 24.80417356906088,52.01004615170825 L 25.02281429670535,52.65414096547295 L 25.155513279145964,53.32126380046191 M 25.20000000000215,148.99999999999193 L 25.155513279145964,149.67873619953696 L 25.02281429670535,150.34585903452523 L 24.804173569060822,150.9899538482906 L 24.503332099681245,151.59999999999297 L 24.34798550763378,151.8324926048623 L 24.12543736951659,152.1655594308387 L 23.676911245440294,152.7738056808713 L 23.16555943084751,153.12543736950408 L 22.90964376222354,153.2964347523913 L 22.600000000002183,153.50333209967096 L 21.989953848300615,153.8041735690514 L 21.345859034535238,154.0228142966938 L 20.678736199546393,154.15551327913556 L 20.00000000000216,154.19999999999106 L 19.321263800457928,154.1555132791358 L 18.654140965469026,154.02281429669517 L 18.010046151703705,153.80417356905184 L 17.400000000002194,153.5033320996721 L 16.83444056915681,153.12543736950386 L 16.323003562915062,152.7738056808713 L 15.87456263048773,152.1655594308353 L 15.496667900323075,151.59999999999138 L 15.195826430943498,150.98995384829016 L 14.977185703298971,150.345859034525 L 14.844486720858356,149.67873619953718 L 14.800000000002171,148.99999999999216 L 14.844486720858356,148.32126380044826 L 14.977185703298971,147.65414096545908 L 15.195826430943498,147.0100461516937 L 15.496667900323075,146.39999999999202 L 15.87456263048773,145.83444056914698 L 16.323044737832106,145.32304473782176 L 16.83444056915681,144.87456263047795 L 17.400000000002194,144.49666790031313 L 18.010046151703648,144.19582643093315 L 18.654140965469026,143.97718570328914 L 19.321263800457928,143.8444867208483 L 20.00000000000216,143.79999999999188 L 20.678736199546393,143.8444867208483 L 21.345859034535238,143.9771857032889 L 21.989953848300615,144.19582643093315 L 22.600000000002183,144.49666790031313 L 23.0591833667101,144.80348441683498 L 23.16555943084751,144.87456263047773 L 23.676955262172214,145.32304473782176 L 24.12543736951659,145.8344405691472 L 24.44457794442087,146.31206819264878 L 24.503332099681245,146.3999999999918 L 24.804173569060822,147.01004615169393 L 25.02281429670535,147.65414096545953 L 25.155513279145964,148.32126380044826 L 25.20000000000215,148.99999999999193 " />
</svg>
