<?xml version="1.0" encoding="UTF-8" standalone="no"?>
<svg
   width="25.37635947451622mm"
   height="163.5617345709494mm"
   viewBox="0 0 25.37635947451622 163.5617345709494"
   version="1.1"
   id="svg1"
   sodipodi:docname="Cooling Plate (0.25in x 2).svg"
   inkscape:version="1.4 (86a8ad7, 2024-10-11)"
   xmlns:inkscape="http://www.inkscape.org/namespaces/inkscape"
   xmlns:sodipodi="http://sodipodi.sourceforge.net/DTD/sodipodi-0.dtd"
   xmlns="http://www.w3.org/2000/svg"
   xmlns:svg="http://www.w3.org/2000/svg">
  <defs
     id="defs1" />
  <sodipodi:namedview
     id="namedview1"
     pagecolor="#ffffff"
     bordercolor="#000000"
     borderopacity="0.25"
     inkscape:showpageshadow="2"
     inkscape:pageopacity="0.0"
     inkscape:pagecheckerboard="0"
     inkscape:deskcolor="#d1d1d1"
     inkscape:document-units="mm"
     inkscape:zoom="3.1301254"
     inkscape:cx="47.921403"
     inkscape:cy="309.09305"
     inkscape:window-width="3840"
     inkscape:window-height="2137"
     inkscape:window-x="-8"
     inkscape:window-y="-8"
     inkscape:window-maximized="1"
     inkscape:current-layer="svg1" />
  <desc
     id="desc1">Output from Flights of Ideas SVG Sketchup Plugin</desc>
  <path
     id="face0-cut"
     style="fill:none;stroke:#000000;stroke-miterlimit:4;stroke-dasharray:none;stroke-linejoin:round;stroke-linecap:round;stroke-width:0.1"
     d="M 0.0,0.0 L 0.0,163.5617345709494 L 1.5847268314140592,163.09231709765567 L 3.287334784791369,162.4893919996251 L 4.956054711593879,161.79818557414356 L 6.586312766492938,161.0205923699723 L 8.173640525479072,160.15874371603644 L 9.713687233497467,159.21500187959165 L 11.202231729569576,158.1919535914105 L 12.635194016698847,157.0924029557394 L 14.008646444859892,155.9193637644446 L 15.31882447641567,154.67605123641104 L 16.562137004450165,153.36587320485586 L 17.735176195745566,151.99242077669535 L 18.834726831416106,150.55945848956551 L 19.857775119597477,149.07091399349468 L 20.80151695604411,147.53086728547564 L 21.663365609979905,145.94353952649124 L 22.440958814150918,144.3132814715918 L 23.13216523963513,142.64456154478987 L 23.7350903376647,140.94195359141193 L 24.248081532455103,139.21012434151294 L 24.66973275079863,137.4538206186896 L 24.998888276014895,135.67785632936418 L 25.234645915688475,133.88709926821153 L 25.37635947451622,132.08645777585875 L 25.37635947451622,31.47527679509068 L 25.234645915688475,29.674635302737897 L 24.998888276014895,27.88387824158525 L 24.66973275079863,26.10791395225982 L 24.248081532455103,24.351610229436517 L 23.7350903376647,22.619780979537495 L 23.13216523963513,20.91717302615956 L 22.440958814150918,19.24845309935762 L 21.663365609979905,17.61819504445816 L 20.80151695604411,16.03086728547379 L 19.857775119597477,14.490820577454713 L 18.834726831416106,13.002276081383911 L 17.735176195745566,11.569313794254072 L 16.562137004450165,10.195861366093538 L 15.31882447641567,8.885683334538385 L 14.008646444859892,7.642370806504857 L 12.635194016698847,6.469331615210024 L 11.202231729569576,5.369780979538916 L 9.713687233497467,4.346732691357772 L 8.173640525479072,3.4029908549129573 L 6.586312766492938,2.541142200977106 L 4.956054711593879,1.7635489968058664 L 3.287334784791369,1.0723425713243273 L 1.5847268314140592,0.4694174732937313 L 0.0,0.0 M 3.7236405254813008,18.280867285476177 L 3.7986037076452703,17.71146538625078 L 4.018384637155464,17.18086728547604 L 4.3680056068707245,16.725232366865896 L 4.82364052548121,16.375611397150294 L 5.354238626255665,16.155830467640158 L 5.9236405254812325,16.0808672854763 L 6.4930424247068,16.155830467640158 L 7.023640525481255,16.375611397150294 L 7.479275444091627,16.725232366865896 L 7.828896413807001,17.18086728547604 L 8.048677343317081,17.71146538625078 L 8.123640525481164,18.280867285476177 L 8.048677343317081,18.850269184701574 L 7.828896413807001,19.380867285476256 L 7.479275444091627,19.8365022040864 L 7.023640525481255,20.186123173802002 L 6.4930424247068,20.40590410331214 L 5.9236405254812325,20.480867285475995 L 5.354238626255665,20.40590410331214 L 4.82364052548121,20.186123173802002 L 4.3680056068707245,19.8365022040864 L 4.018384637155464,19.380867285476256 L 3.7986037076452703,18.850269184701574 L 3.7236405254813008,18.280867285476177 M 4.368005606875613,49.83650220408646 L 4.0183846371602385,49.38086728547631 L 3.798603707650159,48.850269184701574 L 3.7236405254860756,48.280867285476205 L 3.798603707650159,47.71146538625081 L 4.0183846371602385,47.18086728547607 L 4.368005606875613,46.725232366865924 L 4.823640525486098,46.37561139715032 L 5.35423862626044,46.155830467640186 L 5.923640525486121,46.08086728547633 L 6.493042424711689,46.155830467640186 L 7.023640525486144,46.37561139715032 L 7.4792754440965155,46.725232366865924 L 7.82889641381189,47.18086728547607 L 8.04867734332197,47.71146538625081 L 8.123640525486053,48.280867285476205 L 8.04867734332197,48.850269184701574 L 7.82889641381189,49.38086728547631 L 7.4792754440965155,49.83650220408646 L 7.023640525486144,50.18612317380206 L 6.493042424711689,50.405904103312196 L 5.923640525486121,50.48086728547605 L 5.35423862626044,50.405904103312196 L 4.823640525486098,50.18612317380206 L 4.368005606875613,49.83650220408646 M 4.0183846371602385,114.18086728547311 L 4.368005606875613,113.72523236686297 L 4.823640525486098,113.37561139714737 L 5.35423862626044,113.1558304676372 L 5.923640525486121,113.08086728547337 L 6.493042424711689,113.1558304676372 L 7.023640525486144,113.37561139714737 L 7.479275444096402,113.72523236686297 L 7.82889641381189,114.18086728547311 L 8.04867734332197,114.71146538624782 L 8.123640525486053,115.28086728547322 L 8.04867734332197,115.85026918469862 L 7.82889641381189,116.3808672854733 L 7.479275444096402,116.83650220408347 L 7.023640525486144,117.1861231737991 L 6.493042424711689,117.40590410330924 L 5.923640525486121,117.4808672854731 L 5.35423862626044,117.40590410330924 L 4.823640525486098,117.1861231737991 L 4.368005606875613,116.83650220408347 L 4.0183846371602385,116.38086728547333 L 3.798603707650159,115.85026918469862 L 3.7236405254860756,115.28086728547322 L 3.798603707650159,114.71146538624782 L 4.0183846371602385,114.18086728547311 M 3.7986037076452703,145.85026918469867 L 3.723640525481187,145.28086728547328 L 3.7986037076452703,144.71146538624788 L 4.018384637155464,144.18086728547314 L 4.3680056068707245,143.725232366863 L 4.82364052548121,143.3756113971474 L 5.354238626255665,143.15583046763726 L 5.9236405254812325,143.0808672854734 L 6.4930424247068,143.15583046763726 L 7.023640525481255,143.3756113971474 L 7.479275444091513,143.725232366863 L 7.828896413807001,144.18086728547314 L 8.048677343317081,144.71146538624788 L 8.123640525481164,145.28086728547328 L 8.048677343317081,145.85026918469865 L 7.828896413807001,146.38086728547339 L 7.479275444091513,146.83650220408353 L 7.023640525481255,147.18612317379913 L 6.4930424247068,147.40590410330927 L 5.9236405254812325,147.48086728547312 L 5.354238626255665,147.40590410330927 L 4.82364052548121,147.18612317379913 L 4.3680056068707245,146.83650220408353 L 4.018384637155464,146.38086728547339 L 3.7986037076452703,145.85026918469867 M 7.823640525464839,101.58086728547852 L 8.393042424690293,101.65583046764272 L 8.923640525464748,101.87561139715285 L 9.37927544407512,102.22523236686811 L 9.728896413790494,102.68086728547863 L 9.948677343300574,103.21146538625297 L 10.023640525464657,103.78086728547837 L 9.948677343300574,104.35026918470376 L 9.728896413790494,104.88086728547847 L 9.379275444075006,105.33650220408862 L 8.923640525464748,105.68612317380388 L 8.393042424690293,105.90590410331401 L 7.823640525464839,105.98086728547824 L 7.254238626239271,105.90590410331401 L 6.723640525464816,105.68612317380388 L 6.2680056068544445,105.33650220408862 L 5.91838463713907,104.88086728547813 L 5.69860370762899,104.35026918470379 L 5.623640525464907,103.78086728547837 L 5.69860370762899,103.21146538625297 L 5.91838463713907,102.68086728547826 L 6.2680056068544445,102.22523236686808 L 6.723640525464816,101.87561139715288 L 7.254238626239271,101.65583046764269 L 7.823640525464839,101.58086728547852 M 7.823640525464839,61.980867285478126 L 7.254238626239271,61.90590410331393 L 6.723640525464816,61.686123173803765 L 6.2680056068544445,61.33650220408853 L 5.91838463713907,60.88086728547802 L 5.69860370762899,60.35026918470365 L 5.623640525464907,59.78086728547828 L 5.69860370762899,59.21146538625288 L 5.91838463713907,58.68086728547817 L 6.2680056068544445,58.22523236686803 L 6.723640525464816,57.87561139715277 L 7.254238626239271,57.65583046764263 L 7.823640525464839,57.580867285478405 L 8.393042424690293,57.65583046764263 L 8.923640525464748,57.87561139715277 L 9.37927544407512,58.22523236686803 L 9.728896413790494,58.68086728547851 L 9.948677343300574,59.21146538625288 L 10.023640525464657,59.78086728547828 L 9.948677343300574,60.35026918470365 L 9.728896413790494,60.88086728547839 L 9.37927544407512,61.33650220408853 L 8.923640525464748,61.686123173803765 L 8.393042424690293,61.90590410331393 L 7.823640525464839,61.980867285478126 " />
</svg>
