<?xml version="1.0" encoding="UTF-8" standalone="no"?>
<svg
   width="10.0mm"
   height="8.300000000002399mm"
   viewBox="0 0 10.0 8.300000000002399"
   version="1.1"
   id="svg1"
   sodipodi:docname="Protoboard Tray, B (3mm x 4).svg"
   inkscape:version="1.3 (0e150ed6c4, 2023-07-21)"
   xmlns:inkscape="http://www.inkscape.org/namespaces/inkscape"
   xmlns:sodipodi="http://sodipodi.sourceforge.net/DTD/sodipodi-0.dtd"
   xmlns="http://www.w3.org/2000/svg"
   xmlns:svg="http://www.w3.org/2000/svg">
  <defs
     id="defs1" />
  <sodipodi:namedview
     id="namedview1"
     pagecolor="#ffffff"
     bordercolor="#000000"
     borderopacity="0.25"
     inkscape:showpageshadow="2"
     inkscape:pageopacity="0.0"
     inkscape:pagecheckerboard="0"
     inkscape:deskcolor="#d1d1d1"
     inkscape:document-units="mm"
     inkscape:zoom="61.874246"
     inkscape:cx="18.89316"
     inkscape:cy="15.68504"
     inkscape:window-width="3840"
     inkscape:window-height="2137"
     inkscape:window-x="-8"
     inkscape:window-y="-8"
     inkscape:window-maximized="1"
     inkscape:current-layer="svg1" />
  <desc
     id="desc1">Output from Flights of Ideas SVG Sketchup Plugin</desc>
  <path
     id="face0-cut"
     style="fill:none;stroke:#000000;stroke-miterlimit:4;stroke-dasharray:none;stroke-linejoin:round;stroke-linecap:round;stroke-width:0.1"
     d="M 9.999999999979082,8.300000000002399 L 10.0,4.999999999999545 L 9.95722430686908,4.347369038900183 L 9.829629131445358,3.705904774487067 L 9.619397662556366,3.086582838174593 L 9.330127018922212,2.5000000000001137 L 8.966766701456208,1.9561928549561571 L 8.535533905932766,1.4644660940671201 L 8.043807145043615,1.0332332985433936 L 7.5,0.6698729810772761 L 6.913417161825464,0.3806023374440315 L 6.294095225512592,0.17037086855464167 L 5.652630961100272,0.04277569313120466 L 5.0,0.0 L 4.347369038899842,0.04277569313120466 L 3.7059047744875215,0.17037086855464167 L 3.0865828381746496,0.3806023374440315 L 2.5000000000001137,0.6698729810772761 L 1.9561928549564982,1.0332332985433936 L 1.4644660940673475,1.4644660940671201 L 1.0332332985439052,1.9561928549561571 L 0.6698729810779014,2.5000000000001137 L 0.3806023374436336,3.086582838174593 L 0.17037086855475536,3.705904774487067 L 0.04277569313103413,4.347369038900183 L 0.0,4.999999999999545 L 0.0,8.300000000002399 L 9.999999999979082,8.300000000002399 M 5.569401899225568,7.125036817835962 L 5.0,7.199999999999761 L 4.430598100774432,7.125036817835962 L 3.8999999999999773,6.905255888325428 L 3.4443650813896056,6.555634918610167 L 3.094744111674231,6.100000000000023 L 2.874963182164038,5.5694018992253405 L 2.7999999999999545,4.999999999999545 L 2.874963182164038,4.430598100774546 L 3.094744111674231,3.8999999999998067 L 3.4443650813896056,3.4443650813896625 L 3.8999999999999773,3.0947441116737195 L 4.430598100774432,2.874963182163924 L 5.0,2.800000000000068 L 5.569401899225568,2.874963182163924 L 6.100000000000023,3.0947441116737195 L 6.555634918610508,3.4443650813896625 L 6.9052558883258826,3.8999999999998067 L 7.125036817836076,4.430598100774546 L 7.2000000000000455,4.999999999999545 L 7.125036817836076,5.5694018992253405 L 6.9052558883258826,6.100000000000023 L 6.555634918610508,6.555634918610167 L 6.100000000000023,6.905255888325428 L 5.569401899225568,7.125036817835962 " />
</svg>
