  0
SECTION
  2
HEADER
  9
$ACADVER
  1
AC1009
  0
ENDSEC
  0
SECTION
  2
ENTITIES
  0
POLYLINE
  5
90
  8
Layer_0
  62
0
  66
1
  10
0
  20
0
  30
0
  0
VERTEX
  5
90
  8
Layer_0
  10
300.61896
  20
205.79817
  0
VERTEX
  5
91
  8
Layer_0
  10
299.276
  20
205.79817
  0
VERTEX
  5
92
  8
Layer_0
  10
299.00311
  20
205.44254
  0
VERTEX
  5
93
  8
Layer_0
  10
298.54749
  20
205.09291
  0
VERTEX
  5
94
  8
Layer_0
  10
298.01688
  20
204.87314
  0
VERTEX
  5
95
  8
Layer_0
  10
297.44748
  20
204.79817
  0
VERTEX
  5
96
  8
Layer_0
  10
296.87808
  20
204.87314
  0
VERTEX
  5
97
  8
Layer_0
  10
296.34747
  20
205.09291
  0
VERTEX
  5
98
  8
Layer_0
  10
295.89185
  20
205.44254
  0
VERTEX
  5
99
  8
Layer_0
  10
295.61896
  20
205.79817
  0
VERTEX
  5
9a
  8
Layer_0
  10
294.276
  20
205.79817
  0
VERTEX
  5
9b
  8
Layer_0
  10
294.00311
  20
205.44254
  0
VERTEX
  5
9c
  8
Layer_0
  10
293.54749
  20
205.09291
  0
VERTEX
  5
9d
  8
Layer_0
  10
293.01688
  20
204.87314
  0
VERTEX
  5
9e
  8
Layer_0
  10
292.44748
  20
204.79817
  0
VERTEX
  5
9f
  8
Layer_0
  10
291.87808
  20
204.87314
  0
VERTEX
  5
a0
  8
Layer_0
  10
291.34747
  20
205.09291
  0
VERTEX
  5
a1
  8
Layer_0
  10
290.89185
  20
205.44254
  0
VERTEX
  5
a2
  8
Layer_0
  10
290.61896
  20
205.79817
  0
VERTEX
  5
a3
  8
Layer_0
  10
289.44748
  20
205.79817
  0
VERTEX
  5
a4
  8
Layer_0
  10
288.92984
  20
205.73003
  0
VERTEX
  5
a5
  8
Layer_0
  10
288.44748
  20
205.53021
  0
VERTEX
  5
a6
  8
Layer_0
  10
288.03326
  20
205.21239
  0
VERTEX
  5
a7
  8
Layer_0
  10
287.71542
  20
204.79817
  0
VERTEX
  5
a8
  8
Layer_0
  10
287.51563
  20
204.31581
  0
VERTEX
  5
a9
  8
Layer_0
  10
287.44748
  20
203.79817
  0
VERTEX
  5
aa
  8
Layer_0
  10
287.44748
  20
196.22141
  0
VERTEX
  5
ab
  8
Layer_0
  10
287.49115
  20
195.59616
  0
VERTEX
  5
ac
  8
Layer_0
  10
287.62137
  20
194.98308
  0
VERTEX
  5
ad
  8
Layer_0
  10
287.83557
  20
194.39404
  0
VERTEX
  5
ae
  8
Layer_0
  10
288.12961
  20
193.84052
  0
VERTEX
  5
af
  8
Layer_0
  10
288.49774
  20
193.33327
  0
VERTEX
  5
b0
  8
Layer_0
  10
288.93286
  20
192.88214
  0
VERTEX
  5
b1
  8
Layer_0
  10
305.40369
  20
178.0314
  0
VERTEX
  5
b2
  8
Layer_0
  10
305.94748
  20
177.66805
  0
VERTEX
  5
b3
  8
Layer_0
  10
306.53406
  20
177.37877
  0
VERTEX
  5
b4
  8
Layer_0
  10
307.15338
  20
177.16855
  0
VERTEX
  5
b5
  8
Layer_0
  10
307.79486
  20
177.04094
  0
VERTEX
  5
b6
  8
Layer_0
  10
308.44748
  20
176.99817
  0
VERTEX
  5
b7
  8
Layer_0
  10
310.44748
  20
176.99817
  0
VERTEX
  5
b8
  8
Layer_0
  10
311.1001
  20
177.04094
  0
VERTEX
  5
b9
  8
Layer_0
  10
311.74158
  20
177.16855
  0
VERTEX
  5
ba
  8
Layer_0
  10
312.3609
  20
177.37877
  0
VERTEX
  5
bb
  8
Layer_0
  10
312.94748
  20
177.66805
  0
VERTEX
  5
bc
  8
Layer_0
  10
313.49127
  20
178.0314
  0
VERTEX
  5
bd
  8
Layer_0
  10
313.983
  20
178.46263
  0
VERTEX
  5
be
  8
Layer_0
  10
314.41425
  20
178.95436
  0
VERTEX
  5
bf
  8
Layer_0
  10
314.77762
  20
179.49817
  0
VERTEX
  5
c0
  8
Layer_0
  10
315.06686
  20
180.08475
  0
VERTEX
  5
c1
  8
Layer_0
  10
315.2771
  20
180.70407
  0
VERTEX
  5
c2
  8
Layer_0
  10
315.40469
  20
181.34554
  0
VERTEX
  5
c3
  8
Layer_0
  10
315.44748
  20
181.99817
  0
VERTEX
  5
c4
  8
Layer_0
  10
315.44748
  20
231.99817
  0
VERTEX
  5
c5
  8
Layer_0
  10
315.40469
  20
232.6508
  0
VERTEX
  5
c6
  8
Layer_0
  10
315.2771
  20
233.29227
  0
VERTEX
  5
c7
  8
Layer_0
  10
315.06686
  20
233.91159
  0
VERTEX
  5
c8
  8
Layer_0
  10
314.77762
  20
234.49817
  0
VERTEX
  5
c9
  8
Layer_0
  10
314.41425
  20
235.04198
  0
VERTEX
  5
ca
  8
Layer_0
  10
313.983
  20
235.53371
  0
VERTEX
  5
cb
  8
Layer_0
  10
313.49127
  20
235.96494
  0
VERTEX
  5
cc
  8
Layer_0
  10
312.94748
  20
236.32829
  0
VERTEX
  5
cd
  8
Layer_0
  10
312.3609
  20
236.61757
  0
VERTEX
  5
ce
  8
Layer_0
  10
311.74158
  20
236.8278
  0
VERTEX
  5
cf
  8
Layer_0
  10
311.1001
  20
236.9554
  0
VERTEX
  5
d0
  8
Layer_0
  10
310.44748
  20
236.99817
  0
VERTEX
  5
d1
  8
Layer_0
  10
308.44748
  20
236.99817
  0
VERTEX
  5
d2
  8
Layer_0
  10
307.79486
  20
236.9554
  0
VERTEX
  5
d3
  8
Layer_0
  10
307.15338
  20
236.8278
  0
VERTEX
  5
d4
  8
Layer_0
  10
306.53406
  20
236.61757
  0
VERTEX
  5
d5
  8
Layer_0
  10
305.94748
  20
236.32829
  0
VERTEX
  5
d6
  8
Layer_0
  10
305.40369
  20
235.96494
  0
VERTEX
  5
d7
  8
Layer_0
  10
288.93286
  20
221.1142
  0
VERTEX
  5
d8
  8
Layer_0
  10
288.49774
  20
220.66307
  0
VERTEX
  5
d9
  8
Layer_0
  10
288.12961
  20
220.15582
  0
VERTEX
  5
da
  8
Layer_0
  10
287.83557
  20
219.60229
  0
VERTEX
  5
db
  8
Layer_0
  10
287.62137
  20
219.01326
  0
VERTEX
  5
dc
  8
Layer_0
  10
287.49115
  20
218.40018
  0
VERTEX
  5
dd
  8
Layer_0
  10
287.44748
  20
217.77493
  0
VERTEX
  5
de
  8
Layer_0
  10
287.44748
  20
210.19817
  0
VERTEX
  5
df
  8
Layer_0
  10
287.51563
  20
209.68053
  0
VERTEX
  5
e0
  8
Layer_0
  10
287.71542
  20
209.19817
  0
VERTEX
  5
e1
  8
Layer_0
  10
288.03326
  20
208.78395
  0
VERTEX
  5
e2
  8
Layer_0
  10
288.44748
  20
208.46613
  0
VERTEX
  5
e3
  8
Layer_0
  10
288.92984
  20
208.26631
  0
VERTEX
  5
e4
  8
Layer_0
  10
289.44748
  20
208.19817
  0
VERTEX
  5
e5
  8
Layer_0
  10
290.61896
  20
208.19817
  0
VERTEX
  5
e6
  8
Layer_0
  10
290.89185
  20
208.5538
  0
VERTEX
  5
e7
  8
Layer_0
  10
291.34747
  20
208.90343
  0
VERTEX
  5
e8
  8
Layer_0
  10
291.87808
  20
209.1232
  0
VERTEX
  5
e9
  8
Layer_0
  10
292.44748
  20
209.19817
  0
VERTEX
  5
ea
  8
Layer_0
  10
293.01688
  20
209.1232
  0
VERTEX
  5
eb
  8
Layer_0
  10
293.54749
  20
208.90343
  0
VERTEX
  5
ec
  8
Layer_0
  10
294.00311
  20
208.5538
  0
VERTEX
  5
ed
  8
Layer_0
  10
294.276
  20
208.19817
  0
VERTEX
  5
ee
  8
Layer_0
  10
295.61896
  20
208.19817
  0
VERTEX
  5
ef
  8
Layer_0
  10
295.89185
  20
208.5538
  0
VERTEX
  5
f0
  8
Layer_0
  10
296.34747
  20
208.90343
  0
VERTEX
  5
f1
  8
Layer_0
  10
296.87808
  20
209.1232
  0
VERTEX
  5
f2
  8
Layer_0
  10
297.44748
  20
209.19817
  0
VERTEX
  5
f3
  8
Layer_0
  10
298.01688
  20
209.1232
  0
VERTEX
  5
f4
  8
Layer_0
  10
298.54749
  20
208.90343
  0
VERTEX
  5
f5
  8
Layer_0
  10
299.00311
  20
208.5538
  0
VERTEX
  5
f6
  8
Layer_0
  10
299.276
  20
208.19817
  0
VERTEX
  5
f7
  8
Layer_0
  10
300.61896
  20
208.19817
  0
VERTEX
  5
f8
  8
Layer_0
  10
300.89185
  20
208.5538
  0
VERTEX
  5
f9
  8
Layer_0
  10
301.34747
  20
208.90343
  0
VERTEX
  5
fa
  8
Layer_0
  10
301.87808
  20
209.1232
  0
VERTEX
  5
fb
  8
Layer_0
  10
302.44748
  20
209.19817
  0
VERTEX
  5
fc
  8
Layer_0
  10
303.01688
  20
209.1232
  0
VERTEX
  5
fd
  8
Layer_0
  10
303.54749
  20
208.90343
  0
VERTEX
  5
fe
  8
Layer_0
  10
304.00311
  20
208.5538
  0
VERTEX
  5
ff
  8
Layer_0
  10
304.276
  20
208.19817
  0
VERTEX
  5
100
  8
Layer_0
  10
305.44748
  20
208.19817
  0
VERTEX
  5
101
  8
Layer_0
  10
305.44748
  20
205.79817
  0
VERTEX
  5
102
  8
Layer_0
  10
304.276
  20
205.79817
  0
VERTEX
  5
103
  8
Layer_0
  10
304.00311
  20
205.44254
  0
VERTEX
  5
104
  8
Layer_0
  10
303.54749
  20
205.09291
  0
VERTEX
  5
105
  8
Layer_0
  10
303.01688
  20
204.87314
  0
VERTEX
  5
106
  8
Layer_0
  10
302.44748
  20
204.79817
  0
VERTEX
  5
107
  8
Layer_0
  10
301.87808
  20
204.87314
  0
VERTEX
  5
108
  8
Layer_0
  10
301.34747
  20
205.09291
  0
VERTEX
  5
109
  8
Layer_0
  10
300.89185
  20
205.44254
  0
VERTEX
  5
10a
  8
Layer_0
  10
300.61896
  20
205.79817
  0
SEQEND
  0
POLYLINE
  5
10c
  8
Layer_0
  62
0
  66
1
  10
0
  20
0
  30
0
  0
VERTEX
  5
10c
  8
Layer_0
  10
307.44748
  20
181.99817
  0
VERTEX
  5
10d
  8
Layer_0
  10
307.44748
  20
231.99817
  0
VERTEX
  5
10e
  8
Layer_0
  10
307.48157
  20
232.25699
  0
VERTEX
  5
10f
  8
Layer_0
  10
307.58145
  20
232.49817
  0
VERTEX
  5
110
  8
Layer_0
  10
307.74036
  20
232.70528
  0
VERTEX
  5
111
  8
Layer_0
  10
307.94748
  20
232.8642
  0
VERTEX
  5
112
  8
Layer_0
  10
308.18866
  20
232.9641
  0
VERTEX
  5
113
  8
Layer_0
  10
308.44748
  20
232.99817
  0
VERTEX
  5
114
  8
Layer_0
  10
310.44748
  20
232.99817
  0
VERTEX
  5
115
  8
Layer_0
  10
310.7063
  20
232.9641
  0
VERTEX
  5
116
  8
Layer_0
  10
310.94748
  20
232.8642
  0
VERTEX
  5
117
  8
Layer_0
  10
311.1546
  20
232.70528
  0
VERTEX
  5
118
  8
Layer_0
  10
311.31351
  20
232.49817
  0
VERTEX
  5
119
  8
Layer_0
  10
311.41339
  20
232.25699
  0
VERTEX
  5
11a
  8
Layer_0
  10
311.44748
  20
231.99817
  0
VERTEX
  5
11b
  8
Layer_0
  10
311.44748
  20
181.99817
  0
VERTEX
  5
11c
  8
Layer_0
  10
311.41339
  20
181.73935
  0
VERTEX
  5
11d
  8
Layer_0
  10
311.31351
  20
181.49817
  0
VERTEX
  5
11e
  8
Layer_0
  10
311.1546
  20
181.29106
  0
VERTEX
  5
11f
  8
Layer_0
  10
310.94748
  20
181.13214
  0
VERTEX
  5
120
  8
Layer_0
  10
310.7063
  20
181.03224
  0
VERTEX
  5
121
  8
Layer_0
  10
310.44748
  20
180.99817
  0
VERTEX
  5
122
  8
Layer_0
  10
308.44748
  20
180.99817
  0
VERTEX
  5
123
  8
Layer_0
  10
308.18866
  20
181.03224
  0
VERTEX
  5
124
  8
Layer_0
  10
307.94748
  20
181.13214
  0
VERTEX
  5
125
  8
Layer_0
  10
307.74036
  20
181.29106
  0
VERTEX
  5
126
  8
Layer_0
  10
307.58145
  20
181.49817
  0
VERTEX
  5
127
  8
Layer_0
  10
307.48157
  20
181.73935
  0
VERTEX
  5
128
  8
Layer_0
  10
307.44748
  20
181.99817
  0
SEQEND
  0
ENDSEC
  0
EOF
