  0
SECTION
  2
HEADER
  9
$ACADVER
  1
AC1009
  0
ENDSEC
  0
SECTION
  2
ENTITIES
  0
POLYLINE
  5
90
  8
Layer_0
  62
0
  66
1
  10
0
  20
0
  30
0
  0
VERTEX
  5
90
  8
Layer_0
  10
351.0766
  20
196.80112
  0
VERTEX
  5
91
  8
Layer_0
  10
367.54742
  20
181.95038
  0
VERTEX
  5
92
  8
Layer_0
  10
368.09122
  20
181.58702
  0
VERTEX
  5
93
  8
Layer_0
  10
368.6778
  20
181.29774
  0
VERTEX
  5
94
  8
Layer_0
  10
369.29712
  20
181.08752
  0
VERTEX
  5
95
  8
Layer_0
  10
369.9386
  20
180.95992
  0
VERTEX
  5
96
  8
Layer_0
  10
370.59122
  20
180.91714
  0
VERTEX
  5
97
  8
Layer_0
  10
372.59122
  20
180.91714
  0
VERTEX
  5
98
  8
Layer_0
  10
373.24384
  20
180.95992
  0
VERTEX
  5
99
  8
Layer_0
  10
373.88531
  20
181.08752
  0
VERTEX
  5
9a
  8
Layer_0
  10
374.50464
  20
181.29774
  0
VERTEX
  5
9b
  8
Layer_0
  10
375.09122
  20
181.58702
  0
VERTEX
  5
9c
  8
Layer_0
  10
375.63501
  20
181.95038
  0
VERTEX
  5
9d
  8
Layer_0
  10
376.12674
  20
182.38161
  0
VERTEX
  5
9e
  8
Layer_0
  10
376.55798
  20
182.87334
  0
VERTEX
  5
9f
  8
Layer_0
  10
376.92136
  20
183.41714
  0
VERTEX
  5
a0
  8
Layer_0
  10
377.2106
  20
184.00372
  0
VERTEX
  5
a1
  8
Layer_0
  10
377.42084
  20
184.62305
  0
VERTEX
  5
a2
  8
Layer_0
  10
377.54843
  20
185.26451
  0
VERTEX
  5
a3
  8
Layer_0
  10
377.59122
  20
185.91714
  0
VERTEX
  5
a4
  8
Layer_0
  10
377.59122
  20
235.91714
  0
VERTEX
  5
a5
  8
Layer_0
  10
377.54843
  20
236.56978
  0
VERTEX
  5
a6
  8
Layer_0
  10
377.42084
  20
237.21124
  0
VERTEX
  5
a7
  8
Layer_0
  10
377.2106
  20
237.83057
  0
VERTEX
  5
a8
  8
Layer_0
  10
376.92136
  20
238.41714
  0
VERTEX
  5
a9
  8
Layer_0
  10
376.55798
  20
238.96095
  0
VERTEX
  5
aa
  8
Layer_0
  10
376.12674
  20
239.45268
  0
VERTEX
  5
ab
  8
Layer_0
  10
375.63501
  20
239.88391
  0
VERTEX
  5
ac
  8
Layer_0
  10
375.09122
  20
240.24727
  0
VERTEX
  5
ad
  8
Layer_0
  10
374.50464
  20
240.53654
  0
VERTEX
  5
ae
  8
Layer_0
  10
373.88531
  20
240.74678
  0
VERTEX
  5
af
  8
Layer_0
  10
373.24384
  20
240.87437
  0
VERTEX
  5
b0
  8
Layer_0
  10
372.59122
  20
240.91714
  0
VERTEX
  5
b1
  8
Layer_0
  10
370.59122
  20
240.91714
  0
VERTEX
  5
b2
  8
Layer_0
  10
369.9386
  20
240.87437
  0
VERTEX
  5
b3
  8
Layer_0
  10
369.29712
  20
240.74678
  0
VERTEX
  5
b4
  8
Layer_0
  10
368.6778
  20
240.53654
  0
VERTEX
  5
b5
  8
Layer_0
  10
368.09122
  20
240.24727
  0
VERTEX
  5
b6
  8
Layer_0
  10
367.54742
  20
239.88391
  0
VERTEX
  5
b7
  8
Layer_0
  10
351.0766
  20
225.03317
  0
VERTEX
  5
b8
  8
Layer_0
  10
350.64148
  20
224.58205
  0
VERTEX
  5
b9
  8
Layer_0
  10
350.27335
  20
224.0748
  0
VERTEX
  5
ba
  8
Layer_0
  10
349.97931
  20
223.52127
  0
VERTEX
  5
bb
  8
Layer_0
  10
349.76511
  20
222.93224
  0
VERTEX
  5
bc
  8
Layer_0
  10
349.63489
  20
222.31915
  0
VERTEX
  5
bd
  8
Layer_0
  10
349.59122
  20
221.69391
  0
VERTEX
  5
be
  8
Layer_0
  10
349.59122
  20
200.14038
  0
VERTEX
  5
bf
  8
Layer_0
  10
349.63489
  20
199.51514
  0
VERTEX
  5
c0
  8
Layer_0
  10
349.76511
  20
198.90205
  0
VERTEX
  5
c1
  8
Layer_0
  10
349.97931
  20
198.31302
  0
VERTEX
  5
c2
  8
Layer_0
  10
350.27335
  20
197.75949
  0
VERTEX
  5
c3
  8
Layer_0
  10
350.64148
  20
197.25224
  0
VERTEX
  5
c4
  8
Layer_0
  10
351.0766
  20
196.80112
  0
SEQEND
  0
POLYLINE
  5
c6
  8
Layer_0
  62
0
  66
1
  10
0
  20
0
  30
0
  0
VERTEX
  5
c6
  8
Layer_0
  10
373.59122
  20
235.91714
  0
VERTEX
  5
c7
  8
Layer_0
  10
373.59122
  20
185.91714
  0
VERTEX
  5
c8
  8
Layer_0
  10
373.55713
  20
185.65833
  0
VERTEX
  5
c9
  8
Layer_0
  10
373.45724
  20
185.41714
  0
VERTEX
  5
ca
  8
Layer_0
  10
373.29834
  20
185.21004
  0
VERTEX
  5
cb
  8
Layer_0
  10
373.09122
  20
185.05112
  0
VERTEX
  5
cc
  8
Layer_0
  10
372.85004
  20
184.95122
  0
VERTEX
  5
cd
  8
Layer_0
  10
372.59122
  20
184.91714
  0
VERTEX
  5
ce
  8
Layer_0
  10
370.59122
  20
184.91714
  0
VERTEX
  5
cf
  8
Layer_0
  10
370.3324
  20
184.95122
  0
VERTEX
  5
d0
  8
Layer_0
  10
370.09122
  20
185.05112
  0
VERTEX
  5
d1
  8
Layer_0
  10
369.88409
  20
185.21004
  0
VERTEX
  5
d2
  8
Layer_0
  10
369.72519
  20
185.41714
  0
VERTEX
  5
d3
  8
Layer_0
  10
369.62531
  20
185.65833
  0
VERTEX
  5
d4
  8
Layer_0
  10
369.59122
  20
185.91714
  0
VERTEX
  5
d5
  8
Layer_0
  10
369.59122
  20
235.91714
  0
VERTEX
  5
d6
  8
Layer_0
  10
369.62531
  20
236.17596
  0
VERTEX
  5
d7
  8
Layer_0
  10
369.72519
  20
236.41714
  0
VERTEX
  5
d8
  8
Layer_0
  10
369.88409
  20
236.62425
  0
VERTEX
  5
d9
  8
Layer_0
  10
370.09122
  20
236.78317
  0
VERTEX
  5
da
  8
Layer_0
  10
370.3324
  20
236.88307
  0
VERTEX
  5
db
  8
Layer_0
  10
370.59122
  20
236.91714
  0
VERTEX
  5
dc
  8
Layer_0
  10
372.59122
  20
236.91714
  0
VERTEX
  5
dd
  8
Layer_0
  10
372.85004
  20
236.88307
  0
VERTEX
  5
de
  8
Layer_0
  10
373.09122
  20
236.78317
  0
VERTEX
  5
df
  8
Layer_0
  10
373.29834
  20
236.62425
  0
VERTEX
  5
e0
  8
Layer_0
  10
373.45724
  20
236.41714
  0
VERTEX
  5
e1
  8
Layer_0
  10
373.55713
  20
236.17596
  0
VERTEX
  5
e2
  8
Layer_0
  10
373.59122
  20
235.91714
  0
SEQEND
  0
POLYLINE
  5
e4
  8
Layer_0
  62
0
  66
1
  10
0
  20
0
  30
0
  0
VERTEX
  5
e4
  8
Layer_0
  10
366.15005
  20
210.01715
  0
VERTEX
  5
e5
  8
Layer_0
  10
365.86401
  20
209.64435
  0
VERTEX
  5
e6
  8
Layer_0
  10
365.49121
  20
209.35831
  0
VERTEX
  5
e7
  8
Layer_0
  10
365.0571
  20
209.17848
  0
VERTEX
  5
e8
  8
Layer_0
  10
364.59122
  20
209.11714
  0
VERTEX
  5
e9
  8
Layer_0
  10
364.12534
  20
209.17848
  0
VERTEX
  5
ea
  8
Layer_0
  10
363.69122
  20
209.35831
  0
VERTEX
  5
eb
  8
Layer_0
  10
363.31842
  20
209.64435
  0
VERTEX
  5
ec
  8
Layer_0
  10
363.03238
  20
210.01715
  0
VERTEX
  5
ed
  8
Layer_0
  10
362.85254
  20
210.45126
  0
VERTEX
  5
ee
  8
Layer_0
  10
362.79123
  20
210.91714
  0
VERTEX
  5
ef
  8
Layer_0
  10
362.85254
  20
211.38303
  0
VERTEX
  5
f0
  8
Layer_0
  10
363.03238
  20
211.81714
  0
VERTEX
  5
f1
  8
Layer_0
  10
363.31842
  20
212.18994
  0
VERTEX
  5
f2
  8
Layer_0
  10
363.69122
  20
212.47598
  0
VERTEX
  5
f3
  8
Layer_0
  10
364.12534
  20
212.65581
  0
VERTEX
  5
f4
  8
Layer_0
  10
364.59122
  20
212.71715
  0
VERTEX
  5
f5
  8
Layer_0
  10
365.0571
  20
212.65581
  0
VERTEX
  5
f6
  8
Layer_0
  10
365.49121
  20
212.47598
  0
VERTEX
  5
f7
  8
Layer_0
  10
365.86401
  20
212.18994
  0
VERTEX
  5
f8
  8
Layer_0
  10
366.15005
  20
211.81714
  0
VERTEX
  5
f9
  8
Layer_0
  10
366.3299
  20
211.38303
  0
VERTEX
  5
fa
  8
Layer_0
  10
366.3912
  20
210.91714
  0
VERTEX
  5
fb
  8
Layer_0
  10
366.3299
  20
210.45126
  0
VERTEX
  5
fc
  8
Layer_0
  10
366.15005
  20
210.01715
  0
SEQEND
  0
POLYLINE
  5
fe
  8
Layer_0
  62
0
  66
1
  10
0
  20
0
  30
0
  0
VERTEX
  5
fe
  8
Layer_0
  10
356.15005
  20
210.01715
  0
VERTEX
  5
ff
  8
Layer_0
  10
355.86401
  20
209.64435
  0
VERTEX
  5
100
  8
Layer_0
  10
355.49121
  20
209.35831
  0
VERTEX
  5
101
  8
Layer_0
  10
355.0571
  20
209.17848
  0
VERTEX
  5
102
  8
Layer_0
  10
354.59122
  20
209.11714
  0
VERTEX
  5
103
  8
Layer_0
  10
354.12534
  20
209.17848
  0
VERTEX
  5
104
  8
Layer_0
  10
353.69122
  20
209.35831
  0
VERTEX
  5
105
  8
Layer_0
  10
353.31842
  20
209.64435
  0
VERTEX
  5
106
  8
Layer_0
  10
353.03238
  20
210.01715
  0
VERTEX
  5
107
  8
Layer_0
  10
352.85254
  20
210.45126
  0
VERTEX
  5
108
  8
Layer_0
  10
352.79123
  20
210.91714
  0
VERTEX
  5
109
  8
Layer_0
  10
352.85254
  20
211.38303
  0
VERTEX
  5
10a
  8
Layer_0
  10
353.03238
  20
211.81714
  0
VERTEX
  5
10b
  8
Layer_0
  10
353.31842
  20
212.18994
  0
VERTEX
  5
10c
  8
Layer_0
  10
353.69122
  20
212.47598
  0
VERTEX
  5
10d
  8
Layer_0
  10
354.12534
  20
212.65581
  0
VERTEX
  5
10e
  8
Layer_0
  10
354.59122
  20
212.71715
  0
VERTEX
  5
10f
  8
Layer_0
  10
355.0571
  20
212.65581
  0
VERTEX
  5
110
  8
Layer_0
  10
355.49121
  20
212.47598
  0
VERTEX
  5
111
  8
Layer_0
  10
355.86401
  20
212.18994
  0
VERTEX
  5
112
  8
Layer_0
  10
356.15005
  20
211.81714
  0
VERTEX
  5
113
  8
Layer_0
  10
356.3299
  20
211.38303
  0
VERTEX
  5
114
  8
Layer_0
  10
356.3912
  20
210.91714
  0
VERTEX
  5
115
  8
Layer_0
  10
356.3299
  20
210.45126
  0
VERTEX
  5
116
  8
Layer_0
  10
356.15005
  20
210.01715
  0
SEQEND
  0
ENDSEC
  0
EOF
