  0
SECTION
  2
HEADER
  9
$ACADVER
  1
AC1009
  0
ENDSEC
  0
SECTION
  2
ENTITIES
  0
POLYLINE
  5
90
  8
Layer_0
  62
0
  66
1
  10
0
  20
0
  30
0
  0
VERTEX
  5
90
  8
Layer_0
  10
309.32544
  20
248.07239
  0
VERTEX
  5
91
  8
Layer_0
  10
309.28177
  20
247.44714
  0
VERTEX
  5
92
  8
Layer_0
  10
309.28177
  20
225.89365
  0
VERTEX
  5
93
  8
Layer_0
  10
309.32544
  20
225.2684
  0
VERTEX
  5
94
  8
Layer_0
  10
309.45566
  20
224.6553
  0
VERTEX
  5
95
  8
Layer_0
  10
309.66986
  20
224.06627
  0
VERTEX
  5
96
  8
Layer_0
  10
309.9639
  20
223.51276
  0
VERTEX
  5
97
  8
Layer_0
  10
310.33203
  20
223.00549
  0
VERTEX
  5
98
  8
Layer_0
  10
310.76715
  20
222.55437
  0
VERTEX
  5
99
  8
Layer_0
  10
327.23798
  20
207.70363
  0
VERTEX
  5
9a
  8
Layer_0
  10
327.78177
  20
207.34027
  0
VERTEX
  5
9b
  8
Layer_0
  10
328.36835
  20
207.05099
  0
VERTEX
  5
9c
  8
Layer_0
  10
328.98767
  20
206.84076
  0
VERTEX
  5
9d
  8
Layer_0
  10
329.62915
  20
206.71317
  0
VERTEX
  5
9e
  8
Layer_0
  10
330.28177
  20
206.67039
  0
VERTEX
  5
9f
  8
Layer_0
  10
332.28177
  20
206.67039
  0
VERTEX
  5
a0
  8
Layer_0
  10
332.93439
  20
206.71317
  0
VERTEX
  5
a1
  8
Layer_0
  10
333.57587
  20
206.84076
  0
VERTEX
  5
a2
  8
Layer_0
  10
334.19519
  20
207.05099
  0
VERTEX
  5
a3
  8
Layer_0
  10
334.78177
  20
207.34027
  0
VERTEX
  5
a4
  8
Layer_0
  10
335.32556
  20
207.70363
  0
VERTEX
  5
a5
  8
Layer_0
  10
335.81729
  20
208.13486
  0
VERTEX
  5
a6
  8
Layer_0
  10
336.24854
  20
208.62659
  0
VERTEX
  5
a7
  8
Layer_0
  10
336.61191
  20
209.17039
  0
VERTEX
  5
a8
  8
Layer_0
  10
336.90115
  20
209.75697
  0
VERTEX
  5
a9
  8
Layer_0
  10
337.11139
  20
210.3763
  0
VERTEX
  5
aa
  8
Layer_0
  10
337.23898
  20
211.01776
  0
VERTEX
  5
ab
  8
Layer_0
  10
337.28177
  20
211.67039
  0
VERTEX
  5
ac
  8
Layer_0
  10
337.28177
  20
261.67039
  0
VERTEX
  5
ad
  8
Layer_0
  10
337.23898
  20
262.32303
  0
VERTEX
  5
ae
  8
Layer_0
  10
337.11139
  20
262.96449
  0
VERTEX
  5
af
  8
Layer_0
  10
336.90115
  20
263.58382
  0
VERTEX
  5
b0
  8
Layer_0
  10
336.61191
  20
264.17039
  0
VERTEX
  5
b1
  8
Layer_0
  10
336.24854
  20
264.7142
  0
VERTEX
  5
b2
  8
Layer_0
  10
335.81729
  20
265.20593
  0
VERTEX
  5
b3
  8
Layer_0
  10
335.32556
  20
265.63716
  0
VERTEX
  5
b4
  8
Layer_0
  10
334.78177
  20
266.00052
  0
VERTEX
  5
b5
  8
Layer_0
  10
334.19519
  20
266.28979
  0
VERTEX
  5
b6
  8
Layer_0
  10
333.57587
  20
266.50003
  0
VERTEX
  5
b7
  8
Layer_0
  10
332.93439
  20
266.62762
  0
VERTEX
  5
b8
  8
Layer_0
  10
332.28177
  20
266.67039
  0
VERTEX
  5
b9
  8
Layer_0
  10
330.28177
  20
266.67039
  0
VERTEX
  5
ba
  8
Layer_0
  10
329.62915
  20
266.62762
  0
VERTEX
  5
bb
  8
Layer_0
  10
328.98767
  20
266.50003
  0
VERTEX
  5
bc
  8
Layer_0
  10
328.36835
  20
266.28979
  0
VERTEX
  5
bd
  8
Layer_0
  10
327.78177
  20
266.00052
  0
VERTEX
  5
be
  8
Layer_0
  10
327.23798
  20
265.63716
  0
VERTEX
  5
bf
  8
Layer_0
  10
310.76715
  20
250.78642
  0
VERTEX
  5
c0
  8
Layer_0
  10
310.33203
  20
250.3353
  0
VERTEX
  5
c1
  8
Layer_0
  10
309.9639
  20
249.82803
  0
VERTEX
  5
c2
  8
Layer_0
  10
309.66986
  20
249.27452
  0
VERTEX
  5
c3
  8
Layer_0
  10
309.45566
  20
248.68549
  0
VERTEX
  5
c4
  8
Layer_0
  10
309.32544
  20
248.07239
  0
SEQEND
  0
POLYLINE
  5
c6
  8
Layer_0
  62
0
  66
1
  10
0
  20
0
  30
0
  0
VERTEX
  5
c6
  8
Layer_0
  10
329.28177
  20
211.67039
  0
VERTEX
  5
c7
  8
Layer_0
  10
329.28177
  20
261.67039
  0
VERTEX
  5
c8
  8
Layer_0
  10
329.31586
  20
261.92921
  0
VERTEX
  5
c9
  8
Layer_0
  10
329.41574
  20
262.17039
  0
VERTEX
  5
ca
  8
Layer_0
  10
329.57465
  20
262.3775
  0
VERTEX
  5
cb
  8
Layer_0
  10
329.78177
  20
262.53642
  0
VERTEX
  5
cc
  8
Layer_0
  10
330.02295
  20
262.63632
  0
VERTEX
  5
cd
  8
Layer_0
  10
330.28177
  20
262.67039
  0
VERTEX
  5
ce
  8
Layer_0
  10
332.28177
  20
262.67039
  0
VERTEX
  5
cf
  8
Layer_0
  10
332.54059
  20
262.63632
  0
VERTEX
  5
d0
  8
Layer_0
  10
332.78177
  20
262.53642
  0
VERTEX
  5
d1
  8
Layer_0
  10
332.98889
  20
262.3775
  0
VERTEX
  5
d2
  8
Layer_0
  10
333.1478
  20
262.17039
  0
VERTEX
  5
d3
  8
Layer_0
  10
333.24768
  20
261.92921
  0
VERTEX
  5
d4
  8
Layer_0
  10
333.28177
  20
261.67039
  0
VERTEX
  5
d5
  8
Layer_0
  10
333.28177
  20
211.67039
  0
VERTEX
  5
d6
  8
Layer_0
  10
333.24768
  20
211.41158
  0
VERTEX
  5
d7
  8
Layer_0
  10
333.1478
  20
211.17039
  0
VERTEX
  5
d8
  8
Layer_0
  10
332.98889
  20
210.96329
  0
VERTEX
  5
d9
  8
Layer_0
  10
332.78177
  20
210.80437
  0
VERTEX
  5
da
  8
Layer_0
  10
332.54059
  20
210.70447
  0
VERTEX
  5
db
  8
Layer_0
  10
332.28177
  20
210.67039
  0
VERTEX
  5
dc
  8
Layer_0
  10
330.28177
  20
210.67039
  0
VERTEX
  5
dd
  8
Layer_0
  10
330.02295
  20
210.70447
  0
VERTEX
  5
de
  8
Layer_0
  10
329.78177
  20
210.80437
  0
VERTEX
  5
df
  8
Layer_0
  10
329.57465
  20
210.96329
  0
VERTEX
  5
e0
  8
Layer_0
  10
329.41574
  20
211.17039
  0
VERTEX
  5
e1
  8
Layer_0
  10
329.31586
  20
211.41158
  0
VERTEX
  5
e2
  8
Layer_0
  10
329.28177
  20
211.67039
  0
SEQEND
  0
POLYLINE
  5
e4
  8
Layer_0
  62
0
  66
1
  10
0
  20
0
  30
0
  0
VERTEX
  5
e4
  8
Layer_0
  10
321.02045
  20
236.20453
  0
VERTEX
  5
e5
  8
Layer_0
  10
320.84061
  20
235.7704
  0
VERTEX
  5
e6
  8
Layer_0
  10
320.55457
  20
235.3976
  0
VERTEX
  5
e7
  8
Layer_0
  10
320.18176
  20
235.11154
  0
VERTEX
  5
e8
  8
Layer_0
  10
319.74765
  20
234.93173
  0
VERTEX
  5
e9
  8
Layer_0
  10
319.28177
  20
234.87039
  0
VERTEX
  5
ea
  8
Layer_0
  10
318.81589
  20
234.93173
  0
VERTEX
  5
eb
  8
Layer_0
  10
318.38177
  20
235.11154
  0
VERTEX
  5
ec
  8
Layer_0
  10
318.00897
  20
235.3976
  0
VERTEX
  5
ed
  8
Layer_0
  10
317.72293
  20
235.7704
  0
VERTEX
  5
ee
  8
Layer_0
  10
317.54309
  20
236.20453
  0
VERTEX
  5
ef
  8
Layer_0
  10
317.48178
  20
236.67039
  0
VERTEX
  5
f0
  8
Layer_0
  10
317.54309
  20
237.13626
  0
VERTEX
  5
f1
  8
Layer_0
  10
317.72293
  20
237.57039
  0
VERTEX
  5
f2
  8
Layer_0
  10
318.00897
  20
237.94319
  0
VERTEX
  5
f3
  8
Layer_0
  10
318.38177
  20
238.22925
  0
VERTEX
  5
f4
  8
Layer_0
  10
318.81589
  20
238.40906
  0
VERTEX
  5
f5
  8
Layer_0
  10
319.28177
  20
238.4704
  0
VERTEX
  5
f6
  8
Layer_0
  10
319.74765
  20
238.40906
  0
VERTEX
  5
f7
  8
Layer_0
  10
320.18176
  20
238.22925
  0
VERTEX
  5
f8
  8
Layer_0
  10
320.55457
  20
237.94319
  0
VERTEX
  5
f9
  8
Layer_0
  10
320.84061
  20
237.57039
  0
VERTEX
  5
fa
  8
Layer_0
  10
321.02045
  20
237.13626
  0
VERTEX
  5
fb
  8
Layer_0
  10
321.08176
  20
236.67039
  0
VERTEX
  5
fc
  8
Layer_0
  10
321.02045
  20
236.20453
  0
SEQEND
  0
ENDSEC
  0
EOF
