  0
SECTION
  2
HEADER
  9
$ACADVER
  1
AC1009
  0
ENDSEC
  0
SECTION
  2
ENTITIES
  0
POLYLINE
  5
90
  8
Layer_0
  62
0
  66
1
  10
0
  20
0
  30
0
  0
VERTEX
  5
90
  8
Layer_0
  10
379.4295
  20
176.54606
  0
VERTEX
  5
91
  8
Layer_0
  10
381.06284
  20
177.43288
  0
VERTEX
  5
92
  8
Layer_0
  10
382.64752
  20
178.40398
  0
VERTEX
  5
93
  8
Layer_0
  10
384.1792
  20
179.45669
  0
VERTEX
  5
94
  8
Layer_0
  10
385.65372
  20
180.5881
  0
VERTEX
  5
95
  8
Layer_0
  10
387.06696
  20
181.79515
  0
VERTEX
  5
96
  8
Layer_0
  10
388.41513
  20
183.07449
  0
VERTEX
  5
97
  8
Layer_0
  10
389.69449
  20
184.42265
  0
VERTEX
  5
98
  8
Layer_0
  10
390.90152
  20
185.83591
  0
VERTEX
  5
99
  8
Layer_0
  10
392.03293
  20
187.31041
  0
VERTEX
  5
9a
  8
Layer_0
  10
393.08563
  20
188.8421
  0
VERTEX
  5
9b
  8
Layer_0
  10
394.05673
  20
190.42679
  0
VERTEX
  5
9c
  8
Layer_0
  10
394.94357
  20
192.06013
  0
VERTEX
  5
9d
  8
Layer_0
  10
395.74371
  20
193.73764
  0
VERTEX
  5
9e
  8
Layer_0
  10
396.45496
  20
195.45473
  0
VERTEX
  5
9f
  8
Layer_0
  10
397.07535
  20
197.20668
  0
VERTEX
  5
a0
  8
Layer_0
  10
397.60321
  20
198.98871
  0
VERTEX
  5
a1
  8
Layer_0
  10
398.03708
  20
200.79593
  0
VERTEX
  5
a2
  8
Layer_0
  10
398.37576
  20
202.62337
  0
VERTEX
  5
a3
  8
Layer_0
  10
398.61835
  20
204.46603
  0
VERTEX
  5
a4
  8
Layer_0
  10
398.76419
  20
206.31886
  0
VERTEX
  5
a5
  8
Layer_0
  10
398.81284
  20
208.17679
  0
VERTEX
  5
a6
  8
Layer_0
  10
398.76419
  20
210.03471
  0
VERTEX
  5
a7
  8
Layer_0
  10
398.61835
  20
211.88755
  0
VERTEX
  5
a8
  8
Layer_0
  10
398.37576
  20
213.73021
  0
VERTEX
  5
a9
  8
Layer_0
  10
398.03708
  20
215.55766
  0
VERTEX
  5
aa
  8
Layer_0
  10
397.60321
  20
217.36487
  0
VERTEX
  5
ab
  8
Layer_0
  10
397.07535
  20
219.1469
  0
VERTEX
  5
ac
  8
Layer_0
  10
396.45496
  20
220.89885
  0
VERTEX
  5
ad
  8
Layer_0
  10
395.74371
  20
222.61594
  0
VERTEX
  5
ae
  8
Layer_0
  10
394.94357
  20
224.29345
  0
VERTEX
  5
af
  8
Layer_0
  10
394.05673
  20
225.92679
  0
VERTEX
  5
b0
  8
Layer_0
  10
393.08563
  20
227.51147
  0
VERTEX
  5
b1
  8
Layer_0
  10
392.03293
  20
229.04317
  0
VERTEX
  5
b2
  8
Layer_0
  10
390.90152
  20
230.51766
  0
VERTEX
  5
b3
  8
Layer_0
  10
389.69449
  20
231.93092
  0
VERTEX
  5
b4
  8
Layer_0
  10
388.41513
  20
233.27908
  0
VERTEX
  5
b5
  8
Layer_0
  10
387.06696
  20
234.55843
  0
VERTEX
  5
b6
  8
Layer_0
  10
385.65372
  20
235.76547
  0
VERTEX
  5
b7
  8
Layer_0
  10
384.1792
  20
236.89689
  0
VERTEX
  5
b8
  8
Layer_0
  10
382.64752
  20
237.94959
  0
VERTEX
  5
b9
  8
Layer_0
  10
381.06284
  20
238.92069
  0
VERTEX
  5
ba
  8
Layer_0
  10
379.4295
  20
239.80752
  0
VERTEX
  5
bb
  8
Layer_0
  10
377.75198
  20
240.60765
  0
VERTEX
  5
bc
  8
Layer_0
  10
376.03491
  20
241.31889
  0
VERTEX
  5
bd
  8
Layer_0
  10
374.28293
  20
241.93929
  0
VERTEX
  5
be
  8
Layer_0
  10
372.50092
  20
242.46716
  0
VERTEX
  5
bf
  8
Layer_0
  10
370.6937
  20
242.90103
  0
VERTEX
  5
c0
  8
Layer_0
  10
368.86627
  20
243.23972
  0
VERTEX
  5
c1
  8
Layer_0
  10
367.02359
  20
243.48232
  0
VERTEX
  5
c2
  8
Layer_0
  10
365.17078
  20
243.62814
  0
VERTEX
  5
c3
  8
Layer_0
  10
363.31284
  20
243.67679
  0
VERTEX
  5
c4
  8
Layer_0
  10
361.4549
  20
243.62814
  0
VERTEX
  5
c5
  8
Layer_0
  10
359.60208
  20
243.48232
  0
VERTEX
  5
c6
  8
Layer_0
  10
357.7594
  20
243.23972
  0
VERTEX
  5
c7
  8
Layer_0
  10
355.93198
  20
242.90103
  0
VERTEX
  5
c8
  8
Layer_0
  10
354.12476
  20
242.46716
  0
VERTEX
  5
c9
  8
Layer_0
  10
352.34274
  20
241.93929
  0
VERTEX
  5
ca
  8
Layer_0
  10
350.59076
  20
241.31889
  0
VERTEX
  5
cb
  8
Layer_0
  10
348.87369
  20
240.60765
  0
VERTEX
  5
cc
  8
Layer_0
  10
347.19617
  20
239.80752
  0
VERTEX
  5
cd
  8
Layer_0
  10
345.56284
  20
238.92069
  0
VERTEX
  5
ce
  8
Layer_0
  10
343.97815
  20
237.94959
  0
VERTEX
  5
cf
  8
Layer_0
  10
342.44647
  20
236.89689
  0
VERTEX
  5
d0
  8
Layer_0
  10
340.97195
  20
235.76547
  0
VERTEX
  5
d1
  8
Layer_0
  10
339.55869
  20
234.55843
  0
VERTEX
  5
d2
  8
Layer_0
  10
338.21054
  20
233.27908
  0
VERTEX
  5
d3
  8
Layer_0
  10
336.93118
  20
231.93092
  0
VERTEX
  5
d4
  8
Layer_0
  10
335.72415
  20
230.51766
  0
VERTEX
  5
d5
  8
Layer_0
  10
334.59274
  20
229.04317
  0
VERTEX
  5
d6
  8
Layer_0
  10
333.54004
  20
227.51147
  0
VERTEX
  5
d7
  8
Layer_0
  10
332.56894
  20
225.92679
  0
VERTEX
  5
d8
  8
Layer_0
  10
331.6821
  20
224.29345
  0
VERTEX
  5
d9
  8
Layer_0
  10
330.88196
  20
222.61594
  0
VERTEX
  5
da
  8
Layer_0
  10
330.17072
  20
220.89885
  0
VERTEX
  5
db
  8
Layer_0
  10
329.55032
  20
219.1469
  0
VERTEX
  5
dc
  8
Layer_0
  10
329.02246
  20
217.36487
  0
VERTEX
  5
dd
  8
Layer_0
  10
328.58859
  20
215.55766
  0
VERTEX
  5
de
  8
Layer_0
  10
328.24991
  20
213.73021
  0
VERTEX
  5
df
  8
Layer_0
  10
328.00729
  20
211.88755
  0
VERTEX
  5
e0
  8
Layer_0
  10
327.86148
  20
210.03471
  0
VERTEX
  5
e1
  8
Layer_0
  10
327.81284
  20
208.17679
  0
VERTEX
  5
e2
  8
Layer_0
  10
327.86148
  20
206.31886
  0
VERTEX
  5
e3
  8
Layer_0
  10
328.00729
  20
204.46603
  0
VERTEX
  5
e4
  8
Layer_0
  10
328.24991
  20
202.62337
  0
VERTEX
  5
e5
  8
Layer_0
  10
328.58859
  20
200.79593
  0
VERTEX
  5
e6
  8
Layer_0
  10
329.02246
  20
198.98871
  0
VERTEX
  5
e7
  8
Layer_0
  10
329.55032
  20
197.20668
  0
VERTEX
  5
e8
  8
Layer_0
  10
330.17072
  20
195.45473
  0
VERTEX
  5
e9
  8
Layer_0
  10
330.88196
  20
193.73764
  0
VERTEX
  5
ea
  8
Layer_0
  10
331.6821
  20
192.06013
  0
VERTEX
  5
eb
  8
Layer_0
  10
332.56894
  20
190.42679
  0
VERTEX
  5
ec
  8
Layer_0
  10
333.54004
  20
188.8421
  0
VERTEX
  5
ed
  8
Layer_0
  10
334.59274
  20
187.31041
  0
VERTEX
  5
ee
  8
Layer_0
  10
335.72415
  20
185.83591
  0
VERTEX
  5
ef
  8
Layer_0
  10
336.93118
  20
184.42265
  0
VERTEX
  5
f0
  8
Layer_0
  10
338.21054
  20
183.07449
  0
VERTEX
  5
f1
  8
Layer_0
  10
339.55869
  20
181.79515
  0
VERTEX
  5
f2
  8
Layer_0
  10
340.97195
  20
180.5881
  0
VERTEX
  5
f3
  8
Layer_0
  10
342.44647
  20
179.45669
  0
VERTEX
  5
f4
  8
Layer_0
  10
343.97815
  20
178.40398
  0
VERTEX
  5
f5
  8
Layer_0
  10
345.56284
  20
177.43288
  0
VERTEX
  5
f6
  8
Layer_0
  10
347.19617
  20
176.54606
  0
VERTEX
  5
f7
  8
Layer_0
  10
348.87369
  20
175.74593
  0
VERTEX
  5
f8
  8
Layer_0
  10
350.59076
  20
175.03468
  0
VERTEX
  5
f9
  8
Layer_0
  10
352.34274
  20
174.41428
  0
VERTEX
  5
fa
  8
Layer_0
  10
354.12476
  20
173.88642
  0
VERTEX
  5
fb
  8
Layer_0
  10
355.93198
  20
173.45255
  0
VERTEX
  5
fc
  8
Layer_0
  10
357.7594
  20
173.11385
  0
VERTEX
  5
fd
  8
Layer_0
  10
359.60208
  20
172.87126
  0
VERTEX
  5
fe
  8
Layer_0
  10
361.4549
  20
172.72544
  0
VERTEX
  5
ff
  8
Layer_0
  10
363.31284
  20
172.67679
  0
VERTEX
  5
100
  8
Layer_0
  10
365.17078
  20
172.72544
  0
VERTEX
  5
101
  8
Layer_0
  10
367.02359
  20
172.87126
  0
VERTEX
  5
102
  8
Layer_0
  10
368.86627
  20
173.11385
  0
VERTEX
  5
103
  8
Layer_0
  10
370.6937
  20
173.45255
  0
VERTEX
  5
104
  8
Layer_0
  10
372.50092
  20
173.88642
  0
VERTEX
  5
105
  8
Layer_0
  10
374.28293
  20
174.41428
  0
VERTEX
  5
106
  8
Layer_0
  10
376.03491
  20
175.03468
  0
VERTEX
  5
107
  8
Layer_0
  10
377.75198
  20
175.74593
  0
VERTEX
  5
108
  8
Layer_0
  10
379.4295
  20
176.54606
  0
SEQEND
  0
POLYLINE
  5
10a
  8
Layer_0
  62
0
  66
1
  10
0
  20
0
  30
0
  0
VERTEX
  5
10a
  8
Layer_0
  10
364.66284
  20
188.51506
  0
VERTEX
  5
10b
  8
Layer_0
  10
365.22202
  20
188.08598
  0
VERTEX
  5
10c
  8
Layer_0
  10
365.65109
  20
187.52679
  0
VERTEX
  5
10d
  8
Layer_0
  10
365.92084
  20
186.8756
  0
VERTEX
  5
10e
  8
Layer_0
  10
366.01285
  20
186.17679
  0
VERTEX
  5
10f
  8
Layer_0
  10
365.92084
  20
185.47798
  0
VERTEX
  5
110
  8
Layer_0
  10
365.65109
  20
184.82679
  0
VERTEX
  5
111
  8
Layer_0
  10
365.22202
  20
184.2676
  0
VERTEX
  5
112
  8
Layer_0
  10
364.66284
  20
183.83852
  0
VERTEX
  5
113
  8
Layer_0
  10
364.01166
  20
183.56879
  0
VERTEX
  5
114
  8
Layer_0
  10
363.31284
  20
183.47679
  0
VERTEX
  5
115
  8
Layer_0
  10
362.61401
  20
183.56879
  0
VERTEX
  5
116
  8
Layer_0
  10
361.96283
  20
183.83852
  0
VERTEX
  5
117
  8
Layer_0
  10
361.40366
  20
184.2676
  0
VERTEX
  5
118
  8
Layer_0
  10
360.97458
  20
184.82679
  0
VERTEX
  5
119
  8
Layer_0
  10
360.70483
  20
185.47798
  0
VERTEX
  5
11a
  8
Layer_0
  10
360.61282
  20
186.17679
  0
VERTEX
  5
11b
  8
Layer_0
  10
360.70483
  20
186.8756
  0
VERTEX
  5
11c
  8
Layer_0
  10
360.97458
  20
187.52679
  0
VERTEX
  5
11d
  8
Layer_0
  10
361.40366
  20
188.08598
  0
VERTEX
  5
11e
  8
Layer_0
  10
361.96283
  20
188.51506
  0
VERTEX
  5
11f
  8
Layer_0
  10
362.61401
  20
188.78479
  0
VERTEX
  5
120
  8
Layer_0
  10
363.31284
  20
188.87679
  0
VERTEX
  5
121
  8
Layer_0
  10
364.01166
  20
188.78479
  0
VERTEX
  5
122
  8
Layer_0
  10
364.66284
  20
188.51506
  0
SEQEND
  0
POLYLINE
  5
124
  8
Layer_0
  62
0
  66
1
  10
0
  20
0
  30
0
  0
VERTEX
  5
124
  8
Layer_0
  10
339.40366
  20
206.2676
  0
VERTEX
  5
125
  8
Layer_0
  10
338.97458
  20
206.82679
  0
VERTEX
  5
126
  8
Layer_0
  10
338.70483
  20
207.47798
  0
VERTEX
  5
127
  8
Layer_0
  10
338.61282
  20
208.17679
  0
VERTEX
  5
128
  8
Layer_0
  10
338.70483
  20
208.8756
  0
VERTEX
  5
129
  8
Layer_0
  10
338.97458
  20
209.52679
  0
VERTEX
  5
12a
  8
Layer_0
  10
339.40366
  20
210.08598
  0
VERTEX
  5
12b
  8
Layer_0
  10
339.96283
  20
210.51506
  0
VERTEX
  5
12c
  8
Layer_0
  10
340.61401
  20
210.78479
  0
VERTEX
  5
12d
  8
Layer_0
  10
341.31284
  20
210.87679
  0
VERTEX
  5
12e
  8
Layer_0
  10
342.01166
  20
210.78479
  0
VERTEX
  5
12f
  8
Layer_0
  10
342.66284
  20
210.51506
  0
VERTEX
  5
130
  8
Layer_0
  10
343.22202
  20
210.08598
  0
VERTEX
  5
131
  8
Layer_0
  10
343.65109
  20
209.52679
  0
VERTEX
  5
132
  8
Layer_0
  10
343.92084
  20
208.8756
  0
VERTEX
  5
133
  8
Layer_0
  10
344.01285
  20
208.17679
  0
VERTEX
  5
134
  8
Layer_0
  10
343.92084
  20
207.47798
  0
VERTEX
  5
135
  8
Layer_0
  10
343.65109
  20
206.82679
  0
VERTEX
  5
136
  8
Layer_0
  10
343.22202
  20
206.2676
  0
VERTEX
  5
137
  8
Layer_0
  10
342.66284
  20
205.83852
  0
VERTEX
  5
138
  8
Layer_0
  10
342.01166
  20
205.56879
  0
VERTEX
  5
139
  8
Layer_0
  10
341.31284
  20
205.47679
  0
VERTEX
  5
13a
  8
Layer_0
  10
340.61401
  20
205.56879
  0
VERTEX
  5
13b
  8
Layer_0
  10
339.96283
  20
205.83852
  0
VERTEX
  5
13c
  8
Layer_0
  10
339.40366
  20
206.2676
  0
SEQEND
  0
POLYLINE
  5
13e
  8
Layer_0
  62
0
  66
1
  10
0
  20
0
  30
0
  0
VERTEX
  5
13e
  8
Layer_0
  10
388.01285
  20
208.17679
  0
VERTEX
  5
13f
  8
Layer_0
  10
387.92084
  20
207.47798
  0
VERTEX
  5
140
  8
Layer_0
  10
387.65109
  20
206.82679
  0
VERTEX
  5
141
  8
Layer_0
  10
387.22202
  20
206.2676
  0
VERTEX
  5
142
  8
Layer_0
  10
386.66284
  20
205.83852
  0
VERTEX
  5
143
  8
Layer_0
  10
386.01166
  20
205.56879
  0
VERTEX
  5
144
  8
Layer_0
  10
385.31284
  20
205.47679
  0
VERTEX
  5
145
  8
Layer_0
  10
384.61401
  20
205.56879
  0
VERTEX
  5
146
  8
Layer_0
  10
383.96283
  20
205.83852
  0
VERTEX
  5
147
  8
Layer_0
  10
383.40366
  20
206.2676
  0
VERTEX
  5
148
  8
Layer_0
  10
382.97458
  20
206.82679
  0
VERTEX
  5
149
  8
Layer_0
  10
382.70483
  20
207.47798
  0
VERTEX
  5
14a
  8
Layer_0
  10
382.61282
  20
208.17679
  0
VERTEX
  5
14b
  8
Layer_0
  10
382.70483
  20
208.8756
  0
VERTEX
  5
14c
  8
Layer_0
  10
382.97458
  20
209.52679
  0
VERTEX
  5
14d
  8
Layer_0
  10
383.40366
  20
210.08598
  0
VERTEX
  5
14e
  8
Layer_0
  10
383.96283
  20
210.51506
  0
VERTEX
  5
14f
  8
Layer_0
  10
384.61401
  20
210.78479
  0
VERTEX
  5
150
  8
Layer_0
  10
385.31284
  20
210.87679
  0
VERTEX
  5
151
  8
Layer_0
  10
386.01166
  20
210.78479
  0
VERTEX
  5
152
  8
Layer_0
  10
386.66284
  20
210.51506
  0
VERTEX
  5
153
  8
Layer_0
  10
387.22202
  20
210.08598
  0
VERTEX
  5
154
  8
Layer_0
  10
387.65109
  20
209.52679
  0
VERTEX
  5
155
  8
Layer_0
  10
387.92084
  20
208.8756
  0
VERTEX
  5
156
  8
Layer_0
  10
388.01285
  20
208.17679
  0
SEQEND
  0
POLYLINE
  5
158
  8
Layer_0
  62
0
  66
1
  10
0
  20
0
  30
0
  0
VERTEX
  5
158
  8
Layer_0
  10
363.31284
  20
232.87679
  0
VERTEX
  5
159
  8
Layer_0
  10
364.01166
  20
232.78479
  0
VERTEX
  5
15a
  8
Layer_0
  10
364.66284
  20
232.51506
  0
VERTEX
  5
15b
  8
Layer_0
  10
365.22202
  20
232.08598
  0
VERTEX
  5
15c
  8
Layer_0
  10
365.65109
  20
231.52679
  0
VERTEX
  5
15d
  8
Layer_0
  10
365.92084
  20
230.8756
  0
VERTEX
  5
15e
  8
Layer_0
  10
366.01285
  20
230.17679
  0
VERTEX
  5
15f
  8
Layer_0
  10
365.92084
  20
229.47797
  0
VERTEX
  5
160
  8
Layer_0
  10
365.65109
  20
228.82679
  0
VERTEX
  5
161
  8
Layer_0
  10
365.22202
  20
228.2676
  0
VERTEX
  5
162
  8
Layer_0
  10
364.66284
  20
227.83852
  0
VERTEX
  5
163
  8
Layer_0
  10
364.01166
  20
227.56879
  0
VERTEX
  5
164
  8
Layer_0
  10
363.31284
  20
227.47679
  0
VERTEX
  5
165
  8
Layer_0
  10
362.61401
  20
227.56879
  0
VERTEX
  5
166
  8
Layer_0
  10
361.96283
  20
227.83852
  0
VERTEX
  5
167
  8
Layer_0
  10
361.40366
  20
228.2676
  0
VERTEX
  5
168
  8
Layer_0
  10
360.97458
  20
228.82679
  0
VERTEX
  5
169
  8
Layer_0
  10
360.70483
  20
229.47797
  0
VERTEX
  5
16a
  8
Layer_0
  10
360.61282
  20
230.17679
  0
VERTEX
  5
16b
  8
Layer_0
  10
360.70483
  20
230.8756
  0
VERTEX
  5
16c
  8
Layer_0
  10
360.97458
  20
231.52679
  0
VERTEX
  5
16d
  8
Layer_0
  10
361.40366
  20
232.08598
  0
VERTEX
  5
16e
  8
Layer_0
  10
361.96283
  20
232.51506
  0
VERTEX
  5
16f
  8
Layer_0
  10
362.61401
  20
232.78479
  0
VERTEX
  5
170
  8
Layer_0
  10
363.31284
  20
232.87679
  0
SEQEND
  0
ENDSEC
  0
EOF
