  0
SECTION
  2
HEADER
  9
$ACADVER
  1
AC1009
  0
ENDSEC
  0
SECTION
  2
ENTITIES
  0
POLYLINE
  5
90
  8
Layer_0
  62
0
  66
1
  10
0
  20
0
  30
0
  0
VERTEX
  5
90
  8
Layer_0
  10
414.77835
  20
172.3633
  0
VERTEX
  5
91
  8
Layer_0
  10
415.54126
  20
173.25658
  0
VERTEX
  5
92
  8
Layer_0
  10
416.5094
  20
173.92196
  0
VERTEX
  5
93
  8
Layer_0
  10
417.61676
  20
174.31409
  0
VERTEX
  5
94
  8
Layer_0
  10
418.78787
  20
174.40626
  0
VERTEX
  5
95
  8
Layer_0
  10
419.94293
  20
174.19218
  0
VERTEX
  5
96
  8
Layer_0
  10
421.00323
  20
173.68645
  0
VERTEX
  5
97
  8
Layer_0
  10
423.34439
  20
172.16608
  0
VERTEX
  5
98
  8
Layer_0
  10
423.69412
  20
172.00393
  0
VERTEX
  5
99
  8
Layer_0
  10
424.07526
  20
171.94611
  0
VERTEX
  5
9a
  8
Layer_0
  10
424.45734
  20
171.99727
  0
VERTEX
  5
9b
  8
Layer_0
  10
424.80984
  20
172.15329
  0
VERTEX
  5
9c
  8
Layer_0
  10
425.10461
  20
172.40172
  0
VERTEX
  5
9d
  8
Layer_0
  10
425.31805
  20
172.72271
  0
VERTEX
  5
9e
  8
Layer_0
  10
426.29474
  20
174.77038
  0
VERTEX
  5
9f
  8
Layer_0
  10
427.3566
  20
177.33392
  0
VERTEX
  5
a0
  8
Layer_0
  10
428.28284
  20
179.94952
  0
VERTEX
  5
a1
  8
Layer_0
  10
429.07092
  20
182.61001
  0
VERTEX
  5
a2
  8
Layer_0
  10
429.71869
  20
185.30811
  0
VERTEX
  5
a3
  8
Layer_0
  10
430.2243
  20
188.03639
  0
VERTEX
  5
a4
  8
Layer_0
  10
430.58649
  20
190.78741
  0
VERTEX
  5
a5
  8
Layer_0
  10
430.8042
  20
193.55362
  0
VERTEX
  5
a6
  8
Layer_0
  10
430.87683
  20
196.32742
  0
VERTEX
  5
a7
  8
Layer_0
  10
430.8042
  20
199.10123
  0
VERTEX
  5
a8
  8
Layer_0
  10
430.58649
  20
201.86743
  0
VERTEX
  5
a9
  8
Layer_0
  10
430.2243
  20
204.61845
  0
VERTEX
  5
aa
  8
Layer_0
  10
429.71869
  20
207.34674
  0
VERTEX
  5
ab
  8
Layer_0
  10
429.07092
  20
210.04483
  0
VERTEX
  5
ac
  8
Layer_0
  10
428.28284
  20
212.70532
  0
VERTEX
  5
ad
  8
Layer_0
  10
427.3566
  20
215.32092
  0
VERTEX
  5
ae
  8
Layer_0
  10
426.29474
  20
217.88446
  0
VERTEX
  5
af
  8
Layer_0
  10
425.31805
  20
219.93213
  0
VERTEX
  5
b0
  8
Layer_0
  10
425.10461
  20
220.25312
  0
VERTEX
  5
b1
  8
Layer_0
  10
424.80984
  20
220.50155
  0
VERTEX
  5
b2
  8
Layer_0
  10
424.45734
  20
220.65758
  0
VERTEX
  5
b3
  8
Layer_0
  10
424.07526
  20
220.70872
  0
VERTEX
  5
b4
  8
Layer_0
  10
423.69412
  20
220.65091
  0
VERTEX
  5
b5
  8
Layer_0
  10
423.34439
  20
220.48876
  0
VERTEX
  5
b6
  8
Layer_0
  10
421.00323
  20
218.9684
  0
VERTEX
  5
b7
  8
Layer_0
  10
419.94293
  20
218.46266
  0
VERTEX
  5
b8
  8
Layer_0
  10
418.78787
  20
218.24858
  0
VERTEX
  5
b9
  8
Layer_0
  10
417.61676
  20
218.34075
  0
VERTEX
  5
ba
  8
Layer_0
  10
416.5094
  20
218.73289
  0
VERTEX
  5
bb
  8
Layer_0
  10
415.54126
  20
219.39826
  0
VERTEX
  5
bc
  8
Layer_0
  10
414.77835
  20
220.29153
  0
VERTEX
  5
bd
  8
Layer_0
  10
414.27261
  20
221.35184
  0
VERTEX
  5
be
  8
Layer_0
  10
414.05853
  20
222.5069
  0
VERTEX
  5
bf
  8
Layer_0
  10
414.1507
  20
223.67802
  0
VERTEX
  5
c0
  8
Layer_0
  10
414.54285
  20
224.78537
  0
VERTEX
  5
c1
  8
Layer_0
  10
415.20822
  20
225.7535
  0
VERTEX
  5
c2
  8
Layer_0
  10
416.1015
  20
226.51643
  0
VERTEX
  5
c3
  8
Layer_0
  10
418.44266
  20
228.0368
  0
VERTEX
  5
c4
  8
Layer_0
  10
418.73303
  20
228.29034
  0
VERTEX
  5
c5
  8
Layer_0
  10
418.94086
  20
228.615
  0
VERTEX
  5
c6
  8
Layer_0
  10
419.04953
  20
228.98485
  0
VERTEX
  5
c7
  8
Layer_0
  10
419.05038
  20
229.37034
  0
VERTEX
  5
c8
  8
Layer_0
  10
418.9433
  20
229.74066
  0
VERTEX
  5
c9
  8
Layer_0
  10
418.73691
  20
230.06623
  0
VERTEX
  5
ca
  8
Layer_0
  10
417.26352
  20
231.79134
  0
VERTEX
  5
cb
  8
Layer_0
  10
415.35352
  20
233.80408
  0
VERTEX
  5
cc
  8
Layer_0
  10
413.34076
  20
235.7141
  0
VERTEX
  5
cd
  8
Layer_0
  10
411.23083
  20
237.51616
  0
VERTEX
  5
ce
  8
Layer_0
  10
409.02948
  20
239.20532
  0
VERTEX
  5
cf
  8
Layer_0
  10
406.74271
  20
240.77696
  0
VERTEX
  5
d0
  8
Layer_0
  10
404.37683
  20
242.22677
  0
VERTEX
  5
d1
  8
Layer_0
  10
401.93835
  20
243.55077
  0
VERTEX
  5
d2
  8
Layer_0
  10
399.4339
  20
244.74533
  0
VERTEX
  5
d3
  8
Layer_0
  10
396.87036
  20
245.80718
  0
VERTEX
  5
d4
  8
Layer_0
  10
394.25476
  20
246.73342
  0
VERTEX
  5
d5
  8
Layer_0
  10
391.59424
  20
247.52149
  0
VERTEX
  5
d6
  8
Layer_0
  10
388.89618
  20
248.16924
  0
VERTEX
  5
d7
  8
Layer_0
  10
386.16788
  20
248.6749
  0
VERTEX
  5
d8
  8
Layer_0
  10
383.91861
  20
248.97102
  0
VERTEX
  5
d9
  8
Layer_0
  10
383.53314
  20
248.96682
  0
VERTEX
  5
da
  8
Layer_0
  10
383.16425
  20
248.85492
  0
VERTEX
  5
db
  8
Layer_0
  10
382.84143
  20
248.64426
  0
VERTEX
  5
dc
  8
Layer_0
  10
382.59042
  20
248.35168
  0
VERTEX
  5
dd
  8
Layer_0
  10
382.43134
  20
248.00055
  0
VERTEX
  5
de
  8
Layer_0
  10
382.37683
  20
247.61893
  0
VERTEX
  5
df
  8
Layer_0
  10
382.37683
  20
244.82742
  0
VERTEX
  5
e0
  8
Layer_0
  10
382.22351
  20
243.66273
  0
VERTEX
  5
e1
  8
Layer_0
  10
381.77396
  20
242.57742
  0
VERTEX
  5
e2
  8
Layer_0
  10
381.05884
  20
241.64544
  0
VERTEX
  5
e3
  8
Layer_0
  10
380.12683
  20
240.93031
  0
VERTEX
  5
e4
  8
Layer_0
  10
379.04153
  20
240.48075
  0
VERTEX
  5
e5
  8
Layer_0
  10
377.87683
  20
240.32742
  0
VERTEX
  5
e6
  8
Layer_0
  10
376.71216
  20
240.48075
  0
VERTEX
  5
e7
  8
Layer_0
  10
375.62683
  20
240.93031
  0
VERTEX
  5
e8
  8
Layer_0
  10
374.69485
  20
241.64544
  0
VERTEX
  5
e9
  8
Layer_0
  10
373.97974
  20
242.57742
  0
VERTEX
  5
ea
  8
Layer_0
  10
373.53018
  20
243.66273
  0
VERTEX
  5
eb
  8
Layer_0
  10
373.37683
  20
244.82742
  0
VERTEX
  5
ec
  8
Layer_0
  10
373.37683
  20
247.61893
  0
VERTEX
  5
ed
  8
Layer_0
  10
373.32236
  20
248.00055
  0
VERTEX
  5
ee
  8
Layer_0
  10
373.16327
  20
248.35168
  0
VERTEX
  5
ef
  8
Layer_0
  10
372.91226
  20
248.64426
  0
VERTEX
  5
f0
  8
Layer_0
  10
372.58942
  20
248.85492
  0
VERTEX
  5
f1
  8
Layer_0
  10
372.22055
  20
248.96682
  0
VERTEX
  5
f2
  8
Layer_0
  10
371.83508
  20
248.97102
  0
VERTEX
  5
f3
  8
Layer_0
  10
369.58582
  20
248.6749
  0
VERTEX
  5
f4
  8
Layer_0
  10
366.85751
  20
248.16924
  0
VERTEX
  5
f5
  8
Layer_0
  10
364.15942
  20
247.52149
  0
VERTEX
  5
f6
  8
Layer_0
  10
361.49893
  20
246.73342
  0
VERTEX
  5
f7
  8
Layer_0
  10
358.88333
  20
245.80718
  0
VERTEX
  5
f8
  8
Layer_0
  10
356.31979
  20
244.74533
  0
VERTEX
  5
f9
  8
Layer_0
  10
353.81534
  20
243.55077
  0
VERTEX
  5
fa
  8
Layer_0
  10
351.37683
  20
242.22677
  0
VERTEX
  5
fb
  8
Layer_0
  10
349.01099
  20
240.77696
  0
VERTEX
  5
fc
  8
Layer_0
  10
346.72421
  20
239.20532
  0
VERTEX
  5
fd
  8
Layer_0
  10
344.52286
  20
237.51616
  0
VERTEX
  5
fe
  8
Layer_0
  10
342.41293
  20
235.7141
  0
VERTEX
  5
ff
  8
Layer_0
  10
340.40018
  20
233.80408
  0
VERTEX
  5
100
  8
Layer_0
  10
338.49017
  20
231.79134
  0
VERTEX
  5
101
  8
Layer_0
  10
337.01678
  20
230.06623
  0
VERTEX
  5
102
  8
Layer_0
  10
336.81036
  20
229.74066
  0
VERTEX
  5
103
  8
Layer_0
  10
336.70331
  20
229.37034
  0
VERTEX
  5
104
  8
Layer_0
  10
336.70416
  20
228.98485
  0
VERTEX
  5
105
  8
Layer_0
  10
336.81284
  20
228.615
  0
VERTEX
  5
106
  8
Layer_0
  10
337.02066
  20
228.29034
  0
VERTEX
  5
107
  8
Layer_0
  10
337.31104
  20
228.0368
  0
VERTEX
  5
108
  8
Layer_0
  10
339.65219
  20
226.51643
  0
VERTEX
  5
109
  8
Layer_0
  10
340.54547
  20
225.7535
  0
VERTEX
  5
10a
  8
Layer_0
  10
341.21085
  20
224.78537
  0
VERTEX
  5
10b
  8
Layer_0
  10
341.603
  20
223.67802
  0
VERTEX
  5
10c
  8
Layer_0
  10
341.69516
  20
222.5069
  0
VERTEX
  5
10d
  8
Layer_0
  10
341.48108
  20
221.35184
  0
VERTEX
  5
10e
  8
Layer_0
  10
340.97534
  20
220.29153
  0
VERTEX
  5
10f
  8
Layer_0
  10
340.2124
  20
219.39826
  0
VERTEX
  5
110
  8
Layer_0
  10
339.24426
  20
218.73289
  0
VERTEX
  5
111
  8
Layer_0
  10
338.13693
  20
218.34075
  0
VERTEX
  5
112
  8
Layer_0
  10
336.96582
  20
218.24858
  0
VERTEX
  5
113
  8
Layer_0
  10
335.81073
  20
218.46266
  0
VERTEX
  5
114
  8
Layer_0
  10
334.75046
  20
218.9684
  0
VERTEX
  5
115
  8
Layer_0
  10
332.4093
  20
220.48876
  0
VERTEX
  5
116
  8
Layer_0
  10
332.05957
  20
220.65091
  0
VERTEX
  5
117
  8
Layer_0
  10
331.67844
  20
220.70872
  0
VERTEX
  5
118
  8
Layer_0
  10
331.29636
  20
220.65758
  0
VERTEX
  5
119
  8
Layer_0
  10
330.94385
  20
220.50155
  0
VERTEX
  5
11a
  8
Layer_0
  10
330.64908
  20
220.25312
  0
VERTEX
  5
11b
  8
Layer_0
  10
330.43561
  20
219.93213
  0
VERTEX
  5
11c
  8
Layer_0
  10
329.45892
  20
217.88446
  0
VERTEX
  5
11d
  8
Layer_0
  10
329.32077
  20
217.55092
  0
VERTEX
  5
11e
  8
Layer_0
  10
328.91119
  20
216.93204
  0
VERTEX
  5
11f
  8
Layer_0
  10
328.40048
  20
216.3936
  0
VERTEX
  5
120
  8
Layer_0
  10
327.80408
  20
215.95194
  0
VERTEX
  5
121
  8
Layer_0
  10
327.14008
  20
215.62047
  0
VERTEX
  5
122
  8
Layer_0
  10
326.42865
  20
215.40923
  0
VERTEX
  5
123
  8
Layer_0
  10
325.69135
  20
215.32463
  0
VERTEX
  5
124
  8
Layer_0
  10
305.57684
  20
215.32742
  0
VERTEX
  5
125
  8
Layer_0
  10
304.92422
  20
215.28465
  0
VERTEX
  5
126
  8
Layer_0
  10
304.28275
  20
215.15705
  0
VERTEX
  5
127
  8
Layer_0
  10
303.66342
  20
214.94682
  0
VERTEX
  5
128
  8
Layer_0
  10
303.07684
  20
214.65755
  0
VERTEX
  5
129
  8
Layer_0
  10
302.53305
  20
214.29419
  0
VERTEX
  5
12a
  8
Layer_0
  10
302.04132
  20
213.86295
  0
VERTEX
  5
12b
  8
Layer_0
  10
301.61008
  20
213.37123
  0
VERTEX
  5
12c
  8
Layer_0
  10
301.2467
  20
212.82742
  0
VERTEX
  5
12d
  8
Layer_0
  10
300.95746
  20
212.24084
  0
VERTEX
  5
12e
  8
Layer_0
  10
300.74722
  20
211.62152
  0
VERTEX
  5
12f
  8
Layer_0
  10
300.61963
  20
210.98006
  0
VERTEX
  5
130
  8
Layer_0
  10
300.57684
  20
210.32742
  0
VERTEX
  5
131
  8
Layer_0
  10
300.57684
  20
85.327423
  0
VERTEX
  5
132
  8
Layer_0
  10
300.61963
  20
84.674789
  0
VERTEX
  5
133
  8
Layer_0
  10
300.74722
  20
84.033325
  0
VERTEX
  5
134
  8
Layer_0
  10
300.95746
  20
83.414001
  0
VERTEX
  5
135
  8
Layer_0
  10
301.2467
  20
82.827423
  0
VERTEX
  5
136
  8
Layer_0
  10
301.61008
  20
82.283615
  0
VERTEX
  5
137
  8
Layer_0
  10
302.04132
  20
81.791885
  0
VERTEX
  5
138
  8
Layer_0
  10
302.53305
  20
81.360657
  0
VERTEX
  5
139
  8
Layer_0
  10
303.07684
  20
80.997299
  0
VERTEX
  5
13a
  8
Layer_0
  10
303.66342
  20
80.708023
  0
VERTEX
  5
13b
  8
Layer_0
  10
304.28275
  20
80.497787
  0
VERTEX
  5
13c
  8
Layer_0
  10
304.92422
  20
80.370193
  0
VERTEX
  5
13d
  8
Layer_0
  10
305.57684
  20
80.327423
  0
VERTEX
  5
13e
  8
Layer_0
  10
325.69135
  20
80.330215
  0
VERTEX
  5
13f
  8
Layer_0
  10
326.42865
  20
80.245621
  0
VERTEX
  5
140
  8
Layer_0
  10
327.14008
  20
80.034378
  0
VERTEX
  5
141
  8
Layer_0
  10
327.80408
  20
79.702896
  0
VERTEX
  5
142
  8
Layer_0
  10
328.40048
  20
79.261246
  0
VERTEX
  5
143
  8
Layer_0
  10
328.91119
  20
78.722809
  0
VERTEX
  5
144
  8
Layer_0
  10
329.32077
  20
78.103928
  0
VERTEX
  5
145
  8
Layer_0
  10
329.45892
  20
77.770386
  0
VERTEX
  5
146
  8
Layer_0
  10
330.43561
  20
75.722717
  0
VERTEX
  5
147
  8
Layer_0
  10
330.64908
  20
75.401718
  0
VERTEX
  5
148
  8
Layer_0
  10
330.94385
  20
75.15329
  0
VERTEX
  5
149
  8
Layer_0
  10
331.29636
  20
74.997269
  0
VERTEX
  5
14a
  8
Layer_0
  10
331.67844
  20
74.946121
  0
VERTEX
  5
14b
  8
Layer_0
  10
332.05957
  20
75.003922
  0
VERTEX
  5
14c
  8
Layer_0
  10
332.4093
  20
75.166077
  0
VERTEX
  5
14d
  8
Layer_0
  10
334.75046
  20
76.686447
  0
VERTEX
  5
14e
  8
Layer_0
  10
335.81073
  20
77.192184
  0
VERTEX
  5
14f
  8
Layer_0
  10
336.96582
  20
77.406265
  0
VERTEX
  5
150
  8
Layer_0
  10
338.13693
  20
77.314087
  0
VERTEX
  5
151
  8
Layer_0
  10
339.24426
  20
76.921951
  0
VERTEX
  5
152
  8
Layer_0
  10
340.2124
  20
76.256577
  0
VERTEX
  5
153
  8
Layer_0
  10
340.97534
  20
75.363297
  0
VERTEX
  5
154
  8
Layer_0
  10
341.48108
  20
74.303009
  0
VERTEX
  5
155
  8
Layer_0
  10
341.69516
  20
73.147934
  0
VERTEX
  5
156
  8
Layer_0
  10
341.603
  20
71.976822
  0
VERTEX
  5
157
  8
Layer_0
  10
341.21085
  20
70.869476
  0
VERTEX
  5
158
  8
Layer_0
  10
340.54547
  20
69.901337
  0
VERTEX
  5
159
  8
Layer_0
  10
339.65219
  20
69.138412
  0
VERTEX
  5
15a
  8
Layer_0
  10
337.31104
  20
67.618042
  0
VERTEX
  5
15b
  8
Layer_0
  10
337.02066
  20
67.364502
  0
VERTEX
  5
15c
  8
Layer_0
  10
336.81284
  20
67.039841
  0
VERTEX
  5
15d
  8
Layer_0
  10
336.70416
  20
66.669983
  0
VERTEX
  5
15e
  8
Layer_0
  10
336.70331
  20
66.2845
  0
VERTEX
  5
15f
  8
Layer_0
  10
336.81036
  20
65.914185
  0
VERTEX
  5
160
  8
Layer_0
  10
337.01678
  20
65.588608
  0
VERTEX
  5
161
  8
Layer_0
  10
338.49017
  20
63.863495
  0
VERTEX
  5
162
  8
Layer_0
  10
340.40018
  20
61.850754
  0
VERTEX
  5
163
  8
Layer_0
  10
342.41293
  20
59.94075
  0
VERTEX
  5
164
  8
Layer_0
  10
344.52286
  20
58.138687
  0
VERTEX
  5
165
  8
Layer_0
  10
346.72421
  20
56.449524
  0
VERTEX
  5
166
  8
Layer_0
  10
349.01099
  20
54.877884
  0
VERTEX
  5
167
  8
Layer_0
  10
351.37683
  20
53.42807
  0
VERTEX
  5
168
  8
Layer_0
  10
353.81534
  20
52.10408
  0
VERTEX
  5
169
  8
Layer_0
  10
356.31979
  20
50.909515
  0
VERTEX
  5
16a
  8
Layer_0
  10
358.88333
  20
49.847656
  0
VERTEX
  5
16b
  8
Layer_0
  10
361.49893
  20
48.921432
  0
VERTEX
  5
16c
  8
Layer_0
  10
364.15942
  20
48.133347
  0
VERTEX
  5
16d
  8
Layer_0
  10
366.85751
  20
47.485596
  0
VERTEX
  5
16e
  8
Layer_0
  10
369.58582
  20
46.979935
  0
VERTEX
  5
16f
  8
Layer_0
  10
371.83508
  20
46.683823
  0
VERTEX
  5
170
  8
Layer_0
  10
372.22055
  20
46.688019
  0
VERTEX
  5
171
  8
Layer_0
  10
372.58942
  20
46.799927
  0
VERTEX
  5
172
  8
Layer_0
  10
372.91226
  20
47.010574
  0
VERTEX
  5
173
  8
Layer_0
  10
373.16327
  20
47.303162
  0
VERTEX
  5
174
  8
Layer_0
  10
373.32236
  20
47.654297
  0
VERTEX
  5
175
  8
Layer_0
  10
373.37683
  20
48.035904
  0
VERTEX
  5
176
  8
Layer_0
  10
373.37683
  20
50.827423
  0
VERTEX
  5
177
  8
Layer_0
  10
373.53018
  20
51.992111
  0
VERTEX
  5
178
  8
Layer_0
  10
373.97974
  20
53.077423
  0
VERTEX
  5
179
  8
Layer_0
  10
374.69485
  20
54.009399
  0
VERTEX
  5
17a
  8
Layer_0
  10
375.62683
  20
54.724533
  0
VERTEX
  5
17b
  8
Layer_0
  10
376.71216
  20
55.174088
  0
VERTEX
  5
17c
  8
Layer_0
  10
377.87683
  20
55.327423
  0
VERTEX
  5
17d
  8
Layer_0
  10
379.04153
  20
55.174088
  0
VERTEX
  5
17e
  8
Layer_0
  10
380.12683
  20
54.724533
  0
VERTEX
  5
17f
  8
Layer_0
  10
381.05884
  20
54.009399
  0
VERTEX
  5
180
  8
Layer_0
  10
381.77396
  20
53.077423
  0
VERTEX
  5
181
  8
Layer_0
  10
382.22351
  20
51.992111
  0
VERTEX
  5
182
  8
Layer_0
  10
382.37683
  20
50.827423
  0
VERTEX
  5
183
  8
Layer_0
  10
382.37683
  20
48.035904
  0
VERTEX
  5
184
  8
Layer_0
  10
382.43134
  20
47.654297
  0
VERTEX
  5
185
  8
Layer_0
  10
382.59042
  20
47.303162
  0
VERTEX
  5
186
  8
Layer_0
  10
382.84143
  20
47.010574
  0
VERTEX
  5
187
  8
Layer_0
  10
383.16425
  20
46.799927
  0
VERTEX
  5
188
  8
Layer_0
  10
383.53314
  20
46.688019
  0
VERTEX
  5
189
  8
Layer_0
  10
383.91861
  20
46.683823
  0
VERTEX
  5
18a
  8
Layer_0
  10
386.16788
  20
46.979935
  0
VERTEX
  5
18b
  8
Layer_0
  10
388.89618
  20
47.485596
  0
VERTEX
  5
18c
  8
Layer_0
  10
391.59424
  20
48.133347
  0
VERTEX
  5
18d
  8
Layer_0
  10
394.25476
  20
48.921432
  0
VERTEX
  5
18e
  8
Layer_0
  10
396.87036
  20
49.847656
  0
VERTEX
  5
18f
  8
Layer_0
  10
399.4339
  20
50.909515
  0
VERTEX
  5
190
  8
Layer_0
  10
401.93835
  20
52.10408
  0
VERTEX
  5
191
  8
Layer_0
  10
404.37683
  20
53.42807
  0
VERTEX
  5
192
  8
Layer_0
  10
406.74271
  20
54.877884
  0
VERTEX
  5
193
  8
Layer_0
  10
409.02948
  20
56.449524
  0
VERTEX
  5
194
  8
Layer_0
  10
411.23083
  20
58.138687
  0
VERTEX
  5
195
  8
Layer_0
  10
413.34076
  20
59.94075
  0
VERTEX
  5
196
  8
Layer_0
  10
415.35352
  20
61.850754
  0
VERTEX
  5
197
  8
Layer_0
  10
417.26352
  20
63.863495
  0
VERTEX
  5
198
  8
Layer_0
  10
418.73691
  20
65.588608
  0
VERTEX
  5
199
  8
Layer_0
  10
418.9433
  20
65.914185
  0
VERTEX
  5
19a
  8
Layer_0
  10
419.05038
  20
66.2845
  0
VERTEX
  5
19b
  8
Layer_0
  10
419.04953
  20
66.669983
  0
VERTEX
  5
19c
  8
Layer_0
  10
418.94086
  20
67.039841
  0
VERTEX
  5
19d
  8
Layer_0
  10
418.73303
  20
67.364502
  0
VERTEX
  5
19e
  8
Layer_0
  10
418.44266
  20
67.618042
  0
VERTEX
  5
19f
  8
Layer_0
  10
416.1015
  20
69.138412
  0
VERTEX
  5
1a0
  8
Layer_0
  10
415.20822
  20
69.901337
  0
VERTEX
  5
1a1
  8
Layer_0
  10
414.54285
  20
70.869476
  0
VERTEX
  5
1a2
  8
Layer_0
  10
414.1507
  20
71.976822
  0
VERTEX
  5
1a3
  8
Layer_0
  10
414.05853
  20
73.147934
  0
VERTEX
  5
1a4
  8
Layer_0
  10
414.27261
  20
74.303009
  0
VERTEX
  5
1a5
  8
Layer_0
  10
414.77835
  20
75.363297
  0
VERTEX
  5
1a6
  8
Layer_0
  10
415.54126
  20
76.256577
  0
VERTEX
  5
1a7
  8
Layer_0
  10
416.5094
  20
76.921951
  0
VERTEX
  5
1a8
  8
Layer_0
  10
417.61676
  20
77.314087
  0
VERTEX
  5
1a9
  8
Layer_0
  10
418.78787
  20
77.406265
  0
VERTEX
  5
1aa
  8
Layer_0
  10
419.94293
  20
77.192184
  0
VERTEX
  5
1ab
  8
Layer_0
  10
421.00323
  20
76.686447
  0
VERTEX
  5
1ac
  8
Layer_0
  10
423.34439
  20
75.166077
  0
VERTEX
  5
1ad
  8
Layer_0
  10
423.69412
  20
75.003922
  0
VERTEX
  5
1ae
  8
Layer_0
  10
424.07526
  20
74.946121
  0
VERTEX
  5
1af
  8
Layer_0
  10
424.45734
  20
74.997269
  0
VERTEX
  5
1b0
  8
Layer_0
  10
424.80984
  20
75.15329
  0
VERTEX
  5
1b1
  8
Layer_0
  10
425.10461
  20
75.401718
  0
VERTEX
  5
1b2
  8
Layer_0
  10
425.31805
  20
75.722717
  0
VERTEX
  5
1b3
  8
Layer_0
  10
426.29474
  20
77.770386
  0
VERTEX
  5
1b4
  8
Layer_0
  10
427.3566
  20
80.333923
  0
VERTEX
  5
1b5
  8
Layer_0
  10
428.28284
  20
82.949524
  0
VERTEX
  5
1b6
  8
Layer_0
  10
429.07092
  20
85.610016
  0
VERTEX
  5
1b7
  8
Layer_0
  10
429.71869
  20
88.308105
  0
VERTEX
  5
1b8
  8
Layer_0
  10
430.2243
  20
91.036392
  0
VERTEX
  5
1b9
  8
Layer_0
  10
430.58649
  20
93.787415
  0
VERTEX
  5
1ba
  8
Layer_0
  10
430.8042
  20
96.553619
  0
VERTEX
  5
1bb
  8
Layer_0
  10
430.87683
  20
99.327423
  0
VERTEX
  5
1bc
  8
Layer_0
  10
430.8042
  20
102.10123
  0
VERTEX
  5
1bd
  8
Layer_0
  10
430.58649
  20
104.86743
  0
VERTEX
  5
1be
  8
Layer_0
  10
430.2243
  20
107.61845
  0
VERTEX
  5
1bf
  8
Layer_0
  10
429.71869
  20
110.34674
  0
VERTEX
  5
1c0
  8
Layer_0
  10
429.07092
  20
113.04483
  0
VERTEX
  5
1c1
  8
Layer_0
  10
428.28284
  20
115.70532
  0
VERTEX
  5
1c2
  8
Layer_0
  10
427.3566
  20
118.32092
  0
VERTEX
  5
1c3
  8
Layer_0
  10
426.29474
  20
120.88446
  0
VERTEX
  5
1c4
  8
Layer_0
  10
425.31805
  20
122.93213
  0
VERTEX
  5
1c5
  8
Layer_0
  10
425.10461
  20
123.25311
  0
VERTEX
  5
1c6
  8
Layer_0
  10
424.80984
  20
123.50156
  0
VERTEX
  5
1c7
  8
Layer_0
  10
424.45734
  20
123.65758
  0
VERTEX
  5
1c8
  8
Layer_0
  10
424.07526
  20
123.70872
  0
VERTEX
  5
1c9
  8
Layer_0
  10
423.69412
  20
123.65091
  0
VERTEX
  5
1ca
  8
Layer_0
  10
423.34439
  20
123.48877
  0
VERTEX
  5
1cb
  8
Layer_0
  10
421.00323
  20
121.9684
  0
VERTEX
  5
1cc
  8
Layer_0
  10
419.94293
  20
121.46266
  0
VERTEX
  5
1cd
  8
Layer_0
  10
418.78787
  20
121.24858
  0
VERTEX
  5
1ce
  8
Layer_0
  10
417.61676
  20
121.34076
  0
VERTEX
  5
1cf
  8
Layer_0
  10
416.5094
  20
121.73288
  0
VERTEX
  5
1d0
  8
Layer_0
  10
415.54126
  20
122.39825
  0
VERTEX
  5
1d1
  8
Layer_0
  10
414.77835
  20
123.29153
  0
VERTEX
  5
1d2
  8
Layer_0
  10
414.27261
  20
124.35184
  0
VERTEX
  5
1d3
  8
Layer_0
  10
414.05853
  20
125.5069
  0
VERTEX
  5
1d4
  8
Layer_0
  10
414.1507
  20
126.67801
  0
VERTEX
  5
1d5
  8
Layer_0
  10
414.54285
  20
127.78537
  0
VERTEX
  5
1d6
  8
Layer_0
  10
415.20822
  20
128.75351
  0
VERTEX
  5
1d7
  8
Layer_0
  10
416.1015
  20
129.51643
  0
VERTEX
  5
1d8
  8
Layer_0
  10
418.44266
  20
131.0368
  0
VERTEX
  5
1d9
  8
Layer_0
  10
418.73303
  20
131.29034
  0
VERTEX
  5
1da
  8
Layer_0
  10
418.94086
  20
131.61499
  0
VERTEX
  5
1db
  8
Layer_0
  10
419.04953
  20
131.98486
  0
VERTEX
  5
1dc
  8
Layer_0
  10
419.05038
  20
132.37033
  0
VERTEX
  5
1dd
  8
Layer_0
  10
418.9433
  20
132.74066
  0
VERTEX
  5
1de
  8
Layer_0
  10
418.73691
  20
133.06622
  0
VERTEX
  5
1df
  8
Layer_0
  10
417.47122
  20
134.89609
  0
VERTEX
  5
1e0
  8
Layer_0
  10
416.13785
  20
137.27702
  0
VERTEX
  5
1e1
  8
Layer_0
  10
415.08255
  20
139.79361
  0
VERTEX
  5
1e2
  8
Layer_0
  10
414.31894
  20
142.41347
  0
VERTEX
  5
1e3
  8
Layer_0
  10
413.85681
  20
145.10294
  0
VERTEX
  5
1e4
  8
Layer_0
  10
413.70209
  20
147.82742
  0
VERTEX
  5
1e5
  8
Layer_0
  10
413.85681
  20
150.55191
  0
VERTEX
  5
1e6
  8
Layer_0
  10
414.31894
  20
153.24138
  0
VERTEX
  5
1e7
  8
Layer_0
  10
415.08255
  20
155.86124
  0
VERTEX
  5
1e8
  8
Layer_0
  10
416.13785
  20
158.37781
  0
VERTEX
  5
1e9
  8
Layer_0
  10
417.47122
  20
160.75876
  0
VERTEX
  5
1ea
  8
Layer_0
  10
418.73691
  20
162.58861
  0
VERTEX
  5
1eb
  8
Layer_0
  10
418.9433
  20
162.91418
  0
VERTEX
  5
1ec
  8
Layer_0
  10
419.05038
  20
163.2845
  0
VERTEX
  5
1ed
  8
Layer_0
  10
419.04953
  20
163.66998
  0
VERTEX
  5
1ee
  8
Layer_0
  10
418.94086
  20
164.03984
  0
VERTEX
  5
1ef
  8
Layer_0
  10
418.73303
  20
164.3645
  0
VERTEX
  5
1f0
  8
Layer_0
  10
418.44266
  20
164.61804
  0
VERTEX
  5
1f1
  8
Layer_0
  10
416.1015
  20
166.13841
  0
VERTEX
  5
1f2
  8
Layer_0
  10
415.20822
  20
166.90134
  0
VERTEX
  5
1f3
  8
Layer_0
  10
414.54285
  20
167.86948
  0
VERTEX
  5
1f4
  8
Layer_0
  10
414.1507
  20
168.97682
  0
VERTEX
  5
1f5
  8
Layer_0
  10
414.05853
  20
170.14795
  0
VERTEX
  5
1f6
  8
Layer_0
  10
414.27261
  20
171.30301
  0
VERTEX
  5
1f7
  8
Layer_0
  10
414.77835
  20
172.3633
  0
SEQEND
  0
POLYLINE
  5
1f9
  8
Layer_0
  62
0
  66
1
  10
0
  20
0
  30
0
  0
VERTEX
  5
1f9
  8
Layer_0
  10
325.73236
  20
196.00616
  0
VERTEX
  5
1fa
  8
Layer_0
  10
325.77686
  20
195.32742
  0
VERTEX
  5
1fb
  8
Layer_0
  10
325.73236
  20
194.64868
  0
VERTEX
  5
1fc
  8
Layer_0
  10
325.59967
  20
193.98156
  0
VERTEX
  5
1fd
  8
Layer_0
  10
325.38101
  20
193.33746
  0
VERTEX
  5
1fe
  8
Layer_0
  10
325.08017
  20
192.72742
  0
VERTEX
  5
1ff
  8
Layer_0
  10
325.02142
  20
192.63949
  0
VERTEX
  5
200
  8
Layer_0
  10
324.70227
  20
192.16187
  0
VERTEX
  5
201
  8
Layer_0
  10
324.25378
  20
191.65047
  0
VERTEX
  5
202
  8
Layer_0
  10
323.7424
  20
191.20198
  0
VERTEX
  5
203
  8
Layer_0
  10
323.63602
  20
191.13091
  0
VERTEX
  5
204
  8
Layer_0
  10
323.17685
  20
190.82409
  0
VERTEX
  5
205
  8
Layer_0
  10
322.5668
  20
190.52325
  0
VERTEX
  5
206
  8
Layer_0
  10
321.9227
  20
190.30461
  0
VERTEX
  5
207
  8
Layer_0
  10
321.25558
  20
190.17191
  0
VERTEX
  5
208
  8
Layer_0
  10
320.57684
  20
190.12743
  0
VERTEX
  5
209
  8
Layer_0
  10
319.8981
  20
190.17191
  0
VERTEX
  5
20a
  8
Layer_0
  10
319.23099
  20
190.30461
  0
VERTEX
  5
20b
  8
Layer_0
  10
318.58688
  20
190.52325
  0
VERTEX
  5
20c
  8
Layer_0
  10
317.97684
  20
190.82409
  0
VERTEX
  5
20d
  8
Layer_0
  10
317.41129
  20
191.20198
  0
VERTEX
  5
20e
  8
Layer_0
  10
316.8999
  20
191.65047
  0
VERTEX
  5
20f
  8
Layer_0
  10
316.45142
  20
192.16187
  0
VERTEX
  5
210
  8
Layer_0
  10
316.07352
  20
192.72742
  0
VERTEX
  5
211
  8
Layer_0
  10
315.77267
  20
193.33746
  0
VERTEX
  5
212
  8
Layer_0
  10
315.55402
  20
193.98156
  0
VERTEX
  5
213
  8
Layer_0
  10
315.42133
  20
194.64868
  0
VERTEX
  5
214
  8
Layer_0
  10
315.37683
  20
195.32742
  0
VERTEX
  5
215
  8
Layer_0
  10
315.42133
  20
196.00616
  0
VERTEX
  5
216
  8
Layer_0
  10
315.55402
  20
196.67328
  0
VERTEX
  5
217
  8
Layer_0
  10
315.77267
  20
197.31738
  0
VERTEX
  5
218
  8
Layer_0
  10
316.07352
  20
197.92742
  0
VERTEX
  5
219
  8
Layer_0
  10
316.45142
  20
198.49298
  0
VERTEX
  5
21a
  8
Layer_0
  10
316.8999
  20
199.00438
  0
VERTEX
  5
21b
  8
Layer_0
  10
317.41129
  20
199.45286
  0
VERTEX
  5
21c
  8
Layer_0
  10
317.97684
  20
199.83075
  0
VERTEX
  5
21d
  8
Layer_0
  10
318.58688
  20
200.13159
  0
VERTEX
  5
21e
  8
Layer_0
  10
319.23099
  20
200.35023
  0
VERTEX
  5
21f
  8
Layer_0
  10
319.8981
  20
200.48293
  0
VERTEX
  5
220
  8
Layer_0
  10
320.57684
  20
200.52742
  0
VERTEX
  5
221
  8
Layer_0
  10
321.25558
  20
200.48293
  0
VERTEX
  5
222
  8
Layer_0
  10
321.9227
  20
200.35023
  0
VERTEX
  5
223
  8
Layer_0
  10
322.5668
  20
200.13159
  0
VERTEX
  5
224
  8
Layer_0
  10
323.17685
  20
199.83075
  0
VERTEX
  5
225
  8
Layer_0
  10
323.48648
  20
199.62386
  0
VERTEX
  5
226
  8
Layer_0
  10
323.7424
  20
199.45286
  0
VERTEX
  5
227
  8
Layer_0
  10
324.25378
  20
199.00438
  0
VERTEX
  5
228
  8
Layer_0
  10
324.70227
  20
198.49298
  0
VERTEX
  5
229
  8
Layer_0
  10
324.92484
  20
198.15991
  0
VERTEX
  5
22a
  8
Layer_0
  10
325.08017
  20
197.92742
  0
VERTEX
  5
22b
  8
Layer_0
  10
325.38101
  20
197.31738
  0
VERTEX
  5
22c
  8
Layer_0
  10
325.59967
  20
196.67328
  0
VERTEX
  5
22d
  8
Layer_0
  10
325.73236
  20
196.00616
  0
SEQEND
  0
POLYLINE
  5
22f
  8
Layer_0
  62
0
  66
1
  10
0
  20
0
  30
0
  0
VERTEX
  5
22f
  8
Layer_0
  10
355.84839
  20
230.42492
  0
VERTEX
  5
230
  8
Layer_0
  10
355.77686
  20
230.96844
  0
VERTEX
  5
231
  8
Layer_0
  10
355.84839
  20
231.51196
  0
VERTEX
  5
232
  8
Layer_0
  10
356.0582
  20
232.01843
  0
VERTEX
  5
233
  8
Layer_0
  10
356.39191
  20
232.45336
  0
VERTEX
  5
234
  8
Layer_0
  10
356.82684
  20
232.78709
  0
VERTEX
  5
235
  8
Layer_0
  10
357.33331
  20
232.99688
  0
VERTEX
  5
236
  8
Layer_0
  10
357.87683
  20
233.06844
  0
VERTEX
  5
237
  8
Layer_0
  10
358.42035
  20
232.99688
  0
VERTEX
  5
238
  8
Layer_0
  10
358.92685
  20
232.78709
  0
VERTEX
  5
239
  8
Layer_0
  10
359.36176
  20
232.45336
  0
VERTEX
  5
23a
  8
Layer_0
  10
359.6955
  20
232.01843
  0
VERTEX
  5
23b
  8
Layer_0
  10
359.90527
  20
231.51196
  0
VERTEX
  5
23c
  8
Layer_0
  10
359.97684
  20
230.96844
  0
VERTEX
  5
23d
  8
Layer_0
  10
359.90527
  20
230.42492
  0
VERTEX
  5
23e
  8
Layer_0
  10
359.6955
  20
229.91843
  0
VERTEX
  5
23f
  8
Layer_0
  10
359.36176
  20
229.48351
  0
VERTEX
  5
240
  8
Layer_0
  10
358.92685
  20
229.14978
  0
VERTEX
  5
241
  8
Layer_0
  10
358.42035
  20
228.93999
  0
VERTEX
  5
242
  8
Layer_0
  10
357.87683
  20
228.86844
  0
VERTEX
  5
243
  8
Layer_0
  10
357.33331
  20
228.93999
  0
VERTEX
  5
244
  8
Layer_0
  10
356.82684
  20
229.14978
  0
VERTEX
  5
245
  8
Layer_0
  10
356.39191
  20
229.48351
  0
VERTEX
  5
246
  8
Layer_0
  10
356.0582
  20
229.91843
  0
VERTEX
  5
247
  8
Layer_0
  10
355.84839
  20
230.42492
  0
SEQEND
  0
POLYLINE
  5
249
  8
Layer_0
  62
0
  66
1
  10
0
  20
0
  30
0
  0
VERTEX
  5
249
  8
Layer_0
  10
356.0582
  20
160.63641
  0
VERTEX
  5
24a
  8
Layer_0
  10
355.84839
  20
161.14288
  0
VERTEX
  5
24b
  8
Layer_0
  10
355.77686
  20
161.6864
  0
VERTEX
  5
24c
  8
Layer_0
  10
355.84839
  20
162.22992
  0
VERTEX
  5
24d
  8
Layer_0
  10
356.0582
  20
162.7364
  0
VERTEX
  5
24e
  8
Layer_0
  10
356.39191
  20
163.17133
  0
VERTEX
  5
24f
  8
Layer_0
  10
356.82684
  20
163.50507
  0
VERTEX
  5
250
  8
Layer_0
  10
357.33331
  20
163.71484
  0
VERTEX
  5
251
  8
Layer_0
  10
357.87683
  20
163.78641
  0
VERTEX
  5
252
  8
Layer_0
  10
358.42035
  20
163.71484
  0
VERTEX
  5
253
  8
Layer_0
  10
358.92685
  20
163.50507
  0
VERTEX
  5
254
  8
Layer_0
  10
359.36176
  20
163.17133
  0
VERTEX
  5
255
  8
Layer_0
  10
359.6955
  20
162.7364
  0
VERTEX
  5
256
  8
Layer_0
  10
359.90527
  20
162.22992
  0
VERTEX
  5
257
  8
Layer_0
  10
359.97684
  20
161.6864
  0
VERTEX
  5
258
  8
Layer_0
  10
359.90527
  20
161.14288
  0
VERTEX
  5
259
  8
Layer_0
  10
359.6955
  20
160.63641
  0
VERTEX
  5
25a
  8
Layer_0
  10
359.36176
  20
160.20148
  0
VERTEX
  5
25b
  8
Layer_0
  10
358.92685
  20
159.86775
  0
VERTEX
  5
25c
  8
Layer_0
  10
358.42035
  20
159.65796
  0
VERTEX
  5
25d
  8
Layer_0
  10
357.87683
  20
159.5864
  0
VERTEX
  5
25e
  8
Layer_0
  10
357.33331
  20
159.65796
  0
VERTEX
  5
25f
  8
Layer_0
  10
356.82684
  20
159.86775
  0
VERTEX
  5
260
  8
Layer_0
  10
356.39191
  20
160.20148
  0
VERTEX
  5
261
  8
Layer_0
  10
356.0582
  20
160.63641
  0
SEQEND
  0
POLYLINE
  5
263
  8
Layer_0
  62
0
  66
1
  10
0
  20
0
  30
0
  0
VERTEX
  5
263
  8
Layer_0
  10
395.77686
  20
161.6864
  0
VERTEX
  5
264
  8
Layer_0
  10
395.84839
  20
162.22992
  0
VERTEX
  5
265
  8
Layer_0
  10
396.0582
  20
162.7364
  0
VERTEX
  5
266
  8
Layer_0
  10
396.39191
  20
163.17133
  0
VERTEX
  5
267
  8
Layer_0
  10
396.82684
  20
163.50507
  0
VERTEX
  5
268
  8
Layer_0
  10
397.33331
  20
163.71484
  0
VERTEX
  5
269
  8
Layer_0
  10
397.87683
  20
163.78641
  0
VERTEX
  5
26a
  8
Layer_0
  10
398.42035
  20
163.71484
  0
VERTEX
  5
26b
  8
Layer_0
  10
398.92685
  20
163.50507
  0
VERTEX
  5
26c
  8
Layer_0
  10
399.36176
  20
163.17133
  0
VERTEX
  5
26d
  8
Layer_0
  10
399.6955
  20
162.7364
  0
VERTEX
  5
26e
  8
Layer_0
  10
399.90527
  20
162.22992
  0
VERTEX
  5
26f
  8
Layer_0
  10
399.97684
  20
161.6864
  0
VERTEX
  5
270
  8
Layer_0
  10
399.90527
  20
161.14288
  0
VERTEX
  5
271
  8
Layer_0
  10
399.6955
  20
160.63641
  0
VERTEX
  5
272
  8
Layer_0
  10
399.36176
  20
160.20148
  0
VERTEX
  5
273
  8
Layer_0
  10
398.92685
  20
159.86775
  0
VERTEX
  5
274
  8
Layer_0
  10
398.42035
  20
159.65796
  0
VERTEX
  5
275
  8
Layer_0
  10
397.87683
  20
159.5864
  0
VERTEX
  5
276
  8
Layer_0
  10
397.33331
  20
159.65796
  0
VERTEX
  5
277
  8
Layer_0
  10
396.82684
  20
159.86775
  0
VERTEX
  5
278
  8
Layer_0
  10
396.39191
  20
160.20148
  0
VERTEX
  5
279
  8
Layer_0
  10
396.0582
  20
160.63641
  0
VERTEX
  5
27a
  8
Layer_0
  10
395.84839
  20
161.14288
  0
VERTEX
  5
27b
  8
Layer_0
  10
395.77686
  20
161.6864
  0
SEQEND
  0
POLYLINE
  5
27d
  8
Layer_0
  62
0
  66
1
  10
0
  20
0
  30
0
  0
VERTEX
  5
27d
  8
Layer_0
  10
399.90527
  20
231.51196
  0
VERTEX
  5
27e
  8
Layer_0
  10
399.97684
  20
230.96844
  0
VERTEX
  5
27f
  8
Layer_0
  10
399.90527
  20
230.42492
  0
VERTEX
  5
280
  8
Layer_0
  10
399.6955
  20
229.91843
  0
VERTEX
  5
281
  8
Layer_0
  10
399.36176
  20
229.48351
  0
VERTEX
  5
282
  8
Layer_0
  10
398.92685
  20
229.14978
  0
VERTEX
  5
283
  8
Layer_0
  10
398.42035
  20
228.93999
  0
VERTEX
  5
284
  8
Layer_0
  10
397.87683
  20
228.86844
  0
VERTEX
  5
285
  8
Layer_0
  10
397.33331
  20
228.93999
  0
VERTEX
  5
286
  8
Layer_0
  10
396.82684
  20
229.14978
  0
VERTEX
  5
287
  8
Layer_0
  10
396.39191
  20
229.48351
  0
VERTEX
  5
288
  8
Layer_0
  10
396.0582
  20
229.91843
  0
VERTEX
  5
289
  8
Layer_0
  10
395.84839
  20
230.42492
  0
VERTEX
  5
28a
  8
Layer_0
  10
395.77686
  20
230.96844
  0
VERTEX
  5
28b
  8
Layer_0
  10
395.84839
  20
231.51196
  0
VERTEX
  5
28c
  8
Layer_0
  10
396.0582
  20
232.01843
  0
VERTEX
  5
28d
  8
Layer_0
  10
396.39191
  20
232.45336
  0
VERTEX
  5
28e
  8
Layer_0
  10
396.82684
  20
232.78709
  0
VERTEX
  5
28f
  8
Layer_0
  10
397.33331
  20
232.99688
  0
VERTEX
  5
290
  8
Layer_0
  10
397.87683
  20
233.06844
  0
VERTEX
  5
291
  8
Layer_0
  10
398.42035
  20
232.99688
  0
VERTEX
  5
292
  8
Layer_0
  10
398.92685
  20
232.78709
  0
VERTEX
  5
293
  8
Layer_0
  10
399.36176
  20
232.45336
  0
VERTEX
  5
294
  8
Layer_0
  10
399.6955
  20
232.01843
  0
VERTEX
  5
295
  8
Layer_0
  10
399.90527
  20
231.51196
  0
SEQEND
  0
POLYLINE
  5
297
  8
Layer_0
  62
0
  66
1
  10
0
  20
0
  30
0
  0
VERTEX
  5
297
  8
Layer_0
  10
419.97684
  20
196.32742
  0
VERTEX
  5
298
  8
Layer_0
  10
419.90527
  20
195.78391
  0
VERTEX
  5
299
  8
Layer_0
  10
419.6955
  20
195.27742
  0
VERTEX
  5
29a
  8
Layer_0
  10
419.36176
  20
194.8425
  0
VERTEX
  5
29b
  8
Layer_0
  10
418.92685
  20
194.50877
  0
VERTEX
  5
29c
  8
Layer_0
  10
418.42035
  20
194.29898
  0
VERTEX
  5
29d
  8
Layer_0
  10
417.87683
  20
194.22742
  0
VERTEX
  5
29e
  8
Layer_0
  10
417.33331
  20
194.29898
  0
VERTEX
  5
29f
  8
Layer_0
  10
416.82684
  20
194.50877
  0
VERTEX
  5
2a0
  8
Layer_0
  10
416.39191
  20
194.8425
  0
VERTEX
  5
2a1
  8
Layer_0
  10
416.0582
  20
195.27742
  0
VERTEX
  5
2a2
  8
Layer_0
  10
415.84839
  20
195.78391
  0
VERTEX
  5
2a3
  8
Layer_0
  10
415.77686
  20
196.32742
  0
VERTEX
  5
2a4
  8
Layer_0
  10
415.84839
  20
196.87094
  0
VERTEX
  5
2a5
  8
Layer_0
  10
416.0582
  20
197.37743
  0
VERTEX
  5
2a6
  8
Layer_0
  10
416.39191
  20
197.81235
  0
VERTEX
  5
2a7
  8
Layer_0
  10
416.82684
  20
198.14607
  0
VERTEX
  5
2a8
  8
Layer_0
  10
417.33331
  20
198.35587
  0
VERTEX
  5
2a9
  8
Layer_0
  10
417.87683
  20
198.42742
  0
VERTEX
  5
2aa
  8
Layer_0
  10
418.42035
  20
198.35587
  0
VERTEX
  5
2ab
  8
Layer_0
  10
418.92685
  20
198.14607
  0
VERTEX
  5
2ac
  8
Layer_0
  10
419.36176
  20
197.81235
  0
VERTEX
  5
2ad
  8
Layer_0
  10
419.6955
  20
197.37743
  0
VERTEX
  5
2ae
  8
Layer_0
  10
419.90527
  20
196.87094
  0
VERTEX
  5
2af
  8
Layer_0
  10
419.97684
  20
196.32742
  0
SEQEND
  0
POLYLINE
  5
2b1
  8
Layer_0
  62
0
  66
1
  10
0
  20
0
  30
0
  0
VERTEX
  5
2b1
  8
Layer_0
  10
334.95132
  20
166.01532
  0
VERTEX
  5
2b2
  8
Layer_0
  10
334.01935
  20
166.73044
  0
VERTEX
  5
2b3
  8
Layer_0
  10
333.3042
  20
167.66243
  0
VERTEX
  5
2b4
  8
Layer_0
  10
332.85464
  20
168.74774
  0
VERTEX
  5
2b5
  8
Layer_0
  10
332.70132
  20
169.91243
  0
VERTEX
  5
2b6
  8
Layer_0
  10
332.85464
  20
171.07712
  0
VERTEX
  5
2b7
  8
Layer_0
  10
333.3042
  20
172.16243
  0
VERTEX
  5
2b8
  8
Layer_0
  10
334.01935
  20
173.09441
  0
VERTEX
  5
2b9
  8
Layer_0
  10
334.95132
  20
173.80954
  0
VERTEX
  5
2ba
  8
Layer_0
  10
336.03662
  20
174.25909
  0
VERTEX
  5
2bb
  8
Layer_0
  10
337.20132
  20
174.41243
  0
VERTEX
  5
2bc
  8
Layer_0
  10
338.366
  20
174.25909
  0
VERTEX
  5
2bd
  8
Layer_0
  10
339.45132
  20
173.80954
  0
VERTEX
  5
2be
  8
Layer_0
  10
340.3833
  20
173.09441
  0
VERTEX
  5
2bf
  8
Layer_0
  10
341.09845
  20
172.16243
  0
VERTEX
  5
2c0
  8
Layer_0
  10
341.54797
  20
171.07712
  0
VERTEX
  5
2c1
  8
Layer_0
  10
341.70132
  20
169.91243
  0
VERTEX
  5
2c2
  8
Layer_0
  10
341.54797
  20
168.74774
  0
VERTEX
  5
2c3
  8
Layer_0
  10
341.09845
  20
167.66243
  0
VERTEX
  5
2c4
  8
Layer_0
  10
340.3833
  20
166.73044
  0
VERTEX
  5
2c5
  8
Layer_0
  10
339.45132
  20
166.01532
  0
VERTEX
  5
2c6
  8
Layer_0
  10
338.366
  20
165.56577
  0
VERTEX
  5
2c7
  8
Layer_0
  10
337.20132
  20
165.41243
  0
VERTEX
  5
2c8
  8
Layer_0
  10
336.03662
  20
165.56577
  0
VERTEX
  5
2c9
  8
Layer_0
  10
334.95132
  20
166.01532
  0
SEQEND
  0
POLYLINE
  5
2cb
  8
Layer_0
  62
0
  66
1
  10
0
  20
0
  30
0
  0
VERTEX
  5
2cb
  8
Layer_0
  10
334.01935
  20
128.92439
  0
VERTEX
  5
2cc
  8
Layer_0
  10
334.95132
  20
129.63953
  0
VERTEX
  5
2cd
  8
Layer_0
  10
336.03662
  20
130.08908
  0
VERTEX
  5
2ce
  8
Layer_0
  10
337.20132
  20
130.24242
  0
VERTEX
  5
2cf
  8
Layer_0
  10
338.366
  20
130.08908
  0
VERTEX
  5
2d0
  8
Layer_0
  10
339.45132
  20
129.63953
  0
VERTEX
  5
2d1
  8
Layer_0
  10
340.3833
  20
128.92439
  0
VERTEX
  5
2d2
  8
Layer_0
  10
341.09845
  20
127.99242
  0
VERTEX
  5
2d3
  8
Layer_0
  10
341.54797
  20
126.9071
  0
VERTEX
  5
2d4
  8
Layer_0
  10
341.70132
  20
125.74242
  0
VERTEX
  5
2d5
  8
Layer_0
  10
341.54797
  20
124.57773
  0
VERTEX
  5
2d6
  8
Layer_0
  10
341.09845
  20
123.49242
  0
VERTEX
  5
2d7
  8
Layer_0
  10
340.3833
  20
122.56042
  0
VERTEX
  5
2d8
  8
Layer_0
  10
339.45132
  20
121.84531
  0
VERTEX
  5
2d9
  8
Layer_0
  10
338.366
  20
121.39575
  0
VERTEX
  5
2da
  8
Layer_0
  10
337.20132
  20
121.24242
  0
VERTEX
  5
2db
  8
Layer_0
  10
336.03662
  20
121.39575
  0
VERTEX
  5
2dc
  8
Layer_0
  10
334.95132
  20
121.84531
  0
VERTEX
  5
2dd
  8
Layer_0
  10
334.01935
  20
122.56042
  0
VERTEX
  5
2de
  8
Layer_0
  10
333.3042
  20
123.49242
  0
VERTEX
  5
2df
  8
Layer_0
  10
332.85464
  20
124.57773
  0
VERTEX
  5
2e0
  8
Layer_0
  10
332.70132
  20
125.74242
  0
VERTEX
  5
2e1
  8
Layer_0
  10
332.85464
  20
126.9071
  0
VERTEX
  5
2e2
  8
Layer_0
  10
333.3042
  20
127.99242
  0
VERTEX
  5
2e3
  8
Layer_0
  10
334.01935
  20
128.92439
  0
SEQEND
  0
POLYLINE
  5
2e5
  8
Layer_0
  62
0
  66
1
  10
0
  20
0
  30
0
  0
VERTEX
  5
2e5
  8
Layer_0
  10
419.90527
  20
99.870941
  0
VERTEX
  5
2e6
  8
Layer_0
  10
419.97684
  20
99.327423
  0
VERTEX
  5
2e7
  8
Layer_0
  10
419.90527
  20
98.783905
  0
VERTEX
  5
2e8
  8
Layer_0
  10
419.6955
  20
98.27742
  0
VERTEX
  5
2e9
  8
Layer_0
  10
419.36176
  20
97.842499
  0
VERTEX
  5
2ea
  8
Layer_0
  10
418.92685
  20
97.508774
  0
VERTEX
  5
2eb
  8
Layer_0
  10
418.42035
  20
97.298981
  0
VERTEX
  5
2ec
  8
Layer_0
  10
417.87683
  20
97.227417
  0
VERTEX
  5
2ed
  8
Layer_0
  10
417.33331
  20
97.298981
  0
VERTEX
  5
2ee
  8
Layer_0
  10
416.82684
  20
97.508774
  0
VERTEX
  5
2ef
  8
Layer_0
  10
416.39191
  20
97.842499
  0
VERTEX
  5
2f0
  8
Layer_0
  10
416.0582
  20
98.27742
  0
VERTEX
  5
2f1
  8
Layer_0
  10
415.84839
  20
98.783905
  0
VERTEX
  5
2f2
  8
Layer_0
  10
415.77686
  20
99.327423
  0
VERTEX
  5
2f3
  8
Layer_0
  10
415.84839
  20
99.870941
  0
VERTEX
  5
2f4
  8
Layer_0
  10
416.0582
  20
100.37743
  0
VERTEX
  5
2f5
  8
Layer_0
  10
416.39191
  20
100.81235
  0
VERTEX
  5
2f6
  8
Layer_0
  10
416.82684
  20
101.14607
  0
VERTEX
  5
2f7
  8
Layer_0
  10
417.33331
  20
101.35587
  0
VERTEX
  5
2f8
  8
Layer_0
  10
417.87683
  20
101.42741
  0
VERTEX
  5
2f9
  8
Layer_0
  10
418.42035
  20
101.35587
  0
VERTEX
  5
2fa
  8
Layer_0
  10
418.92685
  20
101.14607
  0
VERTEX
  5
2fb
  8
Layer_0
  10
419.36176
  20
100.81235
  0
VERTEX
  5
2fc
  8
Layer_0
  10
419.6955
  20
100.37743
  0
VERTEX
  5
2fd
  8
Layer_0
  10
419.90527
  20
99.870941
  0
SEQEND
  0
POLYLINE
  5
2ff
  8
Layer_0
  62
0
  66
1
  10
0
  20
0
  30
0
  0
VERTEX
  5
2ff
  8
Layer_0
  10
399.97684
  20
64.686401
  0
VERTEX
  5
300
  8
Layer_0
  10
399.90527
  20
64.142883
  0
VERTEX
  5
301
  8
Layer_0
  10
399.6955
  20
63.636398
  0
VERTEX
  5
302
  8
Layer_0
  10
399.36176
  20
63.201477
  0
VERTEX
  5
303
  8
Layer_0
  10
398.92685
  20
62.867752
  0
VERTEX
  5
304
  8
Layer_0
  10
398.42035
  20
62.657959
  0
VERTEX
  5
305
  8
Layer_0
  10
397.87683
  20
62.586411
  0
VERTEX
  5
306
  8
Layer_0
  10
397.33331
  20
62.657959
  0
VERTEX
  5
307
  8
Layer_0
  10
396.82684
  20
62.867752
  0
VERTEX
  5
308
  8
Layer_0
  10
396.39191
  20
63.201477
  0
VERTEX
  5
309
  8
Layer_0
  10
396.0582
  20
63.636398
  0
VERTEX
  5
30a
  8
Layer_0
  10
395.84839
  20
64.142883
  0
VERTEX
  5
30b
  8
Layer_0
  10
395.77686
  20
64.686401
  0
VERTEX
  5
30c
  8
Layer_0
  10
395.84839
  20
65.229919
  0
VERTEX
  5
30d
  8
Layer_0
  10
396.0582
  20
65.736404
  0
VERTEX
  5
30e
  8
Layer_0
  10
396.39191
  20
66.171326
  0
VERTEX
  5
30f
  8
Layer_0
  10
396.82684
  20
66.505051
  0
VERTEX
  5
310
  8
Layer_0
  10
397.33331
  20
66.714844
  0
VERTEX
  5
311
  8
Layer_0
  10
397.87683
  20
66.786407
  0
VERTEX
  5
312
  8
Layer_0
  10
398.42035
  20
66.714844
  0
VERTEX
  5
313
  8
Layer_0
  10
398.92685
  20
66.505051
  0
VERTEX
  5
314
  8
Layer_0
  10
399.36176
  20
66.171326
  0
VERTEX
  5
315
  8
Layer_0
  10
399.6955
  20
65.736404
  0
VERTEX
  5
316
  8
Layer_0
  10
399.90527
  20
65.229919
  0
VERTEX
  5
317
  8
Layer_0
  10
399.97684
  20
64.686401
  0
SEQEND
  0
POLYLINE
  5
319
  8
Layer_0
  62
0
  66
1
  10
0
  20
0
  30
0
  0
VERTEX
  5
319
  8
Layer_0
  10
395.84839
  20
133.42493
  0
VERTEX
  5
31a
  8
Layer_0
  10
395.77686
  20
133.96844
  0
VERTEX
  5
31b
  8
Layer_0
  10
395.84839
  20
134.51196
  0
VERTEX
  5
31c
  8
Layer_0
  10
396.0582
  20
135.01843
  0
VERTEX
  5
31d
  8
Layer_0
  10
396.39191
  20
135.45337
  0
VERTEX
  5
31e
  8
Layer_0
  10
396.82684
  20
135.78708
  0
VERTEX
  5
31f
  8
Layer_0
  10
397.33331
  20
135.99689
  0
VERTEX
  5
320
  8
Layer_0
  10
397.87683
  20
136.06844
  0
VERTEX
  5
321
  8
Layer_0
  10
398.42035
  20
135.99689
  0
VERTEX
  5
322
  8
Layer_0
  10
398.92685
  20
135.78708
  0
VERTEX
  5
323
  8
Layer_0
  10
399.36176
  20
135.45337
  0
VERTEX
  5
324
  8
Layer_0
  10
399.6955
  20
135.01843
  0
VERTEX
  5
325
  8
Layer_0
  10
399.90527
  20
134.51196
  0
VERTEX
  5
326
  8
Layer_0
  10
399.97684
  20
133.96844
  0
VERTEX
  5
327
  8
Layer_0
  10
399.90527
  20
133.42493
  0
VERTEX
  5
328
  8
Layer_0
  10
399.6955
  20
132.91843
  0
VERTEX
  5
329
  8
Layer_0
  10
399.36176
  20
132.48352
  0
VERTEX
  5
32a
  8
Layer_0
  10
398.92685
  20
132.14978
  0
VERTEX
  5
32b
  8
Layer_0
  10
398.42035
  20
131.94
  0
VERTEX
  5
32c
  8
Layer_0
  10
397.87683
  20
131.86844
  0
VERTEX
  5
32d
  8
Layer_0
  10
397.33331
  20
131.94
  0
VERTEX
  5
32e
  8
Layer_0
  10
396.82684
  20
132.14978
  0
VERTEX
  5
32f
  8
Layer_0
  10
396.39191
  20
132.48352
  0
VERTEX
  5
330
  8
Layer_0
  10
396.0582
  20
132.91843
  0
VERTEX
  5
331
  8
Layer_0
  10
395.84839
  20
133.42493
  0
SEQEND
  0
POLYLINE
  5
333
  8
Layer_0
  62
0
  66
1
  10
0
  20
0
  30
0
  0
VERTEX
  5
333
  8
Layer_0
  10
355.84839
  20
134.51196
  0
VERTEX
  5
334
  8
Layer_0
  10
356.0582
  20
135.01843
  0
VERTEX
  5
335
  8
Layer_0
  10
356.39191
  20
135.45337
  0
VERTEX
  5
336
  8
Layer_0
  10
356.82684
  20
135.78708
  0
VERTEX
  5
337
  8
Layer_0
  10
357.33331
  20
135.99689
  0
VERTEX
  5
338
  8
Layer_0
  10
357.87683
  20
136.06844
  0
VERTEX
  5
339
  8
Layer_0
  10
358.42035
  20
135.99689
  0
VERTEX
  5
33a
  8
Layer_0
  10
358.92685
  20
135.78708
  0
VERTEX
  5
33b
  8
Layer_0
  10
359.36176
  20
135.45337
  0
VERTEX
  5
33c
  8
Layer_0
  10
359.6955
  20
135.01843
  0
VERTEX
  5
33d
  8
Layer_0
  10
359.90527
  20
134.51196
  0
VERTEX
  5
33e
  8
Layer_0
  10
359.97684
  20
133.96844
  0
VERTEX
  5
33f
  8
Layer_0
  10
359.90527
  20
133.42493
  0
VERTEX
  5
340
  8
Layer_0
  10
359.6955
  20
132.91843
  0
VERTEX
  5
341
  8
Layer_0
  10
359.36176
  20
132.48352
  0
VERTEX
  5
342
  8
Layer_0
  10
358.92685
  20
132.14978
  0
VERTEX
  5
343
  8
Layer_0
  10
358.42035
  20
131.94
  0
VERTEX
  5
344
  8
Layer_0
  10
357.87683
  20
131.86844
  0
VERTEX
  5
345
  8
Layer_0
  10
357.33331
  20
131.94
  0
VERTEX
  5
346
  8
Layer_0
  10
356.82684
  20
132.14978
  0
VERTEX
  5
347
  8
Layer_0
  10
356.39191
  20
132.48352
  0
VERTEX
  5
348
  8
Layer_0
  10
356.0582
  20
132.91843
  0
VERTEX
  5
349
  8
Layer_0
  10
355.84839
  20
133.42493
  0
VERTEX
  5
34a
  8
Layer_0
  10
355.77686
  20
133.96844
  0
VERTEX
  5
34b
  8
Layer_0
  10
355.84839
  20
134.51196
  0
SEQEND
  0
POLYLINE
  5
34d
  8
Layer_0
  62
0
  66
1
  10
0
  20
0
  30
0
  0
VERTEX
  5
34d
  8
Layer_0
  10
355.77686
  20
64.686401
  0
VERTEX
  5
34e
  8
Layer_0
  10
355.84839
  20
65.229919
  0
VERTEX
  5
34f
  8
Layer_0
  10
356.0582
  20
65.736404
  0
VERTEX
  5
350
  8
Layer_0
  10
356.39191
  20
66.171326
  0
VERTEX
  5
351
  8
Layer_0
  10
356.82684
  20
66.505051
  0
VERTEX
  5
352
  8
Layer_0
  10
357.33331
  20
66.714844
  0
VERTEX
  5
353
  8
Layer_0
  10
357.87683
  20
66.786407
  0
VERTEX
  5
354
  8
Layer_0
  10
358.42035
  20
66.714844
  0
VERTEX
  5
355
  8
Layer_0
  10
358.92685
  20
66.505051
  0
VERTEX
  5
356
  8
Layer_0
  10
359.36176
  20
66.171326
  0
VERTEX
  5
357
  8
Layer_0
  10
359.6955
  20
65.736404
  0
VERTEX
  5
358
  8
Layer_0
  10
359.90527
  20
65.229919
  0
VERTEX
  5
359
  8
Layer_0
  10
359.97684
  20
64.686401
  0
VERTEX
  5
35a
  8
Layer_0
  10
359.90527
  20
64.142883
  0
VERTEX
  5
35b
  8
Layer_0
  10
359.6955
  20
63.636398
  0
VERTEX
  5
35c
  8
Layer_0
  10
359.36176
  20
63.201477
  0
VERTEX
  5
35d
  8
Layer_0
  10
358.92685
  20
62.867752
  0
VERTEX
  5
35e
  8
Layer_0
  10
358.42035
  20
62.657959
  0
VERTEX
  5
35f
  8
Layer_0
  10
357.87683
  20
62.586411
  0
VERTEX
  5
360
  8
Layer_0
  10
357.33331
  20
62.657959
  0
VERTEX
  5
361
  8
Layer_0
  10
356.82684
  20
62.867752
  0
VERTEX
  5
362
  8
Layer_0
  10
356.39191
  20
63.201477
  0
VERTEX
  5
363
  8
Layer_0
  10
356.0582
  20
63.636398
  0
VERTEX
  5
364
  8
Layer_0
  10
355.84839
  20
64.142883
  0
VERTEX
  5
365
  8
Layer_0
  10
355.77686
  20
64.686401
  0
SEQEND
  0
POLYLINE
  5
367
  8
Layer_0
  62
0
  66
1
  10
0
  20
0
  30
0
  0
VERTEX
  5
367
  8
Layer_0
  10
325.77686
  20
100.32742
  0
VERTEX
  5
368
  8
Layer_0
  10
325.73236
  20
99.648682
  0
VERTEX
  5
369
  8
Layer_0
  10
325.59967
  20
98.981567
  0
VERTEX
  5
36a
  8
Layer_0
  10
325.38101
  20
98.337463
  0
VERTEX
  5
36b
  8
Layer_0
  10
325.08017
  20
97.727417
  0
VERTEX
  5
36c
  8
Layer_0
  10
324.92484
  20
97.494934
  0
VERTEX
  5
36d
  8
Layer_0
  10
324.70227
  20
97.161865
  0
VERTEX
  5
36e
  8
Layer_0
  10
324.25378
  20
96.650467
  0
VERTEX
  5
36f
  8
Layer_0
  10
323.7424
  20
96.201981
  0
VERTEX
  5
370
  8
Layer_0
  10
323.48648
  20
96.030991
  0
VERTEX
  5
371
  8
Layer_0
  10
323.17685
  20
95.824081
  0
VERTEX
  5
372
  8
Layer_0
  10
322.5668
  20
95.523254
  0
VERTEX
  5
373
  8
Layer_0
  10
321.9227
  20
95.304611
  0
VERTEX
  5
374
  8
Layer_0
  10
321.25558
  20
95.171906
  0
VERTEX
  5
375
  8
Layer_0
  10
320.57684
  20
95.127426
  0
VERTEX
  5
376
  8
Layer_0
  10
319.8981
  20
95.171906
  0
VERTEX
  5
377
  8
Layer_0
  10
319.23099
  20
95.304611
  0
VERTEX
  5
378
  8
Layer_0
  10
318.58688
  20
95.523254
  0
VERTEX
  5
379
  8
Layer_0
  10
317.97684
  20
95.824081
  0
VERTEX
  5
37a
  8
Layer_0
  10
317.41129
  20
96.201981
  0
VERTEX
  5
37b
  8
Layer_0
  10
316.8999
  20
96.650467
  0
VERTEX
  5
37c
  8
Layer_0
  10
316.45142
  20
97.161865
  0
VERTEX
  5
37d
  8
Layer_0
  10
316.07352
  20
97.727417
  0
VERTEX
  5
37e
  8
Layer_0
  10
315.77267
  20
98.337463
  0
VERTEX
  5
37f
  8
Layer_0
  10
315.55402
  20
98.981567
  0
VERTEX
  5
380
  8
Layer_0
  10
315.42133
  20
99.648682
  0
VERTEX
  5
381
  8
Layer_0
  10
315.37683
  20
100.32742
  0
VERTEX
  5
382
  8
Layer_0
  10
315.42133
  20
101.00615
  0
VERTEX
  5
383
  8
Layer_0
  10
315.55402
  20
101.67328
  0
VERTEX
  5
384
  8
Layer_0
  10
315.77267
  20
102.31737
  0
VERTEX
  5
385
  8
Layer_0
  10
316.07352
  20
102.92741
  0
VERTEX
  5
386
  8
Layer_0
  10
316.45142
  20
103.49298
  0
VERTEX
  5
387
  8
Layer_0
  10
316.8999
  20
104.00438
  0
VERTEX
  5
388
  8
Layer_0
  10
317.41129
  20
104.45287
  0
VERTEX
  5
389
  8
Layer_0
  10
317.97684
  20
104.83075
  0
VERTEX
  5
38a
  8
Layer_0
  10
318.58688
  20
105.13159
  0
VERTEX
  5
38b
  8
Layer_0
  10
319.23099
  20
105.35023
  0
VERTEX
  5
38c
  8
Layer_0
  10
319.8981
  20
105.48294
  0
VERTEX
  5
38d
  8
Layer_0
  10
320.57684
  20
105.52742
  0
VERTEX
  5
38e
  8
Layer_0
  10
321.25558
  20
105.48294
  0
VERTEX
  5
38f
  8
Layer_0
  10
321.9227
  20
105.35023
  0
VERTEX
  5
390
  8
Layer_0
  10
322.5668
  20
105.13159
  0
VERTEX
  5
391
  8
Layer_0
  10
323.17685
  20
104.83075
  0
VERTEX
  5
392
  8
Layer_0
  10
323.63602
  20
104.52394
  0
VERTEX
  5
393
  8
Layer_0
  10
323.7424
  20
104.45287
  0
VERTEX
  5
394
  8
Layer_0
  10
324.25378
  20
104.00438
  0
VERTEX
  5
395
  8
Layer_0
  10
324.70227
  20
103.49298
  0
VERTEX
  5
396
  8
Layer_0
  10
325.02142
  20
103.01535
  0
VERTEX
  5
397
  8
Layer_0
  10
325.08017
  20
102.92741
  0
VERTEX
  5
398
  8
Layer_0
  10
325.38101
  20
102.31737
  0
VERTEX
  5
399
  8
Layer_0
  10
325.59967
  20
101.67328
  0
VERTEX
  5
39a
  8
Layer_0
  10
325.73236
  20
101.00615
  0
VERTEX
  5
39b
  8
Layer_0
  10
325.77686
  20
100.32742
  0
SEQEND
  0
POLYLINE
  5
39d
  8
Layer_0
  62
0
  66
1
  10
0
  20
0
  30
0
  0
VERTEX
  5
39d
  8
Layer_0
  10
406.9787
  20
177.42844
  0
VERTEX
  5
39e
  8
Layer_0
  10
405.94974
  20
175.93127
  0
VERTEX
  5
39f
  8
Layer_0
  10
404.84381
  20
174.49001
  0
VERTEX
  5
3a0
  8
Layer_0
  10
403.66397
  20
173.10859
  0
VERTEX
  5
3a1
  8
Layer_0
  10
402.41345
  20
171.79082
  0
VERTEX
  5
3a2
  8
Layer_0
  10
401.09567
  20
170.5403
  0
VERTEX
  5
3a3
  8
Layer_0
  10
399.71426
  20
169.36046
  0
VERTEX
  5
3a4
  8
Layer_0
  10
398.27301
  20
168.25453
  0
VERTEX
  5
3a5
  8
Layer_0
  10
396.77582
  20
167.22556
  0
VERTEX
  5
3a6
  8
Layer_0
  10
395.22684
  20
166.27634
  0
VERTEX
  5
3a7
  8
Layer_0
  10
393.63031
  20
165.40948
  0
VERTEX
  5
3a8
  8
Layer_0
  10
391.9906
  20
164.6274
  0
VERTEX
  5
3a9
  8
Layer_0
  10
390.31219
  20
163.93219
  0
VERTEX
  5
3aa
  8
Layer_0
  10
389.4516
  20
163.62741
  0
VERTEX
  5
3ab
  8
Layer_0
  10
389.4516
  20
132.02742
  0
VERTEX
  5
3ac
  8
Layer_0
  10
390.31219
  20
131.72266
  0
VERTEX
  5
3ad
  8
Layer_0
  10
391.9906
  20
131.02745
  0
VERTEX
  5
3ae
  8
Layer_0
  10
393.63031
  20
130.24535
  0
VERTEX
  5
3af
  8
Layer_0
  10
395.22684
  20
129.37851
  0
VERTEX
  5
3b0
  8
Layer_0
  10
396.77582
  20
128.42929
  0
VERTEX
  5
3b1
  8
Layer_0
  10
398.27301
  20
127.4003
  0
VERTEX
  5
3b2
  8
Layer_0
  10
399.71426
  20
126.29439
  0
VERTEX
  5
3b3
  8
Layer_0
  10
401.09567
  20
125.11455
  0
VERTEX
  5
3b4
  8
Layer_0
  10
402.41345
  20
123.86403
  0
VERTEX
  5
3b5
  8
Layer_0
  10
403.66397
  20
122.54625
  0
VERTEX
  5
3b6
  8
Layer_0
  10
404.84381
  20
121.16484
  0
VERTEX
  5
3b7
  8
Layer_0
  10
405.94974
  20
119.72357
  0
VERTEX
  5
3b8
  8
Layer_0
  10
406.9787
  20
118.22639
  0
VERTEX
  5
3b9
  8
Layer_0
  10
407.92792
  20
116.67741
  0
VERTEX
  5
3ba
  8
Layer_0
  10
408.79477
  20
115.08089
  0
VERTEX
  5
3bb
  8
Layer_0
  10
409.57687
  20
113.44118
  0
VERTEX
  5
3bc
  8
Layer_0
  10
410.27209
  20
111.76279
  0
VERTEX
  5
3bd
  8
Layer_0
  10
410.87851
  20
110.05031
  0
VERTEX
  5
3be
  8
Layer_0
  10
411.39447
  20
108.30844
  0
VERTEX
  5
3bf
  8
Layer_0
  10
411.81857
  20
106.54196
  0
VERTEX
  5
3c0
  8
Layer_0
  10
412.14963
  20
104.75569
  0
VERTEX
  5
3c1
  8
Layer_0
  10
412.38675
  20
102.95456
  0
VERTEX
  5
3c2
  8
Layer_0
  10
412.5293
  20
101.14348
  0
VERTEX
  5
3c3
  8
Layer_0
  10
412.57684
  20
99.327423
  0
VERTEX
  5
3c4
  8
Layer_0
  10
412.5293
  20
97.511368
  0
VERTEX
  5
3c5
  8
Layer_0
  10
412.38675
  20
95.700287
  0
VERTEX
  5
3c6
  8
Layer_0
  10
412.14963
  20
93.899139
  0
VERTEX
  5
3c7
  8
Layer_0
  10
411.81857
  20
92.112885
  0
VERTEX
  5
3c8
  8
Layer_0
  10
411.39447
  20
90.346405
  0
VERTEX
  5
3c9
  8
Layer_0
  10
410.87851
  20
88.604538
  0
VERTEX
  5
3ca
  8
Layer_0
  10
410.27209
  20
86.892059
  0
VERTEX
  5
3cb
  8
Layer_0
  10
409.57687
  20
85.213654
  0
VERTEX
  5
3cc
  8
Layer_0
  10
408.79477
  20
83.573944
  0
VERTEX
  5
3cd
  8
Layer_0
  10
407.92792
  20
81.977417
  0
VERTEX
  5
3ce
  8
Layer_0
  10
406.9787
  20
80.428452
  0
VERTEX
  5
3cf
  8
Layer_0
  10
405.94974
  20
78.931274
  0
VERTEX
  5
3d0
  8
Layer_0
  10
404.84381
  20
77.490005
  0
VERTEX
  5
3d1
  8
Layer_0
  10
403.66397
  20
76.108582
  0
VERTEX
  5
3d2
  8
Layer_0
  10
402.41345
  20
74.790817
  0
VERTEX
  5
3d3
  8
Layer_0
  10
401.09567
  20
73.540298
  0
VERTEX
  5
3d4
  8
Layer_0
  10
399.71426
  20
72.360458
  0
VERTEX
  5
3d5
  8
Layer_0
  10
398.27301
  20
71.254532
  0
VERTEX
  5
3d6
  8
Layer_0
  10
396.77582
  20
70.225555
  0
VERTEX
  5
3d7
  8
Layer_0
  10
395.22684
  20
69.276337
  0
VERTEX
  5
3d8
  8
Layer_0
  10
393.63031
  20
68.4095
  0
VERTEX
  5
3d9
  8
Layer_0
  10
391.9906
  20
67.627396
  0
VERTEX
  5
3da
  8
Layer_0
  10
390.31219
  20
66.932175
  0
VERTEX
  5
3db
  8
Layer_0
  10
388.59973
  20
66.32576
  0
VERTEX
  5
3dc
  8
Layer_0
  10
386.85785
  20
65.809799
  0
VERTEX
  5
3dd
  8
Layer_0
  10
385.09137
  20
65.385696
  0
VERTEX
  5
3de
  8
Layer_0
  10
383.30511
  20
65.054642
  0
VERTEX
  5
3df
  8
Layer_0
  10
381.50397
  20
64.817505
  0
VERTEX
  5
3e0
  8
Layer_0
  10
379.6929
  20
64.674973
  0
VERTEX
  5
3e1
  8
Layer_0
  10
377.87683
  20
64.627426
  0
VERTEX
  5
3e2
  8
Layer_0
  10
376.06079
  20
64.674973
  0
VERTEX
  5
3e3
  8
Layer_0
  10
374.24969
  20
64.817505
  0
VERTEX
  5
3e4
  8
Layer_0
  10
372.44858
  20
65.054642
  0
VERTEX
  5
3e5
  8
Layer_0
  10
370.66229
  20
65.385696
  0
VERTEX
  5
3e6
  8
Layer_0
  10
368.89581
  20
65.809799
  0
VERTEX
  5
3e7
  8
Layer_0
  10
367.15396
  20
66.32576
  0
VERTEX
  5
3e8
  8
Layer_0
  10
365.44147
  20
66.932175
  0
VERTEX
  5
3e9
  8
Layer_0
  10
363.76309
  20
67.627396
  0
VERTEX
  5
3ea
  8
Layer_0
  10
362.12338
  20
68.4095
  0
VERTEX
  5
3eb
  8
Layer_0
  10
360.52686
  20
69.276337
  0
VERTEX
  5
3ec
  8
Layer_0
  10
358.97787
  20
70.225555
  0
VERTEX
  5
3ed
  8
Layer_0
  10
357.48068
  20
71.254532
  0
VERTEX
  5
3ee
  8
Layer_0
  10
356.03943
  20
72.360458
  0
VERTEX
  5
3ef
  8
Layer_0
  10
354.65802
  20
73.540298
  0
VERTEX
  5
3f0
  8
Layer_0
  10
353.34024
  20
74.790817
  0
VERTEX
  5
3f1
  8
Layer_0
  10
352.08972
  20
76.108582
  0
VERTEX
  5
3f2
  8
Layer_0
  10
350.90988
  20
77.490005
  0
VERTEX
  5
3f3
  8
Layer_0
  10
349.80396
  20
78.931274
  0
VERTEX
  5
3f4
  8
Layer_0
  10
348.77496
  20
80.428452
  0
VERTEX
  5
3f5
  8
Layer_0
  10
347.82574
  20
81.977417
  0
VERTEX
  5
3f6
  8
Layer_0
  10
346.95892
  20
83.573944
  0
VERTEX
  5
3f7
  8
Layer_0
  10
346.17682
  20
85.213654
  0
VERTEX
  5
3f8
  8
Layer_0
  10
345.4816
  20
86.892059
  0
VERTEX
  5
3f9
  8
Layer_0
  10
344.87518
  20
88.604538
  0
VERTEX
  5
3fa
  8
Layer_0
  10
344.35922
  20
90.346405
  0
VERTEX
  5
3fb
  8
Layer_0
  10
343.93512
  20
92.112885
  0
VERTEX
  5
3fc
  8
Layer_0
  10
343.60406
  20
93.899139
  0
VERTEX
  5
3fd
  8
Layer_0
  10
343.36694
  20
95.700287
  0
VERTEX
  5
3fe
  8
Layer_0
  10
343.2244
  20
97.511368
  0
VERTEX
  5
3ff
  8
Layer_0
  10
343.17685
  20
99.327423
  0
VERTEX
  5
400
  8
Layer_0
  10
343.2244
  20
101.14348
  0
VERTEX
  5
401
  8
Layer_0
  10
343.36694
  20
102.95456
  0
VERTEX
  5
402
  8
Layer_0
  10
343.60406
  20
104.75569
  0
VERTEX
  5
403
  8
Layer_0
  10
343.93512
  20
106.54196
  0
VERTEX
  5
404
  8
Layer_0
  10
344.35922
  20
108.30844
  0
VERTEX
  5
405
  8
Layer_0
  10
344.87518
  20
110.05031
  0
VERTEX
  5
406
  8
Layer_0
  10
345.4816
  20
111.76279
  0
VERTEX
  5
407
  8
Layer_0
  10
346.17682
  20
113.44118
  0
VERTEX
  5
408
  8
Layer_0
  10
346.95892
  20
115.08089
  0
VERTEX
  5
409
  8
Layer_0
  10
347.82574
  20
116.67741
  0
VERTEX
  5
40a
  8
Layer_0
  10
348.77496
  20
118.22639
  0
VERTEX
  5
40b
  8
Layer_0
  10
349.80396
  20
119.72357
  0
VERTEX
  5
40c
  8
Layer_0
  10
350.90988
  20
121.16484
  0
VERTEX
  5
40d
  8
Layer_0
  10
352.08972
  20
122.54625
  0
VERTEX
  5
40e
  8
Layer_0
  10
353.34024
  20
123.86403
  0
VERTEX
  5
40f
  8
Layer_0
  10
354.65802
  20
125.11455
  0
VERTEX
  5
410
  8
Layer_0
  10
356.03943
  20
126.29439
  0
VERTEX
  5
411
  8
Layer_0
  10
357.48068
  20
127.4003
  0
VERTEX
  5
412
  8
Layer_0
  10
358.97787
  20
128.42929
  0
VERTEX
  5
413
  8
Layer_0
  10
360.52686
  20
129.37851
  0
VERTEX
  5
414
  8
Layer_0
  10
362.12338
  20
130.24535
  0
VERTEX
  5
415
  8
Layer_0
  10
363.76309
  20
131.02745
  0
VERTEX
  5
416
  8
Layer_0
  10
365.44147
  20
131.72266
  0
VERTEX
  5
417
  8
Layer_0
  10
366.30209
  20
132.02742
  0
VERTEX
  5
418
  8
Layer_0
  10
366.30209
  20
163.62741
  0
VERTEX
  5
419
  8
Layer_0
  10
365.44147
  20
163.93219
  0
VERTEX
  5
41a
  8
Layer_0
  10
363.76309
  20
164.6274
  0
VERTEX
  5
41b
  8
Layer_0
  10
362.12338
  20
165.40948
  0
VERTEX
  5
41c
  8
Layer_0
  10
360.52686
  20
166.27634
  0
VERTEX
  5
41d
  8
Layer_0
  10
358.97787
  20
167.22556
  0
VERTEX
  5
41e
  8
Layer_0
  10
357.48068
  20
168.25453
  0
VERTEX
  5
41f
  8
Layer_0
  10
356.03943
  20
169.36046
  0
VERTEX
  5
420
  8
Layer_0
  10
354.65802
  20
170.5403
  0
VERTEX
  5
421
  8
Layer_0
  10
353.34024
  20
171.79082
  0
VERTEX
  5
422
  8
Layer_0
  10
352.08972
  20
173.10859
  0
VERTEX
  5
423
  8
Layer_0
  10
350.90988
  20
174.49001
  0
VERTEX
  5
424
  8
Layer_0
  10
349.80396
  20
175.93127
  0
VERTEX
  5
425
  8
Layer_0
  10
348.77496
  20
177.42844
  0
VERTEX
  5
426
  8
Layer_0
  10
347.82574
  20
178.97742
  0
VERTEX
  5
427
  8
Layer_0
  10
346.95892
  20
180.57395
  0
VERTEX
  5
428
  8
Layer_0
  10
346.17682
  20
182.21366
  0
VERTEX
  5
429
  8
Layer_0
  10
345.4816
  20
183.89205
  0
VERTEX
  5
42a
  8
Layer_0
  10
344.87518
  20
185.60453
  0
VERTEX
  5
42b
  8
Layer_0
  10
344.35922
  20
187.34641
  0
VERTEX
  5
42c
  8
Layer_0
  10
343.93512
  20
189.11288
  0
VERTEX
  5
42d
  8
Layer_0
  10
343.60406
  20
190.89914
  0
VERTEX
  5
42e
  8
Layer_0
  10
343.36694
  20
192.70029
  0
VERTEX
  5
42f
  8
Layer_0
  10
343.2244
  20
194.51137
  0
VERTEX
  5
430
  8
Layer_0
  10
343.17685
  20
196.32742
  0
VERTEX
  5
431
  8
Layer_0
  10
343.2244
  20
198.14348
  0
VERTEX
  5
432
  8
Layer_0
  10
343.36694
  20
199.95456
  0
VERTEX
  5
433
  8
Layer_0
  10
343.60406
  20
201.75569
  0
VERTEX
  5
434
  8
Layer_0
  10
343.93512
  20
203.54196
  0
VERTEX
  5
435
  8
Layer_0
  10
344.35922
  20
205.30844
  0
VERTEX
  5
436
  8
Layer_0
  10
344.87518
  20
207.05031
  0
VERTEX
  5
437
  8
Layer_0
  10
345.4816
  20
208.76279
  0
VERTEX
  5
438
  8
Layer_0
  10
346.17682
  20
210.44118
  0
VERTEX
  5
439
  8
Layer_0
  10
346.95892
  20
212.08089
  0
VERTEX
  5
43a
  8
Layer_0
  10
347.82574
  20
213.67742
  0
VERTEX
  5
43b
  8
Layer_0
  10
348.77496
  20
215.22639
  0
VERTEX
  5
43c
  8
Layer_0
  10
349.80396
  20
216.72357
  0
VERTEX
  5
43d
  8
Layer_0
  10
350.90988
  20
218.16484
  0
VERTEX
  5
43e
  8
Layer_0
  10
352.08972
  20
219.54625
  0
VERTEX
  5
43f
  8
Layer_0
  10
353.34024
  20
220.86403
  0
VERTEX
  5
440
  8
Layer_0
  10
354.65802
  20
222.11455
  0
VERTEX
  5
441
  8
Layer_0
  10
356.03943
  20
223.29439
  0
VERTEX
  5
442
  8
Layer_0
  10
357.48068
  20
224.40031
  0
VERTEX
  5
443
  8
Layer_0
  10
358.97787
  20
225.42929
  0
VERTEX
  5
444
  8
Layer_0
  10
360.52686
  20
226.3785
  0
VERTEX
  5
445
  8
Layer_0
  10
362.12338
  20
227.24535
  0
VERTEX
  5
446
  8
Layer_0
  10
363.76309
  20
228.02745
  0
VERTEX
  5
447
  8
Layer_0
  10
365.44147
  20
228.72266
  0
VERTEX
  5
448
  8
Layer_0
  10
367.15396
  20
229.32909
  0
VERTEX
  5
449
  8
Layer_0
  10
368.89581
  20
229.84505
  0
VERTEX
  5
44a
  8
Layer_0
  10
370.66229
  20
230.26914
  0
VERTEX
  5
44b
  8
Layer_0
  10
372.44858
  20
230.6002
  0
VERTEX
  5
44c
  8
Layer_0
  10
374.24969
  20
230.83733
  0
VERTEX
  5
44d
  8
Layer_0
  10
376.06079
  20
230.97987
  0
VERTEX
  5
44e
  8
Layer_0
  10
377.87683
  20
231.02742
  0
VERTEX
  5
44f
  8
Layer_0
  10
379.6929
  20
230.97987
  0
VERTEX
  5
450
  8
Layer_0
  10
381.50397
  20
230.83733
  0
VERTEX
  5
451
  8
Layer_0
  10
383.30511
  20
230.6002
  0
VERTEX
  5
452
  8
Layer_0
  10
385.09137
  20
230.26914
  0
VERTEX
  5
453
  8
Layer_0
  10
386.85785
  20
229.84505
  0
VERTEX
  5
454
  8
Layer_0
  10
388.59973
  20
229.32909
  0
VERTEX
  5
455
  8
Layer_0
  10
390.31219
  20
228.72266
  0
VERTEX
  5
456
  8
Layer_0
  10
391.9906
  20
228.02745
  0
VERTEX
  5
457
  8
Layer_0
  10
393.63031
  20
227.24535
  0
VERTEX
  5
458
  8
Layer_0
  10
395.22684
  20
226.3785
  0
VERTEX
  5
459
  8
Layer_0
  10
396.77582
  20
225.42929
  0
VERTEX
  5
45a
  8
Layer_0
  10
398.27301
  20
224.40031
  0
VERTEX
  5
45b
  8
Layer_0
  10
399.71426
  20
223.29439
  0
VERTEX
  5
45c
  8
Layer_0
  10
401.09567
  20
222.11455
  0
VERTEX
  5
45d
  8
Layer_0
  10
402.41345
  20
220.86403
  0
VERTEX
  5
45e
  8
Layer_0
  10
403.66397
  20
219.54625
  0
VERTEX
  5
45f
  8
Layer_0
  10
404.84381
  20
218.16484
  0
VERTEX
  5
460
  8
Layer_0
  10
405.94974
  20
216.72357
  0
VERTEX
  5
461
  8
Layer_0
  10
406.9787
  20
215.22639
  0
VERTEX
  5
462
  8
Layer_0
  10
407.92792
  20
213.67742
  0
VERTEX
  5
463
  8
Layer_0
  10
408.79477
  20
212.08089
  0
VERTEX
  5
464
  8
Layer_0
  10
409.57687
  20
210.44118
  0
VERTEX
  5
465
  8
Layer_0
  10
410.27209
  20
208.76279
  0
VERTEX
  5
466
  8
Layer_0
  10
410.87851
  20
207.05031
  0
VERTEX
  5
467
  8
Layer_0
  10
411.39447
  20
205.30844
  0
VERTEX
  5
468
  8
Layer_0
  10
411.81857
  20
203.54196
  0
VERTEX
  5
469
  8
Layer_0
  10
412.14963
  20
201.75569
  0
VERTEX
  5
46a
  8
Layer_0
  10
412.38675
  20
199.95456
  0
VERTEX
  5
46b
  8
Layer_0
  10
412.5293
  20
198.14348
  0
VERTEX
  5
46c
  8
Layer_0
  10
412.57684
  20
196.32742
  0
VERTEX
  5
46d
  8
Layer_0
  10
412.5293
  20
194.51137
  0
VERTEX
  5
46e
  8
Layer_0
  10
412.38675
  20
192.70029
  0
VERTEX
  5
46f
  8
Layer_0
  10
412.14963
  20
190.89914
  0
VERTEX
  5
470
  8
Layer_0
  10
411.81857
  20
189.11288
  0
VERTEX
  5
471
  8
Layer_0
  10
411.39447
  20
187.34641
  0
VERTEX
  5
472
  8
Layer_0
  10
410.87851
  20
185.60453
  0
VERTEX
  5
473
  8
Layer_0
  10
410.27209
  20
183.89205
  0
VERTEX
  5
474
  8
Layer_0
  10
409.57687
  20
182.21366
  0
VERTEX
  5
475
  8
Layer_0
  10
408.79477
  20
180.57395
  0
VERTEX
  5
476
  8
Layer_0
  10
407.92792
  20
178.97742
  0
VERTEX
  5
477
  8
Layer_0
  10
406.9787
  20
177.42844
  0
SEQEND
  0
ENDSEC
  0
EOF
