  0
SECTION
  2
HEADER
  9
$ACADVER
  1
AC1009
  0
ENDSEC
  0
SECTION
  2
ENTITIES
  0
POLYLINE
  5
90
  8
Layer_0
  62
0
  66
1
  10
0
  20
0
  30
0
  0
VERTEX
  5
90
  8
Layer_0
  10
329.24231
  20
194.00185
  0
VERTEX
  5
91
  8
Layer_0
  10
345.71313
  20
179.15111
  0
VERTEX
  5
92
  8
Layer_0
  10
346.25693
  20
178.78775
  0
VERTEX
  5
93
  8
Layer_0
  10
346.84351
  20
178.49847
  0
VERTEX
  5
94
  8
Layer_0
  10
347.46283
  20
178.28824
  0
VERTEX
  5
95
  8
Layer_0
  10
348.10431
  20
178.16064
  0
VERTEX
  5
96
  8
Layer_0
  10
348.75693
  20
178.11787
  0
VERTEX
  5
97
  8
Layer_0
  10
350.75693
  20
178.11787
  0
VERTEX
  5
98
  8
Layer_0
  10
351.40955
  20
178.16064
  0
VERTEX
  5
99
  8
Layer_0
  10
352.05103
  20
178.28824
  0
VERTEX
  5
9a
  8
Layer_0
  10
352.67035
  20
178.49847
  0
VERTEX
  5
9b
  8
Layer_0
  10
353.25693
  20
178.78775
  0
VERTEX
  5
9c
  8
Layer_0
  10
353.80072
  20
179.15111
  0
VERTEX
  5
9d
  8
Layer_0
  10
354.29245
  20
179.58234
  0
VERTEX
  5
9e
  8
Layer_0
  10
354.72369
  20
180.07407
  0
VERTEX
  5
9f
  8
Layer_0
  10
355.08707
  20
180.61787
  0
VERTEX
  5
a0
  8
Layer_0
  10
355.37631
  20
181.20445
  0
VERTEX
  5
a1
  8
Layer_0
  10
355.58655
  20
181.82378
  0
VERTEX
  5
a2
  8
Layer_0
  10
355.71414
  20
182.46524
  0
VERTEX
  5
a3
  8
Layer_0
  10
355.75693
  20
183.11787
  0
VERTEX
  5
a4
  8
Layer_0
  10
355.75693
  20
233.11787
  0
VERTEX
  5
a5
  8
Layer_0
  10
355.71414
  20
233.77051
  0
VERTEX
  5
a6
  8
Layer_0
  10
355.58655
  20
234.41197
  0
VERTEX
  5
a7
  8
Layer_0
  10
355.37631
  20
235.0313
  0
VERTEX
  5
a8
  8
Layer_0
  10
355.08707
  20
235.61787
  0
VERTEX
  5
a9
  8
Layer_0
  10
354.72369
  20
236.16168
  0
VERTEX
  5
aa
  8
Layer_0
  10
354.29245
  20
236.65341
  0
VERTEX
  5
ab
  8
Layer_0
  10
353.80072
  20
237.08464
  0
VERTEX
  5
ac
  8
Layer_0
  10
353.25693
  20
237.448
  0
VERTEX
  5
ad
  8
Layer_0
  10
352.67035
  20
237.73727
  0
VERTEX
  5
ae
  8
Layer_0
  10
352.05103
  20
237.94751
  0
VERTEX
  5
af
  8
Layer_0
  10
351.40955
  20
238.0751
  0
VERTEX
  5
b0
  8
Layer_0
  10
350.75693
  20
238.11787
  0
VERTEX
  5
b1
  8
Layer_0
  10
348.75693
  20
238.11787
  0
VERTEX
  5
b2
  8
Layer_0
  10
348.10431
  20
238.0751
  0
VERTEX
  5
b3
  8
Layer_0
  10
347.46283
  20
237.94751
  0
VERTEX
  5
b4
  8
Layer_0
  10
346.84351
  20
237.73727
  0
VERTEX
  5
b5
  8
Layer_0
  10
346.25693
  20
237.448
  0
VERTEX
  5
b6
  8
Layer_0
  10
345.71313
  20
237.08464
  0
VERTEX
  5
b7
  8
Layer_0
  10
329.24231
  20
222.2339
  0
VERTEX
  5
b8
  8
Layer_0
  10
328.80719
  20
221.78278
  0
VERTEX
  5
b9
  8
Layer_0
  10
328.43906
  20
221.27551
  0
VERTEX
  5
ba
  8
Layer_0
  10
328.14502
  20
220.722
  0
VERTEX
  5
bb
  8
Layer_0
  10
327.93082
  20
220.13297
  0
VERTEX
  5
bc
  8
Layer_0
  10
327.8006
  20
219.51987
  0
VERTEX
  5
bd
  8
Layer_0
  10
327.75693
  20
218.89462
  0
VERTEX
  5
be
  8
Layer_0
  10
327.75693
  20
197.34113
  0
VERTEX
  5
bf
  8
Layer_0
  10
327.8006
  20
196.71588
  0
VERTEX
  5
c0
  8
Layer_0
  10
327.93082
  20
196.10278
  0
VERTEX
  5
c1
  8
Layer_0
  10
328.14502
  20
195.51375
  0
VERTEX
  5
c2
  8
Layer_0
  10
328.43906
  20
194.96024
  0
VERTEX
  5
c3
  8
Layer_0
  10
328.80719
  20
194.45297
  0
VERTEX
  5
c4
  8
Layer_0
  10
329.24231
  20
194.00185
  0
SEQEND
  0
POLYLINE
  5
c6
  8
Layer_0
  62
0
  66
1
  10
0
  20
0
  30
0
  0
VERTEX
  5
c6
  8
Layer_0
  10
351.75693
  20
233.11787
  0
VERTEX
  5
c7
  8
Layer_0
  10
351.75693
  20
183.11787
  0
VERTEX
  5
c8
  8
Layer_0
  10
351.72284
  20
182.85905
  0
VERTEX
  5
c9
  8
Layer_0
  10
351.62296
  20
182.61787
  0
VERTEX
  5
ca
  8
Layer_0
  10
351.46405
  20
182.41077
  0
VERTEX
  5
cb
  8
Layer_0
  10
351.25693
  20
182.25185
  0
VERTEX
  5
cc
  8
Layer_0
  10
351.01575
  20
182.15195
  0
VERTEX
  5
cd
  8
Layer_0
  10
350.75693
  20
182.11787
  0
VERTEX
  5
ce
  8
Layer_0
  10
348.75693
  20
182.11787
  0
VERTEX
  5
cf
  8
Layer_0
  10
348.49811
  20
182.15195
  0
VERTEX
  5
d0
  8
Layer_0
  10
348.25693
  20
182.25185
  0
VERTEX
  5
d1
  8
Layer_0
  10
348.0498
  20
182.41077
  0
VERTEX
  5
d2
  8
Layer_0
  10
347.8909
  20
182.61787
  0
VERTEX
  5
d3
  8
Layer_0
  10
347.79102
  20
182.85905
  0
VERTEX
  5
d4
  8
Layer_0
  10
347.75693
  20
183.11787
  0
VERTEX
  5
d5
  8
Layer_0
  10
347.75693
  20
233.11787
  0
VERTEX
  5
d6
  8
Layer_0
  10
347.79102
  20
233.37669
  0
VERTEX
  5
d7
  8
Layer_0
  10
347.8909
  20
233.61787
  0
VERTEX
  5
d8
  8
Layer_0
  10
348.0498
  20
233.82498
  0
VERTEX
  5
d9
  8
Layer_0
  10
348.25693
  20
233.9839
  0
VERTEX
  5
da
  8
Layer_0
  10
348.49811
  20
234.0838
  0
VERTEX
  5
db
  8
Layer_0
  10
348.75693
  20
234.11787
  0
VERTEX
  5
dc
  8
Layer_0
  10
350.75693
  20
234.11787
  0
VERTEX
  5
dd
  8
Layer_0
  10
351.01575
  20
234.0838
  0
VERTEX
  5
de
  8
Layer_0
  10
351.25693
  20
233.9839
  0
VERTEX
  5
df
  8
Layer_0
  10
351.46405
  20
233.82498
  0
VERTEX
  5
e0
  8
Layer_0
  10
351.62296
  20
233.61787
  0
VERTEX
  5
e1
  8
Layer_0
  10
351.72284
  20
233.37669
  0
VERTEX
  5
e2
  8
Layer_0
  10
351.75693
  20
233.11787
  0
SEQEND
  0
POLYLINE
  5
e4
  8
Layer_0
  62
0
  66
1
  10
0
  20
0
  30
0
  0
VERTEX
  5
e4
  8
Layer_0
  10
344.31577
  20
207.21788
  0
VERTEX
  5
e5
  8
Layer_0
  10
344.02972
  20
206.84508
  0
VERTEX
  5
e6
  8
Layer_0
  10
343.65692
  20
206.55902
  0
VERTEX
  5
e7
  8
Layer_0
  10
343.22281
  20
206.37921
  0
VERTEX
  5
e8
  8
Layer_0
  10
342.75693
  20
206.31787
  0
VERTEX
  5
e9
  8
Layer_0
  10
342.29105
  20
206.37921
  0
VERTEX
  5
ea
  8
Layer_0
  10
341.85693
  20
206.55902
  0
VERTEX
  5
eb
  8
Layer_0
  10
341.48413
  20
206.84508
  0
VERTEX
  5
ec
  8
Layer_0
  10
341.19809
  20
207.21788
  0
VERTEX
  5
ed
  8
Layer_0
  10
341.01825
  20
207.65201
  0
VERTEX
  5
ee
  8
Layer_0
  10
340.95694
  20
208.11787
  0
VERTEX
  5
ef
  8
Layer_0
  10
341.01825
  20
208.58374
  0
VERTEX
  5
f0
  8
Layer_0
  10
341.19809
  20
209.01787
  0
VERTEX
  5
f1
  8
Layer_0
  10
341.48413
  20
209.39067
  0
VERTEX
  5
f2
  8
Layer_0
  10
341.85693
  20
209.67673
  0
VERTEX
  5
f3
  8
Layer_0
  10
342.29105
  20
209.85654
  0
VERTEX
  5
f4
  8
Layer_0
  10
342.75693
  20
209.91788
  0
VERTEX
  5
f5
  8
Layer_0
  10
343.22281
  20
209.85654
  0
VERTEX
  5
f6
  8
Layer_0
  10
343.65692
  20
209.67673
  0
VERTEX
  5
f7
  8
Layer_0
  10
344.02972
  20
209.39067
  0
VERTEX
  5
f8
  8
Layer_0
  10
344.31577
  20
209.01787
  0
VERTEX
  5
f9
  8
Layer_0
  10
344.49561
  20
208.58374
  0
VERTEX
  5
fa
  8
Layer_0
  10
344.55692
  20
208.11787
  0
VERTEX
  5
fb
  8
Layer_0
  10
344.49561
  20
207.65201
  0
VERTEX
  5
fc
  8
Layer_0
  10
344.31577
  20
207.21788
  0
SEQEND
  0
POLYLINE
  5
fe
  8
Layer_0
  62
0
  66
1
  10
0
  20
0
  30
0
  0
VERTEX
  5
fe
  8
Layer_0
  10
334.31577
  20
207.21788
  0
VERTEX
  5
ff
  8
Layer_0
  10
334.02972
  20
206.84508
  0
VERTEX
  5
100
  8
Layer_0
  10
333.65692
  20
206.55902
  0
VERTEX
  5
101
  8
Layer_0
  10
333.22281
  20
206.37921
  0
VERTEX
  5
102
  8
Layer_0
  10
332.75693
  20
206.31787
  0
VERTEX
  5
103
  8
Layer_0
  10
332.29105
  20
206.37921
  0
VERTEX
  5
104
  8
Layer_0
  10
331.85693
  20
206.55902
  0
VERTEX
  5
105
  8
Layer_0
  10
331.48413
  20
206.84508
  0
VERTEX
  5
106
  8
Layer_0
  10
331.19809
  20
207.21788
  0
VERTEX
  5
107
  8
Layer_0
  10
331.01825
  20
207.65201
  0
VERTEX
  5
108
  8
Layer_0
  10
330.95694
  20
208.11787
  0
VERTEX
  5
109
  8
Layer_0
  10
331.01825
  20
208.58374
  0
VERTEX
  5
10a
  8
Layer_0
  10
331.19809
  20
209.01787
  0
VERTEX
  5
10b
  8
Layer_0
  10
331.48413
  20
209.39067
  0
VERTEX
  5
10c
  8
Layer_0
  10
331.85693
  20
209.67673
  0
VERTEX
  5
10d
  8
Layer_0
  10
332.29105
  20
209.85654
  0
VERTEX
  5
10e
  8
Layer_0
  10
332.75693
  20
209.91788
  0
VERTEX
  5
10f
  8
Layer_0
  10
333.22281
  20
209.85654
  0
VERTEX
  5
110
  8
Layer_0
  10
333.65692
  20
209.67673
  0
VERTEX
  5
111
  8
Layer_0
  10
334.02972
  20
209.39067
  0
VERTEX
  5
112
  8
Layer_0
  10
334.31577
  20
209.01787
  0
VERTEX
  5
113
  8
Layer_0
  10
334.49561
  20
208.58374
  0
VERTEX
  5
114
  8
Layer_0
  10
334.55692
  20
208.11787
  0
VERTEX
  5
115
  8
Layer_0
  10
334.49561
  20
207.65201
  0
VERTEX
  5
116
  8
Layer_0
  10
334.31577
  20
207.21788
  0
SEQEND
  0
ENDSEC
  0
EOF
