  0
SECTION
  2
HEADER
  9
$ACADVER
  1
AC1009
  0
ENDSEC
  0
SECTION
  2
ENTITIES
  0
POLYLINE
  5
90
  8
Layer_0
  62
0
  66
1
  10
0
  20
0
  30
0
  0
VERTEX
  5
90
  8
Layer_0
  10
285.25174
  20
243.59357
  0
VERTEX
  5
91
  8
Layer_0
  10
285.20807
  20
242.96832
  0
VERTEX
  5
92
  8
Layer_0
  10
285.20807
  20
221.41483
  0
VERTEX
  5
93
  8
Layer_0
  10
285.25174
  20
220.78958
  0
VERTEX
  5
94
  8
Layer_0
  10
285.38196
  20
220.17648
  0
VERTEX
  5
95
  8
Layer_0
  10
285.59616
  20
219.58745
  0
VERTEX
  5
96
  8
Layer_0
  10
285.8902
  20
219.03394
  0
VERTEX
  5
97
  8
Layer_0
  10
286.25833
  20
218.52667
  0
VERTEX
  5
98
  8
Layer_0
  10
286.69345
  20
218.07555
  0
VERTEX
  5
99
  8
Layer_0
  10
303.16425
  20
203.22481
  0
VERTEX
  5
9a
  8
Layer_0
  10
303.70807
  20
202.86145
  0
VERTEX
  5
9b
  8
Layer_0
  10
304.29465
  20
202.57217
  0
VERTEX
  5
9c
  8
Layer_0
  10
304.91397
  20
202.36194
  0
VERTEX
  5
9d
  8
Layer_0
  10
305.55545
  20
202.23434
  0
VERTEX
  5
9e
  8
Layer_0
  10
306.20807
  20
202.19157
  0
VERTEX
  5
9f
  8
Layer_0
  10
308.20807
  20
202.19157
  0
VERTEX
  5
a0
  8
Layer_0
  10
308.86069
  20
202.23434
  0
VERTEX
  5
a1
  8
Layer_0
  10
309.50217
  20
202.36194
  0
VERTEX
  5
a2
  8
Layer_0
  10
310.12149
  20
202.57217
  0
VERTEX
  5
a3
  8
Layer_0
  10
310.70807
  20
202.86145
  0
VERTEX
  5
a4
  8
Layer_0
  10
311.25189
  20
203.22481
  0
VERTEX
  5
a5
  8
Layer_0
  10
311.74359
  20
203.65604
  0
VERTEX
  5
a6
  8
Layer_0
  10
312.17484
  20
204.14777
  0
VERTEX
  5
a7
  8
Layer_0
  10
312.53821
  20
204.69157
  0
VERTEX
  5
a8
  8
Layer_0
  10
312.82745
  20
205.27815
  0
VERTEX
  5
a9
  8
Layer_0
  10
313.03769
  20
205.89748
  0
VERTEX
  5
aa
  8
Layer_0
  10
313.16528
  20
206.53894
  0
VERTEX
  5
ab
  8
Layer_0
  10
313.20807
  20
207.19157
  0
VERTEX
  5
ac
  8
Layer_0
  10
313.20807
  20
257.19157
  0
VERTEX
  5
ad
  8
Layer_0
  10
313.16528
  20
257.84421
  0
VERTEX
  5
ae
  8
Layer_0
  10
313.03769
  20
258.48567
  0
VERTEX
  5
af
  8
Layer_0
  10
312.82745
  20
259.105
  0
VERTEX
  5
b0
  8
Layer_0
  10
312.53821
  20
259.69157
  0
VERTEX
  5
b1
  8
Layer_0
  10
312.17484
  20
260.23538
  0
VERTEX
  5
b2
  8
Layer_0
  10
311.74359
  20
260.72711
  0
VERTEX
  5
b3
  8
Layer_0
  10
311.25189
  20
261.15834
  0
VERTEX
  5
b4
  8
Layer_0
  10
310.70807
  20
261.5217
  0
VERTEX
  5
b5
  8
Layer_0
  10
310.12149
  20
261.81097
  0
VERTEX
  5
b6
  8
Layer_0
  10
309.50217
  20
262.02121
  0
VERTEX
  5
b7
  8
Layer_0
  10
308.86069
  20
262.1488
  0
VERTEX
  5
b8
  8
Layer_0
  10
308.20807
  20
262.19157
  0
VERTEX
  5
b9
  8
Layer_0
  10
306.20807
  20
262.19157
  0
VERTEX
  5
ba
  8
Layer_0
  10
305.55545
  20
262.1488
  0
VERTEX
  5
bb
  8
Layer_0
  10
304.91397
  20
262.02121
  0
VERTEX
  5
bc
  8
Layer_0
  10
304.29465
  20
261.81097
  0
VERTEX
  5
bd
  8
Layer_0
  10
303.70807
  20
261.5217
  0
VERTEX
  5
be
  8
Layer_0
  10
303.16425
  20
261.15834
  0
VERTEX
  5
bf
  8
Layer_0
  10
286.69345
  20
246.3076
  0
VERTEX
  5
c0
  8
Layer_0
  10
286.25833
  20
245.85648
  0
VERTEX
  5
c1
  8
Layer_0
  10
285.8902
  20
245.34921
  0
VERTEX
  5
c2
  8
Layer_0
  10
285.59616
  20
244.7957
  0
VERTEX
  5
c3
  8
Layer_0
  10
285.38196
  20
244.20667
  0
VERTEX
  5
c4
  8
Layer_0
  10
285.25174
  20
243.59357
  0
SEQEND
  0
POLYLINE
  5
c6
  8
Layer_0
  62
0
  66
1
  10
0
  20
0
  30
0
  0
VERTEX
  5
c6
  8
Layer_0
  10
305.20807
  20
207.19157
  0
VERTEX
  5
c7
  8
Layer_0
  10
305.20807
  20
257.19157
  0
VERTEX
  5
c8
  8
Layer_0
  10
305.24216
  20
257.45039
  0
VERTEX
  5
c9
  8
Layer_0
  10
305.34204
  20
257.69157
  0
VERTEX
  5
ca
  8
Layer_0
  10
305.50098
  20
257.89868
  0
VERTEX
  5
cb
  8
Layer_0
  10
305.70807
  20
258.0576
  0
VERTEX
  5
cc
  8
Layer_0
  10
305.94925
  20
258.1575
  0
VERTEX
  5
cd
  8
Layer_0
  10
306.20807
  20
258.19157
  0
VERTEX
  5
ce
  8
Layer_0
  10
308.20807
  20
258.19157
  0
VERTEX
  5
cf
  8
Layer_0
  10
308.46689
  20
258.1575
  0
VERTEX
  5
d0
  8
Layer_0
  10
308.70807
  20
258.0576
  0
VERTEX
  5
d1
  8
Layer_0
  10
308.91516
  20
257.89868
  0
VERTEX
  5
d2
  8
Layer_0
  10
309.0741
  20
257.69157
  0
VERTEX
  5
d3
  8
Layer_0
  10
309.17398
  20
257.45039
  0
VERTEX
  5
d4
  8
Layer_0
  10
309.20807
  20
257.19157
  0
VERTEX
  5
d5
  8
Layer_0
  10
309.20807
  20
207.19157
  0
VERTEX
  5
d6
  8
Layer_0
  10
309.17398
  20
206.93275
  0
VERTEX
  5
d7
  8
Layer_0
  10
309.0741
  20
206.69157
  0
VERTEX
  5
d8
  8
Layer_0
  10
308.91516
  20
206.48447
  0
VERTEX
  5
d9
  8
Layer_0
  10
308.70807
  20
206.32555
  0
VERTEX
  5
da
  8
Layer_0
  10
308.46689
  20
206.22565
  0
VERTEX
  5
db
  8
Layer_0
  10
308.20807
  20
206.19157
  0
VERTEX
  5
dc
  8
Layer_0
  10
306.20807
  20
206.19157
  0
VERTEX
  5
dd
  8
Layer_0
  10
305.94925
  20
206.22565
  0
VERTEX
  5
de
  8
Layer_0
  10
305.70807
  20
206.32555
  0
VERTEX
  5
df
  8
Layer_0
  10
305.50098
  20
206.48447
  0
VERTEX
  5
e0
  8
Layer_0
  10
305.34204
  20
206.69157
  0
VERTEX
  5
e1
  8
Layer_0
  10
305.24216
  20
206.93275
  0
VERTEX
  5
e2
  8
Layer_0
  10
305.20807
  20
207.19157
  0
SEQEND
  0
POLYLINE
  5
e4
  8
Layer_0
  62
0
  66
1
  10
0
  20
0
  30
0
  0
VERTEX
  5
e4
  8
Layer_0
  10
296.94675
  20
231.72571
  0
VERTEX
  5
e5
  8
Layer_0
  10
296.76691
  20
231.29158
  0
VERTEX
  5
e6
  8
Layer_0
  10
296.48087
  20
230.91878
  0
VERTEX
  5
e7
  8
Layer_0
  10
296.10806
  20
230.63272
  0
VERTEX
  5
e8
  8
Layer_0
  10
295.67395
  20
230.45291
  0
VERTEX
  5
e9
  8
Layer_0
  10
295.20807
  20
230.39157
  0
VERTEX
  5
ea
  8
Layer_0
  10
294.74219
  20
230.45291
  0
VERTEX
  5
eb
  8
Layer_0
  10
294.30807
  20
230.63272
  0
VERTEX
  5
ec
  8
Layer_0
  10
293.93527
  20
230.91878
  0
VERTEX
  5
ed
  8
Layer_0
  10
293.64923
  20
231.29158
  0
VERTEX
  5
ee
  8
Layer_0
  10
293.46939
  20
231.72571
  0
VERTEX
  5
ef
  8
Layer_0
  10
293.40808
  20
232.19157
  0
VERTEX
  5
f0
  8
Layer_0
  10
293.46939
  20
232.65744
  0
VERTEX
  5
f1
  8
Layer_0
  10
293.64923
  20
233.09157
  0
VERTEX
  5
f2
  8
Layer_0
  10
293.93527
  20
233.46437
  0
VERTEX
  5
f3
  8
Layer_0
  10
294.30807
  20
233.75043
  0
VERTEX
  5
f4
  8
Layer_0
  10
294.74219
  20
233.93024
  0
VERTEX
  5
f5
  8
Layer_0
  10
295.20807
  20
233.99158
  0
VERTEX
  5
f6
  8
Layer_0
  10
295.67395
  20
233.93024
  0
VERTEX
  5
f7
  8
Layer_0
  10
296.10806
  20
233.75043
  0
VERTEX
  5
f8
  8
Layer_0
  10
296.48087
  20
233.46437
  0
VERTEX
  5
f9
  8
Layer_0
  10
296.76691
  20
233.09157
  0
VERTEX
  5
fa
  8
Layer_0
  10
296.94675
  20
232.65744
  0
VERTEX
  5
fb
  8
Layer_0
  10
297.00806
  20
232.19157
  0
VERTEX
  5
fc
  8
Layer_0
  10
296.94675
  20
231.72571
  0
SEQEND
  0
ENDSEC
  0
EOF
