  0
SECTION
  2
HEADER
  9
$ACADVER
  1
AC1009
  0
ENDSEC
  0
SECTION
  2
ENTITIES
  0
POLYLINE
  5
90
  8
Layer_0
  62
0
  66
1
  10
0
  20
0
  30
0
  0
VERTEX
  5
90
  8
Layer_0
  10
449.53998
  20
233.23099
  0
VERTEX
  5
91
  8
Layer_0
  10
448.19702
  20
233.23099
  0
VERTEX
  5
92
  8
Layer_0
  10
447.92413
  20
232.87535
  0
VERTEX
  5
93
  8
Layer_0
  10
447.46851
  20
232.52573
  0
VERTEX
  5
94
  8
Layer_0
  10
446.9379
  20
232.30594
  0
VERTEX
  5
95
  8
Layer_0
  10
446.3685
  20
232.23099
  0
VERTEX
  5
96
  8
Layer_0
  10
445.7991
  20
232.30594
  0
VERTEX
  5
97
  8
Layer_0
  10
445.26849
  20
232.52573
  0
VERTEX
  5
98
  8
Layer_0
  10
444.81287
  20
232.87535
  0
VERTEX
  5
99
  8
Layer_0
  10
444.53998
  20
233.23099
  0
VERTEX
  5
9a
  8
Layer_0
  10
443.19702
  20
233.23099
  0
VERTEX
  5
9b
  8
Layer_0
  10
442.92413
  20
232.87535
  0
VERTEX
  5
9c
  8
Layer_0
  10
442.46851
  20
232.52573
  0
VERTEX
  5
9d
  8
Layer_0
  10
441.9379
  20
232.30594
  0
VERTEX
  5
9e
  8
Layer_0
  10
441.3685
  20
232.23099
  0
VERTEX
  5
9f
  8
Layer_0
  10
440.7991
  20
232.30594
  0
VERTEX
  5
a0
  8
Layer_0
  10
440.26849
  20
232.52573
  0
VERTEX
  5
a1
  8
Layer_0
  10
439.81287
  20
232.87535
  0
VERTEX
  5
a2
  8
Layer_0
  10
439.53998
  20
233.23099
  0
VERTEX
  5
a3
  8
Layer_0
  10
438.3685
  20
233.23099
  0
VERTEX
  5
a4
  8
Layer_0
  10
437.85086
  20
233.16284
  0
VERTEX
  5
a5
  8
Layer_0
  10
437.3685
  20
232.96304
  0
VERTEX
  5
a6
  8
Layer_0
  10
436.95428
  20
232.6452
  0
VERTEX
  5
a7
  8
Layer_0
  10
436.63644
  20
232.23099
  0
VERTEX
  5
a8
  8
Layer_0
  10
436.43665
  20
231.74863
  0
VERTEX
  5
a9
  8
Layer_0
  10
436.3685
  20
231.23099
  0
VERTEX
  5
aa
  8
Layer_0
  10
436.3685
  20
223.65424
  0
VERTEX
  5
ab
  8
Layer_0
  10
436.41217
  20
223.02899
  0
VERTEX
  5
ac
  8
Layer_0
  10
436.54239
  20
222.41589
  0
VERTEX
  5
ad
  8
Layer_0
  10
436.75659
  20
221.82686
  0
VERTEX
  5
ae
  8
Layer_0
  10
437.05063
  20
221.27335
  0
VERTEX
  5
af
  8
Layer_0
  10
437.41876
  20
220.76608
  0
VERTEX
  5
b0
  8
Layer_0
  10
437.85388
  20
220.31496
  0
VERTEX
  5
b1
  8
Layer_0
  10
454.32471
  20
205.46422
  0
VERTEX
  5
b2
  8
Layer_0
  10
454.8685
  20
205.10086
  0
VERTEX
  5
b3
  8
Layer_0
  10
455.45508
  20
204.81158
  0
VERTEX
  5
b4
  8
Layer_0
  10
456.0744
  20
204.60135
  0
VERTEX
  5
b5
  8
Layer_0
  10
456.71588
  20
204.47375
  0
VERTEX
  5
b6
  8
Layer_0
  10
457.3685
  20
204.43098
  0
VERTEX
  5
b7
  8
Layer_0
  10
459.3685
  20
204.43098
  0
VERTEX
  5
b8
  8
Layer_0
  10
460.02112
  20
204.47375
  0
VERTEX
  5
b9
  8
Layer_0
  10
460.6626
  20
204.60135
  0
VERTEX
  5
ba
  8
Layer_0
  10
461.28192
  20
204.81158
  0
VERTEX
  5
bb
  8
Layer_0
  10
461.8685
  20
205.10086
  0
VERTEX
  5
bc
  8
Layer_0
  10
462.41229
  20
205.46422
  0
VERTEX
  5
bd
  8
Layer_0
  10
462.90402
  20
205.89545
  0
VERTEX
  5
be
  8
Layer_0
  10
463.33527
  20
206.38718
  0
VERTEX
  5
bf
  8
Layer_0
  10
463.69864
  20
206.93098
  0
VERTEX
  5
c0
  8
Layer_0
  10
463.98788
  20
207.51756
  0
VERTEX
  5
c1
  8
Layer_0
  10
464.19812
  20
208.13689
  0
VERTEX
  5
c2
  8
Layer_0
  10
464.32571
  20
208.77835
  0
VERTEX
  5
c3
  8
Layer_0
  10
464.3685
  20
209.43098
  0
VERTEX
  5
c4
  8
Layer_0
  10
464.3685
  20
259.43098
  0
VERTEX
  5
c5
  8
Layer_0
  10
464.32571
  20
260.08362
  0
VERTEX
  5
c6
  8
Layer_0
  10
464.19812
  20
260.72508
  0
VERTEX
  5
c7
  8
Layer_0
  10
463.98788
  20
261.34441
  0
VERTEX
  5
c8
  8
Layer_0
  10
463.69864
  20
261.93098
  0
VERTEX
  5
c9
  8
Layer_0
  10
463.33527
  20
262.47479
  0
VERTEX
  5
ca
  8
Layer_0
  10
462.90402
  20
262.96652
  0
VERTEX
  5
cb
  8
Layer_0
  10
462.41229
  20
263.39775
  0
VERTEX
  5
cc
  8
Layer_0
  10
461.8685
  20
263.76111
  0
VERTEX
  5
cd
  8
Layer_0
  10
461.28192
  20
264.05038
  0
VERTEX
  5
ce
  8
Layer_0
  10
460.6626
  20
264.26062
  0
VERTEX
  5
cf
  8
Layer_0
  10
460.02112
  20
264.38821
  0
VERTEX
  5
d0
  8
Layer_0
  10
459.3685
  20
264.43098
  0
VERTEX
  5
d1
  8
Layer_0
  10
457.3685
  20
264.43098
  0
VERTEX
  5
d2
  8
Layer_0
  10
456.71588
  20
264.38821
  0
VERTEX
  5
d3
  8
Layer_0
  10
456.0744
  20
264.26062
  0
VERTEX
  5
d4
  8
Layer_0
  10
455.45508
  20
264.05038
  0
VERTEX
  5
d5
  8
Layer_0
  10
454.8685
  20
263.76111
  0
VERTEX
  5
d6
  8
Layer_0
  10
454.32471
  20
263.39775
  0
VERTEX
  5
d7
  8
Layer_0
  10
437.85388
  20
248.54701
  0
VERTEX
  5
d8
  8
Layer_0
  10
437.41876
  20
248.09589
  0
VERTEX
  5
d9
  8
Layer_0
  10
437.05063
  20
247.58862
  0
VERTEX
  5
da
  8
Layer_0
  10
436.75659
  20
247.03511
  0
VERTEX
  5
db
  8
Layer_0
  10
436.54239
  20
246.44608
  0
VERTEX
  5
dc
  8
Layer_0
  10
436.41217
  20
245.83298
  0
VERTEX
  5
dd
  8
Layer_0
  10
436.3685
  20
245.20773
  0
VERTEX
  5
de
  8
Layer_0
  10
436.3685
  20
237.63098
  0
VERTEX
  5
df
  8
Layer_0
  10
436.43665
  20
237.11334
  0
VERTEX
  5
e0
  8
Layer_0
  10
436.63644
  20
236.63098
  0
VERTEX
  5
e1
  8
Layer_0
  10
436.95428
  20
236.21677
  0
VERTEX
  5
e2
  8
Layer_0
  10
437.3685
  20
235.89893
  0
VERTEX
  5
e3
  8
Layer_0
  10
437.85086
  20
235.69913
  0
VERTEX
  5
e4
  8
Layer_0
  10
438.3685
  20
235.63098
  0
VERTEX
  5
e5
  8
Layer_0
  10
439.53998
  20
235.63098
  0
VERTEX
  5
e6
  8
Layer_0
  10
439.81287
  20
235.98662
  0
VERTEX
  5
e7
  8
Layer_0
  10
440.26849
  20
236.33624
  0
VERTEX
  5
e8
  8
Layer_0
  10
440.7991
  20
236.55602
  0
VERTEX
  5
e9
  8
Layer_0
  10
441.3685
  20
236.63098
  0
VERTEX
  5
ea
  8
Layer_0
  10
441.9379
  20
236.55602
  0
VERTEX
  5
eb
  8
Layer_0
  10
442.46851
  20
236.33624
  0
VERTEX
  5
ec
  8
Layer_0
  10
442.92413
  20
235.98662
  0
VERTEX
  5
ed
  8
Layer_0
  10
443.19702
  20
235.63098
  0
VERTEX
  5
ee
  8
Layer_0
  10
444.53998
  20
235.63098
  0
VERTEX
  5
ef
  8
Layer_0
  10
444.81287
  20
235.98662
  0
VERTEX
  5
f0
  8
Layer_0
  10
445.26849
  20
236.33624
  0
VERTEX
  5
f1
  8
Layer_0
  10
445.7991
  20
236.55602
  0
VERTEX
  5
f2
  8
Layer_0
  10
446.3685
  20
236.63098
  0
VERTEX
  5
f3
  8
Layer_0
  10
446.9379
  20
236.55602
  0
VERTEX
  5
f4
  8
Layer_0
  10
447.46851
  20
236.33624
  0
VERTEX
  5
f5
  8
Layer_0
  10
447.92413
  20
235.98662
  0
VERTEX
  5
f6
  8
Layer_0
  10
448.19702
  20
235.63098
  0
VERTEX
  5
f7
  8
Layer_0
  10
449.53998
  20
235.63098
  0
VERTEX
  5
f8
  8
Layer_0
  10
449.81287
  20
235.98662
  0
VERTEX
  5
f9
  8
Layer_0
  10
450.26849
  20
236.33624
  0
VERTEX
  5
fa
  8
Layer_0
  10
450.7991
  20
236.55602
  0
VERTEX
  5
fb
  8
Layer_0
  10
451.3685
  20
236.63098
  0
VERTEX
  5
fc
  8
Layer_0
  10
451.9379
  20
236.55602
  0
VERTEX
  5
fd
  8
Layer_0
  10
452.46851
  20
236.33624
  0
VERTEX
  5
fe
  8
Layer_0
  10
452.92413
  20
235.98662
  0
VERTEX
  5
ff
  8
Layer_0
  10
453.19702
  20
235.63098
  0
VERTEX
  5
100
  8
Layer_0
  10
454.3685
  20
235.63098
  0
VERTEX
  5
101
  8
Layer_0
  10
454.3685
  20
233.23099
  0
VERTEX
  5
102
  8
Layer_0
  10
453.19702
  20
233.23099
  0
VERTEX
  5
103
  8
Layer_0
  10
452.92413
  20
232.87535
  0
VERTEX
  5
104
  8
Layer_0
  10
452.46851
  20
232.52573
  0
VERTEX
  5
105
  8
Layer_0
  10
451.9379
  20
232.30594
  0
VERTEX
  5
106
  8
Layer_0
  10
451.3685
  20
232.23099
  0
VERTEX
  5
107
  8
Layer_0
  10
450.7991
  20
232.30594
  0
VERTEX
  5
108
  8
Layer_0
  10
450.26849
  20
232.52573
  0
VERTEX
  5
109
  8
Layer_0
  10
449.81287
  20
232.87535
  0
VERTEX
  5
10a
  8
Layer_0
  10
449.53998
  20
233.23099
  0
SEQEND
  0
POLYLINE
  5
10c
  8
Layer_0
  62
0
  66
1
  10
0
  20
0
  30
0
  0
VERTEX
  5
10c
  8
Layer_0
  10
456.3685
  20
209.43098
  0
VERTEX
  5
10d
  8
Layer_0
  10
456.3685
  20
259.43098
  0
VERTEX
  5
10e
  8
Layer_0
  10
456.40259
  20
259.6898
  0
VERTEX
  5
10f
  8
Layer_0
  10
456.50247
  20
259.93098
  0
VERTEX
  5
110
  8
Layer_0
  10
456.66138
  20
260.13809
  0
VERTEX
  5
111
  8
Layer_0
  10
456.8685
  20
260.29701
  0
VERTEX
  5
112
  8
Layer_0
  10
457.10968
  20
260.39691
  0
VERTEX
  5
113
  8
Layer_0
  10
457.3685
  20
260.43098
  0
VERTEX
  5
114
  8
Layer_0
  10
459.3685
  20
260.43098
  0
VERTEX
  5
115
  8
Layer_0
  10
459.62732
  20
260.39691
  0
VERTEX
  5
116
  8
Layer_0
  10
459.8685
  20
260.29701
  0
VERTEX
  5
117
  8
Layer_0
  10
460.07562
  20
260.13809
  0
VERTEX
  5
118
  8
Layer_0
  10
460.23453
  20
259.93098
  0
VERTEX
  5
119
  8
Layer_0
  10
460.33441
  20
259.6898
  0
VERTEX
  5
11a
  8
Layer_0
  10
460.3685
  20
259.43098
  0
VERTEX
  5
11b
  8
Layer_0
  10
460.3685
  20
209.43098
  0
VERTEX
  5
11c
  8
Layer_0
  10
460.33441
  20
209.17216
  0
VERTEX
  5
11d
  8
Layer_0
  10
460.23453
  20
208.93098
  0
VERTEX
  5
11e
  8
Layer_0
  10
460.07562
  20
208.72388
  0
VERTEX
  5
11f
  8
Layer_0
  10
459.8685
  20
208.56496
  0
VERTEX
  5
120
  8
Layer_0
  10
459.62732
  20
208.46506
  0
VERTEX
  5
121
  8
Layer_0
  10
459.3685
  20
208.43098
  0
VERTEX
  5
122
  8
Layer_0
  10
457.3685
  20
208.43098
  0
VERTEX
  5
123
  8
Layer_0
  10
457.10968
  20
208.46506
  0
VERTEX
  5
124
  8
Layer_0
  10
456.8685
  20
208.56496
  0
VERTEX
  5
125
  8
Layer_0
  10
456.66138
  20
208.72388
  0
VERTEX
  5
126
  8
Layer_0
  10
456.50247
  20
208.93098
  0
VERTEX
  5
127
  8
Layer_0
  10
456.40259
  20
209.17216
  0
VERTEX
  5
128
  8
Layer_0
  10
456.3685
  20
209.43098
  0
SEQEND
  0
ENDSEC
  0
EOF
