  0
SECTION
  2
HEADER
  9
$ACADVER
  1
AC1009
  0
ENDSEC
  0
SECTION
  2
ENTITIES
  0
POLYLINE
  5
90
  8
Layer_0
  62
0
  66
1
  10
0
  20
0
  30
0
  0
VERTEX
  5
90
  8
Layer_0
  10
272.05939
  20
177.86485
  0
VERTEX
  5
91
  8
Layer_0
  10
270.46503
  20
175.65015
  0
VERTEX
  5
92
  8
Layer_0
  10
268.77588
  20
173.44879
  0
VERTEX
  5
93
  8
Layer_0
  10
267.20422
  20
171.16205
  0
VERTEX
  5
94
  8
Layer_0
  10
265.75443
  20
168.79617
  0
VERTEX
  5
95
  8
Layer_0
  10
264.43042
  20
166.35767
  0
VERTEX
  5
96
  8
Layer_0
  10
263.23587
  20
163.85321
  0
VERTEX
  5
97
  8
Layer_0
  10
262.17401
  20
161.28967
  0
VERTEX
  5
98
  8
Layer_0
  10
261.24777
  20
158.67407
  0
VERTEX
  5
99
  8
Layer_0
  10
260.45972
  20
156.01358
  0
VERTEX
  5
9a
  8
Layer_0
  10
259.81195
  20
153.31549
  0
VERTEX
  5
9b
  8
Layer_0
  10
259.3063
  20
150.5872
  0
VERTEX
  5
9c
  8
Layer_0
  10
258.94412
  20
147.83618
  0
VERTEX
  5
9d
  8
Layer_0
  10
258.72641
  20
145.06998
  0
VERTEX
  5
9e
  8
Layer_0
  10
258.65378
  20
142.29617
  0
VERTEX
  5
9f
  8
Layer_0
  10
258.70175
  20
140.46368
  0
VERTEX
  5
a0
  8
Layer_0
  10
258.72641
  20
139.52237
  0
VERTEX
  5
a1
  8
Layer_0
  10
258.94412
  20
136.75616
  0
VERTEX
  5
a2
  8
Layer_0
  10
259.3063
  20
134.00514
  0
VERTEX
  5
a3
  8
Layer_0
  10
259.81195
  20
131.27686
  0
VERTEX
  5
a4
  8
Layer_0
  10
260.45972
  20
128.57877
  0
VERTEX
  5
a5
  8
Layer_0
  10
261.24777
  20
125.91827
  0
VERTEX
  5
a6
  8
Layer_0
  10
262.17401
  20
123.30267
  0
VERTEX
  5
a7
  8
Layer_0
  10
263.09772
  20
121.07268
  0
VERTEX
  5
a8
  8
Layer_0
  10
263.23587
  20
120.73914
  0
VERTEX
  5
a9
  8
Layer_0
  10
264.43042
  20
118.23468
  0
VERTEX
  5
aa
  8
Layer_0
  10
265.75443
  20
115.79617
  0
VERTEX
  5
ab
  8
Layer_0
  10
267.20422
  20
113.4303
  0
VERTEX
  5
ac
  8
Layer_0
  10
268.77588
  20
111.14355
  0
VERTEX
  5
ad
  8
Layer_0
  10
270.46503
  20
108.9422
  0
VERTEX
  5
ae
  8
Layer_0
  10
272.26709
  20
106.83224
  0
VERTEX
  5
af
  8
Layer_0
  10
274.17712
  20
104.81952
  0
VERTEX
  5
b0
  8
Layer_0
  10
276.18985
  20
102.9095
  0
VERTEX
  5
b1
  8
Layer_0
  10
278.2998
  20
101.10744
  0
VERTEX
  5
b2
  8
Layer_0
  10
280.50116
  20
99.418274
  0
VERTEX
  5
b3
  8
Layer_0
  10
282.7879
  20
97.846634
  0
VERTEX
  5
b4
  8
Layer_0
  10
285.15378
  20
96.39682
  0
VERTEX
  5
b5
  8
Layer_0
  10
287.59229
  20
95.07283
  0
VERTEX
  5
b6
  8
Layer_0
  10
290.09674
  20
93.878265
  0
VERTEX
  5
b7
  8
Layer_0
  10
292.66028
  20
92.816406
  0
VERTEX
  5
b8
  8
Layer_0
  10
295.27588
  20
91.890182
  0
VERTEX
  5
b9
  8
Layer_0
  10
297.93637
  20
91.102112
  0
VERTEX
  5
ba
  8
Layer_0
  10
300.63446
  20
90.454346
  0
VERTEX
  5
bb
  8
Layer_0
  10
303.36276
  20
89.948685
  0
VERTEX
  5
bc
  8
Layer_0
  10
306.11377
  20
89.586517
  0
VERTEX
  5
bd
  8
Layer_0
  10
308.87997
  20
89.368805
  0
VERTEX
  5
be
  8
Layer_0
  10
311.65378
  20
89.296173
  0
VERTEX
  5
bf
  8
Layer_0
  10
314.42758
  20
89.368805
  0
VERTEX
  5
c0
  8
Layer_0
  10
317.19379
  20
89.586517
  0
VERTEX
  5
c1
  8
Layer_0
  10
319.94479
  20
89.948685
  0
VERTEX
  5
c2
  8
Layer_0
  10
322.6731
  20
90.454346
  0
VERTEX
  5
c3
  8
Layer_0
  10
325.37119
  20
91.102112
  0
VERTEX
  5
c4
  8
Layer_0
  10
328.03168
  20
91.890182
  0
VERTEX
  5
c5
  8
Layer_0
  10
330.64728
  20
92.816406
  0
VERTEX
  5
c6
  8
Layer_0
  10
333.21082
  20
93.878265
  0
VERTEX
  5
c7
  8
Layer_0
  10
335.71527
  20
95.07283
  0
VERTEX
  5
c8
  8
Layer_0
  10
338.15378
  20
96.39682
  0
VERTEX
  5
c9
  8
Layer_0
  10
340.51965
  20
97.846634
  0
VERTEX
  5
ca
  8
Layer_0
  10
342.8064
  20
99.418274
  0
VERTEX
  5
cb
  8
Layer_0
  10
345.00775
  20
101.10744
  0
VERTEX
  5
cc
  8
Layer_0
  10
347.11771
  20
102.9095
  0
VERTEX
  5
cd
  8
Layer_0
  10
349.13043
  20
104.81952
  0
VERTEX
  5
ce
  8
Layer_0
  10
351.04047
  20
106.83224
  0
VERTEX
  5
cf
  8
Layer_0
  10
352.84253
  20
108.9422
  0
VERTEX
  5
d0
  8
Layer_0
  10
354.53168
  20
111.14355
  0
VERTEX
  5
d1
  8
Layer_0
  10
356.10333
  20
113.4303
  0
VERTEX
  5
d2
  8
Layer_0
  10
357.55313
  20
115.79617
  0
VERTEX
  5
d3
  8
Layer_0
  10
358.87714
  20
118.23468
  0
VERTEX
  5
d4
  8
Layer_0
  10
360.07169
  20
120.73914
  0
VERTEX
  5
d5
  8
Layer_0
  10
361.13354
  20
123.30267
  0
VERTEX
  5
d6
  8
Layer_0
  10
362.05978
  20
125.91827
  0
VERTEX
  5
d7
  8
Layer_0
  10
362.84784
  20
128.57877
  0
VERTEX
  5
d8
  8
Layer_0
  10
363.49561
  20
131.27686
  0
VERTEX
  5
d9
  8
Layer_0
  10
364.00125
  20
134.00514
  0
VERTEX
  5
da
  8
Layer_0
  10
364.36343
  20
136.75616
  0
VERTEX
  5
db
  8
Layer_0
  10
364.58115
  20
139.52237
  0
VERTEX
  5
dc
  8
Layer_0
  10
364.65378
  20
142.29617
  0
VERTEX
  5
dd
  8
Layer_0
  10
364.58115
  20
145.06998
  0
VERTEX
  5
de
  8
Layer_0
  10
364.36343
  20
147.83618
  0
VERTEX
  5
df
  8
Layer_0
  10
364.00125
  20
150.5872
  0
VERTEX
  5
e0
  8
Layer_0
  10
363.49561
  20
153.31549
  0
VERTEX
  5
e1
  8
Layer_0
  10
362.84784
  20
156.01358
  0
VERTEX
  5
e2
  8
Layer_0
  10
362.05978
  20
158.67407
  0
VERTEX
  5
e3
  8
Layer_0
  10
361.13354
  20
161.28967
  0
VERTEX
  5
e4
  8
Layer_0
  10
360.07169
  20
163.85321
  0
VERTEX
  5
e5
  8
Layer_0
  10
358.87714
  20
166.35767
  0
VERTEX
  5
e6
  8
Layer_0
  10
357.55313
  20
168.79617
  0
VERTEX
  5
e7
  8
Layer_0
  10
356.10333
  20
171.16205
  0
VERTEX
  5
e8
  8
Layer_0
  10
354.53168
  20
173.44879
  0
VERTEX
  5
e9
  8
Layer_0
  10
352.84253
  20
175.65015
  0
VERTEX
  5
ea
  8
Layer_0
  10
351.24817
  20
177.86485
  0
VERTEX
  5
eb
  8
Layer_0
  10
349.91479
  20
180.24578
  0
VERTEX
  5
ec
  8
Layer_0
  10
348.8595
  20
182.76235
  0
VERTEX
  5
ed
  8
Layer_0
  10
348.09589
  20
185.38222
  0
VERTEX
  5
ee
  8
Layer_0
  10
347.63373
  20
188.07168
  0
VERTEX
  5
ef
  8
Layer_0
  10
347.47903
  20
190.79617
  0
VERTEX
  5
f0
  8
Layer_0
  10
347.63373
  20
193.52067
  0
VERTEX
  5
f1
  8
Layer_0
  10
348.09589
  20
196.21013
  0
VERTEX
  5
f2
  8
Layer_0
  10
348.8595
  20
198.82999
  0
VERTEX
  5
f3
  8
Layer_0
  10
349.91479
  20
201.34657
  0
VERTEX
  5
f4
  8
Layer_0
  10
351.24817
  20
203.7275
  0
VERTEX
  5
f5
  8
Layer_0
  10
352.84253
  20
205.94219
  0
VERTEX
  5
f6
  8
Layer_0
  10
354.53168
  20
208.14355
  0
VERTEX
  5
f7
  8
Layer_0
  10
356.10333
  20
210.43031
  0
VERTEX
  5
f8
  8
Layer_0
  10
357.55313
  20
212.79617
  0
VERTEX
  5
f9
  8
Layer_0
  10
358.87714
  20
215.23468
  0
VERTEX
  5
fa
  8
Layer_0
  10
360.07169
  20
217.73913
  0
VERTEX
  5
fb
  8
Layer_0
  10
361.13354
  20
220.30267
  0
VERTEX
  5
fc
  8
Layer_0
  10
362.05978
  20
222.91827
  0
VERTEX
  5
fd
  8
Layer_0
  10
362.84784
  20
225.57877
  0
VERTEX
  5
fe
  8
Layer_0
  10
363.49561
  20
228.27686
  0
VERTEX
  5
ff
  8
Layer_0
  10
364.00125
  20
231.00514
  0
VERTEX
  5
100
  8
Layer_0
  10
364.36343
  20
233.75616
  0
VERTEX
  5
101
  8
Layer_0
  10
364.58115
  20
236.52237
  0
VERTEX
  5
102
  8
Layer_0
  10
364.65378
  20
239.29617
  0
VERTEX
  5
103
  8
Layer_0
  10
364.58115
  20
242.06998
  0
VERTEX
  5
104
  8
Layer_0
  10
364.36343
  20
244.83618
  0
VERTEX
  5
105
  8
Layer_0
  10
364.00125
  20
247.5872
  0
VERTEX
  5
106
  8
Layer_0
  10
363.49561
  20
250.31549
  0
VERTEX
  5
107
  8
Layer_0
  10
362.84784
  20
253.01358
  0
VERTEX
  5
108
  8
Layer_0
  10
362.05978
  20
255.67407
  0
VERTEX
  5
109
  8
Layer_0
  10
361.13354
  20
258.28967
  0
VERTEX
  5
10a
  8
Layer_0
  10
360.07169
  20
260.85321
  0
VERTEX
  5
10b
  8
Layer_0
  10
358.87714
  20
263.35767
  0
VERTEX
  5
10c
  8
Layer_0
  10
357.55313
  20
265.79617
  0
VERTEX
  5
10d
  8
Layer_0
  10
356.10333
  20
268.16204
  0
VERTEX
  5
10e
  8
Layer_0
  10
354.53168
  20
270.44879
  0
VERTEX
  5
10f
  8
Layer_0
  10
352.84253
  20
272.65015
  0
VERTEX
  5
110
  8
Layer_0
  10
351.04047
  20
274.7601
  0
VERTEX
  5
111
  8
Layer_0
  10
349.13043
  20
276.77283
  0
VERTEX
  5
112
  8
Layer_0
  10
347.11771
  20
278.68285
  0
VERTEX
  5
113
  8
Layer_0
  10
345.00775
  20
280.48491
  0
VERTEX
  5
114
  8
Layer_0
  10
342.8064
  20
282.17407
  0
VERTEX
  5
115
  8
Layer_0
  10
340.51965
  20
283.74571
  0
VERTEX
  5
116
  8
Layer_0
  10
338.15378
  20
285.19552
  0
VERTEX
  5
117
  8
Layer_0
  10
335.71527
  20
286.51952
  0
VERTEX
  5
118
  8
Layer_0
  10
333.21082
  20
287.71408
  0
VERTEX
  5
119
  8
Layer_0
  10
330.64728
  20
288.77594
  0
VERTEX
  5
11a
  8
Layer_0
  10
328.03168
  20
289.70217
  0
VERTEX
  5
11b
  8
Layer_0
  10
325.37119
  20
290.49024
  0
VERTEX
  5
11c
  8
Layer_0
  10
322.6731
  20
291.138
  0
VERTEX
  5
11d
  8
Layer_0
  10
319.94479
  20
291.64365
  0
VERTEX
  5
11e
  8
Layer_0
  10
317.19379
  20
292.00583
  0
VERTEX
  5
11f
  8
Layer_0
  10
314.42758
  20
292.22354
  0
VERTEX
  5
120
  8
Layer_0
  10
311.65378
  20
292.29617
  0
VERTEX
  5
121
  8
Layer_0
  10
308.87997
  20
292.22354
  0
VERTEX
  5
122
  8
Layer_0
  10
306.11377
  20
292.00583
  0
VERTEX
  5
123
  8
Layer_0
  10
303.36276
  20
291.64365
  0
VERTEX
  5
124
  8
Layer_0
  10
300.63446
  20
291.138
  0
VERTEX
  5
125
  8
Layer_0
  10
297.93637
  20
290.49024
  0
VERTEX
  5
126
  8
Layer_0
  10
295.27588
  20
289.70217
  0
VERTEX
  5
127
  8
Layer_0
  10
292.66028
  20
288.77594
  0
VERTEX
  5
128
  8
Layer_0
  10
290.09674
  20
287.71408
  0
VERTEX
  5
129
  8
Layer_0
  10
287.59229
  20
286.51952
  0
VERTEX
  5
12a
  8
Layer_0
  10
285.15378
  20
285.19552
  0
VERTEX
  5
12b
  8
Layer_0
  10
282.7879
  20
283.74571
  0
VERTEX
  5
12c
  8
Layer_0
  10
280.50116
  20
282.17407
  0
VERTEX
  5
12d
  8
Layer_0
  10
278.2998
  20
280.48491
  0
VERTEX
  5
12e
  8
Layer_0
  10
276.18985
  20
278.68285
  0
VERTEX
  5
12f
  8
Layer_0
  10
274.17712
  20
276.77283
  0
VERTEX
  5
130
  8
Layer_0
  10
272.26709
  20
274.7601
  0
VERTEX
  5
131
  8
Layer_0
  10
270.46503
  20
272.65015
  0
VERTEX
  5
132
  8
Layer_0
  10
268.77588
  20
270.44879
  0
VERTEX
  5
133
  8
Layer_0
  10
267.20422
  20
268.16204
  0
VERTEX
  5
134
  8
Layer_0
  10
265.75443
  20
265.79617
  0
VERTEX
  5
135
  8
Layer_0
  10
264.43042
  20
263.35767
  0
VERTEX
  5
136
  8
Layer_0
  10
263.23587
  20
260.85321
  0
VERTEX
  5
137
  8
Layer_0
  10
263.09772
  20
260.51967
  0
VERTEX
  5
138
  8
Layer_0
  10
262.17401
  20
258.28967
  0
VERTEX
  5
139
  8
Layer_0
  10
261.24777
  20
255.67407
  0
VERTEX
  5
13a
  8
Layer_0
  10
260.45972
  20
253.01358
  0
VERTEX
  5
13b
  8
Layer_0
  10
259.81195
  20
250.31549
  0
VERTEX
  5
13c
  8
Layer_0
  10
259.3063
  20
247.5872
  0
VERTEX
  5
13d
  8
Layer_0
  10
258.94412
  20
244.83618
  0
VERTEX
  5
13e
  8
Layer_0
  10
258.72641
  20
242.06998
  0
VERTEX
  5
13f
  8
Layer_0
  10
258.70175
  20
241.12867
  0
VERTEX
  5
140
  8
Layer_0
  10
258.65378
  20
239.29617
  0
VERTEX
  5
141
  8
Layer_0
  10
258.72641
  20
236.52237
  0
VERTEX
  5
142
  8
Layer_0
  10
258.94412
  20
233.75616
  0
VERTEX
  5
143
  8
Layer_0
  10
259.3063
  20
231.00514
  0
VERTEX
  5
144
  8
Layer_0
  10
259.81195
  20
228.27686
  0
VERTEX
  5
145
  8
Layer_0
  10
260.45972
  20
225.57877
  0
VERTEX
  5
146
  8
Layer_0
  10
261.24777
  20
222.91827
  0
VERTEX
  5
147
  8
Layer_0
  10
262.17401
  20
220.30267
  0
VERTEX
  5
148
  8
Layer_0
  10
263.23587
  20
217.73913
  0
VERTEX
  5
149
  8
Layer_0
  10
264.43042
  20
215.23468
  0
VERTEX
  5
14a
  8
Layer_0
  10
265.75443
  20
212.79617
  0
VERTEX
  5
14b
  8
Layer_0
  10
267.20422
  20
210.43031
  0
VERTEX
  5
14c
  8
Layer_0
  10
268.77588
  20
208.14355
  0
VERTEX
  5
14d
  8
Layer_0
  10
270.46503
  20
205.94219
  0
VERTEX
  5
14e
  8
Layer_0
  10
272.05939
  20
203.7275
  0
VERTEX
  5
14f
  8
Layer_0
  10
273.39279
  20
201.34657
  0
VERTEX
  5
150
  8
Layer_0
  10
274.44806
  20
198.82999
  0
VERTEX
  5
151
  8
Layer_0
  10
275.2117
  20
196.21013
  0
VERTEX
  5
152
  8
Layer_0
  10
275.67383
  20
193.52067
  0
VERTEX
  5
153
  8
Layer_0
  10
275.82852
  20
190.79617
  0
VERTEX
  5
154
  8
Layer_0
  10
275.67383
  20
188.07168
  0
VERTEX
  5
155
  8
Layer_0
  10
275.2117
  20
185.38222
  0
VERTEX
  5
156
  8
Layer_0
  10
274.44806
  20
182.76235
  0
VERTEX
  5
157
  8
Layer_0
  10
273.39279
  20
180.24578
  0
VERTEX
  5
158
  8
Layer_0
  10
272.05939
  20
177.86485
  0
SEQEND
  0
POLYLINE
  5
15a
  8
Layer_0
  62
0
  66
1
  10
0
  20
0
  30
0
  0
VERTEX
  5
15a
  8
Layer_0
  10
311.11026
  20
192.82462
  0
VERTEX
  5
15b
  8
Layer_0
  10
311.65378
  20
192.89617
  0
VERTEX
  5
15c
  8
Layer_0
  10
312.1973
  20
192.82462
  0
VERTEX
  5
15d
  8
Layer_0
  10
312.70377
  20
192.61483
  0
VERTEX
  5
15e
  8
Layer_0
  10
313.1387
  20
192.2811
  0
VERTEX
  5
15f
  8
Layer_0
  10
313.47244
  20
191.84618
  0
VERTEX
  5
160
  8
Layer_0
  10
313.68222
  20
191.33969
  0
VERTEX
  5
161
  8
Layer_0
  10
313.75378
  20
190.79617
  0
VERTEX
  5
162
  8
Layer_0
  10
313.68222
  20
190.25266
  0
VERTEX
  5
163
  8
Layer_0
  10
313.47244
  20
189.74617
  0
VERTEX
  5
164
  8
Layer_0
  10
313.1387
  20
189.31125
  0
VERTEX
  5
165
  8
Layer_0
  10
312.70377
  20
188.97752
  0
VERTEX
  5
166
  8
Layer_0
  10
312.1973
  20
188.76773
  0
VERTEX
  5
167
  8
Layer_0
  10
311.65378
  20
188.69617
  0
VERTEX
  5
168
  8
Layer_0
  10
311.11026
  20
188.76773
  0
VERTEX
  5
169
  8
Layer_0
  10
310.60379
  20
188.97752
  0
VERTEX
  5
16a
  8
Layer_0
  10
310.16885
  20
189.31125
  0
VERTEX
  5
16b
  8
Layer_0
  10
309.83511
  20
189.74617
  0
VERTEX
  5
16c
  8
Layer_0
  10
309.62534
  20
190.25266
  0
VERTEX
  5
16d
  8
Layer_0
  10
309.55377
  20
190.79617
  0
VERTEX
  5
16e
  8
Layer_0
  10
309.62534
  20
191.33969
  0
VERTEX
  5
16f
  8
Layer_0
  10
309.83511
  20
191.84618
  0
VERTEX
  5
170
  8
Layer_0
  10
310.16885
  20
192.2811
  0
VERTEX
  5
171
  8
Layer_0
  10
310.60379
  20
192.61483
  0
VERTEX
  5
172
  8
Layer_0
  10
311.11026
  20
192.82462
  0
SEQEND
  0
POLYLINE
  5
174
  8
Layer_0
  62
0
  66
1
  10
0
  20
0
  30
0
  0
VERTEX
  5
174
  8
Layer_0
  10
272.84937
  20
211.9278
  0
VERTEX
  5
175
  8
Layer_0
  10
272.53885
  20
211.47601
  0
VERTEX
  5
176
  8
Layer_0
  10
272.12201
  20
211.11997
  0
VERTEX
  5
177
  8
Layer_0
  10
271.6272
  20
210.88396
  0
VERTEX
  5
178
  8
Layer_0
  10
271.08817
  20
210.78406
  0
VERTEX
  5
179
  8
Layer_0
  10
270.54163
  20
210.82707
  0
VERTEX
  5
17a
  8
Layer_0
  10
270.02487
  20
211.01006
  0
VERTEX
  5
17b
  8
Layer_0
  10
269.57309
  20
211.32058
  0
VERTEX
  5
17c
  8
Layer_0
  10
269.21704
  20
211.73743
  0
VERTEX
  5
17d
  8
Layer_0
  10
268.98105
  20
212.23225
  0
VERTEX
  5
17e
  8
Layer_0
  10
268.88113
  20
212.77127
  0
VERTEX
  5
17f
  8
Layer_0
  10
268.92413
  20
213.31779
  0
VERTEX
  5
180
  8
Layer_0
  10
269.10715
  20
213.83456
  0
VERTEX
  5
181
  8
Layer_0
  10
269.41766
  20
214.28635
  0
VERTEX
  5
182
  8
Layer_0
  10
269.8345
  20
214.64239
  0
VERTEX
  5
183
  8
Layer_0
  10
270.32932
  20
214.8784
  0
VERTEX
  5
184
  8
Layer_0
  10
270.86835
  20
214.9783
  0
VERTEX
  5
185
  8
Layer_0
  10
271.41486
  20
214.93529
  0
VERTEX
  5
186
  8
Layer_0
  10
271.93164
  20
214.7523
  0
VERTEX
  5
187
  8
Layer_0
  10
272.38342
  20
214.44179
  0
VERTEX
  5
188
  8
Layer_0
  10
272.73947
  20
214.02493
  0
VERTEX
  5
189
  8
Layer_0
  10
272.97546
  20
213.53011
  0
VERTEX
  5
18a
  8
Layer_0
  10
273.07538
  20
212.99109
  0
VERTEX
  5
18b
  8
Layer_0
  10
273.03238
  20
212.44456
  0
VERTEX
  5
18c
  8
Layer_0
  10
272.84937
  20
211.9278
  0
SEQEND
  0
POLYLINE
  5
18e
  8
Layer_0
  62
0
  66
1
  10
0
  20
0
  30
0
  0
VERTEX
  5
18e
  8
Layer_0
  10
353.73447
  20
211.32058
  0
VERTEX
  5
18f
  8
Layer_0
  10
353.28268
  20
211.01006
  0
VERTEX
  5
190
  8
Layer_0
  10
352.76593
  20
210.82707
  0
VERTEX
  5
191
  8
Layer_0
  10
352.21939
  20
210.78406
  0
VERTEX
  5
192
  8
Layer_0
  10
351.68036
  20
210.88396
  0
VERTEX
  5
193
  8
Layer_0
  10
351.18555
  20
211.11997
  0
VERTEX
  5
194
  8
Layer_0
  10
350.76871
  20
211.47601
  0
VERTEX
  5
195
  8
Layer_0
  10
350.45819
  20
211.9278
  0
VERTEX
  5
196
  8
Layer_0
  10
350.27521
  20
212.44456
  0
VERTEX
  5
197
  8
Layer_0
  10
350.23218
  20
212.99109
  0
VERTEX
  5
198
  8
Layer_0
  10
350.33209
  20
213.53011
  0
VERTEX
  5
199
  8
Layer_0
  10
350.56808
  20
214.02493
  0
VERTEX
  5
19a
  8
Layer_0
  10
350.92413
  20
214.44179
  0
VERTEX
  5
19b
  8
Layer_0
  10
351.37592
  20
214.7523
  0
VERTEX
  5
19c
  8
Layer_0
  10
351.8927
  20
214.93529
  0
VERTEX
  5
19d
  8
Layer_0
  10
352.43921
  20
214.9783
  0
VERTEX
  5
19e
  8
Layer_0
  10
352.97824
  20
214.8784
  0
VERTEX
  5
19f
  8
Layer_0
  10
353.47305
  20
214.64239
  0
VERTEX
  5
1a0
  8
Layer_0
  10
353.88989
  20
214.28635
  0
VERTEX
  5
1a1
  8
Layer_0
  10
354.20041
  20
213.83456
  0
VERTEX
  5
1a2
  8
Layer_0
  10
354.38342
  20
213.31779
  0
VERTEX
  5
1a3
  8
Layer_0
  10
354.42642
  20
212.77127
  0
VERTEX
  5
1a4
  8
Layer_0
  10
354.32654
  20
212.23225
  0
VERTEX
  5
1a5
  8
Layer_0
  10
354.09052
  20
211.73743
  0
VERTEX
  5
1a6
  8
Layer_0
  10
353.73447
  20
211.32058
  0
SEQEND
  0
POLYLINE
  5
1a8
  8
Layer_0
  62
0
  66
1
  10
0
  20
0
  30
0
  0
VERTEX
  5
1a8
  8
Layer_0
  10
272.97546
  20
265.06223
  0
VERTEX
  5
1a9
  8
Layer_0
  10
272.73947
  20
264.56742
  0
VERTEX
  5
1aa
  8
Layer_0
  10
272.38342
  20
264.15056
  0
VERTEX
  5
1ab
  8
Layer_0
  10
271.93164
  20
263.84005
  0
VERTEX
  5
1ac
  8
Layer_0
  10
271.41486
  20
263.65706
  0
VERTEX
  5
1ad
  8
Layer_0
  10
270.86835
  20
263.61404
  0
VERTEX
  5
1ae
  8
Layer_0
  10
270.32932
  20
263.71395
  0
VERTEX
  5
1af
  8
Layer_0
  10
269.8345
  20
263.94996
  0
VERTEX
  5
1b0
  8
Layer_0
  10
269.41766
  20
264.30599
  0
VERTEX
  5
1b1
  8
Layer_0
  10
269.10715
  20
264.75779
  0
VERTEX
  5
1b2
  8
Layer_0
  10
268.92413
  20
265.27455
  0
VERTEX
  5
1b3
  8
Layer_0
  10
268.88113
  20
265.82107
  0
VERTEX
  5
1b4
  8
Layer_0
  10
268.98105
  20
266.3601
  0
VERTEX
  5
1b5
  8
Layer_0
  10
269.21704
  20
266.85491
  0
VERTEX
  5
1b6
  8
Layer_0
  10
269.57309
  20
267.27177
  0
VERTEX
  5
1b7
  8
Layer_0
  10
270.02487
  20
267.58228
  0
VERTEX
  5
1b8
  8
Layer_0
  10
270.54163
  20
267.76527
  0
VERTEX
  5
1b9
  8
Layer_0
  10
271.08817
  20
267.80829
  0
VERTEX
  5
1ba
  8
Layer_0
  10
271.6272
  20
267.70839
  0
VERTEX
  5
1bb
  8
Layer_0
  10
272.12201
  20
267.47237
  0
VERTEX
  5
1bc
  8
Layer_0
  10
272.53885
  20
267.11634
  0
VERTEX
  5
1bd
  8
Layer_0
  10
272.84937
  20
266.66455
  0
VERTEX
  5
1be
  8
Layer_0
  10
273.03238
  20
266.14778
  0
VERTEX
  5
1bf
  8
Layer_0
  10
273.07538
  20
265.60126
  0
VERTEX
  5
1c0
  8
Layer_0
  10
272.97546
  20
265.06223
  0
SEQEND
  0
POLYLINE
  5
1c2
  8
Layer_0
  62
0
  66
1
  10
0
  20
0
  30
0
  0
VERTEX
  5
1c2
  8
Layer_0
  10
311.11026
  20
289.82462
  0
VERTEX
  5
1c3
  8
Layer_0
  10
311.65378
  20
289.89617
  0
VERTEX
  5
1c4
  8
Layer_0
  10
312.1973
  20
289.82462
  0
VERTEX
  5
1c5
  8
Layer_0
  10
312.70377
  20
289.61483
  0
VERTEX
  5
1c6
  8
Layer_0
  10
313.1387
  20
289.2811
  0
VERTEX
  5
1c7
  8
Layer_0
  10
313.47244
  20
288.84617
  0
VERTEX
  5
1c8
  8
Layer_0
  10
313.68222
  20
288.33969
  0
VERTEX
  5
1c9
  8
Layer_0
  10
313.75378
  20
287.79617
  0
VERTEX
  5
1ca
  8
Layer_0
  10
313.68222
  20
287.25265
  0
VERTEX
  5
1cb
  8
Layer_0
  10
313.47244
  20
286.74617
  0
VERTEX
  5
1cc
  8
Layer_0
  10
313.1387
  20
286.31125
  0
VERTEX
  5
1cd
  8
Layer_0
  10
312.70377
  20
285.97752
  0
VERTEX
  5
1ce
  8
Layer_0
  10
312.1973
  20
285.76773
  0
VERTEX
  5
1cf
  8
Layer_0
  10
311.65378
  20
285.69617
  0
VERTEX
  5
1d0
  8
Layer_0
  10
311.11026
  20
285.76773
  0
VERTEX
  5
1d1
  8
Layer_0
  10
310.60379
  20
285.97752
  0
VERTEX
  5
1d2
  8
Layer_0
  10
310.16885
  20
286.31125
  0
VERTEX
  5
1d3
  8
Layer_0
  10
309.83511
  20
286.74617
  0
VERTEX
  5
1d4
  8
Layer_0
  10
309.62534
  20
287.25265
  0
VERTEX
  5
1d5
  8
Layer_0
  10
309.55377
  20
287.79617
  0
VERTEX
  5
1d6
  8
Layer_0
  10
309.62534
  20
288.33969
  0
VERTEX
  5
1d7
  8
Layer_0
  10
309.83511
  20
288.84617
  0
VERTEX
  5
1d8
  8
Layer_0
  10
310.16885
  20
289.2811
  0
VERTEX
  5
1d9
  8
Layer_0
  10
310.60379
  20
289.61483
  0
VERTEX
  5
1da
  8
Layer_0
  10
311.11026
  20
289.82462
  0
SEQEND
  0
POLYLINE
  5
1dc
  8
Layer_0
  62
0
  66
1
  10
0
  20
0
  30
0
  0
VERTEX
  5
1dc
  8
Layer_0
  10
351.68036
  20
267.70839
  0
VERTEX
  5
1dd
  8
Layer_0
  10
352.21939
  20
267.80829
  0
VERTEX
  5
1de
  8
Layer_0
  10
352.76593
  20
267.76527
  0
VERTEX
  5
1df
  8
Layer_0
  10
353.28268
  20
267.58228
  0
VERTEX
  5
1e0
  8
Layer_0
  10
353.73447
  20
267.27177
  0
VERTEX
  5
1e1
  8
Layer_0
  10
354.09052
  20
266.85491
  0
VERTEX
  5
1e2
  8
Layer_0
  10
354.32654
  20
266.3601
  0
VERTEX
  5
1e3
  8
Layer_0
  10
354.42642
  20
265.82107
  0
VERTEX
  5
1e4
  8
Layer_0
  10
354.38342
  20
265.27455
  0
VERTEX
  5
1e5
  8
Layer_0
  10
354.20041
  20
264.75779
  0
VERTEX
  5
1e6
  8
Layer_0
  10
353.88989
  20
264.30599
  0
VERTEX
  5
1e7
  8
Layer_0
  10
353.47305
  20
263.94996
  0
VERTEX
  5
1e8
  8
Layer_0
  10
352.97824
  20
263.71395
  0
VERTEX
  5
1e9
  8
Layer_0
  10
352.43921
  20
263.61404
  0
VERTEX
  5
1ea
  8
Layer_0
  10
351.8927
  20
263.65706
  0
VERTEX
  5
1eb
  8
Layer_0
  10
351.37592
  20
263.84005
  0
VERTEX
  5
1ec
  8
Layer_0
  10
350.92413
  20
264.15056
  0
VERTEX
  5
1ed
  8
Layer_0
  10
350.56808
  20
264.56742
  0
VERTEX
  5
1ee
  8
Layer_0
  10
350.33209
  20
265.06223
  0
VERTEX
  5
1ef
  8
Layer_0
  10
350.23218
  20
265.60126
  0
VERTEX
  5
1f0
  8
Layer_0
  10
350.27521
  20
266.14778
  0
VERTEX
  5
1f1
  8
Layer_0
  10
350.45819
  20
266.66455
  0
VERTEX
  5
1f2
  8
Layer_0
  10
350.76871
  20
267.11634
  0
VERTEX
  5
1f3
  8
Layer_0
  10
351.18555
  20
267.47237
  0
VERTEX
  5
1f4
  8
Layer_0
  10
351.68036
  20
267.70839
  0
SEQEND
  0
POLYLINE
  5
1f6
  8
Layer_0
  62
0
  66
1
  10
0
  20
0
  30
0
  0
VERTEX
  5
1f6
  8
Layer_0
  10
276.39749
  20
229.84927
  0
VERTEX
  5
1f7
  8
Layer_0
  10
275.95139
  20
231.7074
  0
VERTEX
  5
1f8
  8
Layer_0
  10
275.60315
  20
233.58632
  0
VERTEX
  5
1f9
  8
Layer_0
  10
275.35373
  20
235.48088
  0
VERTEX
  5
1fa
  8
Layer_0
  10
275.2038
  20
237.38591
  0
VERTEX
  5
1fb
  8
Layer_0
  10
275.15378
  20
239.29617
  0
VERTEX
  5
1fc
  8
Layer_0
  10
275.2038
  20
241.20644
  0
VERTEX
  5
1fd
  8
Layer_0
  10
275.35373
  20
243.11146
  0
VERTEX
  5
1fe
  8
Layer_0
  10
275.60315
  20
245.00603
  0
VERTEX
  5
1ff
  8
Layer_0
  10
275.95139
  20
246.88495
  0
VERTEX
  5
200
  8
Layer_0
  10
276.39749
  20
248.74307
  0
VERTEX
  5
201
  8
Layer_0
  10
276.94022
  20
250.57529
  0
VERTEX
  5
202
  8
Layer_0
  10
277.57809
  20
252.3766
  0
VERTEX
  5
203
  8
Layer_0
  10
278.30936
  20
254.14206
  0
VERTEX
  5
204
  8
Layer_0
  10
279.13205
  20
255.86683
  0
VERTEX
  5
205
  8
Layer_0
  10
280.04385
  20
257.54617
  0
VERTEX
  5
206
  8
Layer_0
  10
281.0423
  20
259.1755
  0
VERTEX
  5
207
  8
Layer_0
  10
282.12466
  20
260.75034
  0
VERTEX
  5
208
  8
Layer_0
  10
283.28796
  20
262.26637
  0
VERTEX
  5
209
  8
Layer_0
  10
284.52899
  20
263.71944
  0
VERTEX
  5
20a
  8
Layer_0
  10
285.84439
  20
265.10557
  0
VERTEX
  5
20b
  8
Layer_0
  10
287.2305
  20
266.42096
  0
VERTEX
  5
20c
  8
Layer_0
  10
288.68359
  20
267.662
  0
VERTEX
  5
20d
  8
Layer_0
  10
290.19962
  20
268.82529
  0
VERTEX
  5
20e
  8
Layer_0
  10
291.77444
  20
269.90765
  0
VERTEX
  5
20f
  8
Layer_0
  10
293.40378
  20
270.9061
  0
VERTEX
  5
210
  8
Layer_0
  10
295.08313
  20
271.81791
  0
VERTEX
  5
211
  8
Layer_0
  10
296.80789
  20
272.64058
  0
VERTEX
  5
212
  8
Layer_0
  10
298.57336
  20
273.37186
  0
VERTEX
  5
213
  8
Layer_0
  10
300.37466
  20
274.00974
  0
VERTEX
  5
214
  8
Layer_0
  10
302.20688
  20
274.55247
  0
VERTEX
  5
215
  8
Layer_0
  10
304.065
  20
274.99856
  0
VERTEX
  5
216
  8
Layer_0
  10
305.94391
  20
275.3468
  0
VERTEX
  5
217
  8
Layer_0
  10
307.8385
  20
275.59622
  0
VERTEX
  5
218
  8
Layer_0
  10
309.74353
  20
275.74615
  0
VERTEX
  5
219
  8
Layer_0
  10
311.65378
  20
275.79617
  0
VERTEX
  5
21a
  8
Layer_0
  10
313.56403
  20
275.74615
  0
VERTEX
  5
21b
  8
Layer_0
  10
315.46906
  20
275.59622
  0
VERTEX
  5
21c
  8
Layer_0
  10
317.36365
  20
275.3468
  0
VERTEX
  5
21d
  8
Layer_0
  10
319.24255
  20
274.99856
  0
VERTEX
  5
21e
  8
Layer_0
  10
321.10068
  20
274.55247
  0
VERTEX
  5
21f
  8
Layer_0
  10
322.93289
  20
274.00974
  0
VERTEX
  5
220
  8
Layer_0
  10
324.73419
  20
273.37186
  0
VERTEX
  5
221
  8
Layer_0
  10
326.49966
  20
272.64058
  0
VERTEX
  5
222
  8
Layer_0
  10
328.22443
  20
271.81791
  0
VERTEX
  5
223
  8
Layer_0
  10
329.90378
  20
270.9061
  0
VERTEX
  5
224
  8
Layer_0
  10
331.53311
  20
269.90765
  0
VERTEX
  5
225
  8
Layer_0
  10
333.10794
  20
268.82529
  0
VERTEX
  5
226
  8
Layer_0
  10
334.62396
  20
267.662
  0
VERTEX
  5
227
  8
Layer_0
  10
336.07703
  20
266.42096
  0
VERTEX
  5
228
  8
Layer_0
  10
337.46317
  20
265.10557
  0
VERTEX
  5
229
  8
Layer_0
  10
338.77856
  20
263.71944
  0
VERTEX
  5
22a
  8
Layer_0
  10
340.01959
  20
262.26637
  0
VERTEX
  5
22b
  8
Layer_0
  10
341.18289
  20
260.75034
  0
VERTEX
  5
22c
  8
Layer_0
  10
342.26526
  20
259.1755
  0
VERTEX
  5
22d
  8
Layer_0
  10
343.2637
  20
257.54617
  0
VERTEX
  5
22e
  8
Layer_0
  10
344.17551
  20
255.86683
  0
VERTEX
  5
22f
  8
Layer_0
  10
344.99817
  20
254.14206
  0
VERTEX
  5
230
  8
Layer_0
  10
345.72946
  20
252.3766
  0
VERTEX
  5
231
  8
Layer_0
  10
346.36734
  20
250.57529
  0
VERTEX
  5
232
  8
Layer_0
  10
346.91006
  20
248.74307
  0
VERTEX
  5
233
  8
Layer_0
  10
347.35617
  20
246.88495
  0
VERTEX
  5
234
  8
Layer_0
  10
347.70441
  20
245.00603
  0
VERTEX
  5
235
  8
Layer_0
  10
347.95383
  20
243.11146
  0
VERTEX
  5
236
  8
Layer_0
  10
348.10376
  20
241.20644
  0
VERTEX
  5
237
  8
Layer_0
  10
348.15378
  20
239.29617
  0
VERTEX
  5
238
  8
Layer_0
  10
348.10376
  20
237.38591
  0
VERTEX
  5
239
  8
Layer_0
  10
347.95383
  20
235.48088
  0
VERTEX
  5
23a
  8
Layer_0
  10
347.70441
  20
233.58632
  0
VERTEX
  5
23b
  8
Layer_0
  10
347.35617
  20
231.7074
  0
VERTEX
  5
23c
  8
Layer_0
  10
346.91006
  20
229.84927
  0
VERTEX
  5
23d
  8
Layer_0
  10
346.36734
  20
228.01705
  0
VERTEX
  5
23e
  8
Layer_0
  10
345.72946
  20
226.21574
  0
VERTEX
  5
23f
  8
Layer_0
  10
344.99817
  20
224.45029
  0
VERTEX
  5
240
  8
Layer_0
  10
344.17551
  20
222.72552
  0
VERTEX
  5
241
  8
Layer_0
  10
343.2637
  20
221.04617
  0
VERTEX
  5
242
  8
Layer_0
  10
342.26526
  20
219.41685
  0
VERTEX
  5
243
  8
Layer_0
  10
341.18289
  20
217.84201
  0
VERTEX
  5
244
  8
Layer_0
  10
340.01959
  20
216.32598
  0
VERTEX
  5
245
  8
Layer_0
  10
338.77856
  20
214.87291
  0
VERTEX
  5
246
  8
Layer_0
  10
337.46317
  20
213.48678
  0
VERTEX
  5
247
  8
Layer_0
  10
336.07703
  20
212.17139
  0
VERTEX
  5
248
  8
Layer_0
  10
334.62396
  20
210.93034
  0
VERTEX
  5
249
  8
Layer_0
  10
333.10794
  20
209.76705
  0
VERTEX
  5
24a
  8
Layer_0
  10
331.53311
  20
208.6847
  0
VERTEX
  5
24b
  8
Layer_0
  10
329.90378
  20
207.68625
  0
VERTEX
  5
24c
  8
Layer_0
  10
328.22443
  20
206.77444
  0
VERTEX
  5
24d
  8
Layer_0
  10
326.49966
  20
205.95177
  0
VERTEX
  5
24e
  8
Layer_0
  10
324.73419
  20
205.22049
  0
VERTEX
  5
24f
  8
Layer_0
  10
322.93289
  20
204.58261
  0
VERTEX
  5
250
  8
Layer_0
  10
321.10068
  20
204.03988
  0
VERTEX
  5
251
  8
Layer_0
  10
319.24255
  20
203.59379
  0
VERTEX
  5
252
  8
Layer_0
  10
317.36365
  20
203.24555
  0
VERTEX
  5
253
  8
Layer_0
  10
315.46906
  20
202.99612
  0
VERTEX
  5
254
  8
Layer_0
  10
313.56403
  20
202.84619
  0
VERTEX
  5
255
  8
Layer_0
  10
311.65378
  20
202.79617
  0
VERTEX
  5
256
  8
Layer_0
  10
309.74353
  20
202.84619
  0
VERTEX
  5
257
  8
Layer_0
  10
307.8385
  20
202.99612
  0
VERTEX
  5
258
  8
Layer_0
  10
305.94391
  20
203.24555
  0
VERTEX
  5
259
  8
Layer_0
  10
304.065
  20
203.59379
  0
VERTEX
  5
25a
  8
Layer_0
  10
302.20688
  20
204.03988
  0
VERTEX
  5
25b
  8
Layer_0
  10
300.37466
  20
204.58261
  0
VERTEX
  5
25c
  8
Layer_0
  10
298.57336
  20
205.22049
  0
VERTEX
  5
25d
  8
Layer_0
  10
296.80789
  20
205.95177
  0
VERTEX
  5
25e
  8
Layer_0
  10
295.08313
  20
206.77444
  0
VERTEX
  5
25f
  8
Layer_0
  10
293.40378
  20
207.68625
  0
VERTEX
  5
260
  8
Layer_0
  10
291.77444
  20
208.6847
  0
VERTEX
  5
261
  8
Layer_0
  10
290.19962
  20
209.76705
  0
VERTEX
  5
262
  8
Layer_0
  10
288.68359
  20
210.93034
  0
VERTEX
  5
263
  8
Layer_0
  10
287.2305
  20
212.17139
  0
VERTEX
  5
264
  8
Layer_0
  10
285.84439
  20
213.48678
  0
VERTEX
  5
265
  8
Layer_0
  10
284.52899
  20
214.87291
  0
VERTEX
  5
266
  8
Layer_0
  10
283.28796
  20
216.32598
  0
VERTEX
  5
267
  8
Layer_0
  10
282.12466
  20
217.84201
  0
VERTEX
  5
268
  8
Layer_0
  10
281.0423
  20
219.41685
  0
VERTEX
  5
269
  8
Layer_0
  10
280.04385
  20
221.04617
  0
VERTEX
  5
26a
  8
Layer_0
  10
279.13205
  20
222.72552
  0
VERTEX
  5
26b
  8
Layer_0
  10
278.30936
  20
224.45029
  0
VERTEX
  5
26c
  8
Layer_0
  10
277.57809
  20
226.21574
  0
VERTEX
  5
26d
  8
Layer_0
  10
276.94022
  20
228.01705
  0
VERTEX
  5
26e
  8
Layer_0
  10
276.39749
  20
229.84927
  0
SEQEND
  0
POLYLINE
  5
270
  8
Layer_0
  62
0
  66
1
  10
0
  20
0
  30
0
  0
VERTEX
  5
270
  8
Layer_0
  10
341.18289
  20
163.75034
  0
VERTEX
  5
271
  8
Layer_0
  10
342.26526
  20
162.17549
  0
VERTEX
  5
272
  8
Layer_0
  10
343.2637
  20
160.54617
  0
VERTEX
  5
273
  8
Layer_0
  10
344.17551
  20
158.86682
  0
VERTEX
  5
274
  8
Layer_0
  10
344.99817
  20
157.14206
  0
VERTEX
  5
275
  8
Layer_0
  10
345.72946
  20
155.3766
  0
VERTEX
  5
276
  8
Layer_0
  10
346.36734
  20
153.57529
  0
VERTEX
  5
277
  8
Layer_0
  10
346.91006
  20
151.74307
  0
VERTEX
  5
278
  8
Layer_0
  10
347.35617
  20
149.88495
  0
VERTEX
  5
279
  8
Layer_0
  10
347.70441
  20
148.00603
  0
VERTEX
  5
27a
  8
Layer_0
  10
347.95383
  20
146.11147
  0
VERTEX
  5
27b
  8
Layer_0
  10
348.10376
  20
144.20644
  0
VERTEX
  5
27c
  8
Layer_0
  10
348.15378
  20
142.29617
  0
VERTEX
  5
27d
  8
Layer_0
  10
348.10376
  20
140.38591
  0
VERTEX
  5
27e
  8
Layer_0
  10
347.95383
  20
138.48088
  0
VERTEX
  5
27f
  8
Layer_0
  10
347.70441
  20
136.58632
  0
VERTEX
  5
280
  8
Layer_0
  10
347.35617
  20
134.7074
  0
VERTEX
  5
281
  8
Layer_0
  10
346.91006
  20
132.84927
  0
VERTEX
  5
282
  8
Layer_0
  10
346.36734
  20
131.01706
  0
VERTEX
  5
283
  8
Layer_0
  10
345.72946
  20
129.21574
  0
VERTEX
  5
284
  8
Layer_0
  10
344.99817
  20
127.45029
  0
VERTEX
  5
285
  8
Layer_0
  10
344.17551
  20
125.72552
  0
VERTEX
  5
286
  8
Layer_0
  10
343.2637
  20
124.04617
  0
VERTEX
  5
287
  8
Layer_0
  10
342.26526
  20
122.41685
  0
VERTEX
  5
288
  8
Layer_0
  10
341.18289
  20
120.84201
  0
VERTEX
  5
289
  8
Layer_0
  10
340.01959
  20
119.32597
  0
VERTEX
  5
28a
  8
Layer_0
  10
338.77856
  20
117.87291
  0
VERTEX
  5
28b
  8
Layer_0
  10
337.46317
  20
116.48677
  0
VERTEX
  5
28c
  8
Layer_0
  10
336.07703
  20
115.17139
  0
VERTEX
  5
28d
  8
Layer_0
  10
334.62396
  20
113.93034
  0
VERTEX
  5
28e
  8
Layer_0
  10
333.10794
  20
112.76706
  0
VERTEX
  5
28f
  8
Layer_0
  10
331.53311
  20
111.68469
  0
VERTEX
  5
290
  8
Layer_0
  10
329.90378
  20
110.68625
  0
VERTEX
  5
291
  8
Layer_0
  10
328.22443
  20
109.77443
  0
VERTEX
  5
292
  8
Layer_0
  10
326.49966
  20
108.95177
  0
VERTEX
  5
293
  8
Layer_0
  10
324.73419
  20
108.22049
  0
VERTEX
  5
294
  8
Layer_0
  10
322.93289
  20
107.58261
  0
VERTEX
  5
295
  8
Layer_0
  10
321.10068
  20
107.03989
  0
VERTEX
  5
296
  8
Layer_0
  10
319.24255
  20
106.59378
  0
VERTEX
  5
297
  8
Layer_0
  10
317.36365
  20
106.24554
  0
VERTEX
  5
298
  8
Layer_0
  10
315.46906
  20
105.99612
  0
VERTEX
  5
299
  8
Layer_0
  10
313.56403
  20
105.84619
  0
VERTEX
  5
29a
  8
Layer_0
  10
311.65378
  20
105.79617
  0
VERTEX
  5
29b
  8
Layer_0
  10
309.74353
  20
105.84619
  0
VERTEX
  5
29c
  8
Layer_0
  10
307.8385
  20
105.99612
  0
VERTEX
  5
29d
  8
Layer_0
  10
305.94391
  20
106.24554
  0
VERTEX
  5
29e
  8
Layer_0
  10
304.065
  20
106.59378
  0
VERTEX
  5
29f
  8
Layer_0
  10
302.20688
  20
107.03989
  0
VERTEX
  5
2a0
  8
Layer_0
  10
300.37466
  20
107.58261
  0
VERTEX
  5
2a1
  8
Layer_0
  10
298.57336
  20
108.22049
  0
VERTEX
  5
2a2
  8
Layer_0
  10
296.80789
  20
108.95177
  0
VERTEX
  5
2a3
  8
Layer_0
  10
295.08313
  20
109.77443
  0
VERTEX
  5
2a4
  8
Layer_0
  10
293.40378
  20
110.68625
  0
VERTEX
  5
2a5
  8
Layer_0
  10
291.77444
  20
111.68469
  0
VERTEX
  5
2a6
  8
Layer_0
  10
290.19962
  20
112.76706
  0
VERTEX
  5
2a7
  8
Layer_0
  10
288.68359
  20
113.93034
  0
VERTEX
  5
2a8
  8
Layer_0
  10
287.2305
  20
115.17139
  0
VERTEX
  5
2a9
  8
Layer_0
  10
285.84439
  20
116.48677
  0
VERTEX
  5
2aa
  8
Layer_0
  10
284.52899
  20
117.87291
  0
VERTEX
  5
2ab
  8
Layer_0
  10
283.28796
  20
119.32597
  0
VERTEX
  5
2ac
  8
Layer_0
  10
282.12466
  20
120.84201
  0
VERTEX
  5
2ad
  8
Layer_0
  10
281.0423
  20
122.41685
  0
VERTEX
  5
2ae
  8
Layer_0
  10
280.04385
  20
124.04617
  0
VERTEX
  5
2af
  8
Layer_0
  10
279.13205
  20
125.72552
  0
VERTEX
  5
2b0
  8
Layer_0
  10
278.30936
  20
127.45029
  0
VERTEX
  5
2b1
  8
Layer_0
  10
277.57809
  20
129.21574
  0
VERTEX
  5
2b2
  8
Layer_0
  10
276.94022
  20
131.01706
  0
VERTEX
  5
2b3
  8
Layer_0
  10
276.39749
  20
132.84927
  0
VERTEX
  5
2b4
  8
Layer_0
  10
275.95139
  20
134.7074
  0
VERTEX
  5
2b5
  8
Layer_0
  10
275.60315
  20
136.58632
  0
VERTEX
  5
2b6
  8
Layer_0
  10
275.35373
  20
138.48088
  0
VERTEX
  5
2b7
  8
Layer_0
  10
275.2038
  20
140.38591
  0
VERTEX
  5
2b8
  8
Layer_0
  10
275.15378
  20
142.29617
  0
VERTEX
  5
2b9
  8
Layer_0
  10
275.2038
  20
144.20644
  0
VERTEX
  5
2ba
  8
Layer_0
  10
275.35373
  20
146.11147
  0
VERTEX
  5
2bb
  8
Layer_0
  10
275.60315
  20
148.00603
  0
VERTEX
  5
2bc
  8
Layer_0
  10
275.95139
  20
149.88495
  0
VERTEX
  5
2bd
  8
Layer_0
  10
276.39749
  20
151.74307
  0
VERTEX
  5
2be
  8
Layer_0
  10
276.94022
  20
153.57529
  0
VERTEX
  5
2bf
  8
Layer_0
  10
277.57809
  20
155.3766
  0
VERTEX
  5
2c0
  8
Layer_0
  10
278.30936
  20
157.14206
  0
VERTEX
  5
2c1
  8
Layer_0
  10
279.13205
  20
158.86682
  0
VERTEX
  5
2c2
  8
Layer_0
  10
280.04385
  20
160.54617
  0
VERTEX
  5
2c3
  8
Layer_0
  10
281.0423
  20
162.17549
  0
VERTEX
  5
2c4
  8
Layer_0
  10
282.12466
  20
163.75034
  0
VERTEX
  5
2c5
  8
Layer_0
  10
283.28796
  20
165.26636
  0
VERTEX
  5
2c6
  8
Layer_0
  10
284.52899
  20
166.71944
  0
VERTEX
  5
2c7
  8
Layer_0
  10
285.84439
  20
168.10556
  0
VERTEX
  5
2c8
  8
Layer_0
  10
287.2305
  20
169.42096
  0
VERTEX
  5
2c9
  8
Layer_0
  10
288.68359
  20
170.662
  0
VERTEX
  5
2ca
  8
Layer_0
  10
290.19962
  20
171.82529
  0
VERTEX
  5
2cb
  8
Layer_0
  10
291.77444
  20
172.90765
  0
VERTEX
  5
2cc
  8
Layer_0
  10
293.40378
  20
173.9061
  0
VERTEX
  5
2cd
  8
Layer_0
  10
295.08313
  20
174.81791
  0
VERTEX
  5
2ce
  8
Layer_0
  10
296.80789
  20
175.64058
  0
VERTEX
  5
2cf
  8
Layer_0
  10
298.57336
  20
176.37186
  0
VERTEX
  5
2d0
  8
Layer_0
  10
300.37466
  20
177.00974
  0
VERTEX
  5
2d1
  8
Layer_0
  10
302.20688
  20
177.55247
  0
VERTEX
  5
2d2
  8
Layer_0
  10
304.065
  20
177.99856
  0
VERTEX
  5
2d3
  8
Layer_0
  10
305.94391
  20
178.34679
  0
VERTEX
  5
2d4
  8
Layer_0
  10
307.8385
  20
178.59622
  0
VERTEX
  5
2d5
  8
Layer_0
  10
309.74353
  20
178.74615
  0
VERTEX
  5
2d6
  8
Layer_0
  10
311.65378
  20
178.79617
  0
VERTEX
  5
2d7
  8
Layer_0
  10
313.56403
  20
178.74615
  0
VERTEX
  5
2d8
  8
Layer_0
  10
315.46906
  20
178.59622
  0
VERTEX
  5
2d9
  8
Layer_0
  10
317.36365
  20
178.34679
  0
VERTEX
  5
2da
  8
Layer_0
  10
319.24255
  20
177.99856
  0
VERTEX
  5
2db
  8
Layer_0
  10
321.10068
  20
177.55247
  0
VERTEX
  5
2dc
  8
Layer_0
  10
322.93289
  20
177.00974
  0
VERTEX
  5
2dd
  8
Layer_0
  10
324.73419
  20
176.37186
  0
VERTEX
  5
2de
  8
Layer_0
  10
326.49966
  20
175.64058
  0
VERTEX
  5
2df
  8
Layer_0
  10
328.22443
  20
174.81791
  0
VERTEX
  5
2e0
  8
Layer_0
  10
329.90378
  20
173.9061
  0
VERTEX
  5
2e1
  8
Layer_0
  10
331.53311
  20
172.90765
  0
VERTEX
  5
2e2
  8
Layer_0
  10
333.10794
  20
171.82529
  0
VERTEX
  5
2e3
  8
Layer_0
  10
334.62396
  20
170.662
  0
VERTEX
  5
2e4
  8
Layer_0
  10
336.07703
  20
169.42096
  0
VERTEX
  5
2e5
  8
Layer_0
  10
337.46317
  20
168.10556
  0
VERTEX
  5
2e6
  8
Layer_0
  10
338.77856
  20
166.71944
  0
VERTEX
  5
2e7
  8
Layer_0
  10
340.01959
  20
165.26636
  0
VERTEX
  5
2e8
  8
Layer_0
  10
341.18289
  20
163.75034
  0
SEQEND
  0
POLYLINE
  5
2ea
  8
Layer_0
  62
0
  66
1
  10
0
  20
0
  30
0
  0
VERTEX
  5
2ea
  8
Layer_0
  10
351.37592
  20
117.75229
  0
VERTEX
  5
2eb
  8
Layer_0
  10
351.8927
  20
117.93529
  0
VERTEX
  5
2ec
  8
Layer_0
  10
352.43921
  20
117.9783
  0
VERTEX
  5
2ed
  8
Layer_0
  10
352.97824
  20
117.8784
  0
VERTEX
  5
2ee
  8
Layer_0
  10
353.47305
  20
117.6424
  0
VERTEX
  5
2ef
  8
Layer_0
  10
353.88989
  20
117.28636
  0
VERTEX
  5
2f0
  8
Layer_0
  10
354.20041
  20
116.83456
  0
VERTEX
  5
2f1
  8
Layer_0
  10
354.38342
  20
116.31779
  0
VERTEX
  5
2f2
  8
Layer_0
  10
354.42642
  20
115.77127
  0
VERTEX
  5
2f3
  8
Layer_0
  10
354.32654
  20
115.23224
  0
VERTEX
  5
2f4
  8
Layer_0
  10
354.09052
  20
114.73744
  0
VERTEX
  5
2f5
  8
Layer_0
  10
353.73447
  20
114.32057
  0
VERTEX
  5
2f6
  8
Layer_0
  10
353.28268
  20
114.01007
  0
VERTEX
  5
2f7
  8
Layer_0
  10
352.76593
  20
113.82707
  0
VERTEX
  5
2f8
  8
Layer_0
  10
352.21939
  20
113.78406
  0
VERTEX
  5
2f9
  8
Layer_0
  10
351.68036
  20
113.88396
  0
VERTEX
  5
2fa
  8
Layer_0
  10
351.18555
  20
114.11996
  0
VERTEX
  5
2fb
  8
Layer_0
  10
350.76871
  20
114.47601
  0
VERTEX
  5
2fc
  8
Layer_0
  10
350.45819
  20
114.9278
  0
VERTEX
  5
2fd
  8
Layer_0
  10
350.27521
  20
115.44456
  0
VERTEX
  5
2fe
  8
Layer_0
  10
350.23218
  20
115.99109
  0
VERTEX
  5
2ff
  8
Layer_0
  10
350.33209
  20
116.53012
  0
VERTEX
  5
300
  8
Layer_0
  10
350.56808
  20
117.02492
  0
VERTEX
  5
301
  8
Layer_0
  10
350.92413
  20
117.44179
  0
VERTEX
  5
302
  8
Layer_0
  10
351.37592
  20
117.75229
  0
SEQEND
  0
POLYLINE
  5
304
  8
Layer_0
  62
0
  66
1
  10
0
  20
0
  30
0
  0
VERTEX
  5
304
  8
Layer_0
  10
313.75378
  20
93.796173
  0
VERTEX
  5
305
  8
Layer_0
  10
313.68222
  20
93.252655
  0
VERTEX
  5
306
  8
Layer_0
  10
313.47244
  20
92.74617
  0
VERTEX
  5
307
  8
Layer_0
  10
313.1387
  20
92.311249
  0
VERTEX
  5
308
  8
Layer_0
  10
312.70377
  20
91.977524
  0
VERTEX
  5
309
  8
Layer_0
  10
312.1973
  20
91.767731
  0
VERTEX
  5
30a
  8
Layer_0
  10
311.65378
  20
91.696167
  0
VERTEX
  5
30b
  8
Layer_0
  10
311.11026
  20
91.767731
  0
VERTEX
  5
30c
  8
Layer_0
  10
310.60379
  20
91.977524
  0
VERTEX
  5
30d
  8
Layer_0
  10
310.16885
  20
92.311249
  0
VERTEX
  5
30e
  8
Layer_0
  10
309.83511
  20
92.74617
  0
VERTEX
  5
30f
  8
Layer_0
  10
309.62534
  20
93.252655
  0
VERTEX
  5
310
  8
Layer_0
  10
309.55377
  20
93.796173
  0
VERTEX
  5
311
  8
Layer_0
  10
309.62534
  20
94.339691
  0
VERTEX
  5
312
  8
Layer_0
  10
309.83511
  20
94.846176
  0
VERTEX
  5
313
  8
Layer_0
  10
310.16885
  20
95.281097
  0
VERTEX
  5
314
  8
Layer_0
  10
310.60379
  20
95.614822
  0
VERTEX
  5
315
  8
Layer_0
  10
311.11026
  20
95.824615
  0
VERTEX
  5
316
  8
Layer_0
  10
311.65378
  20
95.896179
  0
VERTEX
  5
317
  8
Layer_0
  10
312.1973
  20
95.824615
  0
VERTEX
  5
318
  8
Layer_0
  10
312.70377
  20
95.614822
  0
VERTEX
  5
319
  8
Layer_0
  10
313.1387
  20
95.281097
  0
VERTEX
  5
31a
  8
Layer_0
  10
313.47244
  20
94.846176
  0
VERTEX
  5
31b
  8
Layer_0
  10
313.68222
  20
94.339691
  0
VERTEX
  5
31c
  8
Layer_0
  10
313.75378
  20
93.796173
  0
SEQEND
  0
POLYLINE
  5
31e
  8
Layer_0
  62
0
  66
1
  10
0
  20
0
  30
0
  0
VERTEX
  5
31e
  8
Layer_0
  10
269.10715
  20
116.83456
  0
VERTEX
  5
31f
  8
Layer_0
  10
269.41766
  20
117.28636
  0
VERTEX
  5
320
  8
Layer_0
  10
269.8345
  20
117.6424
  0
VERTEX
  5
321
  8
Layer_0
  10
270.32932
  20
117.8784
  0
VERTEX
  5
322
  8
Layer_0
  10
270.86835
  20
117.9783
  0
VERTEX
  5
323
  8
Layer_0
  10
271.41486
  20
117.93529
  0
VERTEX
  5
324
  8
Layer_0
  10
271.93164
  20
117.75229
  0
VERTEX
  5
325
  8
Layer_0
  10
272.38342
  20
117.44179
  0
VERTEX
  5
326
  8
Layer_0
  10
272.73947
  20
117.02492
  0
VERTEX
  5
327
  8
Layer_0
  10
272.97546
  20
116.53012
  0
VERTEX
  5
328
  8
Layer_0
  10
273.07538
  20
115.99109
  0
VERTEX
  5
329
  8
Layer_0
  10
273.03238
  20
115.44456
  0
VERTEX
  5
32a
  8
Layer_0
  10
272.84937
  20
114.9278
  0
VERTEX
  5
32b
  8
Layer_0
  10
272.53885
  20
114.47601
  0
VERTEX
  5
32c
  8
Layer_0
  10
272.12201
  20
114.11996
  0
VERTEX
  5
32d
  8
Layer_0
  10
271.6272
  20
113.88396
  0
VERTEX
  5
32e
  8
Layer_0
  10
271.08817
  20
113.78406
  0
VERTEX
  5
32f
  8
Layer_0
  10
270.54163
  20
113.82707
  0
VERTEX
  5
330
  8
Layer_0
  10
270.02487
  20
114.01007
  0
VERTEX
  5
331
  8
Layer_0
  10
269.57309
  20
114.32057
  0
VERTEX
  5
332
  8
Layer_0
  10
269.21704
  20
114.73744
  0
VERTEX
  5
333
  8
Layer_0
  10
268.98105
  20
115.23224
  0
VERTEX
  5
334
  8
Layer_0
  10
268.88113
  20
115.77127
  0
VERTEX
  5
335
  8
Layer_0
  10
268.92413
  20
116.31779
  0
VERTEX
  5
336
  8
Layer_0
  10
269.10715
  20
116.83456
  0
SEQEND
  0
POLYLINE
  5
338
  8
Layer_0
  62
0
  66
1
  10
0
  20
0
  30
0
  0
VERTEX
  5
338
  8
Layer_0
  10
354.20041
  20
167.75778
  0
VERTEX
  5
339
  8
Layer_0
  10
353.88989
  20
167.306
  0
VERTEX
  5
33a
  8
Layer_0
  10
353.47305
  20
166.94995
  0
VERTEX
  5
33b
  8
Layer_0
  10
352.97824
  20
166.71396
  0
VERTEX
  5
33c
  8
Layer_0
  10
352.43921
  20
166.61404
  0
VERTEX
  5
33d
  8
Layer_0
  10
351.8927
  20
166.65706
  0
VERTEX
  5
33e
  8
Layer_0
  10
351.37592
  20
166.84006
  0
VERTEX
  5
33f
  8
Layer_0
  10
350.92413
  20
167.15056
  0
VERTEX
  5
340
  8
Layer_0
  10
350.56808
  20
167.56741
  0
VERTEX
  5
341
  8
Layer_0
  10
350.33209
  20
168.06223
  0
VERTEX
  5
342
  8
Layer_0
  10
350.23218
  20
168.60126
  0
VERTEX
  5
343
  8
Layer_0
  10
350.27521
  20
169.14778
  0
VERTEX
  5
344
  8
Layer_0
  10
350.45819
  20
169.66455
  0
VERTEX
  5
345
  8
Layer_0
  10
350.76871
  20
170.11633
  0
VERTEX
  5
346
  8
Layer_0
  10
351.18555
  20
170.47238
  0
VERTEX
  5
347
  8
Layer_0
  10
351.68036
  20
170.70837
  0
VERTEX
  5
348
  8
Layer_0
  10
352.21939
  20
170.80829
  0
VERTEX
  5
349
  8
Layer_0
  10
352.76593
  20
170.76527
  0
VERTEX
  5
34a
  8
Layer_0
  10
353.28268
  20
170.58228
  0
VERTEX
  5
34b
  8
Layer_0
  10
353.73447
  20
170.27176
  0
VERTEX
  5
34c
  8
Layer_0
  10
354.09052
  20
169.85492
  0
VERTEX
  5
34d
  8
Layer_0
  10
354.32654
  20
169.36011
  0
VERTEX
  5
34e
  8
Layer_0
  10
354.42642
  20
168.82108
  0
VERTEX
  5
34f
  8
Layer_0
  10
354.38342
  20
168.27455
  0
VERTEX
  5
350
  8
Layer_0
  10
354.20041
  20
167.75778
  0
SEQEND
  0
POLYLINE
  5
352
  8
Layer_0
  62
0
  66
1
  10
0
  20
0
  30
0
  0
VERTEX
  5
352
  8
Layer_0
  10
272.73947
  20
167.56741
  0
VERTEX
  5
353
  8
Layer_0
  10
272.38342
  20
167.15056
  0
VERTEX
  5
354
  8
Layer_0
  10
271.93164
  20
166.84006
  0
VERTEX
  5
355
  8
Layer_0
  10
271.41486
  20
166.65706
  0
VERTEX
  5
356
  8
Layer_0
  10
270.86835
  20
166.61404
  0
VERTEX
  5
357
  8
Layer_0
  10
270.32932
  20
166.71396
  0
VERTEX
  5
358
  8
Layer_0
  10
269.8345
  20
166.94995
  0
VERTEX
  5
359
  8
Layer_0
  10
269.41766
  20
167.306
  0
VERTEX
  5
35a
  8
Layer_0
  10
269.10715
  20
167.75778
  0
VERTEX
  5
35b
  8
Layer_0
  10
268.92413
  20
168.27455
  0
VERTEX
  5
35c
  8
Layer_0
  10
268.88113
  20
168.82108
  0
VERTEX
  5
35d
  8
Layer_0
  10
268.98105
  20
169.36011
  0
VERTEX
  5
35e
  8
Layer_0
  10
269.21704
  20
169.85492
  0
VERTEX
  5
35f
  8
Layer_0
  10
269.57309
  20
170.27176
  0
VERTEX
  5
360
  8
Layer_0
  10
270.02487
  20
170.58228
  0
VERTEX
  5
361
  8
Layer_0
  10
270.54163
  20
170.76527
  0
VERTEX
  5
362
  8
Layer_0
  10
271.08817
  20
170.80829
  0
VERTEX
  5
363
  8
Layer_0
  10
271.6272
  20
170.70837
  0
VERTEX
  5
364
  8
Layer_0
  10
272.12201
  20
170.47238
  0
VERTEX
  5
365
  8
Layer_0
  10
272.53885
  20
170.11633
  0
VERTEX
  5
366
  8
Layer_0
  10
272.84937
  20
169.66455
  0
VERTEX
  5
367
  8
Layer_0
  10
273.03238
  20
169.14778
  0
VERTEX
  5
368
  8
Layer_0
  10
273.07538
  20
168.60126
  0
VERTEX
  5
369
  8
Layer_0
  10
272.97546
  20
168.06223
  0
VERTEX
  5
36a
  8
Layer_0
  10
272.73947
  20
167.56741
  0
SEQEND
  0
ENDSEC
  0
EOF
