  0
SECTION
  2
HEADER
  9
$ACADVER
  1
AC1009
  0
ENDSEC
  0
SECTION
  2
ENTITIES
  0
POLYLINE
  5
90
  8
Layer_0
  62
0
  66
1
  10
0
  20
0
  30
0
  0
VERTEX
  5
90
  8
Layer_0
  10
227.20436
  20
260.00819
  0
VERTEX
  5
91
  8
Layer_0
  10
226.03967
  20
260.16153
  0
VERTEX
  5
92
  8
Layer_0
  10
224.95436
  20
260.61108
  0
VERTEX
  5
93
  8
Layer_0
  10
224.02238
  20
261.32621
  0
VERTEX
  5
94
  8
Layer_0
  10
223.30725
  20
262.25819
  0
VERTEX
  5
95
  8
Layer_0
  10
222.8577
  20
263.34351
  0
VERTEX
  5
96
  8
Layer_0
  10
222.70436
  20
264.50819
  0
VERTEX
  5
97
  8
Layer_0
  10
222.70436
  20
267.2997
  0
VERTEX
  5
98
  8
Layer_0
  10
222.64987
  20
267.68132
  0
VERTEX
  5
99
  8
Layer_0
  10
222.49078
  20
268.03245
  0
VERTEX
  5
9a
  8
Layer_0
  10
222.23979
  20
268.32503
  0
VERTEX
  5
9b
  8
Layer_0
  10
221.91695
  20
268.53569
  0
VERTEX
  5
9c
  8
Layer_0
  10
221.54807
  20
268.64759
  0
VERTEX
  5
9d
  8
Layer_0
  10
221.1626
  20
268.65179
  0
VERTEX
  5
9e
  8
Layer_0
  10
218.91333
  20
268.35567
  0
VERTEX
  5
9f
  8
Layer_0
  10
216.18504
  20
267.85001
  0
VERTEX
  5
a0
  8
Layer_0
  10
213.48695
  20
267.20226
  0
VERTEX
  5
a1
  8
Layer_0
  10
210.82646
  20
266.41419
  0
VERTEX
  5
a2
  8
Layer_0
  10
208.21086
  20
265.48795
  0
VERTEX
  5
a3
  8
Layer_0
  10
205.64732
  20
264.4261
  0
VERTEX
  5
a4
  8
Layer_0
  10
203.14287
  20
263.23154
  0
VERTEX
  5
a5
  8
Layer_0
  10
200.70436
  20
261.90754
  0
VERTEX
  5
a6
  8
Layer_0
  10
198.33849
  20
260.45773
  0
VERTEX
  5
a7
  8
Layer_0
  10
196.05174
  20
258.88609
  0
VERTEX
  5
a8
  8
Layer_0
  10
193.85037
  20
257.19693
  0
VERTEX
  5
a9
  8
Layer_0
  10
191.74043
  20
255.39487
  0
VERTEX
  5
aa
  8
Layer_0
  10
189.72771
  20
253.48485
  0
VERTEX
  5
ab
  8
Layer_0
  10
187.81769
  20
251.47211
  0
VERTEX
  5
ac
  8
Layer_0
  10
186.3443
  20
249.747
  0
VERTEX
  5
ad
  8
Layer_0
  10
186.13789
  20
249.42143
  0
VERTEX
  5
ae
  8
Layer_0
  10
186.03082
  20
249.05111
  0
VERTEX
  5
af
  8
Layer_0
  10
186.03166
  20
248.66562
  0
VERTEX
  5
b0
  8
Layer_0
  10
186.14035
  20
248.29577
  0
VERTEX
  5
b1
  8
Layer_0
  10
186.34818
  20
247.97111
  0
VERTEX
  5
b2
  8
Layer_0
  10
186.63855
  20
247.71757
  0
VERTEX
  5
b3
  8
Layer_0
  10
188.97972
  20
246.1972
  0
VERTEX
  5
b4
  8
Layer_0
  10
189.87299
  20
245.43427
  0
VERTEX
  5
b5
  8
Layer_0
  10
190.53836
  20
244.46614
  0
VERTEX
  5
b6
  8
Layer_0
  10
190.9305
  20
243.35879
  0
VERTEX
  5
b7
  8
Layer_0
  10
191.02267
  20
242.18768
  0
VERTEX
  5
b8
  8
Layer_0
  10
190.80859
  20
241.03261
  0
VERTEX
  5
b9
  8
Layer_0
  10
190.30286
  20
239.97231
  0
VERTEX
  5
ba
  8
Layer_0
  10
189.53993
  20
239.07903
  0
VERTEX
  5
bb
  8
Layer_0
  10
188.57179
  20
238.41366
  0
VERTEX
  5
bc
  8
Layer_0
  10
187.46445
  20
238.02152
  0
VERTEX
  5
bd
  8
Layer_0
  10
186.29332
  20
237.92935
  0
VERTEX
  5
be
  8
Layer_0
  10
185.13826
  20
238.14343
  0
VERTEX
  5
bf
  8
Layer_0
  10
184.07796
  20
238.64917
  0
VERTEX
  5
c0
  8
Layer_0
  10
181.7368
  20
240.16953
  0
VERTEX
  5
c1
  8
Layer_0
  10
181.38708
  20
240.33168
  0
VERTEX
  5
c2
  8
Layer_0
  10
181.00595
  20
240.3895
  0
VERTEX
  5
c3
  8
Layer_0
  10
180.62387
  20
240.33834
  0
VERTEX
  5
c4
  8
Layer_0
  10
180.27136
  20
240.18232
  0
VERTEX
  5
c5
  8
Layer_0
  10
179.97661
  20
239.93389
  0
VERTEX
  5
c6
  8
Layer_0
  10
179.76314
  20
239.6129
  0
VERTEX
  5
c7
  8
Layer_0
  10
178.64828
  20
237.23169
  0
VERTEX
  5
c8
  8
Layer_0
  10
177.72459
  20
235.00169
  0
VERTEX
  5
c9
  8
Layer_0
  10
176.79837
  20
232.38609
  0
VERTEX
  5
ca
  8
Layer_0
  10
176.0103
  20
229.7256
  0
VERTEX
  5
cb
  8
Layer_0
  10
175.36253
  20
227.02751
  0
VERTEX
  5
cc
  8
Layer_0
  10
174.85687
  20
224.29922
  0
VERTEX
  5
cd
  8
Layer_0
  10
174.49471
  20
221.5482
  0
VERTEX
  5
ce
  8
Layer_0
  10
174.27699
  20
218.782
  0
VERTEX
  5
cf
  8
Layer_0
  10
174.25235
  20
217.84068
  0
VERTEX
  5
d0
  8
Layer_0
  10
174.20436
  20
216.00819
  0
VERTEX
  5
d1
  8
Layer_0
  10
174.27699
  20
213.23439
  0
VERTEX
  5
d2
  8
Layer_0
  10
174.49471
  20
210.46819
  0
VERTEX
  5
d3
  8
Layer_0
  10
174.85687
  20
207.71716
  0
VERTEX
  5
d4
  8
Layer_0
  10
175.36253
  20
204.98888
  0
VERTEX
  5
d5
  8
Layer_0
  10
176.0103
  20
202.29078
  0
VERTEX
  5
d6
  8
Layer_0
  10
176.79837
  20
199.63029
  0
VERTEX
  5
d7
  8
Layer_0
  10
177.72459
  20
197.01469
  0
VERTEX
  5
d8
  8
Layer_0
  10
178.78645
  20
194.45115
  0
VERTEX
  5
d9
  8
Layer_0
  10
179.76314
  20
192.40348
  0
VERTEX
  5
da
  8
Layer_0
  10
179.97661
  20
192.08249
  0
VERTEX
  5
db
  8
Layer_0
  10
180.27136
  20
191.83406
  0
VERTEX
  5
dc
  8
Layer_0
  10
180.62387
  20
191.67804
  0
VERTEX
  5
dd
  8
Layer_0
  10
181.00595
  20
191.62688
  0
VERTEX
  5
de
  8
Layer_0
  10
181.38708
  20
191.6847
  0
VERTEX
  5
df
  8
Layer_0
  10
181.7368
  20
191.84685
  0
VERTEX
  5
e0
  8
Layer_0
  10
184.07796
  20
193.36722
  0
VERTEX
  5
e1
  8
Layer_0
  10
185.13826
  20
193.87296
  0
VERTEX
  5
e2
  8
Layer_0
  10
186.29332
  20
194.08703
  0
VERTEX
  5
e3
  8
Layer_0
  10
187.46445
  20
193.99487
  0
VERTEX
  5
e4
  8
Layer_0
  10
188.57179
  20
193.60273
  0
VERTEX
  5
e5
  8
Layer_0
  10
189.53993
  20
192.93735
  0
VERTEX
  5
e6
  8
Layer_0
  10
190.30286
  20
192.04408
  0
VERTEX
  5
e7
  8
Layer_0
  10
190.80859
  20
190.98377
  0
VERTEX
  5
e8
  8
Layer_0
  10
191.02267
  20
189.82871
  0
VERTEX
  5
e9
  8
Layer_0
  10
190.9305
  20
188.65759
  0
VERTEX
  5
ea
  8
Layer_0
  10
190.53836
  20
187.55024
  0
VERTEX
  5
eb
  8
Layer_0
  10
189.87299
  20
186.58211
  0
VERTEX
  5
ec
  8
Layer_0
  10
188.97972
  20
185.81918
  0
VERTEX
  5
ed
  8
Layer_0
  10
186.63855
  20
184.29881
  0
VERTEX
  5
ee
  8
Layer_0
  10
186.34818
  20
184.04528
  0
VERTEX
  5
ef
  8
Layer_0
  10
186.14035
  20
183.72061
  0
VERTEX
  5
f0
  8
Layer_0
  10
186.03166
  20
183.35076
  0
VERTEX
  5
f1
  8
Layer_0
  10
186.03082
  20
182.96527
  0
VERTEX
  5
f2
  8
Layer_0
  10
186.13789
  20
182.59495
  0
VERTEX
  5
f3
  8
Layer_0
  10
186.3443
  20
182.26938
  0
VERTEX
  5
f4
  8
Layer_0
  10
187.60997
  20
180.43952
  0
VERTEX
  5
f5
  8
Layer_0
  10
188.94336
  20
178.05859
  0
VERTEX
  5
f6
  8
Layer_0
  10
189.99866
  20
175.54201
  0
VERTEX
  5
f7
  8
Layer_0
  10
190.76227
  20
172.92215
  0
VERTEX
  5
f8
  8
Layer_0
  10
191.2244
  20
170.23268
  0
VERTEX
  5
f9
  8
Layer_0
  10
191.37912
  20
167.50819
  0
VERTEX
  5
fa
  8
Layer_0
  10
191.2244
  20
164.78369
  0
VERTEX
  5
fb
  8
Layer_0
  10
190.76227
  20
162.09424
  0
VERTEX
  5
fc
  8
Layer_0
  10
189.99866
  20
159.47437
  0
VERTEX
  5
fd
  8
Layer_0
  10
188.94336
  20
156.95779
  0
VERTEX
  5
fe
  8
Layer_0
  10
187.60997
  20
154.57686
  0
VERTEX
  5
ff
  8
Layer_0
  10
186.3443
  20
152.74701
  0
VERTEX
  5
100
  8
Layer_0
  10
186.13789
  20
152.42143
  0
VERTEX
  5
101
  8
Layer_0
  10
186.03082
  20
152.05112
  0
VERTEX
  5
102
  8
Layer_0
  10
186.03166
  20
151.66562
  0
VERTEX
  5
103
  8
Layer_0
  10
186.14035
  20
151.29578
  0
VERTEX
  5
104
  8
Layer_0
  10
186.34818
  20
150.9711
  0
VERTEX
  5
105
  8
Layer_0
  10
186.63855
  20
150.71756
  0
VERTEX
  5
106
  8
Layer_0
  10
188.97972
  20
149.1972
  0
VERTEX
  5
107
  8
Layer_0
  10
189.87299
  20
148.43427
  0
VERTEX
  5
108
  8
Layer_0
  10
190.53836
  20
147.46614
  0
VERTEX
  5
109
  8
Layer_0
  10
190.9305
  20
146.3588
  0
VERTEX
  5
10a
  8
Layer_0
  10
191.02267
  20
145.18768
  0
VERTEX
  5
10b
  8
Layer_0
  10
190.80859
  20
144.03261
  0
VERTEX
  5
10c
  8
Layer_0
  10
190.30286
  20
142.97231
  0
VERTEX
  5
10d
  8
Layer_0
  10
189.53993
  20
142.07904
  0
VERTEX
  5
10e
  8
Layer_0
  10
188.57179
  20
141.41367
  0
VERTEX
  5
10f
  8
Layer_0
  10
187.46445
  20
141.02151
  0
VERTEX
  5
110
  8
Layer_0
  10
186.29332
  20
140.92935
  0
VERTEX
  5
111
  8
Layer_0
  10
185.13826
  20
141.14343
  0
VERTEX
  5
112
  8
Layer_0
  10
184.07796
  20
141.64917
  0
VERTEX
  5
113
  8
Layer_0
  10
181.7368
  20
143.16953
  0
VERTEX
  5
114
  8
Layer_0
  10
181.38708
  20
143.3317
  0
VERTEX
  5
115
  8
Layer_0
  10
181.00595
  20
143.3895
  0
VERTEX
  5
116
  8
Layer_0
  10
180.62387
  20
143.33835
  0
VERTEX
  5
117
  8
Layer_0
  10
180.27136
  20
143.18231
  0
VERTEX
  5
118
  8
Layer_0
  10
179.97661
  20
142.9339
  0
VERTEX
  5
119
  8
Layer_0
  10
179.76314
  20
142.6129
  0
VERTEX
  5
11a
  8
Layer_0
  10
178.78645
  20
140.56523
  0
VERTEX
  5
11b
  8
Layer_0
  10
177.72459
  20
138.00169
  0
VERTEX
  5
11c
  8
Layer_0
  10
176.79837
  20
135.38609
  0
VERTEX
  5
11d
  8
Layer_0
  10
176.0103
  20
132.7256
  0
VERTEX
  5
11e
  8
Layer_0
  10
175.36253
  20
130.02751
  0
VERTEX
  5
11f
  8
Layer_0
  10
174.85687
  20
127.29922
  0
VERTEX
  5
120
  8
Layer_0
  10
174.49471
  20
124.5482
  0
VERTEX
  5
121
  8
Layer_0
  10
174.27699
  20
121.782
  0
VERTEX
  5
122
  8
Layer_0
  10
174.20436
  20
119.00819
  0
VERTEX
  5
123
  8
Layer_0
  10
174.25235
  20
117.1757
  0
VERTEX
  5
124
  8
Layer_0
  10
174.27699
  20
116.23439
  0
VERTEX
  5
125
  8
Layer_0
  10
174.49471
  20
113.46819
  0
VERTEX
  5
126
  8
Layer_0
  10
174.85687
  20
110.71716
  0
VERTEX
  5
127
  8
Layer_0
  10
175.36253
  20
107.98888
  0
VERTEX
  5
128
  8
Layer_0
  10
176.0103
  20
105.29079
  0
VERTEX
  5
129
  8
Layer_0
  10
176.79837
  20
102.63029
  0
VERTEX
  5
12a
  8
Layer_0
  10
177.72459
  20
100.01469
  0
VERTEX
  5
12b
  8
Layer_0
  10
178.64828
  20
97.784698
  0
VERTEX
  5
12c
  8
Layer_0
  10
179.76314
  20
95.403488
  0
VERTEX
  5
12d
  8
Layer_0
  10
179.97661
  20
95.082489
  0
VERTEX
  5
12e
  8
Layer_0
  10
180.27136
  20
94.834061
  0
VERTEX
  5
12f
  8
Layer_0
  10
180.62387
  20
94.67804
  0
VERTEX
  5
130
  8
Layer_0
  10
181.00595
  20
94.626892
  0
VERTEX
  5
131
  8
Layer_0
  10
181.38708
  20
94.684692
  0
VERTEX
  5
132
  8
Layer_0
  10
181.7368
  20
94.846848
  0
VERTEX
  5
133
  8
Layer_0
  10
184.07796
  20
96.367218
  0
VERTEX
  5
134
  8
Layer_0
  10
185.13826
  20
96.872955
  0
VERTEX
  5
135
  8
Layer_0
  10
186.29332
  20
97.087036
  0
VERTEX
  5
136
  8
Layer_0
  10
187.46445
  20
96.994858
  0
VERTEX
  5
137
  8
Layer_0
  10
188.57179
  20
96.602722
  0
VERTEX
  5
138
  8
Layer_0
  10
189.53993
  20
95.937347
  0
VERTEX
  5
139
  8
Layer_0
  10
190.30286
  20
95.044067
  0
VERTEX
  5
13a
  8
Layer_0
  10
190.80859
  20
93.98378
  0
VERTEX
  5
13b
  8
Layer_0
  10
191.02267
  20
92.828705
  0
VERTEX
  5
13c
  8
Layer_0
  10
190.9305
  20
91.657593
  0
VERTEX
  5
13d
  8
Layer_0
  10
190.53836
  20
90.550247
  0
VERTEX
  5
13e
  8
Layer_0
  10
189.87299
  20
89.582108
  0
VERTEX
  5
13f
  8
Layer_0
  10
188.97972
  20
88.819183
  0
VERTEX
  5
140
  8
Layer_0
  10
186.63855
  20
87.298813
  0
VERTEX
  5
141
  8
Layer_0
  10
186.34818
  20
87.045273
  0
VERTEX
  5
142
  8
Layer_0
  10
186.14035
  20
86.720612
  0
VERTEX
  5
143
  8
Layer_0
  10
186.03166
  20
86.350754
  0
VERTEX
  5
144
  8
Layer_0
  10
186.03082
  20
85.965271
  0
VERTEX
  5
145
  8
Layer_0
  10
186.13789
  20
85.594955
  0
VERTEX
  5
146
  8
Layer_0
  10
186.3443
  20
85.269379
  0
VERTEX
  5
147
  8
Layer_0
  10
187.81769
  20
83.544266
  0
VERTEX
  5
148
  8
Layer_0
  10
189.72771
  20
81.531525
  0
VERTEX
  5
149
  8
Layer_0
  10
191.74043
  20
79.621521
  0
VERTEX
  5
14a
  8
Layer_0
  10
193.85037
  20
77.819458
  0
VERTEX
  5
14b
  8
Layer_0
  10
196.05174
  20
76.130295
  0
VERTEX
  5
14c
  8
Layer_0
  10
198.33849
  20
74.558655
  0
VERTEX
  5
14d
  8
Layer_0
  10
200.70436
  20
73.108841
  0
VERTEX
  5
14e
  8
Layer_0
  10
203.14287
  20
71.784851
  0
VERTEX
  5
14f
  8
Layer_0
  10
205.64732
  20
70.590286
  0
VERTEX
  5
150
  8
Layer_0
  10
208.21086
  20
69.528427
  0
VERTEX
  5
151
  8
Layer_0
  10
210.82646
  20
68.602203
  0
VERTEX
  5
152
  8
Layer_0
  10
213.48695
  20
67.814117
  0
VERTEX
  5
153
  8
Layer_0
  10
216.18504
  20
67.166367
  0
VERTEX
  5
154
  8
Layer_0
  10
218.91333
  20
66.660706
  0
VERTEX
  5
155
  8
Layer_0
  10
221.1626
  20
66.364594
  0
VERTEX
  5
156
  8
Layer_0
  10
221.54807
  20
66.36879
  0
VERTEX
  5
157
  8
Layer_0
  10
221.91695
  20
66.480698
  0
VERTEX
  5
158
  8
Layer_0
  10
222.23979
  20
66.691345
  0
VERTEX
  5
159
  8
Layer_0
  10
222.49078
  20
66.983932
  0
VERTEX
  5
15a
  8
Layer_0
  10
222.64987
  20
67.335068
  0
VERTEX
  5
15b
  8
Layer_0
  10
222.70436
  20
67.716675
  0
VERTEX
  5
15c
  8
Layer_0
  10
222.70436
  20
70.508194
  0
VERTEX
  5
15d
  8
Layer_0
  10
222.8577
  20
71.672882
  0
VERTEX
  5
15e
  8
Layer_0
  10
223.30725
  20
72.758194
  0
VERTEX
  5
15f
  8
Layer_0
  10
224.02238
  20
73.69017
  0
VERTEX
  5
160
  8
Layer_0
  10
224.95436
  20
74.405304
  0
VERTEX
  5
161
  8
Layer_0
  10
226.03967
  20
74.854858
  0
VERTEX
  5
162
  8
Layer_0
  10
227.20436
  20
75.008194
  0
VERTEX
  5
163
  8
Layer_0
  10
228.36905
  20
74.854858
  0
VERTEX
  5
164
  8
Layer_0
  10
229.45436
  20
74.405304
  0
VERTEX
  5
165
  8
Layer_0
  10
230.38634
  20
73.69017
  0
VERTEX
  5
166
  8
Layer_0
  10
231.10147
  20
72.758194
  0
VERTEX
  5
167
  8
Layer_0
  10
231.55103
  20
71.672882
  0
VERTEX
  5
168
  8
Layer_0
  10
231.70436
  20
70.508194
  0
VERTEX
  5
169
  8
Layer_0
  10
231.70436
  20
67.716675
  0
VERTEX
  5
16a
  8
Layer_0
  10
231.75885
  20
67.335068
  0
VERTEX
  5
16b
  8
Layer_0
  10
231.91794
  20
66.983932
  0
VERTEX
  5
16c
  8
Layer_0
  10
232.16893
  20
66.691345
  0
VERTEX
  5
16d
  8
Layer_0
  10
232.49178
  20
66.480698
  0
VERTEX
  5
16e
  8
Layer_0
  10
232.86066
  20
66.36879
  0
VERTEX
  5
16f
  8
Layer_0
  10
233.24612
  20
66.364594
  0
VERTEX
  5
170
  8
Layer_0
  10
235.49539
  20
66.660706
  0
VERTEX
  5
171
  8
Layer_0
  10
238.22368
  20
67.166367
  0
VERTEX
  5
172
  8
Layer_0
  10
240.92177
  20
67.814117
  0
VERTEX
  5
173
  8
Layer_0
  10
243.58226
  20
68.602203
  0
VERTEX
  5
174
  8
Layer_0
  10
246.19786
  20
69.528427
  0
VERTEX
  5
175
  8
Layer_0
  10
248.76141
  20
70.590286
  0
VERTEX
  5
176
  8
Layer_0
  10
251.26585
  20
71.784851
  0
VERTEX
  5
177
  8
Layer_0
  10
253.70436
  20
73.108841
  0
VERTEX
  5
178
  8
Layer_0
  10
256.07022
  20
74.558655
  0
VERTEX
  5
179
  8
Layer_0
  10
258.35699
  20
76.130295
  0
VERTEX
  5
17a
  8
Layer_0
  10
260.55835
  20
77.819458
  0
VERTEX
  5
17b
  8
Layer_0
  10
262.66827
  20
79.621521
  0
VERTEX
  5
17c
  8
Layer_0
  10
264.68103
  20
81.531525
  0
VERTEX
  5
17d
  8
Layer_0
  10
266.59103
  20
83.544266
  0
VERTEX
  5
17e
  8
Layer_0
  10
268.06442
  20
85.269379
  0
VERTEX
  5
17f
  8
Layer_0
  10
268.27084
  20
85.594955
  0
VERTEX
  5
180
  8
Layer_0
  10
268.3779
  20
85.965271
  0
VERTEX
  5
181
  8
Layer_0
  10
268.37704
  20
86.350754
  0
VERTEX
  5
182
  8
Layer_0
  10
268.26837
  20
86.720612
  0
VERTEX
  5
183
  8
Layer_0
  10
268.06055
  20
87.045273
  0
VERTEX
  5
184
  8
Layer_0
  10
267.77017
  20
87.298813
  0
VERTEX
  5
185
  8
Layer_0
  10
265.42902
  20
88.819183
  0
VERTEX
  5
186
  8
Layer_0
  10
264.53574
  20
89.582108
  0
VERTEX
  5
187
  8
Layer_0
  10
263.87036
  20
90.550247
  0
VERTEX
  5
188
  8
Layer_0
  10
263.47821
  20
91.657593
  0
VERTEX
  5
189
  8
Layer_0
  10
263.38605
  20
92.828705
  0
VERTEX
  5
18a
  8
Layer_0
  10
263.60013
  20
93.98378
  0
VERTEX
  5
18b
  8
Layer_0
  10
264.10587
  20
95.044067
  0
VERTEX
  5
18c
  8
Layer_0
  10
264.8688
  20
95.937347
  0
VERTEX
  5
18d
  8
Layer_0
  10
265.83691
  20
96.602722
  0
VERTEX
  5
18e
  8
Layer_0
  10
266.94427
  20
96.994858
  0
VERTEX
  5
18f
  8
Layer_0
  10
268.11539
  20
97.087036
  0
VERTEX
  5
190
  8
Layer_0
  10
269.27045
  20
96.872955
  0
VERTEX
  5
191
  8
Layer_0
  10
270.33075
  20
96.367218
  0
VERTEX
  5
192
  8
Layer_0
  10
272.67194
  20
94.846848
  0
VERTEX
  5
193
  8
Layer_0
  10
273.02164
  20
94.684692
  0
VERTEX
  5
194
  8
Layer_0
  10
273.40277
  20
94.626892
  0
VERTEX
  5
195
  8
Layer_0
  10
273.78485
  20
94.67804
  0
VERTEX
  5
196
  8
Layer_0
  10
274.13736
  20
94.834061
  0
VERTEX
  5
197
  8
Layer_0
  10
274.43213
  20
95.082489
  0
VERTEX
  5
198
  8
Layer_0
  10
274.64557
  20
95.403488
  0
VERTEX
  5
199
  8
Layer_0
  10
275.62225
  20
97.451157
  0
VERTEX
  5
19a
  8
Layer_0
  10
276.68411
  20
100.01469
  0
VERTEX
  5
19b
  8
Layer_0
  10
277.61035
  20
102.63029
  0
VERTEX
  5
19c
  8
Layer_0
  10
278.39844
  20
105.29079
  0
VERTEX
  5
19d
  8
Layer_0
  10
279.04617
  20
107.98888
  0
VERTEX
  5
19e
  8
Layer_0
  10
279.55185
  20
110.71716
  0
VERTEX
  5
19f
  8
Layer_0
  10
279.91403
  20
113.46819
  0
VERTEX
  5
1a0
  8
Layer_0
  10
280.13171
  20
116.23439
  0
VERTEX
  5
1a1
  8
Layer_0
  10
280.20435
  20
119.00819
  0
VERTEX
  5
1a2
  8
Layer_0
  10
280.13171
  20
121.782
  0
VERTEX
  5
1a3
  8
Layer_0
  10
279.91403
  20
124.5482
  0
VERTEX
  5
1a4
  8
Layer_0
  10
279.55185
  20
127.29922
  0
VERTEX
  5
1a5
  8
Layer_0
  10
279.04617
  20
130.02751
  0
VERTEX
  5
1a6
  8
Layer_0
  10
278.39844
  20
132.7256
  0
VERTEX
  5
1a7
  8
Layer_0
  10
277.61035
  20
135.38609
  0
VERTEX
  5
1a8
  8
Layer_0
  10
276.68411
  20
138.00169
  0
VERTEX
  5
1a9
  8
Layer_0
  10
275.62225
  20
140.56523
  0
VERTEX
  5
1aa
  8
Layer_0
  10
274.64557
  20
142.6129
  0
VERTEX
  5
1ab
  8
Layer_0
  10
274.43213
  20
142.9339
  0
VERTEX
  5
1ac
  8
Layer_0
  10
274.13736
  20
143.18231
  0
VERTEX
  5
1ad
  8
Layer_0
  10
273.78485
  20
143.33835
  0
VERTEX
  5
1ae
  8
Layer_0
  10
273.40277
  20
143.3895
  0
VERTEX
  5
1af
  8
Layer_0
  10
273.02164
  20
143.3317
  0
VERTEX
  5
1b0
  8
Layer_0
  10
272.67194
  20
143.16953
  0
VERTEX
  5
1b1
  8
Layer_0
  10
270.33075
  20
141.64917
  0
VERTEX
  5
1b2
  8
Layer_0
  10
269.27045
  20
141.14343
  0
VERTEX
  5
1b3
  8
Layer_0
  10
268.11539
  20
140.92935
  0
VERTEX
  5
1b4
  8
Layer_0
  10
266.94427
  20
141.02151
  0
VERTEX
  5
1b5
  8
Layer_0
  10
265.83691
  20
141.41367
  0
VERTEX
  5
1b6
  8
Layer_0
  10
264.8688
  20
142.07904
  0
VERTEX
  5
1b7
  8
Layer_0
  10
264.10587
  20
142.97231
  0
VERTEX
  5
1b8
  8
Layer_0
  10
263.60013
  20
144.03261
  0
VERTEX
  5
1b9
  8
Layer_0
  10
263.38605
  20
145.18768
  0
VERTEX
  5
1ba
  8
Layer_0
  10
263.47821
  20
146.3588
  0
VERTEX
  5
1bb
  8
Layer_0
  10
263.87036
  20
147.46614
  0
VERTEX
  5
1bc
  8
Layer_0
  10
264.53574
  20
148.43427
  0
VERTEX
  5
1bd
  8
Layer_0
  10
265.42902
  20
149.1972
  0
VERTEX
  5
1be
  8
Layer_0
  10
267.77017
  20
150.71756
  0
VERTEX
  5
1bf
  8
Layer_0
  10
268.06055
  20
150.9711
  0
VERTEX
  5
1c0
  8
Layer_0
  10
268.26837
  20
151.29578
  0
VERTEX
  5
1c1
  8
Layer_0
  10
268.37704
  20
151.66562
  0
VERTEX
  5
1c2
  8
Layer_0
  10
268.3779
  20
152.05112
  0
VERTEX
  5
1c3
  8
Layer_0
  10
268.27084
  20
152.42143
  0
VERTEX
  5
1c4
  8
Layer_0
  10
268.06442
  20
152.74701
  0
VERTEX
  5
1c5
  8
Layer_0
  10
266.79877
  20
154.57686
  0
VERTEX
  5
1c6
  8
Layer_0
  10
265.46536
  20
156.95779
  0
VERTEX
  5
1c7
  8
Layer_0
  10
264.41006
  20
159.47437
  0
VERTEX
  5
1c8
  8
Layer_0
  10
263.64645
  20
162.09424
  0
VERTEX
  5
1c9
  8
Layer_0
  10
263.18433
  20
164.78369
  0
VERTEX
  5
1ca
  8
Layer_0
  10
263.0296
  20
167.50819
  0
VERTEX
  5
1cb
  8
Layer_0
  10
263.18433
  20
170.23268
  0
VERTEX
  5
1cc
  8
Layer_0
  10
263.64645
  20
172.92215
  0
VERTEX
  5
1cd
  8
Layer_0
  10
264.41006
  20
175.54201
  0
VERTEX
  5
1ce
  8
Layer_0
  10
265.46536
  20
178.05859
  0
VERTEX
  5
1cf
  8
Layer_0
  10
266.79877
  20
180.43952
  0
VERTEX
  5
1d0
  8
Layer_0
  10
268.06442
  20
182.26938
  0
VERTEX
  5
1d1
  8
Layer_0
  10
268.27084
  20
182.59495
  0
VERTEX
  5
1d2
  8
Layer_0
  10
268.3779
  20
182.96527
  0
VERTEX
  5
1d3
  8
Layer_0
  10
268.37704
  20
183.35076
  0
VERTEX
  5
1d4
  8
Layer_0
  10
268.26837
  20
183.72061
  0
VERTEX
  5
1d5
  8
Layer_0
  10
268.06055
  20
184.04528
  0
VERTEX
  5
1d6
  8
Layer_0
  10
267.77017
  20
184.29881
  0
VERTEX
  5
1d7
  8
Layer_0
  10
265.42902
  20
185.81918
  0
VERTEX
  5
1d8
  8
Layer_0
  10
264.53574
  20
186.58211
  0
VERTEX
  5
1d9
  8
Layer_0
  10
263.87036
  20
187.55024
  0
VERTEX
  5
1da
  8
Layer_0
  10
263.47821
  20
188.65759
  0
VERTEX
  5
1db
  8
Layer_0
  10
263.38605
  20
189.82871
  0
VERTEX
  5
1dc
  8
Layer_0
  10
263.60013
  20
190.98377
  0
VERTEX
  5
1dd
  8
Layer_0
  10
264.10587
  20
192.04408
  0
VERTEX
  5
1de
  8
Layer_0
  10
264.8688
  20
192.93735
  0
VERTEX
  5
1df
  8
Layer_0
  10
265.83691
  20
193.60273
  0
VERTEX
  5
1e0
  8
Layer_0
  10
266.94427
  20
193.99487
  0
VERTEX
  5
1e1
  8
Layer_0
  10
268.11539
  20
194.08703
  0
VERTEX
  5
1e2
  8
Layer_0
  10
269.27045
  20
193.87296
  0
VERTEX
  5
1e3
  8
Layer_0
  10
270.33075
  20
193.36722
  0
VERTEX
  5
1e4
  8
Layer_0
  10
272.67194
  20
191.84685
  0
VERTEX
  5
1e5
  8
Layer_0
  10
273.02164
  20
191.6847
  0
VERTEX
  5
1e6
  8
Layer_0
  10
273.40277
  20
191.62688
  0
VERTEX
  5
1e7
  8
Layer_0
  10
273.78485
  20
191.67804
  0
VERTEX
  5
1e8
  8
Layer_0
  10
274.13736
  20
191.83406
  0
VERTEX
  5
1e9
  8
Layer_0
  10
274.43213
  20
192.08249
  0
VERTEX
  5
1ea
  8
Layer_0
  10
274.64557
  20
192.40348
  0
VERTEX
  5
1eb
  8
Layer_0
  10
275.62225
  20
194.45115
  0
VERTEX
  5
1ec
  8
Layer_0
  10
276.68411
  20
197.01469
  0
VERTEX
  5
1ed
  8
Layer_0
  10
277.61035
  20
199.63029
  0
VERTEX
  5
1ee
  8
Layer_0
  10
278.39844
  20
202.29078
  0
VERTEX
  5
1ef
  8
Layer_0
  10
279.04617
  20
204.98888
  0
VERTEX
  5
1f0
  8
Layer_0
  10
279.55185
  20
207.71716
  0
VERTEX
  5
1f1
  8
Layer_0
  10
279.91403
  20
210.46819
  0
VERTEX
  5
1f2
  8
Layer_0
  10
280.13171
  20
213.23439
  0
VERTEX
  5
1f3
  8
Layer_0
  10
280.20435
  20
216.00819
  0
VERTEX
  5
1f4
  8
Layer_0
  10
280.13171
  20
218.782
  0
VERTEX
  5
1f5
  8
Layer_0
  10
279.91403
  20
221.5482
  0
VERTEX
  5
1f6
  8
Layer_0
  10
279.55185
  20
224.29922
  0
VERTEX
  5
1f7
  8
Layer_0
  10
279.04617
  20
227.02751
  0
VERTEX
  5
1f8
  8
Layer_0
  10
278.39844
  20
229.7256
  0
VERTEX
  5
1f9
  8
Layer_0
  10
277.61035
  20
232.38609
  0
VERTEX
  5
1fa
  8
Layer_0
  10
276.68411
  20
235.00169
  0
VERTEX
  5
1fb
  8
Layer_0
  10
275.62225
  20
237.56523
  0
VERTEX
  5
1fc
  8
Layer_0
  10
274.64557
  20
239.6129
  0
VERTEX
  5
1fd
  8
Layer_0
  10
274.43213
  20
239.93389
  0
VERTEX
  5
1fe
  8
Layer_0
  10
274.13736
  20
240.18232
  0
VERTEX
  5
1ff
  8
Layer_0
  10
273.78485
  20
240.33834
  0
VERTEX
  5
200
  8
Layer_0
  10
273.40277
  20
240.3895
  0
VERTEX
  5
201
  8
Layer_0
  10
273.02164
  20
240.33168
  0
VERTEX
  5
202
  8
Layer_0
  10
272.67194
  20
240.16953
  0
VERTEX
  5
203
  8
Layer_0
  10
270.33075
  20
238.64917
  0
VERTEX
  5
204
  8
Layer_0
  10
269.27045
  20
238.14343
  0
VERTEX
  5
205
  8
Layer_0
  10
268.11539
  20
237.92935
  0
VERTEX
  5
206
  8
Layer_0
  10
266.94427
  20
238.02152
  0
VERTEX
  5
207
  8
Layer_0
  10
265.83691
  20
238.41366
  0
VERTEX
  5
208
  8
Layer_0
  10
264.8688
  20
239.07903
  0
VERTEX
  5
209
  8
Layer_0
  10
264.10587
  20
239.97231
  0
VERTEX
  5
20a
  8
Layer_0
  10
263.60013
  20
241.03261
  0
VERTEX
  5
20b
  8
Layer_0
  10
263.38605
  20
242.18768
  0
VERTEX
  5
20c
  8
Layer_0
  10
263.47821
  20
243.35879
  0
VERTEX
  5
20d
  8
Layer_0
  10
263.87036
  20
244.46614
  0
VERTEX
  5
20e
  8
Layer_0
  10
264.53574
  20
245.43427
  0
VERTEX
  5
20f
  8
Layer_0
  10
265.42902
  20
246.1972
  0
VERTEX
  5
210
  8
Layer_0
  10
267.77017
  20
247.71757
  0
VERTEX
  5
211
  8
Layer_0
  10
268.06055
  20
247.97111
  0
VERTEX
  5
212
  8
Layer_0
  10
268.26837
  20
248.29577
  0
VERTEX
  5
213
  8
Layer_0
  10
268.37704
  20
248.66562
  0
VERTEX
  5
214
  8
Layer_0
  10
268.3779
  20
249.05111
  0
VERTEX
  5
215
  8
Layer_0
  10
268.27084
  20
249.42143
  0
VERTEX
  5
216
  8
Layer_0
  10
268.06442
  20
249.747
  0
VERTEX
  5
217
  8
Layer_0
  10
266.59103
  20
251.47211
  0
VERTEX
  5
218
  8
Layer_0
  10
264.68103
  20
253.48485
  0
VERTEX
  5
219
  8
Layer_0
  10
262.66827
  20
255.39487
  0
VERTEX
  5
21a
  8
Layer_0
  10
260.55835
  20
257.19693
  0
VERTEX
  5
21b
  8
Layer_0
  10
258.35699
  20
258.88609
  0
VERTEX
  5
21c
  8
Layer_0
  10
256.07022
  20
260.45773
  0
VERTEX
  5
21d
  8
Layer_0
  10
253.70436
  20
261.90754
  0
VERTEX
  5
21e
  8
Layer_0
  10
251.26585
  20
263.23154
  0
VERTEX
  5
21f
  8
Layer_0
  10
248.76141
  20
264.4261
  0
VERTEX
  5
220
  8
Layer_0
  10
246.19786
  20
265.48795
  0
VERTEX
  5
221
  8
Layer_0
  10
243.58226
  20
266.41419
  0
VERTEX
  5
222
  8
Layer_0
  10
240.92177
  20
267.20226
  0
VERTEX
  5
223
  8
Layer_0
  10
238.22368
  20
267.85001
  0
VERTEX
  5
224
  8
Layer_0
  10
235.49539
  20
268.35567
  0
VERTEX
  5
225
  8
Layer_0
  10
233.24612
  20
268.65179
  0
VERTEX
  5
226
  8
Layer_0
  10
232.86066
  20
268.64759
  0
VERTEX
  5
227
  8
Layer_0
  10
232.49178
  20
268.53569
  0
VERTEX
  5
228
  8
Layer_0
  10
232.16893
  20
268.32503
  0
VERTEX
  5
229
  8
Layer_0
  10
231.91794
  20
268.03245
  0
VERTEX
  5
22a
  8
Layer_0
  10
231.75885
  20
267.68132
  0
VERTEX
  5
22b
  8
Layer_0
  10
231.70436
  20
267.2997
  0
VERTEX
  5
22c
  8
Layer_0
  10
231.70436
  20
264.50819
  0
VERTEX
  5
22d
  8
Layer_0
  10
231.55103
  20
263.34351
  0
VERTEX
  5
22e
  8
Layer_0
  10
231.10147
  20
262.25819
  0
VERTEX
  5
22f
  8
Layer_0
  10
230.38634
  20
261.32621
  0
VERTEX
  5
230
  8
Layer_0
  10
229.45436
  20
260.61108
  0
VERTEX
  5
231
  8
Layer_0
  10
228.36905
  20
260.16153
  0
VERTEX
  5
232
  8
Layer_0
  10
227.20436
  20
260.00819
  0
SEQEND
  0
POLYLINE
  5
234
  8
Layer_0
  62
0
  66
1
  10
0
  20
0
  30
0
  0
VERTEX
  5
234
  8
Layer_0
  10
257.81583
  20
138.88751
  0
VERTEX
  5
235
  8
Layer_0
  10
258.81427
  20
137.25819
  0
VERTEX
  5
236
  8
Layer_0
  10
259.7261
  20
135.57884
  0
VERTEX
  5
237
  8
Layer_0
  10
260.54877
  20
133.85408
  0
VERTEX
  5
238
  8
Layer_0
  10
261.28003
  20
132.08862
  0
VERTEX
  5
239
  8
Layer_0
  10
261.91791
  20
130.28731
  0
VERTEX
  5
23a
  8
Layer_0
  10
262.46066
  20
128.45509
  0
VERTEX
  5
23b
  8
Layer_0
  10
262.90674
  20
126.59697
  0
VERTEX
  5
23c
  8
Layer_0
  10
263.25497
  20
124.71805
  0
VERTEX
  5
23d
  8
Layer_0
  10
263.50439
  20
122.82349
  0
VERTEX
  5
23e
  8
Layer_0
  10
263.65436
  20
120.91846
  0
VERTEX
  5
23f
  8
Layer_0
  10
263.70435
  20
119.00819
  0
VERTEX
  5
240
  8
Layer_0
  10
263.65436
  20
117.09793
  0
VERTEX
  5
241
  8
Layer_0
  10
263.50439
  20
115.1929
  0
VERTEX
  5
242
  8
Layer_0
  10
263.25497
  20
113.29834
  0
VERTEX
  5
243
  8
Layer_0
  10
262.90674
  20
111.41942
  0
VERTEX
  5
244
  8
Layer_0
  10
262.46066
  20
109.56129
  0
VERTEX
  5
245
  8
Layer_0
  10
261.91791
  20
107.72906
  0
VERTEX
  5
246
  8
Layer_0
  10
261.28003
  20
105.92776
  0
VERTEX
  5
247
  8
Layer_0
  10
260.54877
  20
104.16231
  0
VERTEX
  5
248
  8
Layer_0
  10
259.7261
  20
102.43755
  0
VERTEX
  5
249
  8
Layer_0
  10
258.81427
  20
100.75819
  0
VERTEX
  5
24a
  8
Layer_0
  10
257.81583
  20
99.12886
  0
VERTEX
  5
24b
  8
Layer_0
  10
256.73349
  20
97.554031
  0
VERTEX
  5
24c
  8
Layer_0
  10
255.57019
  20
96.037994
  0
VERTEX
  5
24d
  8
Layer_0
  10
254.32915
  20
94.58493
  0
VERTEX
  5
24e
  8
Layer_0
  10
253.01376
  20
93.198792
  0
VERTEX
  5
24f
  8
Layer_0
  10
251.62762
  20
91.883408
  0
VERTEX
  5
250
  8
Layer_0
  10
250.17456
  20
90.642365
  0
VERTEX
  5
251
  8
Layer_0
  10
248.65852
  20
89.479065
  0
VERTEX
  5
252
  8
Layer_0
  10
247.08368
  20
88.396713
  0
VERTEX
  5
253
  8
Layer_0
  10
245.45436
  20
87.39827
  0
VERTEX
  5
254
  8
Layer_0
  10
243.77502
  20
86.48645
  0
VERTEX
  5
255
  8
Layer_0
  10
242.05025
  20
85.663788
  0
VERTEX
  5
256
  8
Layer_0
  10
240.28479
  20
84.93251
  0
VERTEX
  5
257
  8
Layer_0
  10
238.48349
  20
84.294632
  0
VERTEX
  5
258
  8
Layer_0
  10
236.65126
  20
83.751892
  0
VERTEX
  5
259
  8
Layer_0
  10
234.79314
  20
83.305801
  0
VERTEX
  5
25a
  8
Layer_0
  10
232.91422
  20
82.957565
  0
VERTEX
  5
25b
  8
Layer_0
  10
231.01965
  20
82.708145
  0
VERTEX
  5
25c
  8
Layer_0
  10
229.11462
  20
82.558212
  0
VERTEX
  5
25d
  8
Layer_0
  10
227.20436
  20
82.508194
  0
VERTEX
  5
25e
  8
Layer_0
  10
225.2941
  20
82.558212
  0
VERTEX
  5
25f
  8
Layer_0
  10
223.38907
  20
82.708145
  0
VERTEX
  5
260
  8
Layer_0
  10
221.49451
  20
82.957565
  0
VERTEX
  5
261
  8
Layer_0
  10
219.61559
  20
83.305801
  0
VERTEX
  5
262
  8
Layer_0
  10
217.75746
  20
83.751892
  0
VERTEX
  5
263
  8
Layer_0
  10
215.92523
  20
84.294632
  0
VERTEX
  5
264
  8
Layer_0
  10
214.12393
  20
84.93251
  0
VERTEX
  5
265
  8
Layer_0
  10
212.35847
  20
85.663788
  0
VERTEX
  5
266
  8
Layer_0
  10
210.63371
  20
86.48645
  0
VERTEX
  5
267
  8
Layer_0
  10
208.95436
  20
87.39827
  0
VERTEX
  5
268
  8
Layer_0
  10
207.32504
  20
88.396713
  0
VERTEX
  5
269
  8
Layer_0
  10
205.7502
  20
89.479065
  0
VERTEX
  5
26a
  8
Layer_0
  10
204.23416
  20
90.642365
  0
VERTEX
  5
26b
  8
Layer_0
  10
202.7811
  20
91.883408
  0
VERTEX
  5
26c
  8
Layer_0
  10
201.39496
  20
93.198792
  0
VERTEX
  5
26d
  8
Layer_0
  10
200.07957
  20
94.58493
  0
VERTEX
  5
26e
  8
Layer_0
  10
198.83853
  20
96.037994
  0
VERTEX
  5
26f
  8
Layer_0
  10
197.67525
  20
97.554031
  0
VERTEX
  5
270
  8
Layer_0
  10
196.59288
  20
99.12886
  0
VERTEX
  5
271
  8
Layer_0
  10
195.59444
  20
100.75819
  0
VERTEX
  5
272
  8
Layer_0
  10
194.68262
  20
102.43755
  0
VERTEX
  5
273
  8
Layer_0
  10
193.85995
  20
104.16231
  0
VERTEX
  5
274
  8
Layer_0
  10
193.12868
  20
105.92776
  0
VERTEX
  5
275
  8
Layer_0
  10
192.4908
  20
107.72906
  0
VERTEX
  5
276
  8
Layer_0
  10
191.94807
  20
109.56129
  0
VERTEX
  5
277
  8
Layer_0
  10
191.50197
  20
111.41942
  0
VERTEX
  5
278
  8
Layer_0
  10
191.15373
  20
113.29834
  0
VERTEX
  5
279
  8
Layer_0
  10
190.90431
  20
115.1929
  0
VERTEX
  5
27a
  8
Layer_0
  10
190.75438
  20
117.09793
  0
VERTEX
  5
27b
  8
Layer_0
  10
190.70436
  20
119.00819
  0
VERTEX
  5
27c
  8
Layer_0
  10
190.75438
  20
120.91846
  0
VERTEX
  5
27d
  8
Layer_0
  10
190.90431
  20
122.82349
  0
VERTEX
  5
27e
  8
Layer_0
  10
191.15373
  20
124.71805
  0
VERTEX
  5
27f
  8
Layer_0
  10
191.50197
  20
126.59697
  0
VERTEX
  5
280
  8
Layer_0
  10
191.94807
  20
128.45509
  0
VERTEX
  5
281
  8
Layer_0
  10
192.4908
  20
130.28731
  0
VERTEX
  5
282
  8
Layer_0
  10
193.12868
  20
132.08862
  0
VERTEX
  5
283
  8
Layer_0
  10
193.85995
  20
133.85408
  0
VERTEX
  5
284
  8
Layer_0
  10
194.68262
  20
135.57884
  0
VERTEX
  5
285
  8
Layer_0
  10
195.59444
  20
137.25819
  0
VERTEX
  5
286
  8
Layer_0
  10
196.59288
  20
138.88751
  0
VERTEX
  5
287
  8
Layer_0
  10
197.67525
  20
140.46236
  0
VERTEX
  5
288
  8
Layer_0
  10
198.83853
  20
141.97839
  0
VERTEX
  5
289
  8
Layer_0
  10
200.07957
  20
143.43146
  0
VERTEX
  5
28a
  8
Layer_0
  10
201.39496
  20
144.8176
  0
VERTEX
  5
28b
  8
Layer_0
  10
202.7811
  20
146.13298
  0
VERTEX
  5
28c
  8
Layer_0
  10
204.23416
  20
147.37402
  0
VERTEX
  5
28d
  8
Layer_0
  10
205.7502
  20
148.53732
  0
VERTEX
  5
28e
  8
Layer_0
  10
207.32504
  20
149.61966
  0
VERTEX
  5
28f
  8
Layer_0
  10
208.95436
  20
150.61812
  0
VERTEX
  5
290
  8
Layer_0
  10
210.63371
  20
151.52994
  0
VERTEX
  5
291
  8
Layer_0
  10
212.35847
  20
152.3526
  0
VERTEX
  5
292
  8
Layer_0
  10
214.12393
  20
153.08388
  0
VERTEX
  5
293
  8
Layer_0
  10
215.92523
  20
153.72176
  0
VERTEX
  5
294
  8
Layer_0
  10
217.75746
  20
154.26448
  0
VERTEX
  5
295
  8
Layer_0
  10
219.61559
  20
154.71057
  0
VERTEX
  5
296
  8
Layer_0
  10
221.49451
  20
155.05881
  0
VERTEX
  5
297
  8
Layer_0
  10
223.38907
  20
155.30824
  0
VERTEX
  5
298
  8
Layer_0
  10
225.2941
  20
155.45816
  0
VERTEX
  5
299
  8
Layer_0
  10
227.20436
  20
155.50819
  0
VERTEX
  5
29a
  8
Layer_0
  10
229.11462
  20
155.45816
  0
VERTEX
  5
29b
  8
Layer_0
  10
231.01965
  20
155.30824
  0
VERTEX
  5
29c
  8
Layer_0
  10
232.91422
  20
155.05881
  0
VERTEX
  5
29d
  8
Layer_0
  10
234.79314
  20
154.71057
  0
VERTEX
  5
29e
  8
Layer_0
  10
236.65126
  20
154.26448
  0
VERTEX
  5
29f
  8
Layer_0
  10
238.48349
  20
153.72176
  0
VERTEX
  5
2a0
  8
Layer_0
  10
240.28479
  20
153.08388
  0
VERTEX
  5
2a1
  8
Layer_0
  10
242.05025
  20
152.3526
  0
VERTEX
  5
2a2
  8
Layer_0
  10
243.77502
  20
151.52994
  0
VERTEX
  5
2a3
  8
Layer_0
  10
245.45436
  20
150.61812
  0
VERTEX
  5
2a4
  8
Layer_0
  10
247.08368
  20
149.61966
  0
VERTEX
  5
2a5
  8
Layer_0
  10
248.65852
  20
148.53732
  0
VERTEX
  5
2a6
  8
Layer_0
  10
250.17456
  20
147.37402
  0
VERTEX
  5
2a7
  8
Layer_0
  10
251.62762
  20
146.13298
  0
VERTEX
  5
2a8
  8
Layer_0
  10
253.01376
  20
144.8176
  0
VERTEX
  5
2a9
  8
Layer_0
  10
254.32915
  20
143.43146
  0
VERTEX
  5
2aa
  8
Layer_0
  10
255.57019
  20
141.97839
  0
VERTEX
  5
2ab
  8
Layer_0
  10
256.73349
  20
140.46236
  0
VERTEX
  5
2ac
  8
Layer_0
  10
257.81583
  20
138.88751
  0
SEQEND
  0
POLYLINE
  5
2ae
  8
Layer_0
  62
0
  66
1
  10
0
  20
0
  30
0
  0
VERTEX
  5
2ae
  8
Layer_0
  10
256.73349
  20
194.55403
  0
VERTEX
  5
2af
  8
Layer_0
  10
255.57019
  20
193.03799
  0
VERTEX
  5
2b0
  8
Layer_0
  10
254.32915
  20
191.58492
  0
VERTEX
  5
2b1
  8
Layer_0
  10
253.01376
  20
190.19879
  0
VERTEX
  5
2b2
  8
Layer_0
  10
251.62762
  20
188.88341
  0
VERTEX
  5
2b3
  8
Layer_0
  10
250.17456
  20
187.64236
  0
VERTEX
  5
2b4
  8
Layer_0
  10
248.65852
  20
186.47907
  0
VERTEX
  5
2b5
  8
Layer_0
  10
247.08368
  20
185.39671
  0
VERTEX
  5
2b6
  8
Layer_0
  10
245.45436
  20
184.39826
  0
VERTEX
  5
2b7
  8
Layer_0
  10
243.77502
  20
183.48645
  0
VERTEX
  5
2b8
  8
Layer_0
  10
242.05025
  20
182.66378
  0
VERTEX
  5
2b9
  8
Layer_0
  10
240.28479
  20
181.9325
  0
VERTEX
  5
2ba
  8
Layer_0
  10
238.48349
  20
181.29463
  0
VERTEX
  5
2bb
  8
Layer_0
  10
236.65126
  20
180.7519
  0
VERTEX
  5
2bc
  8
Layer_0
  10
234.79314
  20
180.3058
  0
VERTEX
  5
2bd
  8
Layer_0
  10
232.91422
  20
179.95757
  0
VERTEX
  5
2be
  8
Layer_0
  10
231.01965
  20
179.70815
  0
VERTEX
  5
2bf
  8
Layer_0
  10
229.11462
  20
179.55821
  0
VERTEX
  5
2c0
  8
Layer_0
  10
227.20436
  20
179.50819
  0
VERTEX
  5
2c1
  8
Layer_0
  10
225.2941
  20
179.55821
  0
VERTEX
  5
2c2
  8
Layer_0
  10
223.38907
  20
179.70815
  0
VERTEX
  5
2c3
  8
Layer_0
  10
221.49451
  20
179.95757
  0
VERTEX
  5
2c4
  8
Layer_0
  10
219.61559
  20
180.3058
  0
VERTEX
  5
2c5
  8
Layer_0
  10
217.75746
  20
180.7519
  0
VERTEX
  5
2c6
  8
Layer_0
  10
215.92523
  20
181.29463
  0
VERTEX
  5
2c7
  8
Layer_0
  10
214.12393
  20
181.9325
  0
VERTEX
  5
2c8
  8
Layer_0
  10
212.35847
  20
182.66378
  0
VERTEX
  5
2c9
  8
Layer_0
  10
210.63371
  20
183.48645
  0
VERTEX
  5
2ca
  8
Layer_0
  10
208.95436
  20
184.39826
  0
VERTEX
  5
2cb
  8
Layer_0
  10
207.32504
  20
185.39671
  0
VERTEX
  5
2cc
  8
Layer_0
  10
205.7502
  20
186.47907
  0
VERTEX
  5
2cd
  8
Layer_0
  10
204.23416
  20
187.64236
  0
VERTEX
  5
2ce
  8
Layer_0
  10
202.7811
  20
188.88341
  0
VERTEX
  5
2cf
  8
Layer_0
  10
201.39496
  20
190.19879
  0
VERTEX
  5
2d0
  8
Layer_0
  10
200.07957
  20
191.58492
  0
VERTEX
  5
2d1
  8
Layer_0
  10
198.83853
  20
193.03799
  0
VERTEX
  5
2d2
  8
Layer_0
  10
197.67525
  20
194.55403
  0
VERTEX
  5
2d3
  8
Layer_0
  10
196.59288
  20
196.12887
  0
VERTEX
  5
2d4
  8
Layer_0
  10
195.59444
  20
197.75819
  0
VERTEX
  5
2d5
  8
Layer_0
  10
194.68262
  20
199.43754
  0
VERTEX
  5
2d6
  8
Layer_0
  10
193.85995
  20
201.16231
  0
VERTEX
  5
2d7
  8
Layer_0
  10
193.12868
  20
202.92776
  0
VERTEX
  5
2d8
  8
Layer_0
  10
192.4908
  20
204.72907
  0
VERTEX
  5
2d9
  8
Layer_0
  10
191.94807
  20
206.56129
  0
VERTEX
  5
2da
  8
Layer_0
  10
191.50197
  20
208.41942
  0
VERTEX
  5
2db
  8
Layer_0
  10
191.15373
  20
210.29833
  0
VERTEX
  5
2dc
  8
Layer_0
  10
190.90431
  20
212.1929
  0
VERTEX
  5
2dd
  8
Layer_0
  10
190.75438
  20
214.09793
  0
VERTEX
  5
2de
  8
Layer_0
  10
190.70436
  20
216.00819
  0
VERTEX
  5
2df
  8
Layer_0
  10
190.75438
  20
217.91846
  0
VERTEX
  5
2e0
  8
Layer_0
  10
190.90431
  20
219.82348
  0
VERTEX
  5
2e1
  8
Layer_0
  10
191.15373
  20
221.71805
  0
VERTEX
  5
2e2
  8
Layer_0
  10
191.50197
  20
223.59697
  0
VERTEX
  5
2e3
  8
Layer_0
  10
191.94807
  20
225.45509
  0
VERTEX
  5
2e4
  8
Layer_0
  10
192.4908
  20
227.28731
  0
VERTEX
  5
2e5
  8
Layer_0
  10
193.12868
  20
229.08862
  0
VERTEX
  5
2e6
  8
Layer_0
  10
193.85995
  20
230.85408
  0
VERTEX
  5
2e7
  8
Layer_0
  10
194.68262
  20
232.57884
  0
VERTEX
  5
2e8
  8
Layer_0
  10
195.59444
  20
234.25819
  0
VERTEX
  5
2e9
  8
Layer_0
  10
196.59288
  20
235.88751
  0
VERTEX
  5
2ea
  8
Layer_0
  10
197.67525
  20
237.46235
  0
VERTEX
  5
2eb
  8
Layer_0
  10
198.83853
  20
238.97839
  0
VERTEX
  5
2ec
  8
Layer_0
  10
200.07957
  20
240.43146
  0
VERTEX
  5
2ed
  8
Layer_0
  10
201.39496
  20
241.81759
  0
VERTEX
  5
2ee
  8
Layer_0
  10
202.7811
  20
243.13298
  0
VERTEX
  5
2ef
  8
Layer_0
  10
204.23416
  20
244.37402
  0
VERTEX
  5
2f0
  8
Layer_0
  10
205.7502
  20
245.53731
  0
VERTEX
  5
2f1
  8
Layer_0
  10
207.32504
  20
246.61967
  0
VERTEX
  5
2f2
  8
Layer_0
  10
208.95436
  20
247.61812
  0
VERTEX
  5
2f3
  8
Layer_0
  10
210.63371
  20
248.52993
  0
VERTEX
  5
2f4
  8
Layer_0
  10
212.35847
  20
249.3526
  0
VERTEX
  5
2f5
  8
Layer_0
  10
214.12393
  20
250.08388
  0
VERTEX
  5
2f6
  8
Layer_0
  10
215.92523
  20
250.72176
  0
VERTEX
  5
2f7
  8
Layer_0
  10
217.75746
  20
251.26448
  0
VERTEX
  5
2f8
  8
Layer_0
  10
219.61559
  20
251.71058
  0
VERTEX
  5
2f9
  8
Layer_0
  10
221.49451
  20
252.05882
  0
VERTEX
  5
2fa
  8
Layer_0
  10
223.38907
  20
252.30824
  0
VERTEX
  5
2fb
  8
Layer_0
  10
225.2941
  20
252.45817
  0
VERTEX
  5
2fc
  8
Layer_0
  10
227.20436
  20
252.50819
  0
VERTEX
  5
2fd
  8
Layer_0
  10
229.11462
  20
252.45817
  0
VERTEX
  5
2fe
  8
Layer_0
  10
231.01965
  20
252.30824
  0
VERTEX
  5
2ff
  8
Layer_0
  10
232.91422
  20
252.05882
  0
VERTEX
  5
300
  8
Layer_0
  10
234.79314
  20
251.71058
  0
VERTEX
  5
301
  8
Layer_0
  10
236.65126
  20
251.26448
  0
VERTEX
  5
302
  8
Layer_0
  10
238.48349
  20
250.72176
  0
VERTEX
  5
303
  8
Layer_0
  10
240.28479
  20
250.08388
  0
VERTEX
  5
304
  8
Layer_0
  10
242.05025
  20
249.3526
  0
VERTEX
  5
305
  8
Layer_0
  10
243.77502
  20
248.52993
  0
VERTEX
  5
306
  8
Layer_0
  10
245.45436
  20
247.61812
  0
VERTEX
  5
307
  8
Layer_0
  10
247.08368
  20
246.61967
  0
VERTEX
  5
308
  8
Layer_0
  10
248.65852
  20
245.53731
  0
VERTEX
  5
309
  8
Layer_0
  10
250.17456
  20
244.37402
  0
VERTEX
  5
30a
  8
Layer_0
  10
251.62762
  20
243.13298
  0
VERTEX
  5
30b
  8
Layer_0
  10
253.01376
  20
241.81759
  0
VERTEX
  5
30c
  8
Layer_0
  10
254.32915
  20
240.43146
  0
VERTEX
  5
30d
  8
Layer_0
  10
255.57019
  20
238.97839
  0
VERTEX
  5
30e
  8
Layer_0
  10
256.73349
  20
237.46235
  0
VERTEX
  5
30f
  8
Layer_0
  10
257.81583
  20
235.88751
  0
VERTEX
  5
310
  8
Layer_0
  10
258.81427
  20
234.25819
  0
VERTEX
  5
311
  8
Layer_0
  10
259.7261
  20
232.57884
  0
VERTEX
  5
312
  8
Layer_0
  10
260.54877
  20
230.85408
  0
VERTEX
  5
313
  8
Layer_0
  10
261.28003
  20
229.08862
  0
VERTEX
  5
314
  8
Layer_0
  10
261.91791
  20
227.28731
  0
VERTEX
  5
315
  8
Layer_0
  10
262.46066
  20
225.45509
  0
VERTEX
  5
316
  8
Layer_0
  10
262.90674
  20
223.59697
  0
VERTEX
  5
317
  8
Layer_0
  10
263.25497
  20
221.71805
  0
VERTEX
  5
318
  8
Layer_0
  10
263.50439
  20
219.82348
  0
VERTEX
  5
319
  8
Layer_0
  10
263.65436
  20
217.91846
  0
VERTEX
  5
31a
  8
Layer_0
  10
263.70435
  20
216.00819
  0
VERTEX
  5
31b
  8
Layer_0
  10
263.65436
  20
214.09793
  0
VERTEX
  5
31c
  8
Layer_0
  10
263.50439
  20
212.1929
  0
VERTEX
  5
31d
  8
Layer_0
  10
263.25497
  20
210.29833
  0
VERTEX
  5
31e
  8
Layer_0
  10
262.90674
  20
208.41942
  0
VERTEX
  5
31f
  8
Layer_0
  10
262.46066
  20
206.56129
  0
VERTEX
  5
320
  8
Layer_0
  10
261.91791
  20
204.72907
  0
VERTEX
  5
321
  8
Layer_0
  10
261.28003
  20
202.92776
  0
VERTEX
  5
322
  8
Layer_0
  10
260.54877
  20
201.16231
  0
VERTEX
  5
323
  8
Layer_0
  10
259.7261
  20
199.43754
  0
VERTEX
  5
324
  8
Layer_0
  10
258.81427
  20
197.75819
  0
VERTEX
  5
325
  8
Layer_0
  10
257.81583
  20
196.12887
  0
VERTEX
  5
326
  8
Layer_0
  10
256.73349
  20
194.55403
  0
SEQEND
  0
POLYLINE
  5
328
  8
Layer_0
  62
0
  66
1
  10
0
  20
0
  30
0
  0
VERTEX
  5
328
  8
Layer_0
  10
228.36905
  20
163.16153
  0
VERTEX
  5
329
  8
Layer_0
  10
227.20436
  20
163.00819
  0
VERTEX
  5
32a
  8
Layer_0
  10
226.03967
  20
163.16153
  0
VERTEX
  5
32b
  8
Layer_0
  10
224.95436
  20
163.61108
  0
VERTEX
  5
32c
  8
Layer_0
  10
224.02238
  20
164.3262
  0
VERTEX
  5
32d
  8
Layer_0
  10
223.30725
  20
165.25819
  0
VERTEX
  5
32e
  8
Layer_0
  10
222.8577
  20
166.34351
  0
VERTEX
  5
32f
  8
Layer_0
  10
222.70436
  20
167.50819
  0
VERTEX
  5
330
  8
Layer_0
  10
222.8577
  20
168.67288
  0
VERTEX
  5
331
  8
Layer_0
  10
223.30725
  20
169.75819
  0
VERTEX
  5
332
  8
Layer_0
  10
224.02238
  20
170.69017
  0
VERTEX
  5
333
  8
Layer_0
  10
224.95436
  20
171.4053
  0
VERTEX
  5
334
  8
Layer_0
  10
226.03967
  20
171.85486
  0
VERTEX
  5
335
  8
Layer_0
  10
227.20436
  20
172.00819
  0
VERTEX
  5
336
  8
Layer_0
  10
228.36905
  20
171.85486
  0
VERTEX
  5
337
  8
Layer_0
  10
229.45436
  20
171.4053
  0
VERTEX
  5
338
  8
Layer_0
  10
230.38634
  20
170.69017
  0
VERTEX
  5
339
  8
Layer_0
  10
231.10147
  20
169.75819
  0
VERTEX
  5
33a
  8
Layer_0
  10
231.55103
  20
168.67288
  0
VERTEX
  5
33b
  8
Layer_0
  10
231.70436
  20
167.50819
  0
VERTEX
  5
33c
  8
Layer_0
  10
231.55103
  20
166.34351
  0
VERTEX
  5
33d
  8
Layer_0
  10
231.10147
  20
165.25819
  0
VERTEX
  5
33e
  8
Layer_0
  10
230.38634
  20
164.3262
  0
VERTEX
  5
33f
  8
Layer_0
  10
229.45436
  20
163.61108
  0
VERTEX
  5
340
  8
Layer_0
  10
228.36905
  20
163.16153
  0
SEQEND
  0
ENDSEC
  0
EOF
