  0
SECTION
  2
HEADER
  9
$ACADVER
  1
AC1009
  0
ENDSEC
  0
SECTION
  2
ENTITIES
  0
POLYLINE
  5
90
  8
Layer_0
  62
0
  66
1
  10
0
  20
0
  30
0
  0
VERTEX
  5
90
  8
Layer_0
  10
297.34201
  20
172.16232
  0
VERTEX
  5
91
  8
Layer_0
  10
297.34201
  20
175.46233
  0
VERTEX
  5
92
  8
Layer_0
  10
297.29922
  20
176.11496
  0
VERTEX
  5
93
  8
Layer_0
  10
297.17163
  20
176.75642
  0
VERTEX
  5
94
  8
Layer_0
  10
296.9614
  20
177.37574
  0
VERTEX
  5
95
  8
Layer_0
  10
296.67215
  20
177.96233
  0
VERTEX
  5
96
  8
Layer_0
  10
296.30878
  20
178.50613
  0
VERTEX
  5
97
  8
Layer_0
  10
295.87753
  20
178.99786
  0
VERTEX
  5
98
  8
Layer_0
  10
295.3858
  20
179.42909
  0
VERTEX
  5
99
  8
Layer_0
  10
294.84201
  20
179.79245
  0
VERTEX
  5
9a
  8
Layer_0
  10
294.25543
  20
180.08173
  0
VERTEX
  5
9b
  8
Layer_0
  10
293.63611
  20
180.29195
  0
VERTEX
  5
9c
  8
Layer_0
  10
292.99463
  20
180.41955
  0
VERTEX
  5
9d
  8
Layer_0
  10
292.34201
  20
180.46233
  0
VERTEX
  5
9e
  8
Layer_0
  10
291.68939
  20
180.41955
  0
VERTEX
  5
9f
  8
Layer_0
  10
291.04791
  20
180.29195
  0
VERTEX
  5
a0
  8
Layer_0
  10
290.42859
  20
180.08173
  0
VERTEX
  5
a1
  8
Layer_0
  10
289.84201
  20
179.79245
  0
VERTEX
  5
a2
  8
Layer_0
  10
289.29822
  20
179.42909
  0
VERTEX
  5
a3
  8
Layer_0
  10
288.80649
  20
178.99786
  0
VERTEX
  5
a4
  8
Layer_0
  10
288.37524
  20
178.50613
  0
VERTEX
  5
a5
  8
Layer_0
  10
288.01187
  20
177.96233
  0
VERTEX
  5
a6
  8
Layer_0
  10
287.72263
  20
177.37574
  0
VERTEX
  5
a7
  8
Layer_0
  10
287.51239
  20
176.75642
  0
VERTEX
  5
a8
  8
Layer_0
  10
287.3848
  20
176.11496
  0
VERTEX
  5
a9
  8
Layer_0
  10
287.34201
  20
175.46233
  0
VERTEX
  5
aa
  8
Layer_0
  10
287.34201
  20
172.16232
  0
VERTEX
  5
ab
  8
Layer_0
  10
297.34201
  20
172.16232
  0
SEQEND
  0
POLYLINE
  5
ad
  8
Layer_0
  62
0
  66
1
  10
0
  20
0
  30
0
  0
VERTEX
  5
ad
  8
Layer_0
  10
292.91141
  20
173.33729
  0
VERTEX
  5
ae
  8
Layer_0
  10
292.34201
  20
173.26233
  0
VERTEX
  5
af
  8
Layer_0
  10
291.77261
  20
173.33729
  0
VERTEX
  5
b0
  8
Layer_0
  10
291.242
  20
173.55707
  0
VERTEX
  5
b1
  8
Layer_0
  10
290.78638
  20
173.90669
  0
VERTEX
  5
b2
  8
Layer_0
  10
290.43677
  20
174.36233
  0
VERTEX
  5
b3
  8
Layer_0
  10
290.21698
  20
174.89292
  0
VERTEX
  5
b4
  8
Layer_0
  10
290.142
  20
175.46233
  0
VERTEX
  5
b5
  8
Layer_0
  10
290.21698
  20
176.03173
  0
VERTEX
  5
b6
  8
Layer_0
  10
290.43677
  20
176.56232
  0
VERTEX
  5
b7
  8
Layer_0
  10
290.78638
  20
177.01796
  0
VERTEX
  5
b8
  8
Layer_0
  10
291.242
  20
177.36758
  0
VERTEX
  5
b9
  8
Layer_0
  10
291.77261
  20
177.58736
  0
VERTEX
  5
ba
  8
Layer_0
  10
292.34201
  20
177.66232
  0
VERTEX
  5
bb
  8
Layer_0
  10
292.91141
  20
177.58736
  0
VERTEX
  5
bc
  8
Layer_0
  10
293.44202
  20
177.36758
  0
VERTEX
  5
bd
  8
Layer_0
  10
293.89764
  20
177.01796
  0
VERTEX
  5
be
  8
Layer_0
  10
294.24725
  20
176.56232
  0
VERTEX
  5
bf
  8
Layer_0
  10
294.46704
  20
176.03173
  0
VERTEX
  5
c0
  8
Layer_0
  10
294.54202
  20
175.46233
  0
VERTEX
  5
c1
  8
Layer_0
  10
294.46704
  20
174.89292
  0
VERTEX
  5
c2
  8
Layer_0
  10
294.24725
  20
174.36233
  0
VERTEX
  5
c3
  8
Layer_0
  10
293.89764
  20
173.90669
  0
VERTEX
  5
c4
  8
Layer_0
  10
293.44202
  20
173.55707
  0
VERTEX
  5
c5
  8
Layer_0
  10
292.91141
  20
173.33729
  0
SEQEND
  0
ENDSEC
  0
EOF
