  0
SECTION
  2
HEADER
  9
$ACADVER
  1
AC1009
  0
ENDSEC
  0
SECTION
  2
ENTITIES
  0
POLYLINE
  5
90
  8
Layer_0
  62
0
  66
1
  10
0
  20
0
  30
0
  0
VERTEX
  5
90
  8
Layer_0
  10
417.06702
  20
195.3273
  0
VERTEX
  5
91
  8
Layer_0
  10
416.16116
  20
195.20804
  0
VERTEX
  5
92
  8
Layer_0
  10
403.16116
  20
195.20804
  0
VERTEX
  5
93
  8
Layer_0
  10
402.25531
  20
195.3273
  0
VERTEX
  5
94
  8
Layer_0
  10
401.41116
  20
195.67695
  0
VERTEX
  5
95
  8
Layer_0
  10
400.68628
  20
196.23316
  0
VERTEX
  5
96
  8
Layer_0
  10
400.13007
  20
196.95804
  0
VERTEX
  5
97
  8
Layer_0
  10
399.78043
  20
197.80217
  0
VERTEX
  5
98
  8
Layer_0
  10
399.66116
  20
198.70804
  0
VERTEX
  5
99
  8
Layer_0
  10
399.61838
  20
199.36067
  0
VERTEX
  5
9a
  8
Layer_0
  10
399.49078
  20
200.00214
  0
VERTEX
  5
9b
  8
Layer_0
  10
399.28055
  20
200.62145
  0
VERTEX
  5
9c
  8
Layer_0
  10
398.9913
  20
201.20804
  0
VERTEX
  5
9d
  8
Layer_0
  10
398.62793
  20
201.75185
  0
VERTEX
  5
9e
  8
Layer_0
  10
398.19669
  20
202.24358
  0
VERTEX
  5
9f
  8
Layer_0
  10
397.70496
  20
202.6748
  0
VERTEX
  5
a0
  8
Layer_0
  10
397.16116
  20
203.03816
  0
VERTEX
  5
a1
  8
Layer_0
  10
396.57458
  20
203.32744
  0
VERTEX
  5
a2
  8
Layer_0
  10
395.95526
  20
203.53767
  0
VERTEX
  5
a3
  8
Layer_0
  10
395.31378
  20
203.66526
  0
VERTEX
  5
a4
  8
Layer_0
  10
394.66116
  20
203.70804
  0
VERTEX
  5
a5
  8
Layer_0
  10
394.00854
  20
203.66526
  0
VERTEX
  5
a6
  8
Layer_0
  10
393.36707
  20
203.53767
  0
VERTEX
  5
a7
  8
Layer_0
  10
392.74774
  20
203.32744
  0
VERTEX
  5
a8
  8
Layer_0
  10
392.16116
  20
203.03816
  0
VERTEX
  5
a9
  8
Layer_0
  10
391.61737
  20
202.6748
  0
VERTEX
  5
aa
  8
Layer_0
  10
391.12564
  20
202.24358
  0
VERTEX
  5
ab
  8
Layer_0
  10
390.6944
  20
201.75185
  0
VERTEX
  5
ac
  8
Layer_0
  10
390.33102
  20
201.20804
  0
VERTEX
  5
ad
  8
Layer_0
  10
390.04178
  20
200.62145
  0
VERTEX
  5
ae
  8
Layer_0
  10
389.83154
  20
200.00214
  0
VERTEX
  5
af
  8
Layer_0
  10
389.70395
  20
199.36067
  0
VERTEX
  5
b0
  8
Layer_0
  10
389.66116
  20
198.70804
  0
VERTEX
  5
b1
  8
Layer_0
  10
389.66116
  20
131.70804
  0
VERTEX
  5
b2
  8
Layer_0
  10
389.70395
  20
131.0554
  0
VERTEX
  5
b3
  8
Layer_0
  10
389.83154
  20
130.41394
  0
VERTEX
  5
b4
  8
Layer_0
  10
390.04178
  20
129.79462
  0
VERTEX
  5
b5
  8
Layer_0
  10
390.33102
  20
129.20804
  0
VERTEX
  5
b6
  8
Layer_0
  10
390.6944
  20
128.66423
  0
VERTEX
  5
b7
  8
Layer_0
  10
391.12564
  20
128.1725
  0
VERTEX
  5
b8
  8
Layer_0
  10
391.61737
  20
127.74127
  0
VERTEX
  5
b9
  8
Layer_0
  10
392.16116
  20
127.37791
  0
VERTEX
  5
ba
  8
Layer_0
  10
392.74774
  20
127.08864
  0
VERTEX
  5
bb
  8
Layer_0
  10
393.36707
  20
126.87842
  0
VERTEX
  5
bc
  8
Layer_0
  10
394.00854
  20
126.75082
  0
VERTEX
  5
bd
  8
Layer_0
  10
394.66116
  20
126.70804
  0
VERTEX
  5
be
  8
Layer_0
  10
395.31378
  20
126.75082
  0
VERTEX
  5
bf
  8
Layer_0
  10
395.95526
  20
126.87842
  0
VERTEX
  5
c0
  8
Layer_0
  10
396.57458
  20
127.08864
  0
VERTEX
  5
c1
  8
Layer_0
  10
397.16116
  20
127.37791
  0
VERTEX
  5
c2
  8
Layer_0
  10
397.70496
  20
127.74127
  0
VERTEX
  5
c3
  8
Layer_0
  10
398.19669
  20
128.1725
  0
VERTEX
  5
c4
  8
Layer_0
  10
398.62793
  20
128.66423
  0
VERTEX
  5
c5
  8
Layer_0
  10
398.9913
  20
129.20804
  0
VERTEX
  5
c6
  8
Layer_0
  10
399.28055
  20
129.79462
  0
VERTEX
  5
c7
  8
Layer_0
  10
399.49078
  20
130.41394
  0
VERTEX
  5
c8
  8
Layer_0
  10
399.61838
  20
131.0554
  0
VERTEX
  5
c9
  8
Layer_0
  10
399.66116
  20
131.70804
  0
VERTEX
  5
ca
  8
Layer_0
  10
399.78043
  20
132.61391
  0
VERTEX
  5
cb
  8
Layer_0
  10
400.13007
  20
133.45804
  0
VERTEX
  5
cc
  8
Layer_0
  10
400.68628
  20
134.18292
  0
VERTEX
  5
cd
  8
Layer_0
  10
401.41116
  20
134.73914
  0
VERTEX
  5
ce
  8
Layer_0
  10
402.25531
  20
135.08878
  0
VERTEX
  5
cf
  8
Layer_0
  10
403.16116
  20
135.20804
  0
VERTEX
  5
d0
  8
Layer_0
  10
416.16116
  20
135.20804
  0
VERTEX
  5
d1
  8
Layer_0
  10
417.06702
  20
135.08878
  0
VERTEX
  5
d2
  8
Layer_0
  10
417.91116
  20
134.73914
  0
VERTEX
  5
d3
  8
Layer_0
  10
418.63605
  20
134.18292
  0
VERTEX
  5
d4
  8
Layer_0
  10
419.19226
  20
133.45804
  0
VERTEX
  5
d5
  8
Layer_0
  10
419.5419
  20
132.61391
  0
VERTEX
  5
d6
  8
Layer_0
  10
419.66116
  20
131.70804
  0
VERTEX
  5
d7
  8
Layer_0
  10
419.70395
  20
131.0554
  0
VERTEX
  5
d8
  8
Layer_0
  10
419.83154
  20
130.41394
  0
VERTEX
  5
d9
  8
Layer_0
  10
420.04178
  20
129.79462
  0
VERTEX
  5
da
  8
Layer_0
  10
420.33102
  20
129.20804
  0
VERTEX
  5
db
  8
Layer_0
  10
420.6944
  20
128.66423
  0
VERTEX
  5
dc
  8
Layer_0
  10
421.12564
  20
128.1725
  0
VERTEX
  5
dd
  8
Layer_0
  10
421.61737
  20
127.74127
  0
VERTEX
  5
de
  8
Layer_0
  10
422.16116
  20
127.37791
  0
VERTEX
  5
df
  8
Layer_0
  10
422.74774
  20
127.08864
  0
VERTEX
  5
e0
  8
Layer_0
  10
423.36707
  20
126.87842
  0
VERTEX
  5
e1
  8
Layer_0
  10
424.00854
  20
126.75082
  0
VERTEX
  5
e2
  8
Layer_0
  10
424.66116
  20
126.70804
  0
VERTEX
  5
e3
  8
Layer_0
  10
425.31378
  20
126.75082
  0
VERTEX
  5
e4
  8
Layer_0
  10
425.95526
  20
126.87842
  0
VERTEX
  5
e5
  8
Layer_0
  10
426.57458
  20
127.08864
  0
VERTEX
  5
e6
  8
Layer_0
  10
427.16116
  20
127.37791
  0
VERTEX
  5
e7
  8
Layer_0
  10
427.70496
  20
127.74127
  0
VERTEX
  5
e8
  8
Layer_0
  10
428.19669
  20
128.1725
  0
VERTEX
  5
e9
  8
Layer_0
  10
428.62793
  20
128.66423
  0
VERTEX
  5
ea
  8
Layer_0
  10
428.9913
  20
129.20804
  0
VERTEX
  5
eb
  8
Layer_0
  10
429.28055
  20
129.79462
  0
VERTEX
  5
ec
  8
Layer_0
  10
429.49078
  20
130.41394
  0
VERTEX
  5
ed
  8
Layer_0
  10
429.61838
  20
131.0554
  0
VERTEX
  5
ee
  8
Layer_0
  10
429.66116
  20
131.70804
  0
VERTEX
  5
ef
  8
Layer_0
  10
429.66116
  20
198.70804
  0
VERTEX
  5
f0
  8
Layer_0
  10
429.61838
  20
199.36067
  0
VERTEX
  5
f1
  8
Layer_0
  10
429.49078
  20
200.00214
  0
VERTEX
  5
f2
  8
Layer_0
  10
429.28055
  20
200.62145
  0
VERTEX
  5
f3
  8
Layer_0
  10
428.9913
  20
201.20804
  0
VERTEX
  5
f4
  8
Layer_0
  10
428.62793
  20
201.75185
  0
VERTEX
  5
f5
  8
Layer_0
  10
428.19669
  20
202.24358
  0
VERTEX
  5
f6
  8
Layer_0
  10
427.70496
  20
202.6748
  0
VERTEX
  5
f7
  8
Layer_0
  10
427.16116
  20
203.03816
  0
VERTEX
  5
f8
  8
Layer_0
  10
426.57458
  20
203.32744
  0
VERTEX
  5
f9
  8
Layer_0
  10
425.95526
  20
203.53767
  0
VERTEX
  5
fa
  8
Layer_0
  10
425.31378
  20
203.66526
  0
VERTEX
  5
fb
  8
Layer_0
  10
424.66116
  20
203.70804
  0
VERTEX
  5
fc
  8
Layer_0
  10
424.00854
  20
203.66526
  0
VERTEX
  5
fd
  8
Layer_0
  10
423.36707
  20
203.53767
  0
VERTEX
  5
fe
  8
Layer_0
  10
422.74774
  20
203.32744
  0
VERTEX
  5
ff
  8
Layer_0
  10
422.16116
  20
203.03816
  0
VERTEX
  5
100
  8
Layer_0
  10
421.61737
  20
202.6748
  0
VERTEX
  5
101
  8
Layer_0
  10
421.12564
  20
202.24358
  0
VERTEX
  5
102
  8
Layer_0
  10
420.6944
  20
201.75185
  0
VERTEX
  5
103
  8
Layer_0
  10
420.33102
  20
201.20804
  0
VERTEX
  5
104
  8
Layer_0
  10
420.04178
  20
200.62145
  0
VERTEX
  5
105
  8
Layer_0
  10
419.83154
  20
200.00214
  0
VERTEX
  5
106
  8
Layer_0
  10
419.70395
  20
199.36067
  0
VERTEX
  5
107
  8
Layer_0
  10
419.66116
  20
198.70804
  0
VERTEX
  5
108
  8
Layer_0
  10
419.5419
  20
197.80217
  0
VERTEX
  5
109
  8
Layer_0
  10
419.19226
  20
196.95804
  0
VERTEX
  5
10a
  8
Layer_0
  10
418.63605
  20
196.23316
  0
VERTEX
  5
10b
  8
Layer_0
  10
417.91116
  20
195.67695
  0
VERTEX
  5
10c
  8
Layer_0
  10
417.06702
  20
195.3273
  0
SEQEND
  0
POLYLINE
  5
10e
  8
Layer_0
  62
0
  66
1
  10
0
  20
0
  30
0
  0
VERTEX
  5
10e
  8
Layer_0
  10
425.23056
  20
196.583
  0
VERTEX
  5
10f
  8
Layer_0
  10
424.66116
  20
196.50804
  0
VERTEX
  5
110
  8
Layer_0
  10
424.09177
  20
196.583
  0
VERTEX
  5
111
  8
Layer_0
  10
423.56116
  20
196.80278
  0
VERTEX
  5
112
  8
Layer_0
  10
423.10553
  20
197.1524
  0
VERTEX
  5
113
  8
Layer_0
  10
422.75592
  20
197.60804
  0
VERTEX
  5
114
  8
Layer_0
  10
422.53613
  20
198.13863
  0
VERTEX
  5
115
  8
Layer_0
  10
422.46115
  20
198.70804
  0
VERTEX
  5
116
  8
Layer_0
  10
422.53613
  20
199.27744
  0
VERTEX
  5
117
  8
Layer_0
  10
422.75592
  20
199.80804
  0
VERTEX
  5
118
  8
Layer_0
  10
423.10553
  20
200.26367
  0
VERTEX
  5
119
  8
Layer_0
  10
423.56116
  20
200.6133
  0
VERTEX
  5
11a
  8
Layer_0
  10
424.09177
  20
200.83308
  0
VERTEX
  5
11b
  8
Layer_0
  10
424.66116
  20
200.90804
  0
VERTEX
  5
11c
  8
Layer_0
  10
425.23056
  20
200.83308
  0
VERTEX
  5
11d
  8
Layer_0
  10
425.76117
  20
200.6133
  0
VERTEX
  5
11e
  8
Layer_0
  10
426.2168
  20
200.26367
  0
VERTEX
  5
11f
  8
Layer_0
  10
426.56641
  20
199.80804
  0
VERTEX
  5
120
  8
Layer_0
  10
426.78619
  20
199.27744
  0
VERTEX
  5
121
  8
Layer_0
  10
426.86118
  20
198.70804
  0
VERTEX
  5
122
  8
Layer_0
  10
426.78619
  20
198.13863
  0
VERTEX
  5
123
  8
Layer_0
  10
426.56641
  20
197.60804
  0
VERTEX
  5
124
  8
Layer_0
  10
426.2168
  20
197.1524
  0
VERTEX
  5
125
  8
Layer_0
  10
425.76117
  20
196.80278
  0
VERTEX
  5
126
  8
Layer_0
  10
425.23056
  20
196.583
  0
SEQEND
  0
POLYLINE
  5
128
  8
Layer_0
  62
0
  66
1
  10
0
  20
0
  30
0
  0
VERTEX
  5
128
  8
Layer_0
  10
394.09177
  20
133.83307
  0
VERTEX
  5
129
  8
Layer_0
  10
394.66116
  20
133.90804
  0
VERTEX
  5
12a
  8
Layer_0
  10
395.23056
  20
133.83307
  0
VERTEX
  5
12b
  8
Layer_0
  10
395.76117
  20
133.6133
  0
VERTEX
  5
12c
  8
Layer_0
  10
396.2168
  20
133.26367
  0
VERTEX
  5
12d
  8
Layer_0
  10
396.56641
  20
132.80804
  0
VERTEX
  5
12e
  8
Layer_0
  10
396.78619
  20
132.27744
  0
VERTEX
  5
12f
  8
Layer_0
  10
396.86118
  20
131.70804
  0
VERTEX
  5
130
  8
Layer_0
  10
396.78619
  20
131.13864
  0
VERTEX
  5
131
  8
Layer_0
  10
396.56641
  20
130.60803
  0
VERTEX
  5
132
  8
Layer_0
  10
396.2168
  20
130.1524
  0
VERTEX
  5
133
  8
Layer_0
  10
395.76117
  20
129.80278
  0
VERTEX
  5
134
  8
Layer_0
  10
395.23056
  20
129.58301
  0
VERTEX
  5
135
  8
Layer_0
  10
394.66116
  20
129.50804
  0
VERTEX
  5
136
  8
Layer_0
  10
394.09177
  20
129.58301
  0
VERTEX
  5
137
  8
Layer_0
  10
393.56116
  20
129.80278
  0
VERTEX
  5
138
  8
Layer_0
  10
393.10553
  20
130.1524
  0
VERTEX
  5
139
  8
Layer_0
  10
392.75592
  20
130.60803
  0
VERTEX
  5
13a
  8
Layer_0
  10
392.53613
  20
131.13864
  0
VERTEX
  5
13b
  8
Layer_0
  10
392.46115
  20
131.70804
  0
VERTEX
  5
13c
  8
Layer_0
  10
392.53613
  20
132.27744
  0
VERTEX
  5
13d
  8
Layer_0
  10
392.75592
  20
132.80804
  0
VERTEX
  5
13e
  8
Layer_0
  10
393.10553
  20
133.26367
  0
VERTEX
  5
13f
  8
Layer_0
  10
393.56116
  20
133.6133
  0
VERTEX
  5
140
  8
Layer_0
  10
394.09177
  20
133.83307
  0
SEQEND
  0
POLYLINE
  5
142
  8
Layer_0
  62
0
  66
1
  10
0
  20
0
  30
0
  0
VERTEX
  5
142
  8
Layer_0
  10
427.66116
  20
189.70804
  0
VERTEX
  5
143
  8
Layer_0
  10
427.66116
  20
140.70804
  0
VERTEX
  5
144
  8
Layer_0
  10
427.61005
  20
140.31981
  0
VERTEX
  5
145
  8
Layer_0
  10
427.46021
  20
139.95804
  0
VERTEX
  5
146
  8
Layer_0
  10
427.22183
  20
139.64737
  0
VERTEX
  5
147
  8
Layer_0
  10
426.91116
  20
139.409
  0
VERTEX
  5
148
  8
Layer_0
  10
426.54938
  20
139.25916
  0
VERTEX
  5
149
  8
Layer_0
  10
426.16116
  20
139.20804
  0
VERTEX
  5
14a
  8
Layer_0
  10
393.16116
  20
139.20804
  0
VERTEX
  5
14b
  8
Layer_0
  10
392.77295
  20
139.25916
  0
VERTEX
  5
14c
  8
Layer_0
  10
392.41116
  20
139.409
  0
VERTEX
  5
14d
  8
Layer_0
  10
392.10049
  20
139.64737
  0
VERTEX
  5
14e
  8
Layer_0
  10
391.86212
  20
139.95804
  0
VERTEX
  5
14f
  8
Layer_0
  10
391.71228
  20
140.31981
  0
VERTEX
  5
150
  8
Layer_0
  10
391.66116
  20
140.70804
  0
VERTEX
  5
151
  8
Layer_0
  10
391.66116
  20
189.70804
  0
VERTEX
  5
152
  8
Layer_0
  10
391.71228
  20
190.09627
  0
VERTEX
  5
153
  8
Layer_0
  10
391.86212
  20
190.45804
  0
VERTEX
  5
154
  8
Layer_0
  10
392.10049
  20
190.7687
  0
VERTEX
  5
155
  8
Layer_0
  10
392.41116
  20
191.00708
  0
VERTEX
  5
156
  8
Layer_0
  10
392.77295
  20
191.15693
  0
VERTEX
  5
157
  8
Layer_0
  10
393.16116
  20
191.20804
  0
VERTEX
  5
158
  8
Layer_0
  10
426.16116
  20
191.20804
  0
VERTEX
  5
159
  8
Layer_0
  10
426.54938
  20
191.15693
  0
VERTEX
  5
15a
  8
Layer_0
  10
426.91116
  20
191.00708
  0
VERTEX
  5
15b
  8
Layer_0
  10
427.22183
  20
190.7687
  0
VERTEX
  5
15c
  8
Layer_0
  10
427.46021
  20
190.45804
  0
VERTEX
  5
15d
  8
Layer_0
  10
427.61005
  20
190.09627
  0
VERTEX
  5
15e
  8
Layer_0
  10
427.66116
  20
189.70804
  0
SEQEND
  0
POLYLINE
  5
160
  8
Layer_0
  62
0
  66
1
  10
0
  20
0
  30
0
  0
VERTEX
  5
160
  8
Layer_0
  10
424.09177
  20
133.83307
  0
VERTEX
  5
161
  8
Layer_0
  10
424.66116
  20
133.90804
  0
VERTEX
  5
162
  8
Layer_0
  10
425.23056
  20
133.83307
  0
VERTEX
  5
163
  8
Layer_0
  10
425.76117
  20
133.6133
  0
VERTEX
  5
164
  8
Layer_0
  10
426.2168
  20
133.26367
  0
VERTEX
  5
165
  8
Layer_0
  10
426.56641
  20
132.80804
  0
VERTEX
  5
166
  8
Layer_0
  10
426.78619
  20
132.27744
  0
VERTEX
  5
167
  8
Layer_0
  10
426.86118
  20
131.70804
  0
VERTEX
  5
168
  8
Layer_0
  10
426.78619
  20
131.13864
  0
VERTEX
  5
169
  8
Layer_0
  10
426.56641
  20
130.60803
  0
VERTEX
  5
16a
  8
Layer_0
  10
426.2168
  20
130.1524
  0
VERTEX
  5
16b
  8
Layer_0
  10
425.76117
  20
129.80278
  0
VERTEX
  5
16c
  8
Layer_0
  10
425.23056
  20
129.58301
  0
VERTEX
  5
16d
  8
Layer_0
  10
424.66116
  20
129.50804
  0
VERTEX
  5
16e
  8
Layer_0
  10
424.09177
  20
129.58301
  0
VERTEX
  5
16f
  8
Layer_0
  10
423.56116
  20
129.80278
  0
VERTEX
  5
170
  8
Layer_0
  10
423.10553
  20
130.1524
  0
VERTEX
  5
171
  8
Layer_0
  10
422.75592
  20
130.60803
  0
VERTEX
  5
172
  8
Layer_0
  10
422.53613
  20
131.13864
  0
VERTEX
  5
173
  8
Layer_0
  10
422.46115
  20
131.70804
  0
VERTEX
  5
174
  8
Layer_0
  10
422.53613
  20
132.27744
  0
VERTEX
  5
175
  8
Layer_0
  10
422.75592
  20
132.80804
  0
VERTEX
  5
176
  8
Layer_0
  10
423.10553
  20
133.26367
  0
VERTEX
  5
177
  8
Layer_0
  10
423.56116
  20
133.6133
  0
VERTEX
  5
178
  8
Layer_0
  10
424.09177
  20
133.83307
  0
SEQEND
  0
POLYLINE
  5
17a
  8
Layer_0
  62
0
  66
1
  10
0
  20
0
  30
0
  0
VERTEX
  5
17a
  8
Layer_0
  10
395.23056
  20
196.583
  0
VERTEX
  5
17b
  8
Layer_0
  10
394.66116
  20
196.50804
  0
VERTEX
  5
17c
  8
Layer_0
  10
394.09177
  20
196.583
  0
VERTEX
  5
17d
  8
Layer_0
  10
393.56116
  20
196.80278
  0
VERTEX
  5
17e
  8
Layer_0
  10
393.10553
  20
197.1524
  0
VERTEX
  5
17f
  8
Layer_0
  10
392.75592
  20
197.60804
  0
VERTEX
  5
180
  8
Layer_0
  10
392.53613
  20
198.13863
  0
VERTEX
  5
181
  8
Layer_0
  10
392.46115
  20
198.70804
  0
VERTEX
  5
182
  8
Layer_0
  10
392.53613
  20
199.27744
  0
VERTEX
  5
183
  8
Layer_0
  10
392.75592
  20
199.80804
  0
VERTEX
  5
184
  8
Layer_0
  10
393.10553
  20
200.26367
  0
VERTEX
  5
185
  8
Layer_0
  10
393.56116
  20
200.6133
  0
VERTEX
  5
186
  8
Layer_0
  10
394.09177
  20
200.83308
  0
VERTEX
  5
187
  8
Layer_0
  10
394.66116
  20
200.90804
  0
VERTEX
  5
188
  8
Layer_0
  10
395.23056
  20
200.83308
  0
VERTEX
  5
189
  8
Layer_0
  10
395.76117
  20
200.6133
  0
VERTEX
  5
18a
  8
Layer_0
  10
396.2168
  20
200.26367
  0
VERTEX
  5
18b
  8
Layer_0
  10
396.56641
  20
199.80804
  0
VERTEX
  5
18c
  8
Layer_0
  10
396.78619
  20
199.27744
  0
VERTEX
  5
18d
  8
Layer_0
  10
396.86118
  20
198.70804
  0
VERTEX
  5
18e
  8
Layer_0
  10
396.78619
  20
198.13863
  0
VERTEX
  5
18f
  8
Layer_0
  10
396.56641
  20
197.60804
  0
VERTEX
  5
190
  8
Layer_0
  10
396.2168
  20
197.1524
  0
VERTEX
  5
191
  8
Layer_0
  10
395.76117
  20
196.80278
  0
VERTEX
  5
192
  8
Layer_0
  10
395.23056
  20
196.583
  0
SEQEND
  0
POLYLINE
  5
194
  8
Layer_0
  62
0
  66
1
  10
0
  20
0
  30
0
  0
VERTEX
  5
194
  8
Layer_0
  10
391.8941
  20
192.33871
  0
VERTEX
  5
195
  8
Layer_0
  10
391.66116
  20
192.30804
  0
VERTEX
  5
196
  8
Layer_0
  10
391.42822
  20
192.33871
  0
VERTEX
  5
197
  8
Layer_0
  10
391.21115
  20
192.42862
  0
VERTEX
  5
198
  8
Layer_0
  10
391.02478
  20
192.57164
  0
VERTEX
  5
199
  8
Layer_0
  10
390.88174
  20
192.75804
  0
VERTEX
  5
19a
  8
Layer_0
  10
390.79184
  20
192.9751
  0
VERTEX
  5
19b
  8
Layer_0
  10
390.76117
  20
193.20804
  0
VERTEX
  5
19c
  8
Layer_0
  10
390.79184
  20
193.44098
  0
VERTEX
  5
19d
  8
Layer_0
  10
390.88174
  20
193.65804
  0
VERTEX
  5
19e
  8
Layer_0
  10
391.02478
  20
193.84444
  0
VERTEX
  5
19f
  8
Layer_0
  10
391.21115
  20
193.98746
  0
VERTEX
  5
1a0
  8
Layer_0
  10
391.42822
  20
194.07737
  0
VERTEX
  5
1a1
  8
Layer_0
  10
391.66116
  20
194.10804
  0
VERTEX
  5
1a2
  8
Layer_0
  10
391.8941
  20
194.07737
  0
VERTEX
  5
1a3
  8
Layer_0
  10
392.11118
  20
193.98746
  0
VERTEX
  5
1a4
  8
Layer_0
  10
392.29755
  20
193.84444
  0
VERTEX
  5
1a5
  8
Layer_0
  10
392.44058
  20
193.65804
  0
VERTEX
  5
1a6
  8
Layer_0
  10
392.53049
  20
193.44098
  0
VERTEX
  5
1a7
  8
Layer_0
  10
392.56116
  20
193.20804
  0
VERTEX
  5
1a8
  8
Layer_0
  10
392.53049
  20
192.9751
  0
VERTEX
  5
1a9
  8
Layer_0
  10
392.44058
  20
192.75804
  0
VERTEX
  5
1aa
  8
Layer_0
  10
392.29755
  20
192.57164
  0
VERTEX
  5
1ab
  8
Layer_0
  10
392.11118
  20
192.42862
  0
VERTEX
  5
1ac
  8
Layer_0
  10
391.8941
  20
192.33871
  0
SEQEND
  0
POLYLINE
  5
1ae
  8
Layer_0
  62
0
  66
1
  10
0
  20
0
  30
0
  0
VERTEX
  5
1ae
  8
Layer_0
  10
427.8941
  20
192.33871
  0
VERTEX
  5
1af
  8
Layer_0
  10
427.66116
  20
192.30804
  0
VERTEX
  5
1b0
  8
Layer_0
  10
427.42822
  20
192.33871
  0
VERTEX
  5
1b1
  8
Layer_0
  10
427.21115
  20
192.42862
  0
VERTEX
  5
1b2
  8
Layer_0
  10
427.02478
  20
192.57164
  0
VERTEX
  5
1b3
  8
Layer_0
  10
426.88174
  20
192.75804
  0
VERTEX
  5
1b4
  8
Layer_0
  10
426.79184
  20
192.9751
  0
VERTEX
  5
1b5
  8
Layer_0
  10
426.76117
  20
193.20804
  0
VERTEX
  5
1b6
  8
Layer_0
  10
426.79184
  20
193.44098
  0
VERTEX
  5
1b7
  8
Layer_0
  10
426.88174
  20
193.65804
  0
VERTEX
  5
1b8
  8
Layer_0
  10
427.02478
  20
193.84444
  0
VERTEX
  5
1b9
  8
Layer_0
  10
427.21115
  20
193.98746
  0
VERTEX
  5
1ba
  8
Layer_0
  10
427.42822
  20
194.07737
  0
VERTEX
  5
1bb
  8
Layer_0
  10
427.66116
  20
194.10804
  0
VERTEX
  5
1bc
  8
Layer_0
  10
427.8941
  20
194.07737
  0
VERTEX
  5
1bd
  8
Layer_0
  10
428.11118
  20
193.98746
  0
VERTEX
  5
1be
  8
Layer_0
  10
428.29755
  20
193.84444
  0
VERTEX
  5
1bf
  8
Layer_0
  10
428.44058
  20
193.65804
  0
VERTEX
  5
1c0
  8
Layer_0
  10
428.53049
  20
193.44098
  0
VERTEX
  5
1c1
  8
Layer_0
  10
428.56116
  20
193.20804
  0
VERTEX
  5
1c2
  8
Layer_0
  10
428.53049
  20
192.9751
  0
VERTEX
  5
1c3
  8
Layer_0
  10
428.44058
  20
192.75804
  0
VERTEX
  5
1c4
  8
Layer_0
  10
428.29755
  20
192.57164
  0
VERTEX
  5
1c5
  8
Layer_0
  10
428.11118
  20
192.42862
  0
VERTEX
  5
1c6
  8
Layer_0
  10
427.8941
  20
192.33871
  0
SEQEND
  0
POLYLINE
  5
1c8
  8
Layer_0
  62
0
  66
1
  10
0
  20
0
  30
0
  0
VERTEX
  5
1c8
  8
Layer_0
  10
427.42822
  20
138.07736
  0
VERTEX
  5
1c9
  8
Layer_0
  10
427.66116
  20
138.10803
  0
VERTEX
  5
1ca
  8
Layer_0
  10
427.8941
  20
138.07736
  0
VERTEX
  5
1cb
  8
Layer_0
  10
428.11118
  20
137.98746
  0
VERTEX
  5
1cc
  8
Layer_0
  10
428.29755
  20
137.84444
  0
VERTEX
  5
1cd
  8
Layer_0
  10
428.44058
  20
137.65804
  0
VERTEX
  5
1ce
  8
Layer_0
  10
428.53049
  20
137.44098
  0
VERTEX
  5
1cf
  8
Layer_0
  10
428.56116
  20
137.20804
  0
VERTEX
  5
1d0
  8
Layer_0
  10
428.53049
  20
136.9751
  0
VERTEX
  5
1d1
  8
Layer_0
  10
428.44058
  20
136.75804
  0
VERTEX
  5
1d2
  8
Layer_0
  10
428.29755
  20
136.57164
  0
VERTEX
  5
1d3
  8
Layer_0
  10
428.11118
  20
136.42862
  0
VERTEX
  5
1d4
  8
Layer_0
  10
427.8941
  20
136.33871
  0
VERTEX
  5
1d5
  8
Layer_0
  10
427.66116
  20
136.30804
  0
VERTEX
  5
1d6
  8
Layer_0
  10
427.42822
  20
136.33871
  0
VERTEX
  5
1d7
  8
Layer_0
  10
427.21115
  20
136.42862
  0
VERTEX
  5
1d8
  8
Layer_0
  10
427.02478
  20
136.57164
  0
VERTEX
  5
1d9
  8
Layer_0
  10
426.88174
  20
136.75804
  0
VERTEX
  5
1da
  8
Layer_0
  10
426.79184
  20
136.9751
  0
VERTEX
  5
1db
  8
Layer_0
  10
426.76117
  20
137.20804
  0
VERTEX
  5
1dc
  8
Layer_0
  10
426.79184
  20
137.44098
  0
VERTEX
  5
1dd
  8
Layer_0
  10
426.88174
  20
137.65804
  0
VERTEX
  5
1de
  8
Layer_0
  10
427.02478
  20
137.84444
  0
VERTEX
  5
1df
  8
Layer_0
  10
427.21115
  20
137.98746
  0
VERTEX
  5
1e0
  8
Layer_0
  10
427.42822
  20
138.07736
  0
SEQEND
  0
POLYLINE
  5
1e2
  8
Layer_0
  62
0
  66
1
  10
0
  20
0
  30
0
  0
VERTEX
  5
1e2
  8
Layer_0
  10
391.42822
  20
138.07736
  0
VERTEX
  5
1e3
  8
Layer_0
  10
391.66116
  20
138.10803
  0
VERTEX
  5
1e4
  8
Layer_0
  10
391.8941
  20
138.07736
  0
VERTEX
  5
1e5
  8
Layer_0
  10
392.11118
  20
137.98746
  0
VERTEX
  5
1e6
  8
Layer_0
  10
392.29755
  20
137.84444
  0
VERTEX
  5
1e7
  8
Layer_0
  10
392.44058
  20
137.65804
  0
VERTEX
  5
1e8
  8
Layer_0
  10
392.53049
  20
137.44098
  0
VERTEX
  5
1e9
  8
Layer_0
  10
392.56116
  20
137.20804
  0
VERTEX
  5
1ea
  8
Layer_0
  10
392.53049
  20
136.9751
  0
VERTEX
  5
1eb
  8
Layer_0
  10
392.44058
  20
136.75804
  0
VERTEX
  5
1ec
  8
Layer_0
  10
392.29755
  20
136.57164
  0
VERTEX
  5
1ed
  8
Layer_0
  10
392.11118
  20
136.42862
  0
VERTEX
  5
1ee
  8
Layer_0
  10
391.8941
  20
136.33871
  0
VERTEX
  5
1ef
  8
Layer_0
  10
391.66116
  20
136.30804
  0
VERTEX
  5
1f0
  8
Layer_0
  10
391.42822
  20
136.33871
  0
VERTEX
  5
1f1
  8
Layer_0
  10
391.21115
  20
136.42862
  0
VERTEX
  5
1f2
  8
Layer_0
  10
391.02478
  20
136.57164
  0
VERTEX
  5
1f3
  8
Layer_0
  10
390.88174
  20
136.75804
  0
VERTEX
  5
1f4
  8
Layer_0
  10
390.79184
  20
136.9751
  0
VERTEX
  5
1f5
  8
Layer_0
  10
390.76117
  20
137.20804
  0
VERTEX
  5
1f6
  8
Layer_0
  10
390.79184
  20
137.44098
  0
VERTEX
  5
1f7
  8
Layer_0
  10
390.88174
  20
137.65804
  0
VERTEX
  5
1f8
  8
Layer_0
  10
391.02478
  20
137.84444
  0
VERTEX
  5
1f9
  8
Layer_0
  10
391.21115
  20
137.98746
  0
VERTEX
  5
1fa
  8
Layer_0
  10
391.42822
  20
138.07736
  0
SEQEND
  0
ENDSEC
  0
EOF
