  0
SECTION
  2
HEADER
  9
$ACADVER
  1
AC1009
  0
ENDSEC
  0
SECTION
  2
ENTITIES
  0
POLYLINE
  5
90
  8
Layer_0
  62
0
  66
1
  10
0
  20
0
  30
0
  0
VERTEX
  5
90
  8
Layer_0
  10
404.90259
  20
161.69617
  0
VERTEX
  5
91
  8
Layer_0
  10
406.034
  20
163.17067
  0
VERTEX
  5
92
  8
Layer_0
  10
407.0867
  20
164.70236
  0
VERTEX
  5
93
  8
Layer_0
  10
408.0578
  20
166.28705
  0
VERTEX
  5
94
  8
Layer_0
  10
408.94464
  20
167.92038
  0
VERTEX
  5
95
  8
Layer_0
  10
409.74475
  20
169.59789
  0
VERTEX
  5
96
  8
Layer_0
  10
410.45599
  20
171.31497
  0
VERTEX
  5
97
  8
Layer_0
  10
411.07642
  20
173.06694
  0
VERTEX
  5
98
  8
Layer_0
  10
411.60428
  20
174.84897
  0
VERTEX
  5
99
  8
Layer_0
  10
412.03815
  20
176.65617
  0
VERTEX
  5
9a
  8
Layer_0
  10
412.37683
  20
178.48361
  0
VERTEX
  5
9b
  8
Layer_0
  10
412.61945
  20
180.32628
  0
VERTEX
  5
9c
  8
Layer_0
  10
412.76526
  20
182.17912
  0
VERTEX
  5
9d
  8
Layer_0
  10
412.8139
  20
184.03704
  0
VERTEX
  5
9e
  8
Layer_0
  10
412.76526
  20
185.89497
  0
VERTEX
  5
9f
  8
Layer_0
  10
412.61945
  20
187.7478
  0
VERTEX
  5
a0
  8
Layer_0
  10
412.44781
  20
189.05137
  0
VERTEX
  5
a1
  8
Layer_0
  10
412.37683
  20
189.59046
  0
VERTEX
  5
a2
  8
Layer_0
  10
412.03815
  20
191.41791
  0
VERTEX
  5
a3
  8
Layer_0
  10
411.77628
  20
192.50459
  0
VERTEX
  5
a4
  8
Layer_0
  10
411.4176
  20
193.56326
  0
VERTEX
  5
a5
  8
Layer_0
  10
410.965
  20
194.58532
  0
VERTEX
  5
a6
  8
Layer_0
  10
410.42218
  20
195.56245
  0
VERTEX
  5
a7
  8
Layer_0
  10
409.79352
  20
196.48672
  0
VERTEX
  5
a8
  8
Layer_0
  10
409.0842
  20
197.3506
  0
VERTEX
  5
a9
  8
Layer_0
  10
408.29993
  20
198.14708
  0
VERTEX
  5
aa
  8
Layer_0
  10
407.44711
  20
198.86967
  0
VERTEX
  5
ab
  8
Layer_0
  10
406.53265
  20
199.5125
  0
VERTEX
  5
ac
  8
Layer_0
  10
405.56403
  20
200.07034
  0
VERTEX
  5
ad
  8
Layer_0
  10
404.54907
  20
200.53867
  0
VERTEX
  5
ae
  8
Layer_0
  10
403.49606
  20
200.91367
  0
VERTEX
  5
af
  8
Layer_0
  10
402.41354
  20
201.19228
  0
VERTEX
  5
b0
  8
Layer_0
  10
401.31036
  20
201.37225
  0
VERTEX
  5
b1
  8
Layer_0
  10
400.1954
  20
201.45212
  0
VERTEX
  5
b2
  8
Layer_0
  10
399.07782
  20
201.43123
  0
VERTEX
  5
b3
  8
Layer_0
  10
397.96664
  20
201.30975
  0
VERTEX
  5
b4
  8
Layer_0
  10
396.87094
  20
201.08868
  0
VERTEX
  5
b5
  8
Layer_0
  10
395.79962
  20
200.7698
  0
VERTEX
  5
b6
  8
Layer_0
  10
394.76135
  20
200.35571
  0
VERTEX
  5
b7
  8
Layer_0
  10
393.76462
  20
199.84979
  0
VERTEX
  5
b8
  8
Layer_0
  10
392.8175
  20
199.25613
  0
VERTEX
  5
b9
  8
Layer_0
  10
391.9277
  20
198.57957
  0
VERTEX
  5
ba
  8
Layer_0
  10
391.10248
  20
197.82562
  0
VERTEX
  5
bb
  8
Layer_0
  10
384.51392
  20
191.23705
  0
VERTEX
  5
bc
  8
Layer_0
  10
383.99643
  20
190.64697
  0
VERTEX
  5
bd
  8
Layer_0
  10
383.56039
  20
189.9944
  0
VERTEX
  5
be
  8
Layer_0
  10
383.21326
  20
189.2905
  0
VERTEX
  5
bf
  8
Layer_0
  10
382.961
  20
188.54732
  0
VERTEX
  5
c0
  8
Layer_0
  10
382.80786
  20
187.77756
  0
VERTEX
  5
c1
  8
Layer_0
  10
382.75653
  20
186.9944
  0
VERTEX
  5
c2
  8
Layer_0
  10
382.80786
  20
186.21124
  0
VERTEX
  5
c3
  8
Layer_0
  10
382.961
  20
185.44148
  0
VERTEX
  5
c4
  8
Layer_0
  10
383.21326
  20
184.6983
  0
VERTEX
  5
c5
  8
Layer_0
  10
383.56039
  20
183.9944
  0
VERTEX
  5
c6
  8
Layer_0
  10
383.99643
  20
183.34183
  0
VERTEX
  5
c7
  8
Layer_0
  10
384.51392
  20
182.75175
  0
VERTEX
  5
c8
  8
Layer_0
  10
385.10397
  20
182.23428
  0
VERTEX
  5
c9
  8
Layer_0
  10
385.75653
  20
181.79825
  0
VERTEX
  5
ca
  8
Layer_0
  10
386.46045
  20
181.45113
  0
VERTEX
  5
cb
  8
Layer_0
  10
387.20361
  20
181.19884
  0
VERTEX
  5
cc
  8
Layer_0
  10
387.97339
  20
181.04573
  0
VERTEX
  5
cd
  8
Layer_0
  10
388.75653
  20
180.9944
  0
VERTEX
  5
ce
  8
Layer_0
  10
389.85297
  20
180.92254
  0
VERTEX
  5
cf
  8
Layer_0
  10
390.93063
  20
180.70818
  0
VERTEX
  5
d0
  8
Layer_0
  10
391.97107
  20
180.35499
  0
VERTEX
  5
d1
  8
Layer_0
  10
392.95654
  20
179.86902
  0
VERTEX
  5
d2
  8
Layer_0
  10
393.87015
  20
179.25857
  0
VERTEX
  5
d3
  8
Layer_0
  10
394.69623
  20
178.5341
  0
VERTEX
  5
d4
  8
Layer_0
  10
395.42072
  20
177.70799
  0
VERTEX
  5
d5
  8
Layer_0
  10
396.03116
  20
176.7944
  0
VERTEX
  5
d6
  8
Layer_0
  10
396.51712
  20
175.80894
  0
VERTEX
  5
d7
  8
Layer_0
  10
396.87033
  20
174.76848
  0
VERTEX
  5
d8
  8
Layer_0
  10
397.08469
  20
173.69082
  0
VERTEX
  5
d9
  8
Layer_0
  10
397.15656
  20
172.5944
  0
VERTEX
  5
da
  8
Layer_0
  10
397.08469
  20
171.49799
  0
VERTEX
  5
db
  8
Layer_0
  10
396.87033
  20
170.42032
  0
VERTEX
  5
dc
  8
Layer_0
  10
396.51712
  20
169.37985
  0
VERTEX
  5
dd
  8
Layer_0
  10
396.03116
  20
168.39441
  0
VERTEX
  5
de
  8
Layer_0
  10
395.42072
  20
167.4808
  0
VERTEX
  5
df
  8
Layer_0
  10
394.69623
  20
166.65469
  0
VERTEX
  5
e0
  8
Layer_0
  10
393.87015
  20
165.93024
  0
VERTEX
  5
e1
  8
Layer_0
  10
392.95654
  20
165.31979
  0
VERTEX
  5
e2
  8
Layer_0
  10
391.97107
  20
164.83382
  0
VERTEX
  5
e3
  8
Layer_0
  10
390.93063
  20
164.48062
  0
VERTEX
  5
e4
  8
Layer_0
  10
389.85297
  20
164.26627
  0
VERTEX
  5
e5
  8
Layer_0
  10
388.75653
  20
164.1944
  0
VERTEX
  5
e6
  8
Layer_0
  10
387.66013
  20
164.26627
  0
VERTEX
  5
e7
  8
Layer_0
  10
386.58246
  20
164.48062
  0
VERTEX
  5
e8
  8
Layer_0
  10
385.54199
  20
164.83382
  0
VERTEX
  5
e9
  8
Layer_0
  10
384.55655
  20
165.31979
  0
VERTEX
  5
ea
  8
Layer_0
  10
383.64294
  20
165.93024
  0
VERTEX
  5
eb
  8
Layer_0
  10
382.81683
  20
166.65469
  0
VERTEX
  5
ec
  8
Layer_0
  10
382.09238
  20
167.4808
  0
VERTEX
  5
ed
  8
Layer_0
  10
381.48193
  20
168.39441
  0
VERTEX
  5
ee
  8
Layer_0
  10
380.99597
  20
169.37985
  0
VERTEX
  5
ef
  8
Layer_0
  10
380.64276
  20
170.42032
  0
VERTEX
  5
f0
  8
Layer_0
  10
380.42841
  20
171.49799
  0
VERTEX
  5
f1
  8
Layer_0
  10
380.35654
  20
172.5944
  0
VERTEX
  5
f2
  8
Layer_0
  10
380.30521
  20
173.37756
  0
VERTEX
  5
f3
  8
Layer_0
  10
380.1521
  20
174.14732
  0
VERTEX
  5
f4
  8
Layer_0
  10
379.89981
  20
174.8905
  0
VERTEX
  5
f5
  8
Layer_0
  10
379.5527
  20
175.5944
  0
VERTEX
  5
f6
  8
Layer_0
  10
379.11667
  20
176.24696
  0
VERTEX
  5
f7
  8
Layer_0
  10
378.59918
  20
176.83704
  0
VERTEX
  5
f8
  8
Layer_0
  10
378.00912
  20
177.35452
  0
VERTEX
  5
f9
  8
Layer_0
  10
377.35654
  20
177.79056
  0
VERTEX
  5
fa
  8
Layer_0
  10
376.65265
  20
178.13768
  0
VERTEX
  5
fb
  8
Layer_0
  10
375.90945
  20
178.38995
  0
VERTEX
  5
fc
  8
Layer_0
  10
375.13971
  20
178.54307
  0
VERTEX
  5
fd
  8
Layer_0
  10
374.35654
  20
178.5944
  0
VERTEX
  5
fe
  8
Layer_0
  10
373.57339
  20
178.54307
  0
VERTEX
  5
ff
  8
Layer_0
  10
372.80362
  20
178.38995
  0
VERTEX
  5
100
  8
Layer_0
  10
372.06046
  20
178.13768
  0
VERTEX
  5
101
  8
Layer_0
  10
371.35654
  20
177.79056
  0
VERTEX
  5
102
  8
Layer_0
  10
370.70398
  20
177.35452
  0
VERTEX
  5
103
  8
Layer_0
  10
370.11389
  20
176.83704
  0
VERTEX
  5
104
  8
Layer_0
  10
362.81821
  20
169.54135
  0
VERTEX
  5
105
  8
Layer_0
  10
361.12115
  20
171.2384
  0
VERTEX
  5
106
  8
Layer_0
  10
368.41684
  20
178.5341
  0
VERTEX
  5
107
  8
Layer_0
  10
369.24295
  20
179.25857
  0
VERTEX
  5
108
  8
Layer_0
  10
370.15656
  20
179.86902
  0
VERTEX
  5
109
  8
Layer_0
  10
371.142
  20
180.35499
  0
VERTEX
  5
10a
  8
Layer_0
  10
372.18246
  20
180.70818
  0
VERTEX
  5
10b
  8
Layer_0
  10
373.26013
  20
180.92254
  0
VERTEX
  5
10c
  8
Layer_0
  10
374.26529
  20
180.98842
  0
VERTEX
  5
10d
  8
Layer_0
  10
374.35654
  20
180.9944
  0
VERTEX
  5
10e
  8
Layer_0
  10
375.45297
  20
180.92254
  0
VERTEX
  5
10f
  8
Layer_0
  10
376.53064
  20
180.70818
  0
VERTEX
  5
110
  8
Layer_0
  10
377.57108
  20
180.35499
  0
VERTEX
  5
111
  8
Layer_0
  10
378.55655
  20
179.86902
  0
VERTEX
  5
112
  8
Layer_0
  10
379.47015
  20
179.25857
  0
VERTEX
  5
113
  8
Layer_0
  10
380.29623
  20
178.5341
  0
VERTEX
  5
114
  8
Layer_0
  10
381.02072
  20
177.70799
  0
VERTEX
  5
115
  8
Layer_0
  10
381.55655
  20
176.90607
  0
VERTEX
  5
116
  8
Layer_0
  10
381.63116
  20
176.7944
  0
VERTEX
  5
117
  8
Layer_0
  10
382.11713
  20
175.80894
  0
VERTEX
  5
118
  8
Layer_0
  10
382.47034
  20
174.76848
  0
VERTEX
  5
119
  8
Layer_0
  10
382.68469
  20
173.69082
  0
VERTEX
  5
11a
  8
Layer_0
  10
382.75653
  20
172.5944
  0
VERTEX
  5
11b
  8
Layer_0
  10
382.80786
  20
171.81125
  0
VERTEX
  5
11c
  8
Layer_0
  10
382.961
  20
171.04149
  0
VERTEX
  5
11d
  8
Layer_0
  10
383.21326
  20
170.29829
  0
VERTEX
  5
11e
  8
Layer_0
  10
383.56039
  20
169.59439
  0
VERTEX
  5
11f
  8
Layer_0
  10
383.99643
  20
168.94183
  0
VERTEX
  5
120
  8
Layer_0
  10
384.51392
  20
168.35176
  0
VERTEX
  5
121
  8
Layer_0
  10
385.10397
  20
167.83427
  0
VERTEX
  5
122
  8
Layer_0
  10
385.75653
  20
167.39825
  0
VERTEX
  5
123
  8
Layer_0
  10
386.46045
  20
167.05112
  0
VERTEX
  5
124
  8
Layer_0
  10
387.20361
  20
166.79884
  0
VERTEX
  5
125
  8
Layer_0
  10
387.97339
  20
166.64572
  0
VERTEX
  5
126
  8
Layer_0
  10
388.75653
  20
166.59439
  0
VERTEX
  5
127
  8
Layer_0
  10
389.5397
  20
166.64572
  0
VERTEX
  5
128
  8
Layer_0
  10
390.30945
  20
166.79884
  0
VERTEX
  5
129
  8
Layer_0
  10
391.05264
  20
167.05112
  0
VERTEX
  5
12a
  8
Layer_0
  10
391.75653
  20
167.39825
  0
VERTEX
  5
12b
  8
Layer_0
  10
392.40912
  20
167.83427
  0
VERTEX
  5
12c
  8
Layer_0
  10
392.99918
  20
168.35176
  0
VERTEX
  5
12d
  8
Layer_0
  10
393.51666
  20
168.94183
  0
VERTEX
  5
12e
  8
Layer_0
  10
393.9527
  20
169.59439
  0
VERTEX
  5
12f
  8
Layer_0
  10
394.2998
  20
170.29829
  0
VERTEX
  5
130
  8
Layer_0
  10
394.55209
  20
171.04149
  0
VERTEX
  5
131
  8
Layer_0
  10
394.7052
  20
171.81125
  0
VERTEX
  5
132
  8
Layer_0
  10
394.75653
  20
172.5944
  0
VERTEX
  5
133
  8
Layer_0
  10
394.7052
  20
173.37756
  0
VERTEX
  5
134
  8
Layer_0
  10
394.55209
  20
174.14732
  0
VERTEX
  5
135
  8
Layer_0
  10
394.2998
  20
174.8905
  0
VERTEX
  5
136
  8
Layer_0
  10
393.9527
  20
175.5944
  0
VERTEX
  5
137
  8
Layer_0
  10
393.51666
  20
176.24696
  0
VERTEX
  5
138
  8
Layer_0
  10
392.99918
  20
176.83704
  0
VERTEX
  5
139
  8
Layer_0
  10
392.40912
  20
177.35452
  0
VERTEX
  5
13a
  8
Layer_0
  10
391.75653
  20
177.79056
  0
VERTEX
  5
13b
  8
Layer_0
  10
391.05264
  20
178.13768
  0
VERTEX
  5
13c
  8
Layer_0
  10
390.30945
  20
178.38995
  0
VERTEX
  5
13d
  8
Layer_0
  10
389.5397
  20
178.54307
  0
VERTEX
  5
13e
  8
Layer_0
  10
388.75653
  20
178.5944
  0
VERTEX
  5
13f
  8
Layer_0
  10
387.66013
  20
178.66626
  0
VERTEX
  5
140
  8
Layer_0
  10
386.58246
  20
178.88062
  0
VERTEX
  5
141
  8
Layer_0
  10
385.54199
  20
179.23381
  0
VERTEX
  5
142
  8
Layer_0
  10
384.55655
  20
179.71979
  0
VERTEX
  5
143
  8
Layer_0
  10
384.44489
  20
179.7944
  0
VERTEX
  5
144
  8
Layer_0
  10
383.64294
  20
180.33023
  0
VERTEX
  5
145
  8
Layer_0
  10
382.81683
  20
181.0547
  0
VERTEX
  5
146
  8
Layer_0
  10
382.09238
  20
181.8808
  0
VERTEX
  5
147
  8
Layer_0
  10
381.48193
  20
182.7944
  0
VERTEX
  5
148
  8
Layer_0
  10
380.99597
  20
183.77986
  0
VERTEX
  5
149
  8
Layer_0
  10
380.64276
  20
184.82032
  0
VERTEX
  5
14a
  8
Layer_0
  10
380.42841
  20
185.89798
  0
VERTEX
  5
14b
  8
Layer_0
  10
380.35654
  20
186.9944
  0
VERTEX
  5
14c
  8
Layer_0
  10
380.36252
  20
187.08566
  0
VERTEX
  5
14d
  8
Layer_0
  10
380.42841
  20
188.09082
  0
VERTEX
  5
14e
  8
Layer_0
  10
380.64276
  20
189.16848
  0
VERTEX
  5
14f
  8
Layer_0
  10
380.99597
  20
190.20894
  0
VERTEX
  5
150
  8
Layer_0
  10
381.48193
  20
191.1944
  0
VERTEX
  5
151
  8
Layer_0
  10
382.09238
  20
192.10799
  0
VERTEX
  5
152
  8
Layer_0
  10
382.81683
  20
192.9341
  0
VERTEX
  5
153
  8
Layer_0
  10
389.4437
  20
199.56096
  0
VERTEX
  5
154
  8
Layer_0
  10
390.38885
  20
200.42448
  0
VERTEX
  5
155
  8
Layer_0
  10
391.45108
  20
201.23215
  0
VERTEX
  5
156
  8
Layer_0
  10
392.58176
  20
201.94086
  0
VERTEX
  5
157
  8
Layer_0
  10
393.77167
  20
202.54484
  0
VERTEX
  5
158
  8
Layer_0
  10
395.01114
  20
203.03917
  0
VERTEX
  5
159
  8
Layer_0
  10
396.2901
  20
203.41985
  0
VERTEX
  5
15a
  8
Layer_0
  10
397.59818
  20
203.68377
  0
VERTEX
  5
15b
  8
Layer_0
  10
398.92468
  20
203.82878
  0
VERTEX
  5
15c
  8
Layer_0
  10
400.25885
  20
203.85372
  0
VERTEX
  5
15d
  8
Layer_0
  10
401.58987
  20
203.75838
  0
VERTEX
  5
15e
  8
Layer_0
  10
402.90686
  20
203.54353
  0
VERTEX
  5
15f
  8
Layer_0
  10
404.19916
  20
203.21091
  0
VERTEX
  5
160
  8
Layer_0
  10
404.8277
  20
202.98708
  0
VERTEX
  5
161
  8
Layer_0
  10
405.34222
  20
202.92664
  0
VERTEX
  5
162
  8
Layer_0
  10
405.83176
  20
203.09619
  0
VERTEX
  5
163
  8
Layer_0
  10
406.19867
  20
203.46193
  0
VERTEX
  5
164
  8
Layer_0
  10
406.36978
  20
203.95091
  0
VERTEX
  5
165
  8
Layer_0
  10
406.31097
  20
204.46562
  0
VERTEX
  5
166
  8
Layer_0
  10
406.034
  20
204.90342
  0
VERTEX
  5
167
  8
Layer_0
  10
404.90259
  20
206.37791
  0
VERTEX
  5
168
  8
Layer_0
  10
403.69556
  20
207.79118
  0
VERTEX
  5
169
  8
Layer_0
  10
402.4162
  20
209.13933
  0
VERTEX
  5
16a
  8
Layer_0
  10
401.06805
  20
210.41869
  0
VERTEX
  5
16b
  8
Layer_0
  10
399.65479
  20
211.62572
  0
VERTEX
  5
16c
  8
Layer_0
  10
398.18027
  20
212.75714
  0
VERTEX
  5
16d
  8
Layer_0
  10
396.64859
  20
213.80984
  0
VERTEX
  5
16e
  8
Layer_0
  10
395.0639
  20
214.78094
  0
VERTEX
  5
16f
  8
Layer_0
  10
393.43057
  20
215.66777
  0
VERTEX
  5
170
  8
Layer_0
  10
391.75305
  20
216.4679
  0
VERTEX
  5
171
  8
Layer_0
  10
390.03595
  20
217.17915
  0
VERTEX
  5
172
  8
Layer_0
  10
388.284
  20
217.79955
  0
VERTEX
  5
173
  8
Layer_0
  10
386.50198
  20
218.32741
  0
VERTEX
  5
174
  8
Layer_0
  10
384.69476
  20
218.76128
  0
VERTEX
  5
175
  8
Layer_0
  10
382.86734
  20
219.09998
  0
VERTEX
  5
176
  8
Layer_0
  10
381.02466
  20
219.34257
  0
VERTEX
  5
177
  8
Layer_0
  10
379.17181
  20
219.48839
  0
VERTEX
  5
178
  8
Layer_0
  10
377.3139
  20
219.53704
  0
VERTEX
  5
179
  8
Layer_0
  10
375.45599
  20
219.48839
  0
VERTEX
  5
17a
  8
Layer_0
  10
373.60315
  20
219.34257
  0
VERTEX
  5
17b
  8
Layer_0
  10
371.76047
  20
219.09998
  0
VERTEX
  5
17c
  8
Layer_0
  10
369.93304
  20
218.76128
  0
VERTEX
  5
17d
  8
Layer_0
  10
368.12582
  20
218.32741
  0
VERTEX
  5
17e
  8
Layer_0
  10
366.34381
  20
217.79955
  0
VERTEX
  5
17f
  8
Layer_0
  10
364.59183
  20
217.17915
  0
VERTEX
  5
180
  8
Layer_0
  10
362.87476
  20
216.4679
  0
VERTEX
  5
181
  8
Layer_0
  10
361.19724
  20
215.66777
  0
VERTEX
  5
182
  8
Layer_0
  10
359.5639
  20
214.78094
  0
VERTEX
  5
183
  8
Layer_0
  10
357.97922
  20
213.80984
  0
VERTEX
  5
184
  8
Layer_0
  10
356.44754
  20
212.75714
  0
VERTEX
  5
185
  8
Layer_0
  10
354.97302
  20
211.62572
  0
VERTEX
  5
186
  8
Layer_0
  10
353.55975
  20
210.41869
  0
VERTEX
  5
187
  8
Layer_0
  10
352.21161
  20
209.13933
  0
VERTEX
  5
188
  8
Layer_0
  10
350.93225
  20
207.79118
  0
VERTEX
  5
189
  8
Layer_0
  10
349.72522
  20
206.37791
  0
VERTEX
  5
18a
  8
Layer_0
  10
348.59381
  20
204.90342
  0
VERTEX
  5
18b
  8
Layer_0
  10
347.54111
  20
203.37173
  0
VERTEX
  5
18c
  8
Layer_0
  10
346.57001
  20
201.78704
  0
VERTEX
  5
18d
  8
Layer_0
  10
345.68317
  20
200.1537
  0
VERTEX
  5
18e
  8
Layer_0
  10
344.88303
  20
198.4762
  0
VERTEX
  5
18f
  8
Layer_0
  10
344.17181
  20
196.7591
  0
VERTEX
  5
190
  8
Layer_0
  10
343.55139
  20
195.00714
  0
VERTEX
  5
191
  8
Layer_0
  10
343.02353
  20
193.22511
  0
VERTEX
  5
192
  8
Layer_0
  10
342.58966
  20
191.41791
  0
VERTEX
  5
193
  8
Layer_0
  10
342.25098
  20
189.59046
  0
VERTEX
  5
194
  8
Layer_0
  10
342.00836
  20
187.7478
  0
VERTEX
  5
195
  8
Layer_0
  10
341.86255
  20
185.89497
  0
VERTEX
  5
196
  8
Layer_0
  10
341.8139
  20
184.03704
  0
VERTEX
  5
197
  8
Layer_0
  10
341.86255
  20
182.17912
  0
VERTEX
  5
198
  8
Layer_0
  10
342.00836
  20
180.32628
  0
VERTEX
  5
199
  8
Layer_0
  10
342.25098
  20
178.48361
  0
VERTEX
  5
19a
  8
Layer_0
  10
342.58966
  20
176.65617
  0
VERTEX
  5
19b
  8
Layer_0
  10
343.02353
  20
174.84897
  0
VERTEX
  5
19c
  8
Layer_0
  10
343.55139
  20
173.06694
  0
VERTEX
  5
19d
  8
Layer_0
  10
344.17181
  20
171.31497
  0
VERTEX
  5
19e
  8
Layer_0
  10
344.88303
  20
169.59789
  0
VERTEX
  5
19f
  8
Layer_0
  10
345.68317
  20
167.92038
  0
VERTEX
  5
1a0
  8
Layer_0
  10
346.57001
  20
166.28705
  0
VERTEX
  5
1a1
  8
Layer_0
  10
347.54111
  20
164.70236
  0
VERTEX
  5
1a2
  8
Layer_0
  10
348.59381
  20
163.17067
  0
VERTEX
  5
1a3
  8
Layer_0
  10
349.72522
  20
161.69617
  0
VERTEX
  5
1a4
  8
Layer_0
  10
350.93225
  20
160.2829
  0
VERTEX
  5
1a5
  8
Layer_0
  10
352.21161
  20
158.93475
  0
VERTEX
  5
1a6
  8
Layer_0
  10
353.55975
  20
157.6554
  0
VERTEX
  5
1a7
  8
Layer_0
  10
354.97302
  20
156.44836
  0
VERTEX
  5
1a8
  8
Layer_0
  10
356.44754
  20
155.31694
  0
VERTEX
  5
1a9
  8
Layer_0
  10
357.97922
  20
154.26424
  0
VERTEX
  5
1aa
  8
Layer_0
  10
359.5639
  20
153.29314
  0
VERTEX
  5
1ab
  8
Layer_0
  10
361.19724
  20
152.40631
  0
VERTEX
  5
1ac
  8
Layer_0
  10
362.87476
  20
151.60617
  0
VERTEX
  5
1ad
  8
Layer_0
  10
364.59183
  20
150.89493
  0
VERTEX
  5
1ae
  8
Layer_0
  10
366.34381
  20
150.27454
  0
VERTEX
  5
1af
  8
Layer_0
  10
368.12582
  20
149.74667
  0
VERTEX
  5
1b0
  8
Layer_0
  10
369.93304
  20
149.31281
  0
VERTEX
  5
1b1
  8
Layer_0
  10
371.76047
  20
148.97411
  0
VERTEX
  5
1b2
  8
Layer_0
  10
373.60315
  20
148.73151
  0
VERTEX
  5
1b3
  8
Layer_0
  10
375.45599
  20
148.58569
  0
VERTEX
  5
1b4
  8
Layer_0
  10
377.3139
  20
148.53705
  0
VERTEX
  5
1b5
  8
Layer_0
  10
379.17181
  20
148.58569
  0
VERTEX
  5
1b6
  8
Layer_0
  10
381.02466
  20
148.73151
  0
VERTEX
  5
1b7
  8
Layer_0
  10
382.86734
  20
148.97411
  0
VERTEX
  5
1b8
  8
Layer_0
  10
384.69476
  20
149.31281
  0
VERTEX
  5
1b9
  8
Layer_0
  10
386.50198
  20
149.74667
  0
VERTEX
  5
1ba
  8
Layer_0
  10
388.284
  20
150.27454
  0
VERTEX
  5
1bb
  8
Layer_0
  10
390.03595
  20
150.89493
  0
VERTEX
  5
1bc
  8
Layer_0
  10
391.75305
  20
151.60617
  0
VERTEX
  5
1bd
  8
Layer_0
  10
393.43057
  20
152.40631
  0
VERTEX
  5
1be
  8
Layer_0
  10
395.0639
  20
153.29314
  0
VERTEX
  5
1bf
  8
Layer_0
  10
396.64859
  20
154.26424
  0
VERTEX
  5
1c0
  8
Layer_0
  10
398.18027
  20
155.31694
  0
VERTEX
  5
1c1
  8
Layer_0
  10
399.65479
  20
156.44836
  0
VERTEX
  5
1c2
  8
Layer_0
  10
401.06805
  20
157.6554
  0
VERTEX
  5
1c3
  8
Layer_0
  10
402.4162
  20
158.93475
  0
VERTEX
  5
1c4
  8
Layer_0
  10
403.69556
  20
160.2829
  0
VERTEX
  5
1c5
  8
Layer_0
  10
404.90259
  20
161.69617
  0
SEQEND
  0
POLYLINE
  5
1c7
  8
Layer_0
  62
0
  66
1
  10
0
  20
0
  30
0
  0
VERTEX
  5
1c7
  8
Layer_0
  10
401.65216
  20
182.68704
  0
VERTEX
  5
1c8
  8
Layer_0
  10
401.22308
  20
182.12785
  0
VERTEX
  5
1c9
  8
Layer_0
  10
400.66391
  20
181.69878
  0
VERTEX
  5
1ca
  8
Layer_0
  10
400.01273
  20
181.42905
  0
VERTEX
  5
1cb
  8
Layer_0
  10
399.3139
  20
181.33704
  0
VERTEX
  5
1cc
  8
Layer_0
  10
398.61508
  20
181.42905
  0
VERTEX
  5
1cd
  8
Layer_0
  10
397.9639
  20
181.69878
  0
VERTEX
  5
1ce
  8
Layer_0
  10
397.40472
  20
182.12785
  0
VERTEX
  5
1cf
  8
Layer_0
  10
396.97565
  20
182.68704
  0
VERTEX
  5
1d0
  8
Layer_0
  10
396.7059
  20
183.33823
  0
VERTEX
  5
1d1
  8
Layer_0
  10
396.61389
  20
184.03704
  0
VERTEX
  5
1d2
  8
Layer_0
  10
396.7059
  20
184.73586
  0
VERTEX
  5
1d3
  8
Layer_0
  10
396.97565
  20
185.38704
  0
VERTEX
  5
1d4
  8
Layer_0
  10
397.40472
  20
185.94623
  0
VERTEX
  5
1d5
  8
Layer_0
  10
397.9639
  20
186.37531
  0
VERTEX
  5
1d6
  8
Layer_0
  10
398.61508
  20
186.64503
  0
VERTEX
  5
1d7
  8
Layer_0
  10
399.3139
  20
186.73705
  0
VERTEX
  5
1d8
  8
Layer_0
  10
400.01273
  20
186.64503
  0
VERTEX
  5
1d9
  8
Layer_0
  10
400.66391
  20
186.37531
  0
VERTEX
  5
1da
  8
Layer_0
  10
401.22308
  20
185.94623
  0
VERTEX
  5
1db
  8
Layer_0
  10
401.65216
  20
185.38704
  0
VERTEX
  5
1dc
  8
Layer_0
  10
401.92191
  20
184.73586
  0
VERTEX
  5
1dd
  8
Layer_0
  10
402.01392
  20
184.03704
  0
VERTEX
  5
1de
  8
Layer_0
  10
401.92191
  20
183.33823
  0
VERTEX
  5
1df
  8
Layer_0
  10
401.65216
  20
182.68704
  0
SEQEND
  0
POLYLINE
  5
1e1
  8
Layer_0
  62
0
  66
1
  10
0
  20
0
  30
0
  0
VERTEX
  5
1e1
  8
Layer_0
  10
379.65216
  20
160.68704
  0
VERTEX
  5
1e2
  8
Layer_0
  10
379.22308
  20
160.12785
  0
VERTEX
  5
1e3
  8
Layer_0
  10
378.66391
  20
159.69878
  0
VERTEX
  5
1e4
  8
Layer_0
  10
378.01273
  20
159.42905
  0
VERTEX
  5
1e5
  8
Layer_0
  10
377.3139
  20
159.33704
  0
VERTEX
  5
1e6
  8
Layer_0
  10
376.61508
  20
159.42905
  0
VERTEX
  5
1e7
  8
Layer_0
  10
375.9639
  20
159.69878
  0
VERTEX
  5
1e8
  8
Layer_0
  10
375.40472
  20
160.12785
  0
VERTEX
  5
1e9
  8
Layer_0
  10
374.97565
  20
160.68704
  0
VERTEX
  5
1ea
  8
Layer_0
  10
374.7059
  20
161.33823
  0
VERTEX
  5
1eb
  8
Layer_0
  10
374.61389
  20
162.03705
  0
VERTEX
  5
1ec
  8
Layer_0
  10
374.7059
  20
162.73586
  0
VERTEX
  5
1ed
  8
Layer_0
  10
374.97565
  20
163.38704
  0
VERTEX
  5
1ee
  8
Layer_0
  10
375.40472
  20
163.94623
  0
VERTEX
  5
1ef
  8
Layer_0
  10
375.9639
  20
164.37531
  0
VERTEX
  5
1f0
  8
Layer_0
  10
376.61508
  20
164.64503
  0
VERTEX
  5
1f1
  8
Layer_0
  10
377.3139
  20
164.73705
  0
VERTEX
  5
1f2
  8
Layer_0
  10
378.01273
  20
164.64503
  0
VERTEX
  5
1f3
  8
Layer_0
  10
378.66391
  20
164.37531
  0
VERTEX
  5
1f4
  8
Layer_0
  10
379.22308
  20
163.94623
  0
VERTEX
  5
1f5
  8
Layer_0
  10
379.65216
  20
163.38704
  0
VERTEX
  5
1f6
  8
Layer_0
  10
379.92191
  20
162.73586
  0
VERTEX
  5
1f7
  8
Layer_0
  10
380.01392
  20
162.03705
  0
VERTEX
  5
1f8
  8
Layer_0
  10
379.92191
  20
161.33823
  0
VERTEX
  5
1f9
  8
Layer_0
  10
379.65216
  20
160.68704
  0
SEQEND
  0
POLYLINE
  5
1fb
  8
Layer_0
  62
0
  66
1
  10
0
  20
0
  30
0
  0
VERTEX
  5
1fb
  8
Layer_0
  10
357.65216
  20
182.68704
  0
VERTEX
  5
1fc
  8
Layer_0
  10
357.22308
  20
182.12785
  0
VERTEX
  5
1fd
  8
Layer_0
  10
356.66391
  20
181.69878
  0
VERTEX
  5
1fe
  8
Layer_0
  10
356.01273
  20
181.42905
  0
VERTEX
  5
1ff
  8
Layer_0
  10
355.3139
  20
181.33704
  0
VERTEX
  5
200
  8
Layer_0
  10
354.61508
  20
181.42905
  0
VERTEX
  5
201
  8
Layer_0
  10
353.9639
  20
181.69878
  0
VERTEX
  5
202
  8
Layer_0
  10
353.40472
  20
182.12785
  0
VERTEX
  5
203
  8
Layer_0
  10
352.97565
  20
182.68704
  0
VERTEX
  5
204
  8
Layer_0
  10
352.7059
  20
183.33823
  0
VERTEX
  5
205
  8
Layer_0
  10
352.61389
  20
184.03704
  0
VERTEX
  5
206
  8
Layer_0
  10
352.7059
  20
184.73586
  0
VERTEX
  5
207
  8
Layer_0
  10
352.97565
  20
185.38704
  0
VERTEX
  5
208
  8
Layer_0
  10
353.40472
  20
185.94623
  0
VERTEX
  5
209
  8
Layer_0
  10
353.9639
  20
186.37531
  0
VERTEX
  5
20a
  8
Layer_0
  10
354.61508
  20
186.64503
  0
VERTEX
  5
20b
  8
Layer_0
  10
355.3139
  20
186.73705
  0
VERTEX
  5
20c
  8
Layer_0
  10
356.01273
  20
186.64503
  0
VERTEX
  5
20d
  8
Layer_0
  10
356.66391
  20
186.37531
  0
VERTEX
  5
20e
  8
Layer_0
  10
357.22308
  20
185.94623
  0
VERTEX
  5
20f
  8
Layer_0
  10
357.65216
  20
185.38704
  0
VERTEX
  5
210
  8
Layer_0
  10
357.92191
  20
184.73586
  0
VERTEX
  5
211
  8
Layer_0
  10
358.01392
  20
184.03704
  0
VERTEX
  5
212
  8
Layer_0
  10
357.92191
  20
183.33823
  0
VERTEX
  5
213
  8
Layer_0
  10
357.65216
  20
182.68704
  0
SEQEND
  0
POLYLINE
  5
215
  8
Layer_0
  62
0
  66
1
  10
0
  20
0
  30
0
  0
VERTEX
  5
215
  8
Layer_0
  10
379.65216
  20
204.68704
  0
VERTEX
  5
216
  8
Layer_0
  10
379.22308
  20
204.12785
  0
VERTEX
  5
217
  8
Layer_0
  10
378.66391
  20
203.69878
  0
VERTEX
  5
218
  8
Layer_0
  10
378.01273
  20
203.42904
  0
VERTEX
  5
219
  8
Layer_0
  10
377.3139
  20
203.33704
  0
VERTEX
  5
21a
  8
Layer_0
  10
376.61508
  20
203.42904
  0
VERTEX
  5
21b
  8
Layer_0
  10
375.9639
  20
203.69878
  0
VERTEX
  5
21c
  8
Layer_0
  10
375.40472
  20
204.12785
  0
VERTEX
  5
21d
  8
Layer_0
  10
374.97565
  20
204.68704
  0
VERTEX
  5
21e
  8
Layer_0
  10
374.7059
  20
205.33823
  0
VERTEX
  5
21f
  8
Layer_0
  10
374.61389
  20
206.03704
  0
VERTEX
  5
220
  8
Layer_0
  10
374.7059
  20
206.73586
  0
VERTEX
  5
221
  8
Layer_0
  10
374.97565
  20
207.38704
  0
VERTEX
  5
222
  8
Layer_0
  10
375.40472
  20
207.94623
  0
VERTEX
  5
223
  8
Layer_0
  10
375.9639
  20
208.37531
  0
VERTEX
  5
224
  8
Layer_0
  10
376.61508
  20
208.64504
  0
VERTEX
  5
225
  8
Layer_0
  10
377.3139
  20
208.73704
  0
VERTEX
  5
226
  8
Layer_0
  10
378.01273
  20
208.64504
  0
VERTEX
  5
227
  8
Layer_0
  10
378.66391
  20
208.37531
  0
VERTEX
  5
228
  8
Layer_0
  10
379.22308
  20
207.94623
  0
VERTEX
  5
229
  8
Layer_0
  10
379.65216
  20
207.38704
  0
VERTEX
  5
22a
  8
Layer_0
  10
379.92191
  20
206.73586
  0
VERTEX
  5
22b
  8
Layer_0
  10
380.01392
  20
206.03704
  0
VERTEX
  5
22c
  8
Layer_0
  10
379.92191
  20
205.33823
  0
VERTEX
  5
22d
  8
Layer_0
  10
379.65216
  20
204.68704
  0
SEQEND
  0
ENDSEC
  0
EOF
