  0
SECTION
  2
HEADER
  9
$ACADVER
  1
AC1009
  0
ENDSEC
  0
SECTION
  2
ENTITIES
  0
POLYLINE
  5
90
  8
Layer_0
  62
0
  66
1
  10
0
  20
0
  30
0
  0
VERTEX
  5
90
  8
Layer_0
  10
342.93555
  20
135.17722
  0
VERTEX
  5
91
  8
Layer_0
  10
343.00818
  20
137.95102
  0
VERTEX
  5
92
  8
Layer_0
  10
342.93555
  20
140.72482
  0
VERTEX
  5
93
  8
Layer_0
  10
342.71783
  20
143.49103
  0
VERTEX
  5
94
  8
Layer_0
  10
342.35565
  20
146.24205
  0
VERTEX
  5
95
  8
Layer_0
  10
341.84998
  20
148.97034
  0
VERTEX
  5
96
  8
Layer_0
  10
341.20221
  20
151.66843
  0
VERTEX
  5
97
  8
Layer_0
  10
340.41415
  20
154.32892
  0
VERTEX
  5
98
  8
Layer_0
  10
339.48792
  20
156.94452
  0
VERTEX
  5
99
  8
Layer_0
  10
338.42609
  20
159.50806
  0
VERTEX
  5
9a
  8
Layer_0
  10
337.23151
  20
162.01251
  0
VERTEX
  5
9b
  8
Layer_0
  10
335.9075
  20
164.45102
  0
VERTEX
  5
9c
  8
Layer_0
  10
334.4577
  20
166.81689
  0
VERTEX
  5
9d
  8
Layer_0
  10
332.88605
  20
169.10364
  0
VERTEX
  5
9e
  8
Layer_0
  10
331.1969
  20
171.30499
  0
VERTEX
  5
9f
  8
Layer_0
  10
329.60254
  20
173.51969
  0
VERTEX
  5
a0
  8
Layer_0
  10
328.26917
  20
175.90063
  0
VERTEX
  5
a1
  8
Layer_0
  10
327.21387
  20
178.4172
  0
VERTEX
  5
a2
  8
Layer_0
  10
326.45026
  20
181.03706
  0
VERTEX
  5
a3
  8
Layer_0
  10
325.98813
  20
183.72652
  0
VERTEX
  5
a4
  8
Layer_0
  10
325.8334
  20
186.45102
  0
VERTEX
  5
a5
  8
Layer_0
  10
325.98813
  20
189.17551
  0
VERTEX
  5
a6
  8
Layer_0
  10
326.45026
  20
191.86497
  0
VERTEX
  5
a7
  8
Layer_0
  10
327.21387
  20
194.48484
  0
VERTEX
  5
a8
  8
Layer_0
  10
328.26917
  20
197.00141
  0
VERTEX
  5
a9
  8
Layer_0
  10
329.60254
  20
199.38235
  0
VERTEX
  5
aa
  8
Layer_0
  10
331.1969
  20
201.59704
  0
VERTEX
  5
ab
  8
Layer_0
  10
332.88605
  20
203.7984
  0
VERTEX
  5
ac
  8
Layer_0
  10
334.4577
  20
206.08515
  0
VERTEX
  5
ad
  8
Layer_0
  10
335.9075
  20
208.45102
  0
VERTEX
  5
ae
  8
Layer_0
  10
337.23151
  20
210.88953
  0
VERTEX
  5
af
  8
Layer_0
  10
338.42609
  20
213.39397
  0
VERTEX
  5
b0
  8
Layer_0
  10
339.48792
  20
215.95752
  0
VERTEX
  5
b1
  8
Layer_0
  10
340.41415
  20
218.57312
  0
VERTEX
  5
b2
  8
Layer_0
  10
341.20221
  20
221.23361
  0
VERTEX
  5
b3
  8
Layer_0
  10
341.84998
  20
223.9317
  0
VERTEX
  5
b4
  8
Layer_0
  10
342.35565
  20
226.65999
  0
VERTEX
  5
b5
  8
Layer_0
  10
342.71783
  20
229.41101
  0
VERTEX
  5
b6
  8
Layer_0
  10
342.93555
  20
232.17722
  0
VERTEX
  5
b7
  8
Layer_0
  10
343.00818
  20
234.95102
  0
VERTEX
  5
b8
  8
Layer_0
  10
342.93555
  20
237.72483
  0
VERTEX
  5
b9
  8
Layer_0
  10
342.71783
  20
240.49103
  0
VERTEX
  5
ba
  8
Layer_0
  10
342.35565
  20
243.24205
  0
VERTEX
  5
bb
  8
Layer_0
  10
341.84998
  20
245.97034
  0
VERTEX
  5
bc
  8
Layer_0
  10
341.20221
  20
248.66843
  0
VERTEX
  5
bd
  8
Layer_0
  10
340.41415
  20
251.32892
  0
VERTEX
  5
be
  8
Layer_0
  10
339.48792
  20
253.94452
  0
VERTEX
  5
bf
  8
Layer_0
  10
338.42609
  20
256.50806
  0
VERTEX
  5
c0
  8
Layer_0
  10
337.23151
  20
259.01252
  0
VERTEX
  5
c1
  8
Layer_0
  10
335.9075
  20
261.45102
  0
VERTEX
  5
c2
  8
Layer_0
  10
334.4577
  20
263.81689
  0
VERTEX
  5
c3
  8
Layer_0
  10
332.88605
  20
266.10364
  0
VERTEX
  5
c4
  8
Layer_0
  10
331.1969
  20
268.305
  0
VERTEX
  5
c5
  8
Layer_0
  10
329.39484
  20
270.41494
  0
VERTEX
  5
c6
  8
Layer_0
  10
327.4848
  20
272.42768
  0
VERTEX
  5
c7
  8
Layer_0
  10
325.47208
  20
274.3377
  0
VERTEX
  5
c8
  8
Layer_0
  10
323.36215
  20
276.13976
  0
VERTEX
  5
c9
  8
Layer_0
  10
321.16077
  20
277.82892
  0
VERTEX
  5
ca
  8
Layer_0
  10
318.87402
  20
279.40056
  0
VERTEX
  5
cb
  8
Layer_0
  10
316.50818
  20
280.85036
  0
VERTEX
  5
cc
  8
Layer_0
  10
314.06964
  20
282.17437
  0
VERTEX
  5
cd
  8
Layer_0
  10
311.56519
  20
283.36893
  0
VERTEX
  5
ce
  8
Layer_0
  10
309.00165
  20
284.43078
  0
VERTEX
  5
cf
  8
Layer_0
  10
306.38605
  20
285.35701
  0
VERTEX
  5
d0
  8
Layer_0
  10
303.72559
  20
286.14509
  0
VERTEX
  5
d1
  8
Layer_0
  10
301.02747
  20
286.79284
  0
VERTEX
  5
d2
  8
Layer_0
  10
298.29919
  20
287.2985
  0
VERTEX
  5
d3
  8
Layer_0
  10
295.54816
  20
287.66068
  0
VERTEX
  5
d4
  8
Layer_0
  10
292.78198
  20
287.87838
  0
VERTEX
  5
d5
  8
Layer_0
  10
290.00818
  20
287.95102
  0
VERTEX
  5
d6
  8
Layer_0
  10
287.23434
  20
287.87838
  0
VERTEX
  5
d7
  8
Layer_0
  10
284.46814
  20
287.66068
  0
VERTEX
  5
d8
  8
Layer_0
  10
281.71713
  20
287.2985
  0
VERTEX
  5
d9
  8
Layer_0
  10
278.98883
  20
286.79284
  0
VERTEX
  5
da
  8
Layer_0
  10
276.29074
  20
286.14509
  0
VERTEX
  5
db
  8
Layer_0
  10
273.63025
  20
285.35701
  0
VERTEX
  5
dc
  8
Layer_0
  10
271.01465
  20
284.43078
  0
VERTEX
  5
dd
  8
Layer_0
  10
268.45111
  20
283.36893
  0
VERTEX
  5
de
  8
Layer_0
  10
265.94666
  20
282.17437
  0
VERTEX
  5
df
  8
Layer_0
  10
263.50815
  20
280.85036
  0
VERTEX
  5
e0
  8
Layer_0
  10
261.1423
  20
279.40056
  0
VERTEX
  5
e1
  8
Layer_0
  10
258.85553
  20
277.82892
  0
VERTEX
  5
e2
  8
Layer_0
  10
256.65417
  20
276.13976
  0
VERTEX
  5
e3
  8
Layer_0
  10
254.54424
  20
274.3377
  0
VERTEX
  5
e4
  8
Layer_0
  10
252.53149
  20
272.42768
  0
VERTEX
  5
e5
  8
Layer_0
  10
250.62149
  20
270.41494
  0
VERTEX
  5
e6
  8
Layer_0
  10
248.81943
  20
268.305
  0
VERTEX
  5
e7
  8
Layer_0
  10
247.13026
  20
266.10364
  0
VERTEX
  5
e8
  8
Layer_0
  10
245.55862
  20
263.81689
  0
VERTEX
  5
e9
  8
Layer_0
  10
244.10881
  20
261.45102
  0
VERTEX
  5
ea
  8
Layer_0
  10
242.78482
  20
259.01252
  0
VERTEX
  5
eb
  8
Layer_0
  10
241.59026
  20
256.50806
  0
VERTEX
  5
ec
  8
Layer_0
  10
241.45209
  20
256.17451
  0
VERTEX
  5
ed
  8
Layer_0
  10
241.04253
  20
255.55563
  0
VERTEX
  5
ee
  8
Layer_0
  10
240.5318
  20
255.0172
  0
VERTEX
  5
ef
  8
Layer_0
  10
239.93538
  20
254.57554
  0
VERTEX
  5
f0
  8
Layer_0
  10
239.27139
  20
254.24407
  0
VERTEX
  5
f1
  8
Layer_0
  10
238.55995
  20
254.03283
  0
VERTEX
  5
f2
  8
Layer_0
  10
237.82266
  20
253.94823
  0
VERTEX
  5
f3
  8
Layer_0
  10
217.70816
  20
253.95102
  0
VERTEX
  5
f4
  8
Layer_0
  10
217.05553
  20
253.90825
  0
VERTEX
  5
f5
  8
Layer_0
  10
216.41406
  20
253.78065
  0
VERTEX
  5
f6
  8
Layer_0
  10
215.79474
  20
253.57042
  0
VERTEX
  5
f7
  8
Layer_0
  10
215.20816
  20
253.28115
  0
VERTEX
  5
f8
  8
Layer_0
  10
214.66435
  20
252.91779
  0
VERTEX
  5
f9
  8
Layer_0
  10
214.17262
  20
252.48655
  0
VERTEX
  5
fa
  8
Layer_0
  10
213.74139
  20
251.99483
  0
VERTEX
  5
fb
  8
Layer_0
  10
213.37804
  20
251.45102
  0
VERTEX
  5
fc
  8
Layer_0
  10
213.08876
  20
250.86444
  0
VERTEX
  5
fd
  8
Layer_0
  10
212.87852
  20
250.24511
  0
VERTEX
  5
fe
  8
Layer_0
  10
212.75093
  20
249.60365
  0
VERTEX
  5
ff
  8
Layer_0
  10
212.70816
  20
248.95102
  0
VERTEX
  5
100
  8
Layer_0
  10
212.70816
  20
123.95102
  0
VERTEX
  5
101
  8
Layer_0
  10
212.75093
  20
123.29839
  0
VERTEX
  5
102
  8
Layer_0
  10
212.87852
  20
122.65692
  0
VERTEX
  5
103
  8
Layer_0
  10
213.08876
  20
122.0376
  0
VERTEX
  5
104
  8
Layer_0
  10
213.37804
  20
121.45102
  0
VERTEX
  5
105
  8
Layer_0
  10
213.74139
  20
120.90721
  0
VERTEX
  5
106
  8
Layer_0
  10
214.17262
  20
120.41548
  0
VERTEX
  5
107
  8
Layer_0
  10
214.66435
  20
119.98425
  0
VERTEX
  5
108
  8
Layer_0
  10
215.20816
  20
119.6209
  0
VERTEX
  5
109
  8
Layer_0
  10
215.79474
  20
119.33162
  0
VERTEX
  5
10a
  8
Layer_0
  10
216.41406
  20
119.12138
  0
VERTEX
  5
10b
  8
Layer_0
  10
217.05553
  20
118.99379
  0
VERTEX
  5
10c
  8
Layer_0
  10
217.70816
  20
118.95102
  0
VERTEX
  5
10d
  8
Layer_0
  10
237.82266
  20
118.95381
  0
VERTEX
  5
10e
  8
Layer_0
  10
238.55995
  20
118.86922
  0
VERTEX
  5
10f
  8
Layer_0
  10
239.27139
  20
118.65797
  0
VERTEX
  5
110
  8
Layer_0
  10
239.93538
  20
118.32649
  0
VERTEX
  5
111
  8
Layer_0
  10
240.5318
  20
117.88484
  0
VERTEX
  5
112
  8
Layer_0
  10
241.04253
  20
117.34641
  0
VERTEX
  5
113
  8
Layer_0
  10
241.45209
  20
116.72752
  0
VERTEX
  5
114
  8
Layer_0
  10
241.59026
  20
116.39398
  0
VERTEX
  5
115
  8
Layer_0
  10
242.78482
  20
113.88953
  0
VERTEX
  5
116
  8
Layer_0
  10
244.10881
  20
111.45102
  0
VERTEX
  5
117
  8
Layer_0
  10
245.55862
  20
109.08514
  0
VERTEX
  5
118
  8
Layer_0
  10
247.13026
  20
106.7984
  0
VERTEX
  5
119
  8
Layer_0
  10
248.81943
  20
104.59705
  0
VERTEX
  5
11a
  8
Layer_0
  10
250.62149
  20
102.48709
  0
VERTEX
  5
11b
  8
Layer_0
  10
252.53149
  20
100.47437
  0
VERTEX
  5
11c
  8
Layer_0
  10
254.54424
  20
98.564346
  0
VERTEX
  5
11d
  8
Layer_0
  10
256.65417
  20
96.762283
  0
VERTEX
  5
11e
  8
Layer_0
  10
258.85553
  20
95.07312
  0
VERTEX
  5
11f
  8
Layer_0
  10
261.1423
  20
93.50148
  0
VERTEX
  5
120
  8
Layer_0
  10
263.50815
  20
92.051666
  0
VERTEX
  5
121
  8
Layer_0
  10
265.94666
  20
90.727676
  0
VERTEX
  5
122
  8
Layer_0
  10
268.45111
  20
89.533112
  0
VERTEX
  5
123
  8
Layer_0
  10
271.01465
  20
88.471252
  0
VERTEX
  5
124
  8
Layer_0
  10
273.63025
  20
87.545029
  0
VERTEX
  5
125
  8
Layer_0
  10
276.29074
  20
86.756958
  0
VERTEX
  5
126
  8
Layer_0
  10
278.98883
  20
86.109192
  0
VERTEX
  5
127
  8
Layer_0
  10
281.71713
  20
85.603531
  0
VERTEX
  5
128
  8
Layer_0
  10
284.46814
  20
85.241364
  0
VERTEX
  5
129
  8
Layer_0
  10
287.23434
  20
85.023651
  0
VERTEX
  5
12a
  8
Layer_0
  10
290.00818
  20
84.951019
  0
VERTEX
  5
12b
  8
Layer_0
  10
292.78198
  20
85.023651
  0
VERTEX
  5
12c
  8
Layer_0
  10
295.54816
  20
85.241364
  0
VERTEX
  5
12d
  8
Layer_0
  10
298.29919
  20
85.603531
  0
VERTEX
  5
12e
  8
Layer_0
  10
301.02747
  20
86.109192
  0
VERTEX
  5
12f
  8
Layer_0
  10
303.72559
  20
86.756958
  0
VERTEX
  5
130
  8
Layer_0
  10
306.38605
  20
87.545029
  0
VERTEX
  5
131
  8
Layer_0
  10
309.00165
  20
88.471252
  0
VERTEX
  5
132
  8
Layer_0
  10
311.56519
  20
89.533112
  0
VERTEX
  5
133
  8
Layer_0
  10
314.06964
  20
90.727676
  0
VERTEX
  5
134
  8
Layer_0
  10
316.50818
  20
92.051666
  0
VERTEX
  5
135
  8
Layer_0
  10
318.87402
  20
93.50148
  0
VERTEX
  5
136
  8
Layer_0
  10
321.16077
  20
95.07312
  0
VERTEX
  5
137
  8
Layer_0
  10
323.36215
  20
96.762283
  0
VERTEX
  5
138
  8
Layer_0
  10
325.47208
  20
98.564346
  0
VERTEX
  5
139
  8
Layer_0
  10
327.4848
  20
100.47437
  0
VERTEX
  5
13a
  8
Layer_0
  10
329.39484
  20
102.48709
  0
VERTEX
  5
13b
  8
Layer_0
  10
331.1969
  20
104.59705
  0
VERTEX
  5
13c
  8
Layer_0
  10
332.88605
  20
106.7984
  0
VERTEX
  5
13d
  8
Layer_0
  10
334.4577
  20
109.08514
  0
VERTEX
  5
13e
  8
Layer_0
  10
335.9075
  20
111.45102
  0
VERTEX
  5
13f
  8
Layer_0
  10
337.23151
  20
113.88953
  0
VERTEX
  5
140
  8
Layer_0
  10
338.42609
  20
116.39398
  0
VERTEX
  5
141
  8
Layer_0
  10
339.48792
  20
118.95752
  0
VERTEX
  5
142
  8
Layer_0
  10
340.41415
  20
121.57312
  0
VERTEX
  5
143
  8
Layer_0
  10
341.20221
  20
124.23361
  0
VERTEX
  5
144
  8
Layer_0
  10
341.84998
  20
126.9317
  0
VERTEX
  5
145
  8
Layer_0
  10
342.35565
  20
129.65999
  0
VERTEX
  5
146
  8
Layer_0
  10
342.71783
  20
132.41101
  0
VERTEX
  5
147
  8
Layer_0
  10
342.93555
  20
135.17722
  0
SEQEND
  0
POLYLINE
  5
149
  8
Layer_0
  62
0
  66
1
  10
0
  20
0
  30
0
  0
VERTEX
  5
149
  8
Layer_0
  10
332.08887
  20
165.92661
  0
VERTEX
  5
14a
  8
Layer_0
  10
332.44489
  20
165.50977
  0
VERTEX
  5
14b
  8
Layer_0
  10
332.68091
  20
165.01495
  0
VERTEX
  5
14c
  8
Layer_0
  10
332.78082
  20
164.47592
  0
VERTEX
  5
14d
  8
Layer_0
  10
332.73779
  20
163.9294
  0
VERTEX
  5
14e
  8
Layer_0
  10
332.55481
  20
163.41263
  0
VERTEX
  5
14f
  8
Layer_0
  10
332.24429
  20
162.96085
  0
VERTEX
  5
150
  8
Layer_0
  10
331.82742
  20
162.6048
  0
VERTEX
  5
151
  8
Layer_0
  10
331.33261
  20
162.3688
  0
VERTEX
  5
152
  8
Layer_0
  10
330.79358
  20
162.26889
  0
VERTEX
  5
153
  8
Layer_0
  10
330.24707
  20
162.3119
  0
VERTEX
  5
154
  8
Layer_0
  10
329.73029
  20
162.4949
  0
VERTEX
  5
155
  8
Layer_0
  10
329.2785
  20
162.8054
  0
VERTEX
  5
156
  8
Layer_0
  10
328.92249
  20
163.22226
  0
VERTEX
  5
157
  8
Layer_0
  10
328.68646
  20
163.71707
  0
VERTEX
  5
158
  8
Layer_0
  10
328.58655
  20
164.2561
  0
VERTEX
  5
159
  8
Layer_0
  10
328.62958
  20
164.80263
  0
VERTEX
  5
15a
  8
Layer_0
  10
328.81256
  20
165.3194
  0
VERTEX
  5
15b
  8
Layer_0
  10
329.12308
  20
165.77118
  0
VERTEX
  5
15c
  8
Layer_0
  10
329.53995
  20
166.12723
  0
VERTEX
  5
15d
  8
Layer_0
  10
330.03473
  20
166.36322
  0
VERTEX
  5
15e
  8
Layer_0
  10
330.57379
  20
166.46313
  0
VERTEX
  5
15f
  8
Layer_0
  10
331.1203
  20
166.42012
  0
VERTEX
  5
160
  8
Layer_0
  10
331.63705
  20
166.23712
  0
VERTEX
  5
161
  8
Layer_0
  10
332.08887
  20
165.92661
  0
SEQEND
  0
POLYLINE
  5
163
  8
Layer_0
  62
0
  66
1
  10
0
  20
0
  30
0
  0
VERTEX
  5
163
  8
Layer_0
  10
332.44489
  20
262.50975
  0
VERTEX
  5
164
  8
Layer_0
  10
332.68091
  20
262.01495
  0
VERTEX
  5
165
  8
Layer_0
  10
332.78082
  20
261.47592
  0
VERTEX
  5
166
  8
Layer_0
  10
332.73779
  20
260.9294
  0
VERTEX
  5
167
  8
Layer_0
  10
332.55481
  20
260.41263
  0
VERTEX
  5
168
  8
Layer_0
  10
332.24429
  20
259.96084
  0
VERTEX
  5
169
  8
Layer_0
  10
331.82742
  20
259.6048
  0
VERTEX
  5
16a
  8
Layer_0
  10
331.33261
  20
259.36879
  0
VERTEX
  5
16b
  8
Layer_0
  10
330.79358
  20
259.26889
  0
VERTEX
  5
16c
  8
Layer_0
  10
330.24707
  20
259.3119
  0
VERTEX
  5
16d
  8
Layer_0
  10
329.73029
  20
259.4949
  0
VERTEX
  5
16e
  8
Layer_0
  10
329.2785
  20
259.80541
  0
VERTEX
  5
16f
  8
Layer_0
  10
328.92249
  20
260.22227
  0
VERTEX
  5
170
  8
Layer_0
  10
328.68646
  20
260.71708
  0
VERTEX
  5
171
  8
Layer_0
  10
328.58655
  20
261.25611
  0
VERTEX
  5
172
  8
Layer_0
  10
328.62958
  20
261.80263
  0
VERTEX
  5
173
  8
Layer_0
  10
328.81256
  20
262.31939
  0
VERTEX
  5
174
  8
Layer_0
  10
329.12308
  20
262.77119
  0
VERTEX
  5
175
  8
Layer_0
  10
329.53995
  20
263.12722
  0
VERTEX
  5
176
  8
Layer_0
  10
330.03473
  20
263.36323
  0
VERTEX
  5
177
  8
Layer_0
  10
330.57379
  20
263.46313
  0
VERTEX
  5
178
  8
Layer_0
  10
331.1203
  20
263.42012
  0
VERTEX
  5
179
  8
Layer_0
  10
331.63705
  20
263.23713
  0
VERTEX
  5
17a
  8
Layer_0
  10
332.08887
  20
262.92662
  0
VERTEX
  5
17b
  8
Layer_0
  10
332.44489
  20
262.50975
  0
SEQEND
  0
POLYLINE
  5
17d
  8
Layer_0
  62
0
  66
1
  10
0
  20
0
  30
0
  0
VERTEX
  5
17d
  8
Layer_0
  10
291.82681
  20
284.50102
  0
VERTEX
  5
17e
  8
Layer_0
  10
292.03662
  20
283.99454
  0
VERTEX
  5
17f
  8
Layer_0
  10
292.10815
  20
283.45102
  0
VERTEX
  5
180
  8
Layer_0
  10
292.03662
  20
282.9075
  0
VERTEX
  5
181
  8
Layer_0
  10
291.82681
  20
282.40102
  0
VERTEX
  5
182
  8
Layer_0
  10
291.4931
  20
281.96609
  0
VERTEX
  5
183
  8
Layer_0
  10
291.05817
  20
281.63237
  0
VERTEX
  5
184
  8
Layer_0
  10
290.5517
  20
281.42257
  0
VERTEX
  5
185
  8
Layer_0
  10
290.00818
  20
281.35102
  0
VERTEX
  5
186
  8
Layer_0
  10
289.46463
  20
281.42257
  0
VERTEX
  5
187
  8
Layer_0
  10
288.95816
  20
281.63237
  0
VERTEX
  5
188
  8
Layer_0
  10
288.52325
  20
281.96609
  0
VERTEX
  5
189
  8
Layer_0
  10
288.18951
  20
282.40102
  0
VERTEX
  5
18a
  8
Layer_0
  10
287.97971
  20
282.9075
  0
VERTEX
  5
18b
  8
Layer_0
  10
287.90814
  20
283.45102
  0
VERTEX
  5
18c
  8
Layer_0
  10
287.97971
  20
283.99454
  0
VERTEX
  5
18d
  8
Layer_0
  10
288.18951
  20
284.50102
  0
VERTEX
  5
18e
  8
Layer_0
  10
288.52325
  20
284.93594
  0
VERTEX
  5
18f
  8
Layer_0
  10
288.95816
  20
285.26967
  0
VERTEX
  5
190
  8
Layer_0
  10
289.46463
  20
285.47946
  0
VERTEX
  5
191
  8
Layer_0
  10
290.00818
  20
285.55102
  0
VERTEX
  5
192
  8
Layer_0
  10
290.5517
  20
285.47946
  0
VERTEX
  5
193
  8
Layer_0
  10
291.05817
  20
285.26967
  0
VERTEX
  5
194
  8
Layer_0
  10
291.4931
  20
284.93594
  0
VERTEX
  5
195
  8
Layer_0
  10
291.82681
  20
284.50102
  0
SEQEND
  0
POLYLINE
  5
197
  8
Layer_0
  62
0
  66
1
  10
0
  20
0
  30
0
  0
VERTEX
  5
197
  8
Layer_0
  10
250.89325
  20
262.77119
  0
VERTEX
  5
198
  8
Layer_0
  10
251.20375
  20
262.31939
  0
VERTEX
  5
199
  8
Layer_0
  10
251.38675
  20
261.80263
  0
VERTEX
  5
19a
  8
Layer_0
  10
251.42976
  20
261.25611
  0
VERTEX
  5
19b
  8
Layer_0
  10
251.32986
  20
260.71708
  0
VERTEX
  5
19c
  8
Layer_0
  10
251.09384
  20
260.22227
  0
VERTEX
  5
19d
  8
Layer_0
  10
250.73781
  20
259.80541
  0
VERTEX
  5
19e
  8
Layer_0
  10
250.28601
  20
259.4949
  0
VERTEX
  5
19f
  8
Layer_0
  10
249.76926
  20
259.3119
  0
VERTEX
  5
1a0
  8
Layer_0
  10
249.22273
  20
259.26889
  0
VERTEX
  5
1a1
  8
Layer_0
  10
248.6837
  20
259.36879
  0
VERTEX
  5
1a2
  8
Layer_0
  10
248.1889
  20
259.6048
  0
VERTEX
  5
1a3
  8
Layer_0
  10
247.77203
  20
259.96084
  0
VERTEX
  5
1a4
  8
Layer_0
  10
247.46152
  20
260.41263
  0
VERTEX
  5
1a5
  8
Layer_0
  10
247.27853
  20
260.9294
  0
VERTEX
  5
1a6
  8
Layer_0
  10
247.23552
  20
261.47592
  0
VERTEX
  5
1a7
  8
Layer_0
  10
247.33542
  20
262.01495
  0
VERTEX
  5
1a8
  8
Layer_0
  10
247.57143
  20
262.50975
  0
VERTEX
  5
1a9
  8
Layer_0
  10
247.92746
  20
262.92662
  0
VERTEX
  5
1aa
  8
Layer_0
  10
248.37926
  20
263.23713
  0
VERTEX
  5
1ab
  8
Layer_0
  10
248.89603
  20
263.42012
  0
VERTEX
  5
1ac
  8
Layer_0
  10
249.44254
  20
263.46313
  0
VERTEX
  5
1ad
  8
Layer_0
  10
249.98157
  20
263.36323
  0
VERTEX
  5
1ae
  8
Layer_0
  10
250.47638
  20
263.12722
  0
VERTEX
  5
1af
  8
Layer_0
  10
250.89325
  20
262.77119
  0
SEQEND
  0
POLYLINE
  5
1b1
  8
Layer_0
  62
0
  66
1
  10
0
  20
0
  30
0
  0
VERTEX
  5
1b1
  8
Layer_0
  10
251.09384
  20
209.67977
  0
VERTEX
  5
1b2
  8
Layer_0
  10
251.32986
  20
209.18496
  0
VERTEX
  5
1b3
  8
Layer_0
  10
251.42976
  20
208.64594
  0
VERTEX
  5
1b4
  8
Layer_0
  10
251.38675
  20
208.09941
  0
VERTEX
  5
1b5
  8
Layer_0
  10
251.20375
  20
207.58265
  0
VERTEX
  5
1b6
  8
Layer_0
  10
250.89325
  20
207.13085
  0
VERTEX
  5
1b7
  8
Layer_0
  10
250.47638
  20
206.77482
  0
VERTEX
  5
1b8
  8
Layer_0
  10
249.98157
  20
206.53881
  0
VERTEX
  5
1b9
  8
Layer_0
  10
249.44254
  20
206.4389
  0
VERTEX
  5
1ba
  8
Layer_0
  10
248.89603
  20
206.48192
  0
VERTEX
  5
1bb
  8
Layer_0
  10
248.37926
  20
206.66491
  0
VERTEX
  5
1bc
  8
Layer_0
  10
247.92746
  20
206.97543
  0
VERTEX
  5
1bd
  8
Layer_0
  10
247.57143
  20
207.39228
  0
VERTEX
  5
1be
  8
Layer_0
  10
247.33542
  20
207.88709
  0
VERTEX
  5
1bf
  8
Layer_0
  10
247.23552
  20
208.42612
  0
VERTEX
  5
1c0
  8
Layer_0
  10
247.27853
  20
208.97264
  0
VERTEX
  5
1c1
  8
Layer_0
  10
247.46152
  20
209.4894
  0
VERTEX
  5
1c2
  8
Layer_0
  10
247.77203
  20
209.9412
  0
VERTEX
  5
1c3
  8
Layer_0
  10
248.1889
  20
210.29723
  0
VERTEX
  5
1c4
  8
Layer_0
  10
248.6837
  20
210.53324
  0
VERTEX
  5
1c5
  8
Layer_0
  10
249.22273
  20
210.63315
  0
VERTEX
  5
1c6
  8
Layer_0
  10
249.76926
  20
210.59013
  0
VERTEX
  5
1c7
  8
Layer_0
  10
250.28601
  20
210.40714
  0
VERTEX
  5
1c8
  8
Layer_0
  10
250.73781
  20
210.09663
  0
VERTEX
  5
1c9
  8
Layer_0
  10
251.09384
  20
209.67977
  0
SEQEND
  0
POLYLINE
  5
1cb
  8
Layer_0
  62
0
  66
1
  10
0
  20
0
  30
0
  0
VERTEX
  5
1cb
  8
Layer_0
  10
250.89325
  20
165.77118
  0
VERTEX
  5
1cc
  8
Layer_0
  10
251.20375
  20
165.3194
  0
VERTEX
  5
1cd
  8
Layer_0
  10
251.38675
  20
164.80263
  0
VERTEX
  5
1ce
  8
Layer_0
  10
251.42976
  20
164.2561
  0
VERTEX
  5
1cf
  8
Layer_0
  10
251.32986
  20
163.71707
  0
VERTEX
  5
1d0
  8
Layer_0
  10
251.09384
  20
163.22226
  0
VERTEX
  5
1d1
  8
Layer_0
  10
250.73781
  20
162.8054
  0
VERTEX
  5
1d2
  8
Layer_0
  10
250.28601
  20
162.4949
  0
VERTEX
  5
1d3
  8
Layer_0
  10
249.76926
  20
162.3119
  0
VERTEX
  5
1d4
  8
Layer_0
  10
249.22273
  20
162.26889
  0
VERTEX
  5
1d5
  8
Layer_0
  10
248.6837
  20
162.3688
  0
VERTEX
  5
1d6
  8
Layer_0
  10
248.1889
  20
162.6048
  0
VERTEX
  5
1d7
  8
Layer_0
  10
247.77203
  20
162.96085
  0
VERTEX
  5
1d8
  8
Layer_0
  10
247.46152
  20
163.41263
  0
VERTEX
  5
1d9
  8
Layer_0
  10
247.27853
  20
163.9294
  0
VERTEX
  5
1da
  8
Layer_0
  10
247.23552
  20
164.47592
  0
VERTEX
  5
1db
  8
Layer_0
  10
247.33542
  20
165.01495
  0
VERTEX
  5
1dc
  8
Layer_0
  10
247.57143
  20
165.50977
  0
VERTEX
  5
1dd
  8
Layer_0
  10
247.92746
  20
165.92661
  0
VERTEX
  5
1de
  8
Layer_0
  10
248.37926
  20
166.23712
  0
VERTEX
  5
1df
  8
Layer_0
  10
248.89603
  20
166.42012
  0
VERTEX
  5
1e0
  8
Layer_0
  10
249.44254
  20
166.46313
  0
VERTEX
  5
1e1
  8
Layer_0
  10
249.98157
  20
166.36322
  0
VERTEX
  5
1e2
  8
Layer_0
  10
250.47638
  20
166.12723
  0
VERTEX
  5
1e3
  8
Layer_0
  10
250.89325
  20
165.77118
  0
SEQEND
  0
POLYLINE
  5
1e5
  8
Layer_0
  62
0
  66
1
  10
0
  20
0
  30
0
  0
VERTEX
  5
1e5
  8
Layer_0
  10
250.73781
  20
113.09663
  0
VERTEX
  5
1e6
  8
Layer_0
  10
251.09384
  20
112.67976
  0
VERTEX
  5
1e7
  8
Layer_0
  10
251.32986
  20
112.18497
  0
VERTEX
  5
1e8
  8
Layer_0
  10
251.42976
  20
111.64594
  0
VERTEX
  5
1e9
  8
Layer_0
  10
251.38675
  20
111.09941
  0
VERTEX
  5
1ea
  8
Layer_0
  10
251.20375
  20
110.58264
  0
VERTEX
  5
1eb
  8
Layer_0
  10
250.89325
  20
110.13086
  0
VERTEX
  5
1ec
  8
Layer_0
  10
250.47638
  20
109.77481
  0
VERTEX
  5
1ed
  8
Layer_0
  10
249.98157
  20
109.5388
  0
VERTEX
  5
1ee
  8
Layer_0
  10
249.44254
  20
109.4389
  0
VERTEX
  5
1ef
  8
Layer_0
  10
248.89603
  20
109.48192
  0
VERTEX
  5
1f0
  8
Layer_0
  10
248.37926
  20
109.66492
  0
VERTEX
  5
1f1
  8
Layer_0
  10
247.92746
  20
109.97542
  0
VERTEX
  5
1f2
  8
Layer_0
  10
247.57143
  20
110.39229
  0
VERTEX
  5
1f3
  8
Layer_0
  10
247.33542
  20
110.88708
  0
VERTEX
  5
1f4
  8
Layer_0
  10
247.23552
  20
111.42612
  0
VERTEX
  5
1f5
  8
Layer_0
  10
247.27853
  20
111.97264
  0
VERTEX
  5
1f6
  8
Layer_0
  10
247.46152
  20
112.48941
  0
VERTEX
  5
1f7
  8
Layer_0
  10
247.77203
  20
112.94121
  0
VERTEX
  5
1f8
  8
Layer_0
  10
248.1889
  20
113.29724
  0
VERTEX
  5
1f9
  8
Layer_0
  10
248.6837
  20
113.53325
  0
VERTEX
  5
1fa
  8
Layer_0
  10
249.22273
  20
113.63315
  0
VERTEX
  5
1fb
  8
Layer_0
  10
249.76926
  20
113.59013
  0
VERTEX
  5
1fc
  8
Layer_0
  10
250.28601
  20
113.40714
  0
VERTEX
  5
1fd
  8
Layer_0
  10
250.73781
  20
113.09663
  0
SEQEND
  0
POLYLINE
  5
1ff
  8
Layer_0
  62
0
  66
1
  10
0
  20
0
  30
0
  0
VERTEX
  5
1ff
  8
Layer_0
  10
291.4931
  20
90.935944
  0
VERTEX
  5
200
  8
Layer_0
  10
291.82681
  20
90.501022
  0
VERTEX
  5
201
  8
Layer_0
  10
292.03662
  20
89.994537
  0
VERTEX
  5
202
  8
Layer_0
  10
292.10815
  20
89.451019
  0
VERTEX
  5
203
  8
Layer_0
  10
292.03662
  20
88.907501
  0
VERTEX
  5
204
  8
Layer_0
  10
291.82681
  20
88.401016
  0
VERTEX
  5
205
  8
Layer_0
  10
291.4931
  20
87.966095
  0
VERTEX
  5
206
  8
Layer_0
  10
291.05817
  20
87.63237
  0
VERTEX
  5
207
  8
Layer_0
  10
290.5517
  20
87.422577
  0
VERTEX
  5
208
  8
Layer_0
  10
290.00818
  20
87.351013
  0
VERTEX
  5
209
  8
Layer_0
  10
289.46463
  20
87.422577
  0
VERTEX
  5
20a
  8
Layer_0
  10
288.95816
  20
87.63237
  0
VERTEX
  5
20b
  8
Layer_0
  10
288.52325
  20
87.966095
  0
VERTEX
  5
20c
  8
Layer_0
  10
288.18951
  20
88.401016
  0
VERTEX
  5
20d
  8
Layer_0
  10
287.97971
  20
88.907501
  0
VERTEX
  5
20e
  8
Layer_0
  10
287.90814
  20
89.451019
  0
VERTEX
  5
20f
  8
Layer_0
  10
287.97971
  20
89.994537
  0
VERTEX
  5
210
  8
Layer_0
  10
288.18951
  20
90.501022
  0
VERTEX
  5
211
  8
Layer_0
  10
288.52325
  20
90.935944
  0
VERTEX
  5
212
  8
Layer_0
  10
288.95816
  20
91.269669
  0
VERTEX
  5
213
  8
Layer_0
  10
289.46463
  20
91.479462
  0
VERTEX
  5
214
  8
Layer_0
  10
290.00818
  20
91.551025
  0
VERTEX
  5
215
  8
Layer_0
  10
290.5517
  20
91.479462
  0
VERTEX
  5
216
  8
Layer_0
  10
291.05817
  20
91.269669
  0
VERTEX
  5
217
  8
Layer_0
  10
291.4931
  20
90.935944
  0
SEQEND
  0
POLYLINE
  5
219
  8
Layer_0
  62
0
  66
1
  10
0
  20
0
  30
0
  0
VERTEX
  5
219
  8
Layer_0
  10
332.24429
  20
112.94121
  0
VERTEX
  5
21a
  8
Layer_0
  10
332.55481
  20
112.48941
  0
VERTEX
  5
21b
  8
Layer_0
  10
332.73779
  20
111.97264
  0
VERTEX
  5
21c
  8
Layer_0
  10
332.78082
  20
111.42612
  0
VERTEX
  5
21d
  8
Layer_0
  10
332.68091
  20
110.88708
  0
VERTEX
  5
21e
  8
Layer_0
  10
332.44489
  20
110.39229
  0
VERTEX
  5
21f
  8
Layer_0
  10
332.08887
  20
109.97542
  0
VERTEX
  5
220
  8
Layer_0
  10
331.63705
  20
109.66492
  0
VERTEX
  5
221
  8
Layer_0
  10
331.1203
  20
109.48192
  0
VERTEX
  5
222
  8
Layer_0
  10
330.57379
  20
109.4389
  0
VERTEX
  5
223
  8
Layer_0
  10
330.03473
  20
109.5388
  0
VERTEX
  5
224
  8
Layer_0
  10
329.53995
  20
109.77481
  0
VERTEX
  5
225
  8
Layer_0
  10
329.12308
  20
110.13086
  0
VERTEX
  5
226
  8
Layer_0
  10
328.81256
  20
110.58264
  0
VERTEX
  5
227
  8
Layer_0
  10
328.62958
  20
111.09941
  0
VERTEX
  5
228
  8
Layer_0
  10
328.58655
  20
111.64594
  0
VERTEX
  5
229
  8
Layer_0
  10
328.68646
  20
112.18497
  0
VERTEX
  5
22a
  8
Layer_0
  10
328.92249
  20
112.67976
  0
VERTEX
  5
22b
  8
Layer_0
  10
329.2785
  20
113.09663
  0
VERTEX
  5
22c
  8
Layer_0
  10
329.73029
  20
113.40714
  0
VERTEX
  5
22d
  8
Layer_0
  10
330.24707
  20
113.59013
  0
VERTEX
  5
22e
  8
Layer_0
  10
330.79358
  20
113.63315
  0
VERTEX
  5
22f
  8
Layer_0
  10
331.33261
  20
113.53325
  0
VERTEX
  5
230
  8
Layer_0
  10
331.82742
  20
113.29724
  0
VERTEX
  5
231
  8
Layer_0
  10
332.24429
  20
112.94121
  0
SEQEND
  0
POLYLINE
  5
233
  8
Layer_0
  62
0
  66
1
  10
0
  20
0
  30
0
  0
VERTEX
  5
233
  8
Layer_0
  10
332.24429
  20
209.9412
  0
VERTEX
  5
234
  8
Layer_0
  10
332.55481
  20
209.4894
  0
VERTEX
  5
235
  8
Layer_0
  10
332.73779
  20
208.97264
  0
VERTEX
  5
236
  8
Layer_0
  10
332.78082
  20
208.42612
  0
VERTEX
  5
237
  8
Layer_0
  10
332.68091
  20
207.88709
  0
VERTEX
  5
238
  8
Layer_0
  10
332.44489
  20
207.39228
  0
VERTEX
  5
239
  8
Layer_0
  10
332.08887
  20
206.97543
  0
VERTEX
  5
23a
  8
Layer_0
  10
331.63705
  20
206.66491
  0
VERTEX
  5
23b
  8
Layer_0
  10
331.1203
  20
206.48192
  0
VERTEX
  5
23c
  8
Layer_0
  10
330.57379
  20
206.4389
  0
VERTEX
  5
23d
  8
Layer_0
  10
330.03473
  20
206.53881
  0
VERTEX
  5
23e
  8
Layer_0
  10
329.53995
  20
206.77482
  0
VERTEX
  5
23f
  8
Layer_0
  10
329.12308
  20
207.13085
  0
VERTEX
  5
240
  8
Layer_0
  10
328.81256
  20
207.58265
  0
VERTEX
  5
241
  8
Layer_0
  10
328.62958
  20
208.09941
  0
VERTEX
  5
242
  8
Layer_0
  10
328.58655
  20
208.64594
  0
VERTEX
  5
243
  8
Layer_0
  10
328.68646
  20
209.18496
  0
VERTEX
  5
244
  8
Layer_0
  10
328.92249
  20
209.67977
  0
VERTEX
  5
245
  8
Layer_0
  10
329.2785
  20
210.09663
  0
VERTEX
  5
246
  8
Layer_0
  10
329.73029
  20
210.40714
  0
VERTEX
  5
247
  8
Layer_0
  10
330.24707
  20
210.59013
  0
VERTEX
  5
248
  8
Layer_0
  10
330.79358
  20
210.63315
  0
VERTEX
  5
249
  8
Layer_0
  10
331.33261
  20
210.53324
  0
VERTEX
  5
24a
  8
Layer_0
  10
331.82742
  20
210.29723
  0
VERTEX
  5
24b
  8
Layer_0
  10
332.24429
  20
209.9412
  0
SEQEND
  0
POLYLINE
  5
24d
  8
Layer_0
  62
0
  66
1
  10
0
  20
0
  30
0
  0
VERTEX
  5
24d
  8
Layer_0
  10
288.18951
  20
187.50102
  0
VERTEX
  5
24e
  8
Layer_0
  10
288.52325
  20
187.93594
  0
VERTEX
  5
24f
  8
Layer_0
  10
288.95816
  20
188.26968
  0
VERTEX
  5
250
  8
Layer_0
  10
289.46463
  20
188.47946
  0
VERTEX
  5
251
  8
Layer_0
  10
290.00818
  20
188.55102
  0
VERTEX
  5
252
  8
Layer_0
  10
290.5517
  20
188.47946
  0
VERTEX
  5
253
  8
Layer_0
  10
291.05817
  20
188.26968
  0
VERTEX
  5
254
  8
Layer_0
  10
291.4931
  20
187.93594
  0
VERTEX
  5
255
  8
Layer_0
  10
291.82681
  20
187.50102
  0
VERTEX
  5
256
  8
Layer_0
  10
292.03662
  20
186.99454
  0
VERTEX
  5
257
  8
Layer_0
  10
292.10815
  20
186.45102
  0
VERTEX
  5
258
  8
Layer_0
  10
292.03662
  20
185.9075
  0
VERTEX
  5
259
  8
Layer_0
  10
291.82681
  20
185.40102
  0
VERTEX
  5
25a
  8
Layer_0
  10
291.4931
  20
184.96609
  0
VERTEX
  5
25b
  8
Layer_0
  10
291.05817
  20
184.63236
  0
VERTEX
  5
25c
  8
Layer_0
  10
290.5517
  20
184.42258
  0
VERTEX
  5
25d
  8
Layer_0
  10
290.00818
  20
184.35102
  0
VERTEX
  5
25e
  8
Layer_0
  10
289.46463
  20
184.42258
  0
VERTEX
  5
25f
  8
Layer_0
  10
288.95816
  20
184.63236
  0
VERTEX
  5
260
  8
Layer_0
  10
288.52325
  20
184.96609
  0
VERTEX
  5
261
  8
Layer_0
  10
288.18951
  20
185.40102
  0
VERTEX
  5
262
  8
Layer_0
  10
287.97971
  20
185.9075
  0
VERTEX
  5
263
  8
Layer_0
  10
287.90814
  20
186.45102
  0
VERTEX
  5
264
  8
Layer_0
  10
287.97971
  20
186.99454
  0
VERTEX
  5
265
  8
Layer_0
  10
288.18951
  20
187.50102
  0
SEQEND
  0
POLYLINE
  5
267
  8
Layer_0
  62
0
  66
1
  10
0
  20
0
  30
0
  0
VERTEX
  5
267
  8
Layer_0
  10
265.47156
  20
113.41441
  0
VERTEX
  5
268
  8
Layer_0
  10
264.22104
  20
114.73219
  0
VERTEX
  5
269
  8
Layer_0
  10
263.0412
  20
116.1136
  0
VERTEX
  5
26a
  8
Layer_0
  10
261.93527
  20
117.55487
  0
VERTEX
  5
26b
  8
Layer_0
  10
260.90628
  20
119.05205
  0
VERTEX
  5
26c
  8
Layer_0
  10
259.95709
  20
120.60101
  0
VERTEX
  5
26d
  8
Layer_0
  10
259.09024
  20
122.19756
  0
VERTEX
  5
26e
  8
Layer_0
  10
258.30814
  20
123.83727
  0
VERTEX
  5
26f
  8
Layer_0
  10
257.61292
  20
125.51566
  0
VERTEX
  5
270
  8
Layer_0
  10
257.0065
  20
127.22813
  0
VERTEX
  5
271
  8
Layer_0
  10
256.49054
  20
128.97
  0
VERTEX
  5
272
  8
Layer_0
  10
256.06644
  20
130.73648
  0
VERTEX
  5
273
  8
Layer_0
  10
255.73538
  20
132.52275
  0
VERTEX
  5
274
  8
Layer_0
  10
255.49825
  20
134.32388
  0
VERTEX
  5
275
  8
Layer_0
  10
255.35571
  20
136.13496
  0
VERTEX
  5
276
  8
Layer_0
  10
255.30817
  20
137.95102
  0
VERTEX
  5
277
  8
Layer_0
  10
255.35571
  20
139.76707
  0
VERTEX
  5
278
  8
Layer_0
  10
255.49825
  20
141.57816
  0
VERTEX
  5
279
  8
Layer_0
  10
255.73538
  20
143.37929
  0
VERTEX
  5
27a
  8
Layer_0
  10
256.06644
  20
145.16556
  0
VERTEX
  5
27b
  8
Layer_0
  10
256.49054
  20
146.93204
  0
VERTEX
  5
27c
  8
Layer_0
  10
257.0065
  20
148.6739
  0
VERTEX
  5
27d
  8
Layer_0
  10
257.61292
  20
150.38638
  0
VERTEX
  5
27e
  8
Layer_0
  10
258.30814
  20
152.06477
  0
VERTEX
  5
27f
  8
Layer_0
  10
259.09024
  20
153.70448
  0
VERTEX
  5
280
  8
Layer_0
  10
259.95709
  20
155.30103
  0
VERTEX
  5
281
  8
Layer_0
  10
260.90628
  20
156.84999
  0
VERTEX
  5
282
  8
Layer_0
  10
261.93527
  20
158.34717
  0
VERTEX
  5
283
  8
Layer_0
  10
263.0412
  20
159.78844
  0
VERTEX
  5
284
  8
Layer_0
  10
264.22104
  20
161.16986
  0
VERTEX
  5
285
  8
Layer_0
  10
265.47156
  20
162.48763
  0
VERTEX
  5
286
  8
Layer_0
  10
266.78934
  20
163.73814
  0
VERTEX
  5
287
  8
Layer_0
  10
268.17075
  20
164.91798
  0
VERTEX
  5
288
  8
Layer_0
  10
269.612
  20
166.02391
  0
VERTEX
  5
289
  8
Layer_0
  10
271.10919
  20
167.05289
  0
VERTEX
  5
28a
  8
Layer_0
  10
272.65817
  20
168.00211
  0
VERTEX
  5
28b
  8
Layer_0
  10
274.2547
  20
168.86894
  0
VERTEX
  5
28c
  8
Layer_0
  10
275.89441
  20
169.65105
  0
VERTEX
  5
28d
  8
Layer_0
  10
277.57278
  20
170.34625
  0
VERTEX
  5
28e
  8
Layer_0
  10
278.43341
  20
170.65102
  0
VERTEX
  5
28f
  8
Layer_0
  10
301.58292
  20
170.65102
  0
VERTEX
  5
290
  8
Layer_0
  10
302.44354
  20
170.34625
  0
VERTEX
  5
291
  8
Layer_0
  10
304.12192
  20
169.65105
  0
VERTEX
  5
292
  8
Layer_0
  10
305.76163
  20
168.86894
  0
VERTEX
  5
293
  8
Layer_0
  10
307.35815
  20
168.00211
  0
VERTEX
  5
294
  8
Layer_0
  10
308.90714
  20
167.05289
  0
VERTEX
  5
295
  8
Layer_0
  10
310.4043
  20
166.02391
  0
VERTEX
  5
296
  8
Layer_0
  10
311.84558
  20
164.91798
  0
VERTEX
  5
297
  8
Layer_0
  10
313.22699
  20
163.73814
  0
VERTEX
  5
298
  8
Layer_0
  10
314.54477
  20
162.48763
  0
VERTEX
  5
299
  8
Layer_0
  10
315.79529
  20
161.16986
  0
VERTEX
  5
29a
  8
Layer_0
  10
316.97513
  20
159.78844
  0
VERTEX
  5
29b
  8
Layer_0
  10
318.08105
  20
158.34717
  0
VERTEX
  5
29c
  8
Layer_0
  10
319.11005
  20
156.84999
  0
VERTEX
  5
29d
  8
Layer_0
  10
320.05923
  20
155.30103
  0
VERTEX
  5
29e
  8
Layer_0
  10
320.92609
  20
153.70448
  0
VERTEX
  5
29f
  8
Layer_0
  10
321.70819
  20
152.06477
  0
VERTEX
  5
2a0
  8
Layer_0
  10
322.40341
  20
150.38638
  0
VERTEX
  5
2a1
  8
Layer_0
  10
323.00983
  20
148.6739
  0
VERTEX
  5
2a2
  8
Layer_0
  10
323.52579
  20
146.93204
  0
VERTEX
  5
2a3
  8
Layer_0
  10
323.94989
  20
145.16556
  0
VERTEX
  5
2a4
  8
Layer_0
  10
324.28094
  20
143.37929
  0
VERTEX
  5
2a5
  8
Layer_0
  10
324.51807
  20
141.57816
  0
VERTEX
  5
2a6
  8
Layer_0
  10
324.66061
  20
139.76707
  0
VERTEX
  5
2a7
  8
Layer_0
  10
324.70816
  20
137.95102
  0
VERTEX
  5
2a8
  8
Layer_0
  10
324.66061
  20
136.13496
  0
VERTEX
  5
2a9
  8
Layer_0
  10
324.51807
  20
134.32388
  0
VERTEX
  5
2aa
  8
Layer_0
  10
324.28094
  20
132.52275
  0
VERTEX
  5
2ab
  8
Layer_0
  10
323.94989
  20
130.73648
  0
VERTEX
  5
2ac
  8
Layer_0
  10
323.52579
  20
128.97
  0
VERTEX
  5
2ad
  8
Layer_0
  10
323.00983
  20
127.22813
  0
VERTEX
  5
2ae
  8
Layer_0
  10
322.40341
  20
125.51566
  0
VERTEX
  5
2af
  8
Layer_0
  10
321.70819
  20
123.83727
  0
VERTEX
  5
2b0
  8
Layer_0
  10
320.92609
  20
122.19756
  0
VERTEX
  5
2b1
  8
Layer_0
  10
320.05923
  20
120.60101
  0
VERTEX
  5
2b2
  8
Layer_0
  10
319.11005
  20
119.05205
  0
VERTEX
  5
2b3
  8
Layer_0
  10
318.08105
  20
117.55487
  0
VERTEX
  5
2b4
  8
Layer_0
  10
316.97513
  20
116.1136
  0
VERTEX
  5
2b5
  8
Layer_0
  10
315.79529
  20
114.73219
  0
VERTEX
  5
2b6
  8
Layer_0
  10
314.54477
  20
113.41441
  0
VERTEX
  5
2b7
  8
Layer_0
  10
313.22699
  20
112.16389
  0
VERTEX
  5
2b8
  8
Layer_0
  10
311.84558
  20
110.98405
  0
VERTEX
  5
2b9
  8
Layer_0
  10
310.4043
  20
109.87813
  0
VERTEX
  5
2ba
  8
Layer_0
  10
308.90714
  20
108.84915
  0
VERTEX
  5
2bb
  8
Layer_0
  10
307.35815
  20
107.89993
  0
VERTEX
  5
2bc
  8
Layer_0
  10
305.76163
  20
107.0331
  0
VERTEX
  5
2bd
  8
Layer_0
  10
304.12192
  20
106.25099
  0
VERTEX
  5
2be
  8
Layer_0
  10
302.44354
  20
105.55577
  0
VERTEX
  5
2bf
  8
Layer_0
  10
300.73105
  20
104.94936
  0
VERTEX
  5
2c0
  8
Layer_0
  10
298.9892
  20
104.4334
  0
VERTEX
  5
2c1
  8
Layer_0
  10
297.22269
  20
104.00929
  0
VERTEX
  5
2c2
  8
Layer_0
  10
295.43643
  20
103.67824
  0
VERTEX
  5
2c3
  8
Layer_0
  10
293.63531
  20
103.44112
  0
VERTEX
  5
2c4
  8
Layer_0
  10
291.82422
  20
103.29857
  0
VERTEX
  5
2c5
  8
Layer_0
  10
290.00818
  20
103.25102
  0
VERTEX
  5
2c6
  8
Layer_0
  10
288.19211
  20
103.29857
  0
VERTEX
  5
2c7
  8
Layer_0
  10
286.38101
  20
103.44112
  0
VERTEX
  5
2c8
  8
Layer_0
  10
284.5799
  20
103.67824
  0
VERTEX
  5
2c9
  8
Layer_0
  10
282.79364
  20
104.00929
  0
VERTEX
  5
2ca
  8
Layer_0
  10
281.02713
  20
104.4334
  0
VERTEX
  5
2cb
  8
Layer_0
  10
279.28528
  20
104.94936
  0
VERTEX
  5
2cc
  8
Layer_0
  10
277.57278
  20
105.55577
  0
VERTEX
  5
2cd
  8
Layer_0
  10
275.89441
  20
106.25099
  0
VERTEX
  5
2ce
  8
Layer_0
  10
274.2547
  20
107.0331
  0
VERTEX
  5
2cf
  8
Layer_0
  10
272.65817
  20
107.89993
  0
VERTEX
  5
2d0
  8
Layer_0
  10
271.10919
  20
108.84915
  0
VERTEX
  5
2d1
  8
Layer_0
  10
269.612
  20
109.87813
  0
VERTEX
  5
2d2
  8
Layer_0
  10
268.17075
  20
110.98405
  0
VERTEX
  5
2d3
  8
Layer_0
  10
266.78934
  20
112.16389
  0
VERTEX
  5
2d4
  8
Layer_0
  10
265.47156
  20
113.41441
  0
SEQEND
  0
POLYLINE
  5
2d6
  8
Layer_0
  62
0
  66
1
  10
0
  20
0
  30
0
  0
VERTEX
  5
2d6
  8
Layer_0
  10
332.10815
  20
234.95102
  0
VERTEX
  5
2d7
  8
Layer_0
  10
332.03662
  20
234.4075
  0
VERTEX
  5
2d8
  8
Layer_0
  10
331.82681
  20
233.90102
  0
VERTEX
  5
2d9
  8
Layer_0
  10
331.4931
  20
233.46609
  0
VERTEX
  5
2da
  8
Layer_0
  10
331.05817
  20
233.13237
  0
VERTEX
  5
2db
  8
Layer_0
  10
330.5517
  20
232.92258
  0
VERTEX
  5
2dc
  8
Layer_0
  10
330.00818
  20
232.85102
  0
VERTEX
  5
2dd
  8
Layer_0
  10
329.46463
  20
232.92258
  0
VERTEX
  5
2de
  8
Layer_0
  10
328.95816
  20
233.13237
  0
VERTEX
  5
2df
  8
Layer_0
  10
328.52325
  20
233.46609
  0
VERTEX
  5
2e0
  8
Layer_0
  10
328.18951
  20
233.90102
  0
VERTEX
  5
2e1
  8
Layer_0
  10
327.97971
  20
234.4075
  0
VERTEX
  5
2e2
  8
Layer_0
  10
327.90814
  20
234.95102
  0
VERTEX
  5
2e3
  8
Layer_0
  10
327.97971
  20
235.49454
  0
VERTEX
  5
2e4
  8
Layer_0
  10
328.18951
  20
236.00102
  0
VERTEX
  5
2e5
  8
Layer_0
  10
328.52325
  20
236.43594
  0
VERTEX
  5
2e6
  8
Layer_0
  10
328.95816
  20
236.76967
  0
VERTEX
  5
2e7
  8
Layer_0
  10
329.46463
  20
236.97946
  0
VERTEX
  5
2e8
  8
Layer_0
  10
330.00818
  20
237.05102
  0
VERTEX
  5
2e9
  8
Layer_0
  10
330.5517
  20
236.97946
  0
VERTEX
  5
2ea
  8
Layer_0
  10
331.05817
  20
236.76967
  0
VERTEX
  5
2eb
  8
Layer_0
  10
331.4931
  20
236.43594
  0
VERTEX
  5
2ec
  8
Layer_0
  10
331.82681
  20
236.00102
  0
VERTEX
  5
2ed
  8
Layer_0
  10
332.03662
  20
235.49454
  0
VERTEX
  5
2ee
  8
Layer_0
  10
332.10815
  20
234.95102
  0
SEQEND
  0
POLYLINE
  5
2f0
  8
Layer_0
  62
0
  66
1
  10
0
  20
0
  30
0
  0
VERTEX
  5
2f0
  8
Layer_0
  10
332.10815
  20
137.95102
  0
VERTEX
  5
2f1
  8
Layer_0
  10
332.03662
  20
137.4075
  0
VERTEX
  5
2f2
  8
Layer_0
  10
331.82681
  20
136.90102
  0
VERTEX
  5
2f3
  8
Layer_0
  10
331.4931
  20
136.46609
  0
VERTEX
  5
2f4
  8
Layer_0
  10
331.05817
  20
136.13237
  0
VERTEX
  5
2f5
  8
Layer_0
  10
330.5517
  20
135.92258
  0
VERTEX
  5
2f6
  8
Layer_0
  10
330.00818
  20
135.85101
  0
VERTEX
  5
2f7
  8
Layer_0
  10
329.46463
  20
135.92258
  0
VERTEX
  5
2f8
  8
Layer_0
  10
328.95816
  20
136.13237
  0
VERTEX
  5
2f9
  8
Layer_0
  10
328.52325
  20
136.46609
  0
VERTEX
  5
2fa
  8
Layer_0
  10
328.18951
  20
136.90102
  0
VERTEX
  5
2fb
  8
Layer_0
  10
327.97971
  20
137.4075
  0
VERTEX
  5
2fc
  8
Layer_0
  10
327.90814
  20
137.95102
  0
VERTEX
  5
2fd
  8
Layer_0
  10
327.97971
  20
138.49454
  0
VERTEX
  5
2fe
  8
Layer_0
  10
328.18951
  20
139.00102
  0
VERTEX
  5
2ff
  8
Layer_0
  10
328.52325
  20
139.43594
  0
VERTEX
  5
300
  8
Layer_0
  10
328.95816
  20
139.76967
  0
VERTEX
  5
301
  8
Layer_0
  10
329.46463
  20
139.97946
  0
VERTEX
  5
302
  8
Layer_0
  10
330.00818
  20
140.05103
  0
VERTEX
  5
303
  8
Layer_0
  10
330.5517
  20
139.97946
  0
VERTEX
  5
304
  8
Layer_0
  10
331.05817
  20
139.76967
  0
VERTEX
  5
305
  8
Layer_0
  10
331.4931
  20
139.43594
  0
VERTEX
  5
306
  8
Layer_0
  10
331.82681
  20
139.00102
  0
VERTEX
  5
307
  8
Layer_0
  10
332.03662
  20
138.49454
  0
VERTEX
  5
308
  8
Layer_0
  10
332.10815
  20
137.95102
  0
SEQEND
  0
POLYLINE
  5
30a
  8
Layer_0
  62
0
  66
1
  10
0
  20
0
  30
0
  0
VERTEX
  5
30a
  8
Layer_0
  10
270.00815
  20
105.41
  0
VERTEX
  5
30b
  8
Layer_0
  10
270.5517
  20
105.33844
  0
VERTEX
  5
30c
  8
Layer_0
  10
271.05817
  20
105.12866
  0
VERTEX
  5
30d
  8
Layer_0
  10
271.49307
  20
104.79492
  0
VERTEX
  5
30e
  8
Layer_0
  10
271.82681
  20
104.36
  0
VERTEX
  5
30f
  8
Layer_0
  10
272.03662
  20
103.85352
  0
VERTEX
  5
310
  8
Layer_0
  10
272.10815
  20
103.31
  0
VERTEX
  5
311
  8
Layer_0
  10
272.03662
  20
102.76648
  0
VERTEX
  5
312
  8
Layer_0
  10
271.82681
  20
102.26001
  0
VERTEX
  5
313
  8
Layer_0
  10
271.49307
  20
101.82507
  0
VERTEX
  5
314
  8
Layer_0
  10
271.05817
  20
101.49135
  0
VERTEX
  5
315
  8
Layer_0
  10
270.5517
  20
101.28156
  0
VERTEX
  5
316
  8
Layer_0
  10
270.00815
  20
101.21001
  0
VERTEX
  5
317
  8
Layer_0
  10
269.46463
  20
101.28156
  0
VERTEX
  5
318
  8
Layer_0
  10
268.95816
  20
101.49135
  0
VERTEX
  5
319
  8
Layer_0
  10
268.52322
  20
101.82507
  0
VERTEX
  5
31a
  8
Layer_0
  10
268.18951
  20
102.26001
  0
VERTEX
  5
31b
  8
Layer_0
  10
267.97971
  20
102.76648
  0
VERTEX
  5
31c
  8
Layer_0
  10
267.90817
  20
103.31
  0
VERTEX
  5
31d
  8
Layer_0
  10
267.97971
  20
103.85352
  0
VERTEX
  5
31e
  8
Layer_0
  10
268.18951
  20
104.36
  0
VERTEX
  5
31f
  8
Layer_0
  10
268.52322
  20
104.79492
  0
VERTEX
  5
320
  8
Layer_0
  10
268.95816
  20
105.12866
  0
VERTEX
  5
321
  8
Layer_0
  10
269.46463
  20
105.33844
  0
VERTEX
  5
322
  8
Layer_0
  10
270.00815
  20
105.41
  0
SEQEND
  0
POLYLINE
  5
324
  8
Layer_0
  62
0
  66
1
  10
0
  20
0
  30
0
  0
VERTEX
  5
324
  8
Layer_0
  10
312.03662
  20
270.13556
  0
VERTEX
  5
325
  8
Layer_0
  10
312.10815
  20
269.59204
  0
VERTEX
  5
326
  8
Layer_0
  10
312.03662
  20
269.04852
  0
VERTEX
  5
327
  8
Layer_0
  10
311.82681
  20
268.54204
  0
VERTEX
  5
328
  8
Layer_0
  10
311.4931
  20
268.10711
  0
VERTEX
  5
329
  8
Layer_0
  10
311.05817
  20
267.77338
  0
VERTEX
  5
32a
  8
Layer_0
  10
310.5517
  20
267.56359
  0
VERTEX
  5
32b
  8
Layer_0
  10
310.00818
  20
267.49203
  0
VERTEX
  5
32c
  8
Layer_0
  10
309.46463
  20
267.56359
  0
VERTEX
  5
32d
  8
Layer_0
  10
308.95816
  20
267.77338
  0
VERTEX
  5
32e
  8
Layer_0
  10
308.52325
  20
268.10711
  0
VERTEX
  5
32f
  8
Layer_0
  10
308.18951
  20
268.54204
  0
VERTEX
  5
330
  8
Layer_0
  10
307.97971
  20
269.04852
  0
VERTEX
  5
331
  8
Layer_0
  10
307.90814
  20
269.59204
  0
VERTEX
  5
332
  8
Layer_0
  10
307.97971
  20
270.13556
  0
VERTEX
  5
333
  8
Layer_0
  10
308.18951
  20
270.64203
  0
VERTEX
  5
334
  8
Layer_0
  10
308.52325
  20
271.07696
  0
VERTEX
  5
335
  8
Layer_0
  10
308.95816
  20
271.41069
  0
VERTEX
  5
336
  8
Layer_0
  10
309.46463
  20
271.62048
  0
VERTEX
  5
337
  8
Layer_0
  10
310.00818
  20
271.69204
  0
VERTEX
  5
338
  8
Layer_0
  10
310.5517
  20
271.62048
  0
VERTEX
  5
339
  8
Layer_0
  10
311.05817
  20
271.41069
  0
VERTEX
  5
33a
  8
Layer_0
  10
311.4931
  20
271.07696
  0
VERTEX
  5
33b
  8
Layer_0
  10
311.82681
  20
270.64203
  0
VERTEX
  5
33c
  8
Layer_0
  10
312.03662
  20
270.13556
  0
SEQEND
  0
POLYLINE
  5
33e
  8
Layer_0
  62
0
  66
1
  10
0
  20
0
  30
0
  0
VERTEX
  5
33e
  8
Layer_0
  10
307.90814
  20
172.59203
  0
VERTEX
  5
33f
  8
Layer_0
  10
307.97971
  20
173.13556
  0
VERTEX
  5
340
  8
Layer_0
  10
308.18951
  20
173.64204
  0
VERTEX
  5
341
  8
Layer_0
  10
308.52325
  20
174.07696
  0
VERTEX
  5
342
  8
Layer_0
  10
308.95816
  20
174.41069
  0
VERTEX
  5
343
  8
Layer_0
  10
309.46463
  20
174.62048
  0
VERTEX
  5
344
  8
Layer_0
  10
310.00818
  20
174.69203
  0
VERTEX
  5
345
  8
Layer_0
  10
310.5517
  20
174.62048
  0
VERTEX
  5
346
  8
Layer_0
  10
311.05817
  20
174.41069
  0
VERTEX
  5
347
  8
Layer_0
  10
311.4931
  20
174.07696
  0
VERTEX
  5
348
  8
Layer_0
  10
311.82681
  20
173.64204
  0
VERTEX
  5
349
  8
Layer_0
  10
312.03662
  20
173.13556
  0
VERTEX
  5
34a
  8
Layer_0
  10
312.10815
  20
172.59203
  0
VERTEX
  5
34b
  8
Layer_0
  10
312.03662
  20
172.04852
  0
VERTEX
  5
34c
  8
Layer_0
  10
311.82681
  20
171.54204
  0
VERTEX
  5
34d
  8
Layer_0
  10
311.4931
  20
171.10712
  0
VERTEX
  5
34e
  8
Layer_0
  10
311.05817
  20
170.77338
  0
VERTEX
  5
34f
  8
Layer_0
  10
310.5517
  20
170.5636
  0
VERTEX
  5
350
  8
Layer_0
  10
310.00818
  20
170.49203
  0
VERTEX
  5
351
  8
Layer_0
  10
309.46463
  20
170.5636
  0
VERTEX
  5
352
  8
Layer_0
  10
308.95816
  20
170.77338
  0
VERTEX
  5
353
  8
Layer_0
  10
308.52325
  20
171.10712
  0
VERTEX
  5
354
  8
Layer_0
  10
308.18951
  20
171.54204
  0
VERTEX
  5
355
  8
Layer_0
  10
307.97971
  20
172.04852
  0
VERTEX
  5
356
  8
Layer_0
  10
307.90814
  20
172.59203
  0
SEQEND
  0
POLYLINE
  5
358
  8
Layer_0
  62
0
  66
1
  10
0
  20
0
  30
0
  0
VERTEX
  5
358
  8
Layer_0
  10
307.90814
  20
200.31001
  0
VERTEX
  5
359
  8
Layer_0
  10
307.97971
  20
200.85352
  0
VERTEX
  5
35a
  8
Layer_0
  10
308.18951
  20
201.36
  0
VERTEX
  5
35b
  8
Layer_0
  10
308.52325
  20
201.79493
  0
VERTEX
  5
35c
  8
Layer_0
  10
308.95816
  20
202.12865
  0
VERTEX
  5
35d
  8
Layer_0
  10
309.46463
  20
202.33845
  0
VERTEX
  5
35e
  8
Layer_0
  10
310.00818
  20
202.41
  0
VERTEX
  5
35f
  8
Layer_0
  10
310.5517
  20
202.33845
  0
VERTEX
  5
360
  8
Layer_0
  10
311.05817
  20
202.12865
  0
VERTEX
  5
361
  8
Layer_0
  10
311.4931
  20
201.79493
  0
VERTEX
  5
362
  8
Layer_0
  10
311.82681
  20
201.36
  0
VERTEX
  5
363
  8
Layer_0
  10
312.03662
  20
200.85352
  0
VERTEX
  5
364
  8
Layer_0
  10
312.10815
  20
200.31001
  0
VERTEX
  5
365
  8
Layer_0
  10
312.03662
  20
199.76648
  0
VERTEX
  5
366
  8
Layer_0
  10
311.82681
  20
199.26
  0
VERTEX
  5
367
  8
Layer_0
  10
311.4931
  20
198.82508
  0
VERTEX
  5
368
  8
Layer_0
  10
311.05817
  20
198.49135
  0
VERTEX
  5
369
  8
Layer_0
  10
310.5517
  20
198.28156
  0
VERTEX
  5
36a
  8
Layer_0
  10
310.00818
  20
198.21001
  0
VERTEX
  5
36b
  8
Layer_0
  10
309.46463
  20
198.28156
  0
VERTEX
  5
36c
  8
Layer_0
  10
308.95816
  20
198.49135
  0
VERTEX
  5
36d
  8
Layer_0
  10
308.52325
  20
198.82508
  0
VERTEX
  5
36e
  8
Layer_0
  10
308.18951
  20
199.26
  0
VERTEX
  5
36f
  8
Layer_0
  10
307.97971
  20
199.76648
  0
VERTEX
  5
370
  8
Layer_0
  10
307.90814
  20
200.31001
  0
SEQEND
  0
POLYLINE
  5
372
  8
Layer_0
  62
0
  66
1
  10
0
  20
0
  30
0
  0
VERTEX
  5
372
  8
Layer_0
  10
268.18951
  20
199.26
  0
VERTEX
  5
373
  8
Layer_0
  10
267.97971
  20
199.76648
  0
VERTEX
  5
374
  8
Layer_0
  10
267.90817
  20
200.31001
  0
VERTEX
  5
375
  8
Layer_0
  10
267.97971
  20
200.85352
  0
VERTEX
  5
376
  8
Layer_0
  10
268.18951
  20
201.36
  0
VERTEX
  5
377
  8
Layer_0
  10
268.52322
  20
201.79493
  0
VERTEX
  5
378
  8
Layer_0
  10
268.95816
  20
202.12865
  0
VERTEX
  5
379
  8
Layer_0
  10
269.46463
  20
202.33845
  0
VERTEX
  5
37a
  8
Layer_0
  10
270.00815
  20
202.41
  0
VERTEX
  5
37b
  8
Layer_0
  10
270.5517
  20
202.33845
  0
VERTEX
  5
37c
  8
Layer_0
  10
271.05817
  20
202.12865
  0
VERTEX
  5
37d
  8
Layer_0
  10
271.49307
  20
201.79493
  0
VERTEX
  5
37e
  8
Layer_0
  10
271.82681
  20
201.36
  0
VERTEX
  5
37f
  8
Layer_0
  10
272.03662
  20
200.85352
  0
VERTEX
  5
380
  8
Layer_0
  10
272.10815
  20
200.31001
  0
VERTEX
  5
381
  8
Layer_0
  10
272.03662
  20
199.76648
  0
VERTEX
  5
382
  8
Layer_0
  10
271.82681
  20
199.26
  0
VERTEX
  5
383
  8
Layer_0
  10
271.49307
  20
198.82508
  0
VERTEX
  5
384
  8
Layer_0
  10
271.05817
  20
198.49135
  0
VERTEX
  5
385
  8
Layer_0
  10
270.5517
  20
198.28156
  0
VERTEX
  5
386
  8
Layer_0
  10
270.00815
  20
198.21001
  0
VERTEX
  5
387
  8
Layer_0
  10
269.46463
  20
198.28156
  0
VERTEX
  5
388
  8
Layer_0
  10
268.95816
  20
198.49135
  0
VERTEX
  5
389
  8
Layer_0
  10
268.52322
  20
198.82508
  0
VERTEX
  5
38a
  8
Layer_0
  10
268.18951
  20
199.26
  0
SEQEND
  0
POLYLINE
  5
38c
  8
Layer_0
  62
0
  66
1
  10
0
  20
0
  30
0
  0
VERTEX
  5
38c
  8
Layer_0
  10
267.97971
  20
269.04852
  0
VERTEX
  5
38d
  8
Layer_0
  10
267.90817
  20
269.59204
  0
VERTEX
  5
38e
  8
Layer_0
  10
267.97971
  20
270.13556
  0
VERTEX
  5
38f
  8
Layer_0
  10
268.18951
  20
270.64203
  0
VERTEX
  5
390
  8
Layer_0
  10
268.52322
  20
271.07696
  0
VERTEX
  5
391
  8
Layer_0
  10
268.95816
  20
271.41069
  0
VERTEX
  5
392
  8
Layer_0
  10
269.46463
  20
271.62048
  0
VERTEX
  5
393
  8
Layer_0
  10
270.00815
  20
271.69204
  0
VERTEX
  5
394
  8
Layer_0
  10
270.5517
  20
271.62048
  0
VERTEX
  5
395
  8
Layer_0
  10
271.05817
  20
271.41069
  0
VERTEX
  5
396
  8
Layer_0
  10
271.49307
  20
271.07696
  0
VERTEX
  5
397
  8
Layer_0
  10
271.82681
  20
270.64203
  0
VERTEX
  5
398
  8
Layer_0
  10
272.03662
  20
270.13556
  0
VERTEX
  5
399
  8
Layer_0
  10
272.10815
  20
269.59204
  0
VERTEX
  5
39a
  8
Layer_0
  10
272.03662
  20
269.04852
  0
VERTEX
  5
39b
  8
Layer_0
  10
271.82681
  20
268.54204
  0
VERTEX
  5
39c
  8
Layer_0
  10
271.49307
  20
268.10711
  0
VERTEX
  5
39d
  8
Layer_0
  10
271.05817
  20
267.77338
  0
VERTEX
  5
39e
  8
Layer_0
  10
270.5517
  20
267.56359
  0
VERTEX
  5
39f
  8
Layer_0
  10
270.00815
  20
267.49203
  0
VERTEX
  5
3a0
  8
Layer_0
  10
269.46463
  20
267.56359
  0
VERTEX
  5
3a1
  8
Layer_0
  10
268.95816
  20
267.77338
  0
VERTEX
  5
3a2
  8
Layer_0
  10
268.52322
  20
268.10711
  0
VERTEX
  5
3a3
  8
Layer_0
  10
268.18951
  20
268.54204
  0
VERTEX
  5
3a4
  8
Layer_0
  10
267.97971
  20
269.04852
  0
SEQEND
  0
POLYLINE
  5
3a6
  8
Layer_0
  62
0
  66
1
  10
0
  20
0
  30
0
  0
VERTEX
  5
3a6
  8
Layer_0
  10
268.17075
  20
261.91798
  0
VERTEX
  5
3a7
  8
Layer_0
  10
269.612
  20
263.02391
  0
VERTEX
  5
3a8
  8
Layer_0
  10
271.10919
  20
264.05289
  0
VERTEX
  5
3a9
  8
Layer_0
  10
272.65817
  20
265.0021
  0
VERTEX
  5
3aa
  8
Layer_0
  10
274.2547
  20
265.86895
  0
VERTEX
  5
3ab
  8
Layer_0
  10
275.89441
  20
266.65105
  0
VERTEX
  5
3ac
  8
Layer_0
  10
277.57278
  20
267.34626
  0
VERTEX
  5
3ad
  8
Layer_0
  10
279.28528
  20
267.95268
  0
VERTEX
  5
3ae
  8
Layer_0
  10
281.02713
  20
268.46865
  0
VERTEX
  5
3af
  8
Layer_0
  10
282.79364
  20
268.89274
  0
VERTEX
  5
3b0
  8
Layer_0
  10
284.5799
  20
269.2238
  0
VERTEX
  5
3b1
  8
Layer_0
  10
286.38101
  20
269.46093
  0
VERTEX
  5
3b2
  8
Layer_0
  10
288.19211
  20
269.60346
  0
VERTEX
  5
3b3
  8
Layer_0
  10
290.00818
  20
269.65102
  0
VERTEX
  5
3b4
  8
Layer_0
  10
291.82422
  20
269.60346
  0
VERTEX
  5
3b5
  8
Layer_0
  10
293.63531
  20
269.46093
  0
VERTEX
  5
3b6
  8
Layer_0
  10
295.43643
  20
269.2238
  0
VERTEX
  5
3b7
  8
Layer_0
  10
297.22269
  20
268.89274
  0
VERTEX
  5
3b8
  8
Layer_0
  10
298.9892
  20
268.46865
  0
VERTEX
  5
3b9
  8
Layer_0
  10
300.73105
  20
267.95268
  0
VERTEX
  5
3ba
  8
Layer_0
  10
302.44354
  20
267.34626
  0
VERTEX
  5
3bb
  8
Layer_0
  10
304.12192
  20
266.65105
  0
VERTEX
  5
3bc
  8
Layer_0
  10
305.76163
  20
265.86895
  0
VERTEX
  5
3bd
  8
Layer_0
  10
307.35815
  20
265.0021
  0
VERTEX
  5
3be
  8
Layer_0
  10
308.90714
  20
264.05289
  0
VERTEX
  5
3bf
  8
Layer_0
  10
310.4043
  20
263.02391
  0
VERTEX
  5
3c0
  8
Layer_0
  10
311.84558
  20
261.91798
  0
VERTEX
  5
3c1
  8
Layer_0
  10
313.22699
  20
260.73814
  0
VERTEX
  5
3c2
  8
Layer_0
  10
314.54477
  20
259.48763
  0
VERTEX
  5
3c3
  8
Layer_0
  10
315.79529
  20
258.16985
  0
VERTEX
  5
3c4
  8
Layer_0
  10
316.97513
  20
256.78844
  0
VERTEX
  5
3c5
  8
Layer_0
  10
318.08105
  20
255.34717
  0
VERTEX
  5
3c6
  8
Layer_0
  10
319.11005
  20
253.84999
  0
VERTEX
  5
3c7
  8
Layer_0
  10
320.05923
  20
252.30102
  0
VERTEX
  5
3c8
  8
Layer_0
  10
320.92609
  20
250.70449
  0
VERTEX
  5
3c9
  8
Layer_0
  10
321.70819
  20
249.06478
  0
VERTEX
  5
3ca
  8
Layer_0
  10
322.40341
  20
247.38639
  0
VERTEX
  5
3cb
  8
Layer_0
  10
323.00983
  20
245.67391
  0
VERTEX
  5
3cc
  8
Layer_0
  10
323.52579
  20
243.93204
  0
VERTEX
  5
3cd
  8
Layer_0
  10
323.94989
  20
242.16555
  0
VERTEX
  5
3ce
  8
Layer_0
  10
324.28094
  20
240.3793
  0
VERTEX
  5
3cf
  8
Layer_0
  10
324.51807
  20
238.57816
  0
VERTEX
  5
3d0
  8
Layer_0
  10
324.66061
  20
236.76708
  0
VERTEX
  5
3d1
  8
Layer_0
  10
324.70816
  20
234.95102
  0
VERTEX
  5
3d2
  8
Layer_0
  10
324.66061
  20
233.13496
  0
VERTEX
  5
3d3
  8
Layer_0
  10
324.51807
  20
231.32388
  0
VERTEX
  5
3d4
  8
Layer_0
  10
324.28094
  20
229.52274
  0
VERTEX
  5
3d5
  8
Layer_0
  10
323.94989
  20
227.73648
  0
VERTEX
  5
3d6
  8
Layer_0
  10
323.52579
  20
225.97
  0
VERTEX
  5
3d7
  8
Layer_0
  10
323.00983
  20
224.22813
  0
VERTEX
  5
3d8
  8
Layer_0
  10
322.40341
  20
222.51565
  0
VERTEX
  5
3d9
  8
Layer_0
  10
321.70819
  20
220.83726
  0
VERTEX
  5
3da
  8
Layer_0
  10
320.92609
  20
219.19755
  0
VERTEX
  5
3db
  8
Layer_0
  10
320.05923
  20
217.60102
  0
VERTEX
  5
3dc
  8
Layer_0
  10
319.11005
  20
216.05205
  0
VERTEX
  5
3dd
  8
Layer_0
  10
318.08105
  20
214.55487
  0
VERTEX
  5
3de
  8
Layer_0
  10
316.97513
  20
213.1136
  0
VERTEX
  5
3df
  8
Layer_0
  10
315.79529
  20
211.73219
  0
VERTEX
  5
3e0
  8
Layer_0
  10
314.54477
  20
210.41441
  0
VERTEX
  5
3e1
  8
Layer_0
  10
313.22699
  20
209.16389
  0
VERTEX
  5
3e2
  8
Layer_0
  10
311.84558
  20
207.98405
  0
VERTEX
  5
3e3
  8
Layer_0
  10
310.4043
  20
206.87813
  0
VERTEX
  5
3e4
  8
Layer_0
  10
308.90714
  20
205.84915
  0
VERTEX
  5
3e5
  8
Layer_0
  10
307.35815
  20
204.89994
  0
VERTEX
  5
3e6
  8
Layer_0
  10
305.76163
  20
204.0331
  0
VERTEX
  5
3e7
  8
Layer_0
  10
304.12192
  20
203.25099
  0
VERTEX
  5
3e8
  8
Layer_0
  10
302.44354
  20
202.55578
  0
VERTEX
  5
3e9
  8
Layer_0
  10
301.58292
  20
202.25102
  0
VERTEX
  5
3ea
  8
Layer_0
  10
278.43341
  20
202.25102
  0
VERTEX
  5
3eb
  8
Layer_0
  10
277.57278
  20
202.55578
  0
VERTEX
  5
3ec
  8
Layer_0
  10
275.89441
  20
203.25099
  0
VERTEX
  5
3ed
  8
Layer_0
  10
274.2547
  20
204.0331
  0
VERTEX
  5
3ee
  8
Layer_0
  10
272.65817
  20
204.89994
  0
VERTEX
  5
3ef
  8
Layer_0
  10
271.10919
  20
205.84915
  0
VERTEX
  5
3f0
  8
Layer_0
  10
269.612
  20
206.87813
  0
VERTEX
  5
3f1
  8
Layer_0
  10
268.17075
  20
207.98405
  0
VERTEX
  5
3f2
  8
Layer_0
  10
266.78934
  20
209.16389
  0
VERTEX
  5
3f3
  8
Layer_0
  10
265.47156
  20
210.41441
  0
VERTEX
  5
3f4
  8
Layer_0
  10
264.22104
  20
211.73219
  0
VERTEX
  5
3f5
  8
Layer_0
  10
263.0412
  20
213.1136
  0
VERTEX
  5
3f6
  8
Layer_0
  10
261.93527
  20
214.55487
  0
VERTEX
  5
3f7
  8
Layer_0
  10
260.90628
  20
216.05205
  0
VERTEX
  5
3f8
  8
Layer_0
  10
259.95709
  20
217.60102
  0
VERTEX
  5
3f9
  8
Layer_0
  10
259.09024
  20
219.19755
  0
VERTEX
  5
3fa
  8
Layer_0
  10
258.30814
  20
220.83726
  0
VERTEX
  5
3fb
  8
Layer_0
  10
257.61292
  20
222.51565
  0
VERTEX
  5
3fc
  8
Layer_0
  10
257.0065
  20
224.22813
  0
VERTEX
  5
3fd
  8
Layer_0
  10
256.49054
  20
225.97
  0
VERTEX
  5
3fe
  8
Layer_0
  10
256.06644
  20
227.73648
  0
VERTEX
  5
3ff
  8
Layer_0
  10
255.73538
  20
229.52274
  0
VERTEX
  5
400
  8
Layer_0
  10
255.49825
  20
231.32388
  0
VERTEX
  5
401
  8
Layer_0
  10
255.35571
  20
233.13496
  0
VERTEX
  5
402
  8
Layer_0
  10
255.30817
  20
234.95102
  0
VERTEX
  5
403
  8
Layer_0
  10
255.35571
  20
236.76708
  0
VERTEX
  5
404
  8
Layer_0
  10
255.49825
  20
238.57816
  0
VERTEX
  5
405
  8
Layer_0
  10
255.73538
  20
240.3793
  0
VERTEX
  5
406
  8
Layer_0
  10
256.06644
  20
242.16555
  0
VERTEX
  5
407
  8
Layer_0
  10
256.49054
  20
243.93204
  0
VERTEX
  5
408
  8
Layer_0
  10
257.0065
  20
245.67391
  0
VERTEX
  5
409
  8
Layer_0
  10
257.61292
  20
247.38639
  0
VERTEX
  5
40a
  8
Layer_0
  10
258.30814
  20
249.06478
  0
VERTEX
  5
40b
  8
Layer_0
  10
259.09024
  20
250.70449
  0
VERTEX
  5
40c
  8
Layer_0
  10
259.95709
  20
252.30102
  0
VERTEX
  5
40d
  8
Layer_0
  10
260.90628
  20
253.84999
  0
VERTEX
  5
40e
  8
Layer_0
  10
261.93527
  20
255.34717
  0
VERTEX
  5
40f
  8
Layer_0
  10
263.0412
  20
256.78844
  0
VERTEX
  5
410
  8
Layer_0
  10
264.22104
  20
258.16985
  0
VERTEX
  5
411
  8
Layer_0
  10
265.47156
  20
259.48763
  0
VERTEX
  5
412
  8
Layer_0
  10
266.78934
  20
260.73814
  0
VERTEX
  5
413
  8
Layer_0
  10
268.17075
  20
261.91798
  0
SEQEND
  0
POLYLINE
  5
415
  8
Layer_0
  62
0
  66
1
  10
0
  20
0
  30
0
  0
VERTEX
  5
415
  8
Layer_0
  10
267.97971
  20
173.13556
  0
VERTEX
  5
416
  8
Layer_0
  10
268.18951
  20
173.64204
  0
VERTEX
  5
417
  8
Layer_0
  10
268.52322
  20
174.07696
  0
VERTEX
  5
418
  8
Layer_0
  10
268.95816
  20
174.41069
  0
VERTEX
  5
419
  8
Layer_0
  10
269.46463
  20
174.62048
  0
VERTEX
  5
41a
  8
Layer_0
  10
270.00815
  20
174.69203
  0
VERTEX
  5
41b
  8
Layer_0
  10
270.5517
  20
174.62048
  0
VERTEX
  5
41c
  8
Layer_0
  10
271.05817
  20
174.41069
  0
VERTEX
  5
41d
  8
Layer_0
  10
271.49307
  20
174.07696
  0
VERTEX
  5
41e
  8
Layer_0
  10
271.82681
  20
173.64204
  0
VERTEX
  5
41f
  8
Layer_0
  10
272.03662
  20
173.13556
  0
VERTEX
  5
420
  8
Layer_0
  10
272.10815
  20
172.59203
  0
VERTEX
  5
421
  8
Layer_0
  10
272.03662
  20
172.04852
  0
VERTEX
  5
422
  8
Layer_0
  10
271.82681
  20
171.54204
  0
VERTEX
  5
423
  8
Layer_0
  10
271.49307
  20
171.10712
  0
VERTEX
  5
424
  8
Layer_0
  10
271.05817
  20
170.77338
  0
VERTEX
  5
425
  8
Layer_0
  10
270.5517
  20
170.5636
  0
VERTEX
  5
426
  8
Layer_0
  10
270.00815
  20
170.49203
  0
VERTEX
  5
427
  8
Layer_0
  10
269.46463
  20
170.5636
  0
VERTEX
  5
428
  8
Layer_0
  10
268.95816
  20
170.77338
  0
VERTEX
  5
429
  8
Layer_0
  10
268.52322
  20
171.10712
  0
VERTEX
  5
42a
  8
Layer_0
  10
268.18951
  20
171.54204
  0
VERTEX
  5
42b
  8
Layer_0
  10
267.97971
  20
172.04852
  0
VERTEX
  5
42c
  8
Layer_0
  10
267.90817
  20
172.59203
  0
VERTEX
  5
42d
  8
Layer_0
  10
267.97971
  20
173.13556
  0
SEQEND
  0
POLYLINE
  5
42f
  8
Layer_0
  62
0
  66
1
  10
0
  20
0
  30
0
  0
VERTEX
  5
42f
  8
Layer_0
  10
307.90814
  20
103.31
  0
VERTEX
  5
430
  8
Layer_0
  10
307.97971
  20
103.85352
  0
VERTEX
  5
431
  8
Layer_0
  10
308.18951
  20
104.36
  0
VERTEX
  5
432
  8
Layer_0
  10
308.52325
  20
104.79492
  0
VERTEX
  5
433
  8
Layer_0
  10
308.95816
  20
105.12866
  0
VERTEX
  5
434
  8
Layer_0
  10
309.46463
  20
105.33844
  0
VERTEX
  5
435
  8
Layer_0
  10
310.00818
  20
105.41
  0
VERTEX
  5
436
  8
Layer_0
  10
310.5517
  20
105.33844
  0
VERTEX
  5
437
  8
Layer_0
  10
311.05817
  20
105.12866
  0
VERTEX
  5
438
  8
Layer_0
  10
311.4931
  20
104.79492
  0
VERTEX
  5
439
  8
Layer_0
  10
311.82681
  20
104.36
  0
VERTEX
  5
43a
  8
Layer_0
  10
312.03662
  20
103.85352
  0
VERTEX
  5
43b
  8
Layer_0
  10
312.10815
  20
103.31
  0
VERTEX
  5
43c
  8
Layer_0
  10
312.03662
  20
102.76648
  0
VERTEX
  5
43d
  8
Layer_0
  10
311.82681
  20
102.26001
  0
VERTEX
  5
43e
  8
Layer_0
  10
311.4931
  20
101.82507
  0
VERTEX
  5
43f
  8
Layer_0
  10
311.05817
  20
101.49135
  0
VERTEX
  5
440
  8
Layer_0
  10
310.5517
  20
101.28156
  0
VERTEX
  5
441
  8
Layer_0
  10
310.00818
  20
101.21001
  0
VERTEX
  5
442
  8
Layer_0
  10
309.46463
  20
101.28156
  0
VERTEX
  5
443
  8
Layer_0
  10
308.95816
  20
101.49135
  0
VERTEX
  5
444
  8
Layer_0
  10
308.52325
  20
101.82507
  0
VERTEX
  5
445
  8
Layer_0
  10
308.18951
  20
102.26001
  0
VERTEX
  5
446
  8
Layer_0
  10
307.97971
  20
102.76648
  0
VERTEX
  5
447
  8
Layer_0
  10
307.90814
  20
103.31
  0
SEQEND
  0
POLYLINE
  5
449
  8
Layer_0
  62
0
  66
1
  10
0
  20
0
  30
0
  0
VERTEX
  5
449
  8
Layer_0
  10
237.86368
  20
234.62976
  0
VERTEX
  5
44a
  8
Layer_0
  10
237.90816
  20
233.95102
  0
VERTEX
  5
44b
  8
Layer_0
  10
237.86368
  20
233.27228
  0
VERTEX
  5
44c
  8
Layer_0
  10
237.73097
  20
232.60516
  0
VERTEX
  5
44d
  8
Layer_0
  10
237.51233
  20
231.96107
  0
VERTEX
  5
44e
  8
Layer_0
  10
237.21149
  20
231.35102
  0
VERTEX
  5
44f
  8
Layer_0
  10
237.15274
  20
231.26309
  0
VERTEX
  5
450
  8
Layer_0
  10
236.8336
  20
230.78546
  0
VERTEX
  5
451
  8
Layer_0
  10
236.38512
  20
230.27406
  0
VERTEX
  5
452
  8
Layer_0
  10
235.87372
  20
229.82558
  0
VERTEX
  5
453
  8
Layer_0
  10
235.76735
  20
229.7545
  0
VERTEX
  5
454
  8
Layer_0
  10
235.30817
  20
229.44769
  0
VERTEX
  5
455
  8
Layer_0
  10
234.69812
  20
229.14685
  0
VERTEX
  5
456
  8
Layer_0
  10
234.05402
  20
228.92821
  0
VERTEX
  5
457
  8
Layer_0
  10
233.3869
  20
228.7955
  0
VERTEX
  5
458
  8
Layer_0
  10
232.70816
  20
228.75102
  0
VERTEX
  5
459
  8
Layer_0
  10
232.02942
  20
228.7955
  0
VERTEX
  5
45a
  8
Layer_0
  10
231.3623
  20
228.92821
  0
VERTEX
  5
45b
  8
Layer_0
  10
230.7182
  20
229.14685
  0
VERTEX
  5
45c
  8
Layer_0
  10
230.10815
  20
229.44769
  0
VERTEX
  5
45d
  8
Layer_0
  10
229.5426
  20
229.82558
  0
VERTEX
  5
45e
  8
Layer_0
  10
229.0312
  20
230.27406
  0
VERTEX
  5
45f
  8
Layer_0
  10
228.58272
  20
230.78546
  0
VERTEX
  5
460
  8
Layer_0
  10
228.20483
  20
231.35102
  0
VERTEX
  5
461
  8
Layer_0
  10
227.90399
  20
231.96107
  0
VERTEX
  5
462
  8
Layer_0
  10
227.68535
  20
232.60516
  0
VERTEX
  5
463
  8
Layer_0
  10
227.55264
  20
233.27228
  0
VERTEX
  5
464
  8
Layer_0
  10
227.50816
  20
233.95102
  0
VERTEX
  5
465
  8
Layer_0
  10
227.55264
  20
234.62976
  0
VERTEX
  5
466
  8
Layer_0
  10
227.68535
  20
235.29688
  0
VERTEX
  5
467
  8
Layer_0
  10
227.90399
  20
235.94097
  0
VERTEX
  5
468
  8
Layer_0
  10
228.20483
  20
236.55102
  0
VERTEX
  5
469
  8
Layer_0
  10
228.58272
  20
237.11658
  0
VERTEX
  5
46a
  8
Layer_0
  10
229.0312
  20
237.62798
  0
VERTEX
  5
46b
  8
Layer_0
  10
229.5426
  20
238.07646
  0
VERTEX
  5
46c
  8
Layer_0
  10
230.10815
  20
238.45435
  0
VERTEX
  5
46d
  8
Layer_0
  10
230.7182
  20
238.75519
  0
VERTEX
  5
46e
  8
Layer_0
  10
231.3623
  20
238.97383
  0
VERTEX
  5
46f
  8
Layer_0
  10
232.02942
  20
239.10653
  0
VERTEX
  5
470
  8
Layer_0
  10
232.70816
  20
239.15102
  0
VERTEX
  5
471
  8
Layer_0
  10
233.3869
  20
239.10653
  0
VERTEX
  5
472
  8
Layer_0
  10
234.05402
  20
238.97383
  0
VERTEX
  5
473
  8
Layer_0
  10
234.69812
  20
238.75519
  0
VERTEX
  5
474
  8
Layer_0
  10
235.30817
  20
238.45435
  0
VERTEX
  5
475
  8
Layer_0
  10
235.6178
  20
238.24746
  0
VERTEX
  5
476
  8
Layer_0
  10
235.87372
  20
238.07646
  0
VERTEX
  5
477
  8
Layer_0
  10
236.38512
  20
237.62798
  0
VERTEX
  5
478
  8
Layer_0
  10
236.8336
  20
237.11658
  0
VERTEX
  5
479
  8
Layer_0
  10
237.05615
  20
236.78351
  0
VERTEX
  5
47a
  8
Layer_0
  10
237.21149
  20
236.55102
  0
VERTEX
  5
47b
  8
Layer_0
  10
237.51233
  20
235.94097
  0
VERTEX
  5
47c
  8
Layer_0
  10
237.73097
  20
235.29688
  0
VERTEX
  5
47d
  8
Layer_0
  10
237.86368
  20
234.62976
  0
SEQEND
  0
POLYLINE
  5
47f
  8
Layer_0
  62
0
  66
1
  10
0
  20
0
  30
0
  0
VERTEX
  5
47f
  8
Layer_0
  10
237.90816
  20
138.95102
  0
VERTEX
  5
480
  8
Layer_0
  10
237.86368
  20
138.27228
  0
VERTEX
  5
481
  8
Layer_0
  10
237.73097
  20
137.60516
  0
VERTEX
  5
482
  8
Layer_0
  10
237.51233
  20
136.96106
  0
VERTEX
  5
483
  8
Layer_0
  10
237.21149
  20
136.35101
  0
VERTEX
  5
484
  8
Layer_0
  10
237.05615
  20
136.11853
  0
VERTEX
  5
485
  8
Layer_0
  10
236.8336
  20
135.78546
  0
VERTEX
  5
486
  8
Layer_0
  10
236.38507
  20
135.17722
  0
VERTEX
  5
487
  8
Layer_0
  10
235.87372
  20
134.82558
  0
VERTEX
  5
488
  8
Layer_0
  10
235.6178
  20
134.65459
  0
VERTEX
  5
489
  8
Layer_0
  10
235.30817
  20
134.44769
  0
VERTEX
  5
48a
  8
Layer_0
  10
234.69812
  20
134.14685
  0
VERTEX
  5
48b
  8
Layer_0
  10
234.05402
  20
133.92821
  0
VERTEX
  5
48c
  8
Layer_0
  10
233.3869
  20
133.7955
  0
VERTEX
  5
48d
  8
Layer_0
  10
232.70816
  20
133.75102
  0
VERTEX
  5
48e
  8
Layer_0
  10
232.02942
  20
133.7955
  0
VERTEX
  5
48f
  8
Layer_0
  10
231.3623
  20
133.92821
  0
VERTEX
  5
490
  8
Layer_0
  10
230.7182
  20
134.14685
  0
VERTEX
  5
491
  8
Layer_0
  10
230.10815
  20
134.44769
  0
VERTEX
  5
492
  8
Layer_0
  10
229.5426
  20
134.82558
  0
VERTEX
  5
493
  8
Layer_0
  10
229.03116
  20
135.17722
  0
VERTEX
  5
494
  8
Layer_0
  10
228.58272
  20
135.78546
  0
VERTEX
  5
495
  8
Layer_0
  10
228.20483
  20
136.35101
  0
VERTEX
  5
496
  8
Layer_0
  10
227.90399
  20
136.96106
  0
VERTEX
  5
497
  8
Layer_0
  10
227.68535
  20
137.60516
  0
VERTEX
  5
498
  8
Layer_0
  10
227.55264
  20
138.27228
  0
VERTEX
  5
499
  8
Layer_0
  10
227.50816
  20
138.95102
  0
VERTEX
  5
49a
  8
Layer_0
  10
227.55264
  20
139.62976
  0
VERTEX
  5
49b
  8
Layer_0
  10
227.68535
  20
140.29688
  0
VERTEX
  5
49c
  8
Layer_0
  10
227.90399
  20
140.94098
  0
VERTEX
  5
49d
  8
Layer_0
  10
228.20483
  20
141.55103
  0
VERTEX
  5
49e
  8
Layer_0
  10
228.58272
  20
142.11658
  0
VERTEX
  5
49f
  8
Layer_0
  10
229.0312
  20
142.62798
  0
VERTEX
  5
4a0
  8
Layer_0
  10
229.5426
  20
143.07646
  0
VERTEX
  5
4a1
  8
Layer_0
  10
230.10815
  20
143.45435
  0
VERTEX
  5
4a2
  8
Layer_0
  10
230.7182
  20
143.75519
  0
VERTEX
  5
4a3
  8
Layer_0
  10
231.3623
  20
143.97383
  0
VERTEX
  5
4a4
  8
Layer_0
  10
232.02942
  20
144.10654
  0
VERTEX
  5
4a5
  8
Layer_0
  10
232.70816
  20
144.15102
  0
VERTEX
  5
4a6
  8
Layer_0
  10
233.3869
  20
144.10654
  0
VERTEX
  5
4a7
  8
Layer_0
  10
234.05402
  20
143.97383
  0
VERTEX
  5
4a8
  8
Layer_0
  10
234.69812
  20
143.75519
  0
VERTEX
  5
4a9
  8
Layer_0
  10
235.30817
  20
143.45435
  0
VERTEX
  5
4aa
  8
Layer_0
  10
235.76735
  20
143.14754
  0
VERTEX
  5
4ab
  8
Layer_0
  10
235.87372
  20
143.07646
  0
VERTEX
  5
4ac
  8
Layer_0
  10
236.38512
  20
142.62798
  0
VERTEX
  5
4ad
  8
Layer_0
  10
236.8336
  20
142.11658
  0
VERTEX
  5
4ae
  8
Layer_0
  10
237.15274
  20
141.63895
  0
VERTEX
  5
4af
  8
Layer_0
  10
237.21149
  20
141.55103
  0
VERTEX
  5
4b0
  8
Layer_0
  10
237.51233
  20
140.94098
  0
VERTEX
  5
4b1
  8
Layer_0
  10
237.73097
  20
140.29688
  0
VERTEX
  5
4b2
  8
Layer_0
  10
237.86368
  20
139.62976
  0
VERTEX
  5
4b3
  8
Layer_0
  10
237.90816
  20
138.95102
  0
SEQEND
  0
ENDSEC
  0
EOF
