  0
SECTION
  2
HEADER
  9
$ACADVER
  1
AC1009
  0
ENDSEC
  0
SECTION
  2
ENTITIES
  0
POLYLINE
  5
90
  8
Layer_0
  62
0
  66
1
  10
0
  20
0
  30
0
  0
VERTEX
  5
90
  8
Layer_0
  10
357.06384
  20
116.70909
  0
VERTEX
  5
91
  8
Layer_0
  10
357.10663
  20
116.05646
  0
VERTEX
  5
92
  8
Layer_0
  10
357.23422
  20
115.41499
  0
VERTEX
  5
93
  8
Layer_0
  10
357.44446
  20
114.79567
  0
VERTEX
  5
94
  8
Layer_0
  10
357.7337
  20
114.20909
  0
VERTEX
  5
95
  8
Layer_0
  10
358.09708
  20
113.66528
  0
VERTEX
  5
96
  8
Layer_0
  10
358.52832
  20
113.17355
  0
VERTEX
  5
97
  8
Layer_0
  10
359.02005
  20
112.74232
  0
VERTEX
  5
98
  8
Layer_0
  10
359.56384
  20
112.37897
  0
VERTEX
  5
99
  8
Layer_0
  10
360.15042
  20
112.08969
  0
VERTEX
  5
9a
  8
Layer_0
  10
360.76974
  20
111.87946
  0
VERTEX
  5
9b
  8
Layer_0
  10
361.41122
  20
111.75186
  0
VERTEX
  5
9c
  8
Layer_0
  10
362.06384
  20
111.70909
  0
VERTEX
  5
9d
  8
Layer_0
  10
382.17834
  20
111.71188
  0
VERTEX
  5
9e
  8
Layer_0
  10
382.91565
  20
111.62729
  0
VERTEX
  5
9f
  8
Layer_0
  10
383.62708
  20
111.41605
  0
VERTEX
  5
a0
  8
Layer_0
  10
384.29108
  20
111.08456
  0
VERTEX
  5
a1
  8
Layer_0
  10
384.88748
  20
110.64291
  0
VERTEX
  5
a2
  8
Layer_0
  10
385.39819
  20
110.10448
  0
VERTEX
  5
a3
  8
Layer_0
  10
385.80777
  20
109.4856
  0
VERTEX
  5
a4
  8
Layer_0
  10
385.94592
  20
109.15205
  0
VERTEX
  5
a5
  8
Layer_0
  10
386.92261
  20
107.10439
  0
VERTEX
  5
a6
  8
Layer_0
  10
387.13608
  20
106.78339
  0
VERTEX
  5
a7
  8
Layer_0
  10
387.43085
  20
106.53496
  0
VERTEX
  5
a8
  8
Layer_0
  10
387.78336
  20
106.37894
  0
VERTEX
  5
a9
  8
Layer_0
  10
388.16544
  20
106.32779
  0
VERTEX
  5
aa
  8
Layer_0
  10
388.54657
  20
106.38559
  0
VERTEX
  5
ab
  8
Layer_0
  10
388.8963
  20
106.54774
  0
VERTEX
  5
ac
  8
Layer_0
  10
391.23746
  20
108.06812
  0
VERTEX
  5
ad
  8
Layer_0
  10
392.29773
  20
108.57385
  0
VERTEX
  5
ae
  8
Layer_0
  10
393.45282
  20
108.78793
  0
VERTEX
  5
af
  8
Layer_0
  10
394.62393
  20
108.69576
  0
VERTEX
  5
b0
  8
Layer_0
  10
395.73126
  20
108.30362
  0
VERTEX
  5
b1
  8
Layer_0
  10
396.6994
  20
107.63824
  0
VERTEX
  5
b2
  8
Layer_0
  10
397.46234
  20
106.74496
  0
VERTEX
  5
b3
  8
Layer_0
  10
397.96808
  20
105.68468
  0
VERTEX
  5
b4
  8
Layer_0
  10
398.18216
  20
104.5296
  0
VERTEX
  5
b5
  8
Layer_0
  10
398.09
  20
103.35849
  0
VERTEX
  5
b6
  8
Layer_0
  10
397.69785
  20
102.25114
  0
VERTEX
  5
b7
  8
Layer_0
  10
397.03247
  20
101.283
  0
VERTEX
  5
b8
  8
Layer_0
  10
396.13919
  20
100.52008
  0
VERTEX
  5
b9
  8
Layer_0
  10
393.79803
  20
98.99971
  0
VERTEX
  5
ba
  8
Layer_0
  10
393.50766
  20
98.74617
  0
VERTEX
  5
bb
  8
Layer_0
  10
393.29984
  20
98.421509
  0
VERTEX
  5
bc
  8
Layer_0
  10
393.19116
  20
98.051651
  0
VERTEX
  5
bd
  8
Layer_0
  10
393.19031
  20
97.666168
  0
VERTEX
  5
be
  8
Layer_0
  10
393.29736
  20
97.295853
  0
VERTEX
  5
bf
  8
Layer_0
  10
393.50378
  20
96.970276
  0
VERTEX
  5
c0
  8
Layer_0
  10
394.97717
  20
95.245163
  0
VERTEX
  5
c1
  8
Layer_0
  10
396.88718
  20
93.232422
  0
VERTEX
  5
c2
  8
Layer_0
  10
398.89993
  20
91.322418
  0
VERTEX
  5
c3
  8
Layer_0
  10
401.00986
  20
89.520355
  0
VERTEX
  5
c4
  8
Layer_0
  10
403.21121
  20
87.831192
  0
VERTEX
  5
c5
  8
Layer_0
  10
405.49799
  20
86.259552
  0
VERTEX
  5
c6
  8
Layer_0
  10
407.86383
  20
84.809738
  0
VERTEX
  5
c7
  8
Layer_0
  10
410.30234
  20
83.485748
  0
VERTEX
  5
c8
  8
Layer_0
  10
412.80679
  20
82.291183
  0
VERTEX
  5
c9
  8
Layer_0
  10
415.37033
  20
81.229324
  0
VERTEX
  5
ca
  8
Layer_0
  10
417.98593
  20
80.303101
  0
VERTEX
  5
cb
  8
Layer_0
  10
420.64642
  20
79.515015
  0
VERTEX
  5
cc
  8
Layer_0
  10
423.34451
  20
78.867264
  0
VERTEX
  5
cd
  8
Layer_0
  10
426.07281
  20
78.361603
  0
VERTEX
  5
ce
  8
Layer_0
  10
428.32208
  20
78.065491
  0
VERTEX
  5
cf
  8
Layer_0
  10
428.70755
  20
78.069687
  0
VERTEX
  5
d0
  8
Layer_0
  10
429.07642
  20
78.181595
  0
VERTEX
  5
d1
  8
Layer_0
  10
429.39926
  20
78.392242
  0
VERTEX
  5
d2
  8
Layer_0
  10
429.65027
  20
78.68483
  0
VERTEX
  5
d3
  8
Layer_0
  10
429.80936
  20
79.035965
  0
VERTEX
  5
d4
  8
Layer_0
  10
429.86383
  20
79.417572
  0
VERTEX
  5
d5
  8
Layer_0
  10
429.86383
  20
82.209091
  0
VERTEX
  5
d6
  8
Layer_0
  10
430.01718
  20
83.373779
  0
VERTEX
  5
d7
  8
Layer_0
  10
430.46674
  20
84.459091
  0
VERTEX
  5
d8
  8
Layer_0
  10
431.18185
  20
85.391068
  0
VERTEX
  5
d9
  8
Layer_0
  10
432.11383
  20
86.106201
  0
VERTEX
  5
da
  8
Layer_0
  10
433.19916
  20
86.555756
  0
VERTEX
  5
db
  8
Layer_0
  10
434.36383
  20
86.709091
  0
VERTEX
  5
dc
  8
Layer_0
  10
435.52853
  20
86.555756
  0
VERTEX
  5
dd
  8
Layer_0
  10
436.61383
  20
86.106201
  0
VERTEX
  5
de
  8
Layer_0
  10
437.54584
  20
85.391068
  0
VERTEX
  5
df
  8
Layer_0
  10
438.26096
  20
84.459091
  0
VERTEX
  5
e0
  8
Layer_0
  10
438.71051
  20
83.373779
  0
VERTEX
  5
e1
  8
Layer_0
  10
438.86383
  20
82.209091
  0
VERTEX
  5
e2
  8
Layer_0
  10
438.86383
  20
79.417572
  0
VERTEX
  5
e3
  8
Layer_0
  10
438.91833
  20
79.035965
  0
VERTEX
  5
e4
  8
Layer_0
  10
439.07742
  20
78.68483
  0
VERTEX
  5
e5
  8
Layer_0
  10
439.32843
  20
78.392242
  0
VERTEX
  5
e6
  8
Layer_0
  10
439.65125
  20
78.181595
  0
VERTEX
  5
e7
  8
Layer_0
  10
440.02014
  20
78.069687
  0
VERTEX
  5
e8
  8
Layer_0
  10
440.40561
  20
78.065491
  0
VERTEX
  5
e9
  8
Layer_0
  10
442.65488
  20
78.361603
  0
VERTEX
  5
ea
  8
Layer_0
  10
445.38318
  20
78.867264
  0
VERTEX
  5
eb
  8
Layer_0
  10
448.08124
  20
79.515015
  0
VERTEX
  5
ec
  8
Layer_0
  10
450.74176
  20
80.303101
  0
VERTEX
  5
ed
  8
Layer_0
  10
453.35736
  20
81.229324
  0
VERTEX
  5
ee
  8
Layer_0
  10
455.9209
  20
82.291183
  0
VERTEX
  5
ef
  8
Layer_0
  10
458.42535
  20
83.485748
  0
VERTEX
  5
f0
  8
Layer_0
  10
460.86383
  20
84.809738
  0
VERTEX
  5
f1
  8
Layer_0
  10
463.22971
  20
86.259552
  0
VERTEX
  5
f2
  8
Layer_0
  10
465.51648
  20
87.831192
  0
VERTEX
  5
f3
  8
Layer_0
  10
467.71783
  20
89.520355
  0
VERTEX
  5
f4
  8
Layer_0
  10
469.82776
  20
91.322418
  0
VERTEX
  5
f5
  8
Layer_0
  10
471.84052
  20
93.232422
  0
VERTEX
  5
f6
  8
Layer_0
  10
473.75052
  20
95.245163
  0
VERTEX
  5
f7
  8
Layer_0
  10
475.22391
  20
96.970276
  0
VERTEX
  5
f8
  8
Layer_0
  10
475.4303
  20
97.295853
  0
VERTEX
  5
f9
  8
Layer_0
  10
475.53738
  20
97.666168
  0
VERTEX
  5
fa
  8
Layer_0
  10
475.53653
  20
98.051651
  0
VERTEX
  5
fb
  8
Layer_0
  10
475.42786
  20
98.421509
  0
VERTEX
  5
fc
  8
Layer_0
  10
475.22003
  20
98.74617
  0
VERTEX
  5
fd
  8
Layer_0
  10
474.92966
  20
98.99971
  0
VERTEX
  5
fe
  8
Layer_0
  10
472.5885
  20
100.52008
  0
VERTEX
  5
ff
  8
Layer_0
  10
471.69522
  20
101.283
  0
VERTEX
  5
100
  8
Layer_0
  10
471.02985
  20
102.25114
  0
VERTEX
  5
101
  8
Layer_0
  10
470.6377
  20
103.35849
  0
VERTEX
  5
102
  8
Layer_0
  10
470.54553
  20
104.5296
  0
VERTEX
  5
103
  8
Layer_0
  10
470.75961
  20
105.68468
  0
VERTEX
  5
104
  8
Layer_0
  10
471.26535
  20
106.74496
  0
VERTEX
  5
105
  8
Layer_0
  10
472.02826
  20
107.63824
  0
VERTEX
  5
106
  8
Layer_0
  10
472.9964
  20
108.30362
  0
VERTEX
  5
107
  8
Layer_0
  10
474.10376
  20
108.69576
  0
VERTEX
  5
108
  8
Layer_0
  10
475.27487
  20
108.78793
  0
VERTEX
  5
109
  8
Layer_0
  10
476.42993
  20
108.57385
  0
VERTEX
  5
10a
  8
Layer_0
  10
477.49023
  20
108.06812
  0
VERTEX
  5
10b
  8
Layer_0
  10
479.83139
  20
106.54774
  0
VERTEX
  5
10c
  8
Layer_0
  10
480.18112
  20
106.38559
  0
VERTEX
  5
10d
  8
Layer_0
  10
480.56226
  20
106.32779
  0
VERTEX
  5
10e
  8
Layer_0
  10
480.94434
  20
106.37894
  0
VERTEX
  5
10f
  8
Layer_0
  10
481.29684
  20
106.53496
  0
VERTEX
  5
110
  8
Layer_0
  10
481.59161
  20
106.78339
  0
VERTEX
  5
111
  8
Layer_0
  10
481.80505
  20
107.10439
  0
VERTEX
  5
112
  8
Layer_0
  10
482.78174
  20
109.15205
  0
VERTEX
  5
113
  8
Layer_0
  10
483.8436
  20
111.71559
  0
VERTEX
  5
114
  8
Layer_0
  10
484.76984
  20
114.33119
  0
VERTEX
  5
115
  8
Layer_0
  10
485.55792
  20
116.99168
  0
VERTEX
  5
116
  8
Layer_0
  10
486.20569
  20
119.68977
  0
VERTEX
  5
117
  8
Layer_0
  10
486.7113
  20
122.41806
  0
VERTEX
  5
118
  8
Layer_0
  10
487.07349
  20
125.16908
  0
VERTEX
  5
119
  8
Layer_0
  10
487.2912
  20
127.93529
  0
VERTEX
  5
11a
  8
Layer_0
  10
487.36383
  20
130.70909
  0
VERTEX
  5
11b
  8
Layer_0
  10
487.2912
  20
133.48289
  0
VERTEX
  5
11c
  8
Layer_0
  10
487.07349
  20
136.2491
  0
VERTEX
  5
11d
  8
Layer_0
  10
486.7113
  20
139.00012
  0
VERTEX
  5
11e
  8
Layer_0
  10
486.20569
  20
141.72841
  0
VERTEX
  5
11f
  8
Layer_0
  10
485.55792
  20
144.4265
  0
VERTEX
  5
120
  8
Layer_0
  10
484.76984
  20
147.08699
  0
VERTEX
  5
121
  8
Layer_0
  10
483.8436
  20
149.70259
  0
VERTEX
  5
122
  8
Layer_0
  10
482.78174
  20
152.26613
  0
VERTEX
  5
123
  8
Layer_0
  10
481.80505
  20
154.3138
  0
VERTEX
  5
124
  8
Layer_0
  10
481.59161
  20
154.6348
  0
VERTEX
  5
125
  8
Layer_0
  10
481.29684
  20
154.88321
  0
VERTEX
  5
126
  8
Layer_0
  10
480.94434
  20
155.03925
  0
VERTEX
  5
127
  8
Layer_0
  10
480.56226
  20
155.09039
  0
VERTEX
  5
128
  8
Layer_0
  10
480.18112
  20
155.03259
  0
VERTEX
  5
129
  8
Layer_0
  10
479.83139
  20
154.87042
  0
VERTEX
  5
12a
  8
Layer_0
  10
477.49023
  20
153.35007
  0
VERTEX
  5
12b
  8
Layer_0
  10
476.42993
  20
152.84433
  0
VERTEX
  5
12c
  8
Layer_0
  10
475.27487
  20
152.63025
  0
VERTEX
  5
12d
  8
Layer_0
  10
474.10376
  20
152.72241
  0
VERTEX
  5
12e
  8
Layer_0
  10
472.9964
  20
153.11456
  0
VERTEX
  5
12f
  8
Layer_0
  10
472.02826
  20
153.77994
  0
VERTEX
  5
130
  8
Layer_0
  10
471.26535
  20
154.6732
  0
VERTEX
  5
131
  8
Layer_0
  10
470.75961
  20
155.73351
  0
VERTEX
  5
132
  8
Layer_0
  10
470.54553
  20
156.88858
  0
VERTEX
  5
133
  8
Layer_0
  10
470.6377
  20
158.05969
  0
VERTEX
  5
134
  8
Layer_0
  10
471.02985
  20
159.16704
  0
VERTEX
  5
135
  8
Layer_0
  10
471.69522
  20
160.13516
  0
VERTEX
  5
136
  8
Layer_0
  10
472.5885
  20
160.8981
  0
VERTEX
  5
137
  8
Layer_0
  10
474.92966
  20
162.41846
  0
VERTEX
  5
138
  8
Layer_0
  10
475.22003
  20
162.672
  0
VERTEX
  5
139
  8
Layer_0
  10
475.42786
  20
162.99667
  0
VERTEX
  5
13a
  8
Layer_0
  10
475.53653
  20
163.36652
  0
VERTEX
  5
13b
  8
Layer_0
  10
475.53738
  20
163.75201
  0
VERTEX
  5
13c
  8
Layer_0
  10
475.4303
  20
164.12233
  0
VERTEX
  5
13d
  8
Layer_0
  10
475.22391
  20
164.44791
  0
VERTEX
  5
13e
  8
Layer_0
  10
473.95822
  20
166.27776
  0
VERTEX
  5
13f
  8
Layer_0
  10
472.62485
  20
168.65869
  0
VERTEX
  5
140
  8
Layer_0
  10
471.56955
  20
171.17526
  0
VERTEX
  5
141
  8
Layer_0
  10
470.80594
  20
173.79514
  0
VERTEX
  5
142
  8
Layer_0
  10
470.34381
  20
176.4846
  0
VERTEX
  5
143
  8
Layer_0
  10
470.18909
  20
179.20909
  0
VERTEX
  5
144
  8
Layer_0
  10
470.34381
  20
181.93358
  0
VERTEX
  5
145
  8
Layer_0
  10
470.80594
  20
184.62305
  0
VERTEX
  5
146
  8
Layer_0
  10
471.56955
  20
187.2429
  0
VERTEX
  5
147
  8
Layer_0
  10
472.62485
  20
189.75948
  0
VERTEX
  5
148
  8
Layer_0
  10
473.95822
  20
192.14042
  0
VERTEX
  5
149
  8
Layer_0
  10
475.22391
  20
193.97028
  0
VERTEX
  5
14a
  8
Layer_0
  10
475.4303
  20
194.29585
  0
VERTEX
  5
14b
  8
Layer_0
  10
475.53738
  20
194.66617
  0
VERTEX
  5
14c
  8
Layer_0
  10
475.53653
  20
195.05166
  0
VERTEX
  5
14d
  8
Layer_0
  10
475.42786
  20
195.42151
  0
VERTEX
  5
14e
  8
Layer_0
  10
475.22003
  20
195.74618
  0
VERTEX
  5
14f
  8
Layer_0
  10
474.92966
  20
195.99971
  0
VERTEX
  5
150
  8
Layer_0
  10
472.5885
  20
197.52008
  0
VERTEX
  5
151
  8
Layer_0
  10
471.69522
  20
198.283
  0
VERTEX
  5
152
  8
Layer_0
  10
471.02985
  20
199.25114
  0
VERTEX
  5
153
  8
Layer_0
  10
470.6377
  20
200.35849
  0
VERTEX
  5
154
  8
Layer_0
  10
470.54553
  20
201.52961
  0
VERTEX
  5
155
  8
Layer_0
  10
470.75961
  20
202.68467
  0
VERTEX
  5
156
  8
Layer_0
  10
471.26535
  20
203.74497
  0
VERTEX
  5
157
  8
Layer_0
  10
472.02826
  20
204.63824
  0
VERTEX
  5
158
  8
Layer_0
  10
472.9964
  20
205.30363
  0
VERTEX
  5
159
  8
Layer_0
  10
474.10376
  20
205.69576
  0
VERTEX
  5
15a
  8
Layer_0
  10
475.27487
  20
205.78793
  0
VERTEX
  5
15b
  8
Layer_0
  10
476.42993
  20
205.57385
  0
VERTEX
  5
15c
  8
Layer_0
  10
477.49023
  20
205.06812
  0
VERTEX
  5
15d
  8
Layer_0
  10
479.83139
  20
203.54774
  0
VERTEX
  5
15e
  8
Layer_0
  10
480.18112
  20
203.3856
  0
VERTEX
  5
15f
  8
Layer_0
  10
480.56226
  20
203.32778
  0
VERTEX
  5
160
  8
Layer_0
  10
480.94434
  20
203.37894
  0
VERTEX
  5
161
  8
Layer_0
  10
481.29684
  20
203.53496
  0
VERTEX
  5
162
  8
Layer_0
  10
481.59161
  20
203.78339
  0
VERTEX
  5
163
  8
Layer_0
  10
481.80505
  20
204.10438
  0
VERTEX
  5
164
  8
Layer_0
  10
482.78174
  20
206.15205
  0
VERTEX
  5
165
  8
Layer_0
  10
483.8436
  20
208.71558
  0
VERTEX
  5
166
  8
Layer_0
  10
484.76984
  20
211.33118
  0
VERTEX
  5
167
  8
Layer_0
  10
485.55792
  20
213.99168
  0
VERTEX
  5
168
  8
Layer_0
  10
486.20569
  20
216.68977
  0
VERTEX
  5
169
  8
Layer_0
  10
486.7113
  20
219.41806
  0
VERTEX
  5
16a
  8
Layer_0
  10
487.07349
  20
222.16908
  0
VERTEX
  5
16b
  8
Layer_0
  10
487.2912
  20
224.93529
  0
VERTEX
  5
16c
  8
Layer_0
  10
487.36383
  20
227.70909
  0
VERTEX
  5
16d
  8
Layer_0
  10
487.2912
  20
230.48289
  0
VERTEX
  5
16e
  8
Layer_0
  10
487.07349
  20
233.2491
  0
VERTEX
  5
16f
  8
Layer_0
  10
486.7113
  20
236.00011
  0
VERTEX
  5
170
  8
Layer_0
  10
486.20569
  20
238.72841
  0
VERTEX
  5
171
  8
Layer_0
  10
485.55792
  20
241.4265
  0
VERTEX
  5
172
  8
Layer_0
  10
484.76984
  20
244.08699
  0
VERTEX
  5
173
  8
Layer_0
  10
483.8436
  20
246.70259
  0
VERTEX
  5
174
  8
Layer_0
  10
482.78174
  20
249.26613
  0
VERTEX
  5
175
  8
Layer_0
  10
481.80505
  20
251.3138
  0
VERTEX
  5
176
  8
Layer_0
  10
481.59161
  20
251.63479
  0
VERTEX
  5
177
  8
Layer_0
  10
481.29684
  20
251.88322
  0
VERTEX
  5
178
  8
Layer_0
  10
480.94434
  20
252.03924
  0
VERTEX
  5
179
  8
Layer_0
  10
480.56226
  20
252.09039
  0
VERTEX
  5
17a
  8
Layer_0
  10
480.18112
  20
252.03258
  0
VERTEX
  5
17b
  8
Layer_0
  10
479.83139
  20
251.87043
  0
VERTEX
  5
17c
  8
Layer_0
  10
477.49023
  20
250.35007
  0
VERTEX
  5
17d
  8
Layer_0
  10
476.42993
  20
249.84433
  0
VERTEX
  5
17e
  8
Layer_0
  10
475.27487
  20
249.63025
  0
VERTEX
  5
17f
  8
Layer_0
  10
474.10376
  20
249.72242
  0
VERTEX
  5
180
  8
Layer_0
  10
472.9964
  20
250.11456
  0
VERTEX
  5
181
  8
Layer_0
  10
472.02826
  20
250.77993
  0
VERTEX
  5
182
  8
Layer_0
  10
471.26535
  20
251.67321
  0
VERTEX
  5
183
  8
Layer_0
  10
470.75961
  20
252.73351
  0
VERTEX
  5
184
  8
Layer_0
  10
470.54553
  20
253.88857
  0
VERTEX
  5
185
  8
Layer_0
  10
470.6377
  20
255.05968
  0
VERTEX
  5
186
  8
Layer_0
  10
471.02985
  20
256.16704
  0
VERTEX
  5
187
  8
Layer_0
  10
471.69522
  20
257.13517
  0
VERTEX
  5
188
  8
Layer_0
  10
472.5885
  20
257.8981
  0
VERTEX
  5
189
  8
Layer_0
  10
474.92966
  20
259.41846
  0
VERTEX
  5
18a
  8
Layer_0
  10
475.22003
  20
259.672
  0
VERTEX
  5
18b
  8
Layer_0
  10
475.42786
  20
259.99667
  0
VERTEX
  5
18c
  8
Layer_0
  10
475.53653
  20
260.36652
  0
VERTEX
  5
18d
  8
Layer_0
  10
475.53738
  20
260.75201
  0
VERTEX
  5
18e
  8
Layer_0
  10
475.4303
  20
261.12233
  0
VERTEX
  5
18f
  8
Layer_0
  10
475.22391
  20
261.4479
  0
VERTEX
  5
190
  8
Layer_0
  10
473.75052
  20
263.17301
  0
VERTEX
  5
191
  8
Layer_0
  10
471.84052
  20
265.18575
  0
VERTEX
  5
192
  8
Layer_0
  10
469.82776
  20
267.09576
  0
VERTEX
  5
193
  8
Layer_0
  10
467.71783
  20
268.89782
  0
VERTEX
  5
194
  8
Layer_0
  10
465.51648
  20
270.58699
  0
VERTEX
  5
195
  8
Layer_0
  10
463.22971
  20
272.15863
  0
VERTEX
  5
196
  8
Layer_0
  10
460.86383
  20
273.60843
  0
VERTEX
  5
197
  8
Layer_0
  10
458.42535
  20
274.93243
  0
VERTEX
  5
198
  8
Layer_0
  10
455.9209
  20
276.127
  0
VERTEX
  5
199
  8
Layer_0
  10
453.35736
  20
277.18885
  0
VERTEX
  5
19a
  8
Layer_0
  10
450.74176
  20
278.11508
  0
VERTEX
  5
19b
  8
Layer_0
  10
448.08124
  20
278.90316
  0
VERTEX
  5
19c
  8
Layer_0
  10
445.38318
  20
279.55091
  0
VERTEX
  5
19d
  8
Layer_0
  10
442.65488
  20
280.05657
  0
VERTEX
  5
19e
  8
Layer_0
  10
440.40561
  20
280.35269
  0
VERTEX
  5
19f
  8
Layer_0
  10
440.02014
  20
280.34849
  0
VERTEX
  5
1a0
  8
Layer_0
  10
439.65125
  20
280.23659
  0
VERTEX
  5
1a1
  8
Layer_0
  10
439.32843
  20
280.02593
  0
VERTEX
  5
1a2
  8
Layer_0
  10
439.07742
  20
279.73335
  0
VERTEX
  5
1a3
  8
Layer_0
  10
438.91833
  20
279.38222
  0
VERTEX
  5
1a4
  8
Layer_0
  10
438.86383
  20
279.0006
  0
VERTEX
  5
1a5
  8
Layer_0
  10
438.86383
  20
276.20909
  0
VERTEX
  5
1a6
  8
Layer_0
  10
438.71051
  20
275.0444
  0
VERTEX
  5
1a7
  8
Layer_0
  10
438.26096
  20
273.95909
  0
VERTEX
  5
1a8
  8
Layer_0
  10
437.54584
  20
273.02711
  0
VERTEX
  5
1a9
  8
Layer_0
  10
436.61383
  20
272.31197
  0
VERTEX
  5
1aa
  8
Layer_0
  10
435.52853
  20
271.86242
  0
VERTEX
  5
1ab
  8
Layer_0
  10
434.36383
  20
271.70909
  0
VERTEX
  5
1ac
  8
Layer_0
  10
433.19916
  20
271.86242
  0
VERTEX
  5
1ad
  8
Layer_0
  10
432.11383
  20
272.31197
  0
VERTEX
  5
1ae
  8
Layer_0
  10
431.18185
  20
273.02711
  0
VERTEX
  5
1af
  8
Layer_0
  10
430.46674
  20
273.95909
  0
VERTEX
  5
1b0
  8
Layer_0
  10
430.01718
  20
275.0444
  0
VERTEX
  5
1b1
  8
Layer_0
  10
429.86383
  20
276.20909
  0
VERTEX
  5
1b2
  8
Layer_0
  10
429.86383
  20
279.0006
  0
VERTEX
  5
1b3
  8
Layer_0
  10
429.80936
  20
279.38222
  0
VERTEX
  5
1b4
  8
Layer_0
  10
429.65027
  20
279.73335
  0
VERTEX
  5
1b5
  8
Layer_0
  10
429.39926
  20
280.02593
  0
VERTEX
  5
1b6
  8
Layer_0
  10
429.07642
  20
280.23659
  0
VERTEX
  5
1b7
  8
Layer_0
  10
428.70755
  20
280.34849
  0
VERTEX
  5
1b8
  8
Layer_0
  10
428.32208
  20
280.35269
  0
VERTEX
  5
1b9
  8
Layer_0
  10
426.07281
  20
280.05657
  0
VERTEX
  5
1ba
  8
Layer_0
  10
423.34451
  20
279.55091
  0
VERTEX
  5
1bb
  8
Layer_0
  10
420.64642
  20
278.90316
  0
VERTEX
  5
1bc
  8
Layer_0
  10
417.98593
  20
278.11508
  0
VERTEX
  5
1bd
  8
Layer_0
  10
415.37033
  20
277.18885
  0
VERTEX
  5
1be
  8
Layer_0
  10
412.80679
  20
276.127
  0
VERTEX
  5
1bf
  8
Layer_0
  10
410.30234
  20
274.93243
  0
VERTEX
  5
1c0
  8
Layer_0
  10
407.86383
  20
273.60843
  0
VERTEX
  5
1c1
  8
Layer_0
  10
405.49799
  20
272.15863
  0
VERTEX
  5
1c2
  8
Layer_0
  10
403.21121
  20
270.58699
  0
VERTEX
  5
1c3
  8
Layer_0
  10
401.00986
  20
268.89782
  0
VERTEX
  5
1c4
  8
Layer_0
  10
398.89993
  20
267.09576
  0
VERTEX
  5
1c5
  8
Layer_0
  10
396.88718
  20
265.18575
  0
VERTEX
  5
1c6
  8
Layer_0
  10
394.97717
  20
263.17301
  0
VERTEX
  5
1c7
  8
Layer_0
  10
393.50378
  20
261.4479
  0
VERTEX
  5
1c8
  8
Layer_0
  10
393.29736
  20
261.12233
  0
VERTEX
  5
1c9
  8
Layer_0
  10
393.19031
  20
260.75201
  0
VERTEX
  5
1ca
  8
Layer_0
  10
393.19116
  20
260.36652
  0
VERTEX
  5
1cb
  8
Layer_0
  10
393.29984
  20
259.99667
  0
VERTEX
  5
1cc
  8
Layer_0
  10
393.50766
  20
259.672
  0
VERTEX
  5
1cd
  8
Layer_0
  10
393.79803
  20
259.41846
  0
VERTEX
  5
1ce
  8
Layer_0
  10
396.13919
  20
257.8981
  0
VERTEX
  5
1cf
  8
Layer_0
  10
397.03247
  20
257.13517
  0
VERTEX
  5
1d0
  8
Layer_0
  10
397.69785
  20
256.16704
  0
VERTEX
  5
1d1
  8
Layer_0
  10
398.09
  20
255.05968
  0
VERTEX
  5
1d2
  8
Layer_0
  10
398.18216
  20
253.88857
  0
VERTEX
  5
1d3
  8
Layer_0
  10
397.96808
  20
252.73351
  0
VERTEX
  5
1d4
  8
Layer_0
  10
397.46234
  20
251.67321
  0
VERTEX
  5
1d5
  8
Layer_0
  10
396.6994
  20
250.77993
  0
VERTEX
  5
1d6
  8
Layer_0
  10
395.73126
  20
250.11456
  0
VERTEX
  5
1d7
  8
Layer_0
  10
394.62393
  20
249.72242
  0
VERTEX
  5
1d8
  8
Layer_0
  10
393.45282
  20
249.63025
  0
VERTEX
  5
1d9
  8
Layer_0
  10
392.29773
  20
249.84433
  0
VERTEX
  5
1da
  8
Layer_0
  10
391.23746
  20
250.35007
  0
VERTEX
  5
1db
  8
Layer_0
  10
388.8963
  20
251.87043
  0
VERTEX
  5
1dc
  8
Layer_0
  10
388.54657
  20
252.03258
  0
VERTEX
  5
1dd
  8
Layer_0
  10
388.16544
  20
252.09039
  0
VERTEX
  5
1de
  8
Layer_0
  10
387.78336
  20
252.03924
  0
VERTEX
  5
1df
  8
Layer_0
  10
387.43085
  20
251.88322
  0
VERTEX
  5
1e0
  8
Layer_0
  10
387.13608
  20
251.63479
  0
VERTEX
  5
1e1
  8
Layer_0
  10
386.92261
  20
251.3138
  0
VERTEX
  5
1e2
  8
Layer_0
  10
385.94592
  20
249.26613
  0
VERTEX
  5
1e3
  8
Layer_0
  10
385.80777
  20
248.93259
  0
VERTEX
  5
1e4
  8
Layer_0
  10
385.39819
  20
248.3137
  0
VERTEX
  5
1e5
  8
Layer_0
  10
384.88748
  20
247.77526
  0
VERTEX
  5
1e6
  8
Layer_0
  10
384.29108
  20
247.33361
  0
VERTEX
  5
1e7
  8
Layer_0
  10
383.62708
  20
247.00214
  0
VERTEX
  5
1e8
  8
Layer_0
  10
382.91565
  20
246.79089
  0
VERTEX
  5
1e9
  8
Layer_0
  10
382.17834
  20
246.7063
  0
VERTEX
  5
1ea
  8
Layer_0
  10
362.06384
  20
246.70909
  0
VERTEX
  5
1eb
  8
Layer_0
  10
361.41122
  20
246.66631
  0
VERTEX
  5
1ec
  8
Layer_0
  10
360.76974
  20
246.53872
  0
VERTEX
  5
1ed
  8
Layer_0
  10
360.15042
  20
246.32849
  0
VERTEX
  5
1ee
  8
Layer_0
  10
359.56384
  20
246.03922
  0
VERTEX
  5
1ef
  8
Layer_0
  10
359.02005
  20
245.67585
  0
VERTEX
  5
1f0
  8
Layer_0
  10
358.52832
  20
245.24462
  0
VERTEX
  5
1f1
  8
Layer_0
  10
358.09708
  20
244.7529
  0
VERTEX
  5
1f2
  8
Layer_0
  10
357.7337
  20
244.20909
  0
VERTEX
  5
1f3
  8
Layer_0
  10
357.44446
  20
243.62251
  0
VERTEX
  5
1f4
  8
Layer_0
  10
357.23422
  20
243.00319
  0
VERTEX
  5
1f5
  8
Layer_0
  10
357.10663
  20
242.36172
  0
VERTEX
  5
1f6
  8
Layer_0
  10
357.06384
  20
241.70909
  0
VERTEX
  5
1f7
  8
Layer_0
  10
357.06384
  20
116.70909
  0
SEQEND
  0
POLYLINE
  5
1f9
  8
Layer_0
  62
0
  66
1
  10
0
  20
0
  30
0
  0
VERTEX
  5
1f9
  8
Layer_0
  10
382.26385
  20
131.70909
  0
VERTEX
  5
1fa
  8
Layer_0
  10
382.21936
  20
131.03035
  0
VERTEX
  5
1fb
  8
Layer_0
  10
382.08667
  20
130.36324
  0
VERTEX
  5
1fc
  8
Layer_0
  10
381.86801
  20
129.71913
  0
VERTEX
  5
1fd
  8
Layer_0
  10
381.56717
  20
129.10909
  0
VERTEX
  5
1fe
  8
Layer_0
  10
381.41183
  20
128.8766
  0
VERTEX
  5
1ff
  8
Layer_0
  10
381.18927
  20
128.54353
  0
VERTEX
  5
200
  8
Layer_0
  10
380.74078
  20
128.03214
  0
VERTEX
  5
201
  8
Layer_0
  10
380.2294
  20
127.58365
  0
VERTEX
  5
202
  8
Layer_0
  10
379.97348
  20
127.41266
  0
VERTEX
  5
203
  8
Layer_0
  10
379.66385
  20
127.20575
  0
VERTEX
  5
204
  8
Layer_0
  10
379.0538
  20
126.90492
  0
VERTEX
  5
205
  8
Layer_0
  10
378.4097
  20
126.68628
  0
VERTEX
  5
206
  8
Layer_0
  10
377.74258
  20
126.55357
  0
VERTEX
  5
207
  8
Layer_0
  10
377.06384
  20
126.50909
  0
VERTEX
  5
208
  8
Layer_0
  10
376.3851
  20
126.55357
  0
VERTEX
  5
209
  8
Layer_0
  10
375.71799
  20
126.68628
  0
VERTEX
  5
20a
  8
Layer_0
  10
375.07388
  20
126.90492
  0
VERTEX
  5
20b
  8
Layer_0
  10
374.46384
  20
127.20575
  0
VERTEX
  5
20c
  8
Layer_0
  10
373.89828
  20
127.58365
  0
VERTEX
  5
20d
  8
Layer_0
  10
373.3869
  20
128.03214
  0
VERTEX
  5
20e
  8
Layer_0
  10
372.93842
  20
128.54353
  0
VERTEX
  5
20f
  8
Layer_0
  10
372.56052
  20
129.10909
  0
VERTEX
  5
210
  8
Layer_0
  10
372.25967
  20
129.71913
  0
VERTEX
  5
211
  8
Layer_0
  10
372.04102
  20
130.36324
  0
VERTEX
  5
212
  8
Layer_0
  10
371.90833
  20
131.03035
  0
VERTEX
  5
213
  8
Layer_0
  10
371.86383
  20
131.70909
  0
VERTEX
  5
214
  8
Layer_0
  10
371.90833
  20
132.38782
  0
VERTEX
  5
215
  8
Layer_0
  10
372.04102
  20
133.05495
  0
VERTEX
  5
216
  8
Layer_0
  10
372.25967
  20
133.69904
  0
VERTEX
  5
217
  8
Layer_0
  10
372.56052
  20
134.30908
  0
VERTEX
  5
218
  8
Layer_0
  10
372.93842
  20
134.87465
  0
VERTEX
  5
219
  8
Layer_0
  10
373.3869
  20
135.38605
  0
VERTEX
  5
21a
  8
Layer_0
  10
373.89828
  20
135.83453
  0
VERTEX
  5
21b
  8
Layer_0
  10
374.46384
  20
136.21242
  0
VERTEX
  5
21c
  8
Layer_0
  10
375.07388
  20
136.51326
  0
VERTEX
  5
21d
  8
Layer_0
  10
375.71799
  20
136.7319
  0
VERTEX
  5
21e
  8
Layer_0
  10
376.3851
  20
136.86461
  0
VERTEX
  5
21f
  8
Layer_0
  10
377.06384
  20
136.90909
  0
VERTEX
  5
220
  8
Layer_0
  10
377.74258
  20
136.86461
  0
VERTEX
  5
221
  8
Layer_0
  10
378.4097
  20
136.7319
  0
VERTEX
  5
222
  8
Layer_0
  10
379.0538
  20
136.51326
  0
VERTEX
  5
223
  8
Layer_0
  10
379.66385
  20
136.21242
  0
VERTEX
  5
224
  8
Layer_0
  10
380.12302
  20
135.90561
  0
VERTEX
  5
225
  8
Layer_0
  10
380.2294
  20
135.83453
  0
VERTEX
  5
226
  8
Layer_0
  10
380.74078
  20
135.38605
  0
VERTEX
  5
227
  8
Layer_0
  10
381.18927
  20
134.87465
  0
VERTEX
  5
228
  8
Layer_0
  10
381.50842
  20
134.39702
  0
VERTEX
  5
229
  8
Layer_0
  10
381.56717
  20
134.30908
  0
VERTEX
  5
22a
  8
Layer_0
  10
381.86801
  20
133.69904
  0
VERTEX
  5
22b
  8
Layer_0
  10
382.08667
  20
133.05495
  0
VERTEX
  5
22c
  8
Layer_0
  10
382.21936
  20
132.38782
  0
VERTEX
  5
22d
  8
Layer_0
  10
382.26385
  20
131.70909
  0
SEQEND
  0
POLYLINE
  5
22f
  8
Layer_0
  62
0
  66
1
  10
0
  20
0
  30
0
  0
VERTEX
  5
22f
  8
Layer_0
  10
390.50635
  20
160.30606
  0
VERTEX
  5
230
  8
Layer_0
  10
391.43832
  20
161.02119
  0
VERTEX
  5
231
  8
Layer_0
  10
392.52362
  20
161.47075
  0
VERTEX
  5
232
  8
Layer_0
  10
393.68832
  20
161.62408
  0
VERTEX
  5
233
  8
Layer_0
  10
394.853
  20
161.47075
  0
VERTEX
  5
234
  8
Layer_0
  10
395.93832
  20
161.02119
  0
VERTEX
  5
235
  8
Layer_0
  10
396.8703
  20
160.30606
  0
VERTEX
  5
236
  8
Layer_0
  10
397.58545
  20
159.37408
  0
VERTEX
  5
237
  8
Layer_0
  10
398.03497
  20
158.28876
  0
VERTEX
  5
238
  8
Layer_0
  10
398.18832
  20
157.12408
  0
VERTEX
  5
239
  8
Layer_0
  10
398.03497
  20
155.9594
  0
VERTEX
  5
23a
  8
Layer_0
  10
397.58545
  20
154.87408
  0
VERTEX
  5
23b
  8
Layer_0
  10
396.8703
  20
153.94211
  0
VERTEX
  5
23c
  8
Layer_0
  10
395.93832
  20
153.22696
  0
VERTEX
  5
23d
  8
Layer_0
  10
394.853
  20
152.7774
  0
VERTEX
  5
23e
  8
Layer_0
  10
393.68832
  20
152.62408
  0
VERTEX
  5
23f
  8
Layer_0
  10
392.52362
  20
152.7774
  0
VERTEX
  5
240
  8
Layer_0
  10
391.43832
  20
153.22696
  0
VERTEX
  5
241
  8
Layer_0
  10
390.50635
  20
153.94211
  0
VERTEX
  5
242
  8
Layer_0
  10
389.7912
  20
154.87408
  0
VERTEX
  5
243
  8
Layer_0
  10
389.34164
  20
155.9594
  0
VERTEX
  5
244
  8
Layer_0
  10
389.18832
  20
157.12408
  0
VERTEX
  5
245
  8
Layer_0
  10
389.34164
  20
158.28876
  0
VERTEX
  5
246
  8
Layer_0
  10
389.7912
  20
159.37408
  0
VERTEX
  5
247
  8
Layer_0
  10
390.50635
  20
160.30606
  0
SEQEND
  0
POLYLINE
  5
249
  8
Layer_0
  62
0
  66
1
  10
0
  20
0
  30
0
  0
VERTEX
  5
249
  8
Layer_0
  10
391.43832
  20
197.39698
  0
VERTEX
  5
24a
  8
Layer_0
  10
390.50635
  20
198.11211
  0
VERTEX
  5
24b
  8
Layer_0
  10
389.7912
  20
199.0441
  0
VERTEX
  5
24c
  8
Layer_0
  10
389.34164
  20
200.12941
  0
VERTEX
  5
24d
  8
Layer_0
  10
389.18832
  20
201.2941
  0
VERTEX
  5
24e
  8
Layer_0
  10
389.34164
  20
202.45878
  0
VERTEX
  5
24f
  8
Layer_0
  10
389.7912
  20
203.5441
  0
VERTEX
  5
250
  8
Layer_0
  10
390.50635
  20
204.47607
  0
VERTEX
  5
251
  8
Layer_0
  10
391.43832
  20
205.19121
  0
VERTEX
  5
252
  8
Layer_0
  10
392.52362
  20
205.64076
  0
VERTEX
  5
253
  8
Layer_0
  10
393.68832
  20
205.7941
  0
VERTEX
  5
254
  8
Layer_0
  10
394.853
  20
205.64076
  0
VERTEX
  5
255
  8
Layer_0
  10
395.93832
  20
205.19121
  0
VERTEX
  5
256
  8
Layer_0
  10
396.8703
  20
204.47607
  0
VERTEX
  5
257
  8
Layer_0
  10
397.58545
  20
203.5441
  0
VERTEX
  5
258
  8
Layer_0
  10
398.03497
  20
202.45878
  0
VERTEX
  5
259
  8
Layer_0
  10
398.18832
  20
201.2941
  0
VERTEX
  5
25a
  8
Layer_0
  10
398.03497
  20
200.12941
  0
VERTEX
  5
25b
  8
Layer_0
  10
397.58545
  20
199.0441
  0
VERTEX
  5
25c
  8
Layer_0
  10
396.8703
  20
198.11211
  0
VERTEX
  5
25d
  8
Layer_0
  10
395.93832
  20
197.39698
  0
VERTEX
  5
25e
  8
Layer_0
  10
394.853
  20
196.94743
  0
VERTEX
  5
25f
  8
Layer_0
  10
393.68832
  20
196.7941
  0
VERTEX
  5
260
  8
Layer_0
  10
392.52362
  20
196.94743
  0
VERTEX
  5
261
  8
Layer_0
  10
391.43832
  20
197.39698
  0
SEQEND
  0
POLYLINE
  5
263
  8
Layer_0
  62
0
  66
1
  10
0
  20
0
  30
0
  0
VERTEX
  5
263
  8
Layer_0
  10
382.21936
  20
227.38783
  0
VERTEX
  5
264
  8
Layer_0
  10
382.26385
  20
226.70909
  0
VERTEX
  5
265
  8
Layer_0
  10
382.21936
  20
226.03035
  0
VERTEX
  5
266
  8
Layer_0
  10
382.08667
  20
225.36323
  0
VERTEX
  5
267
  8
Layer_0
  10
381.86801
  20
224.71913
  0
VERTEX
  5
268
  8
Layer_0
  10
381.56717
  20
224.10909
  0
VERTEX
  5
269
  8
Layer_0
  10
381.50842
  20
224.02116
  0
VERTEX
  5
26a
  8
Layer_0
  10
381.18927
  20
223.54353
  0
VERTEX
  5
26b
  8
Layer_0
  10
380.74078
  20
223.03214
  0
VERTEX
  5
26c
  8
Layer_0
  10
380.2294
  20
222.58365
  0
VERTEX
  5
26d
  8
Layer_0
  10
380.12302
  20
222.51257
  0
VERTEX
  5
26e
  8
Layer_0
  10
379.66385
  20
222.20576
  0
VERTEX
  5
26f
  8
Layer_0
  10
379.0538
  20
221.90491
  0
VERTEX
  5
270
  8
Layer_0
  10
378.4097
  20
221.68628
  0
VERTEX
  5
271
  8
Layer_0
  10
377.74258
  20
221.55357
  0
VERTEX
  5
272
  8
Layer_0
  10
377.06384
  20
221.50909
  0
VERTEX
  5
273
  8
Layer_0
  10
376.3851
  20
221.55357
  0
VERTEX
  5
274
  8
Layer_0
  10
375.71799
  20
221.68628
  0
VERTEX
  5
275
  8
Layer_0
  10
375.07388
  20
221.90491
  0
VERTEX
  5
276
  8
Layer_0
  10
374.46384
  20
222.20576
  0
VERTEX
  5
277
  8
Layer_0
  10
373.89828
  20
222.58365
  0
VERTEX
  5
278
  8
Layer_0
  10
373.3869
  20
223.03214
  0
VERTEX
  5
279
  8
Layer_0
  10
372.93842
  20
223.54353
  0
VERTEX
  5
27a
  8
Layer_0
  10
372.56052
  20
224.10909
  0
VERTEX
  5
27b
  8
Layer_0
  10
372.25967
  20
224.71913
  0
VERTEX
  5
27c
  8
Layer_0
  10
372.04102
  20
225.36323
  0
VERTEX
  5
27d
  8
Layer_0
  10
371.90833
  20
226.03035
  0
VERTEX
  5
27e
  8
Layer_0
  10
371.86383
  20
226.70909
  0
VERTEX
  5
27f
  8
Layer_0
  10
371.90833
  20
227.38783
  0
VERTEX
  5
280
  8
Layer_0
  10
372.04102
  20
228.05495
  0
VERTEX
  5
281
  8
Layer_0
  10
372.25967
  20
228.69904
  0
VERTEX
  5
282
  8
Layer_0
  10
372.56052
  20
229.30909
  0
VERTEX
  5
283
  8
Layer_0
  10
372.93842
  20
229.87465
  0
VERTEX
  5
284
  8
Layer_0
  10
373.3869
  20
230.38605
  0
VERTEX
  5
285
  8
Layer_0
  10
373.89828
  20
230.83453
  0
VERTEX
  5
286
  8
Layer_0
  10
374.46384
  20
231.21242
  0
VERTEX
  5
287
  8
Layer_0
  10
375.07388
  20
231.51326
  0
VERTEX
  5
288
  8
Layer_0
  10
375.71799
  20
231.7319
  0
VERTEX
  5
289
  8
Layer_0
  10
376.3851
  20
231.8646
  0
VERTEX
  5
28a
  8
Layer_0
  10
377.06384
  20
231.90909
  0
VERTEX
  5
28b
  8
Layer_0
  10
377.74258
  20
231.8646
  0
VERTEX
  5
28c
  8
Layer_0
  10
378.4097
  20
231.7319
  0
VERTEX
  5
28d
  8
Layer_0
  10
379.0538
  20
231.51326
  0
VERTEX
  5
28e
  8
Layer_0
  10
379.66385
  20
231.21242
  0
VERTEX
  5
28f
  8
Layer_0
  10
379.97348
  20
231.00552
  0
VERTEX
  5
290
  8
Layer_0
  10
380.2294
  20
230.83453
  0
VERTEX
  5
291
  8
Layer_0
  10
380.74078
  20
230.38605
  0
VERTEX
  5
292
  8
Layer_0
  10
381.18927
  20
229.87465
  0
VERTEX
  5
293
  8
Layer_0
  10
381.41183
  20
229.54158
  0
VERTEX
  5
294
  8
Layer_0
  10
381.56717
  20
229.30909
  0
VERTEX
  5
295
  8
Layer_0
  10
381.86801
  20
228.69904
  0
VERTEX
  5
296
  8
Layer_0
  10
382.08667
  20
228.05495
  0
VERTEX
  5
297
  8
Layer_0
  10
382.21936
  20
227.38783
  0
SEQEND
  0
POLYLINE
  5
299
  8
Layer_0
  62
0
  66
1
  10
0
  20
0
  30
0
  0
VERTEX
  5
299
  8
Layer_0
  10
422.78909
  20
163.40909
  0
VERTEX
  5
29a
  8
Layer_0
  10
422.78909
  20
195.00909
  0
VERTEX
  5
29b
  8
Layer_0
  10
422.21698
  20
195.21168
  0
VERTEX
  5
29c
  8
Layer_0
  10
421.87888
  20
195.28896
  0
VERTEX
  5
29d
  8
Layer_0
  10
421.53204
  20
195.28669
  0
VERTEX
  5
29e
  8
Layer_0
  10
421.19495
  20
195.20499
  0
VERTEX
  5
29f
  8
Layer_0
  10
420.88559
  20
195.0482
  0
VERTEX
  5
2a0
  8
Layer_0
  10
420.62036
  20
194.82468
  0
VERTEX
  5
2a1
  8
Layer_0
  10
420.41345
  20
194.54632
  0
VERTEX
  5
2a2
  8
Layer_0
  10
419.76346
  20
193.42049
  0
VERTEX
  5
2a3
  8
Layer_0
  10
418.26096
  20
190.81807
  0
VERTEX
  5
2a4
  8
Layer_0
  10
417.54584
  20
189.88609
  0
VERTEX
  5
2a5
  8
Layer_0
  10
416.61383
  20
189.17096
  0
VERTEX
  5
2a6
  8
Layer_0
  10
415.52853
  20
188.72141
  0
VERTEX
  5
2a7
  8
Layer_0
  10
414.36383
  20
188.56807
  0
VERTEX
  5
2a8
  8
Layer_0
  10
413.19916
  20
188.72141
  0
VERTEX
  5
2a9
  8
Layer_0
  10
412.11383
  20
189.17096
  0
VERTEX
  5
2aa
  8
Layer_0
  10
411.18185
  20
189.88609
  0
VERTEX
  5
2ab
  8
Layer_0
  10
410.46674
  20
190.81807
  0
VERTEX
  5
2ac
  8
Layer_0
  10
410.01718
  20
191.90339
  0
VERTEX
  5
2ad
  8
Layer_0
  10
409.86383
  20
193.06807
  0
VERTEX
  5
2ae
  8
Layer_0
  10
410.01718
  20
194.23276
  0
VERTEX
  5
2af
  8
Layer_0
  10
410.46674
  20
195.31807
  0
VERTEX
  5
2b0
  8
Layer_0
  10
411.96924
  20
197.92049
  0
VERTEX
  5
2b1
  8
Layer_0
  10
412.61923
  20
199.04632
  0
VERTEX
  5
2b2
  8
Layer_0
  10
412.75684
  20
199.36469
  0
VERTEX
  5
2b3
  8
Layer_0
  10
412.81781
  20
199.70613
  0
VERTEX
  5
2b4
  8
Layer_0
  10
412.79889
  20
200.05245
  0
VERTEX
  5
2b5
  8
Layer_0
  10
412.70111
  20
200.38522
  0
VERTEX
  5
2b6
  8
Layer_0
  10
412.52966
  20
200.68673
  0
VERTEX
  5
2b7
  8
Layer_0
  10
412.29367
  20
200.9409
  0
VERTEX
  5
2b8
  8
Layer_0
  10
411.14502
  20
201.92197
  0
VERTEX
  5
2b9
  8
Layer_0
  10
409.82724
  20
203.17249
  0
VERTEX
  5
2ba
  8
Layer_0
  10
408.57672
  20
204.49026
  0
VERTEX
  5
2bb
  8
Layer_0
  10
407.39688
  20
205.87167
  0
VERTEX
  5
2bc
  8
Layer_0
  10
406.29095
  20
207.31294
  0
VERTEX
  5
2bd
  8
Layer_0
  10
405.26196
  20
208.81011
  0
VERTEX
  5
2be
  8
Layer_0
  10
404.31274
  20
210.35909
  0
VERTEX
  5
2bf
  8
Layer_0
  10
403.44592
  20
211.95562
  0
VERTEX
  5
2c0
  8
Layer_0
  10
402.66382
  20
213.59533
  0
VERTEX
  5
2c1
  8
Layer_0
  10
401.9686
  20
215.27372
  0
VERTEX
  5
2c2
  8
Layer_0
  10
401.36218
  20
216.9862
  0
VERTEX
  5
2c3
  8
Layer_0
  10
400.84622
  20
218.72807
  0
VERTEX
  5
2c4
  8
Layer_0
  10
400.42212
  20
220.49455
  0
VERTEX
  5
2c5
  8
Layer_0
  10
400.09106
  20
222.28081
  0
VERTEX
  5
2c6
  8
Layer_0
  10
399.85394
  20
224.08195
  0
VERTEX
  5
2c7
  8
Layer_0
  10
399.7114
  20
225.89304
  0
VERTEX
  5
2c8
  8
Layer_0
  10
399.66385
  20
227.70909
  0
VERTEX
  5
2c9
  8
Layer_0
  10
399.7114
  20
229.52515
  0
VERTEX
  5
2ca
  8
Layer_0
  10
399.85394
  20
231.33623
  0
VERTEX
  5
2cb
  8
Layer_0
  10
400.09106
  20
233.13736
  0
VERTEX
  5
2cc
  8
Layer_0
  10
400.42212
  20
234.92363
  0
VERTEX
  5
2cd
  8
Layer_0
  10
400.84622
  20
236.69011
  0
VERTEX
  5
2ce
  8
Layer_0
  10
401.36218
  20
238.43198
  0
VERTEX
  5
2cf
  8
Layer_0
  10
401.9686
  20
240.14445
  0
VERTEX
  5
2d0
  8
Layer_0
  10
402.66382
  20
241.82285
  0
VERTEX
  5
2d1
  8
Layer_0
  10
403.44592
  20
243.46256
  0
VERTEX
  5
2d2
  8
Layer_0
  10
404.31274
  20
245.05909
  0
VERTEX
  5
2d3
  8
Layer_0
  10
405.26196
  20
246.60806
  0
VERTEX
  5
2d4
  8
Layer_0
  10
406.29095
  20
248.10524
  0
VERTEX
  5
2d5
  8
Layer_0
  10
407.39688
  20
249.54651
  0
VERTEX
  5
2d6
  8
Layer_0
  10
408.57672
  20
250.92792
  0
VERTEX
  5
2d7
  8
Layer_0
  10
409.82724
  20
252.24569
  0
VERTEX
  5
2d8
  8
Layer_0
  10
411.14502
  20
253.49622
  0
VERTEX
  5
2d9
  8
Layer_0
  10
412.29367
  20
254.47727
  0
VERTEX
  5
2da
  8
Layer_0
  10
412.52966
  20
254.73145
  0
VERTEX
  5
2db
  8
Layer_0
  10
412.70111
  20
255.03295
  0
VERTEX
  5
2dc
  8
Layer_0
  10
412.79889
  20
255.36572
  0
VERTEX
  5
2dd
  8
Layer_0
  10
412.81781
  20
255.71205
  0
VERTEX
  5
2de
  8
Layer_0
  10
412.75684
  20
256.05349
  0
VERTEX
  5
2df
  8
Layer_0
  10
412.61923
  20
256.37186
  0
VERTEX
  5
2e0
  8
Layer_0
  10
411.96924
  20
257.4977
  0
VERTEX
  5
2e1
  8
Layer_0
  10
410.46674
  20
260.10011
  0
VERTEX
  5
2e2
  8
Layer_0
  10
410.01718
  20
261.18542
  0
VERTEX
  5
2e3
  8
Layer_0
  10
409.86383
  20
262.35011
  0
VERTEX
  5
2e4
  8
Layer_0
  10
410.01718
  20
263.51479
  0
VERTEX
  5
2e5
  8
Layer_0
  10
410.46674
  20
264.60011
  0
VERTEX
  5
2e6
  8
Layer_0
  10
411.18185
  20
265.53209
  0
VERTEX
  5
2e7
  8
Layer_0
  10
412.11383
  20
266.24722
  0
VERTEX
  5
2e8
  8
Layer_0
  10
413.19916
  20
266.69677
  0
VERTEX
  5
2e9
  8
Layer_0
  10
414.36383
  20
266.85011
  0
VERTEX
  5
2ea
  8
Layer_0
  10
415.52853
  20
266.69677
  0
VERTEX
  5
2eb
  8
Layer_0
  10
416.61383
  20
266.24722
  0
VERTEX
  5
2ec
  8
Layer_0
  10
417.54584
  20
265.53209
  0
VERTEX
  5
2ed
  8
Layer_0
  10
418.26096
  20
264.60011
  0
VERTEX
  5
2ee
  8
Layer_0
  10
419.76346
  20
261.9977
  0
VERTEX
  5
2ef
  8
Layer_0
  10
420.41345
  20
260.87186
  0
VERTEX
  5
2f0
  8
Layer_0
  10
420.62036
  20
260.5935
  0
VERTEX
  5
2f1
  8
Layer_0
  10
420.88559
  20
260.36998
  0
VERTEX
  5
2f2
  8
Layer_0
  10
421.19495
  20
260.21319
  0
VERTEX
  5
2f3
  8
Layer_0
  10
421.53204
  20
260.13148
  0
VERTEX
  5
2f4
  8
Layer_0
  10
421.87888
  20
260.12922
  0
VERTEX
  5
2f5
  8
Layer_0
  10
422.21698
  20
260.2065
  0
VERTEX
  5
2f6
  8
Layer_0
  10
423.64096
  20
260.71075
  0
VERTEX
  5
2f7
  8
Layer_0
  10
425.38281
  20
261.22672
  0
VERTEX
  5
2f8
  8
Layer_0
  10
427.14929
  20
261.65081
  0
VERTEX
  5
2f9
  8
Layer_0
  10
428.93558
  20
261.98187
  0
VERTEX
  5
2fa
  8
Layer_0
  10
430.73669
  20
262.219
  0
VERTEX
  5
2fb
  8
Layer_0
  10
432.54779
  20
262.36153
  0
VERTEX
  5
2fc
  8
Layer_0
  10
434.36383
  20
262.40909
  0
VERTEX
  5
2fd
  8
Layer_0
  10
436.1799
  20
262.36153
  0
VERTEX
  5
2fe
  8
Layer_0
  10
437.99097
  20
262.219
  0
VERTEX
  5
2ff
  8
Layer_0
  10
439.79211
  20
261.98187
  0
VERTEX
  5
300
  8
Layer_0
  10
441.57837
  20
261.65081
  0
VERTEX
  5
301
  8
Layer_0
  10
443.34485
  20
261.22672
  0
VERTEX
  5
302
  8
Layer_0
  10
445.08673
  20
260.71075
  0
VERTEX
  5
303
  8
Layer_0
  10
446.51068
  20
260.2065
  0
VERTEX
  5
304
  8
Layer_0
  10
446.84882
  20
260.12922
  0
VERTEX
  5
305
  8
Layer_0
  10
447.19565
  20
260.13148
  0
VERTEX
  5
306
  8
Layer_0
  10
447.53271
  20
260.21319
  0
VERTEX
  5
307
  8
Layer_0
  10
447.8421
  20
260.36998
  0
VERTEX
  5
308
  8
Layer_0
  10
448.1073
  20
260.5935
  0
VERTEX
  5
309
  8
Layer_0
  10
448.31421
  20
260.87186
  0
VERTEX
  5
30a
  8
Layer_0
  10
448.96423
  20
261.9977
  0
VERTEX
  5
30b
  8
Layer_0
  10
450.46674
  20
264.60011
  0
VERTEX
  5
30c
  8
Layer_0
  10
451.18185
  20
265.53209
  0
VERTEX
  5
30d
  8
Layer_0
  10
452.11383
  20
266.24722
  0
VERTEX
  5
30e
  8
Layer_0
  10
453.19916
  20
266.69677
  0
VERTEX
  5
30f
  8
Layer_0
  10
454.36383
  20
266.85011
  0
VERTEX
  5
310
  8
Layer_0
  10
455.52853
  20
266.69677
  0
VERTEX
  5
311
  8
Layer_0
  10
456.61383
  20
266.24722
  0
VERTEX
  5
312
  8
Layer_0
  10
457.54584
  20
265.53209
  0
VERTEX
  5
313
  8
Layer_0
  10
458.26096
  20
264.60011
  0
VERTEX
  5
314
  8
Layer_0
  10
458.71051
  20
263.51479
  0
VERTEX
  5
315
  8
Layer_0
  10
458.86383
  20
262.35011
  0
VERTEX
  5
316
  8
Layer_0
  10
458.71051
  20
261.18542
  0
VERTEX
  5
317
  8
Layer_0
  10
458.26096
  20
260.10011
  0
VERTEX
  5
318
  8
Layer_0
  10
456.75845
  20
257.4977
  0
VERTEX
  5
319
  8
Layer_0
  10
456.10846
  20
256.37186
  0
VERTEX
  5
31a
  8
Layer_0
  10
455.97086
  20
256.05349
  0
VERTEX
  5
31b
  8
Layer_0
  10
455.90988
  20
255.71205
  0
VERTEX
  5
31c
  8
Layer_0
  10
455.92877
  20
255.36572
  0
VERTEX
  5
31d
  8
Layer_0
  10
456.02655
  20
255.03295
  0
VERTEX
  5
31e
  8
Layer_0
  10
456.198
  20
254.73145
  0
VERTEX
  5
31f
  8
Layer_0
  10
456.43402
  20
254.47727
  0
VERTEX
  5
320
  8
Layer_0
  10
457.58267
  20
253.49622
  0
VERTEX
  5
321
  8
Layer_0
  10
458.90045
  20
252.24569
  0
VERTEX
  5
322
  8
Layer_0
  10
460.15097
  20
250.92792
  0
VERTEX
  5
323
  8
Layer_0
  10
461.33081
  20
249.54651
  0
VERTEX
  5
324
  8
Layer_0
  10
462.43674
  20
248.10524
  0
VERTEX
  5
325
  8
Layer_0
  10
463.4657
  20
246.60806
  0
VERTEX
  5
326
  8
Layer_0
  10
464.41492
  20
245.05909
  0
VERTEX
  5
327
  8
Layer_0
  10
465.28177
  20
243.46256
  0
VERTEX
  5
328
  8
Layer_0
  10
466.06387
  20
241.82285
  0
VERTEX
  5
329
  8
Layer_0
  10
466.75909
  20
240.14445
  0
VERTEX
  5
32a
  8
Layer_0
  10
467.36551
  20
238.43198
  0
VERTEX
  5
32b
  8
Layer_0
  10
467.88147
  20
236.69011
  0
VERTEX
  5
32c
  8
Layer_0
  10
468.30557
  20
234.92363
  0
VERTEX
  5
32d
  8
Layer_0
  10
468.58084
  20
233.43832
  0
VERTEX
  5
32e
  8
Layer_0
  10
468.68298
  20
233.10686
  0
VERTEX
  5
32f
  8
Layer_0
  10
468.85837
  20
232.80762
  0
VERTEX
  5
330
  8
Layer_0
  10
469.09766
  20
232.55656
  0
VERTEX
  5
331
  8
Layer_0
  10
469.38812
  20
232.36702
  0
VERTEX
  5
332
  8
Layer_0
  10
469.71429
  20
232.2491
  0
VERTEX
  5
333
  8
Layer_0
  10
470.05884
  20
232.20909
  0
VERTEX
  5
334
  8
Layer_0
  10
471.35883
  20
232.20909
  0
VERTEX
  5
335
  8
Layer_0
  10
474.36383
  20
232.20909
  0
VERTEX
  5
336
  8
Layer_0
  10
475.52853
  20
232.05576
  0
VERTEX
  5
337
  8
Layer_0
  10
476.61383
  20
231.6062
  0
VERTEX
  5
338
  8
Layer_0
  10
477.54584
  20
230.89107
  0
VERTEX
  5
339
  8
Layer_0
  10
478.26096
  20
229.95909
  0
VERTEX
  5
33a
  8
Layer_0
  10
478.71051
  20
228.87378
  0
VERTEX
  5
33b
  8
Layer_0
  10
478.86383
  20
227.70909
  0
VERTEX
  5
33c
  8
Layer_0
  10
478.71051
  20
226.5444
  0
VERTEX
  5
33d
  8
Layer_0
  10
478.26096
  20
225.45909
  0
VERTEX
  5
33e
  8
Layer_0
  10
477.54584
  20
224.52711
  0
VERTEX
  5
33f
  8
Layer_0
  10
476.61383
  20
223.81197
  0
VERTEX
  5
340
  8
Layer_0
  10
475.52853
  20
223.36243
  0
VERTEX
  5
341
  8
Layer_0
  10
474.36383
  20
223.20909
  0
VERTEX
  5
342
  8
Layer_0
  10
471.35883
  20
223.20909
  0
VERTEX
  5
343
  8
Layer_0
  10
470.05884
  20
223.20909
  0
VERTEX
  5
344
  8
Layer_0
  10
469.71429
  20
223.16908
  0
VERTEX
  5
345
  8
Layer_0
  10
469.38812
  20
223.05116
  0
VERTEX
  5
346
  8
Layer_0
  10
469.09766
  20
222.86162
  0
VERTEX
  5
347
  8
Layer_0
  10
468.85837
  20
222.61055
  0
VERTEX
  5
348
  8
Layer_0
  10
468.68298
  20
222.31133
  0
VERTEX
  5
349
  8
Layer_0
  10
468.58084
  20
221.97986
  0
VERTEX
  5
34a
  8
Layer_0
  10
468.30557
  20
220.49455
  0
VERTEX
  5
34b
  8
Layer_0
  10
467.88147
  20
218.72807
  0
VERTEX
  5
34c
  8
Layer_0
  10
467.36551
  20
216.9862
  0
VERTEX
  5
34d
  8
Layer_0
  10
466.75909
  20
215.27372
  0
VERTEX
  5
34e
  8
Layer_0
  10
466.06387
  20
213.59533
  0
VERTEX
  5
34f
  8
Layer_0
  10
465.28177
  20
211.95562
  0
VERTEX
  5
350
  8
Layer_0
  10
464.41492
  20
210.35909
  0
VERTEX
  5
351
  8
Layer_0
  10
463.4657
  20
208.81011
  0
VERTEX
  5
352
  8
Layer_0
  10
462.43674
  20
207.31294
  0
VERTEX
  5
353
  8
Layer_0
  10
461.33081
  20
205.87167
  0
VERTEX
  5
354
  8
Layer_0
  10
460.15097
  20
204.49026
  0
VERTEX
  5
355
  8
Layer_0
  10
458.90045
  20
203.17249
  0
VERTEX
  5
356
  8
Layer_0
  10
457.58267
  20
201.92197
  0
VERTEX
  5
357
  8
Layer_0
  10
456.43402
  20
200.9409
  0
VERTEX
  5
358
  8
Layer_0
  10
456.198
  20
200.68673
  0
VERTEX
  5
359
  8
Layer_0
  10
456.02655
  20
200.38522
  0
VERTEX
  5
35a
  8
Layer_0
  10
455.92877
  20
200.05245
  0
VERTEX
  5
35b
  8
Layer_0
  10
455.90988
  20
199.70613
  0
VERTEX
  5
35c
  8
Layer_0
  10
455.97086
  20
199.36469
  0
VERTEX
  5
35d
  8
Layer_0
  10
456.10846
  20
199.04632
  0
VERTEX
  5
35e
  8
Layer_0
  10
456.75845
  20
197.92049
  0
VERTEX
  5
35f
  8
Layer_0
  10
458.26096
  20
195.31807
  0
VERTEX
  5
360
  8
Layer_0
  10
458.71051
  20
194.23276
  0
VERTEX
  5
361
  8
Layer_0
  10
458.86383
  20
193.06807
  0
VERTEX
  5
362
  8
Layer_0
  10
458.71051
  20
191.90339
  0
VERTEX
  5
363
  8
Layer_0
  10
458.26096
  20
190.81807
  0
VERTEX
  5
364
  8
Layer_0
  10
457.54584
  20
189.88609
  0
VERTEX
  5
365
  8
Layer_0
  10
456.61383
  20
189.17096
  0
VERTEX
  5
366
  8
Layer_0
  10
455.52853
  20
188.72141
  0
VERTEX
  5
367
  8
Layer_0
  10
454.36383
  20
188.56807
  0
VERTEX
  5
368
  8
Layer_0
  10
453.19916
  20
188.72141
  0
VERTEX
  5
369
  8
Layer_0
  10
452.11383
  20
189.17096
  0
VERTEX
  5
36a
  8
Layer_0
  10
451.18185
  20
189.88609
  0
VERTEX
  5
36b
  8
Layer_0
  10
450.46674
  20
190.81807
  0
VERTEX
  5
36c
  8
Layer_0
  10
448.96423
  20
193.42049
  0
VERTEX
  5
36d
  8
Layer_0
  10
448.31421
  20
194.54632
  0
VERTEX
  5
36e
  8
Layer_0
  10
448.1073
  20
194.82468
  0
VERTEX
  5
36f
  8
Layer_0
  10
447.8421
  20
195.0482
  0
VERTEX
  5
370
  8
Layer_0
  10
447.53271
  20
195.20499
  0
VERTEX
  5
371
  8
Layer_0
  10
447.19565
  20
195.28669
  0
VERTEX
  5
372
  8
Layer_0
  10
446.84882
  20
195.28896
  0
VERTEX
  5
373
  8
Layer_0
  10
446.51068
  20
195.21168
  0
VERTEX
  5
374
  8
Layer_0
  10
445.9386
  20
195.00909
  0
VERTEX
  5
375
  8
Layer_0
  10
445.9386
  20
163.40909
  0
VERTEX
  5
376
  8
Layer_0
  10
446.51068
  20
163.2065
  0
VERTEX
  5
377
  8
Layer_0
  10
446.84882
  20
163.12921
  0
VERTEX
  5
378
  8
Layer_0
  10
447.19565
  20
163.13148
  0
VERTEX
  5
379
  8
Layer_0
  10
447.53271
  20
163.2132
  0
VERTEX
  5
37a
  8
Layer_0
  10
447.8421
  20
163.36998
  0
VERTEX
  5
37b
  8
Layer_0
  10
448.1073
  20
163.59351
  0
VERTEX
  5
37c
  8
Layer_0
  10
448.31421
  20
163.87186
  0
VERTEX
  5
37d
  8
Layer_0
  10
448.96423
  20
164.9977
  0
VERTEX
  5
37e
  8
Layer_0
  10
450.46674
  20
167.6001
  0
VERTEX
  5
37f
  8
Layer_0
  10
451.18185
  20
168.53207
  0
VERTEX
  5
380
  8
Layer_0
  10
452.11383
  20
169.24722
  0
VERTEX
  5
381
  8
Layer_0
  10
453.19916
  20
169.69678
  0
VERTEX
  5
382
  8
Layer_0
  10
454.36383
  20
169.8501
  0
VERTEX
  5
383
  8
Layer_0
  10
455.52853
  20
169.69678
  0
VERTEX
  5
384
  8
Layer_0
  10
456.61383
  20
169.24722
  0
VERTEX
  5
385
  8
Layer_0
  10
457.54584
  20
168.53207
  0
VERTEX
  5
386
  8
Layer_0
  10
458.26096
  20
167.6001
  0
VERTEX
  5
387
  8
Layer_0
  10
458.71051
  20
166.5148
  0
VERTEX
  5
388
  8
Layer_0
  10
458.86383
  20
165.3501
  0
VERTEX
  5
389
  8
Layer_0
  10
458.71051
  20
164.18542
  0
VERTEX
  5
38a
  8
Layer_0
  10
458.26096
  20
163.1001
  0
VERTEX
  5
38b
  8
Layer_0
  10
456.75845
  20
160.4977
  0
VERTEX
  5
38c
  8
Layer_0
  10
456.10846
  20
159.37186
  0
VERTEX
  5
38d
  8
Layer_0
  10
455.97086
  20
159.0535
  0
VERTEX
  5
38e
  8
Layer_0
  10
455.90988
  20
158.71205
  0
VERTEX
  5
38f
  8
Layer_0
  10
455.92877
  20
158.36572
  0
VERTEX
  5
390
  8
Layer_0
  10
456.02655
  20
158.03296
  0
VERTEX
  5
391
  8
Layer_0
  10
456.198
  20
157.73145
  0
VERTEX
  5
392
  8
Layer_0
  10
456.43402
  20
157.47726
  0
VERTEX
  5
393
  8
Layer_0
  10
457.58267
  20
156.49622
  0
VERTEX
  5
394
  8
Layer_0
  10
458.90045
  20
155.2457
  0
VERTEX
  5
395
  8
Layer_0
  10
460.15097
  20
153.92792
  0
VERTEX
  5
396
  8
Layer_0
  10
461.33081
  20
152.54651
  0
VERTEX
  5
397
  8
Layer_0
  10
462.43674
  20
151.10524
  0
VERTEX
  5
398
  8
Layer_0
  10
463.4657
  20
149.60806
  0
VERTEX
  5
399
  8
Layer_0
  10
464.41492
  20
148.05908
  0
VERTEX
  5
39a
  8
Layer_0
  10
465.28177
  20
146.46255
  0
VERTEX
  5
39b
  8
Layer_0
  10
466.06387
  20
144.82285
  0
VERTEX
  5
39c
  8
Layer_0
  10
466.75909
  20
143.14445
  0
VERTEX
  5
39d
  8
Layer_0
  10
467.36551
  20
141.43198
  0
VERTEX
  5
39e
  8
Layer_0
  10
467.88147
  20
139.69011
  0
VERTEX
  5
39f
  8
Layer_0
  10
468.30557
  20
137.92363
  0
VERTEX
  5
3a0
  8
Layer_0
  10
468.58084
  20
136.43832
  0
VERTEX
  5
3a1
  8
Layer_0
  10
468.68298
  20
136.10686
  0
VERTEX
  5
3a2
  8
Layer_0
  10
468.85837
  20
135.80762
  0
VERTEX
  5
3a3
  8
Layer_0
  10
469.09766
  20
135.55655
  0
VERTEX
  5
3a4
  8
Layer_0
  10
469.38812
  20
135.36702
  0
VERTEX
  5
3a5
  8
Layer_0
  10
469.71429
  20
135.2491
  0
VERTEX
  5
3a6
  8
Layer_0
  10
470.05884
  20
135.20909
  0
VERTEX
  5
3a7
  8
Layer_0
  10
471.35883
  20
135.20909
  0
VERTEX
  5
3a8
  8
Layer_0
  10
474.36383
  20
135.20909
  0
VERTEX
  5
3a9
  8
Layer_0
  10
475.52853
  20
135.05576
  0
VERTEX
  5
3aa
  8
Layer_0
  10
476.61383
  20
134.6062
  0
VERTEX
  5
3ab
  8
Layer_0
  10
477.54584
  20
133.89107
  0
VERTEX
  5
3ac
  8
Layer_0
  10
478.26096
  20
132.95909
  0
VERTEX
  5
3ad
  8
Layer_0
  10
478.71051
  20
131.87378
  0
VERTEX
  5
3ae
  8
Layer_0
  10
478.86383
  20
130.70909
  0
VERTEX
  5
3af
  8
Layer_0
  10
478.71051
  20
129.5444
  0
VERTEX
  5
3b0
  8
Layer_0
  10
478.26096
  20
128.45909
  0
VERTEX
  5
3b1
  8
Layer_0
  10
477.54584
  20
127.52711
  0
VERTEX
  5
3b2
  8
Layer_0
  10
476.61383
  20
126.81198
  0
VERTEX
  5
3b3
  8
Layer_0
  10
475.52853
  20
126.36243
  0
VERTEX
  5
3b4
  8
Layer_0
  10
474.36383
  20
126.20909
  0
VERTEX
  5
3b5
  8
Layer_0
  10
471.35883
  20
126.20909
  0
VERTEX
  5
3b6
  8
Layer_0
  10
470.05884
  20
126.20909
  0
VERTEX
  5
3b7
  8
Layer_0
  10
469.71429
  20
126.16907
  0
VERTEX
  5
3b8
  8
Layer_0
  10
469.38812
  20
126.05116
  0
VERTEX
  5
3b9
  8
Layer_0
  10
469.09766
  20
125.86162
  0
VERTEX
  5
3ba
  8
Layer_0
  10
468.85837
  20
125.61055
  0
VERTEX
  5
3bb
  8
Layer_0
  10
468.68298
  20
125.31133
  0
VERTEX
  5
3bc
  8
Layer_0
  10
468.58084
  20
124.97986
  0
VERTEX
  5
3bd
  8
Layer_0
  10
468.30557
  20
123.49455
  0
VERTEX
  5
3be
  8
Layer_0
  10
467.88147
  20
121.72807
  0
VERTEX
  5
3bf
  8
Layer_0
  10
467.36551
  20
119.98621
  0
VERTEX
  5
3c0
  8
Layer_0
  10
466.75909
  20
118.27373
  0
VERTEX
  5
3c1
  8
Layer_0
  10
466.06387
  20
116.59532
  0
VERTEX
  5
3c2
  8
Layer_0
  10
465.28177
  20
114.95561
  0
VERTEX
  5
3c3
  8
Layer_0
  10
464.41492
  20
113.35909
  0
VERTEX
  5
3c4
  8
Layer_0
  10
463.4657
  20
111.81012
  0
VERTEX
  5
3c5
  8
Layer_0
  10
462.43674
  20
110.31294
  0
VERTEX
  5
3c6
  8
Layer_0
  10
461.33081
  20
108.87167
  0
VERTEX
  5
3c7
  8
Layer_0
  10
460.15097
  20
107.49025
  0
VERTEX
  5
3c8
  8
Layer_0
  10
458.90045
  20
106.17249
  0
VERTEX
  5
3c9
  8
Layer_0
  10
457.58267
  20
104.92197
  0
VERTEX
  5
3ca
  8
Layer_0
  10
456.43402
  20
103.9409
  0
VERTEX
  5
3cb
  8
Layer_0
  10
456.198
  20
103.68672
  0
VERTEX
  5
3cc
  8
Layer_0
  10
456.02655
  20
103.38522
  0
VERTEX
  5
3cd
  8
Layer_0
  10
455.92877
  20
103.05246
  0
VERTEX
  5
3ce
  8
Layer_0
  10
455.90988
  20
102.70613
  0
VERTEX
  5
3cf
  8
Layer_0
  10
455.97086
  20
102.36469
  0
VERTEX
  5
3d0
  8
Layer_0
  10
456.10846
  20
102.04631
  0
VERTEX
  5
3d1
  8
Layer_0
  10
456.75845
  20
100.92049
  0
VERTEX
  5
3d2
  8
Layer_0
  10
458.26096
  20
98.318069
  0
VERTEX
  5
3d3
  8
Layer_0
  10
458.71051
  20
97.232758
  0
VERTEX
  5
3d4
  8
Layer_0
  10
458.86383
  20
96.068069
  0
VERTEX
  5
3d5
  8
Layer_0
  10
458.71051
  20
94.903381
  0
VERTEX
  5
3d6
  8
Layer_0
  10
458.26096
  20
93.818069
  0
VERTEX
  5
3d7
  8
Layer_0
  10
457.54584
  20
92.886093
  0
VERTEX
  5
3d8
  8
Layer_0
  10
456.61383
  20
92.170959
  0
VERTEX
  5
3d9
  8
Layer_0
  10
455.52853
  20
91.721405
  0
VERTEX
  5
3da
  8
Layer_0
  10
454.36383
  20
91.568069
  0
VERTEX
  5
3db
  8
Layer_0
  10
453.19916
  20
91.721405
  0
VERTEX
  5
3dc
  8
Layer_0
  10
452.11383
  20
92.170959
  0
VERTEX
  5
3dd
  8
Layer_0
  10
451.18185
  20
92.886093
  0
VERTEX
  5
3de
  8
Layer_0
  10
450.46674
  20
93.818069
  0
VERTEX
  5
3df
  8
Layer_0
  10
448.96423
  20
96.420486
  0
VERTEX
  5
3e0
  8
Layer_0
  10
448.31421
  20
97.54631
  0
VERTEX
  5
3e1
  8
Layer_0
  10
448.1073
  20
97.824677
  0
VERTEX
  5
3e2
  8
Layer_0
  10
447.8421
  20
98.048203
  0
VERTEX
  5
3e3
  8
Layer_0
  10
447.53271
  20
98.204987
  0
VERTEX
  5
3e4
  8
Layer_0
  10
447.19565
  20
98.286697
  0
VERTEX
  5
3e5
  8
Layer_0
  10
446.84882
  20
98.288956
  0
VERTEX
  5
3e6
  8
Layer_0
  10
446.51068
  20
98.21167
  0
VERTEX
  5
3e7
  8
Layer_0
  10
445.08673
  20
97.707428
  0
VERTEX
  5
3e8
  8
Layer_0
  10
443.34485
  20
97.191467
  0
VERTEX
  5
3e9
  8
Layer_0
  10
441.57837
  20
96.767365
  0
VERTEX
  5
3ea
  8
Layer_0
  10
439.79211
  20
96.43631
  0
VERTEX
  5
3eb
  8
Layer_0
  10
437.99097
  20
96.199173
  0
VERTEX
  5
3ec
  8
Layer_0
  10
436.1799
  20
96.056641
  0
VERTEX
  5
3ed
  8
Layer_0
  10
434.36383
  20
96.009094
  0
VERTEX
  5
3ee
  8
Layer_0
  10
432.54779
  20
96.056641
  0
VERTEX
  5
3ef
  8
Layer_0
  10
430.73669
  20
96.199173
  0
VERTEX
  5
3f0
  8
Layer_0
  10
428.93558
  20
96.43631
  0
VERTEX
  5
3f1
  8
Layer_0
  10
427.14929
  20
96.767365
  0
VERTEX
  5
3f2
  8
Layer_0
  10
425.38281
  20
97.191467
  0
VERTEX
  5
3f3
  8
Layer_0
  10
423.64096
  20
97.707428
  0
VERTEX
  5
3f4
  8
Layer_0
  10
422.21698
  20
98.21167
  0
VERTEX
  5
3f5
  8
Layer_0
  10
421.87888
  20
98.288956
  0
VERTEX
  5
3f6
  8
Layer_0
  10
421.53204
  20
98.286697
  0
VERTEX
  5
3f7
  8
Layer_0
  10
421.19495
  20
98.204987
  0
VERTEX
  5
3f8
  8
Layer_0
  10
420.88559
  20
98.048203
  0
VERTEX
  5
3f9
  8
Layer_0
  10
420.62036
  20
97.824677
  0
VERTEX
  5
3fa
  8
Layer_0
  10
420.41345
  20
97.54631
  0
VERTEX
  5
3fb
  8
Layer_0
  10
419.76346
  20
96.420486
  0
VERTEX
  5
3fc
  8
Layer_0
  10
418.26096
  20
93.818069
  0
VERTEX
  5
3fd
  8
Layer_0
  10
417.54584
  20
92.886093
  0
VERTEX
  5
3fe
  8
Layer_0
  10
416.61383
  20
92.170959
  0
VERTEX
  5
3ff
  8
Layer_0
  10
415.52853
  20
91.721405
  0
VERTEX
  5
400
  8
Layer_0
  10
414.36383
  20
91.568069
  0
VERTEX
  5
401
  8
Layer_0
  10
413.19916
  20
91.721405
  0
VERTEX
  5
402
  8
Layer_0
  10
412.11383
  20
92.170959
  0
VERTEX
  5
403
  8
Layer_0
  10
411.18185
  20
92.886093
  0
VERTEX
  5
404
  8
Layer_0
  10
410.46674
  20
93.818069
  0
VERTEX
  5
405
  8
Layer_0
  10
410.01718
  20
94.903381
  0
VERTEX
  5
406
  8
Layer_0
  10
409.86383
  20
96.068069
  0
VERTEX
  5
407
  8
Layer_0
  10
410.01718
  20
97.232758
  0
VERTEX
  5
408
  8
Layer_0
  10
410.46674
  20
98.318069
  0
VERTEX
  5
409
  8
Layer_0
  10
411.96924
  20
100.92049
  0
VERTEX
  5
40a
  8
Layer_0
  10
412.61923
  20
102.04631
  0
VERTEX
  5
40b
  8
Layer_0
  10
412.75684
  20
102.36469
  0
VERTEX
  5
40c
  8
Layer_0
  10
412.81781
  20
102.70613
  0
VERTEX
  5
40d
  8
Layer_0
  10
412.79889
  20
103.05246
  0
VERTEX
  5
40e
  8
Layer_0
  10
412.70111
  20
103.38522
  0
VERTEX
  5
40f
  8
Layer_0
  10
412.52966
  20
103.68672
  0
VERTEX
  5
410
  8
Layer_0
  10
412.29367
  20
103.9409
  0
VERTEX
  5
411
  8
Layer_0
  10
411.14502
  20
104.92197
  0
VERTEX
  5
412
  8
Layer_0
  10
409.82724
  20
106.17249
  0
VERTEX
  5
413
  8
Layer_0
  10
408.57672
  20
107.49025
  0
VERTEX
  5
414
  8
Layer_0
  10
407.39688
  20
108.87167
  0
VERTEX
  5
415
  8
Layer_0
  10
406.29095
  20
110.31294
  0
VERTEX
  5
416
  8
Layer_0
  10
405.26196
  20
111.81012
  0
VERTEX
  5
417
  8
Layer_0
  10
404.31274
  20
113.35909
  0
VERTEX
  5
418
  8
Layer_0
  10
403.44592
  20
114.95561
  0
VERTEX
  5
419
  8
Layer_0
  10
402.66382
  20
116.59532
  0
VERTEX
  5
41a
  8
Layer_0
  10
401.9686
  20
118.27373
  0
VERTEX
  5
41b
  8
Layer_0
  10
401.36218
  20
119.98621
  0
VERTEX
  5
41c
  8
Layer_0
  10
400.84622
  20
121.72807
  0
VERTEX
  5
41d
  8
Layer_0
  10
400.42212
  20
123.49455
  0
VERTEX
  5
41e
  8
Layer_0
  10
400.09106
  20
125.28081
  0
VERTEX
  5
41f
  8
Layer_0
  10
399.85394
  20
127.08195
  0
VERTEX
  5
420
  8
Layer_0
  10
399.7114
  20
128.89304
  0
VERTEX
  5
421
  8
Layer_0
  10
399.66385
  20
130.70909
  0
VERTEX
  5
422
  8
Layer_0
  10
399.7114
  20
132.52515
  0
VERTEX
  5
423
  8
Layer_0
  10
399.85394
  20
134.33623
  0
VERTEX
  5
424
  8
Layer_0
  10
400.09106
  20
136.13736
  0
VERTEX
  5
425
  8
Layer_0
  10
400.42212
  20
137.92363
  0
VERTEX
  5
426
  8
Layer_0
  10
400.84622
  20
139.69011
  0
VERTEX
  5
427
  8
Layer_0
  10
401.36218
  20
141.43198
  0
VERTEX
  5
428
  8
Layer_0
  10
401.9686
  20
143.14445
  0
VERTEX
  5
429
  8
Layer_0
  10
402.66382
  20
144.82285
  0
VERTEX
  5
42a
  8
Layer_0
  10
403.44592
  20
146.46255
  0
VERTEX
  5
42b
  8
Layer_0
  10
404.31274
  20
148.05908
  0
VERTEX
  5
42c
  8
Layer_0
  10
405.26196
  20
149.60806
  0
VERTEX
  5
42d
  8
Layer_0
  10
406.29095
  20
151.10524
  0
VERTEX
  5
42e
  8
Layer_0
  10
407.39688
  20
152.54651
  0
VERTEX
  5
42f
  8
Layer_0
  10
408.57672
  20
153.92792
  0
VERTEX
  5
430
  8
Layer_0
  10
409.82724
  20
155.2457
  0
VERTEX
  5
431
  8
Layer_0
  10
411.14502
  20
156.49622
  0
VERTEX
  5
432
  8
Layer_0
  10
412.29367
  20
157.47726
  0
VERTEX
  5
433
  8
Layer_0
  10
412.52966
  20
157.73145
  0
VERTEX
  5
434
  8
Layer_0
  10
412.70111
  20
158.03296
  0
VERTEX
  5
435
  8
Layer_0
  10
412.79889
  20
158.36572
  0
VERTEX
  5
436
  8
Layer_0
  10
412.81781
  20
158.71205
  0
VERTEX
  5
437
  8
Layer_0
  10
412.75684
  20
159.0535
  0
VERTEX
  5
438
  8
Layer_0
  10
412.61923
  20
159.37186
  0
VERTEX
  5
439
  8
Layer_0
  10
411.96924
  20
160.4977
  0
VERTEX
  5
43a
  8
Layer_0
  10
410.46674
  20
163.1001
  0
VERTEX
  5
43b
  8
Layer_0
  10
410.01718
  20
164.18542
  0
VERTEX
  5
43c
  8
Layer_0
  10
409.86383
  20
165.3501
  0
VERTEX
  5
43d
  8
Layer_0
  10
410.01718
  20
166.5148
  0
VERTEX
  5
43e
  8
Layer_0
  10
410.46674
  20
167.6001
  0
VERTEX
  5
43f
  8
Layer_0
  10
411.18185
  20
168.53207
  0
VERTEX
  5
440
  8
Layer_0
  10
412.11383
  20
169.24722
  0
VERTEX
  5
441
  8
Layer_0
  10
413.19916
  20
169.69678
  0
VERTEX
  5
442
  8
Layer_0
  10
414.36383
  20
169.8501
  0
VERTEX
  5
443
  8
Layer_0
  10
415.52853
  20
169.69678
  0
VERTEX
  5
444
  8
Layer_0
  10
416.61383
  20
169.24722
  0
VERTEX
  5
445
  8
Layer_0
  10
417.54584
  20
168.53207
  0
VERTEX
  5
446
  8
Layer_0
  10
418.26096
  20
167.6001
  0
VERTEX
  5
447
  8
Layer_0
  10
419.76346
  20
164.9977
  0
VERTEX
  5
448
  8
Layer_0
  10
420.41345
  20
163.87186
  0
VERTEX
  5
449
  8
Layer_0
  10
420.62036
  20
163.59351
  0
VERTEX
  5
44a
  8
Layer_0
  10
420.88559
  20
163.36998
  0
VERTEX
  5
44b
  8
Layer_0
  10
421.19495
  20
163.2132
  0
VERTEX
  5
44c
  8
Layer_0
  10
421.53204
  20
163.13148
  0
VERTEX
  5
44d
  8
Layer_0
  10
421.87888
  20
163.12921
  0
VERTEX
  5
44e
  8
Layer_0
  10
422.21698
  20
163.2065
  0
VERTEX
  5
44f
  8
Layer_0
  10
422.78909
  20
163.40909
  0
SEQEND
  0
ENDSEC
  0
EOF
