  0
SECTION
  2
HEADER
  9
$ACADVER
  1
AC1009
  0
ENDSEC
  0
SECTION
  2
ENTITIES
  0
POLYLINE
  5
90
  8
Layer_0
  62
0
  66
1
  10
0
  20
0
  30
0
  0
VERTEX
  5
90
  8
Layer_0
  10
386.73364
  20
268.06445
  0
VERTEX
  5
91
  8
Layer_0
  10
386.73364
  20
104.50272
  0
VERTEX
  5
92
  8
Layer_0
  10
388.31836
  20
104.97214
  0
VERTEX
  5
93
  8
Layer_0
  10
390.02097
  20
105.57507
  0
VERTEX
  5
94
  8
Layer_0
  10
391.6897
  20
106.26627
  0
VERTEX
  5
95
  8
Layer_0
  10
393.31995
  20
107.04385
  0
VERTEX
  5
96
  8
Layer_0
  10
394.90729
  20
107.9057
  0
VERTEX
  5
97
  8
Layer_0
  10
396.44733
  20
108.84946
  0
VERTEX
  5
98
  8
Layer_0
  10
397.93588
  20
109.8725
  0
VERTEX
  5
99
  8
Layer_0
  10
399.36884
  20
110.97205
  0
VERTEX
  5
9a
  8
Layer_0
  10
400.74228
  20
112.14508
  0
VERTEX
  5
9b
  8
Layer_0
  10
402.05246
  20
113.3884
  0
VERTEX
  5
9c
  8
Layer_0
  10
403.29578
  20
114.69858
  0
VERTEX
  5
9d
  8
Layer_0
  10
404.46881
  20
116.07202
  0
VERTEX
  5
9e
  8
Layer_0
  10
405.56836
  20
117.505
  0
VERTEX
  5
9f
  8
Layer_0
  10
406.59143
  20
118.99353
  0
VERTEX
  5
a0
  8
Layer_0
  10
407.53516
  20
120.53357
  0
VERTEX
  5
a1
  8
Layer_0
  10
408.397
  20
122.12091
  0
VERTEX
  5
a2
  8
Layer_0
  10
409.17459
  20
123.75116
  0
VERTEX
  5
a3
  8
Layer_0
  10
409.86581
  20
125.41989
  0
VERTEX
  5
a4
  8
Layer_0
  10
410.46872
  20
127.1225
  0
VERTEX
  5
a5
  8
Layer_0
  10
410.98172
  20
128.85431
  0
VERTEX
  5
a6
  8
Layer_0
  10
411.40338
  20
130.61063
  0
VERTEX
  5
a7
  8
Layer_0
  10
411.73254
  20
132.3866
  0
VERTEX
  5
a8
  8
Layer_0
  10
411.96829
  20
134.17737
  0
VERTEX
  5
a9
  8
Layer_0
  10
412.11002
  20
135.978
  0
VERTEX
  5
aa
  8
Layer_0
  10
412.11002
  20
236.58917
  0
VERTEX
  5
ab
  8
Layer_0
  10
411.96829
  20
238.38982
  0
VERTEX
  5
ac
  8
Layer_0
  10
411.73254
  20
240.18057
  0
VERTEX
  5
ad
  8
Layer_0
  10
411.40338
  20
241.95654
  0
VERTEX
  5
ae
  8
Layer_0
  10
410.98172
  20
243.71284
  0
VERTEX
  5
af
  8
Layer_0
  10
410.46872
  20
245.44467
  0
VERTEX
  5
b0
  8
Layer_0
  10
409.86581
  20
247.14728
  0
VERTEX
  5
b1
  8
Layer_0
  10
409.17459
  20
248.81599
  0
VERTEX
  5
b2
  8
Layer_0
  10
408.397
  20
250.44626
  0
VERTEX
  5
b3
  8
Layer_0
  10
407.53516
  20
252.03358
  0
VERTEX
  5
b4
  8
Layer_0
  10
406.59143
  20
253.57364
  0
VERTEX
  5
b5
  8
Layer_0
  10
405.56836
  20
255.06218
  0
VERTEX
  5
b6
  8
Layer_0
  10
404.46881
  20
256.49513
  0
VERTEX
  5
b7
  8
Layer_0
  10
403.29578
  20
257.86859
  0
VERTEX
  5
b8
  8
Layer_0
  10
402.05246
  20
259.17877
  0
VERTEX
  5
b9
  8
Layer_0
  10
400.74228
  20
260.42209
  0
VERTEX
  5
ba
  8
Layer_0
  10
399.36884
  20
261.59512
  0
VERTEX
  5
bb
  8
Layer_0
  10
397.93588
  20
262.69467
  0
VERTEX
  5
bc
  8
Layer_0
  10
396.44733
  20
263.71773
  0
VERTEX
  5
bd
  8
Layer_0
  10
394.90729
  20
264.66147
  0
VERTEX
  5
be
  8
Layer_0
  10
393.31995
  20
265.52332
  0
VERTEX
  5
bf
  8
Layer_0
  10
391.6897
  20
266.3009
  0
VERTEX
  5
c0
  8
Layer_0
  10
390.02097
  20
266.99211
  0
VERTEX
  5
c1
  8
Layer_0
  10
388.31836
  20
267.59503
  0
VERTEX
  5
c2
  8
Layer_0
  10
386.73364
  20
268.06445
  0
SEQEND
  0
POLYLINE
  5
c4
  8
Layer_0
  62
0
  66
1
  10
0
  20
0
  30
0
  0
VERTEX
  5
c4
  8
Layer_0
  10
390.45728
  20
249.78358
  0
VERTEX
  5
c5
  8
Layer_0
  10
390.53226
  20
250.35298
  0
VERTEX
  5
c6
  8
Layer_0
  10
390.75201
  20
250.88359
  0
VERTEX
  5
c7
  8
Layer_0
  10
391.10165
  20
251.33922
  0
VERTEX
  5
c8
  8
Layer_0
  10
391.55728
  20
251.68884
  0
VERTEX
  5
c9
  8
Layer_0
  10
392.08789
  20
251.90863
  0
VERTEX
  5
ca
  8
Layer_0
  10
392.65729
  20
251.98358
  0
VERTEX
  5
cb
  8
Layer_0
  10
393.22668
  20
251.90863
  0
VERTEX
  5
cc
  8
Layer_0
  10
393.75729
  20
251.68884
  0
VERTEX
  5
cd
  8
Layer_0
  10
394.21292
  20
251.33922
  0
VERTEX
  5
ce
  8
Layer_0
  10
394.56253
  20
250.88359
  0
VERTEX
  5
cf
  8
Layer_0
  10
394.78232
  20
250.35298
  0
VERTEX
  5
d0
  8
Layer_0
  10
394.85727
  20
249.78358
  0
VERTEX
  5
d1
  8
Layer_0
  10
394.78232
  20
249.21419
  0
VERTEX
  5
d2
  8
Layer_0
  10
394.56253
  20
248.68359
  0
VERTEX
  5
d3
  8
Layer_0
  10
394.21292
  20
248.22795
  0
VERTEX
  5
d4
  8
Layer_0
  10
393.75729
  20
247.87833
  0
VERTEX
  5
d5
  8
Layer_0
  10
393.22668
  20
247.65855
  0
VERTEX
  5
d6
  8
Layer_0
  10
392.65729
  20
247.58359
  0
VERTEX
  5
d7
  8
Layer_0
  10
392.08789
  20
247.65855
  0
VERTEX
  5
d8
  8
Layer_0
  10
391.55728
  20
247.87833
  0
VERTEX
  5
d9
  8
Layer_0
  10
391.10165
  20
248.22795
  0
VERTEX
  5
da
  8
Layer_0
  10
390.75201
  20
248.68359
  0
VERTEX
  5
db
  8
Layer_0
  10
390.53226
  20
249.21419
  0
VERTEX
  5
dc
  8
Layer_0
  10
390.45728
  20
249.78358
  0
SEQEND
  0
POLYLINE
  5
de
  8
Layer_0
  62
0
  66
1
  10
0
  20
0
  30
0
  0
VERTEX
  5
de
  8
Layer_0
  10
391.10165
  20
218.22795
  0
VERTEX
  5
df
  8
Layer_0
  10
390.75201
  20
218.68359
  0
VERTEX
  5
e0
  8
Layer_0
  10
390.53226
  20
219.21419
  0
VERTEX
  5
e1
  8
Layer_0
  10
390.45728
  20
219.78358
  0
VERTEX
  5
e2
  8
Layer_0
  10
390.53226
  20
220.353
  0
VERTEX
  5
e3
  8
Layer_0
  10
390.75201
  20
220.88359
  0
VERTEX
  5
e4
  8
Layer_0
  10
391.10165
  20
221.33922
  0
VERTEX
  5
e5
  8
Layer_0
  10
391.55728
  20
221.68884
  0
VERTEX
  5
e6
  8
Layer_0
  10
392.08789
  20
221.90863
  0
VERTEX
  5
e7
  8
Layer_0
  10
392.65729
  20
221.98358
  0
VERTEX
  5
e8
  8
Layer_0
  10
393.22668
  20
221.90863
  0
VERTEX
  5
e9
  8
Layer_0
  10
393.75729
  20
221.68884
  0
VERTEX
  5
ea
  8
Layer_0
  10
394.21292
  20
221.33922
  0
VERTEX
  5
eb
  8
Layer_0
  10
394.56253
  20
220.88359
  0
VERTEX
  5
ec
  8
Layer_0
  10
394.78232
  20
220.353
  0
VERTEX
  5
ed
  8
Layer_0
  10
394.85727
  20
219.78358
  0
VERTEX
  5
ee
  8
Layer_0
  10
394.78232
  20
219.21419
  0
VERTEX
  5
ef
  8
Layer_0
  10
394.56253
  20
218.68359
  0
VERTEX
  5
f0
  8
Layer_0
  10
394.21292
  20
218.22795
  0
VERTEX
  5
f1
  8
Layer_0
  10
393.75729
  20
217.87833
  0
VERTEX
  5
f2
  8
Layer_0
  10
393.22668
  20
217.65855
  0
VERTEX
  5
f3
  8
Layer_0
  10
392.65729
  20
217.58359
  0
VERTEX
  5
f4
  8
Layer_0
  10
392.08789
  20
217.65855
  0
VERTEX
  5
f5
  8
Layer_0
  10
391.55728
  20
217.87833
  0
VERTEX
  5
f6
  8
Layer_0
  10
391.10165
  20
218.22795
  0
SEQEND
  0
POLYLINE
  5
f8
  8
Layer_0
  62
0
  66
1
  10
0
  20
0
  30
0
  0
VERTEX
  5
f8
  8
Layer_0
  10
390.75201
  20
153.88358
  0
VERTEX
  5
f9
  8
Layer_0
  10
391.10165
  20
154.33922
  0
VERTEX
  5
fa
  8
Layer_0
  10
391.55728
  20
154.68884
  0
VERTEX
  5
fb
  8
Layer_0
  10
392.08789
  20
154.90863
  0
VERTEX
  5
fc
  8
Layer_0
  10
392.65729
  20
154.98358
  0
VERTEX
  5
fd
  8
Layer_0
  10
393.22668
  20
154.90863
  0
VERTEX
  5
fe
  8
Layer_0
  10
393.75729
  20
154.68884
  0
VERTEX
  5
ff
  8
Layer_0
  10
394.21292
  20
154.33922
  0
VERTEX
  5
100
  8
Layer_0
  10
394.56253
  20
153.88358
  0
VERTEX
  5
101
  8
Layer_0
  10
394.78232
  20
153.353
  0
VERTEX
  5
102
  8
Layer_0
  10
394.85727
  20
152.78358
  0
VERTEX
  5
103
  8
Layer_0
  10
394.78232
  20
152.21419
  0
VERTEX
  5
104
  8
Layer_0
  10
394.56253
  20
151.68359
  0
VERTEX
  5
105
  8
Layer_0
  10
394.21292
  20
151.22795
  0
VERTEX
  5
106
  8
Layer_0
  10
393.75729
  20
150.87833
  0
VERTEX
  5
107
  8
Layer_0
  10
393.22668
  20
150.65854
  0
VERTEX
  5
108
  8
Layer_0
  10
392.65729
  20
150.58359
  0
VERTEX
  5
109
  8
Layer_0
  10
392.08789
  20
150.65854
  0
VERTEX
  5
10a
  8
Layer_0
  10
391.55728
  20
150.87833
  0
VERTEX
  5
10b
  8
Layer_0
  10
391.10165
  20
151.22795
  0
VERTEX
  5
10c
  8
Layer_0
  10
390.75201
  20
151.68359
  0
VERTEX
  5
10d
  8
Layer_0
  10
390.53226
  20
152.21419
  0
VERTEX
  5
10e
  8
Layer_0
  10
390.45728
  20
152.78358
  0
VERTEX
  5
10f
  8
Layer_0
  10
390.53226
  20
153.353
  0
VERTEX
  5
110
  8
Layer_0
  10
390.75201
  20
153.88358
  0
SEQEND
  0
POLYLINE
  5
112
  8
Layer_0
  62
0
  66
1
  10
0
  20
0
  30
0
  0
VERTEX
  5
112
  8
Layer_0
  10
390.53226
  20
122.21417
  0
VERTEX
  5
113
  8
Layer_0
  10
390.45728
  20
122.78357
  0
VERTEX
  5
114
  8
Layer_0
  10
390.53226
  20
123.35297
  0
VERTEX
  5
115
  8
Layer_0
  10
390.75201
  20
123.88361
  0
VERTEX
  5
116
  8
Layer_0
  10
391.10165
  20
124.33923
  0
VERTEX
  5
117
  8
Layer_0
  10
391.55728
  20
124.68884
  0
VERTEX
  5
118
  8
Layer_0
  10
392.08789
  20
124.90863
  0
VERTEX
  5
119
  8
Layer_0
  10
392.65729
  20
124.98358
  0
VERTEX
  5
11a
  8
Layer_0
  10
393.22668
  20
124.90863
  0
VERTEX
  5
11b
  8
Layer_0
  10
393.75729
  20
124.68884
  0
VERTEX
  5
11c
  8
Layer_0
  10
394.21292
  20
124.33923
  0
VERTEX
  5
11d
  8
Layer_0
  10
394.56253
  20
123.88361
  0
VERTEX
  5
11e
  8
Layer_0
  10
394.78232
  20
123.35297
  0
VERTEX
  5
11f
  8
Layer_0
  10
394.85727
  20
122.78357
  0
VERTEX
  5
120
  8
Layer_0
  10
394.78232
  20
122.21417
  0
VERTEX
  5
121
  8
Layer_0
  10
394.56253
  20
121.68359
  0
VERTEX
  5
122
  8
Layer_0
  10
394.21292
  20
121.22797
  0
VERTEX
  5
123
  8
Layer_0
  10
393.75729
  20
120.87833
  0
VERTEX
  5
124
  8
Layer_0
  10
393.22668
  20
120.65857
  0
VERTEX
  5
125
  8
Layer_0
  10
392.65729
  20
120.58359
  0
VERTEX
  5
126
  8
Layer_0
  10
392.08789
  20
120.65857
  0
VERTEX
  5
127
  8
Layer_0
  10
391.55728
  20
120.87833
  0
VERTEX
  5
128
  8
Layer_0
  10
391.10165
  20
121.22797
  0
VERTEX
  5
129
  8
Layer_0
  10
390.75201
  20
121.68359
  0
VERTEX
  5
12a
  8
Layer_0
  10
390.53226
  20
122.21417
  0
SEQEND
  0
POLYLINE
  5
12c
  8
Layer_0
  62
0
  66
1
  10
0
  20
0
  30
0
  0
VERTEX
  5
12c
  8
Layer_0
  10
394.55728
  20
166.48358
  0
VERTEX
  5
12d
  8
Layer_0
  10
395.12668
  20
166.40863
  0
VERTEX
  5
12e
  8
Layer_0
  10
395.65729
  20
166.18884
  0
VERTEX
  5
12f
  8
Layer_0
  10
396.11292
  20
165.83922
  0
VERTEX
  5
130
  8
Layer_0
  10
396.46252
  20
165.38358
  0
VERTEX
  5
131
  8
Layer_0
  10
396.68231
  20
164.853
  0
VERTEX
  5
132
  8
Layer_0
  10
396.75729
  20
164.28358
  0
VERTEX
  5
133
  8
Layer_0
  10
396.68231
  20
163.71419
  0
VERTEX
  5
134
  8
Layer_0
  10
396.46252
  20
163.18359
  0
VERTEX
  5
135
  8
Layer_0
  10
396.11292
  20
162.72795
  0
VERTEX
  5
136
  8
Layer_0
  10
395.65729
  20
162.37833
  0
VERTEX
  5
137
  8
Layer_0
  10
395.12668
  20
162.15854
  0
VERTEX
  5
138
  8
Layer_0
  10
394.55728
  20
162.08359
  0
VERTEX
  5
139
  8
Layer_0
  10
393.98788
  20
162.15854
  0
VERTEX
  5
13a
  8
Layer_0
  10
393.45728
  20
162.37833
  0
VERTEX
  5
13b
  8
Layer_0
  10
393.00165
  20
162.72795
  0
VERTEX
  5
13c
  8
Layer_0
  10
392.65204
  20
163.18359
  0
VERTEX
  5
13d
  8
Layer_0
  10
392.43225
  20
163.71419
  0
VERTEX
  5
13e
  8
Layer_0
  10
392.35727
  20
164.28358
  0
VERTEX
  5
13f
  8
Layer_0
  10
392.43225
  20
164.853
  0
VERTEX
  5
140
  8
Layer_0
  10
392.65204
  20
165.38358
  0
VERTEX
  5
141
  8
Layer_0
  10
393.00165
  20
165.83922
  0
VERTEX
  5
142
  8
Layer_0
  10
393.45728
  20
166.18884
  0
VERTEX
  5
143
  8
Layer_0
  10
393.98788
  20
166.40863
  0
VERTEX
  5
144
  8
Layer_0
  10
394.55728
  20
166.48358
  0
SEQEND
  0
POLYLINE
  5
146
  8
Layer_0
  62
0
  66
1
  10
0
  20
0
  30
0
  0
VERTEX
  5
146
  8
Layer_0
  10
394.55728
  20
206.08359
  0
VERTEX
  5
147
  8
Layer_0
  10
393.98788
  20
206.15855
  0
VERTEX
  5
148
  8
Layer_0
  10
393.45728
  20
206.37833
  0
VERTEX
  5
149
  8
Layer_0
  10
393.00165
  20
206.72795
  0
VERTEX
  5
14a
  8
Layer_0
  10
392.65204
  20
207.18359
  0
VERTEX
  5
14b
  8
Layer_0
  10
392.43225
  20
207.71419
  0
VERTEX
  5
14c
  8
Layer_0
  10
392.35727
  20
208.28358
  0
VERTEX
  5
14d
  8
Layer_0
  10
392.43225
  20
208.853
  0
VERTEX
  5
14e
  8
Layer_0
  10
392.65204
  20
209.38359
  0
VERTEX
  5
14f
  8
Layer_0
  10
393.00165
  20
209.83922
  0
VERTEX
  5
150
  8
Layer_0
  10
393.45728
  20
210.18884
  0
VERTEX
  5
151
  8
Layer_0
  10
393.98788
  20
210.40863
  0
VERTEX
  5
152
  8
Layer_0
  10
394.55728
  20
210.48358
  0
VERTEX
  5
153
  8
Layer_0
  10
395.12668
  20
210.40863
  0
VERTEX
  5
154
  8
Layer_0
  10
395.65729
  20
210.18884
  0
VERTEX
  5
155
  8
Layer_0
  10
396.11292
  20
209.83922
  0
VERTEX
  5
156
  8
Layer_0
  10
396.46252
  20
209.38359
  0
VERTEX
  5
157
  8
Layer_0
  10
396.68231
  20
208.853
  0
VERTEX
  5
158
  8
Layer_0
  10
396.75729
  20
208.28358
  0
VERTEX
  5
159
  8
Layer_0
  10
396.68231
  20
207.71419
  0
VERTEX
  5
15a
  8
Layer_0
  10
396.46252
  20
207.18359
  0
VERTEX
  5
15b
  8
Layer_0
  10
396.11292
  20
206.72795
  0
VERTEX
  5
15c
  8
Layer_0
  10
395.65729
  20
206.37833
  0
VERTEX
  5
15d
  8
Layer_0
  10
395.12668
  20
206.15855
  0
VERTEX
  5
15e
  8
Layer_0
  10
394.55728
  20
206.08359
  0
SEQEND
  0
ENDSEC
  0
EOF
