<?xml version="1.0" standalone="no"?>
<!DOCTYPE svg PUBLIC "-//W3C//DTD SVG 1.1//EN" "http://www.w3.org/Graphics/SVG/1.1/DTD/svg11.dtd">
<svg width="28.00000000516718mm" height="60.00000000028973mm"
 viewBox="0 0 28.00000000516718 60.00000000028973"
 xmlns="http://www.w3.org/2000/svg" version="1.1"
 xmlns:xlink="http://www.w3.org/1999/xlink">
<desc>Output from Flights of Ideas SVG Sketchup Plugin</desc>

  <path id="face0-cut"
 style="fill:none;stroke:#000000;stroke-width:;stroke-miterlimit:4;stroke-dasharray:none;stroke-linejoin:round;stroke-linecap:round"
        d="M 1.4853768919456343,44.11603099697655 L 17.956192860696888,58.966766702185566 L 18.500000005793368,59.33012701957304 L 19.086582844009513,59.619397663122726 L 19.705904780352853,59.82962913192222 L 20.347369044783704,59.957224307253114 L 21.00000000589023,60.00000000028973 L 23.000000005889092,60.00000000000114 L 23.65263096698311,59.95722430677574 L 24.294095231377355,59.82962913125951 L 24.91341716765976,59.61939766228082 L 25.500000005792685,59.330127018561996 L 26.043807150783664,58.96676670101772 L 26.535533911610514,58.53553390542288 L 26.96676670706313,58.0438071444716 L 27.330127024450235,57.49999999937546 L 27.619397667999806,56.91341716115929 L 27.829629136799554,56.29409522481578 L 27.957224312130506,55.65263096038484 L 28.00000000516718,54.99999999927857 L 27.99999999794511,4.999999999278032 L 27.957224304719944,4.347369038184041 L 27.829629129203454,3.705904773789541 L 27.61939766022499,3.086582837507393 L 27.3301270165058,2.4999999993746087 L 26.966766698961578,1.9561928543834881 L 26.535533903366854,1.4644660935567515 L 26.043807142415403,1.033233298104136 L 25.499999997319378,0.6698729807168604 L 24.913417159103233,0.38060233716697667 L 24.29409522276012,0.17037086836768367 L 23.652630958328814,0.04277569303624773 L 22.999999997222517,0.0 L 20.999999997223654,2.885656158468919e-10 L 20.347369036129408,0.04277569351435773 L 19.70590477173539,0.17037086903039267 L 19.086582835452987,0.38060233800891297 L 18.499999997320288,0.6698729817279059 L 17.956192852328627,1.033233299272382 L 1.4853768878676874,15.883969009251956 L 1.0502690036109925,16.335100310123067 L 0.6821232586562473,16.84235471576133 L 0.3880935517627222,17.39587513366115 L 0.17389354059082507,17.984905418774986 L 0.04368561249725644,18.597999389573715 L 0.0,19.2232432530611 L 3.1132003641687334e-09,40.7767567535966 L 0.04368561579110519,41.40200061707134 L 0.17389354406202528,42.01509458783181 L 0.38809355540388424,42.60412487288431 L 0.6821232624573668,43.15764529069929 L 1.0502690075586543,43.66489969623106 L 1.4853768919456343,44.11603099697655 M 23.999999997944883,4.999999999855561 L 24.000000005166953,54.9999999998561 L 23.965925831493337,55.25881904496404 L 23.866025409023564,55.499999999875655 L 23.70710678645571,55.70710678108546 L 23.500000005292236,55.866025403713024 L 23.258819050409215,55.9659258262526 L 23.000000005311335,56.000000000000966 L 21.000000005312472,56.00000000028956 L 20.741180960204588,55.965925826616285 L 20.500000005293145,55.86602540414637 L 20.292893224083514,55.70710678157835 L 20.133974601455407,55.5000000004151 L 20.034074178916285,55.25881904553165 L 20.000000005167635,55.00000000043417 L 19.999999997945338,5.00000000043363 L 20.03407417161941,4.741180955325689 L 20.133974594088954,4.500000000413877 L 20.292893216657035,4.292893219204274 L 20.499999997820964,4.133974596577048 L 20.741180952703303,4.034074174037471 L 20.99999999780141,4.000000000288765 L 22.999999997800273,4.0000000000001705 L 23.25881904290793,4.034074173673815 L 23.499999997819828,4.13397459614373 L 23.707106779029232,4.292893218711384 L 23.866025401656884,4.499999999875342 L 23.96592582419646,4.741180954758079 L 23.999999997944883,4.999999999855561 M 16.558845728498568,30.90000000093181 L 16.272792207876478,31.27279220710912 L 15.900000001782132,31.558845727839184 L 15.465874282992786,31.738666488410445 L 15.000000001817284,31.8000000011572 L 14.534125720623592,31.73866648854508 L 14.100000001782178,31.558845728099783 L 13.727207795605068,31.272792207477465 L 13.441154274874975,30.900000001383177 L 13.261333514303601,30.465874282593774 L 13.20000000155676,30.000000001418044 L 13.261333514168768,29.534125720224637 L 13.441154274614405,29.100000001383222 L 13.727207795236495,28.727207795205942 L 14.10000000133084,28.441154274475878 L 14.534125720120414,28.261333513904418 L 15.000000001295916,28.200000001157292 L 15.46587428248938,28.261333513769785 L 15.900000001330795,28.44115427421528 L 16.272792207508132,28.727207794837597 L 16.558845728238225,29.100000000931857 L 16.738666488809372,29.53412571972129 L 16.80000000155667,30.000000000897018 L 16.738666488944205,30.465874282090397 L 16.558845728498568,30.90000000093181 M 6.558845728498795,30.900000002379954 L 6.27279220787625,31.272792208557092 L 5.900000001781905,31.558845729287157 L 5.465874282992104,31.73866648985822 L 5.000000001816602,31.800000002605174 L 4.534125720623365,31.73866648999288 L 4.10000000178195,31.558845729547045 L 3.7272077956046132,31.272792208924898 L 3.441154274874748,30.900000002830268 L 3.2613335143037148,30.465874284040666 L 3.2000000015566457,30.000000002865107 L 3.2613335141692232,29.53412572167153 L 3.4411542746146324,29.100000002830313 L 3.7272077952371774,28.727207796653374 L 4.10000000133175,28.44115427592331 L 4.5341257201210965,28.26133351535222 L 5.000000001296598,28.200000002605265 L 5.465874282489835,28.261333515217586 L 5.90000000133125,28.441154275663422 L 6.272792207508587,28.72720779628557 L 6.55884572823868,29.10000000238003 L 6.738666488809599,29.53412572116926 L 6.800000001556441,30.00000000234516 L 6.738666488943977,30.46587428353837 L 6.558845728498795,30.900000002379954 "
  />
</svg>
