<?xml version="1.0" standalone="no"?>
<!DOCTYPE svg PUBLIC "-//W3C//DTD SVG 1.1//EN" "http://www.w3.org/Graphics/SVG/1.1/DTD/svg11.dtd">
<svg width="28.000000005167294mm" height="60.000000000289916mm"
 viewBox="0 0 28.000000005167294 60.000000000289916"
 xmlns="http://www.w3.org/2000/svg" version="1.1"
 xmlns:xlink="http://www.w3.org/1999/xlink">
<desc>Output from Flights of Ideas SVG Sketchup Plugin</desc>

  <path id="face0-cut"
 style="fill:none;stroke:#000000;stroke-width:;stroke-miterlimit:4;stroke-dasharray:none;stroke-linejoin:round;stroke-linecap:round"
        d="M 0.04368561249725644,18.59799938957373 L 0.0,19.223243253061113 L 3.1134277378441766e-09,40.77675675359659 L 0.04368561579121888,41.40200061707135 L 0.17389354406213897,42.015094587831996 L 0.38809355540388424,42.6041248728843 L 0.6821232624574805,43.15764529069931 L 1.0502690075586543,43.664899696231075 L 1.4853768919456343,44.11603099697656 L 17.956192860697,58.96676670218558 L 18.50000000579348,59.330127019573055 L 19.086582844009627,59.61939766312274 L 19.705904780352967,59.82962913192223 L 20.347369044783818,59.9572243072531 L 21.000000005890342,60.000000000289916 L 23.000000005889206,60.00000000000115 L 23.652630966983224,59.95722430677593 L 24.29409523137747,59.82962913125952 L 24.913417167659873,59.619397662281 L 25.50000000579257,59.33012701856201 L 26.043807150783778,58.966766701017704 L 26.5355339116104,58.535533905422895 L 26.966766707063016,58.043807144471614 L 27.33012702445035,57.49999999937545 L 27.619397668000147,56.9134171611593 L 27.829629136799667,56.29409522481596 L 27.957224312130847,55.652630960384826 L 28.000000005167294,54.99999999927856 L 27.999999997944997,4.999999999278032 L 27.957224304720057,4.347369038184041 L 27.82962912920334,3.7059047737897117 L 27.619397660225104,3.086582837507393 L 27.330127016505912,2.4999999993746087 L 26.966766698961692,1.9561928543835023 L 26.535533903366968,1.4644660935567515 L 26.043807142415517,1.0332332981041503 L 25.49999999731949,0.6698729807168746 L 24.91341715910312,0.3806023371671614 L 24.294095222760006,0.17037086836768367 L 23.652630958328928,0.04277569303644668 L 22.999999997222403,0.0 L 20.999999997223767,2.887645678129047e-10 L 20.34736903612952,0.042775693514343516 L 19.705904771735504,0.17037086903039267 L 19.0865828354531,0.38060233800889876 L 18.4999999973204,0.6698729817279059 L 17.95619285232874,1.0332332992727231 L 1.4853768878676874,15.88396900925197 L 1.0502690036109925,16.335100310123067 L 0.6821232586562473,16.84235471576133 L 0.3880935517627222,17.395875133661136 L 0.17389354059082507,17.98490541877517 L 0.04368561249725644,18.59799938957373 M 20.00000000516752,55.000000000434156 L 19.99999999794545,5.000000000433616 L 20.034074171619523,4.741180955325859 L 20.133974594089068,4.500000000413877 L 20.29289321665692,4.29289321920443 L 20.499999997821078,4.133974596577048 L 20.741180952703417,4.034074174037471 L 20.999999997801524,4.000000000288935 L 22.999999997800387,4.0000000000001705 L 23.258819042908044,4.034074173673815 L 23.49999999781994,4.133974596143716 L 23.707106779029345,4.29289321871137 L 23.866025401656998,4.499999999875342 L 23.965925824196574,4.741180954758079 L 23.999999997944997,4.999999999855746 L 24.000000005167067,54.999999999856286 L 23.96592583149345,55.258819044964056 L 23.86602540902345,55.49999999987567 L 23.707106786455824,55.70710678108547 L 23.50000000529235,55.86602540371304 L 23.2588190504091,55.965925826252615 L 23.00000000531145,56.00000000000098 L 21.000000005312586,56.000000000289745 L 20.741180960204474,55.96592582661627 L 20.50000000529326,55.866025404146356 L 20.2928932240834,55.70710678157853 L 20.13397460145552,55.50000000041511 L 20.0340741789164,55.25881904553184 L 20.00000000516752,55.000000000434156 M 11.73866648894409,30.465874282814852 L 11.558845728498682,30.900000001656252 L 11.272792207876137,31.27279220783319 L 10.900000001781564,31.558845728563256 L 10.465874282992218,31.73866648913433 L 10.000000001816716,31.800000001881287 L 9.534125720623479,31.73866648926898 L 9.100000001782064,31.558845728823144 L 8.727207795604727,31.272792208200997 L 8.441154274874634,30.900000002106538 L 8.261333514303715,30.46587428331712 L 8.200000001556873,30.000000002141405 L 8.261333514169337,29.534125720947998 L 8.441154274614519,29.100000002106597 L 8.727207795237064,28.727207795929473 L 9.100000001331637,28.44115427519941 L 9.53412572012121,28.261333514628333 L 10.000000001296712,28.200000001881378 L 10.465874282489949,28.261333514493685 L 10.900000001331364,28.44115427493952 L 11.2727922075087,28.727207795561668 L 11.558845728238566,29.100000001656298 L 11.738666488809486,29.53412572044573 L 11.800000001556782,30.000000001621444 L 11.73866648894409,30.465874282814852 "
  />
</svg>
