<?xml version="1.0" encoding="UTF-8" standalone="no"?>
<svg
   width="71.00000000000045mm"
   height="71.00000000000057mm"
   viewBox="0 0 71.00000000000045 71.00000000000057"
   version="1.1"
   id="svg1"
   sodipodi:docname="Pulley, A (3mm x 8).svg"
   inkscape:version="1.3 (0e150ed6c4, 2023-07-21)"
   xmlns:inkscape="http://www.inkscape.org/namespaces/inkscape"
   xmlns:sodipodi="http://sodipodi.sourceforge.net/DTD/sodipodi-0.dtd"
   xmlns="http://www.w3.org/2000/svg"
   xmlns:svg="http://www.w3.org/2000/svg">
  <defs
     id="defs1" />
  <sodipodi:namedview
     id="namedview1"
     pagecolor="#ffffff"
     bordercolor="#000000"
     borderopacity="0.25"
     inkscape:showpageshadow="2"
     inkscape:pageopacity="0.0"
     inkscape:pagecheckerboard="0"
     inkscape:deskcolor="#d1d1d1"
     inkscape:document-units="mm"
     inkscape:zoom="7.2331866"
     inkscape:cx="134.1041"
     inkscape:cy="134.17323"
     inkscape:window-width="3840"
     inkscape:window-height="2137"
     inkscape:window-x="-8"
     inkscape:window-y="-8"
     inkscape:window-maximized="1"
     inkscape:current-layer="svg1" />
  <desc
     id="desc1">Output from Flights of Ideas SVG Sketchup Plugin</desc>
  <path
     id="face0-cut"
     style="fill:none;stroke:#000000;stroke-miterlimit:4;stroke-dasharray:none;stroke-linejoin:round;stroke-linecap:round;stroke-width:0.1"
     d="M 51.61666274075935,67.13073160868487 L 53.25000000000534,66.24390183434514 L 54.83468574303862,65.27280516205963 L 56.3663764563878,64.22010330030764 L 57.84087388227408,63.08868163171917 L 59.254136525744116,61.88164130444409 L 60.6022907321269,60.60229073211838 L 61.88164130445176,59.25413652573582 L 63.0886816317265,57.8408738822651 L 64.22010330031446,56.36637645637836 L 65.2728051620661,54.83468574302913 L 66.24390183435088,53.24999999999511 L 67.1307316086901,51.61666274074912 L 67.93086374631508,49.939150829185905 L 68.6421051406532,48.22206220885289 L 69.26250632848013,46.470103300305595 L 69.79036683326387,44.68807610113424 L 70.2242398260517,42.880865024024956 L 70.56293609112873,41.05342350892272 L 70.80552728557473,39.21076044599647 L 70.95134848378814,37.35792644661899 L 71.00000000000045,35.49999999999443 L 70.95134848378751,33.64207355336987 L 70.80552728557359,31.789239553992843 L 70.56293609112691,29.946576491066253 L 70.22423982604937,28.119134975964016 L 69.79036683326092,26.311923898855184 L 69.26250632847666,24.52989669968406 L 68.64210514064905,22.77793779113665 L 67.93086374631037,21.060849170803976 L 67.13073160868487,19.38333725924133 L 66.24390183434508,17.749999999995225 L 65.27280516205985,16.165314256962006 L 64.22010330030764,14.63362354361277 L 63.088681631719226,13.159126117726373 L 61.88164130444403,11.745863474256112 L 60.60229073211872,10.397709267873324 L 59.25413652573559,9.118358695548864 L 57.84087388226516,7.911318368274124 L 56.36637645637853,6.779896699685992 L 54.834685743028956,5.727194837934235 L 53.24999999999534,4.756098165649632 L 51.616662740749064,3.869268391310129 L 49.93915082918596,3.0691362536854285 L 48.22206220885306,2.3578948593473115 L 46.47010330030548,1.7374936715201557 L 44.688076101134186,1.2096331667365803 L 42.88086502402507,0.7757601739489246 L 41.05342350892272,0.43706390887177804 L 39.210760445996186,0.19447271442561487 L 37.35792644661899,0.04865151621208952 L 35.49999999999443,0.0 L 33.642073553369926,0.04865151621277164 L 31.789239553992786,0.1944727144269791 L 29.94657649106631,0.43706390887359703 L 28.119134975964073,0.7757601739510847 L 26.311923898855127,1.2096331667394224 L 24.529896699684002,1.7374936715237936 L 22.777937791136594,2.3578948593516316 L 21.06084917080392,3.0691362536900897 L 19.383337259241102,3.869268391315586 L 17.74999999999511,4.756098165655317 L 16.165314256961835,5.727194837940715 L 14.633623543612657,6.779896699692813 L 13.159126117726373,7.911318368281286 L 11.745863474256282,9.118358695556367 L 10.397709267873552,10.397709267881623 L 9.118358695548693,11.745863474264752 L 7.911318368273953,13.159126117735354 L 6.779896699686049,14.633623543622207 L 5.7271948379343485,16.165314256971328 L 4.7560981656495755,17.750000000005343 L 3.8692683913102996,19.383337259251448 L 3.069136253685315,21.060849170814436 L 2.3578948593472546,22.777937791147565 L 1.7374936715202693,24.52989669969486 L 1.2096331667365803,26.311923898866326 L 0.7757601739486972,28.119134975975612 L 0.4370639088717212,29.946576491077735 L 0.1944727144256717,31.789239554003984 L 0.04865151621231689,33.642073553381465 L 0.0,35.500000000006025 L 0.04865151621294217,37.357926446630586 L 0.19447271442692227,39.21076044600761 L 0.43706390887348334,41.05342350893386 L 0.7757601739510847,42.88086502403655 L 1.2096331667395361,44.688076101145384 L 1.7374936715237936,46.47010330031628 L 2.357894859351404,48.222062208863804 L 3.069136253690033,49.93915082919659 L 3.869268391315586,51.616662740759125 L 4.756098165655317,53.250000000005116 L 5.727194837940601,54.83468574303845 L 6.779896699692813,56.366376456387684 L 7.911318368281229,57.840873882274195 L 9.118358695556424,59.25413652574446 L 10.39770926788168,60.602290732127244 L 11.745863474264866,61.88164130445159 L 13.159126117735298,63.088681631726445 L 14.633623543621923,64.22010330031446 L 16.165314256971442,65.27280516206622 L 17.75000000000506,66.24390183435082 L 19.383337259251334,67.13073160868487 L 21.060849170814492,67.93086374631514 L 22.777937791147338,68.64210514065314 L 24.529896699694973,69.2625063284803 L 26.311923898866212,69.79036683326387 L 28.119134975975328,70.22423982605153 L 29.94657649107768,70.56293609112856 L 31.78923955400421,70.80552728557484 L 33.642073553381465,70.95134848378837 L 35.50000000000597,71.00000000000057 L 37.35792644663047,70.95134848378768 L 39.21076044600767,70.80552728557348 L 41.05342350893409,70.56293609112697 L 42.88086502403638,70.22423982604926 L 44.68807610114533,69.79036683326115 L 46.470103300316396,69.26250632847666 L 48.222062208863804,68.64210514064882 L 49.93915082919648,67.93086374631037 L 51.61666274075935,67.13073160868487 M 36.85000000000338,55.16173140978174 L 37.40918830920714,55.59081169079593 L 37.83826859022156,56.14999999999952 L 38.10799973098415,56.80118857822265 L 38.20000000000374,57.49999999999966 L 38.107999730984375,58.19881142177644 L 37.838268590222015,58.84999999999957 L 37.409188309207764,59.40918830920316 L 36.85000000000423,59.83826859021735 L 36.198811421781045,60.10799973098017 L 35.50000000000426,60.19999999999993 L 34.80118857822748,60.107999730980396 L 34.1500000000043,59.83826859021826 L 33.59081169080048,59.40918830920384 L 33.161731409786114,58.85000000000025 L 32.89200026902353,58.19881142177712 L 32.80000000000388,57.50000000000034 L 32.8920002690233,56.80118857822333 L 33.16173140978566,56.150000000000205 L 33.59081169079985,55.59081169079661 L 34.150000000003445,55.16173140978242 L 34.80118857822663,54.892000269019604 L 35.500000000003354,54.79999999999984 L 36.19881142178019,54.89200026901938 L 36.85000000000338,55.16173140978174 M 11.59081169079684,37.409188309207934 L 11.161731409782476,36.85000000000457 L 10.892000269019888,36.19881142178144 L 10.800000000000239,35.500000000004206 L 10.892000269019661,34.80118857822765 L 11.161731409782021,34.150000000004525 L 11.590811690796215,33.59081169080048 L 12.149999999999864,33.161731409786285 L 12.801188578222991,32.89200026902404 L 13.499999999999716,32.80000000000405 L 14.198811421776497,32.89200026902324 L 14.849999999999795,33.16173140978594 L 15.4091883092035,33.5908116907998 L 15.838268590217865,34.15000000000384 L 16.107999730980453,34.80118857822697 L 16.200000000000102,35.500000000003524 L 16.10799973098068,36.198811421780306 L 15.83826859021832,36.85000000000343 L 15.409188309204126,37.409188309207025 L 14.850000000000534,37.83826859022167 L 14.198811421777407,38.10799973098449 L 13.500000000000625,38.200000000004025 L 12.801188578223844,38.10799973098449 L 12.150000000000603,37.83826859022213 L 11.59081169079684,37.409188309207934 M 60.20000000000027,35.49999999999693 L 60.107999730980794,36.198811421773485 L 59.83826859021838,36.84999999999661 L 59.40918830920418,37.40918830920066 L 58.85000000000059,37.83826859021485 L 58.19881142177741,38.10799973097767 L 57.50000000000068,38.1999999999972 L 56.8011885782239,38.107999730977895 L 56.15000000000066,37.83826859021531 L 55.590811690796954,37.409188309200886 L 55.16173140978259,36.849999999997294 L 54.89200026902,36.198811421774394 L 54.80000000000041,35.49999999999761 L 54.892000269019775,34.80118857822083 L 55.161731409782135,34.14999999999725 L 55.590811690796386,33.59081169079411 L 56.14999999999998,33.16173140977946 L 56.80118857822316,32.89200026901676 L 57.49999999999994,32.799999999997226 L 58.198811421776725,32.89200026901676 L 58.84999999999991,33.16173140977912 L 59.40918830920367,33.59081169079343 L 59.838268590218036,34.14999999999702 L 60.10799973098062,34.80118857822015 L 60.20000000000027,35.49999999999693 M 35.49999999999619,10.80000000000041 L 36.19881142177303,10.892000269019604 L 36.849999999996214,11.161731409782305 L 37.40918830919992,11.590811690796158 L 37.83826859021434,12.150000000000091 L 38.10799973097693,12.801188578223218 L 38.19999999999652,13.499999999999773 L 38.107999730977156,14.198811421776782 L 37.838268590214795,14.849999999999909 L 37.409188309200545,15.4091883092035 L 36.84999999999695,15.838268590218036 L 36.198811421773826,16.107999730980737 L 35.499999999997044,16.200000000000273 L 34.801188578220206,16.107999730980737 L 34.14999999999702,15.83826859021849 L 33.59081169079326,15.409188309204183 L 33.161731409778895,14.850000000000932 L 32.89200026901631,14.198811421777464 L 32.79999999999666,13.500000000000568 L 32.89200026901608,12.801188578224014 L 33.1617314097785,12.150000000000887 L 33.59081169079269,11.590811690796954 L 34.14999999999628,11.161731409782647 L 34.80118857821941,10.892000269020286 L 35.49999999999619,10.80000000000041 " />
</svg>
