<?xml version="1.0" encoding="UTF-8" standalone="no"?>
<svg
   width="130.30000000000666mm"
   height="202.28720581383038mm"
   viewBox="0 0 130.30000000000666 202.28720581383038"
   version="1.1"
   id="svg1"
   sodipodi:docname="Rear Panel, B (3mm x 2).svg"
   inkscape:version="1.3 (0e150ed6c4, 2023-07-21)"
   xmlns:inkscape="http://www.inkscape.org/namespaces/inkscape"
   xmlns:sodipodi="http://sodipodi.sourceforge.net/DTD/sodipodi-0.dtd"
   xmlns="http://www.w3.org/2000/svg"
   xmlns:svg="http://www.w3.org/2000/svg">
  <defs
     id="defs1" />
  <sodipodi:namedview
     id="namedview1"
     pagecolor="#ffffff"
     bordercolor="#000000"
     borderopacity="0.25"
     inkscape:showpageshadow="2"
     inkscape:pageopacity="0.0"
     inkscape:pagecheckerboard="0"
     inkscape:deskcolor="#d1d1d1"
     inkscape:document-units="mm"
     inkscape:zoom="2.5387481"
     inkscape:cx="246.18433"
     inkscape:cy="382.27503"
     inkscape:window-width="3840"
     inkscape:window-height="2137"
     inkscape:window-x="-8"
     inkscape:window-y="-8"
     inkscape:window-maximized="1"
     inkscape:current-layer="svg1" />
  <desc
     id="desc1">Output from Flights of Ideas SVG Sketchup Plugin</desc>
  <path
     id="face0-cut"
     style="fill:none;stroke:#000000;stroke-miterlimit:4;stroke-dasharray:none;stroke-linejoin:round;stroke-linecap:round;stroke-width:0.1"
     d="M 114.20150498959845,76.60772044758244 L 114.96443481673691,75.71444439049958 L 115.93256529652342,75.04906674629899 L 117.0399199366716,74.65693190184209 L 118.21103434844542,74.56476319874616 L 119.36609902004079,74.77884178181182 L 120.42639820292277,75.28457854938426 L 122.76755623718748,76.8049443536903 L 123.11728240767866,76.96709639822245 L 123.49841181347824,77.02490691549258 L 123.88049210406723,76.97375682833797 L 124.23299495295464,76.81773304361866 L 124.52775527985489,76.5693019071681 L 124.74122164880771,76.2483131391433 L 125.71790925506275,74.20064498993463 L 126.77976260435673,71.63710423281839 L 127.70599536364853,69.02150360878943 L 128.49406879332628,66.36101229735016 L 129.1418228388975,63.66292252025812 L 129.6474820515483,60.93462955404868 L 130.00966045452492,58.18361146010227 L 130.22736534199885,55.41740858779201 L 130.30000000000666,52.64360290691968 L 130.2273653419993,49.86979722604394 L 130.0096604545256,47.10359435373425 L 129.64748205154956,44.352576259787156 L 129.1418228388992,41.62428329357829 L 128.49406879332832,38.92619351648557 L 127.70599536365114,36.26570220504698 L 126.7797626043598,33.650101581018134 L 125.71790925506616,31.08656082390189 L 124.74122164880248,29.03889267468753 L 124.52775527984977,28.717903906662514 L 124.23299495294941,28.469472770211382 L 123.88049210406223,28.31344898549287 L 123.49841181347301,28.262298898337576 L 123.11728240767354,28.32010941560759 L 122.76755623718248,28.482261460139625 L 120.42639820291777,30.002627264447142 L 119.36609902003556,30.508364032019017 L 118.21103434844042,30.72244261508456 L 117.03991993666648,30.630273911989434 L 115.9325652965183,30.23813906753253 L 114.96443481673191,29.572761423331144 L 114.20150498959322,28.6794853662484 L 113.695768222021,27.619186183366082 L 113.48168963895546,26.464121511771282 L 113.57385834205104,25.29300709999734 L 113.96599318650772,24.18565245984894 L 114.63137083070944,23.217521980062543 L 115.52464688779207,22.454592152923965 L 117.86580492204848,20.934226348633047 L 118.15618463435817,20.680688772422172 L 118.3640164649089,20.356023390709083 L 118.47269458990979,19.98617106204472 L 118.47353559552437,19.600683095201134 L 118.36647228516063,19.23036009099144 L 118.16005904849476,18.904790965303278 L 116.68667575031122,17.179680769898823 L 114.77665940289648,15.166943504031451 L 112.76392213702923,13.25692715661603 L 110.6539807256512,11.454866949698726 L 108.452618371511,9.76570220504584 L 106.16586885580648,8.194062805810404 L 103.80000000001019,6.744256506342481 L 101.36149648620619,5.420257124933755 L 98.85704208302775,4.225693651859615 L 96.29350132591128,3.1638403025654043 L 93.67790070188278,2.2376075432739526 L 91.01740939044419,1.4495341135958597 L 88.31931961335187,0.801780068024641 L 85.59102664714288,0.29612085537428356 L 83.34176544207884,6.821210263296962e-13 L 82.9562994925002,0.004204948019719268 L 82.58740963019488,0.11610646436668048 L 82.26457026259203,0.32676358529556637 L 82.0135763491831,0.6193447454958232 L 81.85448237674598,0.9704726250588465 L 81.80000000001093,1.352092004149199 L 81.80000000001093,4.143602906915589 L 81.6466662183118,5.308288609877309 L 81.19711431704098,6.393602906915817 L 80.48198051535053,7.325583422255022 L 79.55000000001098,8.040717223945535 L 78.46468570297236,8.490269125216628 L 77.30000000001098,8.643602906916044 L 76.13531429704966,8.490269125216628 L 75.05000000001093,8.040717223945535 L 74.11801948467149,7.325583422255704 L 73.40288568298087,6.393602906915817 L 72.95333378171006,5.308288609877309 L 72.80000000001081,4.143602906915589 L 72.80000000001081,1.352092004148517 L 72.74551762327576,0.9704726250581643 L 72.58642365083864,0.6193447454950274 L 72.3354297374297,0.32676358529488425 L 72.01259036982685,0.11610646436599836 L 71.64370050752154,0.004204948019037147 L 71.25823455794296,0.0 L 69.0089733528784,0.29612085537280564 L 66.28068038666942,0.8017800680232767 L 63.58259060957704,1.4495341135936997 L 60.92209929813828,2.2376075432711104 L 58.30649867410955,3.163840302562562 L 55.74295791699302,4.225693651856091 L 53.238503513814294,5.420257124930231 L 50.80000000001013,6.744256506338161 L 48.434131144213666,8.194062805806084 L 46.14738162850887,9.765702205040839 L 43.94601927436844,11.45486694969361 L 41.83607786299024,13.256927156611027 L 39.823340597122524,15.166943504025653 L 37.9133242497075,17.179680769893025 L 36.43994095151851,18.904790965303278 L 36.23352771485247,19.23036009099144 L 36.126464404488786,19.600683095201134 L 36.12730541010336,19.98617106204472 L 36.23598353510425,20.356023390709083 L 36.44381536565487,20.680688772422172 L 36.734195077964614,20.934226348633047 L 39.07535311222256,22.454592152939767 L 39.968629169301494,23.21752198008062 L 40.63400681349884,24.185652459868493 L 41.02614165795114,25.293007100016098 L 41.11831036104252,26.464121511789244 L 40.90423177797328,27.619186183381885 L 40.39849501039788,28.67948536626136 L 39.6355651832572,29.572761423339784 L 38.66743470346967,30.23813906753753 L 37.56008006332149,30.630273911990116 L 36.38896565154869,30.722442615080922 L 35.23390097995565,30.50836403201174 L 34.173601797076685,30.00262726443634 L 31.83244376283085,28.482261460139625 L 31.482717592339725,28.32010941560759 L 31.101588186540084,28.262298898337576 L 30.719507895950983,28.31344898549287 L 30.367005047063742,28.469472770211382 L 30.072244720163383,28.717903906662514 L 29.858778351210617,29.03889267468753 L 28.882090744950517,31.086560823894615 L 28.743931327300515,31.420107163754437 L 28.33436551914673,32.03899103420679 L 27.823631907395395,32.57742633593057 L 27.227223178620875,33.01908007423344 L 26.563230904030718,33.35055504402669 L 25.8517967464432,33.561796223092074 L 25.114501479412695,33.646395782957256 L 5.0,33.64360290692264 L 4.347369038899728,33.686378600053104 L 3.7059047744874647,33.81397377547728 L 3.086582838174536,34.02420524436593 L 2.5,34.31347588799986 L 1.9561928549564414,34.676836205465975 L 1.4644660940672907,35.10806900098976 L 1.0332332985438484,35.599795761878795 L 0.6698729810778445,36.14360290692207 L 0.38060233744357674,36.730185745097174 L 0.17037086855469852,37.349507681409705 L 0.04277569313097729,37.990971945822025 L 0.0,38.64360290692218 L 0.0,163.643602906909 L 0.04277569313097729,164.29623386800938 L 0.17037086855469852,164.93769813242136 L 0.38060233744357674,165.55702006873378 L 0.6698729810778445,166.143602906909 L 1.0332332985438484,166.68741005195227 L 1.4644660940672907,167.17913681284142 L 1.9561928549564414,167.61036960836498 L 2.5,167.9737299258312 L 3.086582838174536,168.2630005694656 L 3.7059047744874647,168.47323203835424 L 4.347369038899728,168.60082721377842 L 5.0,168.64360290690877 L 25.114501479412695,168.64081003087415 L 25.851796746443256,168.72540959073933 L 26.563230904030718,168.93665076980471 L 27.22722317862099,169.26812573959808 L 27.823631907395395,169.70977947790095 L 28.33436551914673,170.24821477962462 L 28.743931327300515,170.86709865007708 L 28.882090744950517,171.2006449899369 L 29.858778351210617,173.24831313914353 L 30.072244720163383,173.56930190716855 L 30.3670050470638,173.8177330436191 L 30.719507895950983,173.9737568283382 L 31.101588186540084,174.0249069154928 L 31.482717592339725,173.96709639822268 L 31.83244376283085,173.80494435369076 L 34.17360179707674,172.2845785493945 L 35.23390097995565,171.77884178181887 L 36.38896565154869,171.5647631987498 L 37.56008006332138,171.6569319018414 L 38.66743470346955,172.049066746294 L 39.6355651832572,172.71444439049048 L 40.39849501039788,173.6077204475697 L 40.90423177797328,174.66801963044884 L 41.11831036104263,175.82308430204182 L 41.02614165795126,176.99419871381463 L 40.63400681349884,178.1015533539627 L 39.968629169301494,179.06968383374976 L 39.07535311222267,179.83261366089084 L 36.734195077964614,181.35297946519847 L 36.443815365654984,181.6065170414082 L 36.23598353510425,181.93118242312232 L 36.12730541010336,182.3010347517867 L 36.126464404488786,182.68652271862936 L 36.23352771485247,183.05684572283906 L 36.439940951518395,183.38241484852722 L 37.9133242497075,185.10752504393838 L 39.823340597122524,187.1202623098053 L 41.83607786299024,189.0302786572205 L 43.94601927436844,190.83233886413734 L 46.14738162850887,192.52150360879034 L 48.434131144213666,194.0931430080251 L 50.80000000001013,195.5429493074929 L 53.238503513814294,196.86694868890083 L 55.74295791699302,198.06151216197497 L 58.30649867410955,199.12336551126862 L 60.92209929813828,200.04959827056007 L 63.58259060957704,200.83767170023737 L 66.28068038666942,201.4854257458079 L 69.0089733528784,201.99108495845837 L 71.25823455794296,202.28720581383038 L 71.64370050752154,202.28300086581123 L 72.01259036982685,202.17109934946518 L 72.3354297374297,201.96044222853618 L 72.58642365083864,201.66786106833604 L 72.74551762327576,201.3167331887729 L 72.80000000001081,200.93511380968187 L 72.80000000001081,198.14360290691468 L 72.95333378171006,196.97891720395307 L 73.40288568298087,195.89360290691468 L 74.11801948467149,194.96162239157536 L 75.05000000001093,194.24648858988496 L 76.13531429704966,193.79693668861375 L 77.30000000001098,193.64360290691513 L 78.46468570297236,193.79693668861444 L 79.55000000001098,194.24648858988496 L 80.48198051535053,194.96162239157536 L 81.19711431704098,195.89360290691536 L 81.6466662183118,196.97891720395376 L 81.80000000001093,198.14360290691468 L 81.80000000001093,200.93511380968118 L 81.85448237674598,201.31673318877222 L 82.0135763491831,201.66786106833536 L 82.26457026259203,201.9604422285355 L 82.58740963019488,202.1710993494645 L 82.9562994925002,202.28300086581055 L 83.34176544207884,202.2872058138297 L 85.59102664714288,201.99108495845678 L 88.31931961335187,201.4854257458063 L 91.01740939044419,200.8376717002351 L 93.67790070188278,200.0495982705571 L 96.29350132591128,199.12336551126566 L 98.85704208302775,198.06151216197134 L 101.36149648620619,196.8669486888972 L 103.80000000001019,195.54294930748858 L 106.16586885580648,194.09314300802077 L 108.452618371511,192.52150360878534 L 110.6539807256512,190.83233886413234 L 112.76392213702923,189.03027865721526 L 114.77665940289648,187.1202623097996 L 116.68667575031122,185.1075250439327 L 118.16005904849476,183.38241484852722 L 118.36647228516063,183.05684572283906 L 118.47353559552437,182.68652271862936 L 118.47269458990979,182.3010347517867 L 118.3640164649089,181.93118242312232 L 118.15618463435817,181.6065170414082 L 117.86580492204848,181.35297946519847 L 115.52464688779207,179.83261366090744 L 114.63137083070944,179.06968383376864 L 113.96599318650772,178.101553353982 L 113.57385834205104,176.99419871383418 L 113.48168963895546,175.82308430205978 L 113.695768222021,174.66801963046476 L 114.20150498959322,173.60772044758266 L 114.96443481673191,172.7144443904998 L 115.9325652965183,172.049066746299 L 117.03991993666648,171.65693190184209 L 118.21103434844042,171.56476319874616 L 119.36609902003556,171.77884178181182 L 120.42639820291777,172.28457854938426 L 122.76755623718248,173.80494435369076 L 123.11728240767354,173.96709639822268 L 123.49841181347301,174.0249069154928 L 123.88049210406223,173.9737568283382 L 124.23299495294941,173.8177330436191 L 124.52775527984977,173.56930190716855 L 124.74122164880248,173.24831313914353 L 125.71790925506616,171.20064498992963 L 126.7797626043598,168.63710423281339 L 127.70599536365114,166.02150360878397 L 128.49406879332832,163.36101229734538 L 129.1418228388992,160.66292252025312 L 129.64748205154956,157.9346295540439 L 130.0096604545256,155.1836114600968 L 130.2273653419993,152.41740858778724 L 130.30000000000666,149.64360290691127 L 130.22736534199908,146.86979722603394 L 130.00966045452492,144.10359435372368 L 129.64748205154854,141.3525762597759 L 129.14182283889772,138.62428329356715 L 128.4940687933265,135.92619351647375 L 127.70599536364898,133.26570220503584 L 126.77976260435707,130.65010158100688 L 125.71790925506309,128.08656082388995 L 124.74122164880771,126.03889267468787 L 124.52775527985489,125.71790390666285 L 124.23299495295464,125.46947277021229 L 123.88049210406723,125.31344898549321 L 123.49841181347824,125.2622988983386 L 123.11728240767866,125.32010941560873 L 122.76755623718748,125.48226146014065 L 120.42639820292277,127.00262726444737 L 119.36609902004079,127.50836403202004 L 118.21103434844542,127.7224426150857 L 117.0399199366716,127.63027391198978 L 115.93256529652342,127.23813906753287 L 114.96443481673691,126.5727614233316 L 114.20150498959845,125.67948536624874 L 113.69576822202612,124.6191861833671 L 113.48168963896057,123.46412151177162 L 113.57385834205627,122.29300709999768 L 113.96599318651283,121.1856524598494 L 114.63137083071445,120.21752198006277 L 115.52464688779708,119.45459215292419 L 117.86580492205371,117.93422634863339 L 118.1561846343634,117.6806887724232 L 118.36401646491402,117.35602339070954 L 118.47269458991491,116.98617106204517 L 118.47353559552948,116.60068309520204 L 118.36647228516586,116.23036009099235 L 118.16005904849976,115.90479096530419 L 116.89438847196254,114.07493381539791 L 115.56099952294915,111.69399652678396 L 114.50571154339025,109.1774203324552 L 113.74209162015666,106.55755906236834 L 113.2799570713978,103.86809440922514 L 113.12524923226613,101.1436029069124 L 113.27995707139758,98.41911140459945 L 113.74209162015654,95.72964675145624 L 114.50571154339013,93.1097854813687 L 115.56099952294903,90.59320928703994 L 116.8943884719622,88.21227199842599 L 118.16005904849976,86.38241484852676 L 118.36647228516586,86.0568457228386 L 118.47353559552948,85.68652271862891 L 118.47269458991491,85.30103475178669 L 118.36401646491402,84.93118242312232 L 118.1561846343634,84.60651704140798 L 117.86580492205371,84.35297946519847 L 115.52464688779708,82.83261366090767 L 114.63137083071445,82.06968383376818 L 113.96599318651283,81.10155335398179 L 113.57385834205627,79.99419871383418 L 113.48168963896057,78.82308430205956 L 113.69576822202612,77.66801963046476 L 114.20150498959845,76.60772044758244 M 25.15551327914602,52.96486670737784 L 25.20000000000215,53.64360290692241 L 25.15551327914602,54.3223391064663 L 25.022814296705292,54.98946194145526 L 24.804173569060822,55.63355675522064 L 24.503332099681188,56.24360290692255 L 24.444577944420928,56.331534714265786 L 24.12543736951659,56.80916233776736 L 23.676955262172214,57.32055816909258 L 23.16555943084751,57.76904027643661 L 23.0591833667101,57.84011849007936 L 22.600000000002126,58.146935006600984 L 21.989953848300672,58.447776475981186 L 21.34585903453535,58.66641720362543 L 20.67873619954645,58.79911618606627 L 20.00000000000216,58.84360290692268 L 19.321263800457928,58.79911618606627 L 18.654140965469082,58.66641720362543 L 18.01004615170376,58.447776475981186 L 17.400000000002194,58.146935006600984 L 16.834440569156868,57.76904027643661 L 16.323044737832106,57.32055816909258 L 15.87456263048773,56.80916233776736 L 15.496667900323018,56.24360290692255 L 15.195826430943441,55.63355675522064 L 14.977185703299028,54.98946194145526 L 14.844486720858356,54.3223391064663 L 14.800000000002171,53.64360290692241 L 14.844486720858356,52.96486670737784 L 14.977185703299028,52.29774387238888 L 15.195826430943498,51.65364905862418 L 15.496667900323132,51.043602906922274 L 15.874562630487787,50.47804347607678 L 16.323044737832106,49.96664764475224 L 16.834440569156868,49.51816553740821 L 17.400000000002137,49.14027080724293 L 18.010046151703648,48.83942933786352 L 18.654140965469082,48.62078861021939 L 19.321263800457928,48.48808962777855 L 20.00000000000216,48.44360290692214 L 20.67873619954645,48.48808962777855 L 21.345859034535238,48.62078861021939 L 21.989953848300672,48.83942933786352 L 22.600000000002126,49.14027080724293 L 22.90964376222354,49.347168154524525 L 23.16555943084751,49.51816553740821 L 23.676955262172214,49.96664764475224 L 24.12543736951659,50.47804347607678 L 24.347985507633837,50.81111030205341 L 24.503332099681188,51.043602906922274 L 24.804173569060822,51.65364905862418 L 25.02281429670535,52.29774387238888 L 25.15551327914602,52.96486670737784 M 55.27155576477736,18.546106750265494 L 55.199999999984016,18.00258675554994 L 55.27155576477668,17.45906676083507 L 55.481346652036166,16.952586755550215 L 55.81507575949149,16.51766251505819 L 56.249999999983004,16.18393340760224 L 56.75648000526763,15.974142520342639 L 57.299999999982845,15.90258675554901 L 57.843519994698056,15.974142520341957 L 58.349999999982856,16.183933407601558 L 58.784924240474766,16.517662515056827 L 59.11865334793055,16.952586755548054 L 59.328444235190545,17.45906676083291 L 59.399999999983834,18.00258675554778 L 59.32844423519117,18.546106750263334 L 59.118653347931684,19.052586755548305 L 58.78492424047636,19.487510996040214 L 58.349999999984846,19.821240103495484 L 57.843519994700216,20.031030990755767 L 57.299999999985005,20.102586755548714 L 56.75648000526979,20.031030990756562 L 56.24999999998499,19.82124010349696 L 55.815075759493084,19.487510996041692 L 55.4813466520373,19.05258675554967 L 55.27155576477736,18.546106750265494 M 55.4813466520618,88.33461905829643 L 55.271555764801974,87.82813905301225 L 55.20000000000897,87.2846190582967 L 55.2715557648018,86.74109906358183 L 55.481346652061404,86.23461905829697 L 55.81507575951696,85.79969481780506 L 56.25000000000853,85.46596571034968 L 56.75648000529321,85.25617482308928 L 57.30000000000848,85.18461905829656 L 57.84351999472369,85.25617482308928 L 58.350000000008436,85.465965710349 L 58.784924240500175,85.79969481780415 L 59.118653347955785,86.23461905829629 L 59.32844423521561,86.74109906358115 L 59.40000000000873,87.28461905829602 L 59.328444235215784,87.82813905301157 L 59.11865334795618,88.33461905829643 L 58.78492424050074,88.76954329878765 L 58.35000000000912,89.10327240624372 L 57.84351999472443,89.3130632935032 L 57.30000000000922,89.38461905829615 L 56.75648000529395,89.3130632935032 L 56.250000000009265,89.10327240624372 L 55.81507575951747,88.76954329878834 L 55.4813466520618,88.33461905829643 M 95.20000000002074,87.28461905828215 L 95.27155576481368,86.7410990635666 L 95.4813466520734,86.23461905828242 L 95.8150757595289,85.79969481779051 L 96.25000000002069,85.46596571033467 L 96.75648000530543,85.25617482307496 L 97.30000000002065,85.18461905828201 L 97.84351999473586,85.25617482307496 L 98.3500000000206,85.46596571033467 L 98.7849242405124,85.79969481779051 L 99.11865334796789,86.23461905828174 L 99.32844423522761,86.7410990635666 L 99.40000000002055,87.28461905828215 L 99.32844423522761,87.82813905299702 L 99.11865334796789,88.3346190582821 L 98.7849242405124,88.76954329877401 L 98.3500000000206,89.10327240622917 L 97.84351999473586,89.31306329348888 L 97.30000000002065,89.38461905828183 L 96.75648000530543,89.31306329348888 L 96.25000000002069,89.10327240622917 L 95.8150757595289,88.76954329877401 L 95.4813466520734,88.3346190582821 L 95.27155576481368,87.82813905299702 L 95.20000000002074,87.28461905828215 M 99.32844423519043,17.45906676081131 L 99.39999999998372,18.00258675552618 L 99.328444235191,18.546106750241734 L 99.11865334793151,19.05258675552659 L 98.78492424047624,19.487510996018614 L 98.34999999998468,19.82124010347377 L 97.84351999470016,20.031030990734166 L 97.29999999998495,20.102586755527113 L 96.75648000526974,20.03103099073485 L 96.24999999998477,19.821240103475247 L 95.81507575949297,19.487510996019978 L 95.48134665203713,19.05258675552807 L 95.27155576477719,18.546106750243894 L 95.19999999998402,18.00258675552834 L 95.27155576477651,17.45906676081347 L 95.481346652036,16.9525867555285 L 95.81507575949126,16.51766251503659 L 96.24999999998283,16.18393340758064 L 96.75648000526746,15.974142520321038 L 97.29999999998267,15.902586755527295 L 97.843519994698,15.974142520320243 L 98.34999999998274,16.183933407579843 L 98.78492424047465,16.517662515035113 L 99.11865334793049,16.95258675552634 L 99.32844423519043,17.45906676081131 M 119.40000000000214,52.64360290689308 L 119.32844423520942,53.18712290160863 L 119.11865334795004,53.69360290689349 L 118.78492424049466,54.1285271473854 L 118.35000000000309,54.46225625484078 L 117.84351999471858,54.67204714210095 L 117.30000000000325,54.7436029068939 L 116.75648000528804,54.67204714210186 L 116.25000000000318,54.462256254842146 L 115.81507575951139,54.12852714738699 L 115.48134665205566,53.69360290689485 L 115.27155576479561,53.18712290161068 L 115.20000000000232,52.643602906895126 L 115.27155576479504,52.100082912180255 L 115.48134665205441,51.5936029068954 L 115.8150757595098,51.15867866640349 L 116.25000000000136,50.824949558947424 L 116.75648000528588,50.61515867168794 L 117.30000000000109,50.54360290689431 L 117.84351999471642,50.61515867168703 L 118.35000000000127,50.82494955894674 L 118.78492424049307,51.1586786664019 L 119.1186533479488,51.59360290689335 L 119.32844423520885,52.10008291217821 L 119.40000000000214,52.64360290689308 M 34.374477454654766,82.95571042217273 L 33.44249693931528,82.2405766204821 L 32.727363137624764,81.3085961051421 L 32.2778112363539,80.22328180810348 L 32.12447745465471,79.05859610514278 L 32.2778112363539,77.89391040218072 L 32.727363137624764,76.8085961051446 L 33.44249693931528,75.87661558980301 L 34.374477454654766,75.16148178811306 L 35.459791751693444,74.71192988684186 L 36.624477454654766,74.55859610514256 L 37.78916315761609,74.7119298868414 L 38.87447745465482,75.16148178811284 L 39.80645796999437,75.87661558980301 L 40.52159177168488,76.80859610513915 L 40.97114367295569,77.8939104021814 L 41.12447745465482,79.05859610514278 L 40.97114367295569,80.2232818081037 L 40.52159177168488,81.30859610514301 L 39.806457969994256,82.2405766204821 L 38.87447745465482,82.95571042217273 L 37.78916315761609,83.4052623234428 L 36.624477454654766,83.55859610514233 L 35.459791751693444,83.40526232344303 L 34.374477454654766,82.95571042217273 M 33.44249693931528,120.04662919334908 L 34.374477454654766,119.33149539165845 L 35.459791751693444,118.88194349038724 L 36.624477454654766,118.72860970868794 L 37.7891631576162,118.88194349038724 L 38.87447745465482,119.33149539165845 L 39.80645796999437,120.04662919334908 L 40.52159177168477,120.97860970868817 L 40.97114367295569,122.06392400572679 L 41.12447745465482,123.2286097086884 L 40.97114367295569,124.39329541164932 L 40.52159177168477,125.47860970868794 L 39.806457969994256,126.41059022402771 L 38.87447745465482,127.12572402571834 L 37.78916315761609,127.57527592698864 L 36.624477454654766,127.72860970868817 L 35.459791751693444,127.57527592698864 L 34.374477454654766,127.12572402571834 L 33.44249693931528,126.41059022402771 L 32.727363137624764,125.47860970868862 L 32.2778112363539,124.39329541164932 L 32.12447745465471,123.2286097086884 L 32.2778112363539,122.06392400572679 L 32.727363137624764,120.97860970868817 L 33.44249693931528,120.04662919334908 M 119.32844423520942,149.10008291222255 L 119.40000000000214,149.6436029069381 L 119.32844423520885,150.18712290165297 L 119.1186533479488,150.69360290693783 L 118.78492424049307,151.12852714742905 L 118.35000000000127,151.4622562548842 L 117.84351999471642,151.67204714214392 L 117.30000000000109,151.74360290693687 L 116.75648000528588,151.67204714214324 L 116.25000000000136,151.46225625488353 L 115.8150757595098,151.1285271474277 L 115.48134665205441,150.69360290693578 L 115.27155576479504,150.1871229016507 L 115.20000000000232,149.64360290693583 L 115.27155576479561,149.10008291222027 L 115.48134665205566,148.5936029069361 L 115.81507575951139,148.1586786664442 L 116.25000000000318,147.82494955898903 L 116.75648000528804,147.61515867172932 L 117.30000000000325,147.54360290693705 L 117.84351999471858,147.61515867173 L 118.35000000000309,147.8249495589904 L 118.78492424049466,148.15867866644555 L 119.11865334795004,148.5936029069377 L 119.32844423520942,149.10008291222255 M 99.39999999998372,184.28461905830534 L 99.32844423519043,184.8281390530202 L 99.11865334793049,185.33461905830507 L 98.78492424047465,185.7695432987963 L 98.34999999998274,186.10327240625145 L 97.843519994698,186.31306329351116 L 97.29999999998267,186.3846190583041 L 96.75648000526746,186.31306329351048 L 96.24999999998283,186.10327240625077 L 95.81507575949126,185.76954329879493 L 95.481346652036,185.33461905830302 L 95.27155576477651,184.82813905301794 L 95.19999999998402,184.28461905830306 L 95.27155576477719,183.7410990635875 L 95.48134665203713,183.2346190583031 L 95.81507575949297,182.79969481781097 L 96.24999999998477,182.46596571035627 L 96.75648000526974,182.25617482309656 L 97.29999999998495,182.1846190583043 L 97.84351999470016,182.25617482309724 L 98.34999999998468,182.46596571035764 L 98.78492424047624,182.79969481781256 L 99.11865334793151,183.23461905830447 L 99.328444235191,183.7410990635898 L 99.39999999998372,184.28461905830534 M 95.27155576481368,115.54610675026436 L 95.20000000002074,115.0025867555488 L 95.27155576481368,114.45906676083393 L 95.4813466520734,113.95258675554908 L 95.8150757595289,113.51766251505717 L 96.25000000002069,113.18393340760178 L 96.75648000530543,112.9741425203423 L 97.30000000002065,112.90258675554935 L 97.84351999473586,112.9741425203423 L 98.3500000000206,113.18393340760178 L 98.7849242405124,113.51766251505717 L 99.11865334796789,113.95258675554908 L 99.32844423522761,114.45906676083393 L 99.40000000002055,115.0025867555488 L 99.32844423522761,115.54610675026436 L 99.11865334796789,116.05258675554921 L 98.7849242405124,116.48751099604044 L 98.3500000000206,116.8212401034965 L 97.84351999473586,117.03103099075622 L 97.30000000002065,117.10258675554917 L 96.75648000530543,117.03103099075622 L 96.25000000002069,116.8212401034965 L 95.8150757595289,116.48751099604044 L 95.4813466520734,116.05258675554853 L 95.27155576481368,115.54610675026436 M 55.271555764801974,114.4590667608187 L 55.4813466520618,113.95258675553453 L 55.81507575951747,113.51766251504262 L 56.250000000009265,113.18393340758746 L 56.75648000529395,112.97414252032775 L 57.30000000000922,112.9025867555348 L 57.84351999472443,112.97414252032775 L 58.35000000000912,113.18393340758746 L 58.78492424050074,113.5176625150433 L 59.11865334795618,113.95258675553453 L 59.328444235215784,114.45906676081961 L 59.40000000000873,115.00258675553516 L 59.32844423521561,115.54610675025003 L 59.118653347955785,116.05258675553489 L 58.784924240500175,116.4875109960268 L 58.350000000008436,116.82124010348218 L 57.84351999472369,117.03103099074167 L 57.30000000000848,117.10258675553462 L 56.75648000529321,117.03103099074167 L 56.25000000000853,116.82124010348127 L 55.81507575951696,116.48751099602612 L 55.481346652061404,116.05258675553421 L 55.2715557648018,115.54610675024935 L 55.20000000000897,115.00258675553448 L 55.271555764801974,114.4590667608187 M 55.199999999984016,184.28461905828146 L 55.27155576477736,183.7410990635659 L 55.4813466520373,183.23461905828128 L 55.815075759493084,182.79969481778937 L 56.24999999998499,182.46596571033444 L 56.75648000526979,182.25617482307496 L 57.299999999985005,182.1846190582827 L 57.843519994700216,182.25617482307564 L 58.349999999984846,182.46596571033604 L 58.78492424047636,182.79969481779096 L 59.118653347931684,183.23461905828287 L 59.32844423519117,183.74109906356796 L 59.399999999983834,184.28461905828374 L 59.328444235190545,184.8281390529986 L 59.11865334793055,185.33461905828347 L 58.784924240474766,185.7695432987747 L 58.349999999982856,186.10327240622985 L 57.843519994698056,186.31306329348956 L 57.299999999982845,186.3846190582825 L 56.75648000526763,186.31306329348888 L 56.249999999983004,186.10327240622917 L 55.81507575949149,185.7695432987731 L 55.481346652036166,185.3346190582812 L 55.27155576477668,184.82813905299633 L 55.199999999984016,184.28461905828146 M 25.20000000000215,148.64360290690877 L 25.15551327914602,149.32233910645334 L 25.02281429670535,149.9894619414423 L 24.804173569060822,150.633556755207 L 24.503332099681188,151.2436029069089 L 24.347985507633837,151.47609551177754 L 24.12543736951659,151.8091623377544 L 23.67695526217227,152.32055816907894 L 23.16555943084751,152.76904027642297 L 22.90964376222354,152.94003765930654 L 22.600000000002183,153.14693500658802 L 21.989953848300672,153.44777647596754 L 21.34585903453535,153.6664172036118 L 20.67873619954645,153.79911618605263 L 20.00000000000216,153.84360290690904 L 19.321263800457928,153.79911618605263 L 18.654140965469082,153.6664172036118 L 18.01004615170376,153.44777647596754 L 17.400000000002194,153.14693500658802 L 16.834440569156868,152.76904027642297 L 16.323044737832106,152.32055816907894 L 15.874562630487787,151.8091623377544 L 15.496667900323132,151.2436029069089 L 15.195826430943441,150.633556755207 L 14.977185703299028,149.9894619414423 L 14.844486720858356,149.32233910645334 L 14.800000000002171,148.64360290690877 L 14.844486720858356,147.96486670736488 L 14.977185703299028,147.29774387237592 L 15.195826430943441,146.65364905861054 L 15.496667900323132,146.04360290690863 L 15.87456263048773,145.47804347606382 L 16.323044737832106,144.9666476447386 L 16.834440569156868,144.51816553739457 L 17.400000000002137,144.14027080722997 L 18.01004615170376,143.83942933785 L 18.654140965469082,143.62078861020575 L 19.32126380045787,143.4880896277649 L 20.00000000000216,143.4436029069085 L 20.67873619954645,143.4880896277649 L 21.34585903453535,143.62078861020575 L 21.989953848300672,143.83942933785 L 22.600000000002183,144.14027080722997 L 23.0591833667101,144.44708732375182 L 23.16555943084751,144.51816553739457 L 23.676955262172214,144.9666476447386 L 24.12543736951659,145.47804347606382 L 24.444577944420928,145.9556710995654 L 24.503332099681188,146.04360290690863 L 24.804173569060822,146.65364905861054 L 25.022814296705292,147.29774387237592 L 25.155513279145964,147.96486670736488 L 25.20000000000215,148.64360290690877 M 106.4018687077189,71.54257742192169 L 105.37288970482427,73.03975116144977 L 104.26696486257129,74.48102047633108 L 103.0871254440807,75.86243494755456 L 101.83660530718907,77.1802082140756 L 100.51883204066883,78.4307283509687 L 99.13741756944648,79.610567769461 L 97.69614825456654,80.71649261171581 L 96.19897451503971,81.74547161461203 L 94.65000000001874,82.69468441822676 L 93.05347034098145,83.56152929624375 L 91.41376151474992,84.34363028710675 L 89.73536784924192,85.03884370636194 L 88.8747544157959,85.34360290691518 L 88.8747544157959,116.943602906916 L 89.73536784924192,117.248362107469 L 91.41376151474992,117.9435755267242 L 93.05347034098145,118.72567651758743 L 94.65000000001874,119.5925213956042 L 96.19897451503971,120.54173419921892 L 97.69614825456654,121.57071320211514 L 99.13741756944648,122.67663804437018 L 100.51883204066883,123.85647746286247 L 101.83660530718907,125.10699759975557 L 103.0871254440807,126.42477086627639 L 104.26696486257129,127.8061853375001 L 105.37288970482427,129.2474546523814 L 106.4018687077189,130.7446283919095 L 107.35108151133193,132.29360290693114 L 108.21792638934744,133.89013256596957 L 109.00002738020828,135.52984139220223 L 109.69524079946211,137.20823505771102 L 110.3016611154502,138.9207132021221 L 110.81762617223808,140.66258204187614 L 111.24172174546948,142.42906723555723 L 111.57278541865674,144.2153269700376 L 111.80990976928354,146.01646523154648 L 111.95244485598721,147.82754522530365 L 112.0000000000025,149.64360290693378 L 111.95244485598528,151.4596605885639 L 111.80990976927956,153.27074058232108 L 111.57278541865082,155.07187884382972 L 111.24172174546163,156.85813857830965 L 110.8176261722283,158.62462377199097 L 110.30166111543849,160.36649261174432 L 109.69524079944881,162.07897075615472 L 109.00002738019316,163.75736442166237 L 108.21792638933027,165.39707324789435 L 107.35108151131317,166.9936029069312 L 106.40186870769844,168.54257742195261 L 105.37288970480222,170.03975116147933 L 104.26696486254764,171.48102047635905 L 103.08712544405557,172.86243494758162 L 101.83660530716247,174.18020821410198 L 100.51883204064097,175.4307283509935 L 99.13741756941727,176.61056776948396 L 97.69614825453618,177.71649261173718 L 96.19897451500822,178.74547161463204 L 94.64999999998622,179.69468441824495 L 93.05347034094814,180.5615292962599 L 91.41376151471565,181.3436302871213 L 89.73536784920691,182.0388437063749 L 88.02288970479538,182.645264022363 L 86.28102086504191,183.16122907915098 L 84.51453567136042,183.58532465238216 L 82.72827593687998,183.91638832556953 L 80.9271376753714,184.15351267619633 L 79.11605768161394,184.29604776290023 L 77.2999999999837,184.3436029069154 L 75.48394231835368,184.29604776289818 L 73.67286232459628,184.1535126761927 L 71.87172406308798,183.91638832556384 L 70.085464328608,183.58532465237488 L 68.31897913492696,183.16122907914075 L 66.57711029517407,182.6452640223514 L 64.8646321507631,182.03884370636194 L 63.1862384852551,181.34363028710607 L 61.54652965902346,180.5615292962433 L 59.94999999998623,179.69468441822607 L 58.40102548496537,178.7454716146109 L 56.903851745438544,177.71649261171467 L 55.462582430558484,176.61056776946077 L 54.08116795933614,175.43072835096825 L 52.763394692816064,174.18020821407515 L 51.512874555924384,172.86243494755342 L 50.33303513743385,171.48102047633017 L 49.22711029518081,170.03975116144886 L 48.198131292286064,168.54257742192078 L 47.248918488673155,166.99360290689867 L 46.3820736106577,165.39707324786048 L 45.59997261979663,163.7573644216285 L 44.904759200542856,162.07897075612016 L 44.29833888455488,160.36649261170817 L 43.782373827767,158.62462377195504 L 43.358278254535605,156.85813857827281 L 43.02721458134829,155.0718788437922 L 42.79009023072149,153.27074058228425 L 42.647555144017815,151.4596605885264 L 42.600000000002524,149.64360290689626 L 42.64755514401975,147.8275452252659 L 42.790090230725355,146.01646523150896 L 43.027214581354144,144.21532697000077 L 43.358278254543336,142.4290672355204 L 43.78237382777667,140.6625820418393 L 44.29833888456642,138.92071320208663 L 44.904759200556384,137.20823505767555 L 45.599972619811865,135.52984139216744 L 46.38207361067464,133.89013256593637 L 47.24891848869191,132.29360290689863 L 48.19813129230647,130.74462839187765 L 49.22711029520292,129.24745465235094 L 50.33303513745739,127.80618533747122 L 51.51287455594945,126.4247708662491 L 52.76339469284261,125.10699759972874 L 54.08116795936411,123.85647746283723 L 55.46258243058776,122.6766380443463 L 56.9038517454689,121.57071320209354 L 58.40102548499675,120.54173419919869 L 59.95000000001869,119.59252139558555 L 61.546529659057,118.72567651756992 L 63.18623848528938,117.9435755267092 L 64.86463215079812,117.24836210745536 L 65.72524558420929,116.943602906916 L 65.72524558420929,85.34360290691518 L 64.86463215079812,85.03884370637581 L 63.18623848528938,84.34363028712198 L 61.546529659057,83.56152929626103 L 59.95000000001869,82.69468441824563 L 58.40102548499675,81.74547161463227 L 56.9038517454689,80.71649261173741 L 55.46258243058776,79.61056776948465 L 54.08116795936411,78.43072835099417 L 52.76339469284261,77.18020821410221 L 51.51287455594945,75.86243494758162 L 50.33303513745739,74.48102047635973 L 49.22711029520292,73.03975116148024 L 48.19813129230647,71.5425774219533 L 47.24891848869191,69.99360290693232 L 46.38207361067464,68.39707324789481 L 45.599972619811865,66.75736442166351 L 44.904759200556384,65.0789707561554 L 44.29833888456642,63.36649261174432 L 43.78237382777667,61.62462377199188 L 43.358278254543336,59.858138578310786 L 43.027214581354144,58.07187884383018 L 42.790090230725355,56.27074058232222 L 42.64755514401975,54.45966058856504 L 42.600000000002524,52.643602906934916 L 42.647555144017815,50.82754522530456 L 42.79009023072149,49.01646523154682 L 43.02721458134829,47.215326970038745 L 43.35827825453549,45.42906723555825 L 43.782373827767,43.662582041876476 L 44.29833888455488,41.92071320212324 L 44.904759200542856,40.20823505771136 L 45.59997261979663,38.52984139220257 L 46.3820736106577,36.8901325659707 L 47.248918488673155,35.29360290693228 L 48.198131292286064,33.74462839191051 L 49.22711029518081,32.247454652382544 L 50.33303513743385,30.806185337501233 L 51.512874555924384,29.424770866277527 L 52.763394692816064,28.106997599755914 L 54.08116795933614,26.856477462862813 L 55.462582430558484,25.676638044370634 L 56.903851745438544,24.570713202116394 L 58.40102548496537,23.54173419922006 L 59.94999999998623,22.59252139560533 L 61.54652965902346,21.72567651758777 L 63.1862384852551,20.943575526725454 L 64.8646321507631,20.24836210746946 L 66.57711029517407,19.641941791479667 L 68.31897913492696,19.125976734690312 L 70.085464328608,18.701881161456527 L 71.87172406308798,18.370817488267562 L 73.67286232459628,18.133693137638602 L 75.48394231835368,17.991158050933336 L 77.2999999999837,17.943602906916 L 79.11605768161394,17.991158050931176 L 80.9271376753714,18.133693137635078 L 82.72827593687998,18.370817488261764 L 84.51453567136042,18.701881161449364 L 86.28102086504191,19.125976734680194 L 88.02288970479538,19.641941791468184 L 89.73536784920691,20.2483621074565 L 91.41376151471565,20.94357552671022 L 93.05347034094814,21.725676517571173 L 94.64999999998622,22.592521395586573 L 96.19897451500822,23.54173419919914 L 97.69614825453618,24.570713202093998 L 99.13741756941727,25.676638044347442 L 100.51883204064097,26.856477462837574 L 101.83660530716247,28.106997599729198 L 103.08712544405557,29.424770866249446 L 104.26696486254764,30.806185337472357 L 105.37288970480222,32.24745465235219 L 106.40186870769844,33.74462839187879 L 107.35108151131317,35.29360290689988 L 108.21792638933027,36.89013256593671 L 109.00002738019316,38.52984139216869 L 109.69524079944881,40.20823505767669 L 110.30166111543849,41.920713202087086 L 110.8176261722283,43.66258204184044 L 111.24172174546163,45.429067235521416 L 111.57278541865082,47.21532697000123 L 111.80990976927956,49.01646523150998 L 111.95244485598528,50.827545225267045 L 112.0000000000025,52.6436029068974 L 111.95244485598721,54.45966058852753 L 111.80990976928354,56.2707405822847 L 111.57278541865674,58.07187884379334 L 111.24172174546948,59.85813857827395 L 110.81762617223808,61.624623771955044 L 110.3016611154502,63.36649261170908 L 109.69524079946211,65.07897075612016 L 109.00002738020828,66.75736442162895 L 108.21792638934744,68.39707324786161 L 107.35108151133193,69.99360290689981 L 106.4018687077189,71.54257742192169 " />
</svg>
